<?xml version="1.0" encoding="utf-8"?>
<!-- Generator: Adobe Illustrator 19.2.0, SVG Export Plug-In . SVG Version: 6.00 Build 0)  -->
<svg version="1.1" id="_x31_018" image-rendering="auto"
	 xmlns="http://www.w3.org/2000/svg" xmlns:xlink="http://www.w3.org/1999/xlink" x="0px" y="0px" width="660px" height="660px"
	 viewBox="0 0 660 660" enable-background="new 0 0 660 660" xml:space="preserve">
<path opacity="0.25" fill="#332C2A" d="M615.2,474.5c-18.9-13.3-19.2-26.2-0.8-38.8c11.3-4.7,20.4-15,27.2-30.8
	c6.7-15.9,9.1-34.8,7.3-56.8c-0.5-4.6-1-9-1.4-13.2v-0.2c-1.7-13.4-3.4-23.8-4.9-31.2c-0.3-1.4-0.6-2.9-1-4.3
	c-0.1-0.4-0.2-0.7-0.2-1c-0.3-0.7-0.5-1.2-0.6-1.8c-8.5-43.4-19-78.2-31.4-104.5c-12.4-26.6-19.1-44.4-20.3-53.4
	c-1.2-9.1-1.1-20.5,0.2-34.3c1.3-13.8,1.8-23.2,1.4-28.2c-2.9-31.2-20.1-48.6-51.7-52.5c-31.7-3.9-51.7-6-59.9-6.1
	c-58.8-1.3-111.7-1-158.7,1s-104.3,5.4-171.8,10.3c-61,2.2-98,8-111,17.2c-5.5,3.4-10.3,8-14.4,13.6c-3.7,5.1-6.9,15.4-9.7,31
	c-2.1,12.4-0.7,34,4.1,65.1c4.7,30.9,8.7,58.2,12,82c3.2,23.8,7,56.9,11.6,99.2c4.6,42.2,8,69.3,10.1,81.4c-8.5,3-16,9.9-22.3,20.7
	c-2.9,4.7-5.2,10.4-6.9,17c-1.1,3.8-2.4,9.4-4.1,16.8c-1.1,3.8-2.8,15.1-5.1,33.9c-2.4,18.4-3.5,34.8-3.4,49.1s0.2,22.3,0.2,24.1
	s0.1,3,0.2,3.7l0.2-2.8c-1.4,50.2,33.8,73.3,105.7,69.2l406.2-4.3c40,2.1,68.1-1.4,84.4-10.6c16.2-9.2,27-19.9,32.5-31.9
	c5.7-12.1,8.8-22.6,9.5-31.6c0.7-8.9,0.1-24-1.8-45.2C644.8,505,634.3,487.7,615.2,474.5z"/>
</svg>
