<?xml version="1.0" encoding="utf-8"?>
<!-- Generator: Adobe Illustrator 19.2.0, SVG Export Plug-In . SVG Version: 6.00 Build 0)  -->
<svg version="1.1" id="_x31_001" image-rendering="auto"
	 xmlns="http://www.w3.org/2000/svg" xmlns:xlink="http://www.w3.org/1999/xlink" x="0px" y="0px" width="1020px" height="660px"
	 viewBox="0 0 1020 660" enable-background="new 0 0 1020 660" xml:space="preserve">
<path opacity="0.25" fill="#332C2A" d="M913.1,206.9c8.7-0.6,16.2-2,22.4-4.2c22-7.6,32.9-26.3,32.9-55.9c0-12.9-1.8-24.3-5.5-34.2
	c-4.9-13.1-13-24.7-24.6-34.8C927,67.9,916.8,61.4,908,58.2c-14.6-5.1-31.3-4.7-50.2,1.1c-4.7,1.3-14.1,5.9-28,13.8
	c-6.9,3.9-12.3,7.2-16,9.8c-2.7-2.8-6.1-5.8-10.4-8.9c-11.4-8.6-22.5-14.4-33.3-17.5c-20.5-6.9-40.5-5.2-60.1,5.1
	c-0.7,0.4-1.5,0.8-2.2,1.3c-1.2-0.5-2.4-0.9-3.5-1.3c-8.3-3-16.7-5.9-25.5-8.6l-40.4-10.9c-41.3-8.9-84.8-13.3-130.5-13.3
	c-62.1,0-119.9,8.3-173.4,24.8l-22.8,7.8c-27.1,9.3-47.1,17-60.1,23.1c-7.8,3.5-12.6,5.8-14.4,6.9c-5.9-5.7-13.1-10.4-21.5-14
	c-16.9-7.6-36.2-6.6-58.1,3.1c-7.5,3.3-15.8,9-24.9,17.3c-3.4,3-6.2,5.9-8.4,8.6c-4.2-2.1-14.6-1.7-31.1,1.1
	c-16.1,2.4-29.6,9.5-40.4,21.3c-8.5,9.3-11.7,25.1-9.6,47.1c1.9,22,20.7,38.6,56.4,50c1.7,0.5,3.4,1,5.1,1.5
	c-4.7,7.6-9,15.2-12.9,22.8c-18.1,35.4-28.8,65.3-32.2,89.5c-3.5,24.3-5.1,39.1-4.7,44.6c0.1,5.5,0.2,11.4,0.4,17.8
	c0.6,24.8,5.2,49.9,13.8,75.5c0-0.1,0.2-0.2,0.5-0.2c0.8,3.4,1.9,6.8,3.1,10.2c7.3,21.1,18.4,39.1,33.3,53.9
	c14.9,14.8,29.6,25.9,44,33.3c9,4.6,14.7,7.4,17.3,8.4c-6.9,1.7-10.8,7.6-11.6,17.8c-1,9.1,5,14.6,17.8,16.6l7.6,0.4
	c0.1,0,0.2,0,0.4,0l6.9,0.2c0.7,0.1,1.5,0.2,2.4,0.2l20.4,0.7c7.2,0.2,14.8,0.5,22.9,0.9c1.5,0.1,2.9,0.2,4.4,0.2l632.1,2.7
	c6.6-0.1,13.3-0.5,20.4-1.1c7-0.6,10.9-5,11.6-13.1c0.7-8.1-3.2-13.3-11.6-15.5c-8.6-2.2-12.2-5.8-10.7-10.7
	c1.5-5,14.3-21.4,38.6-49.1s38-64.9,41.1-111.4c3.5-52.5-4.1-107.3-22.9-164.2C930.8,239.7,922.8,222.7,913.1,206.9z"/>
</svg>
