<?xml version="1.0" encoding="utf-8"?>
<!-- Generator: Adobe Illustrator 19.2.0, SVG Export Plug-In . SVG Version: 6.00 Build 0)  -->
<svg version="1.1" id="_x31_011" image-rendering="auto"
	 xmlns="http://www.w3.org/2000/svg" xmlns:xlink="http://www.w3.org/1999/xlink" x="0px" y="0px" width="1020px" height="660px"
	 viewBox="0 0 1020 660" enable-background="new 0 0 1020 660" xml:space="preserve">
<path opacity="0.25" fill="#332C2A" d="M960.7,127.5C938.6,97.8,899.7,76.7,844,64C788.2,51.3,737.9,49.1,693,57.5
	c-22.9,4.2-40.5,9.5-52.8,15.8c-76.4-33.8-170.5-55-282.3-63.8H295C148.9,12,61,67,31.3,174.7c-3.6,20-4.6,39.5-3.1,58.6
	c2.1,29.3,8.5,56.1,19.1,80.3c10.6,24.1,16,36.4,16.2,36.9c-0.5,1.2-1.1,2.4-1.8,3.8c-5,11.3-7.5,21.5-7.5,30.4
	c0,2.8,0.1,5.4,0.3,7.9c1.2,9.9,4.6,17.8,10.3,23.8c7.1,7.6,10.6,13.7,10.7,18.2c-1.7,1.3-3.4,2.8-5,4.3c-4.2,5.7-7.3,14.8-9.3,27.4
	c-2.2,14.6,3.1,27.5,16,38.8c0.3,0.3,0.5,0.5,0.8,0.8c-0.1,0-0.3,0-0.4,0C55.1,512.6,46,534.3,50.4,571c5.2,45.5,38.4,63,99.6,52.6
	c60.9-10.9,88.3-11.9,82-2.9c0.7,6.6,5.5,11.4,14.4,14.4c15.4,6.1,65.6,11.1,150.5,15c84.8,3.8,143.8,2.7,177-3.5l49.9-9l1-0.4
	c1.8,0,3.7,0,5.5,0c5.9-0.1,11.5-0.3,16.6-0.4c33-0.9,52.5-3.1,58.3-6.5c11.7-6.8,15.1-13.2,10.1-19.2l5.1,1
	c4.3,0.6,8.8,1.3,13.3,2.2c-0.1-0.3-0.1-0.5,0-0.6c48.4,6.3,94.2,8.4,137.5,6.2c73-3.7,92.2-43.3,57.6-118.8
	c12.2-3.2,21.6-7.3,28.2-12.5c10.1-8,15.1-18.3,14.8-30.8c-0.4-12.4-2.4-24.9-6.1-37.5l-3.5-10.6l-13.4-29.8c0.3-1.3,1.2-3,2.8-5.1
	c2.8-4,9.2-14.3,19.2-31c9.6-16.3,16.2-38.8,19.7-67.5c0.4-2.6,0.8-5.1,1.2-7.5c1.6-13.4,2.4-24.2,2.4-32.3
	C993.9,193.5,982.8,157.2,960.7,127.5z"/>
</svg>
