<?xml version="1.0" encoding="utf-8"?>
<!-- Generator: Adobe Illustrator 19.2.0, SVG Export Plug-In . SVG Version: 6.00 Build 0)  -->
<svg version="1.1" id="_x31_006" image-rendering="auto"
	 xmlns="http://www.w3.org/2000/svg" xmlns:xlink="http://www.w3.org/1999/xlink" x="0px" y="0px" width="660px" height="660px"
	 viewBox="0 0 660 660" enable-background="new 0 0 660 660" xml:space="preserve">
<path opacity="0.25" fill="#332C2A" d="M623.2,458.3c-12.1-13.1-21.4-22-27.9-26.7c12.7-5.1,22.7-17,30.1-35.6
	c6.6-16.3,9.8-31.2,9.8-44.8c0-23.1-5.4-42.7-16.1-59c-7.1-9.2-14-17-20.6-23.6c12.2-11.3,22.1-31.7,29.7-61.3
	c4.1-15.2,7.2-32,9.4-50.5c1.6-12.5,2.4-21,2.4-25.6c0-25.2-6.6-47.1-19.9-65.7c-2.9-4.1-6-7.9-9.4-11.6c-4.1-4.3-8.5-8.4-13.2-12.2
	c-24.5-19.8-55.7-31.8-93.6-36.2c-35.5-4.2-66.7-0.8-93.6,10.2c-9.3,3.8-17,8.2-23.2,13.2c-7.2-3.9-21.9-6.6-44-8.1
	c-21.5-1.4-45.2,2-71.2,10.2c-0.7,0.1-1.3,0.3-2,0.6c-0.1-0.1-0.3-0.2-0.6-0.2c-19-9.8-45.2-15.9-78.4-18.1
	c-33.6-2.4-61.1-3.1-82.6-2.4c-25.7,0.8-46.2,7.2-61.5,19.3C28,44.8,18.6,66.5,18.6,95.3c0,13.8,4.7,30.5,14.2,50.1
	c5.8,12.1,12.4,21.4,19.9,28.1c-0.4,0.1-0.7,0.3-1,0.4c-27.3,11.5-40.9,33.5-40.9,65.9c0,11.4,2,22,5.9,31.8
	c3.4,8.5,7.9,15.1,13.6,19.9c-16.1,14.7-24.2,37.4-24.2,68c0,17.7,5,37.9,14.9,60.7c10.9,24.9,25.5,41.4,43.8,49.3
	c-11,10.4-20.2,22.8-27.5,37.4c-9.3,18.9-13.7,38.3-13.2,58.2c0.4,19.8,7.5,36.4,21.2,49.7c13.6,13.2,27.1,21.7,40.5,25.4
	c13.2,3.7,41.6,6.3,85.1,7.9c106.7,6.4,202.8,7.1,288.4,2.2c85.5-5.2,138.8-14,160-26.3c21.1-12.5,32.9-36.8,35.4-73.1
	C657.2,514.4,646.6,483.6,623.2,458.3z"/>
</svg>
