<?xml version="1.0" encoding="utf-8"?>
<!-- Generator: Adobe Illustrator 19.2.0, SVG Export Plug-In . SVG Version: 6.00 Build 0)  -->
<svg version="1.1" id="_x31_023" image-rendering="auto"
	 xmlns="http://www.w3.org/2000/svg" xmlns:xlink="http://www.w3.org/1999/xlink" x="0px" y="0px" width="660px" height="660px"
	 viewBox="0 0 660 660" enable-background="new 0 0 660 660" xml:space="preserve">
<path opacity="0.25" fill="#332C2A" d="M634.4,492.3c-0.3-0.5-0.5-1-0.8-1.5c-7.2-15-16.2-29-27.2-41.8c-1.5-1.8-3-3.5-4.4-5.2
	c-4-4.4-7.7-8-11.2-10.8c-1.4-1-2.7-1.9-3.9-2.7c3.9-2.6,10.2-8.2,19.1-16.8c10-9.8,17.7-22.5,23.1-38.1c5.4-15.5,8.5-35.8,9.2-60.7
	c0.6-25,0-41.4-1.9-48.9c-1.9-7.8-4.4-15.3-7.3-22.5c-3-7.2-5.7-12.9-8.1-17.1c-3.2-5.7-7.3-10.9-12.3-15.6c3.2-4.6,6.4-10,9.6-16
	c12.3-23,18.5-44.4,18.5-64.2c0-34.8-10.3-60.9-31-78.4C588.8,37.7,566,30,537.5,29c-23.5-0.9-46.3,2.4-68.4,10
	c-7.3,2.6-13.4,5.1-18.1,7.7c-5.7-6-15.7-11.4-30.1-16.2c-22.1-7.2-48.2-11-78.4-11.6c-31.5-0.6-57.6,2.8-78.4,10.2
	c-8.9,3.2-16.1,6.9-21.6,11.2c-18.9-5-42-9.8-69.4-14.4c-35.2-6-63.4-4.2-84.6,5.4C26.2,61.6,20,115.7,70.1,193.7
	c-23.2,17.2-37.9,33.5-43.9,48.7c-6,15.3-9.2,32.4-9.6,51.4c-0.4,19,0.6,33,2.9,42c2.3,8.9,7.8,22.3,16.4,40.5
	c7.2,15.2,15,28.4,23.5,39.9c3,4,5.8,7.5,8.7,10.6c-23.6,10.8-39.2,34.2-46.8,70.3c-6,28.1-1,57.1,14.9,86.9
	c2.6,4.9,5.5,9.9,8.8,14.8l6,9.1c2.4,3,5,5.7,7.8,8.1c23.8,20.9,59.3,18.8,106.4-6.2c4.6,4.9,12,9.4,22.2,13.5
	c26.5,10.8,67.9,16.2,124.5,16.2c47.4,0,89.9-5.4,127.5-16.2c9.5-2.7,17.7-5.4,24.5-8.1c0.1,0.1,0.3,0.3,0.6,0.4
	c5.5,3.1,14.8,6.3,27.7,9.6c24.7,6.4,51.4,9.6,80.1,9.6c33.5,0,55.9-14.6,67.2-43.9c5-12.7,7.5-28.9,7.5-48.5
	C646.9,527.1,642.7,510.4,634.4,492.3z"/>
</svg>
