<?xml version="1.0" encoding="utf-8"?>
<!-- Generator: Adobe Illustrator 19.2.0, SVG Export Plug-In . SVG Version: 6.00 Build 0)  -->
<svg version="1.1" id="_x31_005" image-rendering="auto"
	 xmlns="http://www.w3.org/2000/svg" xmlns:xlink="http://www.w3.org/1999/xlink" x="0px" y="0px" width="660px" height="660px"
	 viewBox="0 0 660 660" enable-background="new 0 0 660 660" xml:space="preserve">
<path opacity="0.25" fill="#332C2A" d="M635.5,355.2l0.1,0.2c-5.4-8.2-12.1-14.7-20.1-19.5l0.3,0.1c-1.7-1.1-3.1-2.4-4.1-3.9
	c2.2-3.2,5-6.3,8.2-9.2h0.1c4.5-4,8.5-8.5,12.1-13.4c0.1-0.1,0.1-0.2,0.2-0.3c14.4-19.3,21.7-41.6,21.7-67c0-11.6-1.5-23.1-4.5-34.4
	c-3.1-11.6-8-22.5-14.7-32.6l0.1,0.1c-5.4-8.4-9.8-17.2-13.1-26.4l-0.1-0.1c-1.1-3-1.4-6-1-9.1c0.1-0.9,0.2-1.8,0.2-2.7l-0.2-13.5
	c0.7-33.4-19.7-61.7-61.4-84.8C522,17.7,477,7.1,424.3,7c-18.2-1.3-42.5-0.4-72.8,2.7c-0.2,0-0.4,0.1-0.7,0.1
	c-38.4,5.4-69.1,11.8-92.2,19h0.1c-21.7,6.6-40.1,13.7-55.3,21.2c-20.8-1.1-41.7-0.2-62.6,2.7c-23.8,3.1-45.6,11-65.4,23.5l-0.2,0.1
	c-16,10.5-28.6,24-37.9,40.4l0.1-0.1c-11.2,19.9-19.5,40.8-24.9,62.9c-5.5,22.4-7.4,44.8-5.7,67.3l0.1,0.1
	c1.9,23.4,8.1,45.5,18.7,66.4v-0.1c4.2,8.4,8.2,16.5,11.8,24.5c0,0.1,0.1,0.1,0.1,0.2c1.9,4.2,3.8,8.4,5.8,12.6
	c-21,44.9-32,76.1-33.2,93.5c-1.8,19.1-0.3,37.1,4.3,54.1v0.1c4.6,16.6,12.8,33.9,24.5,51.9c12.6,19.2,30.1,33,52.6,41.4
	c22.5,8.4,41.8,10.9,57.9,7.5c3.6-0.7,6.6-1.3,9.2-1.8c5.3,8.2,12.7,15.6,22.2,22.3c30.8,22.3,74.8,32.2,132,29.8
	c58.5-2.5,92.4-8.7,101.7-18.4l0.1-0.1c10.8-9.5,18.2-19.1,22-28.8c0.2-0.6,0.5-1.1,0.7-1.6c18,5.5,36.7,6.4,56,2.6
	c0.1,0,0.2-0.1,0.3-0.1c21.2-4.7,40.8-12.6,58.8-23.8c24.9,1.6,46.4-7,64.5-25.9l0.1-0.1c8.3-8.8,14.7-18.7,19-29.6
	c8.1-20.5,13.4-41.9,16.1-64.2c2.7-22.1,2.2-44.3-1.7-66.5C648.2,379.2,643.2,366.6,635.5,355.2z"/>
</svg>
