<?xml version="1.0" encoding="utf-8"?><svg id="1019" image-rendering="auto" baseProfile="basic" version="1.1" x="0px" y="0px" width="660" height="660" xmlns="http://www.w3.org/2000/svg" xmlns:xlink="http://www.w3.org/1999/xlink"><defs><symbol id="ear" overflow="visible"><path fill="#FFCB99" d="M13.9,2.4Q12.35,1.25 10.4,0.3 5.85,-1.65 3.6,2.75 2.1,5.6 2.1,8.8 2.1,11.1 3.15,12.8 5.2,16.15 10.65,16.15 14.55,16.15 18.7,8.95 19,9.15 18.75,8.55 18.5,7.95 17.15,5.85 15.75,3.75 13.9,2.4"/><path fill="#E28C36" fill-opacity="0.8" d="M6.15,9.45Q6.75,8.25 8.8,9.45 10.75,10.6 11.75,12.2 11.95,10.8 9.5,8.4 7.7,6.65 6.5,6.65 6,6.65 5.65,6.95 4.25,7.95 4.2,8.9 4.2,9 4.2,9.1 4.2,9.85 4.75,10.15 5.5,10.55 6.15,9.45"/>
</symbol></defs><g id="Symbol_33_l1" overflow="visible" transform="matrix(1 0 0 1 7.55 23.2)"><g id="Symbol_12_l1" transform="matrix(3.939 0 0 3.939 -30.7 -37.8)"><path fill="none" stroke="#000" stroke-opacity="0.251" stroke-width="2" stroke-linecap="round" stroke-linejoin="round" d="M169.8,59.3Q168.5,58.8 165.25,58.95 161.9,59.15 160.7,58.7 158.65,58 158.65,55.3 158.95,52.25 158.85,50.6 158.65,47.6 156.65,47.6 155.65,47.6 153.25,48.9 150.8,50.2 150.05,50.2 149.4,50.2 147.8,48.15 146.25,46.15 145.75,45.85 142.8,42.1 137.4,35.9 131.95,29.65 122.9,23.3 112.75,17 99,13.45 85.25,9.85 73.55,9.65 62.85,9.4 58.65,10.1 54.4,10.75 52.7,11.1 51,11.4 50.95,12.1 50.85,12.75 52.8,14.1 46.25,12.4 42.5,12.2 38.7,11.95 37.35,12.75 35.95,13.5 36.8,14.9 37.65,16.3 40.15,20.5 42.8,24.9 43.5,26.05 42.85,26.45 42.25,26.85 25.5,32.2 14.45,44 15.45,45 18.95,46 20.4,46.4 21.45,46.75 7.8,65.65 7.8,90.35 7.8,122.1 30.1,145.2 52.35,168.25 88.85,165.55 125.35,162.8 141,146.1 156.65,129.45 157.5,122.05 159.6,121.15 162.3,119.4 169.05,115.05 169.05,110.5 169.05,100.75 167.25,92.25 165.45,83.75 165.45,76.9 165.45,72.9 168.65,68.75 171.85,64.6 171.85,63 171.85,60.15 169.8,59.3"/><path fill="#FFF" d="M169.8,59.3Q168.5,58.8 165.25,58.95 161.9,59.15 160.7,58.7 158.65,58 158.65,55.3 158.95,52.25 158.85,50.6 158.65,47.6 156.65,47.6 155.65,47.6 153.25,48.9 150.8,50.2 150.05,50.2 149.4,50.2 147.8,48.15 146.25,46.15 145.75,45.85 142.8,42.1 137.4,35.9 131.95,29.65 122.9,23.3 112.75,17 99,13.45 85.25,9.85 73.55,9.65 62.85,9.4 58.65,10.1 54.4,10.75 52.7,11.1 51,11.4 50.95,12.1 50.85,12.75 52.8,14.1 46.25,12.4 42.5,12.2 38.7,11.95 37.35,12.75 35.95,13.5 36.8,14.9 37.65,16.3 40.15,20.5 42.8,24.9 43.5,26.05 42.85,26.45 42.25,26.85 25.5,32.2 14.45,44 15.45,45 18.95,46 20.4,46.4 21.45,46.75 7.8,65.65 7.8,90.35 7.8,122.1 30.1,145.2 52.35,168.25 88.85,165.55 125.35,162.8 141,146.1 156.65,129.45 157.5,122.05 159.6,121.15 162.3,119.4 169.05,115.05 169.05,110.5 169.05,100.75 167.25,92.25 165.45,83.75 165.45,76.9 165.45,72.9 168.65,68.75 171.85,64.6 171.85,63 171.85,60.15 169.8,59.3"/><g><g id="Symbol_31" transform="matrix(1 0 0 1 13.5 25.1)"><animateTransform attributeName="transform" additive="replace" type="translate" dur="2.2s" keyTimes="0;0.055;0.2;0.255;1" values="82.2,90.049;82.2,90.049;82.2,90.043;82.2,90.05;82.2,90.05"/><animateTransform attributeName="transform" additive="sum" type="rotate" dur="2.2s" keyTimes="0;0.055;0.2;1" values="0,0,0;0,0,0;360,0,0;360,0,0"/><animateTransform attributeName="transform" additive="sum" type="scale" dur="2.2s" keyTimes="0;0.055;0.2;0.255;1" values="0.106,0.106;0.106,0.106;1.015,1.015;1,1;1,1"/><animateTransform attributeName="transform" additive="sum" type="translate" dur="2.2s" keyTimes="0;0.055;0.2;1" values="-68.7,-64.9;-68.7,-64.9;-68.7,-64.95;-68.7,-64.95"/><path fill="#65CFCA" d="M137.3,77.85Q137.85,68.6 134.5,58.35 134.25,57.55 133.95,56.75 132.5,52.8 130.6,48.75 132.3,55.65 132.4,62.3 132.55,70.05 130.55,77.5 128.3,85.8 123.4,93.65 109.75,115.45 83.2,121.25 56.75,127.15 33.05,113.45 26.9,109.9 21.9,105.65 13.6,98.55 8.35,89.4 4.45,82.6 2.2,74.65 0.55,68.85 0,63.1 0.35,71.05 2.65,79.25 7.25,95.45 18.05,107.35 24.9,114.9 34.25,120.7 59.5,134.15 87.35,128.05 116.75,121.55 131.4,96.95 136.7,88 137.3,77.85"/><path fill="#65CFCA" d="M91.4,17.6Q87,16.5 81.8,14.9 73.95,12.45 67.1,10.75 61.15,10.35 54.85,11 34.95,13.05 22.35,27.8 21.55,28.7 20.8,29.7 18.75,32.3 16.95,35.25 8,49.85 8.7,63.65 9.05,70.45 11.75,77.05 19.95,97.05 35.4,105.5 31.5,104.2 39.2,107.35 47.9,110.85 52.9,111.5 49.15,109.85 43,106.1 26.1,95.75 20.4,75.15 14.75,54.55 24.4,39.1 34.05,23.75 53.75,20.3 73.5,16.75 91.8,27.3 110.1,37.9 116.15,56.25 122.25,74.55 113.95,93.25 110.3,101.5 104.25,106.65 114.55,101.45 120.3,92.1 126.95,81.45 125.85,68.35 125.3,62.25 123.05,55.6 116.1,34.6 97.75,21.55 94.65,19.35 91.4,17.6"/><path fill="#9CE0DD" d="M94.75,8.7Q88.45,6.25 81.8,4.25 73.05,1.65 67.95,1.2 64.65,0.9 61.75,0.65 58.85,0.35 56.4,0.15 53.4,-0.15 50.25,0.15L43.55,1.15Q40.05,1.85 36.4,3.1 35.6,3.35 34.85,3.6 35,3.65 35.2,3.75 38.45,5 41.8,5.5 41.55,5.65 41.3,5.8 40.15,6.4 38.7,7.2 25.3,14.65 19.95,18.8 15.4,22.25 11.9,28.05 12.45,28 13.1,27.95 16.65,27.7 22.35,27.8 34.95,13.05 54.85,11 61.15,10.35 67.1,10.75 73.95,12.45 81.8,14.9 87,16.5 91.4,17.6 94.65,19.35 97.75,21.55 116.1,34.6 123.05,55.6 125.3,62.25 125.85,68.35 126.95,81.45 120.3,92.1 114.55,101.45 104.25,106.65 110.3,101.5 113.95,93.25 122.25,74.55 116.15,56.25 110.1,37.9 91.8,27.3 73.5,16.75 53.75,20.3 34.05,23.75 24.4,39.1 14.75,54.55 20.4,75.15 26.1,95.75 43,106.1 49.15,109.85 52.9,111.5 47.9,110.85 39.2,107.35 31.5,104.2 35.4,105.5 24.1,100.5 15.8,91.2 10.1,84.8 5.8,76.45 9.8,89 13.95,94.9 14.6,95.8 15.25,96.75 18.7,101.5 21.9,105.65 26.9,109.9 33.05,113.45 56.75,127.15 83.2,121.25 109.75,115.45 123.4,93.65 128.3,85.8 130.55,77.5 132.55,70.05 132.4,62.3 132.3,55.65 130.6,48.75 132.5,52.8 133.95,56.75 134.5,55.05 134.7,53.65 134.75,52.95 134.75,52.35 134.75,40.2 123.9,28.15 112.75,15.8 94.75,8.7"/></g><animate attributeName="display" repeatCount="1" dur="2.2s" keyTimes="0;0.055;1" values="none;inline;none"/></g><g><g id="Symbol_30" transform="matrix(1 0 0 1 27.9 20.85)"><animateTransform attributeName="transform" additive="replace" type="translate" dur="2.2s" keyTimes="0;0.255;0.327;0.4;0.455;0.582;0.636;0.673;0.709;0.745;0.782;0.818;0.855;0.891;0.927;0.982;1" values="92.7,81;92.7,81;93.59,82.13;93.608,82.168;93.6,82.15;93.6,82.15;93.569,82.191;93.6,82.15;93.569,82.168;93.6,82.15;93.585,82.159;93.6,82.15;93.627,82.189;93.6,82.15;93.627,82.189;93.6,82.15;93.6,82.15"/><animateTransform attributeName="transform" additive="sum" type="scale" dur="2.2s" keyTimes="0;0.255;0.327;0.4;0.455;0.582;0.636;0.673;0.709;0.745;0.782;0.818;0.855;0.891;0.927;0.982;1" values="0.148,0.148;0.148,0.148;1.014,1.014;0.986,0.986;1,1;1,1;1.006,1.006;1,1;1.012,1.012;1,1;1.006,1.006;1,1;1.009,1.009;1,1;1.009,1.009;1,1;1,1"/><animateTransform attributeName="transform" additive="sum" type="translate" dur="2.2s" keyTimes="0;0.255;0.327;0.4;0.455;0.582;0.636;0.673;0.709;0.745;1" values="-65.6,-61.2;-65.6,-61.2;-65.65,-61.25;-65.75,-61.35;-65.7,-61.3;-65.7,-61.3;-65.65,-61.3;-65.7,-61.3;-65.65,-61.3;-65.7,-61.3;-65.7,-61.3"/><path fill="#000" fill-opacity="0.322" d="M126.25,46.8Q123.75,47.2 121.75,47.1 121.95,46 122.15,44.8 122.5,42.75 122.4,41.15 122.25,40.5 122.2,40 120.4,40.2 118.75,41.7 117.95,42.45 116.35,44.3 114.35,41.9 112.15,38.3 111.95,37.85 111.65,37.45 109.95,34.4 103.35,28 100.6,25.3 97,21.9 86.55,12.25 68.2,5.1 65.2,3.9 61.95,2.75 44.55,-0.7 34.6,0.15 30.95,0.45 28.25,1.4 28.35,1.5 28.55,1.55 28.7,1.6 28.9,1.8 32.95,4.45 38.6,8.35 34.25,5.85 24.15,3.9 20.75,3.35 18.55,3.05 22.15,6.3 30,16.6 23.9,14 14.1,17 13.75,18.1 13.35,19.2 11.2,25.35 0,24.8 15.5,30.75 18.05,31.05 15.5,33.7 13.7,35.5 10.4,38.85 9.4,39.25 9.9,39.4 10.4,39.45 15.2,39.8 25.5,38.85 26.3,38.75 27.1,38.7 26.95,38.85 26.65,39.3 26.6,39.35 26.6,39.4 26.55,39.5 26.55,39.55 26.3,40.1 26.2,40.45 25.95,40.85 25.85,41.05L25.9,41.05 25.95,41.1Q25.9,41.2 25.8,41.4 25.55,42.15 25.25,42.95 24.55,44.65 24,46.45 23.15,45.55 22.15,44.9 20.8,43.95 19.05,43.15 14.95,41.5 12.95,45.2 11.65,47.6 11.65,50.2 11.65,52.2 12.55,53.6 14.4,56.35 19.25,56.35 19.8,56.35 20.4,56.2 19,59.95 17.65,64 15.9,67.2 15,72.05 13.75,77.4 14.45,82.5 16.55,102.65 41.45,115 42.4,115.45 43.3,115.9 48.4,118.55 53.25,120.15 68.25,125.7 79.85,118.65 87.6,113.8 90.75,111.45L92.65,109.8Q96.25,115.9 99.75,117.4 103,118.65 106.4,116.85 109.8,114.95 111.6,113.1 112.7,111.05 112.7,108.35 112.7,105.5 111.85,102.9 112.75,102.45 112.8,102.35 118.65,99.85 123.35,93.7 125.55,89.35 127.95,82.25 128.3,81 128.75,79.85L124,55Q124.6,53.7 127.9,50.9 131.2,48.1 131.25,48L131.4,47.45Q129.8,46.2 126.25,46.8 M104.85,70.75L104.85,70.7 104.9,70.65 104.85,70.75 M93.55,61.4Q93.55,61.497 93.65,61.55 93.548,61.5 93.5,61.5L93.55,61.4 M25.95,41Q26.138,40.813 26.2,40.75 26.141,40.813 26,41L25.95,41"/><path fill="#000" fill-opacity="0.2" d="M108.85,23.6L108.85,23.85Q108.7,23.7 108.55,23.6L108.85,23.6"/></g><animate attributeName="display" repeatCount="1" dur="2.2s" keyTimes="0;0.255;1" values="none;inline;none"/></g><g><g id="Symbol_29" transform="matrix(1 0 0 1 43.7 55.1)"><animateTransform attributeName="transform" additive="replace" type="translate" dur="2.2s" keyTimes="0;0.255;0.327;0.4;0.455;0.582;0.636;0.673;0.709;0.745;0.782;0.818;0.855;0.891;0.927;0.982;1" values="92.849,83.351;92.849,83.351;94.64,98.181;94.51,97.669;94.55,97.9;94.55,97.9;94.524,98.023;94.55,97.9;94.546,98.102;94.55,97.9;94.548,98.001;94.55,97.9;94.647,98.076;94.55,97.9;94.647,98.076;94.55,97.9;94.55,97.9"/><animateTransform attributeName="transform" additive="sum" type="scale" dur="2.2s" keyTimes="0;0.255;0.327;0.4;0.455;0.582;0.636;0.673;0.709;0.745;0.782;0.818;0.855;0.891;0.927;0.982;1" values="0.148,0.148;0.148,0.148;1.014,1.014;0.986,0.986;1,1;1,1;1.006,1.006;1,1;1.012,1.012;1,1;1.006,1.006;1,1;1.009,1.009;1,1;1.009,1.009;1,1;1,1"/><animateTransform attributeName="transform" additive="sum" type="translate" dur="2.2s" keyTimes="0;0.255;0.327;0.4;0.582;0.636;0.673;0.818;0.855;0.891;0.927;0.982;1" values="-51.05,-42.95;-51.05,-42.95;-50.9,-42.85;-50.85,-42.8;-50.85,-42.8;-50.8,-42.8;-50.85,-42.8;-50.85,-42.8;-50.9,-42.8;-50.85,-42.8;-50.9,-42.8;-50.85,-42.8;-50.85,-42.8"/><path fill="#3C3A3D" d="M101.7,9.35Q101.55,9.2 101.3,9L101.5,9.25Q101.6,9.3 101.7,9.35"/><path fill="#FFB366" d="M92.35,35.45L92.2,35.5 92.25,35.55 92.35,35.45"/><path fill="#FFCB99" d="M94.1,59.95Q94.1,59.9 94.05,59.9L94,59.9Q94.052,59.902 94.1,59.95"/><path fill="#3C3A3D" d="M97.15,66.2L97.05,66.25Q97.1,66.25 97.15,66.3L97.3,66.2 97.15,66.2"/><path fill="#FFBC79" d="M78.45,72.7Q78.4,72.75 78.4,72.8 78.5,72.7 78.65,72.5L78.45,72.7"/><path fill="#FFB366" d="M11.5,4.45L11.6,4.45Q11.7,4.3 11.75,4.1L11.7,4.05Q11.6,4.25 11.5,4.45"/><path fill="#FFCB99" d="M11.6,4.45L11.5,4.45Q11.05,5.8 11.6,4.45"/><path fill="#604339" d="M84.45,67.95L84.5,67.95Q84.5,67.9 84.55,67.85L84.25,67.925Q83.987,67.959 83.7,68L84.45,67.95"/><path fill="#FFBC79" d="M84.5,67.95L84.55,67.9 84.55,67.85Q84.5,67.9 84.5,67.95"/><path fill="#FFCB99" d="M86.25,29.1Q86.25,29.05 86.15,29L82.5,26.95Q71.35,21.65 64.35,18.6 61.85,17.55 59.85,16.8 59.75,16.75 59.65,16.7L60.5,16.45Q61.15,16.3 61.9,16.1 65.9,15 70.3,15.1 71.9,15.15 73.6,15.35 74.5,15.4 75.35,15.55 78.45,16 81.8,17.05 52.9,4.75 45.1,2.5 35.9,-0.15 30.45,0 25,0.15 19.65,1L19.3,1Q17.9,1.15 16.05,1.4 14.8,1.5 13.6,1.65 13.45,1.65 13.25,1.7L13.2,1.7Q13.05,1.7 12.95,1.7 12.75,1.9 12.45,2.45L12.4,2.55Q12.4,2.6 12.35,2.65 11.8,3.8 11.7,4.05L11.75,4.1 11.8,4.1Q11.75,4.25 11.65,4.45 11.35,5.2 11.05,6.05 10.3,7.95 9.5,10.05 9.45,10.3 9.3,10.6 6.7,17.6 1.55,33.05 4.35,25.4 0.75,35.35 -0.45,40.6 0.25,45.55 2.3,65.65 27.25,78.05 28.2,78.5 29.1,78.95 34.2,81.6 39.05,83.2 54.05,88.8 65.65,81.7 73.45,76.9 76.55,74.5L78.4,72.8Q78.4,72.75 78.45,72.7L78.65,72.5Q78.5,72.7 78.4,72.8L78.95,72.3Q79.3,71.9 80.35,70.85 82.05,69.25 83.65,68.05L83.65,68 83.7,68Q83.987,67.959 84.25,67.925 84.003,67.95 83.8,67.95 83.55,68 83.3,68.05 83.4,67.9 83.5,67.8 83.2,68 84.25,65.8 85.45,63 85.3,62.75 85.5,62.55 85.7,62.3 86.5,61.2 88.1,59.5 88.9,58.6 89.8,57.5 92.8,54.25 94.45,52.65 93.1,53.1 91,53.85 90.75,53.95 88.95,54.7 87.45,55.2 82.75,57.45 82.8,57.3 82.8,57.2 83.4,56.45 83.95,55.75L84.1,55.45Q84.2,55.35 84.3,55.35 95.95,46.15 94.2,47.35 93.45,45.15 93.05,44.3 93.05,44.25 93.15,44.3 93.1,44.25 90.55,37.2 88.05,30.3 86.25,29.1 M11.75,4.05Q11.891,3.815 11.95,3.625 11.897,3.813 11.85,4L11.75,4.05"/><path fill="#FFB366" d="M51.85,25.25Q51.85,25.3 51.75,25.35 51.65,25.7 51.7,25.85 51.8,26.1 52.25,26.2 52.4,26.2 51.85,25.25"/></g><animate attributeName="display" repeatCount="1" dur="2.2s" keyTimes="0;0.255;1" values="none;inline;none"/></g><g><g id="Symbol_28" transform="matrix(1 0 0 1 55.35 55.1)"><animateTransform attributeName="transform" additive="replace" type="translate" dur="2.2s" keyTimes="0;0.255;0.327;0.4;0.455;0.582;0.636;0.673;0.709;0.745;0.782;0.818;0.855;0.891;0.927;0.982;1" values="93.15,81.599;93.15,81.599;96.811,86.423;96.738,86.325;96.75,86.35;96.75,86.35;96.764,86.399;96.75,86.35;96.836,86.416;96.75,86.35;96.743,86.383;96.75,86.35;96.814,86.425;96.75,86.35;96.814,86.425;96.75,86.35;96.75,86.35"/><animateTransform attributeName="transform" additive="sum" type="scale" dur="2.2s" keyTimes="0;0.255;0.327;0.4;0.455;0.582;0.636;0.673;0.709;0.745;0.782;0.818;0.855;0.891;0.927;0.982;1" values="0.148,0.148;0.148,0.148;1.014,1.014;0.986,0.986;1,1;1,1;1.006,1.006;1,1;1.012,1.012;1,1;1.006,1.006;1,1;1.009,1.009;1,1;1.009,1.009;1,1;1,1"/><animateTransform attributeName="transform" additive="sum" type="translate" dur="2.2s" keyTimes="0;0.255;0.327;0.4;0.455;0.673;0.709;0.745;1" values="-41.25,-31.1;-41.25,-31.1;-41.4,-31.25;-41.45,-31.3;-41.4,-31.25;-41.4,-31.25;-41.45,-31.25;-41.4,-31.25;-41.4,-31.25"/><path fill="#FFB366" d="M52.7,18.6Q50.2,17.55 48.2,16.8L46.75,17.05Q47.95,17.55 49.2,18.2 69.6,27.8 71.1,28L71.2,27.75Q73.5,28.55 74.95,29.95 75.15,30.15 75.3,30.3 75.35,30.35 75.4,30.4 75.25,30 75.1,29.6 74.85,29.35 74.6,29.1 74.6,29.05 74.5,29L70.85,26.95Q59.7,21.65 52.7,18.6"/><path fill="#FFB366" d="M79.35,53.85Q78.45,54.95 77.35,56.25 76.45,57.4 75.7,58.35 73.75,60.65 73,61.75 73.15,62.05 73.3,62.5 73.55,62.5 73.8,62.45 73.95,62.4 73.95,62.35 74,62.25 74.05,62.3 74.85,61.2 76.45,59.5 77.25,58.6 78.15,57.5 81.15,54.25 82.8,52.65 81.45,53.1 79.35,53.85"/><path fill="#FFB366" d="M61.95,15.35Q62.85,15.4 63.7,15.55 66.8,16 70.15,17.05 41.25,4.75 33.45,2.5 24.25,-0.15 18.8,0 13.35,0.15 8,1L7.65,1Q6.25,1.15 4.4,1.4 3.15,1.5 1.95,1.65 1.8,1.65 1.6,1.7L1.55,1.7Q1.4,1.7 1.3,1.7 1.1,1.9 0.8,2.45L0.75,2.55Q0.75,2.6 0.7,2.65 0.15,3.8 0.05,4.05L0.1,4.05Q0.241,3.815 0.3,3.625 0.247,3.813 0.2,4L0.1,4.05 0.15,4.05 0.15,4.1Q0.1,4.25 0,4.45 0.3,4.35 0.6,4.3 0.8,4.25 0.55,4.05 0.25,3.85 16.5,3.65 32.75,3.5 59.75,14.9L58.65,15.1Q60.25,15.15 61.95,15.35"/></g><animate attributeName="display" repeatCount="1" dur="2.2s" keyTimes="0;0.255;1" values="none;inline;none"/></g><g><g id="Symbol_27" transform="matrix(-0.689 -0.297 -0.296 0.691 124.4 111.65)"><animateTransform attributeName="transform" additive="replace" type="translate" dur="2.2s" keyTimes="0;0.255;0.327;0.4;0.455;0.582;0.636;0.673;0.709;0.745;0.782;0.818;0.855;0.891;0.927;0.982;1" values="91.094,84.102;91.094,84.102;82.906,103.397;83.094,102.813;82.982,103.098;82.982,103.098;82.918,103.243;82.982,103.098;82.862,103.313;82.982,103.098;82.99,103.228;82.982,103.098;82.933,103.288;82.982,103.098;82.933,103.288;82.982,103.098;82.982,103.098"/><animateTransform attributeName="transform" additive="sum" type="rotate" dur="2.2s" keyTimes="0;1" values="23.205,0,0;23.205,0,0"/><animateTransform attributeName="transform" additive="sum" type="skewY" dur="2.2s" keyTimes="0;0.255;0.327;1" values="-179.842;-179.842;-179.844;-179.844"/><animateTransform attributeName="transform" additive="sum" type="scale" dur="2.2s" keyTimes="0;0.255;0.327;0.4;0.455;0.582;0.636;0.673;0.709;0.745;0.782;0.818;0.855;0.891;0.927;0.982;1" values="0.111,0.111;0.111,0.111;0.76,0.762;0.74,0.742;0.75,0.752;0.75,0.752;0.755,0.757;0.75,0.752;0.759,0.761;0.75,0.752;0.754,0.756;0.75,0.752;0.757,0.759;0.75,0.752;0.757,0.759;0.75,0.752;0.75,0.752"/><animateTransform attributeName="transform" additive="sum" type="scale" dur="2.2s" keyTimes="0;1" values="-1,1;-1,1"/><animateTransform attributeName="transform" additive="sum" type="translate" dur="2.2s" keyTimes="0;0.255;0.327;0.4;0.673;0.709;0.745;0.782;0.818;0.855;0.891;0.927;0.982;1" values="-55.45,-11.65;-55.45,-11.65;-55.2,-11.4;-55.25,-11.4;-55.25,-11.4;-55.25,-11.35;-55.25,-11.4;-55.2,-11.35;-55.25,-11.4;-55.25,-11.35;-55.25,-11.4;-55.25,-11.35;-55.25,-11.4;-55.25,-11.4"/><path fill="#EB857A" fill-opacity="0.753" d="M109.1,16.3Q110.6,9.7 110.2,4.7 110,2.45 109.4,0.5 100.8,-0.45 94.25,0.4 87.65,1.2 86.45,6.05 85.25,10.85 88.4,16.5 91.55,22.15 107.45,21.95 108.45,18.95 109.1,16.3"/><path fill="#E1948B" fill-opacity="0.753" d="M24.8,16.7Q21.75,20.75 16.25,22.15 10.75,23.65 6.1,21.7 1.45,19.8 0.3,15.65 -0.85,11.45 2.25,7.5 5.35,3.45 10.85,1.95 12.1,1.6 13.3,1.5 13.35,1.45 13.4,1.5 17.4,0.95 20.95,2.45 25.65,4.35 26.75,8.55 27.9,12.7 24.8,16.7"/></g><animate attributeName="display" repeatCount="1" dur="2.2s" keyTimes="0;0.255;1" values="none;inline;none"/></g><g><g id="Symbol_26" transform="matrix(1 0 0 1 71.5 84.85)"><animateTransform attributeName="transform" additive="replace" type="translate" dur="2.2s" keyTimes="0;0.255;0.327;0.4;0.455;0.582;0.636;0.673;0.709;0.745;0.782;0.818;0.855;0.891;0.927;0.982;1" values="90.502,82.45;90.502,82.45;78.751,92.096;79.149,91.804;78.95,91.95;78.95,91.95;78.848,92.045;78.95,91.95;78.838,92.134;78.95,91.95;78.844,92.042;78.95,91.95;78.815,92.062;78.95,91.95;78.815,92.062;78.95,91.95;78.95,91.95"/><animateTransform attributeName="transform" additive="sum" type="scale" dur="2.2s" keyTimes="0;0.255;0.327;0.4;0.455;0.582;0.636;0.673;0.709;0.745;0.782;0.818;0.855;0.891;0.927;0.982;1" values="0.148,0.148;0.148,0.148;1.014,1.014;0.986,0.986;1,1;1,1;1.006,1.006;1,1;1.012,1.012;1,1;1.006,1.006;1,1;1.009,1.009;1,1;1.009,1.009;1,1;1,1"/><animateTransform attributeName="transform" additive="sum" type="translate" dur="2.2s" keyTimes="0;0.673;0.709;0.745;0.818;0.855;0.891;0.927;0.982;1" values="-7.45,-7.1;-7.45,-7.1;-7.5,-7.15;-7.45,-7.1;-7.45,-7.1;-7.4,-7.1;-7.45,-7.1;-7.4,-7.1;-7.45,-7.1;-7.45,-7.1"/><path fill="#D96635" d="M12.4,3.9Q12.284,4.037 12.1,4.1 11.355,4.082 10,3.45 9.55,3.25 9.1,3.05 6.95,2.15 5.8,2.4 5.597,2.416 5.4,2.45 3.085,2.635 1.7,5.9 1.65,6.05 1.6,6.15 1,7.8 2.2,9.5 3.15,10.9 4.95,11.85 5.35,12.05 5.85,12.3 7.95,13.2 10.65,12.95 10.694,12.939 10.725,12.925 10.891,12.915 11.05,12.9 11.25,12.85 11.35,12.75 11.45,12.65 11.45,12.5 11.45,12.35 11.35,12.25 11.2,12.1 11.05,12.1 8.5,12.35 6.55,11.55 6.1,11.35 5.7,11.1 4.1,10.2 3.2,9 2.3,7.7 2.7,6.4 2.75,6.3 2.8,6.15 3.935,3.502 5.75,3.175 6.682,3.122 8.4,3.8 8.8,3.95 9.3,4.2 11.28,5.106 12.3,4.875 13.089,4.841 13.45,4.3 13.55,4.2 13.5,4 13.45,3.85 13.35,3.8 13.3,3.65 13.1,3.7 12.985,3.729 12.9,3.775 12.836,3.716 12.7,3.75 12.5,3.8 12.4,3.9"/></g><animate attributeName="display" repeatCount="1" dur="2.2s" keyTimes="0;0.255;1" values="none;inline;none"/></g><g><g id="Symbol_25" transform="matrix(-0.689 -0.297 -0.296 0.691 121.4 94.8)"><animateTransform attributeName="transform" additive="replace" type="translate" dur="2.2s" keyTimes="0;0.255;0.327;0.4;0.455;0.582;0.636;0.673;0.709;0.745;0.782;0.818;0.855;0.891;0.927;0.982;1" values="91.953,81.998;91.953,81.998;88.555,89.108;88.664,88.914;88.634,89.002;88.634,89.002;88.575,89.065;88.634,89.002;88.55,89.084;88.634,89.002;88.543,89.088;88.634,89.002;88.581,89.136;88.634,89.002;88.581,89.136;88.634,89.002;88.634,89.002"/><animateTransform attributeName="transform" additive="sum" type="rotate" dur="2.2s" keyTimes="0;1" values="23.205,0,0;23.205,0,0"/><animateTransform attributeName="transform" additive="sum" type="skewY" dur="2.2s" keyTimes="0;0.255;0.327;1" values="-179.842;-179.842;-179.844;-179.844"/><animateTransform attributeName="transform" additive="sum" type="scale" dur="2.2s" keyTimes="0;0.255;0.327;0.4;0.455;0.582;0.636;0.673;0.709;0.745;0.782;0.818;0.855;0.891;0.927;0.982;1" values="0.111,0.111;0.111,0.111;0.76,0.762;0.74,0.742;0.75,0.752;0.75,0.752;0.755,0.757;0.75,0.752;0.759,0.761;0.75,0.752;0.754,0.756;0.75,0.752;0.757,0.759;0.75,0.752;0.757,0.759;0.75,0.752;0.75,0.752"/><animateTransform attributeName="transform" additive="sum" type="scale" dur="2.2s" keyTimes="0;1" values="-1,1;-1,1"/><animateTransform attributeName="transform" additive="sum" type="translate" dur="2.2s" keyTimes="0;0.255;0.327;0.4;0.455;0.745;0.782;0.818;0.855;0.891;0.927;0.982;1" values="-43.2,-10.25;-43.2,-10.25;-43.25,-10.2;-43.2,-10.25;-43.2,-10.2;-43.2,-10.2;-43.25,-10.25;-43.2,-10.2;-43.2,-10.25;-43.2,-10.2;-43.2,-10.25;-43.2,-10.2;-43.2,-10.2"/><path fill="#604339" d="M86.55,6.9Q85.85,4.55 84,2.75 81.15,0 77.1,0 73.1,0 70.25,2.75 67.4,5.45 67.4,9.3 67.4,10.65 67.8,11.95 67.8,12 67.8,12.05L67.85,12.15Q67.9,12.4 67.95,12.65 68,13.05 68.1,13.4 68.5,13.2 68.9,13.05 68.85,12.95 68.85,12.85 68.9,12.7 68.85,12.65 68.75,12.3 68.7,12 68.6,11.35 68.6,10.75 68.6,7.2 71.2,4.7 73.75,2.2 77.45,2.2 81.1,2.2 83.65,4.7 85.15,6.15 85.8,7.85 86.2,7.65 86.65,7.45 86.55,7.2 86.55,7.05 86.55,6.95 86.55,6.9"/><path fill="#604339" d="M21.5,13.45Q21.5,13.4 21.5,13.3 20.75,10.75 18.65,8.75 15.4,5.7 10.9,5.7 6.4,5.7 3.2,8.75 0,11.75 0,15.95 0,17.45 0.45,18.85 0.45,18.9 0.45,19L0.5,19.1Q0.55,19.4 0.6,19.7 0.7,20.1 0.8,20.5 1.25,20.3 1.65,20.1 1.65,20 1.65,19.9 1.65,19.7 1.65,19.65 1.55,19.3 1.45,18.9 1.35,18.25 1.35,17.6 1.35,13.7 4.25,10.9 7.15,8.1 11.25,8.1 15.35,8.1 18.25,10.9 19.9,12.45 20.65,14.35 21.15,14.1 21.65,13.9 21.55,13.7 21.5,13.45"/></g><animate attributeName="display" repeatCount="1" dur="2.2s" keyTimes="0;0.255;1" values="none;inline;none"/></g><g><g id="Symbol_24" transform="matrix(-0.689 -0.297 -0.296 0.691 126.25 84.5)"><animateTransform attributeName="transform" additive="replace" type="translate" dur="2.2s" keyTimes="0;0.255;0.327;0.4;0.455;0.582;0.636;0.673;0.709;0.745;0.782;0.818;0.855;0.891;0.927;0.982;1" values="93.196,80.048;93.196,80.048;96.986,75.534;96.881,75.675;96.534,76.005;96.534,76.005;96.912,75.583;96.534,76.005;97.04,75.531;96.534,76.005;96.962,75.603;96.534,76.005;96.991,75.542;96.534,76.005;96.991,75.542;96.934,75.605;96.934,75.605"/><animateTransform attributeName="transform" additive="sum" type="rotate" dur="2.2s" keyTimes="0;1" values="23.205,0,0;23.205,0,0"/><animateTransform attributeName="transform" additive="sum" type="skewY" dur="2.2s" keyTimes="0;0.255;0.327;1" values="-179.842;-179.842;-179.844;-179.844"/><animateTransform attributeName="transform" additive="sum" type="scale" dur="2.2s" keyTimes="0;0.255;0.327;0.4;0.455;0.582;0.636;0.673;0.709;0.745;0.782;0.818;0.855;0.891;0.927;0.982;1" values="0.111,0.111;0.111,0.111;0.76,0.762;0.74,0.742;0.75,0.752;0.75,0.752;0.755,0.757;0.75,0.752;0.759,0.761;0.75,0.752;0.754,0.756;0.75,0.752;0.757,0.759;0.75,0.752;0.757,0.759;0.75,0.752;0.75,0.752"/><animateTransform attributeName="transform" additive="sum" type="scale" dur="2.2s" keyTimes="0;1" values="-1,1;-1,1"/><animateTransform attributeName="transform" additive="sum" type="translate" dur="2.2s" keyTimes="0;0.255;0.327;0.582;0.636;0.673;0.709;0.745;0.818;0.855;0.891;0.927;0.982;1" values="-40.3,-4.6;-40.3,-4.6;-40.6,-4.6;-40.6,-4.6;-40.65,-4.6;-40.6,-4.6;-40.55,-4.55;-40.6,-4.6;-40.6,-4.6;-40.6,-4.55;-40.6,-4.6;-40.6,-4.55;-40.6,-4.6;-40.6,-4.6"/><path fill="#3C3A3D" d="M72.5,0.05Q68.05,0.45 68.65,3.5 76.2,3.4 80.55,4.7 81,2.55 81.1,1.8 76.2,-0.35 72.5,0.05"/><path fill="#3C3A3D" d="M12.1,7.3Q12.05,5.05 11.95,4.35 6.7,3.45 3.25,4.85 -1.05,6.4 0.35,9.15 7.6,7.1 12.1,7.3"/></g><animate attributeName="display" repeatCount="1" dur="2.2s" keyTimes="0;0.255;1" values="none;inline;none"/></g><g><g id="Symbol_23" transform="matrix(1 0 0 1 24.25 18.15)"><animateTransform attributeName="transform" additive="replace" type="translate" dur="2.2s" keyTimes="0;0.255;0.327;0.4;0.455;0.582;0.636;0.673;0.709;0.745;0.782;0.818;0.855;0.891;0.927;0.982;1" values="92.55,79.299;92.55,79.299;92.474,70.511;92.524,70.788;92.55,70.65;92.55,70.65;92.536,70.585;92.55,70.65;92.55,70.566;92.55,70.65;92.55,70.608;92.55,70.65;92.55,70.561;92.55,70.65;92.55,70.561;92.55,70.65;92.55,70.65"/><animateTransform attributeName="transform" additive="sum" type="scale" dur="2.2s" keyTimes="0;0.255;0.327;0.4;0.455;0.582;0.636;0.673;0.709;0.745;0.782;0.818;0.855;0.891;0.927;0.982;1" values="0.148,0.148;0.148,0.148;1.014,1.014;0.986,0.986;1,1;1,1;1.006,1.006;1,1;1.012,1.012;1,1;1.006,1.006;1,1;1.009,1.009;1,1;1.009,1.009;1,1;1,1"/><animateTransform attributeName="transform" additive="sum" type="translate" dur="2.2s" keyTimes="0;0.255;0.327;0.4;0.673;0.709;0.745;1" values="-68.3,-52.4;-68.3,-52.4;-68.2,-52.5;-68.3,-52.5;-68.3,-52.5;-68.3,-52.55;-68.3,-52.5;-68.3,-52.5"/><path fill="#3C3A3D" d="M104.4,54.75Q104.229,54.193 103.2,53.325 100.644,51.129 92.75,46.95 81.75,41.1 67.55,37.95 53.4,34.7 39.9,36.45 26.35,38.25 21.55,38.7 19.1,38.95 17.55,39.1 16.85,39.25 15.65,39.45 20.4,39.75 30.8,38.8 31.6,38.7 32.4,38.65 32.5,38.65 32.65,38.65L32.7,38.65Q32.9,38.6 33.05,38.6 34.25,38.45 35.5,38.35 37.35,38.1 38.75,37.95L39.1,37.95Q44.45,37.1 49.9,36.95 55.35,36.8 64.55,39.45 72.303,41.687 100.9,53.85 101.076,53.926 101.25,54 101.043,53.935 100.825,53.875 97.708,52.922 94.8,52.5 93.95,52.35 93.05,52.3 91.35,52.1 89.75,52.05 85.35,51.95 81.35,53.05 80.6,53.25 79.95,53.4L79.1,53.65Q79.2,53.7 79.3,53.75 81.3,54.5 83.8,55.55 90.8,58.6 101.95,63.9L105.6,65.95Q105.7,66 105.7,66.05 107.5,67.25 110,74.15 112.55,81.2 112.6,81.25 112.5,81.2 112.5,81.25 112.9,82.1 113.65,84.3 115.4,83.1 103.75,92.3 108.55,90.2 111.3,87.55 114.75,84.3 114.85,84.35 116.8,84.75 114.85,82.5 114.6,82.15 114.3,81.85 113.95,80.7 113.3,79.1 108.35,66.75 106.55,65.1 103.7,62.7 83,53.85 86.15,53.65 87.65,53.25 89.5,52.75 93.05,53.05 95.61,53.263 99.95,54.15 101.699,54.523 103.75,55 104,54.9 104.4,54.75 M98.75,61.4Q98.8,61.5 98.9,61.55 98.85,61.55 98.7,61.55L98.75,61.4"/><path fill="#3C3A3D" d="M98.2,61.4Q98.45,61.45 98.7,61.55 98.85,61.55 98.9,61.55 98.8,61.5 98.75,61.4 98.5,61.4 98.2,61.4"/><path fill="#604339" d="M80.9,54.1L80.8,54.1Q80.75,54.15 80.55,54.2 80.85,54.15 81.2,54.1L80.3,53.65Q81.05,54.05 80.9,54.1"/><path fill="#604339" d="M98.75,61.4Q98.5,61.4 98.2,61.4 98.45,61.45 98.7,61.55L98.75,61.4"/><path fill="#604339" d="M124.35,49.4L124.3,49.4Q124.45,49.15 124.55,48.9 124.6,48.7 124.7,48.5 124.75,48.4 124.75,48.3L124.8,48.3Q125.1,47 125.15,46.9 125.25,46.7 125.35,46.45 125.65,44.9 125.8,42.9 125.05,44.05 123.9,45.15 122.2,46.6 121.15,46.3L116.95,40.35Q116.4,39.55 115.8,38.75 112.2,33.9 108,29.35 107.9,29.1 107.65,28.95 102.6,23.45 95.65,18.3 94.9,16.85 77,7.7 75.2,6.75 73.1,6 61.4,1.5 42.1,1.35 39.6,1.4 36.85,1.45 40.4,4.3 44.25,7.55 49.8,12.2 49.7,12.55 49.35,13.35 49.25,12.9 36.85,7.25 30.9,5.8 27.55,5 23.7,4.7 32.85,12.85 38.45,17.95 35.95,18 33.3,18.3 23.1,17.8 14.1,21.1 13.8,21.15 13.65,21.25 9.2,22.85 4.95,25.4 3.75,26.15 2.5,27.05 7.5,27.35 10.9,27.65 11.1,27.6 11.25,27.7 12.05,27.75 12.8,27.75 21.3,28.45 24.8,30.2 26.5,29.25 27.85,28.55 35.65,24.8 42.95,27.45 34.45,27.55 27.5,30.85 26.3,31.45 24.8,32.3 25.65,32.1 26.5,32.15 23.8,33.9 20.6,36.4 20.4,36.65 20.1,36.8 19.25,37.5 18.3,38.25 17.95,38.45 17.6,38.85L17.55,38.85Q17.35,38.9 17.1,38.95 14.05,39.25 15.4,39.25 15.9,39.2 16.8,39.15 16.3,39.3 15.65,39.45 16.85,39.25 17.55,39.1 19.1,38.95 21.55,38.7 26.35,38.25 39.9,36.45 53.4,34.7 67.55,37.95 81.75,41.1 92.75,46.95 100.644,51.129 103.2,53.325 104.229,54.193 104.4,54.75 104,54.9 103.75,55 101.699,54.523 99.95,54.15 95.61,53.263 93.05,53.05 89.5,52.75 87.65,53.25 86.15,53.65 83,53.85 103.7,62.7 106.55,65.1 108.35,66.75 113.3,79.1 113.95,80.7 114.3,81.85 114.6,82.15 114.85,82.5 116.8,84.75 114.85,84.35 114.75,84.3 111.3,87.55 108.55,90.2 103.75,92.3 103.65,92.3 103.55,92.4L103.4,92.7 103.2,93.35 103.2,93.4Q106,91.9 111.4,89.8 111.6,89.7 111.75,89.65 112.95,89.2 114.05,88.85 114.65,89.7 115.25,90.5 111.75,94 109.9,96.2 109.9,96.25 109.8,96.2 109.7,96.35 109.65,96.45 109.4,96.75 109.15,97.05 108.7,97.6 107.9,98.45 107.75,98.55 107.6,98.75 107.6,98.8 107.5,98.85 107,99.35 106.45,99.9 106.3,100 106.1,100.2 106.05,100.25 104.9,101.9 104.55,102.35 104.1,103.05 103.6,103.75 102.95,104.75 102.85,104.85 102.75,105 103,104.95 103.25,104.9 103.6,104.9 104,104.8L104,104.85 109.65,104.1Q109.8,104 109.8,103.95 113.35,103.15 115.9,102.35 119.65,101.15 121.7,99.85 121.45,99.7 121.05,99.65 115.1,101.9 126.4,95.85L134.45,90.55 134.5,90.5Q134.85,88.3 133.45,81.6 131.4,71.35 129.75,63.05 128.15,54.7 127.3,54.75 126.85,54.8 126.95,54.55 127.35,53.65 130.25,51.15 132.95,48.9 133.75,48.55 133.25,48.45 133,48.35 131.45,48.55 126.35,48.95 125.55,49.15 124.45,49.35L124.35,49.4 M110.1,70.75L110.1,70.65Q110.15,70.65 110.15,70.75L110.1,70.75 M111.8,72.4L111.7,72.5 111.65,72.45 111.8,72.4 M113.55,96.9Q113.502,96.852 113.45,96.85L113.5,96.85Q113.55,96.85 113.55,96.9"/><path fill="#3C3A3D" d="M127.6,41.2Q127.55,40.5 127.45,40 125.65,40.2 124,41.75 123.15,42.4 121.55,44.25 119.6,41.9 117.4,38.35 117.15,37.85 116.9,37.45 115.2,34.4 108.6,27.95 105.85,25.3 102.25,21.9 91.85,12.25 73.5,5.15 70.45,3.95 67.2,2.8 49.8,-0.7 39.9,0.15 36.2,0.45 33.55,1.4 33.7,1.45 33.8,1.55 33.95,1.7 34.1,1.75 38.2,4.45 43.85,8.35 39.5,5.8 29.35,3.9 24.4,3 21.9,2.9 21.65,2.85 21.55,2.85 19.65,2.75 19.5,3.15 19.35,3.45 20.7,4.85 20.75,5 20.95,5.1 22.45,6.5 25.65,9.05 32.1,14.05 35.25,16.6 27.85,13.45 15.2,18.5 15,18.55 14.75,18.65 13.2,19.25 11.55,20.05 6.55,22.2 0,28.05 1.8,28.45 4.65,28.85 7.7,29.25 10.1,29.55 10.25,29.55 10.45,29.6 10.9,29.65 11.35,29.7 20.25,30.65 23.3,31.1 20.75,33.75 18.95,35.5 15.6,38.8 14.65,39.3 15.15,39.45 15.55,39.5 15.6,39.5 15.65,39.45 16.3,39.3 16.8,39.15 15.9,39.2 15.4,39.25 14.05,39.25 17.1,38.95 17.35,38.9 17.55,38.85L17.6,38.85Q17.95,38.45 18.3,38.25 19.25,37.5 20.1,36.8 20.4,36.65 20.6,36.4 23.8,33.9 26.5,32.15 25.65,32.1 24.8,32.3 26.3,31.45 27.5,30.85 34.45,27.55 42.95,27.45 35.65,24.8 27.85,28.55 26.5,29.25 24.8,30.2 21.3,28.45 12.8,27.75 12.05,27.75 11.25,27.7 11.1,27.6 10.9,27.65 7.5,27.35 2.5,27.05 3.75,26.15 4.95,25.4 9.2,22.85 13.65,21.25 13.8,21.15 14.1,21.1 23.1,17.8 33.3,18.3 35.95,18 38.45,17.95 32.85,12.85 23.7,4.7 27.55,5 30.9,5.8 36.85,7.25 49.25,12.9 49.35,13.35 49.7,12.55 49.8,12.2 44.25,7.55 40.4,4.3 36.85,1.45 39.6,1.4 42.1,1.35 61.4,1.5 73.1,6 75.2,6.75 77,7.7 94.9,16.85 95.65,18.3 102.6,23.45 107.65,28.95 107.9,29.1 108,29.35 112.2,33.9 115.8,38.75 116.4,39.55 116.95,40.35L121.15,46.3Q122.2,46.6 123.9,45.15 125.05,44.05 125.8,42.9 125.65,44.9 125.35,46.45 125.25,46.7 125.15,46.9 125.1,47 124.8,48.3L124.75,48.3Q124.75,48.4 124.7,48.5 124.6,48.7 124.55,48.9 124.45,49.15 124.3,49.4L124.35,49.4 124.45,49.35Q125.55,49.15 126.35,48.95 131.45,48.55 133,48.35 133.25,48.45 133.75,48.55 132.95,48.9 130.25,51.15 127.35,53.65 126.95,54.55 126.85,54.8 127.3,54.75 128.15,54.7 129.75,63.05 131.4,71.35 133.45,81.6 134.85,88.3 134.5,90.5L134.45,90.55 126.4,95.85Q115.1,101.9 121.05,99.65 121.15,99.6 121.3,99.55L121.45,99.45Q121.95,99.25 122.4,99.1 122.7,99 135.2,92 135.7,91.75 136.15,91.45 136.2,83.05 129.25,55 129.85,53.7 133.1,50.85 136.5,48.1 136.5,48L136.6,47.4Q135.05,46.25 131.5,46.8 128.95,47.2 126.9,47.05 127.2,46 127.35,44.75 127.7,42.75 127.6,41.2"/><path fill="#3C3A3D" d="M108.4,91.65Q110.2,90.9 110.45,90.8 112.55,90.05 113.9,89.6 112.25,91.2 109.25,94.45 108.35,95.55 107.55,96.45 105.95,98.15 105.15,99.25 104.95,99.5 104.75,99.7 104.9,99.95 103.7,102.75 102.65,104.95 102.95,104.75 103.6,103.75 104.1,103.05 104.55,102.35 104.9,101.9 106.05,100.25 106.1,100.2 106.3,100 106.45,99.9 107,99.35 107.5,98.85 107.6,98.8 107.6,98.75 107.75,98.55 107.9,98.45 108.7,97.6 109.15,97.05 109.4,96.75 109.65,96.45 109.7,96.35 109.8,96.2 109.9,96.25 109.9,96.2 111.75,94 115.25,90.5 114.65,89.7 114.05,88.85 112.95,89.2 111.75,89.65 111.6,89.7 111.4,89.8 106,91.9 103.2,93.4L103.2,93.35 103.4,92.7Q102.85,93.4 102.25,94.15 102.25,94.25 102.2,94.4 106.9,92.15 108.4,91.65"/><g id="Symbol_32" transform="matrix(1 0 0 1 11.1 1.35)"><path fill="#7C5649" d="M83.25,35.2Q82.4,34.6 81.6,34 76.65,30.5 71.25,27.6 71.1,27.4 70.85,27.35 64.3,23.75 56.05,21.05 54.9,19.9 35.05,16.95 33.05,16.65 30.8,16.65 29.15,16.55 27.35,16.6 24.85,16.65 22.2,16.95 12.45,17.95 0,22.1 38.05,15.7 88.6,39.25 88.85,39.35 89.1,39.45L83.25,35.2"/><path fill="#7C5649" d="M96.9,28Q96.8,27.75 96.55,27.6 91.5,22.1 84.55,16.95 83.8,15.5 65.9,6.35 64.1,5.4 62,4.65 50.3,0.15 31,0 69.15,6.1 109.65,44.6 109.9,44.8 110.05,44.95L105.85,39Q105.3,38.2 104.7,37.4 101.1,32.55 96.9,28"/></g></g><animate attributeName="display" repeatCount="1" dur="2.2s" keyTimes="0;0.255;1" values="none;inline;none"/></g><g><g id="Symbol_22" transform="matrix(1 0 0 1 66.95 102.4)"><animateTransform attributeName="transform" additive="replace" type="translate" dur="2.2s" keyTimes="0;0.255;0.327;0.4;0.455;0.582;0.636;0.673;0.709;0.745;0.782;0.818;0.855;0.891;0.927;0.982;1" values="91.197,84.799;91.197,84.799;83.273,108.325;83.428,107.673;83.35,108;83.35,108;83.254,108.186;83.35,108;83.242,108.316;83.35,108;83.296,108.183;83.35,108;83.294,108.249;83.35,108;83.294,108.249;83.35,108;83.35,108"/><animateTransform attributeName="transform" additive="sum" type="scale" dur="2.2s" keyTimes="0;0.255;0.327;0.4;0.455;0.582;0.636;0.673;0.709;0.745;0.782;0.818;0.855;0.891;0.927;0.982;1" values="0.148,0.148;0.148,0.148;1.014,1.014;0.986,0.986;1,1;1,1;1.006,1.006;1,1;1.012,1.012;1,1;1.006,1.006;1,1;1.009,1.009;1,1;1.009,1.009;1,1;1,1"/><animateTransform attributeName="transform" additive="sum" type="translate" dur="2.2s" keyTimes="0;0.255;0.327;0.4;0.455;0.582;0.636;0.673;1" values="-16.55,-5.4;-16.55,-5.4;-16.45,-5.55;-16.35,-5.65;-16.4,-5.6;-16.4,-5.6;-16.35,-5.6;-16.4,-5.6;-16.4,-5.6"/><path fill="#4A2B0B" d="M25.3,11.25Q30.3,11.05 32.8,10.2L32.6,9.3Q32.3,9.4 31.85,9.5 29.05,10.1 26.15,10.1 20.65,10.2 14.65,8.35 14.35,8.25 14.05,8.15 10.85,7.15 7.55,5.65 6.05,4.9 3.6,2.9 1.25,1 0.85,0.1 0.2,-0.2 0,0.25 1.6,2.9 4.2,5.1 6.9,7.25 12.45,9.35 18,11.45 25.3,11.25"/></g><animate attributeName="display" repeatCount="1" dur="2.2s" keyTimes="0;0.255;1" values="none;inline;none"/></g><g><use xlink:href="#ear" transform="matrix(0.895 0 0 0.833 41.1 60.8)"><animateTransform attributeName="transform" additive="replace" type="translate" dur="2.2s" keyTimes="0;0.255;0.327;0.4;0.455;0.582;0.636;0.673;0.709;0.745;0.782;0.818;0.855;0.891;0.927;0.982;1" values="86.048,78.854;86.048,78.854;47.973,67.421;49.215,67.836;48.572,67.67;48.572,67.67;48.315,67.572;48.572,67.67;48.014,67.5;48.572,67.67;48.316,67.61;48.572,67.67;48.233,67.538;48.572,67.67;48.233,67.538;48.572,67.67;48.572,67.67"/><animateTransform attributeName="transform" additive="sum" type="scale" dur="2.2s" keyTimes="0;0.255;0.327;0.4;0.455;0.582;0.636;0.673;0.709;0.745;0.782;0.818;0.855;0.891;0.927;0.982;1" values="0.132,0.123;0.132,0.123;0.907,0.844;0.883,0.821;0.895,0.833;0.895,0.833;0.901,0.838;0.895,0.833;0.905,0.842;0.895,0.833;0.9,0.838;0.895,0.833;0.903,0.84;0.895,0.833;0.903,0.84;0.895,0.833;0.895,0.833"/><animateTransform attributeName="transform" additive="sum" type="translate" dur="2.2s" keyTimes="0;0.255;0.327;0.4;0.455;0.582;0.636;0.673;0.709;0.745;0.818;0.855;0.891;0.927;0.982;1" values="-8.3,-8.15;-8.3,-8.15;-8.35,-8.2;-8.4,-8.2;-8.35,-8.25;-8.35,-8.25;-8.4,-8.2;-8.35,-8.25;-8.3,-8.25;-8.35,-8.25;-8.35,-8.25;-8.4,-8.2;-8.35,-8.25;-8.4,-8.2;-8.35,-8.25;-8.35,-8.25"/></use><animate attributeName="display" repeatCount="1" dur="2.2s" keyTimes="0;0.255;1" values="none;inline;none"/></g><g><use xlink:href="#ear" transform="matrix(-1.254 0 0 1.301 142.2 114.65)"><animateTransform attributeName="transform" additive="replace" type="translate" dur="2.2s" keyTimes="0;0.255;0.327;0.4;0.455;0.582;0.636;0.673;0.709;0.745;0.782;0.818;0.855;0.891;0.927;0.982;1" values="98.352,87.349;98.352,87.349;132.415,125.851;131.296,124.663;131.855,125.257;131.855,125.257;132.152,125.575;131.855,125.257;132.284,125.847;131.855,125.257;132.032,125.454;131.855,125.257;132.214,125.65;131.855,125.257;132.214,125.65;131.855,125.257;131.855,125.257"/><animateTransform attributeName="transform" additive="sum" type="skewY" dur="2.2s" keyTimes="0;1" values="180;180"/><animateTransform attributeName="transform" additive="sum" type="scale" dur="2.2s" keyTimes="0;0.255;0.327;0.4;0.455;0.582;0.636;0.673;0.709;0.745;0.782;0.818;0.855;0.891;0.927;0.982;1" values="0.185,0.192;0.185,0.192;1.271,1.319;1.237,1.284;1.254,1.301;1.254,1.301;1.262,1.31;1.254,1.301;1.269,1.317;1.254,1.301;1.261,1.309;1.254,1.301;1.265,1.313;1.254,1.301;1.265,1.313;1.254,1.301;1.254,1.301"/><animateTransform attributeName="transform" additive="sum" type="scale" dur="2.2s" keyTimes="0;1" values="-1,1;-1,1"/><animateTransform attributeName="transform" additive="sum" type="translate" dur="2.2s" keyTimes="0;0.255;0.327;0.582;0.636;0.673;0.709;0.745;0.782;0.818;1" values="-8.35,-8.05;-8.35,-8.05;-8.25,-8.15;-8.25,-8.15;-8.2,-8.15;-8.25,-8.15;-8.25,-8.2;-8.25,-8.15;-8.3,-8.1;-8.25,-8.15;-8.25,-8.15"/></use><animate attributeName="display" repeatCount="1" dur="2.2s" keyTimes="0;0.255;1" values="none;inline;none"/></g><g><g id="Symbol_21" transform="matrix(1 0 0 1 91.35 142.35)"><animateTransform attributeName="transform" additive="replace" type="translate" dur="2.2s" keyTimes="0;0.473;0.527;0.564;1" values="97.45,148.343;97.45,148.343;97.457,148.35;97.45,148.35;97.45,148.35"/><animateTransform attributeName="transform" additive="sum" type="scale" dur="2.2s" keyTimes="0;0.473;0.527;0.564;1" values="0.377,0.377;0.377,0.377;1.067,1.067;1,1;1,1"/><animateTransform attributeName="transform" additive="sum" type="translate" dur="2.2s" keyTimes="0;0.473;0.527;1" values="-6.1,-5.95;-6.1,-5.95;-6.1,-6;-6.1,-6"/><path fill="#BB313F" d="M12.05,8.9Q12.25,7.75 12.15,5.5 11.95,2.5 7.35,1.85 4.95,-1.8 0.6,1.85 -0.15,1.95 0.6,2.65 1.35,3.4 3.2,4.15 5.15,5.05 6.95,6.5 8.85,7.85 10.3,9.05 11.8,10.25 12.05,8.9"/><path fill="#BB313F" d="M10.55,11.25Q11.65,10.2 10.3,9.45 8,8.85 4.25,5.8 0.45,2.9 0.3,3.15 -0.05,3.4 0,5.15 0.05,6.95 1.95,9.15 3.8,11.3 6.7,11.8 9.45,12.35 10.55,11.25"/></g><animate attributeName="display" repeatCount="1" dur="2.2s" keyTimes="0;0.473;1" values="none;inline;none"/></g><g><g id="Symbol_20" transform="matrix(1 0 0 1 49.35 138.1)"><animateTransform attributeName="transform" additive="replace" type="translate" dur="2.2s" keyTimes="0;0.527;0.582;0.618;1" values="56.2,143.136;56.2,143.136;56.204,143.15;56.2,143.15;56.2,143.15"/><animateTransform attributeName="transform" additive="sum" type="scale" dur="2.2s" keyTimes="0;0.527;0.582;0.618;1" values="0.341,0.341;0.341,0.341;1.03,1.03;1,1;1,1"/><animateTransform attributeName="transform" additive="sum" type="translate" dur="2.2s" keyTimes="0;0.527;0.582;1" values="-6.9,-4.95;-6.9,-4.95;-6.85,-5.05;-6.85,-5.05"/><path fill="#BB313F" d="M10.5,9.65Q13.15,8.7 13.55,7.2 13.95,5.75 12.45,5.8 10.15,6.4 5.35,5.65 0.65,5 0.6,5.35 0.45,5.7 1.4,7.2 2.3,8.75 5.1,9.7 7.75,10.6 10.5,9.65"/><path fill="#BB313F" d="M13.65,4.45Q13.3,3.35 12.05,1.45 10.4,-1.05 6.1,0.7 2.2,-1.25 0.25,4.05 -0.35,4.5 0.65,4.75 1.65,5 3.65,4.75 5.75,4.55 8.1,4.9 10.4,5.15 12.25,5.45 14.15,5.7 13.65,4.45"/></g><animate attributeName="display" repeatCount="1" dur="2.2s" keyTimes="0;0.527;1" values="none;inline;none"/></g><g><g id="Symbol_19" transform="matrix(1 0 0 1 96.25 115)"><animateTransform attributeName="transform" additive="replace" type="translate" dur="2.2s" keyTimes="0;0.582;0.636;0.673;1" values="105.793,125.351;105.793,125.351;105.788,125.35;105.8,125.35;105.8,125.35"/><animateTransform attributeName="transform" additive="sum" type="scale" dur="2.2s" keyTimes="0;0.582;0.636;0.673;1" values="0.198,0.198;0.198,0.198;1.077,1.077;1,1;1,1"/><animateTransform attributeName="transform" additive="sum" type="translate" dur="2.2s" keyTimes="0;1" values="-9.55,-10.35;-9.55,-10.35"/><path fill="#BB313F" d="M18.5,11.8Q20.65,8.1 14.8,5 14.9,-0.65 3.7,0.1 3.8,0.5 4,1.2 4.7,3.9 6.6,5.85 8.55,7.8 9.8,10.5 11.1,13.25 12.45,16.8 13.85,20.35 15.1,17.95 16.4,15.5 18.5,11.8"/><path fill="#BB313F" d="M6.3,7.8Q3.65,1.5 2.9,1.45 2.2,1.2 0.85,4.5 -0.6,7.8 0.4,12.15 1.5,16.45 5.25,18.8 9.1,21.1 11.15,20.6 13.3,20 12.95,18.9 8.85,13.6 6.3,7.8"/></g><animate attributeName="display" repeatCount="1" dur="2.2s" keyTimes="0;0.582;1" values="none;inline;none"/></g><g><g id="Symbol_18" transform="matrix(1 0 0 1 64.55 118.2)"><animateTransform attributeName="transform" additive="replace" type="translate" dur="2.2s" keyTimes="0;0.636;0.691;0.727;1" values="74.952,126.85;74.952,126.85;75.036,126.85;74.95,126.85;74.95,126.85"/><animateTransform attributeName="transform" additive="sum" type="scale" dur="2.2s" keyTimes="0;0.636;0.691;0.727;1" values="0.168,0.168;0.168,0.168;1.046,1.046;1,1;1,1"/><animateTransform attributeName="transform" additive="sum" type="translate" dur="2.2s" keyTimes="0;0.636;0.691;0.727;1" values="-10.45,-8.65;-10.45,-8.65;-10.5,-8.65;-10.4,-8.65;-10.4,-8.65"/><path fill="#BB313F" d="M19.65,5.35Q18.1,0.85 10.85,1.75 5.65,-2.85 0.45,4.5 -0.55,4.9 0.8,5.7 2.15,6.5 5.4,7 8.65,7.45 12.15,8.95 15.6,10.35 18.3,11.55 21,12.65 20.85,10.6 20.75,8.7 19.65,5.35"/><path fill="#BB313F" d="M0.45,6.65Q0.15,7.1 1,9.8 1.75,12.55 5.55,15.15 9.3,17.6 13.85,17.25 18.35,16.85 19.55,14.8 20.75,12.65 18.4,12.2 14.6,12.15 7.65,9.1 0.7,6.05 0.45,6.65"/></g><animate attributeName="display" repeatCount="1" dur="2.2s" keyTimes="0;0.636;1" values="none;inline;none"/></g><g><g id="Symbol_17" transform="matrix(1 0 0 1 43.95 98.75)"><animateTransform attributeName="transform" additive="replace" type="translate" dur="2.2s" keyTimes="0;0.691;0.745;0.782;1" values="50.802,104.95;50.802,104.95;50.794,104.95;50.8,104.95;50.8,104.95"/><animateTransform attributeName="transform" additive="sum" type="scale" dur="2.2s" keyTimes="0;0.691;0.745;0.782;1" values="0.234,0.234;0.234,0.234;1.145,1.145;1,1;1,1"/><animateTransform attributeName="transform" additive="sum" type="translate" dur="2.2s" keyTimes="0;1" values="-6.85,-6.2;-6.85,-6.2"/><path fill="#BB313F" d="M11.75,10.8Q13.65,9 13.05,6.05L13.05,5.3Q9.4,6.4 4.95,7.05 0.5,7.65 0.3,7.55 0.1,7.35 1.2,9.8 2.2,12.15 6,12.4 9.75,12.55 11.75,10.8"/><path fill="#BB313F" d="M13.7,4.6Q13.45,4 11.35,2.15 9.2,0.3 8.3,0.05 7.35,-0.2 6.05,1.5 5.45,0.25 4.05,0.3 2.45,0.35 1.2,3.6 0.25,5.9 0,7.05 1.5,6.1 5.25,5.3 9,4.55 10.85,4.6 12.35,4.6 12.85,4.6 12.95,4.6 13,4.6L13.05,4.6Q13.45,4.6 13.7,4.6"/></g><animate attributeName="display" repeatCount="1" dur="2.2s" keyTimes="0;0.691;1" values="none;inline;none"/></g><g><g id="Symbol_16" transform="matrix(1 0 0 1 51 86.15)"><animateTransform attributeName="transform" additive="replace" type="translate" dur="2.2s" keyTimes="0;0.745;0.8;0.836;1" values="56.4,91.643;56.4,91.643;56.391,91.65;56.4,91.65;56.4,91.65"/><animateTransform attributeName="transform" additive="sum" type="scale" dur="2.2s" keyTimes="0;0.745;0.8;0.836;1" values="0.287,0.287;0.287,0.287;1.091,1.091;1,1;1,1"/><animateTransform attributeName="transform" additive="sum" type="translate" dur="2.2s" keyTimes="0;0.745;0.8;1" values="-5.4,-5.55;-5.4,-5.55;-5.4,-5.5;-5.4,-5.5"/><path fill="#BB313F" d="M10.8,5.75Q10.85,4.5 10.45,2.35 9.95,-0.45 6,0.8 3.5,-1.75 0.25,3.65 -0.3,4 0.4,4.4 1.05,4.75 2.8,4.8 4.45,4.8 6.25,5.5 8,6.1 9.35,6.55 10.75,7.05 10.8,5.75"/><path fill="#BB313F" d="M3.85,6Q0.35,4.65 0.2,5.05 0,5.35 0.25,7.1 0.5,8.8 2.35,10.2 4.15,11.5 6.65,10.8 9.05,10.1 9.85,8.65 10.6,7.1 9.4,7.05 7.4,7.35 3.85,6"/></g><animate attributeName="display" repeatCount="1" dur="2.2s" keyTimes="0;0.745;1" values="none;inline;none"/></g><g><g id="Symbol_15" transform="matrix(1 0 0 1 122.4 93.1)"><animateTransform attributeName="transform" additive="replace" type="translate" dur="2.2s" keyTimes="0;0.8;0.855;0.891;1" values="127.851,99;127.851,99;127.854,99;127.85,99;127.85,99"/><animateTransform attributeName="transform" additive="sum" type="scale" dur="2.2s" keyTimes="0;0.8;0.855;0.891;1" values="0.22,0.22;0.22,0.22;1.102,1.102;1,1;1,1"/><animateTransform attributeName="transform" additive="sum" type="translate" dur="2.2s" keyTimes="0;1" values="-5.45,-5.9;-5.45,-5.9"/><path fill="#BB313F" d="M6.2,5.75Q8,5.35 9.45,5.15 10.9,4.85 10.3,3.7 9.7,2.55 8.3,0.9 6.45,-1.25 3.65,1.8 0.25,0.85 0.1,7.15 -0.2,7.75 0.6,7.75 1.4,7.75 2.9,6.9 4.3,6.05 6.2,5.75"/><path fill="#BB313F" d="M0.7,8.4Q0.7,8.75 1.8,10.15 2.9,11.55 5.15,11.8 7.4,11.95 9.2,10.15 10.95,8.35 10.9,6.65 10.75,4.95 9.7,5.5 8.1,6.75 4.4,7.35 0.65,7.95 0.7,8.4"/></g><animate attributeName="display" repeatCount="1" dur="2.2s" keyTimes="0;0.8;1" values="none;inline;none"/></g><g><g id="Symbol_14" transform="matrix(1 0 0 1 79.95 57.9)"><animateTransform attributeName="transform" additive="replace" type="translate" dur="2.2s" keyTimes="0;0.855;0.909;0.945;1" values="90.1,68.352;90.1,68.352;90.123,68.35;90.1,68.35;90.1,68.35"/><animateTransform attributeName="transform" additive="sum" type="scale" dur="2.2s" keyTimes="0;0.855;0.909;0.945;1" values="0.172,0.172;0.172,0.172;1.091,1.091;1,1;1,1"/><animateTransform attributeName="transform" additive="sum" type="translate" dur="2.2s" keyTimes="0;1" values="-10.15,-10.45;-10.15,-10.45"/><path fill="#BB313F" d="M1.4,3.15Q0.65,3.1 0.1,6.8 -0.45,10.55 1.75,14.7 4,18.85 8.55,20.2 13,21.5 15,20.4 17.05,19.25 16.35,18.15 10.75,13.95 6.55,8.7 2.15,3 1.4,3.15"/><path fill="#BB313F" d="M1.8,1.55Q2,1.9 2.4,2.55 3.9,5.15 6.4,6.65 8.8,8.1 10.85,10.5 12.95,12.95 15.3,16.2 17.7,19.45 18.35,16.6 19,13.8 20.1,9.4 21.3,5.05 14.5,3.45 13.05,-2.35 1.8,1.55"/></g><animate attributeName="display" repeatCount="1" dur="2.2s" keyTimes="0;0.855;1" values="none;inline;none"/></g></g></g></svg>