<?xml version="1.0" encoding="utf-8"?><svg id="1003" image-rendering="auto" baseProfile="basic" version="1.1" x="0px" y="0px" width="300" height="300" xmlns="http://www.w3.org/2000/svg" xmlns:xlink="http://www.w3.org/1999/xlink"><g id="Symbol_1_l1" overflow="visible" transform="matrix(1 0 0 1 31.75 5)"><g id="Symbol_7_l1" transform="matrix(0.99 0 0 0.99 -27.45 0)"><g style="display:none;"><path fill="none" stroke="#000" stroke-opacity="0.251" stroke-width="6" stroke-linecap="round" stroke-linejoin="round" d="M261.25,89.15Q260.85,88.95 260.85,88.75 265.25,85.95 270.25,82.3 294.25,64.7 294.25,45.5 294.25,26.65 277.85,17.25 263.85,9.25 241.4,9.65 221.2,9.85 205.15,16.25 197.95,19.45 193.75,22.65 190.35,17.45 185.35,13.45 161.55,-7.15 117.9,3.85 104.5,7.25 93.05,18.45 91.05,16.45 88.05,14.85 75.05,7.05 48.85,6.05 19.2,7.45 9.8,23.25 0.4,39.1 1.4,53.3 2.4,67.5 9.2,78.7 15.8,89.95 26.8,94.95 0.2,122.15 0,140.8 0,159.2 5.8,168.4 11.4,177.6 25.8,177.6 30,177.6 34.4,177 30.4,194.65 28.4,206.85 26.4,219.05 30.6,236.45 34.6,253.9 52.45,268.9 70.05,283.7 89.05,288.9 108.1,293.9 150.7,294.3 193.55,294.5 221,266.1 248.4,237.25 247,202.85 246,179 245.6,174.8 256.2,171.6 263.45,166.4 284.85,151.2 284.85,129.15 284.85,121.15 283.25,116.35 281.45,110.95 272.85,101.35 264.25,91.95 261.25,89.15"/><animate attributeName="display" fill="freeze" repeatCount="1" dur="1.6s" keyTimes="0;0.6;1" values="none;inline;inline"/></g><g style="display:none;"><path fill="none" stroke="#000" stroke-opacity="0.251" stroke-width="6" stroke-linecap="round" stroke-linejoin="round" d="M251.25,89.15Q250.85,88.95 250.85,88.75 255.25,85.95 260.25,82.3 284.25,64.7 284.25,45.5 284.25,26.65 267.85,17.25 253.85,9.25 231.4,9.65 211.2,9.85 195.15,16.25 192.683,17.347 190.575,18.45 188.223,15.748 185.35,13.45 161.55,-7.15 117.9,3.85 107.032,6.608 97.45,14.5 84.45,7.027 58.85,6.05 29.2,7.45 19.8,23.25 10.4,39.1 11.4,53.3 12.4,67.5 19.2,78.7 25.8,89.95 36.8,94.95 10.2,122.15 10,140.8 10,159.2 15.8,168.4 21.098,177.103 34.275,177.575 30.367,194.849 28.4,206.85 26.4,219.05 30.6,236.45 34.6,253.9 52.45,268.9 70.05,283.7 89.05,288.9 108.1,293.9 150.7,294.3 193.55,294.5 221,266.1 248.4,237.25 247,202.85 246,179 245.6,174.8L244.475,171.5Q249.469,169.255 253.45,166.4 274.85,151.2 274.85,129.15 274.85,121.15 273.25,116.35 271.45,110.95 262.85,101.35 254.25,91.95 251.25,89.15"/><animate attributeName="display" fill="freeze" repeatCount="1" dur="1.6s" keyTimes="0;0.575;0.6;1" values="none;inline;none;none"/></g><g style="display:none;"><path fill="none" stroke="#000" stroke-opacity="0.251" stroke-width="6" stroke-linecap="round" stroke-linejoin="round" d="M274.25,45.5Q274.25,26.65 257.85,17.25 243.85,9.25 221.4,9.65 202.694,9.835 187.55,15.325 186.49,14.362 185.35,13.45 161.55,-7.15 117.9,3.85 109.175,6.064 101.275,11.575 88.946,6.817 68.85,6.05 39.2,7.45 29.8,23.25 20.4,39.1 21.4,53.3 22.4,67.5 29.2,78.7 35.8,89.95 46.8,94.95 20.2,122.15 20,140.8 20,159.2 25.8,168.4 28.937,173.554 34.825,175.825L34.4,177Q30.4,194.65 28.4,206.85 26.4,219.05 30.6,236.45 34.6,253.9 52.45,268.9 70.05,283.7 89.05,288.9 108.1,293.9 150.7,294.3 193.55,294.5 221,266.1 248.4,237.25 247,202.85 246,179 245.6,174.8L242.875,166.8Q243.165,166.604 243.45,166.4 264.85,151.2 264.85,129.15 264.85,121.15 263.25,116.35 261.45,110.95 252.85,101.35 244.25,91.95 241.25,89.15 240.85,88.95 240.85,88.75 245.25,85.95 250.25,82.3 274.25,64.7 274.25,45.5"/><animate attributeName="display" fill="freeze" repeatCount="1" dur="1.6s" keyTimes="0;0.55;0.575;1" values="none;inline;none;none"/></g><g><path fill="none" stroke="#000" stroke-opacity="0.251" stroke-width="6" stroke-linecap="round" stroke-linejoin="round" d="M244.15,168.35Q223.122,48.099 185.35,13.45 161.55,-7.15 117.9,3.85 104.5,7.25 93.05,18.45 66.299,48.051 48.075,123.05 29.846,198.045 28.4,206.85 26.4,219.05 30.6,236.45 34.6,253.9 52.45,268.9 70.05,283.7 89.05,288.9 108.1,293.9 150.7,294.3 193.55,294.5 221,266.1 248.4,237.25 247,202.85 246,179 244.15,168.35"/><animate attributeName="display" fill="freeze" repeatCount="1" dur="1.6s" keyTimes="0;0.55;1" values="inline;none;none"/></g><g style="display:none;"><path fill="#FFF" d="M261.25,89.15Q260.85,88.95 260.85,88.75 265.25,85.95 270.25,82.3 294.25,64.7 294.25,45.5 294.25,26.65 277.85,17.25 263.85,9.25 241.4,9.65 221.2,9.85 205.15,16.25 197.95,19.45 193.75,22.65 190.35,17.45 185.35,13.45 161.55,-7.15 117.9,3.85 104.5,7.25 93.05,18.45 91.05,16.45 88.05,14.85 75.05,7.05 48.85,6.05 19.2,7.45 9.8,23.25 0.4,39.1 1.4,53.3 2.4,67.5 9.2,78.7 15.8,89.95 26.8,94.95 0.2,122.15 0,140.8 0,159.2 5.8,168.4 11.4,177.6 25.8,177.6 30,177.6 34.4,177 30.4,194.65 28.4,206.85 26.4,219.05 30.6,236.45 34.6,253.9 52.45,268.9 70.05,283.7 89.05,288.9 108.1,293.9 150.7,294.3 193.55,294.5 221,266.1 248.4,237.25 247,202.85 246,179 245.6,174.8 256.2,171.6 263.45,166.4 284.85,151.2 284.85,129.15 284.85,121.15 283.25,116.35 281.45,110.95 272.85,101.35 264.25,91.95 261.25,89.15"/><animate attributeName="display" fill="freeze" repeatCount="1" dur="1.6s" keyTimes="0;0.6;1" values="none;inline;inline"/></g><g style="display:none;"><path fill="#FFF" d="M251.25,89.15Q250.85,88.95 250.85,88.75 255.25,85.95 260.25,82.3 284.25,64.7 284.25,45.5 284.25,26.65 267.85,17.25 253.85,9.25 231.4,9.65 211.2,9.85 195.15,16.25 192.683,17.347 190.575,18.45 188.223,15.748 185.35,13.45 161.55,-7.15 117.9,3.85 107.032,6.608 97.45,14.5 84.45,7.027 58.85,6.05 29.2,7.45 19.8,23.25 10.4,39.1 11.4,53.3 12.4,67.5 19.2,78.7 25.8,89.95 36.8,94.95 10.2,122.15 10,140.8 10,159.2 15.8,168.4 21.098,177.103 34.275,177.575 30.367,194.849 28.4,206.85 26.4,219.05 30.6,236.45 34.6,253.9 52.45,268.9 70.05,283.7 89.05,288.9 108.1,293.9 150.7,294.3 193.55,294.5 221,266.1 248.4,237.25 247,202.85 246,179 245.6,174.8L244.475,171.5Q249.469,169.255 253.45,166.4 274.85,151.2 274.85,129.15 274.85,121.15 273.25,116.35 271.45,110.95 262.85,101.35 254.25,91.95 251.25,89.15"/><animate attributeName="display" fill="freeze" repeatCount="1" dur="1.6s" keyTimes="0;0.575;0.6;1" values="none;inline;none;none"/></g><g style="display:none;"><path fill="#FFF" d="M274.25,45.5Q274.25,26.65 257.85,17.25 243.85,9.25 221.4,9.65 202.694,9.835 187.55,15.325 186.49,14.362 185.35,13.45 161.55,-7.15 117.9,3.85 109.175,6.064 101.275,11.575 88.946,6.817 68.85,6.05 39.2,7.45 29.8,23.25 20.4,39.1 21.4,53.3 22.4,67.5 29.2,78.7 35.8,89.95 46.8,94.95 20.2,122.15 20,140.8 20,159.2 25.8,168.4 28.937,173.554 34.825,175.825L34.4,177Q30.4,194.65 28.4,206.85 26.4,219.05 30.6,236.45 34.6,253.9 52.45,268.9 70.05,283.7 89.05,288.9 108.1,293.9 150.7,294.3 193.55,294.5 221,266.1 248.4,237.25 247,202.85 246,179 245.6,174.8L242.875,166.8Q243.165,166.604 243.45,166.4 264.85,151.2 264.85,129.15 264.85,121.15 263.25,116.35 261.45,110.95 252.85,101.35 244.25,91.95 241.25,89.15 240.85,88.95 240.85,88.75 245.25,85.95 250.25,82.3 274.25,64.7 274.25,45.5"/><animate attributeName="display" fill="freeze" repeatCount="1" dur="1.6s" keyTimes="0;0.55;0.575;1" values="none;inline;none;none"/></g><g><path fill="#FFF" d="M244.15,168.35Q223.122,48.099 185.35,13.45 161.55,-7.15 117.9,3.85 104.5,7.25 93.05,18.45 66.299,48.051 48.075,123.05 29.846,198.045 28.4,206.85 26.4,219.05 30.6,236.45 34.6,253.9 52.45,268.9 70.05,283.7 89.05,288.9 108.1,293.9 150.7,294.3 193.55,294.5 221,266.1 248.4,237.25 247,202.85 246,179 244.15,168.35"/><animate attributeName="display" fill="freeze" repeatCount="1" dur="1.6s" keyTimes="0;0.55;1" values="inline;none;none"/></g><g mask="url(#mask_)" style="display:none;"><g id="Symbol_15" transform="matrix(0.283 0 0 0.283 102.6 73.8)"><animateTransform attributeName="transform" additive="replace" type="translate" fill="freeze" dur="1.6s" keyTimes="0;0.5;0.6;0.675;1" values="110.244,78.66;110.244,78.66;54.2,51.35;55.7,52.85;55.7,52.85"/><animateTransform attributeName="transform" additive="sum" type="scale" fill="freeze" dur="1.6s" keyTimes="0;0.5;0.6;1" values="0.283,0.283;0.283,0.283;1,1;1,1"/><animateTransform attributeName="transform" additive="sum" type="translate" fill="freeze" dur="1.6s" keyTimes="0;0.5;0.6;1" values="-27.05,-17.2;-27.05,-17.2;-27.1,-17.25;-27.1,-17.25"/><path fill="#99C" fill-opacity="0.871" d="M25.85,10.3Q0,-7.75 0,5.9 0,10.5 23.65,22.3 47.05,33.9 54.25,34.5 48.45,26.3 25.85,10.3"/></g><animate attributeName="display" fill="freeze" repeatCount="1" dur="1.6s" keyTimes="0;0.5;1" values="none;inline;inline"/></g><g mask="url(#mask_)" style="display:none;"><g id="Symbol_14" transform="matrix(0.283 0 0 0.283 99.1 94.55)"><animateTransform attributeName="transform" additive="replace" type="translate" fill="freeze" dur="1.6s" keyTimes="0;0.5;0.6;0.675;1" values="106.405,99.198;106.405,99.198;40.5,127.1;42,125.6;42,125.6"/><animateTransform attributeName="transform" additive="sum" type="scale" fill="freeze" dur="1.6s" keyTimes="0;0.5;0.6;1" values="0.283,0.283;0.283,0.283;1,1;1,1"/><animateTransform attributeName="transform" additive="sum" type="translate" fill="freeze" dur="1.6s" keyTimes="0;0.5;0.6;1" values="-25.85,-16.45;-25.85,-16.45;-25.8,-16.45;-25.8,-16.45"/><path fill="#99C" fill-opacity="0.871" d="M49.25,5.4Q50.65,2.2 51.65,0 48.45,1.4 31.45,8.2 12.8,16.2 0,24.2L15.2,20Q22.6,17.4 28.6,15 22.4,20 15,26.4 2.8,46.25 49.25,5.4"/></g><animate attributeName="display" fill="freeze" repeatCount="1" dur="1.6s" keyTimes="0;0.5;1" values="none;inline;inline"/></g><g mask="url(#mask_)" style="display:none;"><g id="Symbol_13" transform="matrix(0.283 0 0 0.283 149.2 75.05)"><animateTransform attributeName="transform" additive="replace" type="translate" fill="freeze" dur="1.6s" keyTimes="0;0.5;0.6;0.675;1" values="158.751,79.797;158.751,79.797;228.8,55.4;227.3,56.9;227.3,56.9"/><animateTransform attributeName="transform" additive="sum" type="scale" fill="freeze" dur="1.6s" keyTimes="0;0.5;0.6;1" values="0.283,0.283;0.283,0.283;1,1;1,1"/><animateTransform attributeName="transform" additive="sum" type="translate" fill="freeze" dur="1.6s" keyTimes="0;0.5;0.6;1" values="-33.8,-16.8;-33.8,-16.8;-33.85,-16.75;-33.85,-16.75"/><path fill="#99C" fill-opacity="0.871" d="M46.35,17.55Q65.15,7.35 64.15,5.95 78.2,-8.25 37.55,11.35 -3.3,30.95 0.3,33.55 27.35,27.75 46.35,17.55"/></g><animate attributeName="display" fill="freeze" repeatCount="1" dur="1.6s" keyTimes="0;0.5;1" values="none;inline;inline"/></g><g mask="url(#mask_)" style="display:none;"><g id="Symbol_12" transform="matrix(0.283 0 0 0.283 149.4 94.55)"><animateTransform attributeName="transform" additive="replace" type="translate" fill="freeze" dur="1.6s" keyTimes="0;0.5;0.6;0.675;1" values="158.358,98.548;158.358,98.548;227.3,124.75;225.8,123.25;225.8,123.25"/><animateTransform attributeName="transform" additive="sum" type="scale" fill="freeze" dur="1.6s" keyTimes="0;0.5;0.6;1" values="0.283,0.283;0.283,0.283;1,1;1,1"/><animateTransform attributeName="transform" additive="sum" type="translate" fill="freeze" dur="1.6s" keyTimes="0;0.5;0.6;1" values="-31.7,-14.15;-31.7,-14.15;-31.65,-14.1;-31.65,-14.1"/><path fill="#99C" fill-opacity="0.871" d="M3.6,2.8Q15.05,10.4 32.25,20.6 52.65,31.85 61.45,26.4 70.1,21 38.05,11.8 5.6,2.6 0,0 2,1 3.6,2.8"/></g><animate attributeName="display" fill="freeze" repeatCount="1" dur="1.6s" keyTimes="0;0.5;1" values="none;inline;inline"/></g><g mask="url(#mask_)" style="display:none;"><g id="Symbol_11" transform="matrix(1 0 0 1 56.45 303.6)"><animateTransform attributeName="transform" additive="replace" type="translate" fill="freeze" dur="1.6s" keyTimes="0;0.1;0.175;0.25;0.399;0.4;0.475;1" values="136.1,376.35;136.1,376.35;136.1,186.35;136.1,196.35;136.1,196.35;136.1,199.35;136.1,196.35;136.1,196.35"/><animateTransform attributeName="transform" additive="sum" type="scale" fill="freeze" dur="1.6s" keyTimes="0;0.1;0.175;0.25;1" values="1,1;1,1;0.962,1;1,1;1,1"/><animateTransform attributeName="transform" additive="sum" type="translate" fill="freeze" dur="1.6s" keyTimes="0;1" values="-79.65,-72.75;-79.65,-72.75"/><path fill="#E7B66D" d="M50.45,141.1L62.85,133.1Q55.45,131.3 48.85,128.5L37.4,135.5Q43.65,138.9 50.45,141.1"/><path fill="#DFA934" d="M52.05,13.8Q46.45,16 41.4,18.2 40.6,18.6 39.8,19 30.2,23.8 23,30 15.2,36.6 10.2,44.2 4.8,52.2 2.2,61.2 0,69.25 0,77.85 0,80.45 0.2,82.85 0.8,88.85 2.2,94.25 7,111.65 23,125.5 29.8,131.3 37.4,135.5L48.85,128.5Q39.8,124.1 32,117.05 16.2,102.65 13.6,82.85 13,78.85 13,74.25 13,57.6 21.4,44.2 25.6,37.4 32,31.2 40.6,23.4 50.45,19 50.85,19 51.25,18.8 54.2,17.5 57.25,16.6L49.85,0 52.05,13.8"/><path fill="#DFA934" d="M158.75,69.85Q158.75,69.45 158.75,69.05L143.1,80.45Q143.1,81.25 142.9,81.85 142.9,82.25 142.7,82.85 139.7,102.05 124.3,116.45 105.3,134.3 78.25,134.5 70.05,134.5 62.85,133.1L50.45,141.1Q56.65,143.1 63.65,144.1L78.85,145.5Q79.65,145.5 80.45,145.5L95.85,144.1Q118.7,140.7 136.1,125.5 157.15,107.65 159.15,82.85 159.15,82.25 159.35,81.85 159.35,80.05 159.35,77.85 159.35,73.65 158.75,69.85"/><path fill="#E7B66D" d="M143.3,69.85Q143.3,71.65 143.3,73.65 143.3,77.25 143.1,80.45L158.75,69.05Q158.15,64.2 156.75,60L143.3,69.05Q143.3,69.45 143.3,69.85"/><path fill="#BC8E2C" d="M135.5,44.2Q131.1,37 124.3,30.6 118.7,25.4 112.3,21.8 109.3,20.2 106.7,19 106.3,18.8 105.9,18.8L105.5,18.6Q104.7,18.1 103.9,18.05L103.1,19.2Q102.7,18.8 102.5,18.6 102.3,18.6 102.1,18.8 99.9,18.6 85.45,15.6 77.05,15.8 61.05,16 59.05,16.2 57.25,16.6 54.2,17.5 51.25,18.8 50.85,19 50.45,19 40.6,23.4 32,31.2 25.6,37.4 21.4,44.2 13,57.6 13,74.25 13,78.85 13.6,82.85 16.2,102.65 32,117.05 39.8,124.1 48.85,128.5 55.45,131.3 62.85,133.1 70.05,134.5 78.25,134.5 105.3,134.3 124.3,116.45 139.7,102.05 142.7,82.85 142.9,82.25 142.9,81.85 143.1,81.25 143.1,80.45 143.3,77.25 143.3,73.65 143.3,71.65 143.3,69.85 143.3,69.45 143.3,69.05 142.3,55.4 135.5,44.2 M100.7,21.2Q110.7,25.4 118.9,34 123.7,38.8 127.1,44.2 135.3,57.4 135.7,74.05 135.7,74.65 135.7,75.25 135.7,79.25 135.3,82.85 135.1,83.85 134.9,85.05 134.7,85.85 134.7,86.65 134.3,88.45 133.9,90.45 130.1,105.05 118.9,116.45 102.5,133.5 79.05,133.5 71.45,133.5 64.65,131.7 58.05,130.1 52.05,126.5 45.05,122.5 39,116.45 25.4,102.25 23.2,82.85 22.6,79.25 22.6,75.25 22.6,58 31.2,44.2 34.4,39 39,34 49.65,23.2 63.05,19.4 63.65,19.2 64.05,19 71.25,17 79.05,17 87.05,17 94.25,19 97.5,20 100.7,21.2"/><path fill="#DFA934" d="M149.1,44.2Q143.9,36.6 136.1,30 131.5,26 125.9,22.6 125.1,22 124.5,21.8 122.1,20.2 119.3,19 115.3,17.2 111.1,15.6L111.1,15.2 111.85,6.35 103.9,18.05Q104.7,18.1 105.5,18.6L105.9,18.8Q106.3,18.8 106.7,19 109.3,20.2 112.3,21.8 118.7,25.4 124.3,30.6 131.1,37 135.5,44.2 142.3,55.4 143.3,69.05L156.75,60Q154.35,51.6 149.1,44.2"/></g><animate attributeName="display" fill="freeze" repeatCount="1" dur="1.6s" keyTimes="0;0.1;1" values="none;inline;inline"/></g><g mask="url(#mask_)" style="display:none;"><g id="Symbol_10" transform="matrix(1 0 0 1 87.25 -141.55)"><animateTransform attributeName="transform" additive="replace" type="translate" fill="freeze" dur="1.6s" keyTimes="0;0.325;0.4;0.475;1" values="87.25,-141.55;87.25,-141.55;87.25,11.45;87.25,8.45;87.25,8.45"/><path fill="#4556A7" d="M60.45,0L43.65,19.8 0,69.65 18.05,113.5 18.65,114.3 26.45,131.75Q28.25,131.35 30.25,131.15 46.25,130.95 54.65,130.75 69.1,133.75 71.3,133.95 71.5,133.75 71.7,133.75 71.9,133.95 72.3,134.35L81.3,121.1 81.5,120.3 81.3,120.3 81.3,119.9 81.7,120.3 101.7,92.9 60.45,0"/><path fill="#5BD7D7" d="M81.7,120.3L81.3,119.9 81.3,120.3 81.5,120.3 81.7,120.3"/><path fill="#259695" d="M81.7,120.3L81.5,120.3 81.3,121.1 81.1,121.7 81.7,120.3"/><path fill="#5E6FBD" d="M60.45,0L43.65,19.8 0,69.65 39.25,68.45 80.3,80.5 101.7,92.9 60.45,0"/><path fill="#8B8BD8" d="M24.25,60.85L38.65,60.85 22.85,43.25 16.85,50.45 24.25,60.85"/><path fill="#8B8BD8" d="M54.25,63.65L67.5,63.65 43.65,19.8 30.05,35.05 54.25,63.65"/><path fill="#5E6FBD" d="M18.05,113.5L18.65,114.3 50.45,117.1 39.25,68.45 18.05,113.5"/><path fill="#5E6FBD" d="M81.3,120.3L81.1,120.1Q81.1,120 81.2,119.85 81.2,119.8 81.3,119.7L80.3,80.5 54.45,117.5 81.3,120.3"/></g><animate attributeName="display" fill="freeze" repeatCount="1" dur="1.6s" keyTimes="0;0.325;1" values="none;inline;inline"/></g><g mask="url(#mask_)" style="display:none;"><g id="Symbol_9" transform="matrix(1 0 0 1 109.3 309.15)"><animateTransform attributeName="transform" additive="replace" type="translate" fill="freeze" dur="1.6s" keyTimes="0;0.1;0.175;0.25;0.399;0.4;0.475;1" values="138,318.05;138,318.05;137.969,128.05;138,138.05;138,138.05;138,141.05;138,138.05;138,138.05"/><animateTransform attributeName="transform" additive="sum" type="scale" fill="freeze" dur="1.6s" keyTimes="0;0.1;0.175;0.25;1" values="1,1;1,1;0.962,1;1,1;1,1"/><animateTransform attributeName="transform" additive="sum" type="translate" fill="freeze" dur="1.6s" keyTimes="0;1" values="-28.7,-8.9;-28.7,-8.9"/><path fill="#DFA934" d="M57.45,12.65L50.45,12.65Q48.45,4.2 47.45,0.8L47.45,0.6Q47.05,0.8 46.65,1.4 44.25,3.6 38.8,9.05L19.6,7.4 12.2,0 6.8,9.25 0,9.25 2.8,16.05 53.65,17.85 57.45,12.65"/></g><animate attributeName="display" fill="freeze" repeatCount="1" dur="1.6s" keyTimes="0;0.1;1" values="none;inline;inline"/></g><g mask="url(#mask_)" style="display:none;"><g id="Symbol_8" transform="matrix(0.409 0 0 0.409 124.75 45.2)" opacity="0"><animateTransform attributeName="transform" additive="replace" type="translate" fill="freeze" dur="1.6s" keyTimes="0;0.5;0.975;1" values="135.9,65.516;135.9,65.516;135.9,65.5;135.9,65.5"/><animateTransform attributeName="transform" additive="sum" type="rotate" fill="freeze" dur="1.6s" keyTimes="0;0.5;0.975;1" values="0,0,0;0,0,0;360,0,0;360,0,0"/><animateTransform attributeName="transform" additive="sum" type="scale" fill="freeze" dur="1.6s" keyTimes="0;0.5;0.975;1" values="0.409,0.409;0.409,0.409;1,1;1,1"/><animateTransform attributeName="transform" additive="sum" type="translate" fill="freeze" dur="1.6s" keyTimes="0;0.5;0.975;1" values="-27.25,-49.65;-27.25,-49.65;-27.2,-49.65;-27.2,-49.65"/><animate attributeName="opacity" fill="freeze" dur="1.6s" keyTimes="0;0.5;0.975;1" values="0;0;1;1"/><path fill="#FCF0D8" d="M54.45,33.85L41,39.85Q26.6,45.65 21.4,42.85 16.2,39.85 8,19.05L0.2,0Q-0.6,0.6 6.8,21.25 14.6,43.65 14.6,48.45 14.6,55.05 7,60.05 0,64.45 0,65.05L8.4,61.65Q18,57.25 22.4,56.65 27,56.25 39.8,78.1 51.85,99.3 52.45,99.3 53.85,98.7 43.2,77.1 32,53.85 32.2,50.45 32.6,47.25 43.8,40.85L54.45,33.85"/></g><animate attributeName="display" fill="freeze" repeatCount="1" dur="1.6s" keyTimes="0;0.5;1" values="none;inline;inline"/></g><mask id="mask_"><path fill="#FFF" d="M261.25,89.15Q260.85,88.95 260.85,88.75 265.25,85.95 270.25,82.3 294.25,64.7 294.25,45.5 294.25,26.65 277.85,17.25 263.85,9.25 241.4,9.65 221.2,9.85 205.15,16.25 197.95,19.45 193.75,22.65 190.35,17.45 185.35,13.45 161.55,-7.15 117.9,3.85 104.5,7.25 93.05,18.45 91.05,16.45 88.05,14.85 75.05,7.05 48.85,6.05 19.2,7.45 9.8,23.25 0.4,39.1 1.4,53.3 2.4,67.5 9.2,78.7 15.8,89.95 26.8,94.95 0.2,122.15 0,140.8 0,159.2 5.8,168.4 11.4,177.6 25.8,177.6 30,177.6 34.4,177 30.4,194.65 28.4,206.85 26.4,219.05 30.6,236.45 34.6,253.9 52.45,268.9 70.05,283.7 89.05,288.9 108.1,293.9 150.7,294.3 193.55,294.5 221,266.1 248.4,237.25 247,202.85 246,179 245.6,174.8 256.2,171.6 263.45,166.4 284.85,151.2 284.85,129.15 284.85,121.15 283.25,116.35 281.45,110.95 272.85,101.35 264.25,91.95 261.25,89.15" fill-opacity="1"/></mask></g></g></svg>