<?xml version="1.0" encoding="utf-8"?>
<!-- Generator: Adobe Illustrator 19.2.0, SVG Export Plug-In . SVG Version: 6.00 Build 0)  -->
<svg version="1.1" id="_x31_013" image-rendering="auto"
	 xmlns="http://www.w3.org/2000/svg" xmlns:xlink="http://www.w3.org/1999/xlink" x="0px" y="0px" width="300px" height="300px"
	 viewBox="0 0 300 300" enable-background="new 0 0 300 300" xml:space="preserve">
<path opacity="0.25" fill="#332C2A" d="M284.6,60.3c2.3-2.5,4.4-5.7,6.4-9.6c3.3-7.2,4.9-13,4.9-17.4c0-22.1-9.8-32-29.5-29.5
	c-7.1,1-13.9,3.2-20.5,6.8c-2.2,1.2-4,2.4-5.3,3.5l-0.1-0.1l-0.1,0.1c-1.4-0.5-2.8-1.2-4.3-1.8c-2.3-0.7-4.4-1.3-6.4-1.8
	c-6.1-1.9-12-3.1-17.4-3.7c-32-3.4-57.2,22.7-75.6,78.5c-0.3-1-1-1.8-2-2.7c-13.7-10.8-26.7-17.8-39.1-21.1c-4-1.2-7.9-2-11.7-2.3
	c-24.9-2.5-46.5,10.9-65,40c-17.9,30.9-19.3,58.8-4.1,83.6c7.9,13.1,20.2,25.1,36.9,35.9c-1.1,0.7-2.3,1.4-3.7,2
	c-10.5,6.6-19.7,14.1-27.5,22.5c-8.3,9-12.5,16.5-12.5,22.5c0,5.2,3.4,11.7,10.2,19.5c6.7,7.8,17.1,11.7,31.4,11.7
	c13.9,0,23.4-8.1,28.5-24.4c4.9-16.4,7.9-28.1,8.8-35.3l0.2,0.1c0.2,0.1,0.5,0.2,0.8,0.3c33.5,14.2,76.9,26,130.1,35.5
	c0.3-0.7,0.7-1.3,1.2-1.8c57.2-95.9,79-166.2,65.2-210.9l0.1-0.1L284.6,60.3z"/>
</svg>
