<?xml version="1.0" encoding="utf-8"?>
<!-- Generator: Adobe Illustrator 19.2.0, SVG Export Plug-In . SVG Version: 6.00 Build 0)  -->
<svg version="1.1" id="_x31_003" image-rendering="auto"
	 xmlns="http://www.w3.org/2000/svg" xmlns:xlink="http://www.w3.org/1999/xlink" x="0px" y="0px" width="300px" height="300px"
	 viewBox="0 0 300 300" enable-background="new 0 0 300 300" xml:space="preserve">
<path opacity="0.25" fill="#332C2A" d="M274.4,105.3c-5.7-6.2-9.5-10.2-11.5-12.1c-0.3-0.1-0.4-0.3-0.4-0.4c2.9-1.8,6-4,9.3-6.4
	c15.8-11.6,23.8-23.8,23.8-36.4c0-12.4-5.4-21.8-16.2-28c-9.2-5.3-21.3-7.8-36.1-7.5c-13.3,0.1-25.3,2.3-35.9,6.5
	c-4.8,2.1-8.5,4.2-11.3,6.3c-2.2-3.4-5-6.5-8.3-9.1c-15.7-13.6-38-16.8-66.8-9.5c-8.8,2.2-17,7.1-24.6,14.5c-1.3-1.3-3-2.5-5-3.6
	C82.9,14.6,70,11.6,52.7,11C33.1,11.9,20.2,17.6,14,28C7.8,38.5,5,48.4,5.7,57.8c0.7,9.4,3.2,17.8,7.7,25.1
	c4.4,7.4,10.2,12.8,17.4,16.1c-17.6,18-26.4,33.1-26.5,45.4c0,12.1,1.9,21.3,5.7,27.3c3.7,6.1,10.3,9.1,19.8,9.1
	c2.8,0,5.6-0.2,8.5-0.6c-2.6,11.6-4.6,21.5-5.9,29.6s-0.6,17.8,2.2,29.3c2.6,11.5,9.9,22.2,21.6,32.1c11.6,9.8,23.7,16.4,36.2,19.8
	c12.6,3.3,32.9,5.1,61,5.3c28.3,0.1,51.5-9.2,69.6-27.9c18.1-19,26.7-39.9,25.7-62.6c-0.7-15.7-1.1-25-1.4-27.8
	c7-2.1,12.9-4.9,17.7-8.3c14.1-10,21.2-22.3,21.2-36.9c0-5.3-0.5-9.5-1.6-12.7C283.5,116.6,280.1,111.7,274.4,105.3z"/>
</svg>
