<?xml version="1.0" encoding="utf-8"?><svg id="1014" image-rendering="auto" baseProfile="basic" version="1.1" x="0px" y="0px" width="300" height="660" xmlns="http://www.w3.org/2000/svg" xmlns:xlink="http://www.w3.org/1999/xlink"><g id="11_l1" overflow="visible" transform="matrix(3.913 0 0 3.913 230.55 319.95)"><path fill="none" stroke="#000" stroke-opacity="0.251" stroke-width="2" stroke-linecap="round" stroke-linejoin="round" d="M11.2,-69.4Q11.2,-73.7 6.6,-76.2 2.15,-78.6 -4.7,-78.6 -11.55,-78.6 -17.1,-78.4 -22.7,-78.2 -25.95,-75.9 -28.15,-74.4 -28.1,-73.7 -29.5,-74.7 -32.4,-76.55 -33.5,-77.3 -35.35,-77.8 -37.25,-78.35 -39.15,-78.45 -41.1,-78.6 -44.45,-77.6 -47.85,-76.65 -49.25,-75 -52.6,-71.1 -50.5,-67.8 -53.05,-65.5 -54.6,-63.4 -56.7,-60.65 -57.05,-58.15 -57.8,-53.75 -57.15,-50.8 -56.5,-47.9 -55.5,-44.85 -54.6,-41.95 -52.15,-37.85 -52.1,-37.7 -52,-37.6 -51.4,-36.55 -52.3,-35.5 -54.1,-33.3 -54.3,-33.05 -55,-32.05 -55.5,-31 -57.15,-27.85 -56.7,-22.4 -56.3,-17 -53.15,-8.8 -52.5,-7.1 -52,-5.9L-54.2,-1.8Q-57.8,4.8 -57.8,11 -57.8,14.35 -57.05,16.5 -56.35,18.6 -54.2,21.8 -52.25,24.8 -53.6,25.2 -55,25.65 -56.25,29.25 -57.5,32.85 -57.45,37.85 -57.4,42.85 -55.55,45.2 -53.7,47.55 -53.9,48 -54.1,48.5 -55.1,54.6 -56.15,60.65 -55.85,64.1 -55.55,67.8 -54.45,69.4 -50.3,75.6 -37.05,80.5 -23.8,85.4 -11.95,83.6 -0.1,81.75 7.5,79.3 15.05,76.8 15.15,64.85L15.15,50.25Q16.8,41.05 16.8,40.4 16.8,33.35 13.2,30.1 11.35,28.4 10.75,27.3 9.6,25.25 9.6,21.5 9.6,18.25 12.7,13.8 15.8,9.3 15.85,4.95 15.9,0.6 14.15,-2 12.35,-4.65 11,-8.4 9.65,-12.15 12.75,-15.25 15.8,-18.4 15.95,-23.7 16.1,-29 13.7,-33.95 12.35,-36.65 11.5,-37.8 11.75,-38.05 12,-38.35 14.75,-41.65 15.3,-47.6 15.8,-53.6 13,-57.2 11.05,-59.65 7.6,-62.35 6.6,-63.15 5.75,-63.65 6.2,-63.85 6.75,-64.15 6.8,-64.2 6.85,-64.25 11.2,-66.95 11.2,-69.4"/><g mask="url(#mask_)"><g id="1" transform="matrix(1 0 0 1 -57.8 -78.6)"><path fill="#FFF" d="M69,9.2Q69,4.9 64.4,2.4 59.95,0 53.1,0 46.25,0 40.7,0.2 35.1,0.4 31.85,2.7 29.65,4.2 29.7,4.9 28.3,3.9 25.4,2.05 24.3,1.3 22.45,0.8 20.55,0.25 18.65,0.15 16.7,0 13.35,1 9.95,1.95 8.55,3.6 5.2,7.5 7.3,10.8 4.75,13.1 3.2,15.2 1.1,17.95 0.75,20.45 0,24.85 0.65,27.8 1.3,30.7 2.3,33.75 3.2,36.65 5.65,40.75 5.7,40.9 5.8,41 6.4,42.05 5.5,43.1 3.7,45.3 3.5,45.55 2.8,46.55 2.3,47.6 0.65,50.75 1.1,56.2 1.5,61.6 4.65,69.8 5.3,71.5 5.8,72.7L3.6,76.8Q0,83.4 0,89.6 0,92.95 0.75,95.1 1.45,97.2 3.6,100.4 5.55,103.4 4.2,103.8 2.8,104.25 1.55,107.85 0.3,111.45 0.35,116.45 0.4,121.45 2.25,123.8 4.1,126.15 3.9,126.6 3.7,127.1 2.7,133.2 1.65,139.25 1.95,142.7 2.25,146.4 3.35,148 7.5,154.2 20.75,159.1 34,164 45.85,162.2 57.7,160.35 65.3,157.9 72.85,155.4 72.95,143.45L72.95,128.85Q74.6,119.65 74.6,119 74.6,111.95 71,108.7 69.15,107 68.55,105.9 67.4,103.85 67.4,100.1 67.4,96.85 70.5,92.4 73.6,87.9 73.65,83.55 73.7,79.2 71.95,76.6 70.15,73.95 68.8,70.2 67.45,66.45 70.55,63.35 73.6,60.2 73.75,54.9 73.9,49.6 71.5,44.65 70.15,41.95 69.3,40.8 69.55,40.55 69.8,40.25 72.55,36.95 73.1,31 73.6,25 70.8,21.4 68.85,18.95 65.4,16.25 64.4,15.45 63.55,14.95 64,14.75 64.55,14.45 64.6,14.4 64.65,14.35 69,11.65 69,9.2"/></g></g><g mask="url(#mask_)"><g><path fill="#000" fill-opacity="0.18" d="M7.35,-30.35Q7.15,-30.3 6.8,-30.3L-0.2,-32.6 3.3,-46.6 3.2,-46.65 3.3,-46.65 3.3,-46.6 3.35,-46.9 3.35,-46.95Q3.6,-50.25 4.6,-55.1L-3.3,-61.3 -21.9,-60.6 -18.8,-60.8 0.7,-69.3 -21.65,-73.4 -26.8,-61 -19.8,-70.75 -7.6,-68.15 -26.6,-60.6 -26.6,-60.4 -27.25,-60.4 -26.95,-60.9 -37.55,-73.45 -42.85,-63.95 -28.1,-60.35 -51,-59.55 -51,-52.1Q-49.55,-52 -48.85,-51.75L-48.9,-51.75 -48.45,-50.55 -45.2,-32.2 -49.85,-32.1 -52.35,-25.75 -49.55,-25.5 -46.3,3.35Q-46.6,3.35 -46.85,3.35 -48,4.1 -51,6 -51.2,6.1 -51.4,6.25L-51.65,6.45 -51.65,9.55 -51.75,9.55 -51.75,15.75 -46.5,15.3Q-45.75,23.25 -47.05,22.35L-45.5,36.7 -48.05,36.8 -48.85,36.7 -48.65,45.7 -48,45.85 -47.55,68.6 -19.65,81.25 10.1,75.7 9.5,46.35 11.65,45.9 11.45,39 2.65,38 4.65,22.65Q4.85,22.35 4.85,22 4.85,21.75 4.75,21.6L5.8,14.15Q5.95,13.9 5.95,13.45 5.95,13.35 5.95,13.2L6.05,11.9 8.75,9.5Q8.2,7.4 7.8,6 7.4,4.65 7.15,3.9L7.3,2.55 7.25,2.65 7.25,2.55 2.1,1.95 5,-23.75 7.15,-24.35Q7.3,-28.35 7.35,-30.35 M-37.7,-70.3L-27.95,-60.35 -28.05,-60.35 -39.75,-66.6 -37.7,-70.3 M-3.45,-51.8L-3.2,-51.8 -3.25,-51.65 -3.55,-50.35 -3.45,-51.8"/><animate attributeName="display" repeatCount="1" dur="1.458s" keyTimes="0;0.514;1" values="none;inline;none"/></g><g style="display:none;"><path fill="#000" fill-opacity="0.18" d="M-26.6,-61.15L-26.8,-61.45 -26.7,-61.25 -26.8,-61 -26.65,-61.2 -26.6,-61.1 -26.6,-61.15"/><path fill="#000" fill-opacity="0.18" d="M-26.25,-61.5L-26.3,-61.35 -26.45,-61.7 -25.4,-74 -2.85,-76.9 -18.5,-63.15 -25.35,-61 -10.4,-73.3 -22.9,-72.05 -26.15,-61.8 -25.95,-62.05 -26.05,-61.7 -26.25,-61.5"/><path fill="#000" fill-opacity="0.18" d="M3.35,-46.9L3.3,-46.6 3.3,-46.65 3.2,-46.65 3.3,-46.6 -0.2,-32.6 6.8,-30.3Q7.15,-30.3 7.35,-30.35 7.3,-28.35 7.15,-24.35L5,-23.75 2.1,1.95 7.25,2.55 7.25,2.65 7.3,2.55 7.15,3.9Q7.4,4.65 7.8,6 8.2,7.4 8.75,9.5L6.05,11.9 5.95,13.2Q5.95,13.35 5.95,13.45 5.95,13.9 5.8,14.15L4.75,21.6Q4.85,21.75 4.85,22 4.85,22.35 4.65,22.65L2.65,38 11.45,39 11.65,45.9 9.5,46.35 10.1,75.7 -19.65,81.25 -47.55,68.6 -48,45.85 -48.65,45.7 -48.85,36.7 -48.05,36.8 -45.5,36.7 -47.05,22.35Q-45.75,23.25 -46.5,15.3L-51.75,15.75 -51.75,9.55 -51.65,9.55 -51.65,6.45 -51.4,6.25Q-51.2,6.1 -51,6 -48,4.1 -46.85,3.35 -46.6,3.35 -46.3,3.35L-49.55,-25.5 -52.35,-25.75 -49.85,-32.1 -45.2,-32.2 -48.45,-50.55 -48.9,-51.75 -48.85,-51.75Q-49.55,-52 -51,-52.1L-51,-59.55 -28.1,-60.35 -28.85,-60.5 -28.75,-60.45Q-29.1,-60.45 -29.4,-60.4L-41.9,-65.85 -35.05,-74.3 -27.7,-61.75 -26.95,-60.9 -27.25,-60.4 -26.6,-60.4 -26.6,-60.6 -26.3,-60.7 -25.7,-59.75 -26.1,-60.85 -25.35,-61 -18.3,-59.45 -18.8,-59.35 -21.85,-59.8 -18.6,-59.15Q-16.6,-59.6 -14.9,-60.75L-2.9,-61 4.6,-55.1Q3.6,-50.25 3.35,-46.95L3.35,-46.9 M-35.75,-71.2L-28.35,-60.55Q-28.25,-60.55 -28.2,-60.6L-27.95,-60.35 -28.05,-60.35 -29.05,-60.85Q-29.15,-60.85 -29.25,-60.8L-38.35,-67.9 -35.75,-71.2 M-3.45,-51.8L-3.2,-51.8 -3.25,-51.65 -3.55,-50.35 -3.45,-51.8"/><animate attributeName="display" repeatCount="1" dur="1.458s" keyTimes="0;0.486;0.514;1" values="none;inline;none;none"/></g><g style="display:none;"><path fill="#000" fill-opacity="0.18" d="M-26.55,-61.3L-26.4,-61.55 -26.4,-61.95 -26.55,-61.6 -25.5,-72.35 -13.6,-76.2 -25.6,-61 -19.35,-64.6 -7,-81.35 -28.4,-73.7 -26.8,-61.45 -26.7,-61.25 -26.8,-61 -26.65,-61.2 -26.6,-61.1 -26.55,-61.3"/><path fill="#000" fill-opacity="0.18" d="M3.35,-46.9L3.3,-46.6 3.3,-46.65 3.2,-46.65 3.3,-46.6 -0.2,-32.6 6.8,-30.3Q7.15,-30.3 7.35,-30.35 7.3,-28.35 7.15,-24.35L5,-23.75 2.1,1.95 7.25,2.55 7.25,2.65 7.3,2.55 7.15,3.9Q7.4,4.65 7.8,6 8.2,7.4 8.75,9.5L6.05,11.9 5.95,13.2Q5.95,13.35 5.95,13.45 5.95,13.9 5.8,14.15L4.75,21.6Q4.85,21.75 4.85,22 4.85,22.35 4.65,22.65L2.65,38 11.45,39 11.65,45.9 9.5,46.35 10.1,75.7 -19.65,81.25 -47.55,68.6 -48,45.85 -48.65,45.7 -48.85,36.7 -48.05,36.8 -45.5,36.7 -47.05,22.35Q-45.75,23.25 -46.5,15.3L-51.75,15.75 -51.75,9.55 -51.65,9.55 -51.65,6.45 -51.4,6.25Q-51.2,6.1 -51,6 -48,4.1 -46.85,3.35 -46.6,3.35 -46.3,3.35L-49.55,-25.5 -52.35,-25.75 -49.85,-32.1 -45.2,-32.2 -48.45,-50.55 -48.9,-51.75 -48.85,-51.75Q-49.55,-52 -51,-52.1L-51,-59.55 -28.1,-60.35 -28.85,-60.5 -28.75,-60.45Q-29.1,-60.45 -29.4,-60.4L-31.3,-61.2Q-30.55,-61.25 -29.8,-61.25L-29.25,-60.8Q-29.15,-60.85 -29.05,-60.85L-28.05,-60.35 -27.95,-60.35 -28.2,-60.6Q-28.25,-60.55 -28.35,-60.55L-28.9,-61.3Q-28.55,-61.35 -28.2,-61.4 -28.55,-61.55 -28.75,-62.05 -29.45,-63.7 -29.9,-65.5L-29.55,-64.9 -32.4,-72.9 -35.75,-70.35 -29.2,-61.75Q-29.95,-61.95 -30.65,-62.1L-39.7,-69.25 -30.95,-75.7 -28.2,-65.85Q-28.25,-64.05 -28,-62.25L-27.7,-61.75 -26.95,-60.9 -27.25,-60.4 -26.6,-60.4 -26.6,-60.6 -26.5,-60.65 -25.6,-61 -18.35,-61 -18.8,-60.8 -21.9,-60.6 -2.9,-61 4.6,-55.1Q3.6,-50.25 3.35,-46.95L3.35,-46.9 M-3.45,-51.8L-3.2,-51.8 -3.25,-51.65 -3.55,-50.35 -3.45,-51.8"/><animate attributeName="display" repeatCount="1" dur="1.458s" keyTimes="0;0.457;0.486;1" values="none;inline;none;none"/></g><g style="display:none;"><path fill="#000" fill-opacity="0.18" d="M6.8,-30.3L5.3,-30.8 -50.35,-30.8 -52.35,-25.75 -49.55,-25.5 -46.3,3.35Q-46.6,3.35 -46.85,3.35 -48,4.1 -51,6 -51.2,6.1 -51.4,6.25L-51.65,6.45 -51.65,9.55 -51.75,9.55 -51.75,15.75 -46.5,15.3Q-45.75,23.25 -47.05,22.35L-45.5,36.7 -48.05,36.8 -48.85,36.7 -48.65,45.7 -48,45.85 -47.55,68.6 -19.65,81.25 10.1,75.7 9.5,46.35 11.65,45.9 11.45,39 2.65,38 4.65,22.65Q4.85,22.35 4.85,22 4.85,21.75 4.75,21.6L5.8,14.15Q5.95,13.9 5.95,13.45 5.95,13.35 5.95,13.2L6.05,11.9 8.75,9.5Q8.2,7.4 7.8,6 7.4,4.65 7.15,3.9L7.3,2.55 7.25,2.65 7.25,2.55 2.1,1.95 5,-23.75 7.15,-24.35Q7.3,-28.35 7.35,-30.35 7.15,-30.3 6.8,-30.3"/><animate attributeName="display" repeatCount="1" dur="1.458s" keyTimes="0;0.371;0.457;1" values="none;inline;none;none"/></g><g style="display:none;"><path fill="#000" fill-opacity="0.18" d="M8.75,9.5Q8.2,7.4 7.8,6L-51,6Q-51.2,6.1 -51.4,6.25L-51.65,6.45 -51.65,9.55 -51.75,9.55 -51.75,15.75 -46.5,15.3Q-45.75,23.25 -47.05,22.35L-45.5,36.7 -48.05,36.8 -48.85,36.7 -48.65,45.7 -48,45.85 -47.55,68.6 -19.65,81.25 10.1,75.7 9.5,46.35 11.65,45.9 11.45,39 2.65,38 4.65,22.65Q4.85,22.35 4.85,22 4.85,21.75 4.75,21.6L5.8,14.15Q5.95,13.9 5.95,13.45 5.95,13.35 5.95,13.2L6.05,11.9 8.75,9.5"/><animate attributeName="display" repeatCount="1" dur="1.458s" keyTimes="0;0.286;0.371;1" values="none;inline;none;none"/></g><g style="display:none;"><path fill="#000" fill-opacity="0.18" d="M10.1,76.45L9.5,48.35 -48.75,48.35 -48.65,52.85 -48,52.95 -47.55,70.85 -19.65,80.8 10.1,76.45"/><animate attributeName="display" repeatCount="1" dur="1.458s" keyTimes="0;0.171;0.286;1" values="none;inline;none;none"/></g><g style="display:none;"><g id="10" transform="matrix(0.961 0 0 0.961 -47.3 48.95)"><animateTransform attributeName="transform" additive="replace" type="translate" dur="1.458s" keyTimes="0;0.029;0.143;1" values="-18.553,64.554;-18.553,64.554;-18.526,64.466;-18.526,64.466"/><animateTransform attributeName="transform" additive="sum" type="scale" dur="1.458s" keyTimes="0;0.029;0.143;1" values="0.095,0.095;0.095,0.095;0.961,0.961;0.961,0.961"/><animateTransform attributeName="transform" additive="sum" type="translate" dur="1.458s" keyTimes="0;0.029;0.143;1" values="-29.95,-16.35;-29.95,-16.35;-29.95,-16.15;-29.95,-16.15"/><path fill="#000" fill-opacity="0.18" d="M35.25,3.55L5.5,12.3 29.8,24.1 56.5,14.5 35.25,3.55"/></g><animate attributeName="display" repeatCount="1" dur="1.458s" keyTimes="0;0.029;0.171;1" values="none;inline;none;none"/></g></g><g mask="url(#mask_)"><g id="7" transform="matrix(1 0 0 1 -48.85 35.1)"><animateTransform attributeName="transform" additive="replace" type="translate" dur="1.458s" keyTimes="0;0.086;0.171;0.229;0.286;1" values="-20.2,-102.9;-20.2,-102.9;-20.2,57.1;-20.216,60.199;-20.2,57.1;-20.2,57.1"/><animateTransform attributeName="transform" additive="sum" type="scale" dur="1.458s" keyTimes="0;0.171;0.229;0.286;1" values="1,1;1,1;1.081,0.868;1,1;1,1"/><animateTransform attributeName="transform" additive="sum" type="translate" dur="1.458s" keyTimes="0;0.171;0.229;0.286;1" values="-28.65,-22;-28.65,-22;-28.65,-21.95;-28.65,-22;-28.65,-22"/><path fill="#4E2931" d="M31.1,0Q31.45,5.6 31.6,10.25L56.75,6.25 31.1,0"/><path fill="#32191C" d="M27.4,10.85L31.6,10.25Q31.45,5.6 31.1,0L0,2.55 0.6,2.55 27.4,10.85"/><path fill="#4E2931" d="M28.4,44.05L27.65,10.9 27.45,10.85 0.65,2.55 1.2,31.4 28.4,44.05"/><path fill="#64353F" d="M57.35,38.5L56.75,6.2 27.45,10.85 27.65,10.9 28.4,44.05 57.35,38.5"/><path fill="#7B5740" d="M54.65,11.9Q54.3,11.55 53.9,11.55 53.45,11.6 53.2,11.95 52.9,12.2 52.9,12.65 52.9,13.15 53.2,13.45 53.45,13.75 53.9,13.7 54.3,13.7 54.65,13.4 54.9,13.1 54.9,12.65 54.9,12.2 54.65,11.9"/><path fill="#7B5740" d="M47.65,13.3Q47.3,12.95 46.9,12.95 46.45,13 46.2,13.35 45.85,13.65 45.85,14.1 45.85,14.55 46.2,14.85 46.45,15.15 46.9,15.1 47.3,15.1 47.65,14.8 47.9,14.5 47.9,14.05 47.9,13.6 47.65,13.3"/><path fill="#7B5740" d="M41,22.75Q41.4,22.75 41.75,22.45 42,22.2 42,21.7 42,21.25 41.75,20.95 41.4,20.65 41,20.65 40.55,20.7 40.3,21 39.95,21.35 39.95,21.75 39.95,22.25 40.3,22.5 40.55,22.8 41,22.75"/><path fill="#7B5740" d="M48.95,20.75Q48.65,21.05 48.65,21.5 48.65,21.95 48.95,22.25 49.25,22.55 49.65,22.5 50.1,22.5 50.4,22.2 50.7,21.9 50.7,21.45 50.7,21 50.4,20.7 50.1,20.35 49.65,20.35 49.25,20.4 48.95,20.75"/><path fill="#7B5740" d="M54.45,20.6Q54.1,20.95 54.1,21.35 54.1,21.85 54.45,22.1 54.7,22.45 55.1,22.4 55.55,22.4 55.85,22.05 56.15,21.8 56.15,21.3 56.15,20.9 55.85,20.55 55.55,20.25 55.1,20.25 54.7,20.3 54.45,20.6"/><path fill="#7B5740" d="M52.95,27.65Q52.6,27.95 52.6,28.4 52.6,28.85 52.95,29.15 53.2,29.5 53.6,29.45 54.05,29.45 54.35,29.15 54.65,28.85 54.65,28.4 54.65,27.95 54.35,27.65 54.05,27.3 53.6,27.3 53.2,27.35 52.95,27.65"/><path fill="#7B5740" d="M52.9,34.4Q52.55,34.7 52.55,35.15 52.55,35.6 52.9,35.9 53.15,36.25 53.55,36.2 54,36.2 54.3,35.9 54.6,35.6 54.6,35.15 54.6,34.7 54.3,34.4 54,34.05 53.55,34.05 53.15,34.1 52.9,34.4"/><path fill="#7B5740" d="M44.25,25.95Q43.8,26 43.55,26.3 43.25,26.65 43.25,27.05 43.25,27.55 43.55,27.8 43.8,28.15 44.25,28.05 44.7,28.05 45,27.75 45.25,27.55 45.25,27.05 45.25,26.6 45,26.25 44.7,25.95 44.25,25.95"/><path fill="#7B5740" d="M43.35,36.1Q43,36.45 43,36.85 43,37.35 43.35,37.6 43.6,37.95 44.05,37.85 44.45,37.85 44.8,37.55 45.05,37.3 45.05,36.8 45.05,36.35 44.8,36.05 44.45,35.75 44.05,35.75 43.6,35.8 43.35,36.1"/><path fill="#7B5740" d="M46.95,31Q46.6,31.35 46.6,31.75 46.6,32.25 46.95,32.5 47.2,32.85 47.65,32.8 48.05,32.8 48.4,32.45 48.65,32.2 48.65,31.7 48.65,31.3 48.4,30.95 48.05,30.65 47.65,30.65 47.2,30.7 46.95,31"/><path fill="#7B5740" d="M40.3,11.9Q39.95,11.6 39.55,11.6 39.1,11.65 38.85,11.95 38.5,12.25 38.5,12.7 38.5,13.2 38.85,13.45 39.1,13.75 39.55,13.7 39.95,13.7 40.3,13.4 40.55,13.15 40.55,12.65 40.55,12.2 40.3,11.9"/><path fill="#7B5740" d="M29.9,15.05Q29.9,15.55 30.2,15.8 30.5,16.15 30.9,16.1 31.35,16.1 31.65,15.75 31.95,15.5 31.95,15 31.95,14.6 31.65,14.25 31.35,13.95 30.9,13.95 30.5,14 30.2,14.3 29.9,14.65 29.9,15.05"/><path fill="#7B5740" fill-opacity="0.78" d="M23.25,14.05Q23,14.35 22.55,14.35 22.2,14.35 21.8,14.1 21.5,13.85 21.5,13.35 21.5,12.9 21.8,12.6 22.15,12.25 22.5,12.25 22.95,12.25 23.25,12.55 23.55,12.85 23.55,13.3 23.55,13.8 23.25,14.05"/><path fill="#7B5740" fill-opacity="0.78" d="M23.8,22.55Q24.1,22.2 24.5,22.2 24.9,22.2 25.25,22.5 25.5,22.85 25.5,23.25 25.5,23.75 25.25,24 24.95,24.35 24.55,24.35 24.15,24.35 23.8,24.05 23.45,23.8 23.45,23.3 23.45,22.9 23.8,22.55"/><path fill="#7B5740" d="M37.1,18.45Q37.1,18 36.8,17.65 36.5,17.3 36.05,17.3 35.65,17.35 35.35,17.7 35.05,18 35.05,18.45 35.05,18.9 35.35,19.2 35.65,19.5 36.05,19.45 36.5,19.45 36.8,19.15 37.1,18.9 37.1,18.45"/><path fill="#7B5740" d="M33.85,24.45Q33.55,24.1 33.1,24.1 32.7,24.15 32.4,24.5 32.1,24.8 32.1,25.25 32.1,25.7 32.4,26 32.7,26.3 33.1,26.25 33.55,26.25 33.85,25.95 34.15,25.65 34.15,25.2 34.15,24.75 33.85,24.45"/><path fill="#7B5740" fill-opacity="0.78" d="M12.05,8.85Q12.5,8.85 12.8,9.2 13.1,9.5 13.1,9.95 13.1,10.4 12.8,10.7 12.55,11 12.1,11 11.75,11 11.35,10.75 11.05,10.45 11.05,10 11.05,9.55 11.35,9.25 11.7,8.85 12.05,8.85"/><path fill="#7B5740" fill-opacity="0.78" d="M3.2,5.95Q3.5,5.6 3.85,5.6 4.3,5.6 4.6,5.9 4.9,6.25 4.9,6.65 4.9,7.15 4.6,7.4 4.35,7.75 3.95,7.75 3.55,7.75 3.2,7.45 2.85,7.2 2.85,6.7 2.85,6.3 3.2,5.95"/><path fill="#7B5740" fill-opacity="0.78" d="M5.9,14.3Q5.65,14.65 5.2,14.65 4.85,14.6 4.45,14.35 4.15,14.05 4.15,13.6 4.15,13.15 4.45,12.85 4.8,12.45 5.15,12.5 5.6,12.5 5.9,12.8 6.2,13.15 6.2,13.55 6.2,14.05 5.9,14.3"/><path fill="#7B5740" fill-opacity="0.78" d="M8.85,22.95Q9.15,22.55 9.55,22.55 10,22.55 10.3,22.9 10.55,23.2 10.55,23.65 10.55,24.1 10.3,24.4 10.05,24.7 9.6,24.7 9.25,24.7 8.85,24.45 8.55,24.2 8.55,23.7 8.55,23.25 8.85,22.95"/><path fill="#7B5740" fill-opacity="0.78" d="M15,19Q15.35,18.6 15.7,18.6 16.15,18.6 16.45,18.95 16.75,19.25 16.75,19.7 16.75,20.15 16.45,20.45 16.2,20.75 15.75,20.75 15.4,20.75 15,20.5 14.7,20.2 14.7,19.75 14.7,19.3 15,19"/><path fill="#7B5740" fill-opacity="0.78" d="M17.4,29.55Q17.75,29.15 18.1,29.15 18.55,29.15 18.85,29.5 19.15,29.8 19.15,30.25 19.15,30.7 18.85,31 18.6,31.3 18.15,31.3 17.8,31.3 17.4,31.05 17.1,30.75 17.1,30.3 17.1,29.85 17.4,29.55"/><path fill="#7B5740" fill-opacity="0.78" d="M10.65,33.25Q10.3,33.25 9.9,32.95 9.6,32.7 9.6,32.2 9.6,31.8 9.9,31.45 10.25,31.1 10.6,31.1 11.05,31.1 11.35,31.4 11.65,31.75 11.65,32.15 11.65,32.65 11.35,32.9 11.1,33.25 10.65,33.25"/><path fill="#7B5740" fill-opacity="0.78" d="M5.8,28.9Q5.8,29.35 5.55,29.65 5.25,29.95 4.85,29.9 4.45,29.9 4.1,29.65 3.75,29.4 3.75,28.9 3.75,28.45 4.1,28.15 4.4,27.75 4.8,27.75 5.2,27.8 5.55,28.15 5.8,28.45 5.8,28.9"/><path fill="#7B5740" d="M38.6,30.85Q38.25,30.55 37.85,30.55 37.4,30.6 37.15,30.9 36.8,31.2 36.8,31.6 36.8,32.1 37.15,32.4 37.4,32.75 37.85,32.7 38.25,32.7 38.6,32.35 38.85,32.1 38.85,31.6 38.85,31.2 38.6,30.85"/><path fill="#7B5740" d="M30.55,32.8Q30.8,32.5 30.8,32.05 30.8,31.6 30.55,31.3 30.2,30.95 29.8,30.95 29.35,31 29.1,31.35 28.8,31.6 28.8,32.05 28.8,32.55 29.1,32.85 29.35,33.15 29.8,33.1 30.2,33.1 30.55,32.8"/><path fill="#7B5740" fill-opacity="0.78" d="M22.6,37.2Q22.95,36.8 23.3,36.8 23.75,36.8 24.05,37.15 24.35,37.45 24.35,37.9 24.35,38.35 24.05,38.65 23.8,38.95 23.35,38.95 23,38.95 22.6,38.7 22.3,38.4 22.3,37.95 22.3,37.5 22.6,37.2"/><path fill="#7B5740" d="M32.75,38.9Q32.4,39.2 32.4,39.65 32.4,40.15 32.75,40.4 33,40.7 33.45,40.65 33.85,40.65 34.2,40.35 34.45,40.05 34.45,39.6 34.45,39.15 34.2,38.85 33.85,38.5 33.45,38.5 33,38.55 32.75,38.9"/></g></g><g mask="url(#mask_)"><g id="6" transform="matrix(1 0 0 1 -49.05 33.3)"><animateTransform attributeName="transform" additive="replace" type="translate" dur="1.458s" keyTimes="0;0.086;0.171;0.229;0.286;1" values="-19.6,-118.65;-19.6,-118.65;-19.6,-50.25;-19.6,46.886;-19.6,41.35;-19.6,41.35"/><animateTransform attributeName="transform" additive="sum" type="scale" dur="1.458s" keyTimes="0;0.171;0.229;0.286;1" values="1,1;1,1;1.081,0.868;1,1;1,1"/><animateTransform attributeName="transform" additive="sum" type="translate" dur="1.458s" keyTimes="0;1" values="-29.45,-8.05;-29.45,-8.05"/><path fill="#997055" d="M0.15,10.25L26.65,16.1 26.5,7.5 0.85,1.4 0,1.2 0.15,10.25"/><path fill="#AB8869" d="M27.15,0L0.85,1.4 26.5,7.5 58.8,3.55 27.15,0"/><path fill="#836049" d="M58.95,10.5L58.8,3.55 26.5,7.5 26.65,16.1 58.95,10.5"/></g></g><g mask="url(#mask_)"><g id="5" transform="matrix(1 0 0 1 -48.95 -6.55)"><animateTransform attributeName="transform" additive="replace" type="translate" dur="1.458s" keyTimes="0;0.2;0.286;0.314;0.315;0.372;1" values="-21.55,-143.1;-21.55,-143.1;-21.55,16.9;-21.55,16.9;-21.497,19.301;-21.55,16.9;-21.55,16.9"/><animateTransform attributeName="transform" additive="sum" type="scale" dur="1.458s" keyTimes="0;0.314;0.315;0.372;1" values="1,1;1,1;1.068,0.889;1,1;1,1"/><animateTransform attributeName="transform" additive="sum" type="translate" dur="1.458s" keyTimes="0;0.314;0.315;0.372;1" values="-27.4,-23.45;-27.4,-23.45;-27.35,-23.45;-27.4,-23.45;-27.4,-23.45"/><path fill="#44C4B7" d="M1.9,23.9L2.4,22.6 9.9,15.65 9.9,7.95 0.85,12.65 1.9,23.9"/><path fill="#48D1C3" d="M49.65,24.95L54.1,7.95 9.9,7.95 9.9,15.65 2.4,22.6 2.7,24.5 49.65,24.95"/><path fill="#75D4D0" d="M43.15,46.95L48,12.65 0.85,12.65 3.7,43.6 43.15,46.95"/><path fill="#44C4B7" d="M43.15,46.95L50.05,41.85 54.1,7.95 48,12.65 43.15,46.95"/><path fill="#7B5740" fill-opacity="0.78" d="M45.35,18.8Q45,18.7 44.75,19.05 44.45,19.35 44.45,19.9 44.45,20.4 44.75,20.8 45,21.15 45.35,21.25 45.8,21.25 46.05,20.95 46.35,20.6 46.35,20.1 46.35,19.55 46.05,19.2 45.8,18.8 45.35,18.8"/><path fill="#7B5740" d="M50.25,23.5Q49.95,23.8 49.95,24.35 49.95,24.8 50.25,25.15 50.5,25.45 50.9,25.5 51.25,25.55 51.45,25.25 51.75,25 51.75,24.5 51.75,23.95 51.45,23.6 51.25,23.25 50.9,23.2 50.5,23.15 50.25,23.5"/><path fill="#7B5740" d="M51.25,14.95Q51,15.3 51,15.85 51,16.3 51.25,16.65 51.55,16.95 51.9,17 52.3,17.05 52.5,16.8 52.75,16.5 52.75,16.05 52.75,15.5 52.5,15.15 52.3,14.75 51.9,14.7 51.55,14.65 51.25,14.95"/><path fill="#7B5740" d="M48.3,29.75Q48.05,30.05 48.05,30.6 48.05,31.1 48.3,31.4 48.6,31.75 48.95,31.8 49.35,31.85 49.55,31.5 49.8,31.25 49.8,30.75 49.8,30.25 49.55,29.85 49.35,29.55 48.95,29.5 48.6,29.45 48.3,29.75"/><path fill="#7B5740" fill-opacity="0.78" d="M41.35,40.5Q41.65,40.2 42,40.25 42.45,40.25 42.7,40.6 43,41 43,41.55 43,42 42.7,42.4 42.45,42.65 42,42.65 41.65,42.6 41.35,42.3 41.1,41.85 41.1,41.35 41.1,40.85 41.35,40.5"/><path fill="#7B5740" fill-opacity="0.78" d="M26.9,15.55Q27.3,15.55 27.6,15.95 27.85,16.3 27.85,16.85 27.85,17.35 27.6,17.7 27.3,18 26.9,18 26.5,17.9 26.25,17.6 26,17.15 26,16.7 26,16.15 26.25,15.85 26.5,15.5 26.9,15.55"/><path fill="#7B5740" fill-opacity="0.78" d="M20.65,22.2Q20.25,22.15 20,21.85 19.7,21.4 19.7,20.95 19.7,20.4 20,20.05 20.25,19.75 20.65,19.8 21.05,19.8 21.3,20.25 21.6,20.6 21.6,21.15 21.6,21.6 21.3,22 21.05,22.2 20.65,22.2"/><path fill="#7B5740" fill-opacity="0.78" d="M35.25,20.6Q35.5,20.3 35.9,20.35 36.3,20.35 36.6,20.7 36.85,21.1 36.85,21.6 36.85,22.1 36.6,22.45 36.3,22.75 35.9,22.75 35.5,22.7 35.25,22.35 35,21.95 35,21.45 35,20.9 35.25,20.6"/><path fill="#7B5740" fill-opacity="0.78" d="M3.15,13.5Q3.45,13.15 3.8,13.2 4.25,13.2 4.5,13.6 4.8,13.95 4.8,14.5 4.8,15 4.5,15.35 4.25,15.65 3.8,15.65 3.45,15.6 3.15,15.25 2.9,14.85 2.9,14.35 2.9,13.8 3.15,13.5"/><path fill="#7B5740" fill-opacity="0.78" d="M4.9,18.25Q5.3,18.3 5.6,18.7 5.85,19.05 5.85,19.6 5.85,20.05 5.6,20.45 5.3,20.7 4.9,20.65 4.5,20.6 4.25,20.3 3.95,19.85 3.95,19.4 3.95,18.85 4.25,18.5 4.5,18.2 4.9,18.25"/><path fill="#7B5740" fill-opacity="0.78" d="M10.45,15.05Q10.7,14.7 11.1,14.75 11.5,14.75 11.8,15.15 12.05,15.5 12.05,16.05 12.05,16.55 11.8,16.9 11.5,17.2 11.1,17.2 10.7,17.15 10.45,16.8 10.2,16.4 10.2,15.9 10.2,15.35 10.45,15.05"/><path fill="#7B5740" fill-opacity="0.78" d="M14.2,26.3Q14.65,26.3 14.9,26.65 15.15,27.05 15.15,27.55 15.15,28.05 14.9,28.4 14.65,28.7 14.2,28.7 13.85,28.65 13.55,28.3 13.3,27.9 13.3,27.4 13.3,26.85 13.55,26.55 13.85,26.25 14.2,26.3"/><path fill="#7B5740" fill-opacity="0.78" d="M8.65,30.1Q9.05,30.1 9.35,30.45 9.6,30.85 9.6,31.35 9.6,31.85 9.35,32.25 9.05,32.5 8.65,32.5 8.25,32.45 8,32.1 7.7,31.7 7.7,31.2 7.7,30.7 8,30.35 8.25,30.05 8.65,30.1"/><path fill="#7B5740" fill-opacity="0.78" d="M3.6,35.7Q3.85,35.4 4.25,35.45 4.65,35.45 4.95,35.8 5.2,36.25 5.2,36.8 5.2,37.25 4.95,37.6 4.65,37.85 4.25,37.85 3.85,37.8 3.6,37.5 3.35,37.05 3.35,36.55 3.35,36.05 3.6,35.7"/><path fill="#7B5740" fill-opacity="0.78" d="M8.85,40.2Q9.1,39.9 9.5,39.95 9.9,39.95 10.2,40.3 10.45,40.7 10.45,41.25 10.45,41.7 10.2,42.1 9.9,42.35 9.5,42.35 9.1,42.3 8.85,42 8.6,41.55 8.6,41.05 8.6,40.55 8.85,40.2"/><path fill="#7B5740" fill-opacity="0.78" d="M15.65,38.95Q15.9,38.65 16.3,38.7 16.7,38.7 17,39.1 17.25,39.45 17.25,40 17.25,40.45 17,40.85 16.7,41.1 16.3,41.1 15.9,41.05 15.65,40.75 15.4,40.3 15.4,39.85 15.4,39.3 15.65,38.95"/><path fill="#7B5740" fill-opacity="0.78" d="M37.5,31.95Q37.95,31.95 38.2,32.3 38.45,32.7 38.45,33.25 38.45,33.7 38.2,34.1 37.95,34.35 37.5,34.35 37.1,34.25 36.85,33.95 36.6,33.5 36.6,33 36.6,32.5 36.85,32.15 37.1,31.85 37.5,31.95"/><path fill="#7B5740" fill-opacity="0.78" d="M29.35,26.75Q29.8,26.75 30.05,27.15 30.3,27.5 30.3,28.05 30.3,28.5 30.05,28.9 29.8,29.15 29.35,29.15 29,29.05 28.7,28.75 28.45,28.3 28.45,27.85 28.45,27.3 28.7,27 29,26.65 29.35,26.75"/><path fill="#7B5740" fill-opacity="0.78" d="M21.65,31.7Q21.9,31.35 22.3,31.4 22.7,31.4 23,31.8 23.25,32.15 23.25,32.7 23.25,33.2 23,33.55 22.7,33.85 22.3,33.85 21.9,33.8 21.65,33.45 21.4,33.05 21.4,32.55 21.4,32 21.65,31.7"/><path fill="#7B5740" fill-opacity="0.78" d="M30.85,39.5Q31.1,39.2 31.5,39.25 31.95,39.25 32.2,39.6 32.45,40 32.45,40.5 32.45,41 32.2,41.4 31.95,41.65 31.5,41.65 31.1,41.6 30.85,41.25 30.6,40.85 30.6,40.35 30.6,39.8 30.85,39.5"/></g></g><g mask="url(#mask_)"><g id="4" transform="matrix(1 0 0 1 -51.85 -3.7)"><animateTransform attributeName="transform" additive="replace" type="translate" dur="1.458s" keyTimes="0;0.2;0.286;0.314;0.372;0.399;0.4;1" values="-22.35,-154.5;-22.35,-154.5;-22.35,-16.9;-22.351,9.575;-22.35,5.9;-22.35,5.9;-22.35,5.5;-22.35,5.5"/><animateTransform attributeName="transform" additive="sum" type="scale" dur="1.458s" keyTimes="0;0.286;0.314;0.372;1" values="1,1;1,1;1.068,0.889;1,1;1,1"/><animateTransform attributeName="transform" additive="sum" type="translate" dur="1.458s" keyTimes="0;0.286;0.314;0.372;1" values="-29.5,-9.2;-29.5,-9.2;-29.5,-9.25;-29.5,-9.2;-29.5,-9.2"/><path fill="#997055" d="M50.95,18.45L47.75,10.25 0.05,8.4 0.05,11.2 0,11.2 0,17.4 50.95,18.45"/><path fill="#AB8869" d="M47.75,10.25L57.7,4.05 14.6,4.6Q7.7,5 4.8,5.05 3.65,5.85 0.4,8L0.05,8.1 0.05,8.4 47.75,10.25"/><path fill="#836049" d="M59,11.15L57.7,4.05 47.75,10.25 50.95,18.45 59,11.15"/></g></g><g mask="url(#mask_)"><g id="8" transform="matrix(1 0 0 1 -27.4 -75.45)"><animateTransform attributeName="transform" additive="replace" type="translate" dur="1.458s" keyTimes="0;0.457;0.514;0.572;0.629;1" values="-27.417,-58.597;-27.417,-58.597;-27.409,-63.332;-27.411,-62.504;-27.4,-62.5;-27.4,-62.5"/><animateTransform attributeName="transform" additive="sum" type="rotate" dur="1.458s" keyTimes="0;0.457;0.514;0.572;0.629;1" values="-36.72,0,0;-36.72,0,0;6.439,0,0;-1.226,0,0;0,0,0;0,0,0"/><animateTransform attributeName="transform" additive="sum" type="skewY" dur="1.458s" keyTimes="0;0.457;0.514;1" values="-2.611;-2.611;0;0"/><animateTransform attributeName="transform" additive="sum" type="scale" dur="1.458s" keyTimes="0;0.457;0.514;1" values="1.031,1;1.031,1;1,1;1,1"/><animateTransform attributeName="transform" additive="sum" type="scale" dur="1.458s" keyTimes="0;0.457;0.514;1" values="0.999,1;0.999,1;1,1;1,1"/><animateTransform attributeName="transform" additive="sum" type="translate" dur="1.458s" keyTimes="0;0.457;0.514;0.572;0.629;1" values="0.05,-13;0.05,-13;0,-12.85;-0.05,-12.95;0,-12.95;0,-12.95"/><path fill="#884D59" d="M0.2,12.95L7.25,12.8 28.7,4.45 5.05,0 0,12.35 6.85,2.6 20.45,5.4 0.2,12.8 0.2,12.95"/></g><animate attributeName="display" repeatCount="1" dur="1.458s" keyTimes="0;0.457;1" values="none;inline;none"/></g><g mask="url(#mask_)"><g id="9" transform="matrix(1 0 0 1 -43 -75.5)"><animateTransform attributeName="transform" additive="replace" type="translate" dur="1.458s" keyTimes="0;0.457;0.514;0.572;0.629;1" values="-28.441,-59.034;-28.441,-59.034;-28.413,-63.444;-28.48,-62.627;-28.4,-62.65;-28.4,-62.65"/><animateTransform attributeName="transform" additive="sum" type="rotate" dur="1.458s" keyTimes="0;0.457;0.514;0.572;0.629;1" values="51.987,0,0;51.987,0,0;-11.693,0,0;2.493,0,0;0,0,0;0,0,0"/><animateTransform attributeName="transform" additive="sum" type="skewX" dur="1.458s" keyTimes="0;0.457;0.514;1" values="-0.001;-0.001;0;0"/><animateTransform attributeName="transform" additive="sum" type="scale" dur="1.458s" keyTimes="0;0.457;0.514;0.572;1" values="1.099,0.998;1.099,0.998;0.999,0.999;1,1;1,1"/><animateTransform attributeName="transform" additive="sum" type="translate" dur="1.458s" keyTimes="0;0.457;0.514;0.572;0.629;1" values="-14.45,-12.7;-14.45,-12.7;-14.6,-12.95;-14.5,-12.8;-14.6,-12.85;-14.6,-12.85"/><path fill="#884D59" d="M3.05,6.85L5.05,3.1 14.5,13.05 15.1,13.05 15.15,13 15.5,12.5 5.2,0 0,9.45 14.35,13.05 14.4,13.05 3.05,6.85"/></g><animate attributeName="display" repeatCount="1" dur="1.458s" keyTimes="0;0.457;1" values="none;inline;none"/></g><g mask="url(#mask_)"><g id="2" transform="matrix(1 0 0 1 -51.05 -75.5)"><animateTransform attributeName="transform" additive="replace" type="translate" dur="1.458s" keyTimes="0;0.372;0.429;0.457;0.514;0.572;1" values="-23.95,-214.1;-23.95,-214.1;-23.983,-85.55;-23.95,-51.3;-23.95,-54.9;-23.95,-54.1;-23.95,-54.1"/><animateTransform attributeName="transform" additive="sum" type="scale" dur="1.458s" keyTimes="0;0.372;0.429;0.457;0.514;0.572;1" values="1,1;1,1;1.025,0.981;1.037,0.972;0.993,1.014;1,1;1,1"/><animateTransform attributeName="transform" additive="sum" type="translate" dur="1.458s" keyTimes="0;1" values="-27.1,-21.4;-27.1,-21.4"/><path fill="#E3B5BF" d="M20.85,42L22.85,22.25 20,22.35 17.75,41.95 20.85,42"/><path fill="#E2949C" d="M11.15,22.6L2.5,22.85 5.8,41.55 9.7,41.7 11.15,22.6"/><path fill="#E3B5BF" d="M13.95,22.55L11.15,22.6 9.7,41.7 12.05,41.75 13.95,22.55"/><path fill="#E2949C" d="M20,22.35L13.95,22.55 12.05,41.75 17.75,41.95 20,22.35"/><path fill="#E3B5BF" d="M32.9,22.05L30.1,22.1 28,42.3 30.9,42.4 32.9,22.05"/><path fill="#E2949C" d="M40.1,21.75L32.9,22.05 30.9,42.4 38.1,42.65 40.1,21.75"/><path fill="#E2949C" d="M30.1,22.1L22.85,22.25 20.85,42 28,42.3 30.1,22.1"/><path fill="#E3B5BF" d="M40.95,42.7L42.9,21.7 40.1,21.75 38.1,42.65 38.1,42.8 40.95,42.7"/><path fill="#B96868" d="M42.65,42.6L49.4,41.45 52.95,26.8 52.9,26.75 46.4,21.65 42.65,42.6"/><path fill="#B96868" d="M46.4,19.95L46.5,12.1 31.15,12.725 30.85,12.85 23.15,13 23.1,13.05 0,13.85 0,21.35Q1.45,21.4 2.1,21.65L46.4,19.95"/><path fill="#884D59" d="M46.5,12.1L46.4,19.95 52.95,26.45Q53.2,23.15 54.2,18.35L46.5,12.1"/><path fill="#E2949C" d="M46.4,21.65L42.9,21.7 40.95,42.7 42.65,42.6 46.4,21.65"/><path fill="#6D3D47" d="M46.4,19.95L46.4,21.65 52.9,26.75 52.95,26.75 52.95,26.45 46.4,19.95"/><path fill="#884D59" d="M46.4,21.65L46.4,19.95 2.1,21.65 2.05,21.65 2.5,22.85 11.15,22.6 13.95,22.55 20,22.35 22.85,22.25 30.1,22.1 32.9,22.05 40.1,21.75 42.9,21.7 46.4,21.65"/></g></g><g mask="url(#mask_)"><g id="box_green" transform="matrix(0.567 0.051 0 0.651 -47.5 -40)"><animateTransform attributeName="transform" additive="replace" type="translate" dur="1.458s" keyTimes="0;0.286;0.372;0.399;0.4;0.457;1" values="-47.5,-200;-47.5,-200;-47.5,-40;-47.5,-40;-48.55,-36.5;-47.5,-40;-47.5,-40"/><animateTransform attributeName="transform" additive="sum" type="skewY" dur="1.458s" keyTimes="0;0.399;0.4;0.457;1" values="5.139;5.139;4.597;5.139;5.139"/><animateTransform attributeName="transform" additive="sum" type="scale" dur="1.458s" keyTimes="0;0.399;0.4;0.457;1" values="0.569,0.651;0.569,0.651;0.592,0.606;0.569,0.651;0.569,0.651"/><animateTransform attributeName="transform" additive="sum" type="scale" dur="1.458s" keyTimes="0;0.372;0.4;0.457;0.458;1" values="0.996,1;0.996,1;0.997,1;0.997,1;0.996,1;0.996,1"/><path fill="#D7DF86" d="M2.05,66.15L74.75,62.75 80.45,2.55 -4.45,14.05 2.05,66.15"/><path fill="#C2CF49" d="M84.65,58.15L91.175,6.475Q83.296,4.861 78.2,3.65L74.75,62.75 84.65,58.15"/><path fill="#FFF" d="M55,36.25Q53.6,35.9 50.9,37.1 48,38.4 47.5,40.25 46.55,43.75 48.75,45.9 49.95,47.1 51.7,47.55 52.75,47.85 54.25,47.25 56.35,46.5 56.9,44.3 57.55,41.95 56.05,40.55 55.3,39.9 54.15,39.6 51.9,38.95 51.45,40.7 51,42.4 51.55,43 51.6,43.1 52.45,43.3 52.9,43.55 53.15,43.5 53.7,43.5 53.95,42.6 54,42.35 53.95,42.25L53.85,42.1Q53.25,41.95 53.05,42.25 52.85,42.55 52.25,42.4L52.45,40.95Q52.65,40.3 53.1,40.25 53.3,40.25 53.85,40.4 54.65,40.5 55.25,41.05 56.5,42.1 56,44 55.65,45.3 54.3,46.15 53,47 51.85,46.65 51.7,46.65 49.5,45.4 47.55,43.65 48.35,40.7 48.75,39.1 51.35,37.9 53.75,36.8 54.85,37.1 55.3,37.2 56.85,38.05 58.45,38.85 58.65,39.1 59.8,40.35 60.2,41.8 60.5,42.6 60.9,44.3 61.65,43.95 61.8,43.5 62.7,40.15 58.95,37.85 57.1,36.75 55,36.25"/><path fill="#FFF" d="M18.9,22.25Q18.25,21.6 17.6,21.6 13.1,21.6 11.5,25.75 10.7,27.85 10.8,30 10.8,31.45 13.25,33.75 15.9,36.25 18.35,36.25 23.1,36.25 25.05,33.55 26.1,32.1 26.1,30.3 26.1,29.2 24.9,27.9 23.2,26.1 20.25,26.1 17.1,26.1 15.9,27.9 15.3,28.8 15.3,29.95 15.3,32.3 17.65,32.3 19.95,32.3 20.45,31.6 20.5,31.5 20.5,30.65 20.65,30.15 20.5,29.9 20.3,29.4 19.1,29.4 18.8,29.4 18.7,29.5L18.55,29.6Q18.55,30.25 19,30.35 19.45,30.5 19.45,31.1L17.55,31.25Q16.7,31.25 16.5,30.8 16.4,30.65 16.4,30.05 16.3,29.25 16.75,28.5 17.6,27.05 20.2,27.05 21.95,27.05 23.5,28.15 25,29.2 25,30.4 25,30.55 24.2,32.95 22.65,35.3 18.65,35.3 16.5,35.3 14.1,33.1 11.9,31.1 11.9,29.95 11.9,29.5 12.4,27.8 12.9,26.05 13.15,25.75 14.35,24.35 16,23.55 16.95,23.1 18.9,22.25"/><path fill="#FFF" d="M24.15,58.05Q23.8,57.7 23.55,57.65 23,57.55 22.5,58.35 22.4,58.55 22.4,58.65L22.5,58.85Q23.05,59.15 23.3,58.9 23.6,58.7 24.1,58.95L23.55,60.3Q23.2,60.9 22.75,60.85 22.55,60.8 22.05,60.5 21.3,60.2 20.85,59.55 19.95,58.15 20.95,56.5 21.6,55.25 23.15,54.8 24.6,54.35 25.6,54.95 25.75,55 27.55,56.75 29,58.95 27.45,61.6 26.65,63.05 23.85,63.55 21.2,64 20.25,63.45 19.8,63.2 18.55,61.95 17.25,60.8 17.1,60.5 16.3,59 16.3,57.5 16.2,56.65 16.25,54.9 15.45,55.05 15.2,55.45 13.45,58.45 16.5,61.6 18,63.2 19.85,64.2 21.15,64.9 24.05,64.45 27.2,63.95 28.15,62.3 29.95,59.15 28.4,56.5 27.6,55.05 26,54.15 25.05,53.55 23.45,53.8 21.2,53.95 20.1,55.95 18.9,58.05 20,59.75 20.5,60.6 21.6,61.2 23.55,62.4 24.45,60.8 25.3,59.3 24.95,58.6 24.95,58.45 24.15,58.05"/><path fill="#FFF" d="M66,10.2Q64.6,9.85 61.9,11.05 59,12.35 58.5,14.2 57.55,17.7 59.75,19.85 60.95,21.05 62.7,21.5 63.75,21.8 65.25,21.2 67.35,20.45 67.9,18.25 68.55,15.9 67.05,14.5 66.3,13.85 65.15,13.55 62.9,12.9 62.45,14.65 62,16.35 62.55,16.95 62.6,17.05 63.45,17.25 63.9,17.5 64.15,17.45 64.7,17.45 64.95,16.55 65,16.3 64.95,16.2L64.85,16.05Q64.25,15.9 64.05,16.2 63.85,16.5 63.25,16.35L63.45,14.9Q63.65,14.25 64.1,14.2 64.3,14.2 64.85,14.35 65.65,14.45 66.25,15 67.5,16.05 67,17.95 66.65,19.25 65.3,20.1 64,20.95 62.85,20.6 62.7,20.6 60.5,19.35 58.55,17.6 59.35,14.65 59.75,13.05 62.35,11.85 64.75,10.75 65.85,11.05 66.3,11.15 67.85,12 69.45,12.8 69.65,13.05 70.8,14.3 71.2,15.75 71.5,16.55 71.9,18.25 72.65,17.9 72.8,17.45 73.7,14.1 69.95,11.8 68.1,10.7 66,10.2"/><path fill="#FFF" d="M74.05,58.6Q74.95,55.25 71.2,52.95 69.35,51.85 67.25,51.35 65.85,51 63.15,52.2 60.25,53.5 59.75,55.35 58.8,58.85 61,61 62.2,62.2 63.95,62.65 65,62.95 66.5,62.35 68.6,61.6 69.15,59.4 69.8,57.05 68.3,55.65 67.55,55 66.4,54.7 64.15,54.05 63.7,55.8 63.25,57.5 63.8,58.1 63.85,58.2 64.7,58.4 65.15,58.65 65.4,58.6 65.95,58.6 66.2,57.7 66.25,57.45 66.2,57.35L66.1,57.2Q65.5,57.05 65.3,57.35 65.1,57.65 64.5,57.5L64.7,56.05Q64.9,55.4 65.35,55.35 65.55,55.35 66.1,55.5 66.9,55.6 67.5,56.15 68.75,57.2 68.25,59.1 67.9,60.4 66.55,61.25 65.25,62.1 64.1,61.75 63.95,61.75 61.75,60.5 59.8,58.75 60.6,55.8 61,54.2 63.6,53 66,51.9 67.1,52.2 67.55,52.3 69.1,53.15 70.7,53.95 70.9,54.2 72.05,55.45 72.45,56.9 72.75,57.7 73.15,59.4 73.9,59.05 74.05,58.6"/></g></g><g mask="url(#mask_)"><g id="3" transform="matrix(1 0 0 1 -52.4 -35.15)"><animateTransform attributeName="transform" additive="replace" type="translate" dur="1.458s" keyTimes="0;0.286;0.372;0.4;0.457;0.485;0.486;1" values="-23.35,-189.7;-23.35,-189.7;-23.35,-45.7;-23.351,-26.527;-23.35,-29.3;-23.35,-29.3;-23.35,-29.7;-23.35,-29.7"/><animateTransform attributeName="transform" additive="sum" type="scale" dur="1.458s" keyTimes="0;0.372;0.4;0.457;1" values="1,1;1,1;1.041,0.931;1,1;1,1"/><animateTransform attributeName="transform" additive="sum" type="translate" dur="1.458s" keyTimes="0;1" values="-29.05,-5.45;-29.05,-5.45"/><path fill="#B4BA75" d="M50.65,10.95L49.45,0.05 49.45,0 2.45,1.05 0,7.35 50.65,10.95"/><path fill="#A2AA55" d="M49.45,0.05L50.65,10.95 57.9,8.75Q58.1,4.75 58.15,2.75 57.9,2.85 57.65,2.85L49.5,0.05 49.45,0 49.45,0.05"/></g></g><mask id="mask_"><path fill="#FFF" d="M11.2,-69.4Q11.2,-73.7 6.6,-76.2 2.15,-78.6 -4.7,-78.6 -11.55,-78.6 -17.1,-78.4 -22.7,-78.2 -25.95,-75.9 -28.15,-74.4 -28.1,-73.7 -29.5,-74.7 -32.4,-76.55 -33.5,-77.3 -35.35,-77.8 -37.25,-78.35 -39.15,-78.45 -41.1,-78.6 -44.45,-77.6 -47.85,-76.65 -49.25,-75 -52.6,-71.1 -50.5,-67.8 -53.05,-65.5 -54.6,-63.4 -56.7,-60.65 -57.05,-58.15 -57.8,-53.75 -57.15,-50.8 -56.5,-47.9 -55.5,-44.85 -54.6,-41.95 -52.15,-37.85 -52.1,-37.7 -52,-37.6 -51.4,-36.55 -52.3,-35.5 -54.1,-33.3 -54.3,-33.05 -55,-32.05 -55.5,-31 -57.15,-27.85 -56.7,-22.4 -56.3,-17 -53.15,-8.8 -52.5,-7.1 -52,-5.9L-54.2,-1.8Q-57.8,4.8 -57.8,11 -57.8,14.35 -57.05,16.5 -56.35,18.6 -54.2,21.8 -52.25,24.8 -53.6,25.2 -55,25.65 -56.25,29.25 -57.5,32.85 -57.45,37.85 -57.4,42.85 -55.55,45.2 -53.7,47.55 -53.9,48 -54.1,48.5 -55.1,54.6 -56.15,60.65 -55.85,64.1 -55.55,67.8 -54.45,69.4 -50.3,75.6 -37.05,80.5 -23.8,85.4 -11.95,83.6 -0.1,81.75 7.5,79.3 15.05,76.8 15.15,64.85L15.15,50.25Q16.8,41.05 16.8,40.4 16.8,33.35 13.2,30.1 11.35,28.4 10.75,27.3 9.6,25.25 9.6,21.5 9.6,18.25 12.7,13.8 15.8,9.3 15.85,4.95 15.9,0.6 14.15,-2 12.35,-4.65 11,-8.4 9.65,-12.15 12.75,-15.25 15.8,-18.4 15.95,-23.7 16.1,-29 13.7,-33.95 12.35,-36.65 11.5,-37.8 11.75,-38.05 12,-38.35 14.75,-41.65 15.3,-47.6 15.8,-53.6 13,-57.2 11.05,-59.65 7.6,-62.35 6.6,-63.15 5.75,-63.65 6.2,-63.85 6.75,-64.15 6.8,-64.2 6.85,-64.25 11.2,-66.95 11.2,-69.4" fill-opacity="1"/></mask></g></svg>