<?xml version="1.0" encoding="utf-8"?><svg id="1002" image-rendering="auto" baseProfile="basic" version="1.1" x="0px" y="0px" width="300" height="300" xmlns="http://www.w3.org/2000/svg" xmlns:xlink="http://www.w3.org/1999/xlink"><defs><symbol id="Tween 1_0.0" overflow="visible"><path fill="#453" d="M0.15,0.35L0.2,0.35 -0.15,-0.35 0.15,0.35"/>
</symbol></defs><g id="Symbol_10_l1" overflow="visible" transform="matrix(0.976 0 0 0.976 5.6 8.15)"><g id="Symbol_2_l1" transform="matrix(4.107 0 0 4.107 0 0)"><path fill="none" stroke="#000" stroke-opacity="0.251" stroke-width="2" stroke-linecap="round" stroke-linejoin="round" d="M72,35.4Q72,20.7 61.45,10.35 50.9,0 36,0 21.05,0 10.55,10.35 0,20.7 0,35.4 0,50.05 10.55,60.4 21.05,70.8 36,70.8 50.9,70.8 61.45,60.4 72,50.05 72,35.4"/><path fill="#FFF" d="M72,35.4Q72,20.7 61.45,10.35 50.9,0 36,0 21.05,0 10.55,10.35 0,20.7 0,35.4 0,50.05 10.55,60.4 21.05,70.8 36,70.8 50.9,70.8 61.45,60.4 72,50.05 72,35.4"/><g mask="url(#mask_)" style="display:none;"><g id="Symbol_13" transform="matrix(1 0 0 1 7.1 76.6)"><animateTransform attributeName="transform" additive="replace" type="translate" fill="freeze" dur="1.6s" keyTimes="0;0.1;0.2;0.275;0.35;1" values="34.85,105.5;34.85,105.5;34.85,35.293;34.85,37.107;34.85,36.5;34.85,36.5"/><animateTransform attributeName="transform" additive="sum" type="scale" fill="freeze" dur="1.6s" keyTimes="0;0.1;0.2;0.275;0.35;1" values="1,1;1,1;0.982,1.017;1.043,0.983;1,1;1,1"/><animateTransform attributeName="transform" additive="sum" type="translate" fill="freeze" dur="1.6s" keyTimes="0;1" values="-27.75,-28.9;-27.75,-28.9"/><path fill="#000" fill-opacity="0.243" d="M49.55,8.95Q45.8,4.45 40.5,2 39.5,1.6 38.55,1.3 33.8,-0.2 28.4,0 25,0.05 21.2,1.25L20.3,2.75 21.15,1.25Q11.95,3.85 6.1,11.3 0,18.95 0,28.9 0.1,33.15 1.3,37.15 2.2,42.55 4.95,46 7.75,49.55 11.25,51.95 14.1,54.15 17.5,55.65 22.05,57.6 27,57.75L27.25,57.85 27.2,57.75Q28.05,57.8 28.9,57.8 30.5,57.75 32.1,57.5L32.45,57.8 32.05,56.95 32.3,57.4Q39.25,56.2 45.15,50.95 50.7,46.1 53.4,39.2 53.9,37.95 54.35,36.5 58.25,20.25 49.55,8.95"/></g><animate attributeName="display" fill="freeze" repeatCount="1" dur="1.6s" keyTimes="0;0.1;1" values="none;inline;inline"/></g><g mask="url(#mask_)" style="display:none;"><g id="Symbol_12" transform="matrix(1 0 0 1 7.1 75.8)"><animateTransform attributeName="transform" additive="replace" type="translate" fill="freeze" dur="1.6s" keyTimes="0;0.1;0.2;0.275;0.35;1" values="34.85,104.7;34.85,104.7;34.85,34.493;34.85,36.356;34.85,35.7;34.85,35.7"/><animateTransform attributeName="transform" additive="sum" type="scale" fill="freeze" dur="1.6s" keyTimes="0;0.1;0.2;0.275;0.35;1" values="1,1;1,1;0.982,1.017;1.043,0.983;1,1;1,1"/><animateTransform attributeName="transform" additive="sum" type="translate" fill="freeze" dur="1.6s" keyTimes="0;0.2;0.275;0.35;1" values="-27.75,-28.9;-27.75,-28.9;-27.75,-28.95;-27.75,-28.9;-27.75,-28.9"/><path fill="#405030" d="M54.35,36.5Q58.25,20.25 49.55,8.95 45.8,4.45 40.5,2 39.5,1.6 38.55,1.3 33.8,-0.2 28.4,0 25,0.05 21.2,1.25L20.3,2.75 21.15,1.25Q11.95,3.85 6.1,11.3 0,18.95 0,28.9 0.2,37.65 5,45.1 9.8,52.3 17.5,55.65 22.05,57.6 27,57.75L27.25,57.85 27.2,57.75Q28.05,57.8 28.9,57.8 30.5,57.75 32.1,57.5L32.45,57.8 32.05,56.95 32.3,57.4Q39.25,56.2 45.15,50.95 50.7,46.1 53.4,39.2 53.9,37.95 54.35,36.5"/><path fill="#688143" d="M37.45,4.9L33.2,0.65 34.25,6.3 36.3,33.3 37.4,38.2 35.85,47.05 36.5,53.7 35,55.55 33.5,56.4 36.55,55.5 39.15,52.3 40.4,43.6 38.75,34.05 39.25,28.65 38.7,25.85 39.3,22.45 40.15,20.25 39.7,14.8Q38.5,13.55 38.35,9.55L38.25,7.05 37.45,4.9"/><path fill="#688143" d="M20.3,2.75L21.15,1.25Q11.95,3.85 6.1,11.3 0,18.95 0,28.9 0.2,37.65 5,45.1 9.8,52.3 17.5,55.65L12.7,52.3 7.9,40.8 7.5,36.5 6.35,33.35 5.8,26.8 6.4,20 6.35,20.2Q6.35,19.65 6.35,19.1 6.3,18.9 6.35,18.7 6.55,14.25 8.1,11.7L8.5,10.3 10.3,8.35 13.1,6.25 20.3,2.75"/><path fill="#688143" d="M29.65,6.5L30.15,1.65 28.4,0 26.6,5.5 24.8,19.15 23.35,22.75 21.75,29.9 24,33.8 26.65,50.9 27.8,54.95 29.05,55.3 32.1,57.5 32.45,57.8 28.2,49.1 27.2,42.85 29.4,23.65 29.85,21.95 29.65,6.5"/><path fill="#688143" d="M18.45,6.95L14.8,11.65 12.8,16.5 11.9,20.6 12.35,35.2 13.05,39.1 15.75,43.75 20.9,55.65 27.05,57.75 27,57.75 27.25,57.85 27.2,57.75 23.7,54.3 20,47.85 18.2,41.55 18.3,35.35 16.95,25.45 17.9,20.7 24.4,0.5 18.45,6.95"/></g><animate attributeName="display" fill="freeze" repeatCount="1" dur="1.6s" keyTimes="0;0.1;1" values="none;inline;inline"/></g><g mask="url(#mask_)" style="display:none;"><g id="Symbol_11" transform="matrix(1 0 0 1 19.35 80.8)"><animateTransform attributeName="transform" additive="replace" type="translate" fill="freeze" dur="1.6s" keyTimes="0;0.1;0.2;0.275;0.35;1" values="37.9,102;37.9,102;37.866,31.711;38.052,33.737;37.9,33;37.9,33"/><animateTransform attributeName="transform" additive="sum" type="scale" fill="freeze" dur="1.6s" keyTimes="0;0.1;0.2;0.275;0.35;1" values="1,1;1,1;0.982,1.017;1.043,0.983;1,1;1,1"/><animateTransform attributeName="transform" additive="sum" type="translate" fill="freeze" dur="1.6s" keyTimes="0;0.1;0.2;0.275;0.35;1" values="-18.55,-21.2;-18.55,-21.2;-18.55,-21.15;-18.55,-21.25;-18.55,-21.2;-18.55,-21.2"/><path fill="#5E7546" d="M20.85,9.25L20.7,8.9Q20.65,8.85 20.6,8.85 18.35,7.05 15.5,6.45 15.35,6.4 15.15,6.35 9.95,5.4 8.05,5.4 2.35,5.4 0.8,8.3 0.25,9.35 0,12.9 -0.15,16.45 7.65,24.45 20.7,37.3 29.65,41.45 29.7,41.5 29.8,41.55L29.85,41.55Q30,41.65 30.05,41.8L30.1,41.75 29.3,39.65Q29.2,39.6 29.1,39.55 25.3,37.75 20.65,34.15 15.6,30.2 9.6,24.1 2.7,16.85 2.85,13.65 3.05,10.4 3.55,9.5 4.3,8.05 6.1,7.4 7.65,6.85 10,6.85 10.35,6.85 10.75,6.9 12.6,7 16.25,7.7 19,8.25 21.1,9.95L21.15,9.95 20.85,9.25"/><path fill="#3C4A2D" d="M30.1,41.75L30.05,41.8 30.1,41.8 30.1,41.75"/><path fill="#453" d="M21.15,9.95L21.2,9.95 20.85,9.25 21.15,9.95"/><path fill="#D86370" d="M21.4,10.5Q21.2,10.15 21.1,9.95 19,8.25 16.25,7.7 12.6,7 10.75,6.9 10.35,6.85 10,6.85 7.65,6.85 6.1,7.4 4.3,8.05 3.55,9.5 3.05,10.4 2.85,13.65 2.7,16.85 9.6,24.1 15.6,30.2 20.65,34.15 25.3,37.75 29.1,39.55 28.8,38.4 28.35,36.7 26.25,28.65 25.1,23.6 23.95,18.55 23.35,16.55 22.35,13.05 21.7,11.3 21.55,10.85 21.4,10.5"/><path fill="#CC3C4A" d="M22.75,3.85Q22.65,4 22.55,4.15 21.4,5.85 20.85,9.25L21.2,9.95 21.2,10 21.15,10 21.1,9.95Q21.2,10.15 21.4,10.5 21.55,10.85 21.7,11.3 22.35,13.05 23.35,16.55 23.95,18.55 25.1,23.6 26.25,28.65 28.35,36.7 28.8,38.4 29.1,39.55 29.2,39.6 29.3,39.65 29.4,39.7 29.45,39.8 29.5,39.8 29.5,39.85 30.3,37.1 33.15,28.1 35.75,19.85 35.75,15.5 35.75,9.5 33.95,5.55 32.2,1.55 27.95,2 24.05,2.4 22.75,3.85"/><path fill="#453" d="M35.1,3.95Q34.75,3.2 34.3,2.55 32.25,-0.35 28.3,0.05 23.55,0.55 22.2,2.45 21.35,3.7 20.8,5.9 20.55,6.85 20.35,8.05 20.45,8.25 20.5,8.45L20.7,8.9 20.85,9.25Q21.4,5.85 22.55,4.15 22.65,4 22.75,3.85 24.05,2.4 27.95,2 32.2,1.55 33.95,5.55 35.75,9.5 35.75,15.5 35.75,19.85 33.15,28.1 30.3,37.1 29.5,39.85 29.5,39.8 29.45,39.8 29.4,39.7 29.3,39.65L30.1,41.75Q30.65,39.95 31.9,35.9 32.85,32.95 34.2,28.8 35.6,24.45 36.35,21.05 37.15,17.5 37.15,14.95 37.15,8.3 35.1,3.95"/></g><animate attributeName="display" fill="freeze" repeatCount="1" dur="1.6s" keyTimes="0;0.1;1" values="none;inline;inline"/></g><g mask="url(#mask_)" style="display:none;"><g id="Symbol_10" transform="matrix(1 0 0 1 47.35 120)"><animateTransform attributeName="transform" additive="replace" type="translate" fill="freeze" dur="1.6s" keyTimes="0;0.1;0.2;0.275;0.35;1" values="51.35,123.85;51.35,123.85;51.078,53.966;52.073,55.134;51.35,54.85;51.35,54.85"/><animateTransform attributeName="transform" additive="sum" type="scale" fill="freeze" dur="1.6s" keyTimes="0;0.1;0.2;0.275;0.35;1" values="1,1;1,1;0.982,1.017;1.043,0.983;1,1;1,1"/><animateTransform attributeName="transform" additive="sum" type="translate" fill="freeze" dur="1.6s" keyTimes="0;1" values="-4,-3.85;-4,-3.85"/><path fill="#94B068" d="M5.8,3.8Q7.9,2.6 8.05,0.95 8.25,-0.65 6.4,0.4L4.75,2Q3.15,3.65 3.5,4.25 3.8,4.8 4.7,4.45L5.8,3.8"/><path fill="#94B068" d="M0.1,7.5Q0.4,8.05 1.5,7.4 2.55,6.8 2.25,6.25 2,5.65 0.95,6.3L0.4,6.65Q-0.15,7.1 0.1,7.5"/></g><animate attributeName="display" fill="freeze" repeatCount="1" dur="1.6s" keyTimes="0;0.1;1" values="none;inline;inline"/></g><g mask="url(#mask_)" style="display:none;"><g id="Symbol_9" transform="matrix(1 0 0 1 7.9 94.55)"><animateTransform attributeName="transform" additive="replace" type="translate" fill="freeze" dur="1.6s" keyTimes="0;0.1;0.2;0.275;0.35;1" values="28.75,113.6;28.75,113.6;28.923,43.474;28.502,45.124;28.75,44.6;28.75,44.6"/><animateTransform attributeName="transform" additive="sum" type="scale" fill="freeze" dur="1.6s" keyTimes="0;0.1;0.2;0.275;0.35;1" values="1,1;1,1;0.982,1.017;1.043,0.983;1,1;1,1"/><animateTransform attributeName="transform" additive="sum" type="translate" fill="freeze" dur="1.6s" keyTimes="0;0.1;0.2;0.275;0.35;1" values="-20.85,-19.05;-20.85,-19.05;-20.9,-19;-20.85,-19.1;-20.85,-19.05;-20.85,-19.05"/><path fill="#000" fill-opacity="0.161" d="M1.3,0Q-2.3,19.1 4.15,27.25 10.55,35.4 20.7,37.35 30.9,39.25 36,36.55 41.1,33.8 41.7,33.45 5.5,42.05 1.3,0"/></g><animate attributeName="display" fill="freeze" repeatCount="1" dur="1.6s" keyTimes="0;0.1;1" values="none;inline;inline"/></g><g mask="url(#mask_)" style="display:none;"><g id="Symbol_8" transform="matrix(1 0 0 1 35.95 98.2)"><animateTransform attributeName="transform" additive="replace" type="translate" fill="freeze" dur="1.6s" keyTimes="0;0.1;0.2;0.275;0.35;1" values="43,105.45;43,105.45;42.922,35.223;43.355,37.076;43,36.45;43,36.45"/><animateTransform attributeName="transform" additive="sum" type="scale" fill="freeze" dur="1.6s" keyTimes="0;0.1;0.2;0.275;0.35;1" values="1,1;1,1;0.982,1.017;1.043,0.983;1,1;1,1"/><animateTransform attributeName="transform" additive="sum" type="translate" fill="freeze" dur="1.6s" keyTimes="0;0.1;0.2;0.275;1" values="-7.05,-7.25;-7.05,-7.25;-7.1,-7.2;-7.05,-7.25;-7.05,-7.25"/><path fill="#3C3A3D" d="M13.2,0.1Q13.15,0.45 13.2,0.75 13.3,1.4 13.65,1.5 13.8,1.55 13.85,1.55 14.05,1.5 14.15,1.1 14.25,0.65 13.8,0.25 13.35,-0.2 13.2,0.1"/><path fill="#3C3A3D" d="M13.75,8.4Q13.9,7.85 13.35,7.25 12.75,6.75 12.55,7.05 12.4,7.5 12.5,7.9 12.65,8.8 13.1,8.95 13.3,9 13.4,9 13.6,8.9 13.75,8.4"/><path fill="#3C3A3D" d="M11.8,11.55Q12,11.5 12.1,11.1 12.2,10.65 11.75,10.25 11.3,9.8 11.15,10.1 11.1,10.45 11.15,10.75 11.25,11.4 11.6,11.5 11.75,11.55 11.8,11.55"/><path fill="#3C3A3D" d="M8.65,4.6Q8.5,4.95 8.55,5.4 8.7,6.25 9.2,6.35 9.35,6.4 9.4,6.35 9.6,6.25 9.75,5.8 9.85,5.3 9.35,4.8 8.8,4.25 8.65,4.6"/><path fill="#3C3A3D" d="M0.85,5.9Q0.95,5.5 0.6,5.1 0.15,4.7 0.05,4.95 -0.05,5.25 0,5.55 0.1,6.2 0.45,6.3 0.6,6.35 0.65,6.3 0.75,6.25 0.85,5.9"/><path fill="#3C3A3D" d="M0.75,10.25Q0.9,10.3 0.95,10.3 1.1,10.2 1.15,9.9 1.25,9.6 0.9,9.3 0.55,8.95 0.4,9.2 0.4,9.45 0.4,9.65 0.5,10.2 0.75,10.25"/><path fill="#3C3A3D" d="M4.3,9.95Q4.45,10.8 4.85,10.9 5.05,10.95 5.15,10.9 5.3,10.85 5.45,10.35 5.55,9.85 5.05,9.35 4.55,8.85 4.35,9.15 4.25,9.6 4.3,9.95"/><path fill="#3C3A3D" d="M8.1,14.15Q8.2,13.7 7.8,13.25 7.3,12.85 7.2,13.1 7.1,13.45 7.15,13.75 7.25,14.45 7.6,14.55 7.75,14.6 7.8,14.55 8,14.5 8.1,14.15"/></g><animate attributeName="display" fill="freeze" repeatCount="1" dur="1.6s" keyTimes="0;0.1;1" values="none;inline;inline"/></g><g mask="url(#mask_)"><g style="display:none;"><g id="Tween_2" transform="matrix(0.982 0 0 1.017 40.25 19.95)"><animateTransform attributeName="transform" additive="replace" type="translate" fill="freeze" dur="1.6s" keyTimes="0;0.2;0.275;0.35;1" values="40.25,19.95;40.25,19.95;40.6,22.25;40.35,21.4;40.35,21.4"/><animateTransform attributeName="transform" additive="sum" type="scale" fill="freeze" dur="1.6s" keyTimes="0;0.2;0.275;0.35;1" values="0.982,1.017;0.982,1.017;1.043,0.983;1,1;1,1"/><use xlink:href="#Tween 1_0.0"/></g><animate attributeName="display" fill="freeze" repeatCount="1" dur="1.6s" keyTimes="0;0.2;1" values="none;inline;inline"/></g><g style="display:none;"><g id="Tween_1" transform="matrix(1 0 0 1 40.35 90.4)"><animateTransform attributeName="transform" additive="replace" type="translate" fill="freeze" dur="1.6s" keyTimes="0;0.1;0.2;1" values="40.35,90.4;40.35,90.4;40.25,19.95;40.25,19.95"/><animateTransform attributeName="transform" additive="sum" type="scale" fill="freeze" dur="1.6s" keyTimes="0;0.1;0.2;1" values="1,1;1,1;0.982,1.017;0.982,1.017"/><use xlink:href="#Tween 1_0.0"/></g><animate attributeName="display" fill="freeze" repeatCount="1" dur="1.6s" keyTimes="0;0.1;0.2;1" values="none;inline;none;none"/></g></g><g mask="url(#mask_)" style="display:none;"><g id="Symbol_7" transform="matrix(1 0 0 1 19.35 80.8)"><animateTransform attributeName="transform" additive="replace" type="translate" fill="freeze" dur="1.6s" keyTimes="0;0.1;0.2;0.275;0.35;0.475;0.85;1" values="37.9,101.65;37.9,101.65;37.866,31.355;38.052,33.393;37.9,32.65;37.9,32.65;80.55,74.5;80.55,74.5" keySplines="0 0 1 1;0 0 1 1;0 0 1 1;0 0 1 1;.1 .1 .9 .9;0.567 0 0.667 0.667;.1 .1 .9 .9" calcMode="spline"/><animateTransform attributeName="transform" additive="sum" type="scale" fill="freeze" dur="1.6s" keyTimes="0;0.1;0.2;0.275;0.35;1" values="1,1;1,1;0.982,1.017;1.043,0.983;1,1;1,1" keySplines="0 0 1 1;0 0 1 1;0 0 1 1;0 0 1 1;.1 .1 .9 .9" calcMode="spline"/><animateTransform attributeName="transform" additive="sum" type="translate" fill="freeze" dur="1.6s" keyTimes="0;0.1;0.2;0.275;0.35;1" values="-18.55,-20.85;-18.55,-20.85;-18.55,-20.8;-18.55,-20.9;-18.55,-20.85;-18.55,-20.85" keySplines="0 0 1 1;0 0 1 1;0 0 1 1;0 0 1 1;.1 .1 .9 .9" calcMode="spline"/><path fill="#405030" d="M35.1,3.95Q34.75,3.2 34.3,2.55 32.25,-0.35 28.3,0.05 26.65,0.2 25.45,0.55L26,2.05 26.1,4.55Q26.25,8.55 27.45,9.8L27.9,15.25 27.05,17.45 26.45,20.85 27,23.65 26.5,29.05 28.15,38.6 27.9,40.55Q28.387,40.821 29,41.15 29.504,41.429 30.1,41.75 30.184,41.476 30.275,41.15 30.84,39.334 31.9,35.9 32.85,32.95 34.2,28.8 35.6,24.45 36.35,21.05 37.15,17.5 37.15,14.95 37.15,8.3 35.1,3.95"/><path fill="#688143" d="M26,2.05L25.45,0.55Q23.1,1.2 22.2,2.45 22.15,2.55 22.1,2.6L24.05,28.3 25.15,33.2 24.25,38.4Q26.15,39.6 27.9,40.55L28.15,38.6 26.5,29.05 27,23.65 26.45,20.85 27.05,17.45 27.9,15.25 27.45,9.8Q26.25,8.55 26.1,4.55L26,2.05"/><path fill="#405030" d="M4.85,21.4Q6.1,22.85 7.65,24.45 9.45,26.25 11.2,27.9L9.5,24.9 11.1,17.75 12.55,14.15 13.65,6.1Q10.6,5.55 8.95,5.45L5.65,15.7 4.7,20.45 4.85,21.4"/><path fill="#405030" d="M2.55,6.65L2.75,6.45Q1.4,7.15 0.8,8.3 0.25,9.35 0,12.9 0,13.3 0.05,13.75L0.55,11.5 2.55,6.65"/><path fill="#688143" d="M8.95,5.45Q8.45,5.4 8.05,5.4 4.65,5.4 2.75,6.45L2.55,6.65 0.55,11.5 0.05,13.75Q0.55,16.5 4.85,21.4L4.7,20.45 5.65,15.7 8.95,5.45"/><path fill="#688143" d="M17.5,7.05Q16.5,6.65 15.5,6.45 15.35,6.4 15.15,6.35 14.35,6.2 13.65,6.1L12.55,14.15 11.1,17.75 9.5,24.9 11.2,27.9Q13.5,30 15.65,31.85L17.15,18.65 17.6,16.95 17.5,7.05"/><path fill="#405030" d="M22.1,2.6Q21.3,3.85 20.8,5.9 20.55,6.85 20.35,8.05 20.45,8.25 20.5,8.45L20.7,8.9Q20.65,8.85 20.6,8.85 19.15,7.7 17.5,7.05L17.6,16.95 17.15,18.65 15.65,31.85Q20.25,35.8 24.25,38.4L25.15,33.2 24.05,28.3 22.1,2.6"/></g><animate attributeName="display" fill="freeze" repeatCount="1" dur="1.6s" keyTimes="0;0.1;1" values="none;inline;inline"/></g><mask id="mask_"><path fill="#FFF" d="M72,35.4Q72,20.7 61.45,10.35 50.9,0 36,0 21.05,0 10.55,10.35 0,20.7 0,35.4 0,50.05 10.55,60.4 21.05,70.8 36,70.8 50.9,70.8 61.45,60.4 72,50.05 72,35.4" fill-opacity="1"/></mask></g></g></svg>