<?xml version="1.0" encoding="utf-8"?><svg id="1009" image-rendering="auto" baseProfile="basic" version="1.1" x="0px" y="0px" width="300" height="300" xmlns="http://www.w3.org/2000/svg" xmlns:xlink="http://www.w3.org/1999/xlink"><g id="Symbol_13_l1" overflow="visible" transform="matrix(1 0 0 1 22.7 21.4)"><g id="Symbol_12_l1" transform="matrix(0.983 0 0 0.983 127.35 127.55)"><g style="display:none;"><path fill="none" stroke="#000" stroke-opacity="0.251" stroke-width="6" stroke-linecap="round" stroke-linejoin="round" d="M-116.7,-131.35Q-131.5,-122.4 -137.2,-114.1 -151.2,-92.8 -148.15,-65.8 -145.1,-38.85 -129.3,-33.55 -113.45,-28.3 -108.2,-22.6 -102.9,-17.15 -112.65,-7.4 -122.6,2.15 -126.25,15.7 -130.1,29.1 -126.05,41.5 -122.2,53.85 -117.9,64.8 -116.1,69.65 -115.9,73.35 -115.5,77.2 -121.35,86.1 -128.45,96.65 -129.5,112.9 -130.7,129.1 -114.25,139.05 -98.05,149 -68,145.95 -38,142.7 -16.9,138.05 42.5,152.65 90.2,143.7 137.65,134.6 147.2,79 148.4,72.7 148.6,65.8 149.4,55.25 147.2,48.15 144.95,41.3 139.9,32.35 131.15,16.75 141.1,-6.2 147.15,-20.1 148.25,-37 148.95,-47.95 147.6,-60.15 144.15,-91.35 117.95,-111.25 95.85,-128.1 67.65,-129.5 62.2,-129.9 56.5,-129.7 55.7,-129.7 55.3,-129.5 19.05,-130.25 11,-132.3 10.2,-132.5 9.65,-132.75 -35.35,-152.2 -73.3,-145.3 -102.1,-140.25 -116.7,-131.35"/><animate attributeName="display" fill="freeze" repeatCount="1" dur="1.28s" keyTimes="0;0.219;1" values="none;inline;inline"/></g><g><path fill="none" stroke="#000" stroke-opacity="0.251" stroke-width="6" stroke-linecap="round" stroke-linejoin="round" d="M-117.6,-38.65Q-112.65,-7.45 -112.65,-7.4 -122.6,2.15 -126.25,15.7 -130.1,29.1 -126.05,41.5 -122.2,53.85 -117.9,64.8 -116.1,69.65 -115.9,73.35 -115.5,77.2 -121.35,86.1 -128.45,96.65 -129.5,112.9 -130.7,129.1 -114.25,139.05 -98.05,149 -68,145.95 -38,142.7 -16.9,138.05 42.5,152.65 90.2,143.7 137.65,134.6 147.2,79 148.4,72.7 148.6,65.8 149.4,55.25 147.2,48.15 144.95,41.3 139.9,32.35 131.15,16.75 141.1,-6.2 147.15,-20.1 148.25,-37 148.95,-47.8 147.65,-59.75 147.6,-59.95 147.6,-60.15 147.05,-65.2 145.9,-70 139.9,-94.6 117.95,-111.25 117.8,-111.4 117.6,-111.5 112,-115.75 106,-119 88.5,-128.45 67.65,-129.5 62.2,-129.9 56.5,-129.7 55.7,-129.7 55.3,-129.5 19.05,-130.25 11,-129 -3.75,-128.95 -26.5,-128.9 -91.05,-128.8 -106.8,-99.3 -122.6,-69.85 -117.6,-38.65"/><animate attributeName="display" fill="freeze" repeatCount="1" dur="1.28s" keyTimes="0;0.219;1" values="inline;none;none"/></g><g style="display:none;"><path fill="#FEFEFE" d="M-115.9,73.35Q-115.5,77.2 -121.35,86.1 -128.45,96.65 -129.5,112.9 -130.7,129.1 -114.25,139.05 -98.05,149 -68,145.95 -38,142.7 -16.9,138.05 -21.15,137 -25.45,136 -45.9,142.9 -51.6,142.1 -44.5,135.8 -61.75,139.25 -79,142.7 -93.8,139.65 -108.6,136.6 -114.65,122.6 -119.35,111.65 -114.65,90.95 -114.45,89.95 -113.65,87.3 -114.05,82.45 -114.65,78.6 -114.65,78.2 -115.9,73.35"/><path fill="#FFF" d="M-116.7,-131.35Q-131.5,-122.4 -137.2,-114.1 -151.2,-92.8 -148.15,-65.8 -145.1,-38.85 -129.3,-33.55 -113.45,-28.3 -108.2,-22.6 -102.9,-17.15 -112.65,-7.4 -122.6,2.15 -126.25,15.7 -130.1,29.1 -126.05,41.5 -122.2,53.85 -117.9,64.8 -116.1,69.65 -115.9,73.35 -114.65,78.2 -114.65,78.6 -114.05,82.45 -113.65,87.3 -114.45,89.95 -114.65,90.95 -119.35,111.65 -114.65,122.6 -108.6,136.6 -93.8,139.65 -79,142.7 -61.75,139.25 -44.5,135.8 -51.6,142.1 -45.9,142.9 -25.45,136 -21.15,137 -16.9,138.05 42.5,152.65 90.2,143.7 137.65,134.6 147.2,79 148.4,72.7 148.6,65.8 149.4,55.25 147.2,48.15 144.95,41.3 139.9,32.35 131.15,16.75 141.1,-6.2 147.15,-20.1 148.25,-37 148.95,-47.95 147.6,-60.15 144.15,-91.35 117.95,-111.25 95.85,-128.1 67.65,-129.5 62.2,-129.9 56.5,-129.7 55.7,-129.7 55.3,-129.5 19.05,-130.25 11,-132.3 10.2,-132.5 9.65,-132.75 -35.35,-152.2 -73.3,-145.3 -102.1,-140.25 -116.7,-131.35 M-110.4,77.4Q-110.4,77.2 -110.6,76.75L-110.2,76.15 -110.4,77.4 M-113.65,108L-113.65,108.2 -113.85,109.65Q-113.85,108.6 -113.65,108"/><animate attributeName="display" fill="freeze" repeatCount="1" dur="1.28s" keyTimes="0;0.219;1" values="none;inline;inline"/></g><g><path fill="#FEFEFE" d="M-115.9,73.35Q-115.5,77.2 -121.35,86.1 -128.45,96.65 -129.5,112.9 -130.7,129.1 -114.25,139.05 -98.05,149 -68,145.95 -38,142.7 -16.9,138.05 -21.15,137 -25.45,136 -45.9,142.9 -51.6,142.1 -44.5,135.8 -61.75,139.25 -79,142.7 -93.8,139.65 -108.6,136.6 -114.65,122.6 -119.35,111.65 -114.65,90.95 -114.45,89.95 -113.65,87.3 -114.05,82.45 -114.65,78.6 -114.65,78.2 -115.9,73.35"/><path fill="#FFF" d="M-117.6,-38.65Q-112.65,-7.45 -112.65,-7.4 -122.6,2.15 -126.25,15.7 -130.1,29.1 -126.05,41.5 -122.2,53.85 -117.9,64.8 -116.1,69.65 -115.9,73.35 -114.65,78.2 -114.65,78.6 -114.05,82.45 -113.65,87.3 -114.45,89.95 -114.65,90.95 -119.35,111.65 -114.65,122.6 -108.6,136.6 -93.8,139.65 -79,142.7 -61.75,139.25 -44.5,135.8 -51.6,142.1 -45.9,142.9 -25.45,136 -21.15,137 -16.9,138.05 42.5,152.65 90.2,143.7 137.65,134.6 147.2,79 148.4,72.7 148.6,65.8 149.4,55.25 147.2,48.15 144.95,41.3 139.9,32.35 131.15,16.75 141.1,-6.2 147.15,-20.1 148.25,-37 148.95,-47.8 147.65,-59.75 147.6,-59.95 147.6,-60.15 147.05,-65.2 145.9,-70 139.9,-94.6 117.95,-111.25 117.8,-111.4 117.6,-111.5 112,-115.75 106,-119 88.5,-128.45 67.65,-129.5 62.2,-129.9 56.5,-129.7 55.7,-129.7 55.3,-129.5 19.05,-130.25 11,-129 -3.75,-128.95 -26.5,-128.9 -91.05,-128.8 -106.8,-99.3 -122.6,-69.85 -117.6,-38.65 M-110.4,77.4Q-110.4,77.2 -110.6,76.75L-110.2,76.15 -110.4,77.4 M-113.65,108L-113.65,108.2 -113.85,109.65Q-113.85,108.6 -113.65,108"/><animate attributeName="display" fill="freeze" repeatCount="1" dur="1.28s" keyTimes="0;0.219;1" values="inline;none;none"/></g><g style="display:none;"><g id="Symbol_11" transform="matrix(0.407 0.249 -0.249 0.407 47.8 74.95)"><animateTransform attributeName="transform" additive="replace" type="translate" fill="freeze" dur="1.28s" keyTimes="0;0.313;0.406;0.5;1" values="25.008,118.595;25.008,118.595;24.92,118.599;25,118.6;25,118.6"/><animateTransform attributeName="transform" additive="sum" type="rotate" fill="freeze" dur="1.28s" keyTimes="0;0.313;0.406;1" values="31.488,0,0;31.488,0,0;0,0,0;0,0,0"/><animateTransform attributeName="transform" additive="sum" type="scale" fill="freeze" dur="1.28s" keyTimes="0;0.313;0.406;0.5;1" values="0.477,0.477;0.477,0.477;1.039,1.039;1,1;1,1"/><animateTransform attributeName="transform" additive="sum" type="translate" fill="freeze" dur="1.28s" keyTimes="0;0.313;0.406;0.5;1" values="-7,-102.95;-7,-102.95;-6.95,-102.95;-7.05,-102.95;-7.05,-102.95"/><path fill="#000" fill-opacity="0.243" d="M86.25,73.5Q92.3,70.45 96.55,64.35 100.65,58.7 102.85,50.15 107.5,32.95 95.15,18.95 82.8,4.95 68.8,5.75 54.6,6.55 44.65,10.6 38.75,12.85 36.75,16.1 34.5,23.6 38.95,27.85 47.7,36.2 61.7,27.85 73.05,39.4 71.4,46.7 70.2,53.8 66.95,56.65 64.95,58.9 57.85,57.25 50.55,55.45 38.35,54.45 26.2,53.4 18.1,61.35 9.95,69.05 12.4,79.4 13.2,82.4 14.65,87.9 16.25,93.35 23.95,80.6 31.45,67.6 42,73.5 52.55,79.15 60.85,80 69.2,80.8 78.95,77.15L86.25,73.5"/><path fill="#000" fill-opacity="0.243" d="M16.85,94.2Q25.4,97 25.4,103.1 25.4,103.3 25.4,103.7 25.4,108.2 21.1,111.4 20.9,111.4 20.7,111.4 19.1,111.85 17.05,111.85 5.3,112.25 3.9,106.55 2.25,100.9 5.1,96.2 8.35,91.35 16.85,94.2"/><path fill="#6D574E" d="M99.4,44.5Q103.85,27.25 91.5,13.25 79.15,-0.75 65.15,0.05 50.95,0.9 41,4.95 35.1,7.15 33.1,10.4 30.85,17.9 35.3,22.2 44.05,30.5 58.05,22.2 69.6,33.75 67.95,41.05 66.75,48.15 63.5,51 61.5,53.2 54.4,51.6 47.1,49.75 34.9,48.75 22.75,47.75 14.65,55.65 6.5,63.35 8.95,73.7 9.75,76.75 11.2,82.2 12.8,87.7 20.5,74.9 28,61.95 38.55,67.8 49.1,73.5 57.45,74.3 65.75,75.1 75.5,71.45L82.8,67.8Q88.85,64.75 93.1,58.7 97.2,53 99.4,44.5"/><path fill="#6D574E" d="M13.4,88.5Q4.9,85.65 1.65,90.55 -1,95.2 0.65,100.9 2.05,106.55 13.8,106.15 15.85,106.15 17.45,105.75 17.65,105.75 17.85,105.75 22.15,102.5 22.15,98.05 22.15,97.65 22.15,97.45 21.95,91.35 13.4,88.5"/><g id="Symbol_14" transform="matrix(1 0 0 1 46.25 4)"><path fill="#FFF" d="M0,3.8Q0,5.8 2.25,5.8 4.1,5.8 8.35,4.4 12.6,2.95 12.6,2.15 12.6,-0.9 6.3,0.35 0,1.75 0,3.8"/></g></g><animate attributeName="display" fill="freeze" repeatCount="1" dur="1.28s" keyTimes="0;0.313;1" values="none;inline;inline"/></g><g style="display:none;"><g id="Symbol_10" transform="matrix(0.407 0.396 -0.396 0.407 49.7 -6.95)"><animateTransform attributeName="transform" additive="replace" type="translate" fill="freeze" dur="1.28s" keyTimes="0;0.219;0.313;0.406;1" values="-12.474,62.853;-12.474,62.853;-12.502,62.899;-12.5,62.85;-12.5,62.85"/><animateTransform attributeName="transform" additive="sum" type="rotate" fill="freeze" dur="1.28s" keyTimes="0;0.219;0.313;1" values="44.216,0,0;44.216,0,0;0,0,0;0,0,0"/><animateTransform attributeName="transform" additive="sum" type="scale" fill="freeze" dur="1.28s" keyTimes="0;0.219;0.313;0.406;1" values="0.567,0.567;0.567,0.567;1.027,1.027;1,1;1,1"/><animateTransform attributeName="transform" additive="sum" type="translate" fill="freeze" dur="1.28s" keyTimes="0;0.219;0.313;0.406;1" values="-7.25,-164.45;-7.25,-164.45;-7.25,-164.55;-7.25,-164.5;-7.25,-164.5"/><path fill="#000" fill-opacity="0.243" d="M109.3,17.4Q99.6,11.5 88.45,9.05 82.75,7.25 76.05,6.2 68.15,4.6 56.6,8.05 41.45,11.8 36.8,27.75 36.65,28.25 36.5,28.75 33.45,37.85 38.95,44.35 40.65,45.15 42.5,45.85 49.35,48.4 57.8,49.2 62.45,48.4 66.95,42.3 71.8,35.85 82.15,37.05 94.5,40.5 97.55,50.05 100.6,59.15 98.8,65.45 96.95,71.55 82.95,81.65 68.95,91.8 51.1,93.65 48.1,93.95 45.3,95 31.15,100.1 22.5,123.65 22.35,124.05 22.2,124.45 21.4,126.5 20.9,128.55 34.9,137.85 41.15,127.3 47.65,116.55 81.35,112.3 114.8,107.85 122.5,98.3 130.4,88.75 133.65,72.15 136.9,55.3 127.8,39.5 119.45,23.25 109.3,17.4"/><path fill="#000" fill-opacity="0.243" d="M17.45,171.1Q8.5,171.1 5.05,165.85 3.45,160.35 3.45,160.15 3.65,147.4 16.65,147.4 21.9,147.4 25.75,150.25 29.6,153.25 29.4,158.35 29.4,162 27.6,165.65 24.35,171.1 17.45,171.1"/><path fill="#FC3" d="M105.25,11.7Q95.55,5.8 84.4,3.4 78.7,1.55 72,0.55 64.1,-1.1 52.55,2.35 36.9,6.2 32.45,23.05 29.6,32.2 35.1,38.65 43.2,42.55 53.95,43.55 58.6,42.75 63.1,36.65 67.95,30.15 78.3,31.35 90.65,34.8 93.7,44.35 96.75,53.5 94.9,59.75 93.1,65.85 79.1,76 65.1,86.15 47.25,87.95 29.2,89.8 18.85,118 17.85,120.4 19.65,125.3 31.25,132.2 37.5,121.65 44,110.9 77.7,106.6 111.15,102.15 118.85,92.65 126.55,83.1 129.8,66.45 133.05,49.65 123.95,33.8 115.4,17.6 105.25,11.7"/><path fill="#FC3" d="M22.1,144.55Q18.25,141.7 13,141.7 0,141.7 0,154.5 0,154.7 1.6,160.15 5.05,165.45 14,165.45 20.9,165.45 24.15,159.95 25.95,156.3 25.95,152.65 25.95,147.6 22.1,144.55"/><g id="Symbol_13" transform="matrix(1 0 0 1 39.75 6.1)"><path fill="#FFF" d="M15.8,6.4Q16.65,5.6 16.65,3.35 16.65,-2.3 8.3,1.55 0,5.2 0,12.3L0.2,13.7Q0.6,15.15 2.05,15.15 3.65,15.15 7.3,12.3L10.75,9.45Q14.8,7.85 15.8,6.4"/></g></g><animate attributeName="display" fill="freeze" repeatCount="1" dur="1.28s" keyTimes="0;0.219;1" values="none;inline;inline"/></g><g style="display:none;"><g id="Symbol_9" transform="matrix(0.275 0.408 -0.408 0.275 44.75 -38.75)"><animateTransform attributeName="transform" additive="replace" type="translate" fill="freeze" dur="1.28s" keyTimes="0;0.125;0.219;0.313;1" values="-32.282,51.487;-32.282,51.487;-62.341,111.499;-62.3,111.5;-62.3,111.5"/><animateTransform attributeName="transform" additive="sum" type="rotate" fill="freeze" dur="1.28s" keyTimes="0;0.125;0.219;1" values="55.978,0,0;55.978,0,0;0,0,0;0,0,0"/><animateTransform attributeName="transform" additive="sum" type="scale" fill="freeze" dur="1.28s" keyTimes="0;0.125;0.219;0.313;1" values="0.491,0.491;0.491,0.491;1.026,1.026;1,1;1,1"/><animateTransform attributeName="transform" additive="sum" type="translate" fill="freeze" dur="1.28s" keyTimes="0;0.125;0.219;0.313;1" values="-64.4,-232.35;-64.4,-232.35;-64.3,-232.5;-64.35,-232.5;-64.35,-232.5"/><path fill="#000" fill-opacity="0.243" d="M89.05,62.7Q94.95,75.05 94.3,82.35 93.7,88.05 82.35,92.1 66.95,96.95 58,100.2 21.7,113.4 26.6,143.6 31.05,173.85 36.3,179.3 41.6,184.6 50.5,179.7 59.45,174.45 67.95,156 75.85,137.55 88.85,134.3 118.25,128 129.6,117.05 137.95,109.15 140.35,87.65 142.8,66.15 127.8,41.6 112.8,16.85 86.2,10.55 59.65,3.85 50.7,5.5 39.75,4.5 25.55,9.95 5.3,16.85 2.85,40.6 1,53.15 9.35,61.05 10.75,63.5 18.65,66.15 26.6,68.75 38.95,57.6 51.1,46.65 65.7,47.05 82.75,50.3 89.05,62.7"/><path fill="#000" fill-opacity="0.243" d="M55,237.1Q43.6,237.1 35.7,231.45 27.6,225.75 27.6,217.85 27.6,209.95 35.7,204.25 43.8,198.6 55.2,198.6 66.55,198.6 74.65,204.25 82.75,209.95 82.75,217.85 82.75,225.75 74.65,231.45 66.35,237.1 55,237.1"/><path fill="#75D4D0" d="M86.8,57Q92.9,69.2 92.5,76.5 92.1,82.15 81.15,86.4 65.3,91.5 56.8,95.15 20.7,109.15 26.15,139.15 31.65,169.4 37.15,174.65 42.4,179.9 51.1,174.65 60.05,169.15 67.95,150.7 75.65,131.85 88.25,128.4 117.85,121.5 128.6,110.55 136.7,102.45 138.75,80.75 140.75,59.25 125.15,35.1 109.35,10.35 82.95,4.7 56,-1.4 47.05,0.4 35.9,-0.4 21.9,5.5 2.05,13 0.2,36.75 -1.2,49.3 7.1,57 8.75,59.45 16.65,61.9 24.35,64.3 36.5,53.15 48.5,41.8 63.1,41.8 80.35,44.65 86.8,57"/><path fill="#75D4D0" d="M51.75,231.45Q63.1,231.45 71.2,225.75 79.3,220.1 79.3,212.15 79.3,204.25 71.2,198.6 63.1,192.9 51.75,192.9 40.35,192.9 32.25,198.6 24.15,204.25 24.15,212.15 24.15,220.1 32.25,225.75 40.35,231.45 51.75,231.45"/><g id="Symbol_12" transform="matrix(1 0 0 1 9.55 7.7)"><path fill="#FFF" d="M0,18.7L0.2,20.1Q0.6,21.5 2.45,21.5 2.85,21.5 10.95,12.4 19.05,3.25 19.05,2.65 19.05,-2 15.2,1.45 8.9,2.05 4.05,8.95 0,14.85 0,18.7"/></g></g><animate attributeName="display" fill="freeze" repeatCount="1" dur="1.28s" keyTimes="0;0.125;1" values="none;inline;inline"/></g></g></g></svg>