<?xml version="1.0" encoding="utf-8"?>
<!-- Generator: Adobe Illustrator 19.2.0, SVG Export Plug-In . SVG Version: 6.00 Build 0)  -->
<svg version="1.1" id="_x31_015" image-rendering="auto"
	 xmlns="http://www.w3.org/2000/svg" xmlns:xlink="http://www.w3.org/1999/xlink" x="0px" y="0px" width="300px" height="300px"
	 viewBox="0 0 300 300" enable-background="new 0 0 300 300" xml:space="preserve">
<path opacity="0.25" fill="#332C2A" d="M288.8,98.7c-0.9-2-1.9-3.9-3-5.8c-1.7-2.9-3.1-5.3-4.2-7c-2.2-3.5-5.2-7.2-9.1-11.2
	c-22.4-23-58.6-18.9-108.6,12.2c0.4-0.8,0.5-2,0.2-3.6c-3.7-16.8-9.3-30.5-16.6-41c-1.3-2-2.7-3.9-4-5.6c-1.2-1.3-2.4-2.6-3.6-3.8
	c-9.2-9.3-20.6-14.7-34.2-16.2c-4.9-0.5-10.1-0.5-15.4,0c-8.1,0.8-16.8,2.7-26,5.6c-5.5,2-10.6,4.2-15.3,6.6
	C24.9,40.6,10.5,56.2,5.7,75.7C-0.1,98.8,9.2,134.2,33.5,182c4.7,8.4,9.9,17.1,15.6,26c15.2,23.3,34.4,48.6,57.5,75.8
	c0.5-0.4,1.2-0.6,2-0.6c58.4-20.8,103.7-43,135.7-66.6c18.1-13.7,32-27.9,41.6-42.5c1.1-2.4,2.1-4.8,3-7.2
	C298.4,141.7,298.4,119,288.8,98.7z"/>
</svg>
