<?xml version="1.0" encoding="utf-8"?>
<!-- Generator: Adobe Illustrator 19.2.0, SVG Export Plug-In . SVG Version: 6.00 Build 0)  -->
<svg version="1.1" id="_x31_014" image-rendering="auto"
	 xmlns="http://www.w3.org/2000/svg" xmlns:xlink="http://www.w3.org/1999/xlink" x="0px" y="0px" width="300px" height="660px"
	 viewBox="0 0 300 660" enable-background="new 0 0 300 660" xml:space="preserve">
<path opacity="0.25" fill="#332C2A" d="M282.2,437.7c-4.8-4.4-8-8.1-9.6-11c-3-5.3-4.5-12.9-4.5-22.7c0-8.5,4-18.5,12.1-30.1
	c8.1-11.7,12.2-23.3,12.3-34.6s-2.1-20.4-6.7-27.2c-4.7-6.9-8.8-15.3-12.3-25c-3.5-9.8-1.2-18.7,6.8-26.8c8-8.2,12.1-19.2,12.5-33.1
	s-2.5-27.2-8.8-40.1c-3.5-7-6.4-12.1-8.6-15.1c0.7-0.7,1.3-1.4,2-2.2c7.2-8.6,11.5-20.7,12.9-36.2c1.3-15.7-1.7-28.2-9-37.6
	c-5.1-6.4-12.1-13.1-21.1-20.2c-2.6-2.1-5-3.8-7.2-5.1c1.2-0.5,2.5-1.2,3.9-2c0.1-0.1,0.3-0.3,0.4-0.4c11.3-7,17-13.8,17-20.2
	c0-11.2-6-20.1-18-26.6c-11.6-6.3-26.3-9.4-44.2-9.4c-17.9,0-34,0.3-48.5,0.8C149,13.7,137.5,17,129,23c-5.7,3.9-8.5,6.8-8.4,8.6
	c-3.7-2.6-9.3-6.3-16.8-11.2c-2.9-2-6.7-3.6-11.5-4.9c-5-1.4-9.9-2.3-14.9-2.5c-5.1-0.4-12,0.7-20.7,3.3
	c-8.9,2.5-15.1,5.9-18.8,10.2C29.1,36.6,27.5,46,32.9,54.6c-6.7,6-12,11.7-16,17.2c-5.5,7.2-8.7,14-9.6,20.5
	c-2,11.5-2.1,21.1-0.4,28.8c1.7,7.6,3.8,15.3,6.5,23.3c2.3,7.6,6.7,16.7,13.1,27.4c0.1,0.4,0.3,0.7,0.6,1c1.6,2.7,1.2,5.5-1.2,8.2
	c-4.7,5.7-7.3,8.9-7.8,9.6c-1.8,2.6-3.4,5.3-4.7,8c-4.3,8.2-5.9,19.4-4.7,33.7c1,14.1,5.7,31.8,13.9,53.2c1.7,4.4,3.2,8.2,4.5,11.3
	l-8.6,16C9.1,330.1,4.4,346.8,4.4,363c0,8.7,1,15.9,2.9,21.5c1.8,5.5,5.5,12.4,11.2,20.7c5.1,7.8,5.9,12.3,2.3,13.3
	c-3.7,1.2-7.1,6.5-10.4,15.8c-3.3,9.4-4.8,20.6-4.7,33.7s2.6,22.6,7.4,28.8s7,9.8,6.5,11c-0.5,1.3-2.1,9.9-4.7,25.8
	c-2.7,15.8-3.7,28.2-2.9,37.2c0.8,9.7,2.6,16.6,5.5,20.7c10.8,16.2,33.5,30.7,68.1,43.4s67.3,16.8,98.2,12.1
	c30.9-4.8,56.3-10.4,76.1-16.8c19.7-6.5,29.7-25.4,29.9-56.5v-57.1c4.3-24,6.5-36.8,6.5-38.5C296.3,459.6,291.6,446.2,282.2,437.7z"
	/>
</svg>
