<?xml version="1.0" encoding="utf-8"?>
<!-- Generator: Adobe Illustrator 19.2.0, SVG Export Plug-In . SVG Version: 6.00 Build 0)  -->
<svg version="1.1" id="_x31_000" image-rendering="auto"
	 xmlns="http://www.w3.org/2000/svg" xmlns:xlink="http://www.w3.org/1999/xlink" x="0px" y="0px" width="660px" height="300px"
	 viewBox="0 0 660 300" enable-background="new 0 0 660 300" xml:space="preserve">
<path opacity="0.25" fill="#332C2A" d="M610.5,38.4c-22.1-8.8-42.7-9.3-61.9-1.6c-4.5-5.3-8.9-9.4-13.4-12.4
	c-4.6-3.2-10.9-6.2-18.9-9.3c-8-3.2-17.1-4.5-27.2-4.1c-26.4,1.1-44.4,4.9-54,11.6c-3.8-3.5-8.2-6.5-13.2-8.9
	c-10.8-5.4-24.4-8.2-40.8-8.5C368.8,5,357,8.2,345.9,14.8c-8.3,4.9-15.6,10.2-22.1,16.2c-6.8-7.4-17.1-13.2-30.9-17.5
	c-1.2-0.4-2.4-0.8-3.7-1.2c-15.8-4.2-30.3-4.1-43.5,0.4c-9.6,3.2-17.5,7-23.6,11.4c-11.6-8.7-25.1-12.9-40.6-12.6
	c-15.6,0.3-27.3,3.2-35.1,8.7c-7.9,5.5-11.8,10-11.6,13.6c-7.4-7.6-16.8-13.1-28.4-16.6c-7-2.5-16.8-3.6-29.6-3.3
	c-12.9,0.1-26.3,4.5-40.2,13c-14.2,8.4-22.5,25.9-25,52.4c-2.6,26.4-2.2,50.7,1.4,72.9c3.4,22.1,9.3,44.3,17.5,66.6
	c1.6,4.3,3.2,8.3,4.7,12c9.5,25.6,27.8,41.7,55.2,48.3c13.3,3.2,27.5,2.6,42.6-1.8c3.5-1.3,9.7-4.1,18.3-8.5c2-1.1,3.7-2,5.3-2.8
	l0.4,0.4c5.5,5.4,13.9,10,25,14c11,3.9,23.6,6,37.6,6.3c2.2,0,4.5,0,6.9,0c0.4,0,0.9,0,1.4,0l4.3-0.4c8.5-0.9,17.8-2.8,27.8-5.7
	c16.9,6.6,33.4,10.8,49.3,12.8l0.6,0.2c6.2,0.8,12.3,1.2,18.3,1.2c34.8-0.5,58.7-7.2,71.7-20.1l0.2,0.2c5.8,6.2,12.5,10.7,20.3,13.6
	c7.6,2.9,18.2,3.5,31.7,2c13.5-1.4,27.5-13,41.8-34.7c12.9,17.5,27.6,27.7,44.1,30.5c40.3,5.6,68.7-14.6,85.1-60.7
	c11.3-28.4,19.6-59.4,24.8-93C655.8,84.4,643.3,53,610.5,38.4z"/>
</svg>
