<?xml version="1.0" encoding="utf-8"?><svg id="1000" image-rendering="auto" baseProfile="basic" version="1.1" x="0px" y="0px" width="660" height="300" xmlns="http://www.w3.org/2000/svg" xmlns:xlink="http://www.w3.org/1999/xlink"><defs><symbol id="Symbol_2" overflow="visible"><path fill="#FCF0D8" d="M9.2,2.65L7.45,4.1Q5.65,5.65 4.8,5.4 3.9,5.15 1.9,2.45L0,0Q-0.15,0.1 1.8,2.8 3.8,5.85 3.95,6.55 4.2,7.5 3.4,8.55 2.5,9.55 2.6,9.55L3.65,8.8Q4.85,7.7 5.5,7.45 6.1,7.15 8.75,9.75 11.4,12.4 11.55,12.35 11.65,12.2 9.25,9.45 6.75,6.55 6.7,6.1 6.55,5.55 8,4.15L9.2,2.65"/>
</symbol></defs><g id="Symbol_18_l1" overflow="visible" transform="matrix(1 0 0 1 9.7 5.3)"><g id="Symbol_1_l1" transform="matrix(3.941 0 0 3.941 0 0)"><g id="Symbol_17"><path fill="none" stroke="#000" stroke-opacity="0.251" stroke-width="2" stroke-linecap="round" stroke-linejoin="round" d="M152.45,8.4Q144.05,5.05 136.75,8 135.05,6 133.35,4.85 131.6,3.65 128.55,2.5 125.5,1.3 121.65,1.45 111.6,1.85 107.95,4.4 106.5,3.05 104.6,2.15 100.5,0.1 94.25,0 89.55,-0.1 85.3,2.4 82.15,4.25 79.7,6.5 77.1,3.7 71.85,2.05 71.4,1.9 70.9,1.75 64.9,0.15 59.85,1.85 56.2,3.05 53.85,4.75 49.45,1.45 43.55,1.55 37.6,1.65 34.65,3.75 31.65,5.85 31.7,7.2 28.9,4.3 24.5,3 21.85,2.05 17,2.15 12.1,2.2 6.8,5.45 1.4,8.65 0.45,18.75 -0.55,28.8 0.8,37.25 2.1,45.65 5.25,54.15 5.85,55.8 6.45,57.2 10.05,66.95 20.45,69.45 25.5,70.65 31.25,69 32.6,68.5 35.9,66.85 36.65,66.45 37.25,66.15L37.35,66.25Q39.45,68.3 43.7,69.8 47.9,71.3 53.25,71.4 54.1,71.4 55,71.4 55.15,71.4 55.35,71.4L56.45,71.3Q59.7,70.95 63.5,69.85 69.95,72.35 76,73.1L76.15,73.15Q78.5,73.45 80.8,73.45 94.05,73.25 99,68.35L99.05,68.4Q101.25,70.75 104.2,71.85 107.1,72.95 112.25,72.35 117.4,71.8 122.85,63.55 127.75,70.2 134.05,71.3 149.4,73.45 155.65,55.9 159.95,45.1 161.95,32.3 164.95,13.95 152.45,8.4"/></g><g id="Symbol_16" transform="matrix(1 0 0 1 0 0)"><path fill="#FFF" d="M152.45,8.4Q144.05,5.05 136.75,8 135.05,6 133.35,4.85 131.6,3.65 128.55,2.5 125.5,1.3 121.65,1.45 111.6,1.85 107.95,4.4 106.5,3.05 104.6,2.15 100.5,0.1 94.25,0 89.55,-0.1 85.3,2.4 82.15,4.25 79.7,6.5 77.1,3.7 71.85,2.05 71.4,1.9 70.9,1.75 64.9,0.15 59.85,1.85 56.2,3.05 53.85,4.75 49.45,1.45 43.55,1.55 37.6,1.65 34.65,3.75 31.65,5.85 31.7,7.2 28.9,4.3 24.5,3 21.85,2.05 17,2.15 12.1,2.2 6.8,5.45 1.4,8.65 0.45,18.75 -0.55,28.8 0.8,37.25 2.1,45.65 5.25,54.15 5.85,55.8 6.45,57.2 10.05,66.95 20.45,69.45 25.5,70.65 31.25,69 32.6,68.5 35.9,66.85 36.65,66.45 37.25,66.15L37.35,66.25Q39.45,68.3 43.7,69.8 47.9,71.3 53.25,71.4 54.1,71.4 55,71.4 55.15,71.4 55.35,71.4L56.45,71.3Q59.7,70.95 63.5,69.85 69.95,72.35 76,73.1L76.15,73.15Q78.5,73.45 80.8,73.45 94.05,73.25 99,68.35L99.05,68.4Q101.25,70.75 104.2,71.85 107.1,72.95 112.25,72.35 117.4,71.8 122.85,63.55 127.75,70.2 134.05,71.3 149.4,73.45 155.65,55.9 159.95,45.1 161.95,32.3 164.95,13.95 152.45,8.4"/></g><g id="Symbol_15" transform="matrix(1 0 0 1 5.25 6.4)"><path fill="#F1DCE3" d="M128.05,8.45Q127.2,4.65 123.05,2.35 118.9,0 112.65,0.9 106.35,1.85 102,4.3 98.15,0.15 89,0 80.85,-0.15 74.15,5.2 71.65,3.35 65.65,1.75 59.65,0.15 54.6,1.85 49.55,3.55 48.6,8.25 43.6,-1.25 36.25,0.85 28.85,2.9 27.55,7.5 22.4,1.55 14,1.7 4.45,1.7 1.6,8.4 -1.6,18.2 1.6,34.6 4.65,50.1 11.25,54.3 18,58.55 24.1,56.35 29.7,54.3 33.05,51.3 40.7,59.8 48.85,60 49.7,60 50.55,60 54.35,59.75 58.6,57.2 65.1,61.1 72.4,61.95 76,62.1 75.35,62.15L77.5,62.1Q81.7,62.05 87.55,59.5 93.35,56.95 93.55,56.6 93.75,56.2 93.85,56.15 107.35,65.5 116.4,48.7 123.5,57.9 132,57.6 140.45,57.3 144.25,49.75 148.05,42.15 151.7,26.35 155.35,10.5 141.4,5.85 136.45,4.7 128.05,8.45"/></g><g><g id="Symbol_14" transform="matrix(1 0 0 1 126.5 18.65)"><animateTransform attributeName="transform" additive="replace" type="translate" dur="1.6s" keyTimes="0;0.375;0.45;0.525;1" values="132.7,37.657;132.7,37.657;139.218,37.65;139.2,37.65;139.2,37.65"/><animateTransform attributeName="transform" additive="sum" type="scale" dur="1.6s" keyTimes="0;0.375;0.45;0.525;1" values="0.345,0.345;0.345,0.345;1.037,1.037;1,1;1,1"/><animateTransform attributeName="transform" additive="sum" type="translate" dur="1.6s" keyTimes="0;0.375;0.45;1" values="-12.75,-19;-12.75,-19;-12.7,-19;-12.7,-19"/><path fill="#000" fill-opacity="0.318" d="M25.2,10.35Q25.3,3.5 22.1,3.25 19,3 17.95,6.55 17.35,8.5 16.9,14.6 16.4,20.25 15.3,22.55 13.9,26.05 10.3,25.75 9.89,25.732 9.55,25.575 8.936,25.272 8.55,24.5 8.172,23.776 8.4,22.3 8.516,21.431 8.85,20.3 9,18.75 10.4,14.25 11.75,9.55 12.75,6.55 13.85,3.65 11.9,1.75 9.9,-0.2 7.4,2.15 4.85,4.45 3.15,9.8 1.45,15.2 0.3,20.95 0.177,21.585 0.1,22.3 -0.161,24.792 0.15,28.25 0.978,35.662 7.5,37.45 8.852,37.821 10.45,37.95 18.45,38.65 21.95,29.7 23.4,26.1 24.35,17.45 24.4,17.25 25.2,10.35"/><path fill="#B32F3C" d="M25.45,9Q25.6,2.3 22.4,2.1 19.3,1.95 18.25,5.4 17.6,7.3 17.1,13.3 16.55,18.8 15.45,21.1 14,24.55 10.4,24.3 9.923,24.279 9.55,24.075 9.022,23.773 8.7,23.1 8.522,22.788 8.475,22.3 8.367,21.144 9,19L9.05,19.05Q9.2,17.55 10.6,13.05 12.05,8.4 13.05,5.5 14.15,2.6 12.25,0.8 10.25,-1.05 7.75,1.25 5.15,3.55 3.45,8.85 1.7,14.15 0.5,19.75 0.254,20.895 0.175,22.3 0.043,24.329 0.25,26.9 1.155,35.237 9.55,36.175 9.966,36.222 10.4,36.25 18.4,36.8 22,27.95 23.45,24.4 24.55,15.95 24.55,15.75 25.45,9"/><path fill="#FFF" d="M8.65,2.8Q9.65,1.9 9.65,1.75 9.6,1.65 9.6,1.55 8.8,1.3 7.9,2.2 7.05,3 7.05,3.4L7.1,3.65 7.5,3.7Q7.65,3.7 8.65,2.8"/></g><animate attributeName="display" repeatCount="1" dur="1.6s" keyTimes="0;0.375;1" values="none;inline;none"/></g><g><g id="Symbol_13" transform="matrix(1 0 0 1 102.3 17.75)"><animateTransform attributeName="transform" additive="replace" type="translate" dur="1.6s" keyTimes="0;0.325;0.4;0.475;1" values="106.642,32.545;106.642,32.545;113.15,32.528;113.15,32.55;113.15,32.55"/><animateTransform attributeName="transform" additive="sum" type="scale" dur="1.6s" keyTimes="0;0.325;0.4;0.475;1" values="0.368,0.368;0.368,0.368;1.083,1.083;1,1;1,1"/><animateTransform attributeName="transform" additive="sum" type="translate" dur="1.6s" keyTimes="0;1" values="-10.85,-14.8;-10.85,-14.8"/><path fill="#000" fill-opacity="0.298" d="M19.65,4.65Q17.6,1.7 13.85,1.1 4.3,-0.95 0.65,10.95 0.25,12.25 0,16.4 0.05,17.6 0.3,18.8 1.45,26.45 6.75,28.6 12.05,30.75 14.3,28.2 16.45,25.6 14.95,23.95 13.45,22.3 10.55,22.15 7.65,21.9 6.75,20.2 6.2,19.35 5.8,17.25 12.9,19.15 16.25,17.25 19.6,15.35 20.8,11.6 21.95,7.85 19.65,4.65 M14.05,10.1Q13.7,11.55 8.25,11.35 6.65,8.95 10.4,7.45 14.15,5.95 14.05,10.1"/><path fill="#B32F3C" d="M20.15,3.85Q18.1,0.9 14.35,0.3 7.492,-1.172 3.675,4.55 2.179,6.796 1.15,10.15 0.75,11.45 0.5,15.6 0.55,16.8 0.8,18 1.524,22.814 3.9,25.45 5.285,27.003 7.25,27.8 12.55,29.95 14.8,27.4 16.95,24.8 15.45,23.15 13.95,21.5 11.05,21.35 9.6,21.225 8.65,20.75 7.7,20.25 7.25,19.4 6.7,18.55 6.3,16.45 7.531,16.779 8.65,17 13.981,18.021 16.75,16.45 20.1,14.55 21.3,10.8 22.45,7.05 20.15,3.85 M14.55,9.3Q14.2,10.75 8.75,10.55 8.697,10.471 8.65,10.4 7.893,9.131 8.65,8.125 9.269,7.303 10.9,6.65 14.65,5.15 14.55,9.3"/><path fill="#D86370" d="M20.4,7.75Q20.55,7.5 20.5,7.25 20.4,6.45 19.6,6.55 18.8,6.65 18.9,7.5L19.1,7.85Q19.3,8.25 19.85,8.15 20.25,8.05 20.4,7.75"/><path fill="#D86370" d="M16.45,3.2Q16.7,3.65 17.25,3.55 17.65,3.5 17.85,3.15 17.95,2.8 17.95,2.6 17.8,1.8 16.95,1.95 16.2,2.1 16.35,2.85L16.45,3.2"/><path fill="#D86370" d="M11.15,2.15Q10.35,2.3 10.45,3.1L10.6,3.4Q10.9,3.85 11.4,3.75 11.8,3.7 11.95,3.4 12.1,3.1 12.05,2.85 11.95,2 11.15,2.15"/><path fill="#D86370" d="M16.05,12.3Q15.9,11.5 15.05,11.65 14.25,11.8 14.4,12.55L14.55,12.95Q14.75,13.35 15.3,13.25 15.7,13.2 15.85,12.8 16.05,12.5 16.05,12.3"/><path fill="#D86370" d="M11.8,24.05L11.95,24.35Q12.25,24.8 12.75,24.7 13.2,24.6 13.35,24.35 13.45,24 13.4,23.8 13.3,23 12.5,23.15 11.7,23.3 11.8,24.05"/><path fill="#D86370" d="M4.9,9.85L5,10.2Q5.25,10.55 5.8,10.45 6.15,10.4 6.4,10.1 6.55,9.8 6.5,9.55 6.35,8.75 5.55,8.85 4.75,9 4.9,9.85"/><path fill="#D86370" d="M2.1,14.15Q2.4,14.6 3,14.5 3.45,14.45 3.65,14 3.75,13.8 3.75,13.55 3.6,12.8 2.75,12.9 1.85,13.05 2,13.85L2.1,14.15"/><path fill="#D86370" d="M3.5,18.9Q2.75,19.1 2.85,19.8 2.9,19.85 2.95,20.35 3.2,20.8 3.8,20.7 4.2,20.6 4.35,20.15 4.5,19.9 4.45,19.6 4.3,18.75 3.5,18.9"/><path fill="#D86370" d="M8.1,24.6Q8.2,24.35 8.15,24.1 8.05,23.3 7.2,23.45 6.45,23.6 6.6,24.4L6.65,24.75Q6.95,25.15 7.5,25.05 7.85,25 8.1,24.6"/><path fill="#D86370" d="M6.05,4.2Q5.587,4.258 5.45,4.55 5.337,4.763 5.4,5.1L5.55,5.4Q5.75,5.8 6.3,5.75 6.7,5.65 6.9,5.35 7.05,5.05 7,4.8 6.972,4.659 6.925,4.55 6.7,4.078 6.05,4.2"/><path fill="#D86370" d="M8.95,14.05Q9.1,13.75 9.05,13.55 8.987,13.08 8.65,12.95 8.449,12.863 8.15,12.9 7.3,13.05 7.4,13.75L7.6,14.15Q7.75,14.55 8.35,14.45 8.522,14.431 8.65,14.375 8.857,14.266 8.95,14.05"/></g><animate attributeName="display" repeatCount="1" dur="1.6s" keyTimes="0;0.325;1" values="none;inline;none"/></g><g><g id="Symbol_12" transform="matrix(1 0 0 1 81.8 11.75)"><animateTransform attributeName="transform" additive="replace" type="translate" dur="1.6s" keyTimes="0;0.275;0.35;0.425;1" values="85.5,26.459;85.5,26.459;91.994,26.45;92,26.45;92,26.45"/><animateTransform attributeName="transform" additive="sum" type="scale" dur="1.6s" keyTimes="0;0.275;0.35;0.425;1" values="0.332,0.332;0.332,0.332;1.068,1.068;1,1;1,1"/><animateTransform attributeName="transform" additive="sum" type="translate" dur="1.6s" keyTimes="0;0.275;0.35;1" values="-10.25,-14.8;-10.25,-14.8;-10.2,-14.7;-10.2,-14.7"/><path fill="#000" fill-opacity="0.318" d="M20.4,9.05Q20.5,6.2 20.4,6.25 20.3,4.75 19.95,3.65 19.3,1.8 17.2,1.65 15.05,1.5 14.35,5.35 14.2,6 14.1,6.7L14.1,6.75Q14.1,6.8 14.15,6.85 13.55,10 13.35,13.15 13.05,15.35 12.7,16.75 12.5,17.6 12.3,18.15 11.75,19.4 10.45,19L8,9.4Q6.2,3.6 3.15,4 2.468,4.099 1.95,4.3 0.116,5.066 0.35,7.25 0.65,9.95 1.95,13.35 2.014,13.52 2.075,13.7 2.164,13.942 2.25,14.2 2.3,14.4 2.4,14.6 2.4,14.65 2.45,14.8 2.45,14.85 2.65,15.35 2.7,15.85 3.35,17.75 3.85,19.7 3.85,19.85 4.25,21.7 5.8,25.9 7.4,30.05 11.1,29.35 14.8,28.6 17.1,23.1L17.7,21.45Q18.35,19.8 18.75,17.85 18.95,16.75 19.2,15.7 20.2,11.85 20.4,9.05"/><path fill="#B32F3C" d="M20,4.6Q19.9,3.1 19.55,2 18.9,0.15 16.8,0 14.65,-0.15 13.95,3.7 13.8,4.35 13.7,5.05L13.55,6.4Q13.1,8.95 12.95,11.5 12.65,13.7 12.3,15.1 12.1,15.95 11.9,16.5 11.35,17.75 10.05,17.35L7.6,7.75Q5.8,1.95 2.75,2.35 -0.35,2.8 0.05,5.9 0.4,9 1.1,11 1.75,12.95 1.9,13.45 2.05,13.9 2.75,16 3.45,18.05 3.45,18.2 3.85,20.05 5.4,24.25 7,28.4 10.7,27.7 14.4,26.95 16.7,21.45L17.3,19.8Q17.95,18.15 18.35,16.2 18.55,15.1 18.8,14.05 19.8,10.2 20,7.4 20.1,4.55 20,4.6"/><path fill="#FFF" d="M1.75,4.25Q0.75,4.25 0.4,5.4 0.15,6.35 0.95,6.75 1.1,6.45 1.35,5.6 1.75,4.45 1.75,4.25"/></g><animate attributeName="display" repeatCount="1" dur="1.6s" keyTimes="0;0.275;1" values="none;inline;none"/></g><g><g id="Symbol_11" transform="matrix(1 0 0 1 58.1 13.45)"><animateTransform attributeName="transform" additive="replace" type="translate" dur="1.6s" keyTimes="0;0.225;0.3;0.375;1" values="63.7,27.604;63.7,27.604;70.2,27.639;70.2,27.6;70.2,27.6"/><animateTransform attributeName="transform" additive="sum" type="scale" dur="1.6s" keyTimes="0;0.225;0.3;0.375;1" values="0.368,0.368;0.368,0.368;1.066,1.066;1,1;1,1"/><animateTransform attributeName="transform" additive="sum" type="translate" dur="1.6s" keyTimes="0;0.225;0.3;0.375;1" values="-12.1,-14.15;-12.1,-14.15;-12.1,-14.2;-12.1,-14.15;-12.1,-14.15"/><path fill="#000" fill-opacity="0.318" d="M23.7,14.6Q23.75,13.8 22.9,11.65 22,9.5 21.5,8.9 21.1,8.25 20.5,7.3 20.25,7 19.95,6.75 19.7,6.4 19.4,6.05 18.85,5.6 18.3,5.15 15.5,3.05 12.6,2.35 12.425,2.298 12.25,2.25 11.075,1.95 9.9,1.95 9.3,1.9 8.8,1.95 6.213,2.047 4.4,3.325 3.41,4.008 2.65,5.05 1.6,6.35 1.1,8.3 1,8.5 1,8.75 0.6,10.4 0.55,12.55 0.45,14.45 0.5,15.7 0.6,16.9 0.75,17.9 0.8,18.95 1.35,20.45 1.8,21.95 2.65,23.25L2.7,23.35Q4.4,26.45 7.4,27.55 8.05,27.8 8.7,28 11.3,28.6 14.75,28.05 20.4,27.15 22.5,23.5 24.25,20.65 24.2,17.85 24.1,15.8 23.7,14.6 M14.25,9.5Q14.65,9.95 14.95,10.45 15.75,11.6 16.1,13.35 16.3,14.8 16.25,17.15 16.1,19.35 15.35,20 14.55,20.65 14.35,20.75 14.1,20.85 13.7,21 11.35,22.05 9.95,21.4 8.6,20.65 7.85,19.45 7.1,18.15 6.55,16.65L6.5,16.6Q5.799,14.497 6.15,12.7 6.171,12.574 6.2,12.45 6.35,11.6 6.75,10.85 8.1,8.35 10.2,8.05 11.205,7.87 12.25,8.25 13.232,8.628 14.25,9.5"/><path fill="#D86370" d="M7.35,17.55Q6.6,16.25 6.05,14.75L0.85,18.55Q1.3,20.05 2.15,21.35L7.35,17.55"/><path fill="#B32F3C" d="M2.15,3.15Q1.1,4.45 0.6,6.4 0.5,6.6 0.5,6.85L8.3,0.05Q4.3,0.2 2.15,3.15"/><path fill="#D86370" d="M9.4,0.05Q8.8,0 8.3,0.05L0.5,6.85Q0.1,8.5 0.05,10.65L12.1,0.45Q10.75,0.05 9.4,0.05"/><path fill="#B32F3C" d="M14.45,8.55L19.4,4.95Q19.3,4.8 19.2,4.7 18.5,3.9 16.75,2.55 15,1.15 12.1,0.45L0.05,10.65Q-0.05,12.55 0,13.8 0.1,15 0.25,16 0.3,17.05 0.85,18.55L6.05,14.75 6,14.7Q5.25,12.45 5.7,10.55 5.85,9.7 6.25,8.95 7.6,6.45 9.7,6.15 11.65,5.8 13.75,7.6 14.15,8.05 14.45,8.55"/><path fill="#B32F3C" d="M22,21.6Q23.75,18.75 23.7,15.95L8.2,26.1Q10.8,26.7 14.25,26.15 19.9,25.25 22,21.6"/><path fill="#D86370" d="M21,7L20.85,6.8Q20.45,6.25 19.4,4.95L14.45,8.55Q15.25,9.7 15.95,11.35L21,7"/><path fill="#B32F3C" d="M22.4,9.75Q21.5,7.6 21,7L15.95,11.35Q16.7,13.15 15.65,16.2 14.55,19.25 12.5,19.5 10.4,19.75 9.25,19.25 8.1,18.75 7.35,17.55L2.15,21.35 2.2,21.45Q3.9,24.55 6.9,25.65L12.4,21.4 12.4,21.35 23.2,12.7Q23.25,11.9 22.4,9.75"/><path fill="#D86370" d="M23.7,15.95Q23.6,13.9 23.2,12.7L12.4,21.35 12.4,21.4 6.9,25.65Q7.55,25.9 8.2,26.1L23.7,15.95"/></g><animate attributeName="display" repeatCount="1" dur="1.6s" keyTimes="0;0.225;1" values="none;inline;none"/></g><g><g id="Symbol_10" transform="matrix(1 0 0 1 39.9 12.7)"><animateTransform attributeName="transform" additive="replace" type="translate" dur="1.6s" keyTimes="0;0.175;0.25;0.325;1" values="43.5,29.347;43.5,29.347;50.007,29.35;50,29.35;50,29.35"/><animateTransform attributeName="transform" additive="sum" type="scale" dur="1.6s" keyTimes="0;0.175;0.25;0.325;1" values="0.325,0.325;0.325,0.325;1.06,1.06;1,1;1,1"/><animateTransform attributeName="transform" additive="sum" type="translate" dur="1.6s" keyTimes="0;0.175;0.25;1" values="-10.15,-16.6;-10.15,-16.6;-10.1,-16.65;-10.1,-16.65"/><path fill="#000" fill-opacity="0.318" d="M8.975,8.5Q8.721,6.674 8.4,5.1 7.85,2.5 6.9,1.25 5.2,-0.95 2.55,0.8 1.95,1.15 0.9,3 0.105,4.507 0.325,8.5 0.369,9.278 0.45,10.15 0.4,13.5 0.45,18 0.55,20.45 0.65,25 0.75,29.45 3.85,31.55 7.05,33.65 11.45,33.3 13.55,33.15 13.75,33.1 21.3,31.75 20.05,28 18.75,24.2 16.2,24.45 13.7,24.6 11.8,24.65 10,24.65 9.9,21.3 9.7,18 9.7,16.6 9.469,12.069 8.975,8.5"/><path fill="#B32F3C" d="M7.9,2.2Q6.1,-1 2.85,1.3 -0.45,3.55 0.05,8.9 0,12.25 0.05,16.75 0.15,19.2 0.25,23.75 0.35,28.2 3.45,30.3 6.65,32.4 11.05,32.05 16.4,31.65 16.95,31.3 20.5,29.8 19.4,26.4 18.35,22.95 15.8,23.2 13.3,23.35 11.4,23.4 9.6,23.4 9.5,20.05 9.35,17.25 9.3,15.8 9.3,15.75 9.3,15.7 9.65,5.4 7.9,2.2"/></g><animate attributeName="display" repeatCount="1" dur="1.6s" keyTimes="0;0.175;1" values="none;inline;none"/></g><g><g id="Symbol_9" transform="matrix(1 0 0 1 9.05 13.05)" opacity="1"><animateTransform attributeName="transform" additive="replace" type="translate" dur="1.6s" keyTimes="0;0.125;0.2;0.275;1" values="22.4,35.197;22.4,35.197;22.4,35.195;22.4,35.2;22.4,35.2"/><animateTransform attributeName="transform" additive="sum" type="scale" dur="1.6s" keyTimes="0;0.125;0.2;0.275;1" values="0.24,0.24;0.24,0.24;1.045,1.045;1,1;1,1"/><animateTransform attributeName="transform" additive="sum" type="translate" dur="1.6s" keyTimes="0;0.125;0.2;1" values="-13.35,-22.1;-13.35,-22.1;-13.35,-22.15;-13.35,-22.15"/><animate attributeName="opacity" dur="1.6s" keyTimes="0;0.125;0.2;1" values="0;0;1;1"/><path fill="#000" fill-opacity="0.318" d="M15.05,12.1Q14.9,11.5 13.85,7.95 17.85,6.1 16.5,3.55 15.1,0.95 7.35,3.2 5.05,3.85 3.5,4.6 -0.2,6.35 0.25,8.45 0.85,11.4 2.85,11.3 3.2,11.3 3.5,11.25 4.85,11.15 5.1,10.8L10.55,32.7Q11.8,37.55 12.65,40.3 12.7,40.6 12.45,39.7 10,40.55 10.75,43.05 11.5,45.5 19.5,43.15 27.45,40.8 26.55,38.15 25.65,35.5 22.6,37.3 22.05,34.75 21.1,31.95 18.35,23.5 18.25,23.15 18.065,22.076 17.35,19.85 17.111,19.071 16.8,18.15 16.35,16.9 16.05,15.75 15.5,14.05 15.2,12.65 15.1,12.4 15.05,12.1"/><path fill="#B32F3C" d="M15.1,10.35Q15,10.1 14.95,9.8 14.8,9.2 13.85,6.75 17.9,5.45 16.45,2.05 15,-1.35 7.25,0.9 -0.5,3.15 0.05,6.7 0.55,10.2 3.65,10.05 4.5,10 5,10L10.45,30.4Q11.7,35.25 12.55,38 12.6,38.3 12.35,37.4 9.9,38.25 10.45,41.6 11.05,44.85 19.45,42.25 27.75,39.6 26.55,36.75 25.3,33.85 22.5,35 21.95,32.45 21,29.65 18.25,21.2 18.15,20.85 18.079,20.436 17.925,19.85 17.557,18.386 16.7,15.85 15.6,12.65 15.1,10.35"/></g><animate attributeName="display" repeatCount="1" dur="1.6s" keyTimes="0;0.125;1" values="none;inline;none"/></g><g><g id="Symbol_8" transform="matrix(1 0 0 1 106.9 52.5)"><animateTransform attributeName="transform" additive="replace" type="translate" dur="1.6s" keyTimes="0;0.575;0.65;0.75;1" values="109,60.3;109,60.3;111.25,56.119;111,56.7;111,56.7"/><animateTransform attributeName="transform" additive="sum" type="scale" dur="1.6s" keyTimes="0;0.575;0.65;0.75;1" values="1,1;1,1;1,1.04;1,1;1,1"/><animateTransform attributeName="transform" additive="sum" type="translate" dur="1.6s" keyTimes="0;0.575;0.65;0.75;1" values="-4.1,-4.2;-4.1,-4.2;-4.1,-4.25;-4.1,-4.2;-4.1,-4.2"/><path fill="#AE5151" d="M2.75,7.75Q7.35,6.45 7.95,5 8.6,3.5 7.6,3 6.55,2.35 5.85,3.05 6.6,-0.2 4.25,0 1.85,0.15 0.65,5.9 0.3,7.5 0,8.45 2.6,7.8 2.75,7.75"/></g><animate attributeName="display" repeatCount="1" dur="1.6s" keyTimes="0;0.575;1" values="none;inline;none"/></g><g><g id="Symbol_7" transform="matrix(1 0 0 1 92.95 46.3)"><animateTransform attributeName="transform" additive="replace" type="translate" dur="1.6s" keyTimes="0;0.575;0.65;0.75;1" values="96.4,56.05;96.4,56.05;98.3,51.695;98,52.45;98,52.45"/><animateTransform attributeName="transform" additive="sum" type="scale" dur="1.6s" keyTimes="0;0.575;0.65;0.75;1" values="1,1;1,1;1,1.04;1,1;1,1"/><animateTransform attributeName="transform" additive="sum" type="translate" dur="1.6s" keyTimes="0;1" values="-5.05,-6.15;-5.05,-6.15"/><path fill="#D86370" d="M4.25,0Q0.45,0.15 0.25,6.8 0.15,10.1 0,12.35 0.25,12.2 0.6,12.15 8.5,9.6 9.75,7.3 10.95,5.1 8.4,4.4 7.15,4.1 6.6,4.8 7.2,-0.15 4.25,0"/></g><animate attributeName="display" repeatCount="1" dur="1.6s" keyTimes="0;0.575;1" values="none;inline;none"/></g><g><g id="Symbol_6" transform="matrix(1 0 0 1 72 49.4)"><animateTransform attributeName="transform" additive="replace" type="translate" dur="1.6s" keyTimes="0;0.575;0.65;0.75;1" values="79.85,60.2;79.85,60.2;79.25,56.136;79.05,56.6;79.05,56.6"/><animateTransform attributeName="transform" additive="sum" type="scale" dur="1.6s" keyTimes="0;0.575;0.65;0.75;1" values="1,1;1,1;1,1.04;1,1;1,1"/><animateTransform attributeName="transform" additive="sum" type="translate" dur="1.6s" keyTimes="0;1" values="-7.05,-7.2;-7.05,-7.2"/><path fill="#AE5151" d="M0.75,14.4Q3.6,14 9.5,12.5 15.4,10.95 13.7,6.1 12.1,1.6 7.2,5 8.05,2.9 6.45,1.05 4.8,-0.9 1.9,0.7 -1.1,2.25 0.6,13.6 0.75,13.95 0.75,14.4"/></g><animate attributeName="display" repeatCount="1" dur="1.6s" keyTimes="0;0.575;1" values="none;inline;none"/></g><g><g id="Symbol_5" transform="matrix(1 0 0 1 61.95 47.6)"><animateTransform attributeName="transform" additive="replace" type="translate" dur="1.6s" keyTimes="0;0.575;0.65;0.75;1" values="63.55,51.2;63.55,51.2;61.8,46.75;61.95,47.6;61.95,47.6"/><animateTransform attributeName="transform" additive="sum" type="scale" dur="1.6s" keyTimes="0;0.575;0.65;0.75;1" values="1,1;1,1;1,1.04;1,1;1,1"/><path fill="#D86370" d="M0.2,0.95Q-0.55,2.35 1.85,3.85 3,4.6 3.8,5.1 3.8,5 3.85,4.8 4.6,1.45 4,0.45 3.45,-0.4 2.65,0.35 2.3,0.7 2.45,1.05 0.75,-0.2 0.2,0.95"/></g><animate attributeName="display" repeatCount="1" dur="1.6s" keyTimes="0;0.575;1" values="none;inline;none"/></g><g><g id="Symbol_4" transform="matrix(1 0 0 1 48.1 53.6)"><animateTransform attributeName="transform" additive="replace" type="translate" dur="1.6s" keyTimes="0;0.575;0.65;0.75;1" values="54.6,61.65;54.6,61.65;52.7,57.527;53,58.05;53,58.05"/><animateTransform attributeName="transform" additive="sum" type="scale" dur="1.6s" keyTimes="0;0.575;0.65;0.75;1" values="1,1;1,1;1,1.04;1,1;1,1"/><animateTransform attributeName="transform" additive="sum" type="translate" dur="1.6s" keyTimes="0;1" values="-4.9,-4.45;-4.9,-4.45"/><path fill="#AE5151" d="M5,7.8Q7.95,8.5 9.85,8.9 9.8,8.65 9.85,8.45 9.75,2.05 8.05,0.75 6.4,-0.6 5.35,0.55 4.2,1.7 4.9,2.85 0.9,0.75 0.1,3.6 -0.75,6.5 5,7.8"/></g><animate attributeName="display" repeatCount="1" dur="1.6s" keyTimes="0;0.575;1" values="none;inline;none"/></g><g><use xlink:href="#Symbol_2" transform="matrix(1 0 0 1 126.65 42.5)"><animateTransform attributeName="transform" additive="replace" type="translate" dur="1.6s" keyTimes="0;0.45;0.975;1" values="132.4,48.651;132.4,48.651;132.4,48.65;132.4,48.65"/><animateTransform attributeName="transform" additive="sum" type="rotate" dur="1.6s" keyTimes="0;0.45;0.975;1" values="0,0,0;0,0,0;360,0,0;360,0,0"/><animateTransform attributeName="transform" additive="sum" type="scale" dur="1.6s" keyTimes="0;0.45;0.975;1" values="0.431,0.431;0.431,0.431;1,1;1,1"/><animateTransform attributeName="transform" additive="sum" type="translate" dur="1.6s" keyTimes="0;0.45;0.975;1" values="-5.8,-6.15;-5.8,-6.15;-5.75,-6.15;-5.75,-6.15"/></use><animate attributeName="display" repeatCount="1" dur="1.6s" keyTimes="0;0.45;1" values="none;inline;none"/></g><g><use xlink:href="#Symbol_2" transform="matrix(1 0 0 1 15.05 9.5)"><animateTransform attributeName="transform" additive="replace" type="translate" dur="1.6s" keyTimes="0;0.225;0.975;1" values="20.8,15.662;20.8,15.662;20.8,15.65;20.8,15.65"/><animateTransform attributeName="transform" additive="sum" type="rotate" dur="1.6s" keyTimes="0;0.225;0.975;1" values="0,0,0;0,0,0;720,0,0;720,0,0"/><animateTransform attributeName="transform" additive="sum" type="scale" dur="1.6s" keyTimes="0;0.225;0.975;1" values="0.405,0.405;0.405,0.405;1,1;1,1"/><animateTransform attributeName="transform" additive="sum" type="translate" dur="1.6s" keyTimes="0;0.225;0.975;1" values="-5.8,-6.2;-5.8,-6.2;-5.75,-6.15;-5.75,-6.15"/></use><animate attributeName="display" repeatCount="1" dur="1.6s" keyTimes="0;0.225;1" values="none;inline;none"/></g></g></g></svg>