<?xml version="1.0" encoding="utf-8"?>
<!-- Generator: Adobe Illustrator 19.2.0, SVG Export Plug-In . SVG Version: 6.00 Build 0)  -->
<svg version="1.1" id="_x31_008" image-rendering="auto"
	 xmlns="http://www.w3.org/2000/svg" xmlns:xlink="http://www.w3.org/1999/xlink" x="0px" y="0px" width="660px" height="660px"
	 viewBox="0 0 660 660" enable-background="new 0 0 660 660" xml:space="preserve">
<g opacity="0.25">
	<path fill="#332C2A" d="M644.2,317.1c7.6-15.8,11.4-32.7,11.4-50.5c0-7.2-0.1-11.9-0.2-14.2c-0.4-5.6-1.3-10.4-2.8-14.6
		c-2.4-6.7-6.5-13.3-12.4-19.8c7.7-12,11.8-33.6,12.2-65c0.3-35.1-6.3-64.5-19.5-88.3c-13.3-23.7-42.3-39-87-45.9
		c-11.5-1.9-23.1-2.4-34.8-1.6c-17.6,0.7-33.9,2.3-49.1,4.8c-0.4-0.3-0.8-0.5-1.2-0.6c-18.4-8.8-41.1-13.8-68.3-15.1
		c-25.3-1.2-49.5,0.8-72.9,6.1c-15.3,3.6-27.9,8.1-37.7,13.4c-12.7-5.6-28.6-10.8-47.7-15.6C215.1,5.6,194,4.5,171,7.2
		c-23,2.5-46.2,8.7-69.7,18.5c-23.5,9.8-44.7,26.5-63.5,49.9C19,98.7,8.7,121.5,7.1,144.3c-0.5,6.1-1.4,14.1-2.6,24
		c-1.9,16.8-1.9,33,0,48.7c2,17,5.5,33.7,10.6,50.1c5.1,16.5,7.6,27.8,7.6,33.9c0,12.8-2.9,26.9-8.8,42.3
		c-5.9,15.4-8.8,36.8-8.8,64.3c0,28.9,4.3,52.1,12.8,69.8c8.4,17.7,13.7,29.2,15.9,34.4c2.3,5-2.3,14.1-13.5,27.3
		C9,552.1,5.2,570.5,9.1,594.3c3.9,24,15.7,40.2,35.6,48.7c19.8,8.4,55,12.1,105.8,11c50.6-1.2,81-1.9,91.4-2
		c10.3-0.3,52.9-0.3,128-0.2c74.9,0,128.2,0.4,159.8,1.2c31.7,0.7,54.3-1.1,67.9-5.4c25.7-8.1,41.5-19.8,47.5-35
		c4.1-10,6.8-19.2,8.1-27.7c1.3-8.7,0.7-18.2-1.8-28.5c-2.5-10.4-6.2-21.7-11-33.8c-4.8-12.1-6-23.4-3.6-33.9
		c2.4-10.5,3.7-16.5,3.8-17.8c0.3-2.7,2.5-9.3,6.8-20c2-5.2,3.5-10.3,4.6-15.3c1.1-5.5,1.6-10.8,1.6-16c0-6.6-0.9-13.8-2.8-21.6
		c-1.7-6.9-4.3-14.3-7.6-22.1c-7.1-16.4-10.6-27-10.6-31.9c0-2,3.4-9.9,10.2-23.8C643.2,319.3,643.7,318.2,644.2,317.1z"/>
	<path fill="#332C2A" d="M658.9,273.6c-0.1-0.1-0.3-0.3-0.4-0.5c-0.3,0.1-0.3,0.2,0,0.3c0,0.1,0,0.3,0,0.4
		C658.7,273.7,658.8,273.6,658.9,273.6z"/>
</g>
</svg>
