<?xml version="1.0" encoding="utf-8"?>
<!-- Generator: Adobe Illustrator 19.2.0, SVG Export Plug-In . SVG Version: 6.00 Build 0)  -->
<svg version="1.1" id="_x31_004" image-rendering="auto"
	 xmlns="http://www.w3.org/2000/svg" xmlns:xlink="http://www.w3.org/1999/xlink" x="0px" y="0px" width="1020px" height="660px"
	 viewBox="0 0 1020 660" enable-background="new 0 0 1020 660" xml:space="preserve">
<g opacity="0.25">
	<path fill="#332C2A" d="M985.6,590.5c-0.3-0.3-0.5-0.5-0.6-0.6h-0.2L985.6,590.5z"/>
	<path fill="#332C2A" d="M915.1,431.6c-0.1-0.3-0.3-0.3-0.4,0l0.2,0.2L915.1,431.6z"/>
	<path fill="#332C2A" d="M989,593.1c-0.5-0.5-1.4-1.2-2.6-2c-0.1-0.1-0.3-0.2-0.4-0.2c-3.6-2.1-5.9-4.6-6.8-7.4
		c-0.3-0.7-0.4-1.3-0.4-2v-1.2l0.8-5c0.5-1.9,1.3-3.9,2.4-6c1.3-2.5,3.7-7.1,7.2-13.6l2.2-5.2c17.2-39.9,16.8-74.4-1.4-103.4
		c-0.3-0.4-0.5-0.7-0.8-1c-20.6-24.8-39.5-29.5-56.9-13.8h-17.6c0-0.1,0-0.3,0-0.6c0.4-18.8-3.3-34.1-11.2-45.9
		c9.1-6,27.2-13,54.3-20.8c22.6-9.1,33.9-21.9,33.9-38.5c0-15.2-8-36.9-24-65.1c-16-28.1-24-43.8-24-47.1
		c12.6-7.9,18.1-14.6,16.6-20.2c-1.6-5.7-2.9-10.4-3.8-14c-1.1-3.6-1.6-6.1-1.6-7.4c0-2.8,3.2-4.5,9.6-5.2c6.4-0.8,7.5-6.5,3.2-17.2
		c-10.3-16.4-17.9-27.2-22.8-32.3c-10.2-10.3-25-19.3-44.5-27.1c3.6-19,1.8-33.5-5.4-43.7c-7.2-10.2-18.7-14.4-34.5-12.6
		c-2.3,0.1-4.2,0.3-5.8,0.6c-0.5-0.3-0.8-0.5-0.8-0.8C839.7,6.8,817-2.4,785.6,6.6c-8,1.7-16.7,10.8-26.1,27.3
		c-9.5,16.3-24.3,19.1-44.5,8.4c-20.2-10.7-31.1-10-32.9,2h-1.6c-24.6,0.8-41.5,5.8-50.7,15c-0.4,0.3-0.7,0.6-1,1
		c-1.1,1.2-2,2.6-2.8,4.2c-0.3,0.5-0.5,1.2-0.8,2c-0.7,1.6-1.2,3.4-1.6,5.4c-0.3,1.2-0.5,2.3-0.6,3.4v0.4c-0.1,0.7-0.1,1.3,0,1.8
		l-0.6,7.6c0,0.3,0,0.5,0,0.8v1.6c0,1.5,0.1,3,0.2,4.6c1.2,7.9,1.8,12,1.8,12.2c0,7.3-1.1,11.9-3.2,13.6c-1.3,1.1-5.1,1.7-11.2,1.8
		c-6.1,0-10.1-5.1-11.8-15.4c-1.9-10.3-5.3-17.4-10.2-21.4c-5.1-4-13-8.1-23.6-12.2c-10.8-4.1-18.6-6.5-23.2-7.2
		c-13.5-1.9-31.9-2.8-55.1-2.8c-31.1,0-49.6-0.1-55.5-0.4c3.2-6.5,0.9-15-7-25.5c-8-10.4-19.5-16.5-34.5-18.2
		c-15.1-1.7-25.9,1.5-32.5,9.6c-6.5,8-9.2,21-7.8,38.9c-19.5,0-36.5,1.9-50.9,5.6c-14.4,3.7-25.3,5.6-32.5,5.6
		c-3.3,0-12-2.1-26.1-6.4s-24-6.4-30.1-6.4c-1.9-16-3.9-26.5-6.2-31.3c-4.3-9.1-12.1-13.6-23.4-13.6c-9.9,0-22.9,4.3-39.1,12.8
		c-16.2,8.6-25.3,12.8-27.5,12.8C102.7,29.4,90.5,20,76.6,16c-14-4.3-24.6-4.7-31.7-1.2c-7.1,3.3-12.2,6.3-15.4,9
		c-0.5,0.7-1.6,1.7-3.2,3c-5.2,5.3-8.6,12-10,19.8c-1.9,30.5,4.8,56.2,20,77.4c8.4,10.7,14.2,18.3,17.4,22.8c5.3,7.7,8,14.4,8,20
		c0,1.5-0.5,5.5-1.6,12c-1.1,6.4-1.6,11-1.6,13.6c0,13.5,3.2,27.2,9.6,41.1c4,8.6,6.7,14.6,8.2,18c-2.4,2.3-5.7,5.7-10,10.4
		c-11.4,12-19,28.9-22.8,50.7c-4,21.8-4,40.3,0,55.7c3.3,13.2,8.9,23,16.6,29.3c-3.1,0.9-7.2,3.2-12.4,6.8
		c-10,6.9-17.6,19-22.8,36.1c-5.3,17.1-7.5,36.9-6.4,59.5c1.1,22.6,1.6,39.7,1.6,51.5c-1.3,34.7-0.7,57.8,1.8,69.1
		c2.4,11.4,8,19.1,16.8,23.2c3.5,1.6,7.3,3.1,11.4,4.4c0.4,0.1,6.2,1,17.4,2.6c11.1,1.5,25.3,0.7,42.7-2.2
		c17.2-2.9,26.7-7.5,28.5-13.8c1.3,0.7,3.5,1.8,6.6,3.4c7.2,3.9,14.8,6.9,22.6,9.2c7.7,2.3,19.8,4.5,36.3,6.8
		c16.3,2.3,35.1,1.1,56.3-3.6c21.1-4.7,32.1-7,32.9-7s9,2.4,24.4,7.2c16.7,4.8,31.4,5.8,44.1,3c12.6-2.9,21.2-5.8,25.9-8.6
		c4.7-3.1,7.5-4.9,8.6-5.6c19.4,12.4,41.1,18,65.3,16.8c24.2-1.2,42-4.4,53.3-9.6c1.2-0.7,2.3-1.2,3.4-1.6c1.1,1.3,4.4,2.9,10,4.6
		c11.2,3.5,25.4,2.1,42.5-4.2c17-6.4,34.9-6.5,53.7-0.4s33.4,8.1,43.7,6c9.5-1.9,19-6.9,28.5-15.2c0.5-0.5,1.1-1,1.6-1.4
		c5.3,8,19,14.1,41.1,18.2c22,4,39.2,3.1,51.5-2.6c12.2-5.7,19.7-10.7,22.6-14.8c2.7,3.3,13.2,6.2,31.7,8.6
		c22,2.9,43.3,4.2,63.7,3.8c33.4-2.4,54.2-4.1,62.3-5c8-0.9,13.4-3.9,16.2-8.8l0.2-0.2c12.4-15.9,13-29.4,1.6-40.5
		C989.3,593.4,989.2,593.3,989,593.1z"/>
</g>
</svg>
