<?xml version="1.0" encoding="utf-8"?>
<!-- Generator: Adobe Illustrator 19.2.0, SVG Export Plug-In . SVG Version: 6.00 Build 0)  -->
<svg version="1.1" id="_x31_019" image-rendering="auto"
	 xmlns="http://www.w3.org/2000/svg" xmlns:xlink="http://www.w3.org/1999/xlink" x="0px" y="0px" width="660px" height="660px"
	 viewBox="0 0 660 660" enable-background="new 0 0 660 660" xml:space="preserve">
<path opacity="0.25" fill="#332C2A" d="M628.4,288.2c0-10.5,4.2-21.2,12.6-32.1s12.6-18.4,12.6-22.6c0-7.5-2.7-12.3-8.1-14.6
	c-3.4-1.3-9.4-1.8-17.9-1.4c-8.8,0.5-14.8,0.2-17.9-1c-5.4-1.8-8.1-6.3-8.1-13.4c0.8-8,1.1-14.2,0.8-18.5
	c-0.5-7.9-3.4-11.8-8.7-11.8c-2.6,0-7.1,1.7-13.4,5.1c-6.4,3.4-10.6,5.1-12.6,5.1c-1.7,0-4.7-2.7-8.9-8.1c-4.1-5.3-6.8-8.3-8.1-9.1
	c-7.7-9.8-18.7-22.9-32.9-39.2c-14.3-16.4-33.3-32.9-57.1-49.6c-26.6-16.5-58-29.5-94.1-38.8c-36.1-9.5-69.5-14.4-100.2-15
	c-28.1-0.7-47.6-0.1-58.7,1.8c-11.2,1.7-19,3-23.4,3.9c-4.5,0.8-6.8,2.1-6.9,3.9c-0.3,1.7,2.2,4.3,7.3,7.9
	c-17.2-4.5-30.7-7-40.6-7.5c-10-0.7-16.7,0.1-20.3,2.2c-3.7,2-4.4,4.8-2.2,8.5c2.2,3.7,6.6,11,13.2,22.1c7,11.6,11.4,18.8,13.2,21.9
	c-1.7,1.1-3.3,2.1-4.9,3.2c-44,14-80.5,36.6-109.5,67.5c2.6,2.6,8.5,5.3,17.7,7.9c3.8,1.1,7.1,2,9.8,3
	C25.5,219.1,7.6,276.4,7.6,341.2c0,83.4,29.3,155.4,87.8,216c58.4,60.5,135.5,87.2,231.4,80.1c95.8-7.2,164.3-32.8,205.4-76.6
	c41.1-43.7,62.7-75.3,65-94.7c5.5-2.4,11.8-5.8,18.9-10.4c17.7-11.4,26.6-23.1,26.6-35c0-25.6-2.4-49.6-7.1-71.9
	C630.8,326.4,628.4,306.2,628.4,288.2z"/>
</svg>
