<?xml version="1.0" encoding="utf-8"?>
<!-- Generator: Adobe Illustrator 19.2.0, SVG Export Plug-In . SVG Version: 6.00 Build 0)  -->
<svg version="1.1" id="_x31_010" image-rendering="auto"
	 xmlns="http://www.w3.org/2000/svg" xmlns:xlink="http://www.w3.org/1999/xlink" x="0px" y="0px" width="660px" height="660px"
	 viewBox="0 0 660 660" enable-background="new 0 0 660 660" xml:space="preserve">
<path opacity="0.25" fill="#332C2A" d="M626.9,457c-7.5-10.4-12.8-17.4-15.8-21c-7-8.3-14.9-15.6-23.8-21.8
	c-6.1-4.6-11.9-8.3-17.6-11.1c12.5-15,22.6-27.1,30.3-36.2c16.8-20.1,29.3-39.6,37.6-58.6c4.9-11.2,8.8-23,11.7-35.4
	c3.7-16.5,5.5-34,5.5-52.5c0-12.3-1.2-26.6-3.6-43c-3.8-28-10.3-52.6-19.4-73.9c-0.8-1.8-1.6-3.7-2.6-5.5
	c-14.4-29.4-40.9-51.9-79.6-67.3c-0.1,0-0.3-0.1-0.4-0.2c-2.6-0.9-5.3-1.9-7.9-3l2.6,1.2C460.8,11.4,381.7,15.2,306.6,40
	c-11.6-2.4-23.6-5.3-35.9-8.8c-51-14.4-91.1-20.9-120.6-19.4c-29.6,1.5-55.3,4.6-77.2,9.5c-21.9,4.9-39.3,18.6-52.3,41.2
	C13.7,74.3,9,97.1,6.2,130.8c-1.7,14.3-2.1,30-1.3,47c0.7,14.4,2.2,29.7,4.8,45.9c3.3,21,5.5,37.4,6.7,49.1
	c1.3,12.3,1.5,19.5,0.6,21.8c-0.7,1.7-1.5,3.8-2.6,6.3c-1.3,4-3.6,13.7-6.7,29.1c-3.3,15.3-2.8,41.2,1.4,77.6
	c4.2,36.3,9.5,62.2,15.8,77.8c6.2,15.4,12.3,29.4,18.4,42c5.9,12.4,8.9,22,8.9,28.7c0,0.3-0.7,6-2,17.2
	c-1.2,13.5-5.8,28.6-13.9,45.5c-8.3,16.9-4.3,26.5,12.1,28.9c32.3,3.2,99.6,4.5,201.8,4c96.4-0.4,162.2-0.8,197.6-1.2
	c3.3,0.1,10.4,0.1,21.4-0.2c0.3,0,1.7,0,4.4,0c2.6,0,15.4,0.2,38.4,0.6c23,0.4,40.4-0.4,52.3-2.4s21.3-4.2,28.3-6.7
	c2.9-1.3,5.7-2.8,8.5-4.4c33.5-18.7,50.3-50.8,50.3-96.2c0-14.1-2-28.5-5.9-43.2C641,481.9,634.8,468.1,626.9,457z"/>
</svg>
