<?xml version="1.0" encoding="utf-8"?>
<!-- Generator: Adobe Illustrator 19.2.0, SVG Export Plug-In . SVG Version: 6.00 Build 0)  -->
<svg version="1.1" id="_x31_007" image-rendering="auto"
	 xmlns="http://www.w3.org/2000/svg" xmlns:xlink="http://www.w3.org/1999/xlink" x="0px" y="0px" width="300px" height="300px"
	 viewBox="0 0 300 300" enable-background="new 0 0 300 300" xml:space="preserve">
<path opacity="0.25" fill="#332C2A" d="M291.7,166.4c-4.2-24.6-38.3-54.3-102.3-89.1c-1.8-1-27.5-14.5-77.2-40.6
	C71.1,14.9,45.6,3.9,35.7,3.6c-17.9-1-27.5,7.3-28.9,24.7c-1,8.4,0.6,16.6,4.7,24.7c3.3,6.7,9.4,17.9,18.2,33.6
	c2.3,5.4,7.4,16.4,15.2,33c6.2,12.9,11,23.6,14.2,32c2.6,7.1,10.1,23.6,22.5,49.5c12.5,25.7,24.1,47.5,34.9,65.2
	c2.4,3.6,4.1,6.4,5.2,8.5c3.6,6.5,10.5,11.2,20.7,14.2c10,3,19.6,1.6,28.8-4.3c9.2-6,17.4-8.1,24.4-6.2c2.1,0.6,5.5,3,10.4,7.2
	c4.8,4.3,11.4,7.4,19.8,9.3c8.2,1.9,15.8-0.8,22.7-8.2c6.7-7.4,10.1-15.3,10.1-23.5s-0.5-16.3-1.5-24.2c-1-8.1-0.8-14.2,0.4-18.3
	c0.5-2.6,7-10,19.4-22.1C289.2,186.7,294.2,175.9,291.7,166.4z"/>
</svg>
