<?xml version="1.0" encoding="utf-8"?>
<!-- Generator: Adobe Illustrator 19.2.0, SVG Export Plug-In . SVG Version: 6.00 Build 0)  -->
<svg version="1.1" id="_x31_024" image-rendering="auto"
	 xmlns="http://www.w3.org/2000/svg" xmlns:xlink="http://www.w3.org/1999/xlink" x="0px" y="0px" width="1020px" height="300px"
	 viewBox="0 0 1020 300" enable-background="new 0 0 1020 300" xml:space="preserve">
<path opacity="0.25" fill="#332C2A" d="M989.4,179.3c-3.2-5.2-9.5-10-18.9-14.5c12.5-5.9,20.3-16.9,23.4-33c3-16.2,0.9-29.9-6.2-41
	c-7.2-11-14.6-18-22.2-21.3c-6.4-2.7-13.4-3.9-20.9-3.7c-0.6-7.3-2.4-14-5.2-19.9c-13.1-27.4-49.2-41.2-108-41.2
	c-30.8,0-58.4,6.1-82.7,18.2c-7.1,3.6-13.6,7.5-19.5,11.8c-11.9,6.2-20.2,13.5-25.1,22c-2.4,4-4.2,7.2-5.2,9.5
	c-0.4,0.8-0.6,1.5-0.8,2.1c-30-10.2-53.6-12.2-70.7-6c-3.6,1.2-9.1,3.5-16.6,7.2c-7.6,3.6-14.9,0.6-22-8.9
	c-7.1-9.5-19.2-19.6-36.3-30.1c-17.1-10.6-32.7-16.6-46.8-18c-14.2-1.4-26.5-1.8-37.1-1.2c-10.6,0.5-19,1-25.3,1.4
	c-6.4,0.4-13.8,1.9-22,4.4c-8.2,2.6-17.7,6.7-28.2,12.4c-4.4,2.3-7.3,4.2-8.9,5.6c-3.5-7.5-9.5-13.6-18.2-18.4
	c-9.8-5.5-25.4-8.2-47-7.9c-21.5,0.3-47.7,3.9-78.7,11c-30.9,7-50.2,13.9-58,20.9c-0.3,0.3-0.5,0.5-0.8,0.6h-0.2
	C161.7,36.4,140,37,116.1,43c-25,6.3-45.5,17.1-61.5,32.3c-12.8,11.9-21.1,25.3-24.9,40.2c-1.7,6.6-3,12.6-3.9,18.2
	c-0.9,5.5-1.5,11-1.9,16.4c-0.4,5.3-0.1,13.3,1,24c0.9,10.7,3,25.3,6.4,43.7c3.3,18.3,12.2,32.6,26.7,42.9
	c14.3,10.3,31.6,16.7,51.8,19.1c20.1,2.3,38.8,1.7,56-1.9c4.5-0.9,8.1-1.9,10.6-2.9c7.3,13.3,26.3,20.1,56.8,20.5
	c37.1,0.6,63.8,0.3,80.2-1.2h143c111.2,7,179.1-5,203.9-35.8c5.5,6.1,11.9,11.3,18.9,15.8c1.4,0.9,2.9,1.8,4.4,2.7
	c14.2,7.9,31.3,12.9,51.4,15.1c32.6,3.5,63.1,3.9,91.4,1.2c28.2-2.7,49.3-9.7,63.4-21.1c18.4,13.1,39.7,15.5,64,7
	c1-0.4,2-0.8,2.9-1.2c0.9-0.4,1.9-0.8,2.9-1.4c8.4-4.4,14.8-10.9,19.3-19.5c2.6-3.9,4.8-8.1,6.8-12.6c5.5-13.3,8.3-24.9,8.3-35
	c0-12.6-0.8-21.3-2.5-25.9C991,182.2,990.3,180.7,989.4,179.3z"/>
</svg>
