<?xml version="1.0" encoding="utf-8"?><svg id="1001" image-rendering="auto" baseProfile="basic" version="1.1" x="0px" y="0px" width="1020" height="660" xmlns="http://www.w3.org/2000/svg" xmlns:xlink="http://www.w3.org/1999/xlink"><g id="op2_l1" overflow="visible" transform="matrix(3.64 0 0 3.64 447.15 242.2)"><g id="7" transform="matrix(1 0 0 1 -111.1 -58.6)"><path fill="none" stroke="#000" stroke-opacity="0.251" stroke-width="2" stroke-linecap="round" stroke-linejoin="round" d="M252.8,23Q250.8,17.6 246.05,13.45 241.35,9.35 237.7,8.05 231.7,5.95 223.9,8.35 221.95,8.9 216.2,12.15 213.35,13.75 211.8,14.85 210.7,13.7 208.95,12.4 204.25,8.85 199.8,7.6 191.35,4.75 183.3,9 183,9.15 182.7,9.35 182.2,9.15 181.75,9 178.35,7.75 174.75,6.65L163.65,3.65Q146.65,0 127.8,0 102.2,0 80.15,6.8L73.9,8.95Q62.75,12.8 57.4,15.3 54.2,16.75 53.45,17.2 51,14.85 47.55,13.35 40.6,10.2 31.6,14.2 28.5,15.55 24.75,18.95 23.35,20.2 22.45,21.3 20.7,20.45 13.9,21.6 7.25,22.6 2.8,27.45 -0.7,31.3 0.15,40.4 0.95,49.45 15.65,54.15 16.35,54.35 17.05,54.55 15.1,57.7 13.5,60.8 6.05,75.4 4.65,85.4 3.2,95.4 3.35,97.65 3.4,99.9 3.45,102.55 3.7,112.75 7.25,123.3 7.25,123.25 7.4,123.25 7.75,124.65 8.25,126.05 11.25,134.75 17.4,140.85 23.55,146.95 29.5,150 33.2,151.9 34.25,152.3 31.4,153 31.05,157.2 30.65,160.95 35.95,161.75L38.05,161.85Q38.1,161.85 38.15,161.85L40.05,161.9Q40.35,161.95 40.7,161.95L46.3,162.15Q49.25,162.25 52.6,162.4 53.2,162.45 53.8,162.45L227.45,163.2Q230.15,163.15 233.05,162.9 235.95,162.65 236.25,159.3 236.55,155.95 233.05,155.05 229.5,154.15 230.1,152.1 230.7,150.05 240.7,138.6 250.7,127.15 252,108 253.45,86.35 245.7,62.9 243.1,55.4 239.1,48.9 242.7,48.65 245.25,47.75 254.3,44.6 254.3,32.4 254.3,27.1 252.8,23"/><path fill="#FFF" d="M252.8,23Q250.8,17.6 246.05,13.45 241.35,9.35 237.7,8.05 231.7,5.95 223.9,8.35 221.95,8.9 216.2,12.15 213.35,13.75 211.8,14.85 210.7,13.7 208.95,12.4 204.25,8.85 199.8,7.6 191.35,4.75 183.3,9 183,9.15 182.7,9.35 182.2,9.15 181.75,9 178.35,7.75 174.75,6.65L163.65,3.65Q146.65,0 127.8,0 102.2,0 80.15,6.8L73.9,8.95Q62.75,12.8 57.4,15.3 54.2,16.75 53.45,17.2 51,14.85 47.55,13.35 40.6,10.2 31.6,14.2 28.5,15.55 24.75,18.95 23.35,20.2 22.45,21.3 20.7,20.45 13.9,21.6 7.25,22.6 2.8,27.45 -0.7,31.3 0.15,40.4 0.95,49.45 15.65,54.15 16.35,54.35 17.05,54.55 15.1,57.7 13.5,60.8 6.05,75.4 4.65,85.4 3.2,95.4 3.35,97.65 3.4,99.9 3.45,102.55 3.7,112.75 7.25,123.3 7.25,123.25 7.4,123.25 7.75,124.65 8.25,126.05 11.25,134.75 17.4,140.85 23.55,146.95 29.5,150 33.2,151.9 34.25,152.3 31.4,153 31.05,157.2 30.65,160.95 35.95,161.75L38.05,161.85Q38.1,161.85 38.15,161.85L40.05,161.9Q40.35,161.95 40.7,161.95L46.3,162.15Q49.25,162.25 52.6,162.4 53.2,162.45 53.8,162.45L227.45,163.2Q230.15,163.15 233.05,162.9 235.95,162.65 236.25,159.3 236.55,155.95 233.05,155.05 229.5,154.15 230.1,152.1 230.7,150.05 240.7,138.6 250.7,127.15 252,108 253.45,86.35 245.7,62.9 243.1,55.4 239.1,48.9 242.7,48.65 245.25,47.75 254.3,44.6 254.3,32.4 254.3,27.1 252.8,23"/></g><g id="op_l1"><g mask="url(#mask_)"><g id="6_l1" transform="matrix(1 0 0 1 -99.45 -50.6)"><path fill="#E69A88" d="M198.3,92.2Q198.3,60.75 173.45,38.6 148.7,16.45 113.65,16.45 78.55,16.45 53.75,38.6 29,60.75 29,92.2 29,119.8 48.15,140.3L179.1,140.3Q198.3,119.8 198.3,92.2"/><g id="k" transform="matrix(1 0 0 1 0 0)"><animateTransform attributeName="transform" additive="replace" type="translate" dur="2.25s" keyTimes="0;0.63;1" values="115.449,79.405;115.45,74.2;115.45,74.2"/><animateTransform attributeName="transform" additive="sum" type="scale" dur="2.25s" keyTimes="0;0.63;1" values="0.859,0.859;1,1;1,1"/><animateTransform attributeName="transform" additive="sum" type="translate" dur="2.25s" keyTimes="0;1" values="-115.45,-74.2;-115.45,-74.2"/><path fill="#DE765C" d="M198.6,27.15Q184.1,15.55 164.45,8.35 161.35,7.15 158.1,6.15L148.1,3.4Q132.75,0 115.6,0 92.5,0 72.55,6.3L66.85,8.3Q50.9,13.9 38.5,22.25 26.05,30.55 16.2,43.55 6.6,56.25 3.8,68.05 -7.75,108.55 15.85,128.95 39.35,149.35 47.5,145.65L200.9,148.4Q211.75,141.6 218.5,129.9 242.4,88.75 220.4,51.15 213.1,38.7 198.6,27.15 M198.3,92.2Q198.3,119.8 179.1,140.3L48.15,140.3Q29,119.8 29,92.2 29,60.75 53.75,38.6 78.55,16.45 113.65,16.45 148.7,16.45 173.45,38.6 198.3,60.75 198.3,92.2"/></g></g></g><g mask="url(#mask_)"><g id="8_l1" transform="matrix(1 0 0 1 -35.25 -8.4)"><g id="16" transform="matrix(1 0 0 1 9 75.3)"><path fill="#4E2931" d="M86.1,23.3L86.65,23.3 84.1,6.7 84,6.7 89.35,2.3Q81.35,1.15 73.2,0.55L50.75,0Q50.45,0 50.1,0 41.05,0.2 31.85,1.05L15.2,3.15Q7.7,4.3 0.1,5.9 0.05,5.9 0,5.9L3.85,10.1Q5.3,9.85 6.75,9.6L0.95,23.1 2.2,23.1 13.9,8.35Q15.55,8.1 17.2,7.85L15.8,11.65 15.75,11.65 14.35,15.5 14.75,15.55 14.75,15.6 14.65,15.6 14.45,16.1 14.4,16.15Q16.75,17.9 19.3,18.95 19.45,18.9 19.6,18.85 19.8,18.75 19.9,18.2 19.95,17 18.2,16.55L18,16.6Q17.4,16.15 17.15,15.85L17.45,15.85 17.4,15.8 17.55,15.8 17.55,15.85Q17.551,15.8 17.6,15.8L17.65,15.8 17.65,15.65Q17.7,15.3 18.8,11.65L18.75,11.65Q19.3,9.85 20.05,7.45 25.55,6.65 30.85,6.15 30.75,6.8 30.7,7.4L30.65,7.4Q30.55,8.05 30.5,8.65L30.4,9.75Q30.3,10.2 30.25,10.55L30.3,10.55Q30.2,11.05 30.2,11.3 30,13.55 29.7,14.75L29.7,14.8 30.55,14.8 30.35,15.85 30.35,15.9Q33.1,17 35.9,17.3 35.95,17.2 36.1,17.15 36.25,16.95 36.25,16.4 35.95,15.35 34.15,15.35L34.05,15.4Q33.15,15.1 32.9,14.8L33.2,14.8Q33.1,14.5 33,14 32.85,12.8 33.35,6.4 33.35,6.15 33.4,5.9 42.65,5 51.35,4.85L51.6,5.05Q51.7,5.6 51.7,6.35 51.9,7.5 52.05,9 52.65,13.05 52.55,14.95 52.5,15.45 52.4,15.8L52.3,15.8 52.1,16.3Q52,16.45 51.85,16.65 51.85,16.75 51.8,16.85 51.5,17.05 50.9,17.25L50.75,17.15Q49,17.15 48.7,18.3 48.7,18.8 48.9,19.05 49,19.1 49.1,19.2 51.7,18.85 54.3,17.85 55.85,17.85 57.5,17.6L57.5,17.55 57.75,15.7 57.7,15.65Q57.7,15.6 57.75,15.55 57.95,14.3 58.4,12.15 59,9.65 59.65,7L59.95,5.7Q59.8,6.15 60.1,4.85 69.6,5.05 78.4,6.1L86.1,23.3 M57.85,5.9Q57.7,7.05 57.5,8.6 57,12.6 56.35,14.4 56.2,14.9 56.05,15.2L55.9,15.15 55.6,15.65 55.75,15.75Q55.7,15.8 55.65,15.8 55.6,15.75 55.45,15.9 55.15,16.1 54.25,16.25L54.2,15.8 54.15,15.8 54.15,15.75Q53.95,14.5 53.9,12.25 53.8,9.7 53.75,6.95L53.65,5.6Q53.65,6.1 53.55,4.8 55.8,4.8 58.05,4.8 58,5.35 57.85,5.9"/></g><g id="12" transform="matrix(1 0 0 1 22.85 49.75)"><animateTransform attributeName="transform" additive="replace" type="translate" dur="2.25s" keyTimes="0;1" values="32.4,78.45;32.4,78.45"/><animateTransform attributeName="transform" additive="sum" type="rotate" dur="2.25s" keyTimes="0;0.074;0.574;1" values="-3.986,0,0;-3.986,0,0;0,0,0;0,0,0"/><animateTransform attributeName="transform" additive="sum" type="skewY" dur="2.25s" keyTimes="0;0.074;0.574;1" values="3.986;3.986;0;0"/><animateTransform attributeName="transform" additive="sum" type="scale" dur="2.25s" keyTimes="0;0.074;0.574;1" values="1,1.002;1,1.002;1,1;1,1"/><animateTransform attributeName="transform" additive="sum" type="scale" dur="2.25s" keyTimes="0;0.574;0.575;1" values="0.998,1;0.998,1;1,1;1,1"/><animateTransform attributeName="transform" additive="sum" type="translate" dur="2.25s" keyTimes="0;1" values="-9.55,-28.7;-9.55,-28.7"/><path fill="#4E2931" d="M18,24.6L19.1,24.5Q18.9,23.85 18.7,23.1 18.5,17.8 17.6,12.7 16.15,8.15 12.25,1.4 11.75,0.65 11.8,0L6.9,1.1Q0.95,12.95 0.5,24.3L0,25.9 1.85,25.8 1.9,25.85Q1.65,27.15 1.35,28.7 10.725,34.139 18,26.6 18.1,25.45 18,24.6"/></g><g id="15" transform="matrix(1 0 0 1 59.75 45.35)"><animateTransform attributeName="transform" additive="replace" type="translate" dur="2.25s" keyTimes="0;1" values="71,75.85;71,75.85"/><animateTransform attributeName="transform" additive="sum" type="rotate" dur="2.25s" keyTimes="0;0.074;0.574;1" values="9.675,0,0;9.675,0,0;0,0,0;0,0,0"/><animateTransform attributeName="transform" additive="sum" type="skewY" dur="2.25s" keyTimes="0;0.074;0.574;1" values="-9.675;-9.675;0;0"/><animateTransform attributeName="transform" additive="sum" type="scale" dur="2.25s" keyTimes="0;0.074;0.574;1" values="1,1.014;1,1.014;1,1;1,1"/><animateTransform attributeName="transform" additive="sum" type="scale" dur="2.25s" keyTimes="0;0.574;0.575;1" values="0.986,1;0.986,1;1,1;1,1"/><animateTransform attributeName="transform" additive="sum" type="translate" dur="2.25s" keyTimes="0;1" values="-11.25,-30.5;-11.25,-30.5"/><path fill="#4E2931" d="M13.9,4.75Q13.4,3.65 13.1,3 12.6,2.05 10.9,0L5.3,0.95 5.3,8.55Q5.55,14.85 5.1,19.4 5.05,19.4 5.05,19.45 4.9,19.75 4.85,19.9 4.85,19.95 4.65,20.7 4.8,20.25 5.05,19.75 5,20 5,20.2 4.6,21.1 4.25,22 4.15,22.15 4.1,22.2 4.05,22.55 3.85,22.85 3.75,23.2 3.55,23.5 3.4,23.95 3.25,24.3L3.45,23.9 3.4,24.15Q3.25,24.3 3.05,24.7 1.7,27.85 0.95,29.9 0.45,29.9 0,29.95 11.999,37.675 22.45,30.5 22.45,30.35 22.4,30.2 22.75,28.7 21.6,26.05 21.2,24.4 20.8,22.85 18.9,17.2 18.85,17.05 18.6,16.45 18.35,15.85 15.25,8 13.9,4.75"/></g><g id="14" transform="matrix(1 0 0 1 56.05 47.25)"><animateTransform attributeName="transform" additive="replace" type="translate" dur="2.25s" keyTimes="0;0.074;0.574;1" values="69.181,49.446;69.181,49.446;64.95,51.45;64.95,51.45"/><animateTransform attributeName="transform" additive="sum" type="rotate" dur="2.25s" keyTimes="0;0.074;0.574;1" values="14.163,0,0;14.163,0,0;0,0,0;0,0,0"/><animateTransform attributeName="transform" additive="sum" type="scale" dur="2.25s" keyTimes="0;0.074;0.574;1" values="0.999,0.999;0.999,0.999;1,1;1,1"/><animateTransform attributeName="transform" additive="sum" type="translate" dur="2.25s" keyTimes="0;0.074;0.574;1" values="-8.95,-4.1;-8.95,-4.1;-8.9,-4.2;-8.9,-4.2"/><path fill="#4E2931" d="M6.1,11.95Q6.05,11.85 6.15,11.8L6.2,11.75Q6.2,11.7 6.35,11.8 7.9,8.8 9,6.65 13.391,-1.669 9,0 8.1,2.1 6.9,4.95 4.85,9.85 4.75,10.3 4.65,10.75 5.2,10.45 4.55,11.7 3.1,14.75 1.85,17.5 0.9,19.5L0,21.15Q-0.525,24.301 2.25,21.95 2.2,21.9 2.1,21.85 2.05,21.85 2.05,21.8 2.15,21.55 2.3,21.05 2.8,19.85 3.35,18.5 3.9,17.2 4.45,15.95 4.8,15.3 5.05,14.55 5.3,14.05 5.5,13.45 5.8,12.75 6.1,11.95"/></g><g id="13" transform="matrix(1 0 0 1 35.1 51.15)"><animateTransform attributeName="transform" additive="replace" type="translate" dur="2.25s" keyTimes="0;0.074;0.574;1" values="35.999,55.948;35.999,55.948;37.4,55.95;37.4,55.95"/><animateTransform attributeName="transform" additive="sum" type="rotate" dur="2.25s" keyTimes="0;0.074;0.574;1" values="-14.999,0,0;-14.999,0,0;0,0,0;0,0,0"/><animateTransform attributeName="transform" additive="sum" type="scale" dur="2.25s" keyTimes="0;0.074;0.574;1" values="0.999,0.999;0.999,0.999;1,1;1,1"/><animateTransform attributeName="transform" additive="sum" type="translate" dur="2.25s" keyTimes="0;1" values="-2.3,-4.8;-2.3,-4.8"/><path fill="#4E2931" d="M21.85,15.6Q21.45,15.45 21.05,15.5 20.15,15.85 19.55,16.55 19.4,16.65 19.3,16.75 10.3,12.45 3.9,4.6 3.85,4.45 3.8,4.35 2.65,2.85 0.85,1 0.3,0.45 0,0 -3.006,2.707 1.725,7.525 6.452,12.347 7.6,13.3 12.4,17.3 17.3,19.75L17.25,19.8Q17.45,19.75 18.45,20.4 18.55,20.45 18.75,20.6 19.75,21.35 20,21.35 21,20.8 19.9,20.4 20.2,20.4 20.7,20.6 21.55,20.8 21.9,20.65 22.25,20.4 22.15,20.25 22.1,20.15 21.6,19.9 21.65,19.8 21.7,19.8 22.85,20.05 23.2,19.55 23.1,19.5 22.5,19 22.4,18.9 22.25,18.85L22.35,18.8Q23.25,18.6 23.25,18.35 23.3,18.2 23.2,18.05L20.95,17.25 21.85,15.6"/></g><g id="11" transform="matrix(1 0 0 1 0 0)"><animateTransform attributeName="transform" additive="replace" type="translate" dur="2.25s" keyTimes="0;0.074;0.574;0.815;1" values="30.194,50.253;30.194,50.253;32.182,51.039;32.2,50.3;32.2,50.3"/><animateTransform attributeName="transform" additive="sum" type="rotate" dur="2.25s" keyTimes="0;0.074;0.574;0.815;1" values="-5.221,0,0;-5.221,0,0;-2.001,0,0;0,0,0;0,0,0"/><animateTransform attributeName="transform" additive="sum" type="translate" dur="2.25s" keyTimes="0;0.574;0.815;1" values="-32.2,-50.25;-32.2,-50.25;-32.2,-50.3;-32.2,-50.3"/><path fill="#4E2931" d="M52.3,11.9Q52.5,11.9 57.15,11.4L54.4,9.3Q53.25,8.5 52.25,8.05 51.55,7.75 50.9,7.45 50.75,7.45 50.75,7.4 45.55,5.4 42.5,6.65 43.8,5.6 46.4,3.65 47.7,2.6 48.35,1.95 48.4,1.95 48.5,1.9 49,1.35 48.95,1.25 48.9,1.05 48.15,1.15 48,1.15 47.95,1.15 46.95,1.2 44.9,1.55 40.8,2.3 39,3.35 41.25,1.75 42.95,0.7 43,0.65 43.1,0.65 43.15,0.6 43.2,0.55 42.1,0.15 40.6,0.05 36.6,-0.3 29.45,1.15 28.1,1.55 26.9,2.05 19.35,4.95 15.1,8.8 13.65,10.2 12.15,11.7 10.75,13.2 9.95,14.2 9.2,15.15 8.6,16.05 8,16.9 7.2,17.85 6.55,17.1 6.25,16.85 5.6,16.25 4.8,16.1 4.75,16.4 4.75,16.65 4.7,17.25 4.85,18 4.9,18.55 5,18.95 4.2,19 3.15,18.85 1.7,18.6 1.05,19.1L1.1,19.4Q1.15,19.4 3.1,22.15 0,34.8 0,37.75 0.2,37.9 0.35,38 4.25,40.1 5.3,40.7 5.6,40.8 5.6,40.85 5.8,40.95 5.95,41.05L6.1,41.05Q6.15,41.05 6.2,41.05 6.4,41.15 6.7,41.25L10.05,42.25Q11.2,42.6 12.65,43.05 12.8,43.15 13.05,43.2L13.15,43.2Q13.35,43.25 13.45,43.25 13.55,43.25 13.65,43.25L13.65,43.2Q13.75,43.35 14.3,43.7 13.75,44.45 13.6,45.3 13.45,46 13.7,46.55 14.25,47.65 16.05,47.85 17.25,47.95 18.8,46.3 19.75,47.25 20.6,47.9 21.5,48.55 21.7,48.8 24.25,50.3 30.5,49.4 30.121,50.119 29.75,50.825 32.389,56.495 34.625,49.75 34.647,49.353 34.85,49 35.5,47.7 35.75,47.5 36.35,47.15 37.05,46.8 41.3,44.6 42.6,43.6 45.7,41.05 46.85,38.55 47.5,37.35 47.8,36.05 48,35.2 48.1,34.3 48.15,33.8 48.15,33.3 48.15,32.45 48.05,31.5 48,31.2 48,30.9L48,30.85Q47.8,29.9 47.55,28.1 48.55,28.05 49.2,27.75 50.243,27.222 50.3,26.075 50.589,24.649 50,23.85 49.9,23.8 49.8,23.7 49.1,23.15 48.1,23.05 47.05,22.9 46.6,23.55 45.85,20.9 45,18.55 44.6,17.6 44.2,16.55 44.5,16.5 44.8,16.45L45.35,16.4Q45.6,16.4 45.95,16.3 47.1,16.2 48.15,16.2 48.85,16.15 50.5,15.9 50.75,15.85 50.9,15.8 50.5,15.6 49.2,14.3 48.45,13.55 47.4,12.5 48.65,12.35 52.3,11.9"/></g><g id="10" transform="matrix(1 0 0 1 46.3 2.85)"><animateTransform attributeName="transform" additive="replace" type="translate" dur="2.25s" keyTimes="0;0.074;0.574;0.815;1" values="71.42,46.163;71.42,46.163;67.843,46.543;67.85,45.8;67.85,45.8"/><animateTransform attributeName="transform" additive="sum" type="rotate" dur="2.25s" keyTimes="0;0.074;0.574;0.815;1" values="10.209,0,0;10.209,0,0;2.238,0,0;0,0,0;0,0,0"/><animateTransform attributeName="transform" additive="sum" type="scale" dur="2.25s" keyTimes="0;0.074;0.574;1" values="0.999,0.999;0.999,0.999;1,1;1,1"/><animateTransform attributeName="transform" additive="sum" type="translate" dur="2.25s" keyTimes="0;0.074;0.574;0.815;1" values="-21.45,-42.9;-21.45,-42.9;-21.55,-42.9;-21.55,-42.95;-21.55,-42.95"/><path fill="#4E2931" d="M41.15,36.15Q41.15,36.05 41.3,36.05 40.9,35.25 40.65,34.45L41.8,35.7Q44.15,34.2 46.15,32.65L44.5,28.45Q44.55,28.2 44.6,27.95L46.85,32.1Q50.7,29.15 54.1,24.9 45.45,19.1 42.6,10.9 39.7,2.75 31.7,0.6 25.05,-1.25 13.75,2.55 10.85,3.5 8.1,6.45L6.35,9.05Q4.45,12.55 4.55,16.3 4.5,16.3 4.35,18.35 3.925,21.258 3.825,23.375 3.733,25.494 3.7,26.15 3.655,26.802 3.6,27.75L3.6,27.8 3.55,28.1Q2.5,39.9 0,40.8 4.65,42.5 8.05,43.4 10.5,43.95 12.5,43.85L12.5,43Q12.8,41.75 12.95,41.85L13.15,43.75Q13.3,43.75 13.4,43.75 13.45,43.75 13.6,43.75L13.65,43.75Q14.2,43.75 14.8,43.8 15.05,43.8 15.25,43.75L15.65,41Q16.25,41.2 16.9,41.35L17.1,43.55Q17.9,43.45 18.75,43.45 22.589,48.777 24.35,42.5 32.45,40.75 38.9,37.45 38.9,37.5 38.9,37.6 40.75,36.4 41.15,36.2L41.15,36.15"/></g></g></g><g mask="url(#mask_)"><g id="5" transform="matrix(1 0 0 1 -62.2 83.45)"><path fill="#4E2931" d="M168.9,14.4Q174.85,12.95 168.6,9.65 142.2,1.45 90.05,0 43.8,1.35 26.5,4.35 9.2,7.4 2.9,9.8 -3.45,12.25 4.05,13.6L168.9,14.4"/></g></g><g mask="url(#mask_)"><g id="2" transform="matrix(1 0 0 1 -104.5 40.65)"><animateTransform attributeName="transform" additive="replace" type="translate" dur="2.25s" keyTimes="0;0.907;1" values="-94.45,52.993;-76.45,53;-76.45,53"/><animateTransform attributeName="transform" additive="sum" type="scale" dur="2.25s" keyTimes="0;0.907;1" values="1.285,1.06;1,1;1,1"/><animateTransform attributeName="transform" additive="sum" type="translate" dur="2.25s" keyTimes="0;1" values="-28.05,-12.35;-28.05,-12.35"/><path fill="#FFF" d="M50.5,24.35Q52,24.35 54.2,23 57.65,20.2 54.8,13.3 51.95,6.35 45,10.5 38.35,0.75 31.35,3.65 20.65,-4.95 11.95,6.6 11.5,6.1 8.4,5.7 3.7,5 0.75,9.95 -0.8,12.05 0.95,19.85 -2.55,25.1 23.2,24.75 48.95,24.35 50.5,24.35"/><path fill="#A63F20" d="M44.6,14.6Q44.25,14.55 43.9,14.25 35.85,7.15 31.6,9.45 31.25,9.65 30.8,9.65 30.45,9.65 30.1,9.4 19.9,1.5 13.55,12.55 13.4,12.85 13.1,13.05 12.8,13.25 12.45,13.3 11.7,13.5 8.9,12.2 7.3,11.6 4.85,13.2L4.8,13.2Q3.2,14.45 3.75,18.1 10.1,18.5 20.9,18.5 40.45,18.5 52.05,18.5 49.3,12.65 45.35,14.45 45,14.65 44.6,14.6"/></g></g><g mask="url(#mask_)"><g id="4" transform="matrix(1 0 0 1 66.5 26.2)"><animateTransform attributeName="transform" additive="replace" type="translate" dur="2.25s" keyTimes="0;0.907;1" values="119.538,38.504;101.55,38.5;101.55,38.5"/><animateTransform attributeName="transform" additive="sum" type="scale" dur="2.25s" keyTimes="0;0.907;1" values="1.177,0.882;1,1;1,1"/><animateTransform attributeName="transform" additive="sum" type="translate" dur="2.25s" keyTimes="0;0.907;1" values="-35.05,-12.25;-35.05,-12.3;-35.05,-12.3"/><path fill="#A63F20" d="M3.75,23.5L3.2,23.45 3.65,23.5Q3.7,23.5 3.75,23.5"/><path fill="#A63F20" d="M1.75,23.3L1.4,23.3Q2.2,23.4 2.95,23.5 3.05,23.45 3.2,23.45L1.75,23.3 M1.1,23.2L2.15,23.3 1.75,23.3 1.4,23.3Q1.3,23.3 1.1,23.2"/><path fill="#A63F20" d="M63.45,9.1Q60.55,9.2 58.6,10 50.25,-1.9 40.3,0.35 31.3,2.45 30.3,8.25 24.8,5.7 18.2,7.45 11.6,9.3 3.8,16.6 -2.05,22.15 1.1,23.2L2.15,23.3 1.75,23.3 3.2,23.45 3.75,23.5Q11.25,24.2 16.85,24.4L16.95,24.4Q18.8,24.4 20.95,24.55 23.1,24.6 25.45,24.6 43.15,24.8 67.85,23.4 68.75,23.35 68.7,23.05L71.3,21.25 70.8,20.85 69.8,21.85Q70.65,17.55 69.05,14.45 66.3,9 63.45,9.1"/><path fill="none" stroke="#FFF" stroke-width="5" stroke-linecap="round" stroke-linejoin="round" d="M40.3,0.35Q50.25,-1.9 58.6,10M30.3,8.25Q31.3,2.45 40.3,0.35M18.2,7.45Q24.8,5.7 30.3,8.25M3.8,16.6Q11.6,9.3 18.2,7.45M1.1,23.2Q-2.05,22.15 3.8,16.6M1.4,23.3Q1.3,23.3 1.1,23.2M2.95,23.5Q2.2,23.4 1.4,23.3M3.35,23.5Q3.15,23.5 2.95,23.5M3.55,23.5Q3.5,23.5 3.35,23.5M3.65,23.5Q3.6,23.5 3.55,23.5M3.75,23.5Q3.7,23.5 3.65,23.5M16.85,24.4Q11.25,24.2 3.75,23.5M16.95,24.4L16.85,24.4M20.95,24.55Q18.8,24.4 16.95,24.4M25.45,24.6Q23.1,24.6 20.95,24.55M67.85,23.4Q43.15,24.8 25.45,24.6M68.7,23.05Q68.75,23.35 67.85,23.4M69.05,14.45Q70.65,17.55 69.8,21.85M63.45,9.1Q66.3,9 69.05,14.45M58.6,10Q60.55,9.2 63.45,9.1"/><path fill="none" stroke="#FFF" stroke-width="5" stroke-linecap="round" stroke-linejoin="round" d="M3.75,23.5L3.2,23.45"/><path fill="none" stroke="#FFF" stroke-width="5" stroke-linecap="round" stroke-linejoin="round" d="M3.2,23.45Q3.05,23.45 2.95,23.5"/><path fill="none" stroke="#FFF" stroke-width="5" stroke-linecap="round" stroke-linejoin="round" d="M3.2,23.45L1.75,23.3"/><path fill="none" stroke="#FFF" stroke-width="5" stroke-linecap="round" stroke-linejoin="round" d="M2.15,23.3L1.1,23.2M1.75,23.3L2.15,23.3"/></g></g><g mask="url(#mask_)"><g id="1" transform="matrix(1 0 0 1 -107.15 -42.05)"><animateTransform attributeName="transform" additive="replace" type="translate" dur="2.25s" keyTimes="0;0.907;1" values="-82.05,-22.862;-64.1,-22.95;-64.1,-22.95"/><animateTransform attributeName="transform" additive="sum" type="scale" dur="2.25s" keyTimes="0;0.907;1" values="1.278,1.01;1,1;1,1"/><animateTransform attributeName="transform" additive="sum" type="translate" dur="2.25s" keyTimes="0;0.907;1" values="-43.1,-19.2;-43.05,-19.1;-43.05,-19.1"/><path fill="#FFF" d="M84.55,30Q87.5,25.45 85,17.85 82.6,10.3 71.05,11.5 57.7,1.3 49.2,4.75 31.35,-6.8 18.25,9.8 17.75,9.8 14.45,9.45 11.1,9 6.6,10.7 -1.95,13.75 0.55,25.15 0.75,25.95 1.25,28.9 1.75,31.75 7.15,34.7 10,36.35 14.45,36.6 48.7,39.65 65.15,37.1 81.55,34.65 84.55,30"/><path fill="#A63F20" d="M75.05,16.6Q70.7,17.1 70,17.1 69.4,16.95 68.9,16.65 56.8,7 49.8,10.1 49.2,10.35 48.55,10.35 48,10.35 39.5,5.5 30.95,0.6 22.9,10.35 21,12.55 19.55,14.25 17.85,14 13.9,14.4 3.75,15.3 6.8,26.95 6.85,27.1 6.9,27.25 9.05,32.2 45.65,33.05 82.3,33.9 81.2,20.9 79.4,16.05 75.05,16.6"/></g></g><g mask="url(#mask_)"><g id="3" transform="matrix(1 0 0 1 56.85 -49.15)"><animateTransform attributeName="transform" additive="replace" type="translate" dur="2.25s" keyTimes="0;0.907;1" values="115.25,-28.761;97.25,-28.8;97.25,-28.8"/><animateTransform attributeName="transform" additive="sum" type="scale" dur="2.25s" keyTimes="0;0.907;1" values="1.277,1.139;1,1;1,1"/><animateTransform attributeName="transform" additive="sum" type="translate" dur="2.25s" keyTimes="0;0.907;1" values="-40.4,-20.4;-40.4,-20.35;-40.4,-20.35"/><path fill="#FFF" d="M55.3,13.2Q56.5,12.3 57.75,11.6 49.5,5 39.6,8.85 42.85,10.15 45.75,12.25 46.25,12.6 46.75,13 50.25,13 53.5,14.9 54.25,14.05 55.3,13.2"/><path fill="#FFF" d="M76.4,16.95Q76.25,16.85 76.1,16.75L76.1,16.8Q76.1,16.85 76.15,16.9 77.05,19.55 77.1,23.6 78.05,27.9 77.1,24.55 76.95,29.35 72.05,30.35 8.1,31.65 6.5,28.55 4.9,25.45 7.05,24.2 9.2,23.35 11.8,24.4 12.1,24.5 12.4,24.55L12.35,23.1Q12.35,13.45 18.55,9.3 22.3,6.8 27.55,6.65 7.65,-11.2 6.45,18.95 0.75,16.85 0.2,23.85 -0.3,30.85 0.45,32 1.25,35.35 7.9,37.45 15.2,38.45 30.25,39.5 58.85,41.5 68.35,40.1 77.85,38.7 73.1,36.95 68.35,35.15 78.3,34.5 79,34.45 79.65,34 80.15,33.45 80.35,32.7 82,24.6 77.5,16.85 77,17.05 76.6,17 77.1,17.7 77.8,18.85 77.05,17.8 76.4,16.95"/><path fill="#A63F20" d="M76.1,16.75Q76,16.55 75.95,16.4 75.85,16.25 75.8,16.05L75.75,16Q75.65,15.85 75.6,15.7 75.4,15.25 75.2,14.75 73.85,12 71.5,10.6 68.6,8.85 63.55,9.65 60.45,10.15 57.75,11.6 56.5,12.3 55.3,13.2 54.25,14.05 53.5,14.9 50.25,13 46.75,13 46.25,12.6 45.75,12.25 42.85,10.15 39.6,8.85 36.1,7.45 32.15,6.9 29.7,6.55 27.55,6.65 22.3,6.8 18.55,9.3 12.35,13.45 12.35,23.1L12.4,24.55Q12.1,24.5 11.8,24.4 9.2,23.35 7.05,24.2 4.9,25.45 6.5,28.55 8.1,31.65 72.05,30.35 76.95,29.35 77.1,24.55 77.1,24.05 77.1,23.6 77.05,19.55 76.15,16.9 76.1,16.85 76.1,16.8L76.1,16.75"/><path fill="#FFF" d="M75.95,16.4Q76,16.55 76.1,16.75 76.05,16.55 76.05,16.4 76,16.2 76,16.05 75.85,15.2 75.7,14.05 74.9,12.95 73.95,11.85 74.65,13.55 75.2,14.75 75.4,15.25 75.6,15.7 75.65,15.85 75.75,16L75.8,16.05Q75.85,16.25 75.95,16.4"/></g></g><mask id="mask_"><path fill="#FFF" d="M63.75,-51.85L52.65,-54.85Q35.65,-58.5 16.8,-58.5 -8.8,-58.5 -30.85,-51.7L-37.1,-49.55Q-48.25,-45.7 -53.6,-43.2 -56.8,-41.75 -57.55,-41.3 -60,-43.65 -63.45,-45.15 -70.4,-48.3 -79.4,-44.3 -82.5,-42.95 -86.25,-39.55 -87.65,-38.3 -88.55,-37.2 -90.3,-38.05 -97.1,-36.9 -103.75,-35.9 -108.2,-31.05 -111.7,-27.2 -110.85,-18.1 -110.05,-9.05 -95.35,-4.35 -94.65,-4.15 -93.95,-3.95 -95.9,-0.8 -97.5,2.3 -104.95,16.9 -106.35,26.9 -107.8,36.9 -107.65,39.15 -107.6,41.4 -107.55,44.05 -107.3,54.25 -103.75,64.8 -103.75,64.75 -103.6,64.75 -103.25,66.15 -102.75,67.55 -99.75,76.25 -93.6,82.35 -87.45,88.45 -81.5,91.5 -77.8,93.4 -76.75,93.8 -79.6,94.5 -79.95,98.7 -80.35,102.45 -75.05,103.25L-72.95,103.35Q-72.9,103.35 -72.85,103.35L-70.95,103.4Q-70.65,103.45 -70.3,103.45L-64.7,103.65Q-61.75,103.75 -58.4,103.9 -57.8,103.95 -57.2,103.95L116.45,104.7Q119.15,104.65 122.05,104.4 124.95,104.15 125.25,100.8 125.55,97.45 122.05,96.55 118.5,95.65 119.1,93.6 119.7,91.55 129.7,80.1 139.7,68.65 141,49.5 142.45,27.85 134.7,4.4 132.1,-3.1 128.1,-9.6 131.7,-9.85 134.25,-10.75 143.3,-13.9 143.3,-26.1 143.3,-31.4 141.8,-35.5 139.8,-40.9 135.05,-45.05 130.35,-49.15 126.7,-50.45 120.7,-52.55 112.9,-50.15 110.95,-49.6 105.2,-46.35 102.35,-44.75 100.8,-43.65 99.7,-44.8 97.95,-46.1 93.25,-49.65 88.8,-50.9 80.35,-53.75 72.3,-49.5 72,-49.35 71.7,-49.15 71.2,-49.35 70.75,-49.5 67.35,-50.75 63.75,-51.85" fill-opacity="1"/></mask></g></g></svg>