<?xml version="1.0" encoding="utf-8"?><svg id="1013" image-rendering="auto" baseProfile="basic" version="1.1" x="0px" y="0px" width="300" height="300" xmlns="http://www.w3.org/2000/svg" xmlns:xlink="http://www.w3.org/1999/xlink"><defs><radialGradient gradientUnits="userSpaceOnUse" color-interpolation="sRGB" r="25.954" cx="25.95" cy="17.1" fx="29.207" fy="17.1" gradientTransform="matrix(0.866 -0.5 0.516 0.893 -5.35 14.8)" id="radialGradient"><stop stop-color="#CE3949" stop-opacity="1" offset="0.40784"/><stop stop-color="#AA2B37" stop-opacity="1" offset="0.89412"/><stop stop-color="#AA2B37" stop-opacity="1" offset="0.97647"/></radialGradient></defs><g id="Symbol_14_l1" overflow="visible" transform="matrix(1 0 0 1 4.2 6.35)"><g id="Symbol_8_l1" transform="matrix(4.099 0 0 4.099 0 -3.05)"><path fill="none" stroke="#000" stroke-opacity="0.251" stroke-width="1.5" stroke-linecap="round" stroke-linejoin="round" d="M68.35,13.9L68.375,13.875 68.4,13.9Q69.25,13 69.95,11.55 71.15,8.9 71.15,7.3 71.15,-0.8 63.95,0.1 61.35,0.45 58.95,1.75 58.15,2.2 57.65,2.6L57.625,2.575 57.6,2.6Q57.1,2.4 56.55,2.15 55.7,1.9 55,1.7 52.75,1 50.75,0.8 39.05,-0.45 32.3,19.95 32.2,19.6 31.8,19.3 26.8,15.35 22.25,14.15 20.8,13.7 19.4,13.6 10.3,12.7 3.55,23.35 -3,34.65 2.55,43.75 5.45,48.55 11.55,52.5 11.15,52.75 10.65,53 6.8,55.4 3.95,58.5 0.9,61.8 0.9,64 0.9,65.9 3.4,68.75 5.85,71.6 11.05,71.6 16.15,71.6 18,65.65 19.8,59.65 20.15,57.05L20.2,57.075Q20.279,57.11 20.4,57.15 32.65,62.35 52.15,65.8 52.25,65.55 52.45,65.35 73.4,30.25 68.35,13.9"/><g mask="url(#mask_)"><path fill="#FFF" d="M68.35,13.9L68.375,13.875 68.4,13.9Q69.25,13 69.95,11.55 71.15,8.9 71.15,7.3 71.15,-0.8 63.95,0.1 61.35,0.45 58.95,1.75 58.15,2.2 57.65,2.6L57.625,2.575 57.6,2.6Q57.1,2.4 56.55,2.15 55.7,1.9 55,1.7 52.75,1 50.75,0.8 39.05,-0.45 32.3,19.95 32.2,19.6 31.8,19.3 26.8,15.35 22.25,14.15 20.8,13.7 19.4,13.6 10.3,12.7 3.55,23.35 -3,34.65 2.55,43.75 5.45,48.55 11.55,52.5 11.15,52.75 10.65,53 6.8,55.4 3.95,58.5 0.9,61.8 0.9,64 0.9,65.9 3.4,68.75 5.85,71.6 11.05,71.6 16.15,71.6 18,65.65 19.8,59.65 20.15,57.05L20.2,57.075Q20.279,57.11 20.4,57.15 32.65,62.35 52.15,65.8 52.25,65.55 52.45,65.35 73.4,30.25 68.35,13.9"/></g><g mask="url(#mask_)"><g id="Symbol_11" transform="matrix(1 0 0 1 -55.7 71.6)"><animateTransform attributeName="transform" additive="replace" type="translate" fill="freeze" dur="1.2s" keyTimes="0;0.267;0.433;0.533;0.6;1" values="-55.7,71.6;-55.7,71.6;8.95,3.8;8.1,4.6;8.35,4.4;8.35,4.4"/><path fill="none" stroke="#755C54" stroke-width="2" stroke-linecap="round" stroke-linejoin="round" d="M56.15,0L52.55,7.8M56.15,0L12.175,47.075 11.525,47.75 11.225,48.075Q10.767,48.591 10.3,49.1L9.9,49.55 9.7,49.75 7.25,52.5 4.65,61.55M7.25,52.5L7.15,52.6 0,57.4M56.15,0L49.2,4.6"/></g></g><g mask="url(#mask_)"><g id="Symbol_10" transform="matrix(1 0 0 1 8.85 10.65)"><animateTransform attributeName="transform" additive="replace" type="translate" fill="freeze" dur="1.2s" keyTimes="0;0.3;0.4;0.5;1" values="35.05,35.2;35.05,35.2;35.3,34.95;35.05,35.2;35.05,35.2"/><animateTransform attributeName="transform" additive="sum" type="rotate" fill="freeze" dur="1.2s" keyTimes="0;0.3;0.4;0.5;0.567;1" values="0,0,0;0,0,0;2.798,0,0;-0.583,0,0;0,0,0;0,0,0"/><animateTransform attributeName="transform" additive="sum" type="skewY" fill="freeze" dur="1.2s" keyTimes="0;0.3;0.4;0.5;0.567;1" values="0;0;-2.798;0.583;0;0"/><animateTransform attributeName="transform" additive="sum" type="scale" fill="freeze" dur="1.2s" keyTimes="0;0.3;0.4;0.5;1" values="1,1;1,1;1,1.001;1,1;1,1"/><animateTransform attributeName="transform" additive="sum" type="scale" fill="freeze" dur="1.2s" keyTimes="0;0.399;0.4;0.418;1" values="1,1;1,1;0.999,1;1,1;1,1" keySplines=".1 .1 .9 .9;.1 .1 .9 .9;0 0 1 1;.5 0 .75 .5" calcMode="spline"/><animateTransform attributeName="transform" additive="sum" type="translate" fill="freeze" dur="1.2s" keyTimes="0;1" values="-26.2,-24.55;-26.2,-24.55"/><path fill="#9F2629" d="M39.45,49.15Q24.75,46.5 15.5,42.6 22.1,45 31,46.9 33.55,47.4 39.45,49.15"/><path fill="url(#radialGradient)" d="M49.55,5.8Q48.55,4.6 47.35,3.6 47.25,3.5 47.15,3.4 45.3,2.05 42.8,1.1 42.2,0.9 41.6,0.75 39.9,0.2 38.45,0.05 28.3,-1 27.3,14.7 27.25,15.65 27.2,16.7 25.65,15.15 24.1,14 20.3,11.05 16.9,10.1 15.8,9.8 14.7,9.75 7.85,9.05 2.35,16.7 -2.2,25.65 2.05,32.5 4.8,37.15 11.65,40.8 13.45,41.75 15.5,42.6 22.1,45 31,46.9 33.55,47.4 39.45,49.15 39.55,48.95 39.7,48.8 58.5,17.3 49.55,5.8"/></g></g><g mask="url(#mask_)"><g id="Symbol_9" transform="matrix(1 0 0 1 13.7 20.8)"><animateTransform attributeName="transform" additive="replace" type="translate" fill="freeze" dur="1.2s" keyTimes="0;0.3;0.4;0.5;0.567;1" values="18.85,23.95;18.85,23.95;19.4,23.85;18.732,23.95;18.85,23.95;18.85,23.95"/><animateTransform attributeName="transform" additive="sum" type="rotate" fill="freeze" dur="1.2s" keyTimes="0;0.4;0.5;0.567;1" values="0,0,0;0,0,0;-0.583,0,0;0,0,0;0,0,0"/><animateTransform attributeName="transform" additive="sum" type="skewY" fill="freeze" dur="1.2s" keyTimes="0;0.4;0.5;0.567;1" values="0;0;0.583;0;0"/><animateTransform attributeName="transform" additive="sum" type="translate" fill="freeze" dur="1.2s" keyTimes="0;1" values="-5.15,-3.15;-5.15,-3.15"/><path fill="#FCF1F3" d="M1.95,4.55Q0.6,4.35 0.25,4.7 0,4.9 0,5.5 0,5.9 0,5.95 0.2,6.35 0.85,6.35 1.15,6.35 1.6,5.95 2.15,5.55 2.15,5.1 2.15,4.75 2.1,4.65 1.95,4.6 1.95,4.55"/><path fill="#FCF1F3" d="M2.95,2.8L3.6,3.4Q7.45,1 9.35,0.75 10.25,0.6 10.35,0.65 10.35,-0.5 6.65,0.35 2.95,1.2 2.95,2.8"/></g></g><mask id="mask_"><path fill="#FFF" d="M68.35,13.9L68.375,13.875 68.4,13.9Q69.25,13 69.95,11.55 71.15,8.9 71.15,7.3 71.15,-0.8 63.95,0.1 61.35,0.45 58.95,1.75 58.15,2.2 57.65,2.6L57.625,2.575 57.6,2.6Q57.1,2.4 56.55,2.15 55.7,1.9 55,1.7 52.75,1 50.75,0.8 39.05,-0.45 32.3,19.95 32.2,19.6 31.8,19.3 26.8,15.35 22.25,14.15 20.8,13.7 19.4,13.6 10.3,12.7 3.55,23.35 -3,34.65 2.55,43.75 5.45,48.55 6.6,48.65 2.707,58.18 2,60.825 0.899,62.46 0.9,64 0.9,65.9 3.4,68.75 5.85,71.6 11.05,71.6 14.279,71.6 16.2,69.225L16.225,69.225Q22.141,72.092 52.15,65.8 52.25,65.55 52.45,65.35 73.4,30.25 68.35,13.9 M20.15,57.125Q20.145,57.091 20.15,57.05L20.2,57.075Q20.169,57.104 20.15,57.125" fill-opacity="1"/></mask></g></g></svg>