<?xml version="1.0" encoding="utf-8"?>
<!-- Generator: Adobe Illustrator 19.2.0, SVG Export Plug-In . SVG Version: 6.00 Build 0)  -->
<svg version="1.1" id="_x31_017" image-rendering="auto"
	 xmlns="http://www.w3.org/2000/svg" xmlns:xlink="http://www.w3.org/1999/xlink" x="0px" y="0px" width="300px" height="660px"
	 viewBox="0 0 300 660" enable-background="new 0 0 300 660" xml:space="preserve">
<path opacity="0.25" fill="#332C2A" d="M295,315c-5.2-30.7-7.9-46.4-8-47.1c-13.3,0.4-31.3,4.8-53.9,13.3
	c-35.1,12.9-58.8,31-71.1,54.3c6.1-22.8,12-37,17.7-42.4c4.4-4.7,12.4-13,24-24.9c30.6-33.5,49.9-67.7,58.1-102.7
	c8-35,10.9-65.4,8.6-91.1c-2.4-25.6-8.3-40.6-17.8-44.9c-9.5-4.1-28.2-8.2-56-12.2c-28-4.3-52.7-1.3-74.1,8.8
	c-6.1,2.9-11.3,5.5-15.4,7.6c-13.8,1.1-27.8,8.3-42,21.5c-14.3,13.4-22.1,30-23.5,50c-1.6,20.2-0.9,45.1,2.2,74.7
	c2.9,29.8,11.9,53.6,26.8,71.5c14.9,17.9,26.1,35,33.5,51.5c7.3,16.3,8.9,51,4.6,104.1c-27.1-12.8-60.8-25.2-100.9-37.3
	c-6.8,74.9-5.6,121.2,3.6,139c8.8,17.7,18.3,29.8,28.3,36.3c9.9,6.4,20.4,10.5,31.6,12.2c11.1,1.7,22.8-0.5,35.3-6.6
	c-15.4,59.7-7.8,91,22.8,93.9c16.6,1.6,28.6-0.7,36-6.8c6.1-5.1,9.8-13,11-23.8c1.3-11.2,2-22.3,2-33.3c-0.1-8-1.3-23.5-3.6-46.5
	c-0.9-8.3-2-17.5-3.2-27.6c-0.3-2.7-0.5-5.1-0.8-7.3c-0.7-13.6-1.3-26.3-2-38.1c-1.5-20.8,11.4-29,38.5-24.6
	c27.1,4.3,51.6-9.4,73.5-41C295,368.8,299.8,342,295,315z"/>
</svg>
