<?xml version="1.0" encoding="utf-8"?><svg id="1023" image-rendering="auto" baseProfile="basic" version="1.1" x="0px" y="0px" width="660" height="660" xmlns="http://www.w3.org/2000/svg" xmlns:xlink="http://www.w3.org/1999/xlink"><defs><symbol id="7" overflow="visible"><path fill="#BB313F" d="M7.8,3.6L7.8,3.15Q5.6,3.8 2.95,4.2 0.25,4.55 0.15,4.5 0.05,4.4 0.7,5.85 1.3,7.25 3.6,7.4 5.8,7.5 7,6.45 8.15,5.35 7.8,3.6"/><path fill="#BB313F" d="M8.2,2.75Q8.05,2.35 6.8,1.3 5.5,0.15 4.95,0 4.35,-0.15 3.6,0.9 3.25,0.1 2.4,0.15 1.45,0.2 0.7,2.15 0.1,3.5 0,4.2 0.9,3.65 3.1,3.15 5.4,2.7 6.45,2.75 7.35,2.75 7.7,2.75L7.8,2.75Q8.05,2.75 8.2,2.75"/>
</symbol><symbol id="g_mouth__" overflow="visible"><path fill="#8A4F13" d="M29.15,8.25Q29.092,8.134 28.65,7.6 28.544,7.6 28.4,7.6 27.85,8.4 25.45,9.35 23.05,10.35 21.65,10.35 12.7,10.35 6.1,5.65 3.95,4.1 2,2.05 0.7,0.6 0.15,0 0.1,0.05 0,0.2 0.071,0.328 0.15,0.45 0.1,0.5 0,0.65 1.8,3.9 6.35,6.95 13.05,11.35 21.35,11.35 24,11.35 26.45,10.15 28.05,9.35 29.15,8.25"/>
</symbol><symbol id="eb" overflow="visible"><path fill="#604339" d="M57.35,9Q57,5.55 54.25,3.75 51.4,1.8 47.9,2.75 44.45,3.65 42.3,6.55 41.5,7.75 41.1,8.95 41.05,9.15 41.15,9.35 41.25,9.5 41.5,9.6 41.65,9.65 41.95,9.65 42.1,9.55 42.15,9.35 42.55,8.25 43.25,7.15 45.1,4.55 48.25,3.7 51.15,3 53.55,4.65 56,6.1 56.3,9.15L56.25,9.2Q56.6,11.25 56,13.05 55.8,13.25 55.9,13.45 55.9,13.5 55.95,13.55 56.35,13.6 56.8,13.7 56.9,13.6 57,13.4 57.8,11.35 57.35,9"/><path fill="#604339" d="M14.5,5.5L14.5,5.4Q13.8,1.85 10.9,0.65 8.1,-0.8 5.05,0.9 2.2,2.65 0.7,6.2 0.1,7.5 0,8.85 0,9.15 0.1,9.25 0.25,9.45 0.45,9.45 0.6,9.5 0.8,9.4 1.05,9.4 1.05,9.1 1.1,7.95 1.7,6.7 2.95,3.45 5.6,1.9 8.2,0.5 10.5,1.65 12.8,2.75 13.4,5.7L13.45,5.75Q14.1,7.9 13.65,9.95 13.65,10.1 13.85,10.35 13.85,10.6 14.1,10.65 14.35,10.7 14.55,10.6 14.7,10.5 14.7,10.3 15.1,7.85 14.5,5.5"/>
</symbol><symbol id=".__D7.__A7.__D7.__A0" overflow="visible"><path fill="#873721" d="M9.5,2.05Q7.45,-0.5 3.65,0.15 -0.1,0.8 0,1.7 0.15,2.5 3.15,2.25 6.05,2 7.2,3.4 8.2,4.85 8.85,5.5 9.4,6.2 10.5,5.35 11.6,4.55 9.5,2.05"/>
</symbol><symbol id="nose" overflow="visible"><path fill="#C46E49" d="M5.2,1.85Q7.15,1.65 8.55,1.25L8.6,0Q7.5,0.45 6.95,0.65 6.45,0.75 4.7,1.05 2.9,1.3 1.7,2.15 0.35,3 0.05,4.3 -0.3,5.7 1.05,7.75 2.4,9.75 6.9,10.3L6.95,10.25Q7.05,10.1 7.2,9.95 7.25,9.85 7.35,9.75L7.35,9.7Q7.25,9.65 7.15,9.65 6.8,9.55 6.3,9.4 4.2,8.85 2.55,7.65 1.1,6.4 1.2,5.3L1.2,5.25Q1.4,4.1 2.3,3.1 3.25,2.05 5.2,1.85"/><path fill="#F4A571" d="M10.9,8.5L10.85,8.5Q5.55,6.05 2.75,5.55 1.8,5.35 1.2,5.3 1.1,6.4 2.55,7.65 4.2,8.85 6.3,9.4 6.8,9.55 7.15,9.65 7.25,9.65 7.35,9.7L7.35,9.75Q7.25,9.85 7.2,9.95 8.1,9.85 9.15,9.6 10.4,9.3 10.9,8.5"/>
</symbol><symbol id="cheek" overflow="visible"><path fill="#F4A571" d="M63.5,2.1Q63.05,2 62.65,1.95 61.15,1.65 59.6,1.9 56.45,2.35 56.35,2.35 54.9,2.8 53.7,3.55 51.05,5.35 51.05,7.85 51.05,10.35 53.7,12.1 56.35,13.9 60.15,13.9 63.95,13.9 66.65,12.1 69.3,10.35 69.3,7.85 69.3,5.35 66.65,3.55 66.2,3.3 65.75,3.05 64.6,2.45 63.5,2.1"/><path fill="#F4A571" d="M0.15,1.85Q-0.2,4.25 1.2,7.4 1.4,7.95 1.7,8.5 1.95,8.55 2.25,8.6 10.55,9.55 11.2,5.2 11.85,0.8 7.95,0.25 3.95,-0.35 1.7,0.55 -0.6,1.4 0.2,1.4 0.15,1.6 0.15,1.85"/>
</symbol><symbol id="frequels" overflow="visible"><path fill="#A63F20" fill-opacity="0.659" d="M33,2.7Q33,2.95 33.15,3.1 33.4,3.25 33.55,3.25 33.75,3.3 34,3.15 34.15,2.95 33.85,2.6L33.4,2.5 33,2.7"/><path fill="#A63F20" fill-opacity="0.659" d="M31.55,8.8Q31.15,8.7 30.9,8.05 30.7,7.6 31,7.4L32.4,7.4Q32.65,8.4 32.45,8.45 31.85,8.8 31.55,8.8"/><path fill="#A63F20" fill-opacity="0.659" d="M37.15,10.9Q37.6,11.15 37.7,11.35 37.85,11.55 37.55,12 37.45,12.35 37.35,12.3 37.25,12.35 37.1,12.4L36.45,12.25 36.4,12.2Q35.9,12 36,11.75 36.45,10.9 37.05,10.75 37.2,10.8 37.15,10.9"/><path fill="#A63F20" fill-opacity="0.659" d="M37.75,16Q37.95,15.75 38.3,15.65 38.65,15.6 38.85,15.7 39.15,15.75 39.65,16.1 39.5,16.2 39.05,16.45L38.9,16.45Q38.75,16.6 38.5,16.6 38.35,16.65 38.15,16.45 37.75,16.4 37.65,16.3L37.75,16"/><path fill="#A63F20" fill-opacity="0.659" d="M20.15,0.7L19.75,1.15Q18.75,0.75 18.85,0.15L19.4,0Q19.95,0.1 20.15,0.7"/><path fill="#A63F20" fill-opacity="0.659" d="M17.3,5.3Q16.9,5.4 16.5,5.4 16.1,5.2 16.05,4.85L16.25,4.45Q16.4,4 16.6,3.95 16.8,4.1 17.1,4.15 17.4,4.3 17.5,4.65 17.4,5 17.3,5.3"/><path fill="#A63F20" fill-opacity="0.659" d="M1,8.9Q1.35,8.95 1.45,9.15 1.6,9.35 1.35,9.65 1.15,10 0.95,10 0.75,9.95 0.45,9.75 -0.1,9.6 0.05,9.15 0.3,8.9 0.95,8.95 0.95,8.9 1,8.9"/><path fill="#A63F20" fill-opacity="0.659" d="M5.5,11.1Q5.85,10.85 6.45,10.9 7.25,11.15 7.3,11.25 7.65,11.4 7.3,11.95 7.2,12.35 6.75,12.35 6.6,12.35 6.45,12.3 6.35,12.3 6.3,12.2 6.3,12.15 6.2,12.15 6.05,12 6,11.8L5.9,11.8Q5.65,11.35 5.5,11.1"/>
</symbol><symbol id="ll" overflow="visible"><path fill="#FEB367" d="M0,0Q0.45,1.2 1.15,2 1.9,2.85 3.55,2.9 5.7,2.95 7.05,1.1 2.65,1.5 0,0 M6.55,1.2L6.5,1.25 6.5,1.2 6.55,1.2"/>
</symbol><symbol id="ears" overflow="visible"><path fill="#FFCB99" d="M84.05,7.2Q83.25,7.55 82.55,8 77.462,16.865 82.2,23.25 82.8,23.45 83.45,23.45 89,23.6 91.15,20.2 92.3,18.5 92.35,16.1 92.35,15.1 92.25,14.15 91.95,11.95 90.95,9.85 89.55,6.95 87.15,6.7 87.158,6.596 87.175,6.5 87.061,6.571 86.95,6.65 85.65,6.55 84.05,7.2"/><path fill="#FFCB99" d="M5.5,2.4Q3.45,2.5 1.35,2.55 0.05,5.15 0,8 -0.05,10.4 1,12.1 2.4,14.45 5.4,15.35 8.335,8.154 5.5,2.4"/>
</symbol><symbol id="head_1.0" overflow="visible"><path fill="#FFCB99" d="M84.3,72.7Q84.4,72.6 85.35,71.15 85.4,71.1 85.45,71 85.5,70.95 85.55,70.85L85.6,70.8Q85.65,70.75 85.7,70.65 85.75,70.6 85.8,70.5 86,70.2 86.2,69.9 89.124,62.733 86.55,54.65 83.046,48.559 76.9,37.625 70.754,26.691 62.05,32.3L50.2,32.3Q11.994,23.444 10.125,33.825 8.253,44.221 8.6,46.65 8.949,49.065 8.4,49.1L9.4,61.975 11.2,68.7Q11.137,68.584 11.075,68.475 11.235,69.154 11.25,69.2 11.422,69.667 11.6,70.125 14.072,76.124 19,79.75 20.05,80.35 21.2,81.1 21.3,81.2 21.5,81.3 22.25,81.7 23.1,82.1 23.2,82.15 23.35,82.2 28.65,84.85 37,86.9 46.9,89.3 56.2,88.2 55.25,88.35 54.35,88.45 56.05,88.3 57.7,88.05 59.15,87.75 60.6,87.5 65.35,86.5 70.1,84.2 74.7,81.8 77.85,79.3 81.05,76.8 83.1,74.25 83.7,73.4 84.3,72.7"/><path fill="#A63F20" d="M66.35,2Q66.45,2 66.5,2.05 67.2,1.65 67.85,1.15 67.05,1.6 66.35,2"/><path fill="#873721" d="M66.5,2.05Q66.45,2 66.35,2 64.7,1.45 63.8,1.3 63.8,1.35 66.1,2.1 66.25,2.1 66.35,2.2 66.5,2.2 66.65,2.25 66.7,2.25 66.75,2.3 66.9,2.35 67.05,2.4 67.95,2.65 69.1,3.05 70.3,3.45 71.75,3.9 70.25,3.35 68.95,2.85 67.9,2.5 66.9,2.2 66.85,2.15 66.8,2.15 66.7,2.1 66.5,2.05"/><path fill="#873721" d="M17.1,30.125Q17.15,29.994 17.15,29.9L17.1,29.85Q17.147,29.991 17.1,30.125"/>
</symbol><symbol id="m" overflow="visible"><path fill="#87301B" d="M0.05,1.25Q0.4,1.5 1.2,1.6 1.95,1.7 1.85,2.5 1.75,3.25 0,3.55 3.5,5.2 3.9,3.05 4.35,0.8 2.1,0.2 -0.15,-0.5 0.05,1.25"/>
</symbol><symbol id="hair" overflow="visible"><path fill="#A63F20" d="M86.55,54.65Q87.25,54.2 88.05,53.85 89.65,53.2 90.95,53.3L88.6,15.65Q72,1.45 78.45,7.4 75.05,5.5 71.55,4.2 71.65,4.05 71.75,3.9 70.3,3.45 69.1,3.05 67.95,2.65 67.05,2.4 66.8,2.35 66.6,2.3L66.65,2.25Q66.5,2.2 66.35,2.2 66.25,2.1 66.1,2.1 63.8,1.35 63.8,1.3 63.05,1.05 61.55,0.8 60.6,0.65 59.65,0.5 59.448,0.495 60.25,0.625 61.058,0.767 58.575,0.5 56.086,0.221 54.1,0.4 52.115,0.596 47.225,1.075 42.337,1.541 39.45,2.45 36.566,3.375 35.425,3.675 34.277,3.961 31.575,5.375 28.868,6.792 23.625,10.3 18.391,13.805 13.375,20.825 8.362,27.84 3.05,38.7 2.85,39.83 2.95,39.7 3.923,41.339 11.825,36.05 18.52,38.799 28.05,38.75 49.423,38.701 61.5,32.3L62.05,32.3Q65.95,36.3 73.1,42.9 81.85,50.95 86.55,54.65 M17.1,30.125Q17.147,29.991 17.1,29.85L17.15,29.9Q17.15,29.994 17.1,30.125"/><path fill="#873721" d="M59.65,0.5Q52.15,-0.6 45.05,0.8 37.15,2.4 33,3.85 29.05,5.15 23.4,8.65 18.6,12.2 12.55,19.85 -1.3,43.95 0.15,43.1 1.55,42.25 1.55,42.3L1.6,42.3Q1.75,42.2 1.9,42.15 2.45,41.95 3,41.55 6.3,39.9 11.6,35.95 14.6,33.357 15.75,31.65 16.401,30.77 16.5,29.9L16.5,29.85 4.45,38.6Q5.7,36 8.8,30.2 9.05,30.75 12.75,24.9 18.4,15.95 23.6,11.65 28.7,7.45 31.1,6.4 33.5,5.3 35.5,4.6 37.5,3.8 38.75,3.4L39.25,3.4Q45.45,1.95 50.8,1.3 51.7,1.1 52.6,1.05 54.25,0.85 55.85,0.75 57.6,0.55 59.3,0.55 59.45,0.5 59.65,0.5"/><path fill="#873721" d="M72.95,37.55Q68.45,32.05 64.1,25.9L62.05,32.3 63.15,31.8Q68.5,38.7 78.05,41.2 75.05,39.95 72.95,37.55"/><path fill="#B13F23" d="M22.65,20.65Q22.75,20.5 22.85,20.4 25.75,17.55 31,14.25 28.65,14.8 26.4,16.05 25.9,16.3 25.45,16.65 23.95,17.6 22.5,18.9 18.85,22.35 18.25,25.45 18.1,26.05 18.1,26.45 18.05,26.8 18.05,27L18.8,27.3Q18.9,26.8 19.05,26.35 19.95,23.4 22.65,20.65"/>
</symbol><symbol id="shade" overflow="visible"><path fill="#000" fill-opacity="0.373" d="M84.65,5Q84.75,5.95 84.75,6.95 84.7,9.35 83.55,11.05 81.4,14.45 75.85,14.3 75.2,14.3 74.6,14.1 74.4,14.4 74.2,14.7 74.15,14.8 74.1,14.85 74.05,14.95 74,15L73.95,15.05Q73.9,15.15 73.85,15.2 73.8,15.3 73.75,15.35 72.8,16.8 72.7,16.9 72.1,17.6 71.5,18.45 69.45,21 66.25,23.5 63.1,26 58.5,28.4 53.75,30.7 49,31.7 47.55,31.95 46.1,32.25 44.45,32.5 42.75,32.65 43.65,32.55 44.6,32.4 35.3,33.5 25.4,31.1 17.05,29.05 11.75,26.4 11.6,26.35 11.5,26.3 10.65,25.9 9.9,25.5 9.7,25.4 9.6,25.3 8.45,24.55 7.4,23.95 2.45,20.3 0,14.35 0.75,16.9 1.3,18.2 2.75,21.5 8.4,25.5 14.05,29.5 23.6,32.2 33.1,34.85 44.45,34.1 55.8,33.25 61.8,29.35 61.95,29.25 62.1,29.1 62.15,29.1 62.2,29.1 63.95,27.85 65.2,26.4 65.25,26.35 65.35,26.25 67.4,24.4 70.55,21.65 74.3,18.25 76.65,16.85 78.45,15.75 79.4,15.75 81.35,15.7 83.1,14.85 89.95,11.65 87.9,6.45 85.95,1.2 85.2,0 85,0.55 85,1.3 85,3.2 84.7,4.65 84.65,4.8 84.65,5"/>
</symbol></defs><g id="pp_l1" overflow="visible" transform="matrix(3.853 0 0 3.853 401.1 332.6)"><g id="w" transform="matrix(1 0 0 1 -99.8 -81.4)"><path fill="none" stroke="#000" stroke-opacity="0.251" stroke-width="2" stroke-linecap="round" stroke-linejoin="round" d="M156.2,45.55Q161,36.6 161,28.9 161,15.35 152.95,8.55 146.3,3 135.2,2.6 126.05,2.25 117.45,5.2 114.6,6.2 112.75,7.2 110.55,4.85 104.95,3 96.35,0.2 84.6,0 72.35,-0.25 64.25,2.65 60.8,3.9 58.65,5.55 51.3,3.6 40.65,1.8 26.95,-0.55 18.7,3.2 -5.6,15 13.9,45.35 4.85,52.05 2.5,58 0.15,63.95 0,71.35 -0.15,78.75 0.75,82.25 1.65,85.7 5,92.75 7.8,98.65 11.1,103.1 12.25,104.65 13.35,105.85 4.15,110.05 1.2,124.1 -1.119,135.055 5.075,146.65 6.092,148.566 7.35,150.5L8.9,152.85Q9.851,154.016 10.925,154.95 20.209,163.072 38.55,153.35 40.35,155.25 44.3,156.85 54.6,161.05 76.6,161.05 95.05,161.05 109.7,156.85 113.4,155.8 116.05,154.75 116.1,154.8 116.2,154.85 118.35,156.05 123.4,157.35 133,159.85 144.2,159.85 157.25,159.85 161.65,148.45 163.6,143.5 163.6,135.85 163.6,129.9 160.35,122.85 160.25,122.65 160.15,122.45 157.35,116.6 153.1,111.6 152.5,110.9 151.95,110.25 150.4,108.55 149.05,107.45 148.5,107.05 148.05,106.75 149.55,105.75 153,102.4 156.9,98.6 159,92.5 161.1,86.45 161.4,76.75 161.65,67 160.9,64.05 160.15,61 159,58.2 157.85,55.4 156.9,53.75 155.65,51.55 153.7,49.7 154.95,47.9 156.2,45.55"/><path fill="#FFF" d="M161,28.9Q161,15.35 152.95,8.55 146.3,3 135.2,2.6 126.05,2.25 117.45,5.2 114.6,6.2 112.75,7.2 110.55,4.85 104.95,3 96.35,0.2 84.6,0 72.35,-0.25 64.25,2.65 60.8,3.9 58.65,5.55 51.3,3.6 40.65,1.8 26.95,-0.55 18.7,3.2 -5.6,15 13.9,45.35 4.85,52.05 2.5,58 0.15,63.95 0,71.35 -0.15,78.75 0.75,82.25 1.65,85.7 5,92.75 7.8,98.65 11.1,103.1 12.25,104.65 13.35,105.85 4.15,110.05 1.2,124.1 -1.119,135.055 5.075,146.65 6.092,148.566 7.35,150.5L8.9,152.85Q9.851,154.016 10.925,154.95 20.209,163.072 38.55,153.35 40.35,155.25 44.3,156.85 54.6,161.05 76.6,161.05 95.05,161.05 109.7,156.85 113.4,155.8 116.05,154.75 116.1,154.8 116.2,154.85 118.35,156.05 123.4,157.35 133,159.85 144.2,159.85 157.25,159.85 161.65,148.45 163.6,143.5 163.6,135.85 163.6,129.9 160.35,122.85 160.25,122.65 160.15,122.45 157.35,116.6 153.1,111.6 152.5,110.9 151.95,110.25 150.4,108.55 149.05,107.45 148.5,107.05 148.05,106.75 149.55,105.75 153,102.4 156.9,98.6 159,92.5 161.1,86.45 161.4,76.75 161.65,67 160.9,64.05 160.15,61 159,58.2 157.85,55.4 156.9,53.75 155.65,51.55 153.7,49.7 154.95,47.9 156.2,45.55 161,36.6 161,28.9"/></g><g id="p" transform="matrix(1 0 0 1 -94.25 -73.7)"><path fill="#E7C2D1" d="M138.8,43.95Q139.95,42.15 143.15,29.95 147.2,14.45 139.75,9.35 132.3,4.2 122.8,4.7 114.6,5.15 108.2,7.1 105.85,6.2 94.6,3.1 83.3,-0.05 73.3,1.25 63.25,2.55 59.15,3.9 55,5.2 53.75,5.5 48,2.25 40.3,0.8 31.2,-0.95 21.9,1.05 -6.85,7 15.65,40.8 6.65,46.65 3,54.1 -0.7,61.55 0.15,68.55 1,75.5 6.95,84.2 12.85,92.9 14.65,99.5 9.2,99.95 3.2,113.3 -2.8,126.65 7.2,137.3 17.2,147.95 32.6,137.3 34.2,137.95 39.2,140.3 44.15,142.6 57,145.45 69.85,148.25 87.3,145.15 104.7,141.95 108.7,138.65 109.85,139.1 114.65,141.7 119.5,144.3 128.1,144.8 136.75,145.25 142.6,140.5L142.65,140.45Q143.75,139.55 144.7,138.45 146.9,135.8 145.65,137.15 150.15,130.7 147.6,121.3 144.3,109.25 129.15,100.55 139.75,93.55 144.45,84.65 149.1,75.75 148.15,66.3 147.15,56.85 144,52 140.85,47.1 138.8,43.95"/></g><g><g id="4" transform="matrix(1 0 0 1 -63.75 -61.85)"><animateTransform attributeName="transform" additive="replace" type="translate" dur="1.667s" keyTimes="0;0.5;0.625;0.7;1" values="-49.3,-51.6;-49.3,-51.6;-64.35,-62.45;-63.75,-61.85;-63.75,-61.85"/><path fill="#BB313F" d="M5.25,5.55Q6.3,4.55 6.35,3.6 6.3,2.7 5.7,3 4.7,3.7 2.55,4.05 0.35,4.35 0.35,4.6 0.4,4.8 0.95,5.55 1.55,6.3 2.9,6.4 4.2,6.55 5.25,5.55"/><path fill="#BB313F" d="M5.55,2.8Q6.4,2.65 6.05,2 5.75,1.4 5,0.5 3.95,-0.7 2.25,1 0.3,0.5 0.05,3.9 -0.15,4.2 0.3,4.2 0.8,4.25 1.65,3.75 2.55,3.35 3.65,3.15 4.7,2.9 5.55,2.8"/></g><animate attributeName="display" repeatCount="1" dur="1.667s" keyTimes="0;0.5;1" values="none;inline;none"/></g><g><g id="2" transform="matrix(1 0 0 1 18.75 -66.75)"><animateTransform attributeName="transform" additive="replace" type="translate" dur="1.667s" keyTimes="0;0.425;0.55;0.625;1" values="6.35,-55.45;6.35,-55.45;19.35,-67.35;18.75,-66.75;18.75,-66.75"/><path fill="#BB313F" d="M9.25,2.8Q8.95,2 8.05,0.8 6.85,-0.8 4,0.8 1.25,-0.3 0.1,3.7 -0.25,4.05 0.4,4.15 1.1,4.25 2.45,3.9 3.8,3.55 5.45,3.55 7,3.6 8.3,3.65 9.55,3.6 9.25,2.8"/><path fill="#BB313F" d="M9.25,4.75Q9.45,3.7 8.45,3.85 6.9,4.45 3.65,4.4 0.4,4.3 0.35,4.6 0.3,4.85 1,5.8 1.7,6.85 3.6,7.3 5.4,7.7 7.25,6.75 9,5.85 9.25,4.75"/></g><animate attributeName="display" repeatCount="1" dur="1.667s" keyTimes="0;0.425;1" values="none;inline;none"/></g><g><g id="1" transform="matrix(1 0 0 1 30.2 -59.3)"><animateTransform attributeName="transform" additive="replace" type="translate" dur="1.667s" keyTimes="0;0.475;0.6;0.675;1" values="11.15,-45.2;11.15,-45.2;30.8,-59.9;30.2,-59.3;30.2,-59.3"/><path fill="#BB313F" d="M16.75,8.65Q16.1,6.45 15.15,2.95 14.2,-0.6 8.8,1.05 5.45,-2.4 0.8,5.7L0,5.3Q2.05,6.5 4.4,6.55 6.7,6.6 9.15,7.45 11.55,8.3 14.45,9.65 17.5,10.95 16.75,8.65"/><path fill="#BB313F" d="M5.65,8.05Q0.85,6.2 0.5,6.65 0.15,7.1 0.7,9.6 1.25,12.05 4.4,14.05 7.7,16 11.4,15.15 15,14.25 15.95,12.65 16.95,11.05 16,10.55 10.4,9.85 5.65,8.05"/></g><animate attributeName="display" repeatCount="1" dur="1.667s" keyTimes="0;0.475;1" values="none;inline;none"/></g><g><g id="3" transform="matrix(1 0 0 1 33.9 -40.2)"><animateTransform attributeName="transform" additive="replace" type="translate" dur="1.667s" keyTimes="0;0.425;0.55;0.625;1" values="24.3,-29.8;24.3,-29.8;34.5,-40.8;33.9,-40.2;33.9,-40.2"/><path fill="#BB313F" d="M5.45,1.9L5.5,1.9Q5.7,1.9 5.8,1.9 5.7,1.65 4.8,0.9 3.9,0.1 3.5,0 3.1,-0.1 2.55,0.6 2.3,0.05 1.7,0.1 1.05,0.1 0.5,1.5 0.1,2.45 0,2.95 0.6,2.55 2.2,2.2 3.8,1.9 4.55,1.9 5.2,1.9 5.45,1.9"/><path fill="#BB313F" d="M5.5,2.5L5.5,2.2Q3.95,2.65 2.05,2.95 0.2,3.2 0.1,3.15L0.5,4.1Q0.95,5.1 2.55,5.2 4.1,5.3 4.95,4.55 5.75,3.75 5.5,2.5"/></g><animate attributeName="display" repeatCount="1" dur="1.667s" keyTimes="0;0.425;1" values="none;inline;none"/></g><g><g id="5" transform="matrix(1 0 0 1 -79 -57)"><animateTransform attributeName="transform" additive="replace" type="translate" dur="1.667s" keyTimes="0;0.5;0.625;0.7;1" values="-58.3,-41.6;-58.3,-41.6;-79.6,-57.6;-79,-57;-79,-57"/><path fill="#BB313F" d="M12.75,10.2Q15.35,8.35 15.35,6.7 15.35,4.95 13.75,5.5 11.45,6.8 6.15,7.4 0.8,8 0.9,8.45 0.85,8.8 2.35,10.15 3.75,11.6 6.95,11.8 10.1,12 12.75,10.2"/><path fill="#BB313F" d="M13.45,5.15Q15.5,4.85 14.7,3.65 13.95,2.55 12.1,0.9 9.55,-1.3 5.5,1.8 0.7,0.8 0.15,7.1 -0.35,7.75 0.75,7.75 1.85,7.75 4,6.9 6.15,6.05 8.8,5.75 11.35,5.35 13.45,5.15"/></g><animate attributeName="display" repeatCount="1" dur="1.667s" keyTimes="0;0.5;1" values="none;inline;none"/></g><g id="r_l1" transform="matrix(1 0 0 1 -91.25 -77.05)"><animateTransform attributeName="transform" additive="replace" type="translate" dur="1.667s" keyTimes="0;0.15;0.2;0.4;0.45;0.5;1" values="-91.25,-77.05;-91.25,-77.05;-91.25,-76.05;-91.25,-76.05;-91.25,-77.55;-91.25,-77.05;-91.25,-77.05"/><g id=".__D7.__A4" transform="matrix(1 0 0 1 28.95 10.25)"><animateTransform attributeName="transform" additive="replace" type="translate" dur="1.667s" keyTimes="0;0.15;0.25;0.35;0.475;1" values="28.95,10.25;28.95,10.25;28.95,12.75;28.95,12.75;28.95,10.25;28.95,10.25"/><path fill="#A63F20" d="M63.45,3.25Q52.1,0.85 47.3,0.05 41.6,-0.3 29.5,3.55 26.45,4.5 23.7,5.85L4.35,68.9Q4.65,69 4.4,70.3 4.3,70.9 3.85,73.3 3.75,73.85 3.6,74.65L3.55,74.85 0,84.8Q2.1,85.55 4.45,86.15 35.25,95.3 60.55,91.7 61.8,91.5 63,91.3L63.35,85.9 64.15,90.15 64.9,91.05Q69.05,90.4 72.9,89.65 74.8,89.25 76.65,88.85L77.4,75.1 75.75,71.5 63.45,3.25 M4.05,73.3L3.95,73.6Q4.15,72.75 4.05,73.3"/><path fill="#873721" d="M63.25,87.3L62.05,83.25 63,91.3 63.25,87.3"/><path fill="#873721" d="M64.15,90.15L64.9,91.05Q69.05,90.4 72.9,89.65 74.8,89.25 76.65,88.85L77.4,75.1 75.75,71.5 74.9,88.1 64.15,90.15"/></g><g id=".__D7.__A3" transform="matrix(1 0 0 1 92.4 13.5)"><animateTransform attributeName="transform" additive="replace" type="translate" dur="1.667s" keyTimes="0;0.15;0.25;0.35;0.425;0.5;1" values="92.4,13.5;92.4,13.5;92.4,16;92.4,16;92.4,14.5;92.4,13.5;92.4,13.5"/><animateTransform attributeName="transform" additive="sum" type="rotate" dur="1.667s" keyTimes="0;0.15;0.25;0.325;0.35;0.425;0.5;0.55;1" values="0,0,0;0,0,0;-0.508,0,0;1,0,0;1,0,0;3.453,0,0;-0.707,0,0;0,0,0;0,0,0"/><path fill="#A63F20" d="M39.85,48.9Q35.4,38.85 33.5,35.1 33.2,34.5 32.95,34.05 31.25,30.9 23.4,17.1 15.5,3.25 3.35,0.7 1.6,0.35 0,0L12.3,68.25 13.95,71.85 13.95,71.2 19.95,82.7 21.2,83.65Q37.55,82.85 52.9,71.05 52.7,70.5 52.45,69.75 50,67.55 49.65,67 45,60.65 39.85,48.9"/><path fill="#873721" d="M19.95,82.7L21.2,83.65Q37.55,82.85 52.9,71.05 52.7,70.5 52.45,69.75 35.6,80.05 19.95,82.7"/></g><g id=".__D7.__A2" transform="matrix(1 0 0 1 0 16.1)"><animateTransform attributeName="transform" additive="replace" type="translate" dur="1.667s" keyTimes="0;0.15;0.25;0.325;0.35;0.425;0.5;0.55;1" values="52,18.15;52,18.15;52.003,20.664;51.971,20.674;51.971,20.674;51.981,19.169;52.016,18.136;52,18.15;52,18.15"/><animateTransform attributeName="transform" additive="sum" type="rotate" dur="1.667s" keyTimes="0;0.15;0.25;0.325;0.35;0.425;0.5;0.55;1" values="0,0,0;0,0,0;1.025,0,0;-0.949,0,0;-0.949,0,0;-1.45,0,0;0.775,0,0;0,0,0;0,0,0"/><animateTransform attributeName="transform" additive="sum" type="translate" dur="1.667s" keyTimes="0;0.15;0.25;0.325;0.425;0.5;1" values="-52,-2.05;-52,-2.05;-52.05,-2.05;-52,-2.1;-52,-2.1;-52,-2.05;-52,-2.05"/><path fill="#A63F20" d="M38.85,11.95Q33.8,19.25 26.9,31.15 23.95,36.2 20.75,42.05 11.55,58.65 3.15,63.15 1.55,64 0,64.4 6.65,69.35 18.7,75.4L20.1,73.65Q21.5,71.85 22.05,71.7 22.15,71.65 22.2,71.75L20.85,76.2Q22.8,76.9 25.1,77.7L32.95,66.1Q33,66.1 32.8,67.45 33.25,65.05 33.35,64.45 33.6,63.15 33.3,63.05L52.65,0Q44.25,4.15 38.85,11.95"/><path fill="#873721" d="M33.35,64.45Q33.6,63.15 33.3,63.05L25.7,75Q23.55,74.2 21.7,73.55L20.85,76.2Q22.8,76.9 25.1,77.7L32.95,66.1Q33,66.1 32.8,67.45 33.25,65.05 33.35,64.45"/><path fill="#873721" d="M22.05,71.7L22.85,68.85Q22.55,68.5 20.8,70.85L18.15,74.3Q13.45,72.3 3.5,63.4 3.35,63.25 3.15,63.15 1.55,64 0,64.4 6.65,69.35 18.7,75.4L20.1,73.65Q21.5,71.85 22.05,71.7"/></g><g><g id="h4_t19_d40_l1" transform="matrix(1 0 0 1 20.75 10.45)"><g><g id="head_t19_d40_l1"><g><use xlink:href="#shade" transform="matrix(1 0 0 1 11.6 55.8)"/><animate attributeName="display" repeatCount="1" dur="1.667s" keyTimes="0;0.475;1" values="none;inline;none"/></g><g><use xlink:href="#head_1.0"/><animate attributeName="display" repeatCount="1" dur="1.667s" keyTimes="0;0.475;1" values="none;inline;none"/></g><g><use xlink:href="#hair" transform="matrix(1 0 0 1 0 0)"/><animate attributeName="display" repeatCount="1" dur="1.667s" keyTimes="0;0.475;1" values="none;inline;none"/></g></g><animate attributeName="display" repeatCount="1" dur="1.667s" keyTimes="0;0.475;1" values="none;inline;none"/></g><g><use xlink:href="#ears" transform="matrix(1 0 0 1 4 46.65)"/><animate attributeName="display" repeatCount="1" dur="1.667s" keyTimes="0;0.475;1" values="none;inline;none"/></g><g><use xlink:href="#ll" transform="matrix(1 0 0 1 39.65 81)"/><animate attributeName="display" repeatCount="1" dur="1.667s" keyTimes="0;0.475;1" values="none;inline;none"/></g><g><use xlink:href="#frequels" transform="matrix(1 0 0 1 20.7 50.35)"/><animate attributeName="display" repeatCount="1" dur="1.667s" keyTimes="0;0.475;1" values="none;inline;none"/></g><g><use xlink:href="#cheek" transform="matrix(1 0 0 1 9.5 60.2)"/><animate attributeName="display" repeatCount="1" dur="1.667s" keyTimes="0;0.475;1" values="none;inline;none"/></g><g><use xlink:href="#nose" transform="matrix(1 0 0 1 36.85 56.45)"/><animate attributeName="display" repeatCount="1" dur="1.667s" keyTimes="0;0.475;1" values="none;inline;none"/></g><g><use xlink:href="#.__D7.__A7.__D7.__A0" transform="matrix(1 0 0 1 65.95 43.95)"/><animate attributeName="display" repeatCount="1" dur="1.667s" keyTimes="0;0.475;1" values="none;inline;none"/></g><g><use xlink:href="#eb" transform="matrix(1 0 0 1 16.2 48.6)"/><animate attributeName="display" repeatCount="1" dur="1.667s" keyTimes="0;0.475;1" values="none;inline;none"/></g><g><use xlink:href="#m" transform="matrix(1 0 0 1 41.25 75.2)"/><animate attributeName="display" repeatCount="1" dur="1.667s" keyTimes="0;0.475;1" values="none;inline;none"/></g></g><animate attributeName="display" repeatCount="1" dur="1.667s" keyTimes="0;0.475;1" values="none;inline;none"/></g><g style="display:none;"><g id="h4_f18_d40_l1" transform="matrix(1 0 0 1 20.75 10.55)"><use xlink:href="#shade" transform="matrix(0.992 0.018 0 1 11.15 55.05)"/><use xlink:href="#head_1.0"/><use xlink:href="#hair" transform="matrix(1 0 0 1.002 0.1 -0.1)"/><use xlink:href="#ears" transform="matrix(0.991 0 0 1 4.25 47.4)"/><use xlink:href="#ll" transform="matrix(1 0 0 1 39.65 79.5)"/><use xlink:href="#frequels" transform="matrix(1 0 0 0.972 20.7 50.1)"/><use xlink:href="#cheek" transform="matrix(1 0 0 0.921 9.5 59.9)"/><use xlink:href="#nose" transform="matrix(1 0 0 0.971 36.85 55.7)"/><use xlink:href="#.__D7.__A7.__D7.__A0" transform="matrix(1 0.013 -0.013 0.97 65.9 43.75)"/><use xlink:href="#eb" transform="matrix(1 0 0 0.953 16.2 48.2)"/><use xlink:href="#m" transform="matrix(1 0 0 1 41.25 73.7)"/></g><animate attributeName="display" repeatCount="1" dur="1.667s" keyTimes="0;0.45;0.475;1" values="none;inline;none;none"/></g><g style="display:none;"><g id="h4_f17_d40_l1" transform="matrix(1 0 0 1 20.75 10.65)"><use xlink:href="#shade" transform="matrix(0.983 0.035 0 1 10.8 54.35)"/><use xlink:href="#head_1.0"/><use xlink:href="#hair" transform="matrix(1 0 0 1.004 0.2 -0.2)"/><use xlink:href="#ears" transform="matrix(0.982 0 0 1 4.45 48.15)"/><use xlink:href="#ll" transform="matrix(1 0 0 1 39.65 78)"/><use xlink:href="#frequels" transform="matrix(1 0 0 0.945 20.7 49.9)"/><use xlink:href="#cheek" transform="matrix(1 0 0 0.841 9.5 59.6)"/><use xlink:href="#nose" transform="matrix(1 0 0 0.942 36.85 54.95)"/><use xlink:href="#.__D7.__A7.__D7.__A0" transform="matrix(1 0.027 -0.025 0.939 66 43.45)"/><use xlink:href="#eb" transform="matrix(1 0 0 0.907 16.2 47.9)"/><use xlink:href="#m" transform="matrix(1 0 0 1 41.25 72.2)"/></g><animate attributeName="display" repeatCount="1" dur="1.667s" keyTimes="0;0.425;0.45;1" values="none;inline;none;none"/></g><g style="display:none;"><g id="h4_f16_d40_l1" transform="matrix(1 0 0 1 20.75 10.75)"><use xlink:href="#shade" transform="matrix(0.974 0.052 0 1 10.4 53.65)"/><use xlink:href="#head_1.0"/><use xlink:href="#hair" transform="matrix(1 0 0 1.007 0.3 -0.35)"/><use xlink:href="#ears" transform="matrix(0.973 0 0 1 4.7 48.9)"/><use xlink:href="#ll" transform="matrix(1 0 0 1 39.65 76.5)"/><use xlink:href="#frequels" transform="matrix(1 0 0 0.917 20.7 49.7)"/><use xlink:href="#cheek" transform="matrix(1 0 0 0.762 9.5 59.25)"/><use xlink:href="#nose" transform="matrix(1 0 0 0.913 36.85 54.2)"/><use xlink:href="#.__D7.__A7.__D7.__A0" transform="matrix(0.999 0.04 -0.036 0.909 65.95 43.3)"/><use xlink:href="#eb" transform="matrix(1 0 0 0.86 16.2 47.5)"/><use xlink:href="#m" transform="matrix(1 0 0 1 41.25 70.7)"/></g><animate attributeName="display" repeatCount="1" dur="1.667s" keyTimes="0;0.4;0.425;1" values="none;inline;none;none"/></g><g style="display:none;"><g id="h4_f15_d40_l1" transform="matrix(1 0 0 1 20.75 10.85)"><use xlink:href="#shade" transform="matrix(0.964 0.072 0 1 10 52.8)"/><use xlink:href="#head_1.0"/><use xlink:href="#hair" transform="matrix(1 0 0 1.009 0.4 -0.45)"/><use xlink:href="#ears" transform="matrix(0.964 0 0 1 4.9 49.65)"/><use xlink:href="#ll" transform="matrix(1 0 0 1 39.65 75)"/><use xlink:href="#frequels" transform="matrix(1 0 0 0.889 20.7 49.5)"/><use xlink:href="#cheek" transform="matrix(1 0 0 0.682 9.5 59)"/><use xlink:href="#nose" transform="matrix(1 0 0 0.884 36.85 53.45)"/><use xlink:href="#.__D7.__A7.__D7.__A0" transform="matrix(0.998 0.053 -0.047 0.878 65.95 42.95)"/><use xlink:href="#eb" transform="matrix(1 0 0 0.813 16.2 47.15)"/><use xlink:href="#m" transform="matrix(1 0 0 1 41.25 69.2)"/></g><animate attributeName="display" repeatCount="1" dur="1.667s" keyTimes="0;0.375;0.4;1" values="none;inline;none;none"/></g><g style="display:none;"><g id="h4_f14_d40_l1" transform="matrix(1 0 0 1 20.75 10.95)"><use xlink:href="#shade" transform="matrix(0.955 0.09 0 1 9.6 52.05)"/><use xlink:href="#head_1.0"/><use xlink:href="#hair" transform="matrix(1 0 0 1.011 0.5 -0.55)"/><use xlink:href="#ears" transform="matrix(0.955 0 0 1 5.15 50.4)"/><use xlink:href="#ll" transform="matrix(1 0 0 1 39.65 73.5)"/><use xlink:href="#frequels" transform="matrix(1 0 0 0.861 20.7 49.3)"/><use xlink:href="#cheek" transform="matrix(1 0 0 0.603 9.5 58.7)"/><use xlink:href="#nose" transform="matrix(1 0 0 0.854 36.85 52.7)"/><use xlink:href="#.__D7.__A7.__D7.__A0" transform="matrix(0.998 0.069 -0.059 0.848 66.05 42.65)"/><use xlink:href="#eb" transform="matrix(1 0 0 0.767 16.2 46.8)"/><use xlink:href="#m" transform="matrix(1 0 0 1 41.25 67.7)"/></g><animate attributeName="display" repeatCount="1" dur="1.667s" keyTimes="0;0.35;0.375;1" values="none;inline;none;none"/></g><g style="display:none;"><g id="h4_t10_d40_l1" transform="matrix(1 0 0 1 20.75 10.95)"><g style="display:none;"><g id="head_t10_d40_l1" transform="matrix(1 0 0 1 0 0)"><g style="display:none;"><use xlink:href="#shade" transform="matrix(0.955 0.09 0 1 9.6 52.05)"/><animate attributeName="display" repeatCount="1" dur="1.667s" keyTimes="0;0.25;0.35;1" values="none;inline;none;none"/></g><g style="display:none;"><use xlink:href="#head_1.0"/><animate attributeName="display" repeatCount="1" dur="1.667s" keyTimes="0;0.25;0.35;1" values="none;inline;none;none"/></g><g style="display:none;"><use xlink:href="#hair" transform="matrix(1 0 0 1.011 0.5 -0.55)"/><animate attributeName="display" repeatCount="1" dur="1.667s" keyTimes="0;0.25;0.35;1" values="none;inline;none;none"/></g></g><animate attributeName="display" repeatCount="1" dur="1.667s" keyTimes="0;0.25;0.35;1" values="none;inline;none;none"/></g><g style="display:none;"><use xlink:href="#ears" transform="matrix(0.955 0 0 1 5.15 50.4)"/><animate attributeName="display" repeatCount="1" dur="1.667s" keyTimes="0;0.25;0.35;1" values="none;inline;none;none"/></g><g style="display:none;"><use xlink:href="#ll" transform="matrix(1 0 0 1 39.65 73.5)"/><animate attributeName="display" repeatCount="1" dur="1.667s" keyTimes="0;0.25;0.35;1" values="none;inline;none;none"/></g><g style="display:none;"><use xlink:href="#frequels" transform="matrix(1 0 0 0.861 20.7 49.3)"/><animate attributeName="display" repeatCount="1" dur="1.667s" keyTimes="0;0.25;0.35;1" values="none;inline;none;none"/></g><g style="display:none;"><use xlink:href="#cheek" transform="matrix(1 0 0 0.603 9.5 58.7)"/><animate attributeName="display" repeatCount="1" dur="1.667s" keyTimes="0;0.25;0.35;1" values="none;inline;none;none"/></g><g style="display:none;"><use xlink:href="#nose" transform="matrix(1 0 0 0.854 36.85 52.7)"/><animate attributeName="display" repeatCount="1" dur="1.667s" keyTimes="0;0.25;0.35;1" values="none;inline;none;none"/></g><g style="display:none;"><use xlink:href="#.__D7.__A7.__D7.__A0" transform="matrix(0.998 0.069 -0.059 0.848 66.05 42.65)"/><animate attributeName="display" repeatCount="1" dur="1.667s" keyTimes="0;0.25;0.35;1" values="none;inline;none;none"/></g><g style="display:none;"><use xlink:href="#eb" transform="matrix(1 0 0 0.767 16.2 46.8)"/><animate attributeName="display" repeatCount="1" dur="1.667s" keyTimes="0;0.25;0.35;1" values="none;inline;none;none"/></g><g style="display:none;"><use xlink:href="#m" transform="matrix(1 0 0 1 41.25 67.7)"/><animate attributeName="display" repeatCount="1" dur="1.667s" keyTimes="0;0.25;0.35;1" values="none;inline;none;none"/></g></g><animate attributeName="display" repeatCount="1" dur="1.667s" keyTimes="0;0.25;0.35;1" values="none;inline;none;none"/></g><g style="display:none;"><g id="h4_f9_d40_l1" transform="matrix(1 0 0 1 20.75 10.85)"><use xlink:href="#shade" transform="matrix(0.967 0.068 0 1 10.05 53)"/><use xlink:href="#head_1.0"/><use xlink:href="#hair" transform="matrix(1 0 0 1.008 0.4 -0.45)"/><use xlink:href="#ears" transform="matrix(0.966 0 0 1 4.85 49.45)"/><use xlink:href="#ll" transform="matrix(1 0 0 1 39.65 75.4)"/><use xlink:href="#frequels" transform="matrix(1 0 0 0.896 20.7 49.55)"/><use xlink:href="#cheek" transform="matrix(1 0 0 0.702 9.5 59.05)"/><use xlink:href="#nose" transform="matrix(1 0 0 0.891 36.85 53.7)"/><use xlink:href="#.__D7.__A7.__D7.__A0" transform="matrix(0.999 0.032 -0.029 0.924 66.05 43.1)"/><use xlink:href="#eb" transform="matrix(1 0 0 0.825 16.2 47.25)"/><use xlink:href="#m" transform="matrix(1.287 0 0 1 40.7 70.95)"/></g><animate attributeName="display" repeatCount="1" dur="1.667s" keyTimes="0;0.225;0.25;1" values="none;inline;none;none"/></g><g style="display:none;"><g id="h4_f8_d40_l1" transform="matrix(1 0 0 1 20.75 10.7)"><use xlink:href="#shade" transform="matrix(0.978 0.044 0 1 10.55 54)"/><use xlink:href="#head_1.0"/><use xlink:href="#hair" transform="matrix(1 0 0 1.006 0.25 -0.25)"/><use xlink:href="#ears" transform="matrix(0.977 0 0 1 4.55 48.55)"/><use xlink:href="#ll" transform="matrix(1 0 0 1 39.65 77.25)"/><use xlink:href="#frequels" transform="matrix(1 0 0 0.931 20.7 49.8)"/><use xlink:href="#cheek" transform="matrix(1 0 0 0.801 9.5 59.5)"/><use xlink:href="#nose" transform="matrix(1 0 0 0.927 36.85 54.6)"/><use xlink:href="#.__D7.__A7.__D7.__A0" transform="matrix(1 0 0 1 65.95 43.45)"/><use xlink:href="#eb" transform="matrix(1 0 0 0.883 16.2 47.7)"/><use xlink:href="#m" transform="matrix(1.575 0 0 1 40.1 74.2)"/></g><animate attributeName="display" repeatCount="1" dur="1.667s" keyTimes="0;0.2;0.225;1" values="none;inline;none;none"/></g><g style="display:none;"><g id="h4_f7_d40_l1" transform="matrix(1 0 0 1 20.75 10.6)"><use xlink:href="#shade" transform="matrix(0.989 0.022 0 1 11.05 54.85)"/><use xlink:href="#head_1.0"/><use xlink:href="#hair" transform="matrix(1 0 0 1.003 0.15 -0.15)"/><use xlink:href="#ears" transform="matrix(0.989 0 0 1 4.3 47.6)"/><use xlink:href="#ll" transform="matrix(1 0 0 1 39.65 79.15)"/><use xlink:href="#frequels" transform="matrix(1 0 0 0.965 20.7 50.1)"/><use xlink:href="#cheek" transform="matrix(1 0 0 0.901 9.5 59.8)"/><use xlink:href="#nose" transform="matrix(1 0 0 0.964 36.85 55.55)"/><use xlink:href="#.__D7.__A7.__D7.__A0" transform="matrix(1 0 0 1 65.95 43.7)"/><use xlink:href="#eb" transform="matrix(1 0 0 0.942 16.2 48.15)"/><use xlink:href="#g_mouth__" transform="matrix(-0.827 0.055 0.367 0.93 59.25 64.95)"/></g><animate attributeName="display" repeatCount="1" dur="1.667s" keyTimes="0;0.175;0.2;1" values="none;inline;none;none"/></g><g style="display:none;"><g id="h4_f6_d40_l1" transform="matrix(1 0 0 1 20.75 10.45)"><use xlink:href="#shade" transform="matrix(1 0 0 1 11.6 55.8)"/><use xlink:href="#head_1.0"/><use xlink:href="#hair"/><use xlink:href="#ears" transform="matrix(1 0 0 1 4 46.65)"/><use xlink:href="#ll" transform="matrix(1 0 0 1 39.65 81)"/><use xlink:href="#frequels" transform="matrix(1 0 0 1 20.7 50.35)"/><use xlink:href="#cheek" transform="matrix(1 0 0 1 9.5 60.2)"/><use xlink:href="#nose" transform="matrix(1 0 0 1 36.85 56.45)"/><use xlink:href="#.__D7.__A7.__D7.__A0" transform="matrix(1 0 0 1 65.95 43.95)"/><use xlink:href="#eb" transform="matrix(1 0 0 1 16.2 48.6)"/><use xlink:href="#g_mouth__" transform="matrix(-0.827 0.055 0.367 0.93 59.25 64.95)"/></g><animate attributeName="display" repeatCount="1" dur="1.667s" keyTimes="0;0.15;0.175;1" values="none;inline;none;none"/></g><g style="display:none;"><g id="h4_d40_l1" transform="matrix(1 0 0 1 20.75 10.45)"><g style="display:none;"><g id="head_d40_l1" transform="matrix(1 0 0 1 0 0)"><g style="display:none;"><use xlink:href="#shade" transform="matrix(1 0 0 1 11.6 55.8)"/><animate attributeName="display" repeatCount="1" dur="1.667s" keyTimes="0;0.15;1" values="inline;none;none"/></g><g style="display:none;"><use xlink:href="#head_1.0"/><animate attributeName="display" repeatCount="1" dur="1.667s" keyTimes="0;0.15;1" values="inline;none;none"/></g><g style="display:none;"><use xlink:href="#hair" transform="matrix(1 0 0 1 0 0)"/><animate attributeName="display" repeatCount="1" dur="1.667s" keyTimes="0;0.15;1" values="inline;none;none"/></g></g><animate attributeName="display" repeatCount="1" dur="1.667s" keyTimes="0;0.15;1" values="inline;none;none"/></g><g style="display:none;"><use xlink:href="#ears" transform="matrix(1 0 0 1 4 46.65)"/><animate attributeName="display" repeatCount="1" dur="1.667s" keyTimes="0;0.15;1" values="inline;none;none"/></g><g style="display:none;"><use xlink:href="#ll" transform="matrix(1 0 0 1 39.65 81)"/><animate attributeName="display" repeatCount="1" dur="1.667s" keyTimes="0;0.15;1" values="inline;none;none"/></g><g style="display:none;"><use xlink:href="#frequels" transform="matrix(1 0 0 1 20.7 50.35)"/><animate attributeName="display" repeatCount="1" dur="1.667s" keyTimes="0;0.15;1" values="inline;none;none"/></g><g style="display:none;"><use xlink:href="#cheek" transform="matrix(1 0 0 1 9.5 60.2)"/><animate attributeName="display" repeatCount="1" dur="1.667s" keyTimes="0;0.15;1" values="inline;none;none"/></g><g style="display:none;"><use xlink:href="#nose" transform="matrix(1 0 0 1 36.85 56.45)"/><animate attributeName="display" repeatCount="1" dur="1.667s" keyTimes="0;0.15;1" values="inline;none;none"/></g><g style="display:none;"><use xlink:href="#.__D7.__A7.__D7.__A0" transform="matrix(1 0 0 1 65.95 43.95)"/><animate attributeName="display" repeatCount="1" dur="1.667s" keyTimes="0;0.15;1" values="inline;none;none"/></g><g style="display:none;"><use xlink:href="#eb" transform="matrix(1 0 0 1 16.2 48.6)"/><animate attributeName="display" repeatCount="1" dur="1.667s" keyTimes="0;0.15;1" values="inline;none;none"/></g><g style="display:none;"><use xlink:href="#g_mouth__" transform="matrix(-0.827 0.055 0.367 0.93 59.25 64.95)"/><animate attributeName="display" repeatCount="1" dur="1.667s" keyTimes="0;0.15;1" values="inline;none;none"/></g></g><animate attributeName="display" repeatCount="1" dur="1.667s" keyTimes="0;0.15;1" values="inline;none;none"/></g><g id="h1" transform="matrix(1 0 0 1 22.25 22.85)"><animateTransform attributeName="transform" additive="replace" type="translate" dur="1.667s" keyTimes="0;0.15;0.25;0.325;0.35;0.425;0.5;0.55;1" values="84.85,36.35;84.85,36.35;86.1,36.772;86.1,36.695;86.1,36.695;85.5,36.596;84.85,36.351;84.85,36.35;84.85,36.35"/><animateTransform attributeName="transform" additive="sum" type="skewY" dur="1.667s" keyTimes="0;0.15;0.25;0.325;0.35;0.425;0.5;0.55;0.6;1" values="0;0;-1.428;0.646;0.646;2.471;-1.189;0.549;0;0"/><animateTransform attributeName="transform" additive="sum" type="scale" dur="1.667s" keyTimes="0;0.15;0.25;0.35;0.425;0.5;1" values="1,1;1,1;1,0.889;1,0.889;1.001,0.944;1,1;1,1"/><animateTransform attributeName="transform" additive="sum" type="scale" dur="1.667s" keyTimes="0;0.424;0.425;0.476;1" values="1,1;1,1;0.999,1;1,1;1,1" keySplines=".1 .1 .9 .9;.1 .1 .9 .9;0 0 1 1;.5 0 .75 .5" calcMode="spline"/><animateTransform attributeName="transform" additive="sum" type="translate" dur="1.667s" keyTimes="0;0.15;0.25;0.325;0.425;0.5;1" values="-62.6,-13.5;-62.6,-13.5;-62.6,-13.65;-62.6,-13.6;-62.6,-13.6;-62.6,-13.5;-62.6,-13.5"/><path fill="#A63F20" d="M46.95,26L60.55,19.9 62.6,13.5Q59.05,-1.85 43.3,0.25 29.55,1.8 14.75,17.75 12.68,19.726 10.75,23.1 5.95,32.05 1.85,35.4 0.95,36.2 0,36.7 1.3,36.75 2.45,36.8 3.15,36.8 3.85,36.8 9.1,36.7 14.1,36 31.65,33.45 46.95,26"/><path fill="#873721" d="M62.6,13.5Q61.1,14.35 57.6,16.75 56.25,17.65 54.65,18.75 46.15,24.7 28.25,31.95 27.4,32.25 26.6,32.6 25.6,32.8 24.6,33 16.2,34.65 6.3,36.05 5.1,36.05 4.25,36.05 2.8,36.05 2.15,36 1.4,35.95 2.15,35.9 2.25,35.8 2.5,35.8 7.8,32.05 10.45,26.4 12.4,22.4 14.75,17.75 12.68,19.726 10.75,23.1 5.95,32.05 1.85,35.4 0.95,36.2 0,36.7 1.3,36.75 2.45,36.8 3.15,36.8 3.85,36.8 9.1,36.7 14.1,36 31.65,33.45 46.95,26L60.55,19.9 62.6,13.5"/></g><g id="rr" transform="matrix(1 0 0 1 41.65 9.75)"><animateTransform attributeName="transform" additive="replace" type="translate" dur="1.667s" keyTimes="0;0.15;0.25;0.35;0.475;1" values="77.9,37.05;77.9,37.05;79.558,38.328;79.558,38.328;77.9,37.05;77.9,37.05"/><animateTransform attributeName="transform" additive="sum" type="rotate" dur="1.667s" keyTimes="0;0.15;0.25;0.35;0.475;1" values="0,0,0;0,0,0;11.297,0,0;11.297,0,0;0,0,0;0,0,0"/><animateTransform attributeName="transform" additive="sum" type="skewY" dur="1.667s" keyTimes="0;0.15;0.25;0.35;0.475;1" values="0;0;-2.269;-2.269;0;0"/><animateTransform attributeName="transform" additive="sum" type="scale" dur="1.667s" keyTimes="0;0.15;0.25;0.35;0.475;1" values="1,1;1,1;1.02,0.854;1.02,0.854;1,1;1,1"/><animateTransform attributeName="transform" additive="sum" type="scale" dur="1.667s" keyTimes="0;0.25;0.251;0.475;0.476;1" values="1,1;1,1;0.999,1;0.999,1;1,1;1,1"/><animateTransform attributeName="transform" additive="sum" type="translate" dur="1.667s" keyTimes="0;0.15;0.25;0.35;0.475;1" values="-36.25,-27.3;-36.25,-27.3;-36.2,-27.45;-36.2,-27.45;-36.25,-27.3;-36.25,-27.3"/><path fill="#445F8E" d="M45,12.2Q43.9,10.05 55.85,19.75 67.3,29.05 69.8,54.65 70.15,54.6 70.6,54.55 77.8,31.25 58.5,13.75 42.6,1.05 31.05,1.2 19.5,1.4 8.7,6.3 -2.15,11.2 0.5,12.55 4.6,11.45 11.8,9.55 30.25,4.7 45,12.2"/><path fill="#538DC6" d="M61.25,8.9Q62,7.85 61.9,7.1 61.95,6.65 61.95,6.4 61.95,6 61.4,5.55 60.8,5.05 59.25,5.25 58.55,5.3 58.1,5.55 58.3,4.35 58.25,3.7 57.95,0.25 55.15,0.8 54.05,1.05 53.35,1.8 52.9,2.3 52.75,2.8 52.6,2.8 52.55,2.85 52.05,1.85 51.5,1.05 50.15,-0.6 49.1,0.35 48.3,1.1 48.3,2.2 47.1,1.65 45.9,1.45 42.5,0.8 42.8,4.3 42.95,6.25 43.5,6.85 43.65,6.95 43.8,7.1 42.6,7.2 42.15,7.8L42.05,8.7Q42.15,9.65 42.35,9.9 42.7,10.25 43.95,10.7 43.55,10.85 43.45,11 41.95,11.95 42.15,13.65 42.2,14.65 42.4,14.9 43,15.85 45,15.65 46.1,15.55 47.55,14.9 47.05,15.35 46.85,15.55 45.9,16.75 46.05,18.7 46.05,18.75 46.15,20.05 46.75,21.45 48.9,21.25 50.85,21.1 51.75,19.35 51.8,19.3 51.8,19.25 52.3,20.25 56,19.9 58.65,19.7 58.45,17.25 58.45,17.2 58.45,17.15 59.2,17.35 59.95,17.35 63.4,17 63.25,14.95 63.15,14.3 62.5,13.4 62.45,13.2 62.45,12.9 62.45,12.75 62.35,12.45 62.65,12.25 62.9,11.9 63.55,11.2 63.5,10.45 63.45,9.95 61.5,9.55 61.25,9.5 61.15,9.45 61.25,9.1 61.25,8.9 M61.1,7.3Q60.8,6.55 60.15,6.2 60.85,6.2 61.05,6.25 61.35,6.35 61.4,7.15 61.45,7.55 61.25,7.9 61.15,7.6 61.1,7.3 M62.9,10.6Q63,11.05 62.45,11.55 62.25,11.7 62,11.9 61.95,11.6 61.75,11.35 61.15,10.25 61.15,9.9 61.65,10 62.2,10.2 62.75,10.4 62.9,10.6 M62.55,14.75Q62.6,14.9 62.65,15 62.7,15.65 62.35,15.9 61.6,16.55 58.9,16.8 58.7,16.8 58.4,16.65 58.35,16.25 58.3,16.2 58.2,15.95 58.1,15.75L60.05,15.55Q62.3,15.35 62.55,14.85 62.55,14.8 62.55,14.75 M57.7,3.65Q57.7,4.45 57.35,5.95 57.25,6.05 57.2,6.15 57.55,4.6 57.35,3.85 57.15,2.15 53.95,2.45 53.7,2.5 53.55,2.55 54.1,1.5 55.6,1.4 56.65,1.3 57.3,2.4 57.65,3.05 57.7,3.65 M51.75,4.95Q50.35,3.4 48.85,2.6 48.85,2.55 48.85,2.45 48.75,1.9 48.9,1.65 49.2,0.8 50.3,0.7 51.6,0.65 52.1,3.1 51.85,3.35 51.75,3.7 51.6,4.3 51.9,4.95L51.75,4.95 M57.25,6.35Q57.2,6.35 57.15,6.35 57.1,6.35 57.15,6.25 57.15,6.3 57.25,6.35 M42.65,7.95L44.85,7.75Q45.55,8.2 46.75,8.8L46.75,8.95Q45.6,9.65 44.85,10.15 43.65,10.1 43.15,9.65 42.7,9.4 42.65,8.6 42.6,8.15 42.65,7.95 M47.7,14.15Q46.75,14.9 44.9,15.05 43.3,15.2 42.85,14.65 42.7,14.45 42.65,13.6 42.6,13.25 42.75,12.9 42.75,12.95 42.75,13.1 42.8,13.95 43.15,14.15 44.2,14.5 48.15,13.8 47.9,13.95 47.7,14.15 M47,16.7L47.3,20.4Q46.9,20.15 46.7,19.75 46.6,18.65 46.65,18.55 46.55,17.65 47,16.7 M47.35,20.4L48.75,20.4Q50.3,20.3 51.25,19.1 51.45,18.85 51.65,18.5 51.65,18.85 51.55,19 51,20.4 48.85,20.6 47.9,20.65 47.35,20.4 M57.9,17.25Q57.95,17.7 57.75,18.15 57.45,18.9 56.6,19.2 57.05,18.7 57.15,17.95 56.9,16.55 56.8,16.15 57.25,16.5 57.8,16.8 57.85,17.15 57.9,17.25"/><path fill="#445F8E" d="M55.45,10.15Q54.35,9.5 53.5,9.05 53.65,8.7 53.45,8.45 50.85,8.6 50.25,9.5 50.05,9.8 50.15,10.95L50.45,12.45Q51.2,13.9 53.75,13.65 56.4,13.45 56.3,11.45 56.2,10.6 55.45,10.15"/></g></g><g><g id="h" transform="matrix(1 0 0 1 -49.3 30.25)"><animateTransform attributeName="transform" additive="replace" type="translate" dur="1.667s" keyTimes="0;0.45;0.5;1" values="-28.622,31.533;-28.622,31.533;-28.6,31.55;-28.6,31.55"/><animateTransform attributeName="transform" additive="sum" type="scale" dur="1.667s" keyTimes="0;0.45;0.5;1" values="1.071,1.103;1.071,1.103;1,1;1,1"/><animateTransform attributeName="transform" additive="sum" type="translate" dur="1.667s" keyTimes="0;1" values="-20.7,-1.3;-20.7,-1.3"/><path fill="#000" fill-opacity="0.38" d="M26.4,3.35Q24.55,1.3 20.5,2.45 18.85,1.85 14.9,2.1L14.85,2.1Q10.75,3 8.9,6.25 7.15,9.4 0.15,18.4 0.1,18.45 0.1,18.6 -0.15,19.75 0.2,20.25 0.6,20.9 1.65,20.85 2.95,20.85 5.2,18.45 4.55,20.15 3.15,24.1L3.15,24.05Q1.95,27.25 2.6,28.65 3.2,30.2 5.85,29.55 5.9,29.55 5.95,29.5 6.8,29.05 8.5,25.5 10.05,22.15 10.7,21.65 10.749,21.601 10.75,21.55 10.751,21.653 10.85,22 10.9,23.05 10,28.8 9.45,31.8 9.85,33.4 10.25,35.2 11.9,35.55 13.55,35.95 15,34.2 15.5,33 17.1,27 17.85,24.05 18.35,23.05 18.45,22.9 18.55,22.85L18.55,22.9Q19.15,24.7 19.65,28.95 19.85,31.2 20.55,32.25 21.35,33.45 22.6,33.3 26,33.7 26.65,25.25 27.15,18.35 26.7,14.3 29.2,16.95 31.3,18.15 34.15,19.85 35.7,19.45L35.75,19.45Q38,18.7 37.8,16.95 37.65,15.4 34.35,12.7 31.1,9.9 29.65,7.65 28.2,5.4 26.4,3.35"/><path fill="#CB734E" d="M30.3,5.6Q28.85,3.35 27.05,1.3 25.2,-0.75 21.15,0.4 19.5,-0.2 15.55,0.05L15.5,0.05Q11.4,0.95 9.55,4.2 7.8,7.35 0.8,16.35 0.75,16.4 0.75,16.55 0.5,17.7 0.85,18.2 1.25,18.85 2.3,18.8 3.6,18.8 5.85,16.4 5.2,18.1 3.8,22.05L3.8,22Q2.6,25.2 3.25,26.6 3.85,28.15 6.5,27.5 6.55,27.5 6.6,27.45 7.45,27 9.15,23.45 10.7,20.1 11.35,19.6 11.399,19.551 11.4,19.5 11.401,19.603 11.5,19.95 11.55,21 10.65,26.75 10.1,29.75 10.5,31.35 10.9,33.15 12.55,33.5 14.2,33.9 15.65,32.15 16.15,30.95 17.75,24.95 18.5,22 19,21 19.1,20.85 19.2,20.8L19.2,20.85Q19.8,22.65 20.3,26.9 20.5,29.15 21.2,30.2 22,31.4 23.25,31.25 26.65,31.65 27.3,23.2 27.8,16.3 27.35,12.25 29.85,14.9 31.95,16.1 34.8,17.8 36.35,17.4L36.4,17.4Q38.65,16.65 38.45,14.9 38.3,13.35 35,10.65 31.75,7.85 30.3,5.6"/><path fill="#FFCB99" d="M23,0.7Q21.15,1.35 20.95,1.25 19.45,0.65 16.7,0.55 12.45,0.4 10.5,3.45 8.5,6.45 1.4,16.2 1.4,17.5 1.6,17.8 1.75,18.05 2.25,17.95 3.65,17.8 6.5,14.35 6.55,14.3 6.7,14.25 6.85,14.2 7,14.3 7.15,14.35 7.2,14.5 7.25,14.65 7.2,14.75L7.1,15.25Q7.05,15.35 7.05,15.45L7.05,15.5Q6.9,15.75 4.6,22.3 3.55,25.05 3.9,26.4 4.2,27.7 5.5,27.1 6.75,26.55 8.4,23 10.05,19.4 10.85,18.9L10.8,18.95Q11.45,18.45 11.9,18.8 12.2,19 12.35,19.8 12.45,20.9 11.45,26.85 10.95,29.65 11.3,31.2 11.55,32.35 12.35,32.65 13.05,32.9 13.8,32.65 14.5,32.35 15,31.55 15.4,30.75 16.55,26.25 17.75,21.7 18.35,20.6 18.7,19.8 19.15,19.85 19.65,19.7 19.95,20.55L20,20.55Q20.6,22.45 21.1,26.8 21.35,28.8 21.95,29.75 22.4,30.5 23.2,30.4 23.25,30.4 23.3,30.4 25.9,30.55 26.5,23.1 27.05,15.15 26.35,10.95 26.3,10.8 26.4,10.75 26.45,10.55 26.55,10.55 26.65,10.45 26.85,10.45 27,10.55 27.05,10.6 29.95,14.05 32.35,15.4 34.8,16.85 36.15,16.6 37.65,16.05 37.6,15 37.4,13.7 35.4,11.65 31,7.3 29.55,5.15 28.15,3.1 26.5,1.6 24.95,0.1 23,0.7"/><path fill="#CB734E" fill-opacity="0.553" d="M25.15,5.9Q25.75,5.25 25.5,4.2 25.2,3.1 23.4,3.15 21.55,3.2 20.25,4.25 21.55,2.6 19.45,1.4 19.1,1.1 18.7,1.1 18.4,1.05 18.1,1.15 18.2,1.05 18.3,1 17.1,0.8 16.2,2 15.4,3.1 15.25,4.1 15.2,4.4 15.2,6.1 15.2,6.15 15.4,8.85 15.85,11.55 17.55,10.7 19.2,9.8 21.85,8.2 24.5,6.55 25.15,5.9"/></g><animate attributeName="display" repeatCount="1" dur="1.667s" keyTimes="0;0.45;1" values="none;inline;none"/></g><g style="display:none;"><g id="h_copy" transform="matrix(0.921 0 0 -0.885 -42.65 32.7)"><animateTransform attributeName="transform" additive="replace" type="translate" dur="1.667s" keyTimes="0;0.2;0.225;0.399;0.4;0.425;1" values="-23.592,30.774;-23.592,30.774;-23.67,29.015;-23.67,29.015;-23.542,31.556;-23.583,31.549;-23.583,31.549"/><animateTransform attributeName="transform" additive="sum" type="rotate" dur="1.667s" keyTimes="0;0.2;0.225;0.399;0.4;0.425;1" values="-177.763,0,0;-177.763,0,0;-173.803,0,0;-173.803,0,0;-176.532,0,0;-180,0,0;-180,0,0"/><animateTransform attributeName="transform" additive="sum" type="skewY" dur="1.667s" keyTimes="0;0.2;0.225;1" values="180.001;180.001;180;180"/><animateTransform attributeName="transform" additive="sum" type="scale" dur="1.667s" keyTimes="0;0.2;0.225;0.399;0.4;0.425;1" values="0.887,0.839;0.887,0.839;0.807,0.807;0.807,0.807;0.842,0.842;0.921,0.885;0.921,0.885"/><animateTransform attributeName="transform" additive="sum" type="scale" dur="1.667s" keyTimes="0;1" values="-1,1;-1,1"/><animateTransform attributeName="transform" additive="sum" type="translate" dur="1.667s" keyTimes="0;0.2;0.225;0.399;0.4;0.425;1" values="-20.6,-1.3;-20.6,-1.3;-20.65,-1.35;-20.65,-1.35;-20.75,-1.25;-20.7,-1.3;-20.7,-1.3"/><path fill="#CB734E" d="M30.3,5.6Q28.85,3.35 27.05,1.3 25.2,-0.75 21.15,0.4 19.5,-0.2 15.55,0.05L15.5,0.05Q11.4,0.95 9.55,4.2 7.8,7.35 0.8,16.35 0.75,16.4 0.75,16.55 0.5,17.7 0.85,18.2 1.25,18.85 2.3,18.8 3.6,18.8 5.85,16.4 5.2,18.1 3.8,22.05L3.8,22Q2.6,25.2 3.25,26.6 3.85,28.15 6.5,27.5 6.55,27.5 6.6,27.45 7.45,27 9.15,23.45 10.7,20.1 11.35,19.6 11.399,19.551 11.4,19.5 11.401,19.603 11.5,19.95 11.55,21 10.65,26.75 10.1,29.75 10.5,31.35 10.9,33.15 12.55,33.5 14.2,33.9 15.65,32.15 16.15,30.95 17.75,24.95 18.5,22 19,21 19.1,20.85 19.2,20.8L19.2,20.85Q19.8,22.65 20.3,26.9 20.5,29.15 21.2,30.2 22,31.4 23.25,31.25 26.65,31.65 27.3,23.2 27.8,16.3 27.35,12.25 29.85,14.9 31.95,16.1 34.8,17.8 36.35,17.4L36.4,17.4Q38.65,16.65 38.45,14.9 38.3,13.35 35,10.65 31.75,7.85 30.3,5.6"/><path fill="#FFCB99" d="M23,0.7Q21.15,1.35 20.95,1.25 19.45,0.65 16.7,0.55 12.45,0.4 10.5,3.45 8.5,6.45 1.4,16.2 1.4,17.5 1.6,17.8 1.75,18.05 2.25,17.95 3.65,17.8 6.5,14.35 6.55,14.3 6.7,14.25 6.85,14.2 7,14.3 7.15,14.35 7.2,14.5 7.25,14.65 7.2,14.75L7.1,15.25Q7.05,15.35 7.05,15.45L7.05,15.5Q6.9,15.75 4.6,22.3 3.55,25.05 3.9,26.4 4.2,27.7 5.5,27.1 6.75,26.55 8.4,23 10.05,19.4 10.85,18.9L10.8,18.95Q11.45,18.45 11.9,18.8 12.2,19 12.35,19.8 12.45,20.9 11.45,26.85 10.95,29.65 11.3,31.2 11.55,32.35 12.35,32.65 13.05,32.9 13.8,32.65 14.5,32.35 15,31.55 15.4,30.75 16.55,26.25 17.75,21.7 18.35,20.6 18.7,19.8 19.15,19.85 19.65,19.7 19.95,20.55L20,20.55Q20.6,22.45 21.1,26.8 21.35,28.8 21.95,29.75 22.4,30.5 23.2,30.4 23.25,30.4 23.3,30.4 25.9,30.55 26.5,23.1 27.05,15.15 26.35,10.95 26.3,10.8 26.4,10.75 26.45,10.55 26.55,10.55 26.65,10.45 26.85,10.45 27,10.55 27.05,10.6 29.95,14.05 32.35,15.4 34.8,16.85 36.15,16.6 37.65,16.05 37.6,15 37.4,13.7 35.4,11.65 31,7.3 29.55,5.15 28.15,3.1 26.5,1.6 24.95,0.1 23,0.7"/></g><animate attributeName="display" repeatCount="1" dur="1.667s" keyTimes="0;0.2;0.45;1" values="none;inline;none;none"/></g><g style="display:none;"><g id="h_copy_2" transform="matrix(1 0 0 0.869 -49.3 30.4)"><animateTransform attributeName="transform" additive="replace" type="translate" dur="1.667s" keyTimes="0;0.15;0.175;1" values="-28.6,31.55;-28.6,31.55;-28.6,31.529;-28.6,31.529"/><animateTransform attributeName="transform" additive="sum" type="scale" dur="1.667s" keyTimes="0;0.15;0.175;1" values="1,1;1,1;1,0.869;1,0.869"/><animateTransform attributeName="transform" additive="sum" type="translate" dur="1.667s" keyTimes="0;1" values="-20.7,-1.3;-20.7,-1.3"/><path fill="#000" fill-opacity="0.38" d="M26.4,3.35Q24.55,1.3 20.5,2.45 18.85,1.85 14.9,2.1L14.85,2.1Q10.75,3 8.9,6.25 7.15,9.4 0.15,18.4 0.1,18.45 0.1,18.6 -0.15,19.75 0.2,20.25 0.6,20.9 1.65,20.85 2.95,20.85 5.2,18.45 4.55,20.15 3.15,24.1L3.15,24.05Q1.95,27.25 2.6,28.65 3.2,30.2 5.85,29.55 5.9,29.55 5.95,29.5 6.8,29.05 8.5,25.5 10.05,22.15 10.7,21.65 10.749,21.601 10.75,21.55 10.751,21.653 10.85,22 10.9,23.05 10,28.8 9.45,31.8 9.85,33.4 10.25,35.2 11.9,35.55 13.55,35.95 15,34.2 15.5,33 17.1,27 17.85,24.05 18.35,23.05 18.45,22.9 18.55,22.85L18.55,22.9Q19.15,24.7 19.65,28.95 19.85,31.2 20.55,32.25 21.35,33.45 22.6,33.3 26,33.7 26.65,25.25 27.15,18.35 26.7,14.3 29.2,16.95 31.3,18.15 34.15,19.85 35.7,19.45L35.75,19.45Q38,18.7 37.8,16.95 37.65,15.4 34.35,12.7 31.1,9.9 29.65,7.65 28.2,5.4 26.4,3.35"/><path fill="#CB734E" d="M30.3,5.6Q28.85,3.35 27.05,1.3 25.2,-0.75 21.15,0.4 19.5,-0.2 15.55,0.05L15.5,0.05Q11.4,0.95 9.55,4.2 7.8,7.35 0.8,16.35 0.75,16.4 0.75,16.55 0.5,17.7 0.85,18.2 1.25,18.85 2.3,18.8 3.6,18.8 5.85,16.4 5.2,18.1 3.8,22.05L3.8,22Q2.6,25.2 3.25,26.6 3.85,28.15 6.5,27.5 6.55,27.5 6.6,27.45 7.45,27 9.15,23.45 10.7,20.1 11.35,19.6 11.399,19.551 11.4,19.5 11.401,19.603 11.5,19.95 11.55,21 10.65,26.75 10.1,29.75 10.5,31.35 10.9,33.15 12.55,33.5 14.2,33.9 15.65,32.15 16.15,30.95 17.75,24.95 18.5,22 19,21 19.1,20.85 19.2,20.8L19.2,20.85Q19.8,22.65 20.3,26.9 20.5,29.15 21.2,30.2 22,31.4 23.25,31.25 26.65,31.65 27.3,23.2 27.8,16.3 27.35,12.25 29.85,14.9 31.95,16.1 34.8,17.8 36.35,17.4L36.4,17.4Q38.65,16.65 38.45,14.9 38.3,13.35 35,10.65 31.75,7.85 30.3,5.6"/><path fill="#FFCB99" d="M23,0.7Q21.15,1.35 20.95,1.25 19.45,0.65 16.7,0.55 12.45,0.4 10.5,3.45 8.5,6.45 1.4,16.2 1.4,17.5 1.6,17.8 1.75,18.05 2.25,17.95 3.65,17.8 6.5,14.35 6.55,14.3 6.7,14.25 6.85,14.2 7,14.3 7.15,14.35 7.2,14.5 7.25,14.65 7.2,14.75L7.1,15.25Q7.05,15.35 7.05,15.45L7.05,15.5Q6.9,15.75 4.6,22.3 3.55,25.05 3.9,26.4 4.2,27.7 5.5,27.1 6.75,26.55 8.4,23 10.05,19.4 10.85,18.9L10.8,18.95Q11.45,18.45 11.9,18.8 12.2,19 12.35,19.8 12.45,20.9 11.45,26.85 10.95,29.65 11.3,31.2 11.55,32.35 12.35,32.65 13.05,32.9 13.8,32.65 14.5,32.35 15,31.55 15.4,30.75 16.55,26.25 17.75,21.7 18.35,20.6 18.7,19.8 19.15,19.85 19.65,19.7 19.95,20.55L20,20.55Q20.6,22.45 21.1,26.8 21.35,28.8 21.95,29.75 22.4,30.5 23.2,30.4 23.25,30.4 23.3,30.4 25.9,30.55 26.5,23.1 27.05,15.15 26.35,10.95 26.3,10.8 26.4,10.75 26.45,10.55 26.55,10.55 26.65,10.45 26.85,10.45 27,10.55 27.05,10.6 29.95,14.05 32.35,15.4 34.8,16.85 36.15,16.6 37.65,16.05 37.6,15 37.4,13.7 35.4,11.65 31,7.3 29.55,5.15 28.15,3.1 26.5,1.6 24.95,0.1 23,0.7"/></g><animate attributeName="display" repeatCount="1" dur="1.667s" keyTimes="0;0.2;1" values="inline;none;none"/></g><g><g id="15" transform="matrix(1 0 0 1 -81.35 42.3)"><animateTransform attributeName="transform" additive="replace" type="translate" dur="1.667s" keyTimes="0;0.45;0.625;0.7;1" values="-34.063,39.432;-34.063,39.432;-71.255,51.462;-70.45,50.7;-70.45,50.7"/><animateTransform attributeName="transform" additive="sum" type="scale" dur="1.667s" keyTimes="0;0.45;0.625;0.7;1" values="0.635,0.635;0.635,0.635;1.091,1.091;1,1;1,1"/><animateTransform attributeName="transform" additive="sum" type="translate" dur="1.667s" keyTimes="0;0.45;0.625;0.7;1" values="-10.85,-8.4;-10.85,-8.4;-10.9,-8.35;-10.9,-8.4;-10.9,-8.4"/><path fill="#BB313F" d="M12.5,8.15Q16.15,7.6 19.15,7.3 22.05,6.9 20.9,5.2 19.85,3.65 17.2,1.3 13.6,-1.85 7.8,2.55 1,1.15 0.2,10.1 -0.5,11 1.05,11 2.65,11 5.7,9.8 8.75,8.6 12.5,8.15"/><path fill="#BB313F" d="M8.7,10.5Q1.15,11.4 1.25,12 1.2,12.5 3.3,14.45 5.3,16.5 9.9,16.8 14.35,17.1 18.15,14.5 21.8,11.9 21.85,9.55 21.8,7.05 19.55,7.85 16.25,9.7 8.7,10.5"/></g><animate attributeName="display" repeatCount="1" dur="1.667s" keyTimes="0;0.45;1" values="none;inline;none"/></g><g><g id="14" transform="matrix(1 0 0 1 -59.65 35.4)"><animateTransform attributeName="transform" additive="replace" type="translate" dur="1.667s" keyTimes="0;0.45;0.55;0.625;1" values="-35.1,39.238;-35.1,39.238;-55.95,40.76;-55.15,39.95;-55.15,39.95"/><animateTransform attributeName="transform" additive="sum" type="scale" dur="1.667s" keyTimes="0;0.45;0.55;0.625;1" values="0.756,0.756;0.756,0.756;1.2,1.2;1,1;1,1"/><animateTransform attributeName="transform" additive="sum" type="translate" dur="1.667s" keyTimes="0;1" values="-4.5,-4.55;-4.5,-4.55"/><path fill="#BB313F" d="M7.9,4Q9.1,3.75 8.6,2.9 8.2,2 7.1,0.75 5.6,-1 3.2,1.45 0.45,0.7 0.05,5.55 -0.2,6 0.45,6 1.1,6.05 2.35,5.35 3.65,4.75 5.15,4.5 6.65,4.15 7.9,4"/><path fill="#BB313F" d="M9,5.15Q9,3.85 8.05,4.3 6.7,5.25 3.6,5.75 0.5,6.2 0.5,6.6 0.55,6.85 1.35,7.9 2.2,8.95 4.15,9.15 5.95,9.3 7.45,7.95 9,6.5 9,5.15"/></g><animate attributeName="display" repeatCount="1" dur="1.667s" keyTimes="0;0.45;1" values="none;inline;none"/></g><g><use xlink:href="#7" transform="matrix(1 0 0 1 -61.5 23.4)"><animateTransform attributeName="transform" additive="replace" type="translate" dur="1.667s" keyTimes="0;0.45;0.6;0.675;1" values="-34.9,34.877;-34.9,34.877;-58.2,27.896;-57.4,27.1;-57.4,27.1"/><animateTransform attributeName="transform" additive="sum" type="scale" dur="1.667s" keyTimes="0;0.45;0.6;0.675;1" values="0.78,0.78;0.78,0.78;1.134,1.134;1,1;1,1"/><animateTransform attributeName="transform" additive="sum" type="translate" dur="1.667s" keyTimes="0;0.45;0.6;1" values="-4.1,-3.75;-4.1,-3.75;-4.1,-3.7;-4.1,-3.7"/></use><animate attributeName="display" repeatCount="1" dur="1.667s" keyTimes="0;0.45;1" values="none;inline;none"/></g><g><g id="12" transform="matrix(1 0 0 1 -40.6 27.8)"><animateTransform attributeName="transform" additive="replace" type="translate" dur="1.667s" keyTimes="0;0.45;0.65;0.725;1" values="-30.4,35.936;-30.4,35.936;-35.95,34.265;-35.15,33.45;-35.15,33.45"/><animateTransform attributeName="transform" additive="sum" type="scale" dur="1.667s" keyTimes="0;0.45;0.65;0.725;1" values="0.679,0.679;0.679,0.679;1.073,1.073;1,1;1,1"/><animateTransform attributeName="transform" additive="sum" type="translate" dur="1.667s" keyTimes="0;1" values="-5.45,-5.65;-5.45,-5.65"/><path fill="#BB313F" d="M6.4,5.5Q8.2,5.65 9.7,5.75 11.15,5.85 10.85,4.6 10.6,3.3 9.65,1.35 8.45,-1.2 4.95,1.05 1.9,-0.8 0.15,5.3 -0.3,5.75 0.45,5.95 1.2,6.15 2.9,5.75 4.5,5.35 6.4,5.5"/><path fill="#BB313F" d="M1,8.6Q1.7,10.25 3.9,11.05 6,11.85 8.15,10.55 10.3,9.25 10.7,7.6 11.05,5.95 9.85,6.15 7.95,7 4.2,6.6 0.45,6.2 0.4,6.65 0.3,7 1,8.6"/></g><animate attributeName="display" repeatCount="1" dur="1.667s" keyTimes="0;0.45;1" values="none;inline;none"/></g><g><g id="11" transform="matrix(1 0 0 1 -20.6 27.8)"><animateTransform attributeName="transform" additive="replace" type="translate" dur="1.667s" keyTimes="0;0.45;0.6;0.675;1" values="-25.55,34.702;-25.55,34.702;-16.9,31.286;-17.7,30.4;-17.7,30.4"/><animateTransform attributeName="transform" additive="sum" type="scale" dur="1.667s" keyTimes="0;0.45;0.6;0.675;1" values="0.828,0.828;0.828,0.828;1.069,1.069;1,1;1,1"/><animateTransform attributeName="transform" additive="sum" type="translate" dur="1.667s" keyTimes="0;0.45;0.6;0.675;1" values="-2.9,-2.6;-2.9,-2.6;-2.9,-2.7;-2.9,-2.6;-2.9,-2.6"/><path fill="#BB313F" d="M5.5,2.5L5.5,2.2Q3.95,2.65 2.05,2.95 0.2,3.2 0.1,3.15L0.5,4.1Q0.95,5.1 2.55,5.2 4.1,5.3 4.95,4.55 5.75,3.75 5.5,2.5"/><path fill="#BB313F" d="M5.5,1.9Q5.7,1.9 5.8,1.9 5.7,1.65 4.8,0.9 3.9,0.1 3.5,0 3.1,-0.1 2.55,0.6 2.3,0.05 1.7,0.1 1.05,0.1 0.5,1.5 0.1,2.45 0,2.95 0.6,2.55 2.2,2.2 3.8,1.9 4.55,1.9 5.2,1.9 5.45,1.9L5.5,1.9"/></g><animate attributeName="display" repeatCount="1" dur="1.667s" keyTimes="0;0.45;1" values="none;inline;none"/></g><g><g id="10" transform="matrix(1 0 0 1 -13.2 34.75)"><animateTransform attributeName="transform" additive="replace" type="translate" dur="1.667s" keyTimes="0;0.45;0.55;0.625;1" values="-24.55,38.085;-24.55,38.085;-8.996,38.25;-9.8,37.45;-9.8,37.45"/><animateTransform attributeName="transform" additive="sum" type="scale" dur="1.667s" keyTimes="0;0.45;0.55;0.625;1" values="0.735,0.735;0.735,0.735;1.148,1.148;1,1;1,1"/><animateTransform attributeName="transform" additive="sum" type="translate" dur="1.667s" keyTimes="0;1" values="-3.4,-2.7;-3.4,-2.7"/><path fill="#BB313F" d="M5.95,3.25Q6.9,3.5 6.8,2.85 6.75,2.2 6.35,1.2 5.75,-0.2 3.4,0.4 1.7,-0.85 0.1,1.75 -0.2,1.95 0.25,2.1 0.7,2.3 1.75,2.35 2.8,2.35 3.95,2.7 5.05,3 5.95,3.25"/><path fill="#BB313F" d="M6.45,4.25Q6.75,3.55 6,3.45 4.8,3.6 2.5,2.95 0.2,2.25 0.1,2.45 0.05,2.6 0.35,3.45 0.6,4.3 1.9,5 3.1,5.6 4.6,5.3 6.1,5 6.45,4.25"/></g><animate attributeName="display" repeatCount="1" dur="1.667s" keyTimes="0;0.45;1" values="none;inline;none"/></g><g><g id="9" transform="matrix(1 0 0 1 -7.9 46.55)"><animateTransform attributeName="transform" additive="replace" type="translate" dur="1.667s" keyTimes="0;0.45;0.6;0.675;1" values="-26.5,37.553;-26.5,37.553;3.7,56.448;2.9,55.65;2.9,55.65"/><animateTransform attributeName="transform" additive="sum" type="scale" dur="1.667s" keyTimes="0;0.45;0.6;0.675;1" values="0.528,0.528;0.528,0.528;1.06,1.06;1,1;1,1"/><animateTransform attributeName="transform" additive="sum" type="translate" dur="1.667s" keyTimes="0;1" values="-10.8,-9.1;-10.8,-9.1"/><path fill="#BB313F" d="M19.35,3.5Q17.45,-0.5 11.15,1.4 7.2,-2.65 0.55,4.95 0.2,6 0.85,6.35 3.25,7.75 5.95,7.8 8.7,7.8 11.5,8.85 14.35,9.85 18.2,11.35 21.9,12.85 21.55,10.15 21.1,7.5 19.35,3.5"/><path fill="#BB313F" d="M7.15,9.4Q0.8,6.8 0.2,7.35 -0.4,7.65 0.9,10.95 2.25,14.25 6,16.65 9.85,18.9 14.2,17.9 18.5,16.85 19.6,15 20.7,13.1 19.7,12.55 13.05,11.7 7.15,9.4"/></g><animate attributeName="display" repeatCount="1" dur="1.667s" keyTimes="0;0.45;1" values="none;inline;none"/></g><g><g id="8" transform="matrix(1 0 0 1 -0.45 30.55)"><animateTransform attributeName="transform" additive="replace" type="translate" dur="1.667s" keyTimes="0;0.45;0.65;0.725;1" values="-27.981,42.55;-27.981,42.55;6.431,36.15;5.6,35.35;5.6,35.35"/><animateTransform attributeName="transform" additive="sum" type="scale" dur="1.667s" keyTimes="0;0.45;0.65;0.725;1" values="0.792,0.792;0.792,0.792;1.063,1.063;1,1;1,1"/><animateTransform attributeName="transform" additive="sum" type="translate" dur="1.667s" keyTimes="0;0.45;0.65;0.725;1" values="-6.15,-4.8;-6.15,-4.8;-6.1,-4.8;-6.05,-4.8;-6.05,-4.8"/><path fill="#BB313F" d="M10.55,5.8Q12.2,6.2 12.1,5.05 11.95,3.95 11.25,2.15 10.25,-0.3 6.15,0.75 3.05,-1.5 0.2,3.1 -0.35,3.4 0.45,3.75 1.25,4.1 3.15,4.15 5,4.15 7,4.8 9,5.3 10.55,5.8"/><path fill="#BB313F" d="M11.4,7.55Q12,6.25 10.65,6.15 8.5,6.4 4.45,5.2 0.4,4 0.25,4.3 0.1,4.6 0.65,6.1 1.2,7.6 3.4,8.8 5.6,9.95 8.2,9.4 10.75,8.8 11.4,7.55"/></g><animate attributeName="display" repeatCount="1" dur="1.667s" keyTimes="0;0.45;1" values="none;inline;none"/></g><g><use xlink:href="#7" transform="matrix(1 0 0 1 30.2 55)"><animateTransform attributeName="transform" additive="replace" type="translate" dur="1.667s" keyTimes="0;0.45;0.625;0.7;1" values="-26.15,38.621;-26.15,38.621;35.149,59.5;34.3,58.7;34.3,58.7"/><animateTransform attributeName="transform" additive="sum" type="scale" dur="1.667s" keyTimes="0;0.45;0.625;0.7;1" values="0.732,0.732;0.732,0.732;1.108,1.108;1,1;1,1"/><animateTransform attributeName="transform" additive="sum" type="translate" dur="1.667s" keyTimes="0;0.45;0.625;0.7;1" values="-4.1,-3.65;-4.1,-3.65;-4.15,-3.7;-4.1,-3.7;-4.1,-3.7"/></use><animate attributeName="display" repeatCount="1" dur="1.667s" keyTimes="0;0.45;1" values="none;inline;none"/></g><g><g id="6" transform="matrix(1 0 0 1 17 34.7)"><animateTransform attributeName="transform" additive="replace" type="translate" dur="1.667s" keyTimes="0;0.45;0.575;0.65;1" values="-29.25,38.659;-29.25,38.659;26.05,43.089;25.45,42.4;25.45,42.4"/><animateTransform attributeName="transform" additive="sum" type="scale" dur="1.667s" keyTimes="0;0.45;0.575;0.65;1" values="0.722,0.722;0.722,0.722;1.095,1.095;1,1;1,1"/><animateTransform attributeName="transform" additive="sum" type="translate" dur="1.667s" keyTimes="0;0.45;0.575;0.65;1" values="-8.45,-7.7;-8.45,-7.7;-8.45,-7.8;-8.45,-7.7;-8.45,-7.7"/><path fill="#BB313F" d="M14.45,9.65Q17.5,10.95 16.75,8.65 16.1,6.45 15.15,2.95 14.2,-0.6 8.8,1.05 5.45,-2.4 0.8,5.7L0,5.3Q2.05,6.5 4.4,6.55 6.7,6.6 9.15,7.45 11.55,8.3 14.45,9.65"/><path fill="#BB313F" d="M0.5,6.65Q0.15,7.1 0.7,9.6 1.25,12.05 4.4,14.05 7.7,16 11.4,15.15 15,14.25 15.95,12.65 16.95,11.05 16,10.55 10.4,9.85 5.65,8.05 0.85,6.2 0.5,6.65"/></g><animate attributeName="display" repeatCount="1" dur="1.667s" keyTimes="0;0.45;1" values="none;inline;none"/></g></g></svg>