<?xml version="1.0" encoding="utf-8"?><svg id="1005" image-rendering="auto" baseProfile="basic" version="1.1" x="0px" y="0px" width="660" height="660" xmlns="http://www.w3.org/2000/svg" xmlns:xlink="http://www.w3.org/1999/xlink"><defs><symbol id="15" overflow="visible"><path fill="#744236" d="M54.5,6.2Q54.5,3.65 52.7,1.8 50.9,0 48.35,0 45.8,0 44,1.8 43.4,2.4 43,3.1 42.2,4.5 42.2,6.2 42.2,7.9 43,9.3 43.4,10 44,10.6 45.8,12.4 48.35,12.4 50.9,12.4 52.7,10.6 54.5,8.75 54.5,6.2"/><path fill="#744236" d="M12.3,7.8Q12.3,5.25 10.5,3.4 8.7,1.6 6.15,1.6 3.6,1.6 1.8,3.4 1.2,4 0.8,4.7 0,6.1 0,7.8 0,9.5 0.8,10.9 1.2,11.6 1.8,12.2 3.6,14 6.15,14 8.7,14 10.5,12.2 12.3,10.35 12.3,7.8"/><path fill="#FFF" d="M9.95,3.75Q8.35,2.05 6.05,2.05 3.75,2.05 2.15,3.75 1.2,4.7 0.8,5.95 0.55,6.75 0.55,7.65 0.55,8.6 0.8,9.4 1.2,10.65 2.15,11.65 3.75,13.3 6.05,13.3 8.35,13.3 9.95,11.65 11.6,10 11.6,7.65 11.6,5.35 9.95,3.75"/><path fill="#604339" d="M7.25,5.95Q6.65,5.95 6.3,5.65 5.95,5.35 5.95,4.8 5.95,4.35 6.3,4.05 6.4,3.95 6.45,3.9 5.8,3.25 4.85,3.25 3.75,3.25 3.05,4.05 2.9,4.25 2.7,4.5 2.35,5.1 2.35,5.8L2.35,5.9Q2.45,6.95 3.05,7.65 3.75,8.4 4.85,8.4 5.9,8.4 6.6,7.65 7.15,7 7.25,5.95"/><path fill="#3C3A3D" d="M2.9,5.05Q2.55,5.35 2.55,5.85 2.55,6.35 2.9,6.65 3.3,7 3.75,7 4.25,7 4.6,6.65 5,6.35 5,5.85 5,5.35 4.6,5.05 4.25,4.75 3.75,4.75 3.3,4.75 2.9,5.05"/><path fill="#FFF" d="M52.15,10.05Q53.8,8.4 53.8,6.05 53.8,3.75 52.15,2.15 50.55,0.45 48.25,0.45 45.95,0.45 44.35,2.15 43.4,3.1 43,4.35 42.75,5.15 42.75,6.05 42.75,7 43,7.8 43.4,9.05 44.35,10.05 45.95,11.7 48.25,11.7 50.55,11.7 52.15,10.05"/><path fill="#604339" d="M48.5,2.45Q48.6,2.35 48.65,2.3 48,1.65 47.05,1.65 45.95,1.65 45.25,2.45 45.1,2.65 44.9,2.9 44.55,3.5 44.55,4.2L44.55,4.3Q44.65,5.35 45.25,6.05 45.95,6.8 47.05,6.8 48.1,6.8 48.8,6.05 49.35,5.4 49.45,4.35 48.85,4.35 48.5,4.05 48.15,3.75 48.15,3.2 48.15,2.75 48.5,2.45"/><path fill="#3C3A3D" d="M46.8,3.45Q46.45,3.15 45.95,3.15 45.5,3.15 45.1,3.45 44.75,3.75 44.75,4.25 44.75,4.75 45.1,5.05 45.5,5.4 45.95,5.4 46.45,5.4 46.8,5.05 47.2,4.75 47.2,4.25 47.2,3.75 46.8,3.45"/>
</symbol></defs><g id="op_l1" overflow="visible" transform="matrix(3.985 0 0 3.985 381.8 271.8)"><g id="1" transform="matrix(1 0 0 1 -90.2 -62.6)"><path fill="none" stroke="#000" stroke-opacity="0.251" stroke-width="2" stroke-linecap="round" stroke-linejoin="round" d="M100.875,-3.85Q94.021,-4.324 82.6,-3.175 82.52,-3.164 82.425,-3.15 67.982,-1.103 59.3,1.625L59.325,1.625Q51.17,4.124 45.45,6.95 37.617,6.546 29.75,7.625 20.776,8.808 13.35,13.525L13.3,13.55Q7.274,17.494 3.8,23.7L3.825,23.675Q-0.396,31.162 -2.425,39.45 -4.488,47.873 -3.85,56.35L-3.825,56.375Q-3.123,65.167 0.875,73.025L0.875,73Q2.471,76.146 3.825,79.15 3.839,79.175 3.85,79.2 4.549,80.787 5.3,82.35 -2.586,99.248 -3.025,105.825 -3.686,113 -1.95,119.4L-1.95,119.425Q-0.222,125.669 4.2,132.45 8.947,139.68 17.4,142.85 25.858,146.017 31.925,144.725 33.276,144.46 34.225,144.275 36.202,147.345 39.8,149.875 51.392,158.272 72.925,157.35 94.947,156.402 98.45,152.725L98.475,152.7Q102.545,149.139 104,145.475 104.087,145.264 104.175,145.075 110.96,147.147 118.225,145.725 118.262,145.711 118.3,145.7 126.269,143.948 133.05,139.725 142.412,140.329 149.225,133.225L149.25,133.2Q152.389,129.878 154.025,125.775 157.061,118.045 158.075,109.675 159.1,101.352 157.65,92.975 156.747,87.832 153.875,83.525L153.9,83.575Q151.882,80.484 148.85,78.675L148.925,78.7Q148.276,78.297 147.9,77.725 148.746,76.503 149.95,75.425L149.975,75.425Q151.665,73.916 153,72.05 153.024,72.012 153.05,71.975 158.48,64.715 158.5,55.15 158.505,50.781 157.375,46.525 156.197,42.145 153.675,38.35L153.7,38.375Q151.663,35.218 150.425,31.75L150.4,31.725Q149.992,30.614 150.15,29.45 150.204,29.107 150.2,28.775L150.15,25.375Q150.432,12.796 134.75,4.1 120.696,-3.799 100.875,-3.85"/><path fill="#FFF" d="M82.6,-3.175Q82.52,-3.164 82.425,-3.15 67.982,-1.103 59.3,1.625L59.325,1.625Q51.17,4.124 45.45,6.95 37.617,6.546 29.75,7.625 20.776,8.808 13.35,13.525L13.3,13.55Q7.274,17.494 3.8,23.7L3.825,23.675Q-0.396,31.162 -2.425,39.45 -4.488,47.873 -3.85,56.35L-3.825,56.375Q-3.123,65.167 0.875,73.025L0.875,73Q2.471,76.146 3.825,79.15 3.839,79.175 3.85,79.2 4.549,80.787 5.3,82.35 -2.586,99.248 -3.025,105.825 -3.686,113 -1.95,119.4L-1.95,119.425Q-0.222,125.669 4.2,132.45 8.947,139.68 17.4,142.85 25.858,146.017 31.925,144.725 33.276,144.46 34.225,144.275 36.202,147.345 39.8,149.875 51.392,158.272 72.925,157.35 94.947,156.402 98.45,152.725L98.475,152.7Q102.545,149.139 104,145.475 104.087,145.264 104.175,145.075 110.96,147.147 118.225,145.725 118.262,145.711 118.3,145.7 126.269,143.948 133.05,139.725 142.412,140.329 149.225,133.225L149.25,133.2Q152.389,129.878 154.025,125.775 157.061,118.045 158.075,109.675 159.1,101.352 157.65,92.975 156.747,87.832 153.875,83.525L153.9,83.575Q151.882,80.484 148.85,78.675L148.925,78.7Q148.276,78.297 147.9,77.725 148.746,76.503 149.95,75.425L149.975,75.425Q151.665,73.916 153,72.05 153.024,72.012 153.05,71.975 158.48,64.715 158.5,55.15 158.505,50.781 157.375,46.525 156.197,42.145 153.675,38.35L153.7,38.375Q151.663,35.218 150.425,31.75L150.4,31.725Q149.992,30.614 150.15,29.45 150.204,29.107 150.2,28.775L150.15,25.375Q150.432,12.796 134.75,4.1 120.696,-3.799 100.875,-3.85 94.021,-4.324 82.6,-3.175 M14.2,66.95L14.2,67 14.15,66.95 14.2,66.95"/><path fill="#979E50" d="M142.2,28.775L142.15,25.625Q142.149,25.558 142.15,25.5 141.795,17.163 130.85,11.1 118.301,4.154 100.6,4.15 100.473,4.154 100.325,4.15 93.979,3.724 83.4,4.775 69.865,6.719 61.7,9.275L61.675,9.275Q53.565,11.75 48.075,14.55 47.096,15.06 46,15 38.449,14.528 30.85,15.575L30.825,15.575Q23.642,16.495 17.7,20.25 13.326,23.106 10.8,27.6L10.775,27.625Q7.096,34.138 5.325,41.35 3.588,48.527 4.15,55.75L4.125,55.725Q4.723,62.933 8.025,69.375L8.025,69.4Q9.716,72.727 11.15,75.9L11.175,75.95Q12.178,78.236 13.325,80.475 13.744,81.319 13.75,82.25 13.769,83.178 13.375,84.025 5.576,100.393 4.925,106.475L4.925,106.525Q4.392,112.221 5.75,117.3L5.75,117.275Q7.222,122.444 10.9,128.075L10.9,128.05Q14.253,133.12 20.2,135.35 26.138,137.577 30.375,136.875L30.4,136.875Q36.207,135.732 36.45,135.8 37.695,135.805 38.725,136.525 39.758,137.239 40.2,138.4 41.322,141.167 44.4,143.325 54.307,150.128 72.575,149.35 90.266,148.597 93.25,146.675 95.66,144.549 96.6,142.425 98.145,138.706 99.25,137.525 100.108,136.5 101.4,136.2 102.698,135.899 103.925,136.45 110.026,139.184 116.675,137.875L116.6,137.9Q123.802,136.312 129.825,132.275 131.07,131.443 132.55,131.625 138.908,132.407 143.45,127.7L143.475,127.675Q145.517,125.506 146.575,122.825 149.239,116.056 150.125,108.725 151,101.548 149.75,94.325 149.153,90.867 147.225,87.975L147.2,87.925Q146.218,86.416 144.75,85.525 144.714,85.507 144.675,85.5 140.693,82.995 139.7,78.6L139.725,78.675Q139.254,76.758 140.175,75.075 140.197,75.024 140.225,74.975 141.831,71.98 144.65,69.475L144.625,69.475Q145.701,68.514 146.55,67.325 146.577,67.293 146.6,67.25 150.52,62.037 150.5,55.15 150.495,51.819 149.625,48.575 148.803,45.454 147.025,42.75L147,42.725Q144.437,38.782 142.875,34.45L142.9,34.475Q141.883,31.691 142.2,28.775 M14.2,66.95L14.2,67 14.15,66.95 14.2,66.95"/></g><g style="display:none;"><path fill="#000" fill-opacity="0.298" d="M32.3,-38.05Q30.7,-39.7 28.05,-41.15 20.9,-45.15 6.75,-48.3 3.95,-48.5 1.3,-48.6 -14.7,-49.25 -25.6,-45.2 -29.35,-43.8 -33.2,-42.05 -37.05,-40.35 -39.25,-39.1 -41.5,-37.85 -43.25,-36.65 -45,-35.45 -47.25,-34.3 -47.85,-36.25 -48.25,-37.05 -48.95,-38.8 -50.2,-39.6 -50.45,-39.2 -50.7,-38.7 -51.35,-37.55 -51.75,-35.85 -52.05,-34.8 -52.15,-33.9 -53.7,-34.5 -55.5,-35.65 -57.95,-37.3 -59.5,-36.9L-59.65,-36.4Q-59.65,-36.3 -58.15,-29.35 -74,-7.5 -76.3,-1.7 -76.05,-1.35 -75.8,-0.95 -70.45,6.3 -69.05,8.25 -68.6,8.85 -68.55,8.9 -68.25,9.15 -67.95,9.5L-67.85,9.6Q-67.75,9.7 -67.7,9.75 -67.35,10.1 -66.95,10.45L-61.55,15.2Q-61.4,15.3 -61.25,15.45 -61.7,16 -62.1,16.7 -63.55,19.3 -63.6,22.2 -63.6,24.3 -62.6,25.85 -61.95,26.8 -61,27.5 -60.8,27.55 -60.6,27.6L-59.95,28.05Q-58.1,28.9 -55.3,28.9 -52.95,28.9 -50.45,26.3 -45.65,35.8 -37.7,40.2 -38.7,41.2 -39.9,42.45 -48.15,51 -57.25,44.65 -65.35,38.95 -69.25,38.2L-69.3,38.2 -69.25,38.25 -68.95,38.6Q-68.95,38.9 -69.1,38.7 -64.2,47.1 -59.7,53.4 -55.2,59.65 -50.35,58.2 -45.5,56.75 -38.35,51.5 -42,65.45 -42.55,79.1L-42.55,81.35Q-20.15,85.7 0.8,77.05 -1,61.05 -3.7,46.3 -1.6,48.45 6.75,53.65 15.05,58.8 20.85,57.6 26.65,56.35 29.6,52.95 32.55,49.5 37.85,42.2L40,42.5 36.55,41.1Q32.6,41.85 24.5,47.55 15.4,53.9 7.15,45.35 4.95,43.1 3.35,41.6 3,41.7 2.65,41.8 2.4,41.55 2.15,41.35 6.8,39.7 8.6,38.2 11.4,35.8 12.4,34.35 13.4,32.9 14.25,31.25 14.75,30.35 15.15,29.35 15.9,27.65 16.45,25.75 16.65,25.15 16.8,24.55L16.8,24.5Q17.1,22.8 17.8,20 17.95,20.05 18.1,20.1 20.6,20.9 22.1,20 25.25,18.15 25.4,15.65 25.5,14.35 24.85,13.15 23.9,11.45 22.2,10.45 21,9.7 20,9.9 20.85,3.7 21.2,-1.75 21.25,-3.85 21.35,-6.35 22,-6.15 22.45,-6L23.55,-5.7Q24.1,-5.5 24.75,-5.3 26.95,-4.55 28.9,-3.75 30.2,-3.25 33.45,-2.35 33.85,-2.25 34.2,-2.2 33.65,-2.95 32.25,-6.55 31.45,-8.55 30.4,-11.45 32.85,-10.75 39.75,-8.55 40.15,-8.4 40.5,-8.3 40.6,-8.25 40.8,-8.2 42.65,-7.6 45.15,-6.95 46.7,-6.55 48.6,-6.35 45.65,-12.8 42.75,-16.1 41.75,-17.25 40.8,-18.25 40.6,-18.45 40.5,-18.55 32.7,-26.75 26.15,-26.75 29.35,-27.7 35.75,-29.4 38.95,-30.3 40.55,-30.9 40.7,-30.95 40.85,-31 42.3,-31.65 42.3,-32 42.3,-32.35 40.85,-32.85 40.7,-32.95 40.55,-32.95 38.65,-33.7 34.65,-34.7 26.45,-36.6 22.4,-36.1 27.85,-37.25 31.75,-37.95 31.9,-38 32.05,-38 32.2,-38.05 32.3,-38.05 M6.15,1.95Q6,1.3 6.5,2 6.3,1.95 6.15,1.95"/><animate attributeName="display" repeatCount="1" dur="1.042s" keyTimes="0;0.2;0.24;1" values="none;inline;none;none"/></g><g style="display:none;"><path fill="#000" fill-opacity="0.298" d="M32.3,-38.85Q30.7,-40.5 28.05,-41.95 20.9,-45.95 6.75,-49.1 3.95,-49.3 1.3,-49.4 -14.7,-50.05 -25.6,-46 -29.35,-44.6 -33.2,-42.85 -37.05,-41.15 -39.25,-39.9 -41.5,-38.65 -43.25,-37.45 -45,-36.25 -47.25,-35.1 -47.85,-37.05 -48.25,-37.85 -48.95,-39.6 -50.2,-40.4 -50.45,-40 -50.7,-39.5 -51.35,-38.35 -51.75,-36.65 -52.05,-35.6 -52.15,-34.7 -53.7,-35.3 -55.5,-36.45 -57.95,-38.1 -59.5,-37.7L-59.65,-37.2Q-59.65,-37.1 -58.15,-30.15 -74,-8.3 -76.3,-2.5 -76.05,-2.15 -75.8,-1.75 -70.45,5.5 -69.05,7.45 -68.6,8.05 -68.55,8.1 -68.25,8.35 -67.95,8.7L-67.85,8.8Q-67.75,8.9 -67.7,8.95 -67.35,9.3 -66.95,9.65L-61.55,14.4Q-61.4,14.5 -61.25,14.65 -61.7,15.2 -62.1,15.9 -63.55,18.5 -63.6,21.4 -63.6,23.5 -62.6,25.05 -61.95,26 -61,26.7 -60.8,26.75 -60.6,26.8L-59.95,27.25Q-58.1,28.1 -55.3,28.1 -52.95,28.1 -50.45,25.5 -45.5,35.35 -37.15,39.7 -38.4,40.85 -39.9,42.45 -48.15,51 -57.25,44.65 -65.35,38.95 -69.3,38.2L-69.15,40.2Q-69.15,42.5 -66.8,41.7 -65.4,45.1 -60.65,52.2 -55.95,59.25 -49.95,57.95 -43.95,56.6 -38.35,51.5 -42,65.45 -42.55,79.1L-42.55,81.35Q-20.15,85.7 0.8,77.05 -1,61.05 -3.7,46.3 -1.6,48.45 5.85,53.5 13.25,58.55 19.1,57.7 24.95,56.85 29.25,52.6 33.5,48.3 36.05,44.4 36.4,45.4 36.4,43.1L36.55,41.1Q32.6,41.85 24.5,47.55 15.4,53.9 7.15,45.35 4.95,43.1 3.35,41.6 3,41.7 2.65,41.8 2,41.2 1.45,40.8 6.65,39 8.6,37.4 11.4,35 12.4,33.55 13.4,32.1 14.25,30.45 14.75,29.55 15.15,28.55 15.9,26.85 16.45,24.95 16.65,24.35 16.8,23.75L16.8,23.7Q17.1,22 17.8,19.2 17.95,19.25 18.1,19.3 20.6,20.1 22.1,19.2 25.25,17.35 25.4,14.85 25.5,13.55 24.85,12.35 23.9,10.65 22.2,9.65 21,8.9 20,9.1 20.85,2.9 21.2,-2.55 21.25,-4.65 21.35,-7.15 22,-6.95 22.45,-6.8L23.55,-6.5Q24.1,-6.3 24.75,-6.1 26.95,-5.35 28.9,-4.55 30.2,-4.05 33.45,-3.15 33.85,-3.05 34.2,-3 33.65,-3.75 32.25,-7.35 31.45,-9.35 30.4,-12.25 32.85,-11.55 39.75,-9.35 40.15,-9.2 40.5,-9.1 40.6,-9.05 40.8,-9 42.65,-8.4 45.15,-7.75 46.7,-7.35 48.6,-7.15 45.65,-13.6 42.75,-16.9 41.75,-18.05 40.8,-19.05 40.6,-19.25 40.5,-19.35 32.7,-27.55 26.15,-27.55 29.35,-28.5 35.75,-30.2 38.95,-31.1 40.55,-31.7 40.7,-31.75 40.85,-31.8 42.3,-32.45 42.3,-32.8 42.3,-33.15 40.85,-33.65 40.7,-33.75 40.55,-33.75 38.65,-34.5 34.65,-35.5 26.45,-37.4 22.4,-36.9 27.85,-38.05 31.75,-38.75 31.9,-38.8 32.05,-38.8 32.2,-38.85 32.3,-38.85 M6.15,1.15Q6,0.5 6.5,1.2 6.3,1.15 6.15,1.15"/><animate attributeName="display" repeatCount="1" dur="1.042s" keyTimes="0;0.16;0.2;1" values="none;inline;none;none"/></g><g><path fill="#000" fill-opacity="0.298" d="M32.3,-38.05Q30.7,-39.7 28.05,-41.15 20.9,-45.15 6.75,-48.3 3.95,-48.5 1.3,-48.6 -14.7,-49.25 -25.6,-45.2 -29.35,-43.8 -33.2,-42.05 -37.05,-40.35 -39.25,-39.1 -41.5,-37.85 -43.25,-36.65 -45,-35.45 -47.25,-34.3 -47.85,-36.25 -48.25,-37.05 -48.95,-38.8 -50.2,-39.6 -50.45,-39.2 -50.7,-38.7 -51.35,-37.55 -51.75,-35.85 -52.05,-34.8 -52.15,-33.9 -53.7,-34.5 -55.5,-35.65 -57.95,-37.3 -59.5,-36.9L-59.65,-36.4Q-59.65,-36.3 -58.15,-29.35 -74,-7.5 -76.3,-1.7 -76.05,-1.35 -75.8,-0.95 -70.45,6.3 -69.05,8.25 -68.6,8.85 -68.55,8.9 -68.25,9.15 -67.95,9.5L-67.85,9.6Q-67.75,9.7 -67.7,9.75 -67.35,10.1 -66.95,10.45L-61.55,15.2Q-61.4,15.3 -61.25,15.45 -61.7,16 -62.1,16.7 -63.55,19.3 -63.6,22.2 -63.6,24.3 -62.6,25.85 -61.95,26.8 -61,27.5 -60.8,27.55 -60.6,27.6L-59.95,28.05Q-58.1,28.9 -55.3,28.9 -52.95,28.9 -50.45,26.3 -45.65,35.8 -37.7,40.2 -38.7,41.2 -39.9,42.45 -48.15,51 -57.25,44.65 -64.5,39.55 -68.8,34.45 -64.7,49.4 -60.2,54.25 -55.2,59.65 -50.35,58.2 -45.5,56.75 -38.35,51.5 -42,65.45 -42.55,79.1L-42.55,81.35Q-20.15,85.7 0.8,77.05 -1,61.05 -3.7,46.3 -1.6,48.45 6.75,53.65 15.05,58.8 20.85,57.6 26.65,56.35 29.6,52.95 32.2,49.9 37.85,39.8L37.35,38.1Q32.6,41.85 24.5,47.55 15.4,53.9 7.15,45.35 4.95,43.1 3.35,41.6 3,41.7 2.65,41.8 2.4,41.55 2.15,41.35 6.8,39.7 8.6,38.2 11.4,35.8 12.4,34.35 13.4,32.9 14.25,31.25 14.75,30.35 15.15,29.35 15.9,27.65 16.45,25.75 16.65,25.15 16.8,24.55L16.8,24.5Q17.1,22.8 17.8,20 17.95,20.05 18.1,20.1 20.6,20.9 22.1,20 25.25,18.15 25.4,15.65 25.5,14.35 24.85,13.15 23.9,11.45 22.2,10.45 21,9.7 20,9.9 20.85,3.7 21.2,-1.75 21.25,-3.85 21.35,-6.35 22,-6.15 22.45,-6L23.55,-5.7Q24.1,-5.5 24.75,-5.3 26.95,-4.55 28.9,-3.75 30.2,-3.25 33.45,-2.35 33.85,-2.25 34.2,-2.2 33.65,-2.95 32.25,-6.55 31.45,-8.55 30.4,-11.45 32.85,-10.75 39.75,-8.55 40.15,-8.4 40.5,-8.3 40.6,-8.25 40.8,-8.2 42.65,-7.6 45.15,-6.95 46.7,-6.55 48.6,-6.35 45.65,-12.8 42.75,-16.1 41.75,-17.25 40.8,-18.25 40.6,-18.45 40.5,-18.55 32.7,-26.75 26.15,-26.75 29.35,-27.7 35.75,-29.4 38.95,-30.3 40.55,-30.9 40.7,-30.95 40.85,-31 42.3,-31.65 42.3,-32 42.3,-32.35 40.85,-32.85 40.7,-32.95 40.55,-32.95 38.65,-33.7 34.65,-34.7 26.45,-36.6 22.4,-36.1 27.85,-37.25 31.75,-37.95 31.9,-38 32.05,-38 32.2,-38.05 32.3,-38.05 M6.15,1.95Q6,1.3 6.5,2 6.3,1.95 6.15,1.95"/><animate attributeName="display" repeatCount="1" dur="1.042s" keyTimes="0;0.16;0.24;1" values="inline;none;inline;none"/></g><g id="3" transform="matrix(1 0 0 1 31.45 34.4)"><animateTransform attributeName="transform" additive="replace" type="translate" dur="1.042s" keyTimes="0;0.12;0.16;0.24;0.479;0.48;0.52;1" values="41.7,44.9;41.7,44.9;42.494,41.038;44.264,33.075;44.264,33.075;40.732,34.734;41.7,44.9;41.7,44.9"/><animateTransform attributeName="transform" additive="sum" type="rotate" dur="1.042s" keyTimes="0;0.12;0.16;0.24;0.479;0.48;0.52;1" values="0,0,0;0,0,0;-18.802,0,0;-56.635,0,0;-56.635,0,0;-70.015,0,0;0,0,0;0,0,0"/><animateTransform attributeName="transform" additive="sum" type="scale" dur="1.042s" keyTimes="0;0.12;0.16;0.48;0.52;1" values="1,1;1,1;0.998,0.998;0.998,0.998;1,1;1,1"/><animateTransform attributeName="transform" additive="sum" type="translate" dur="1.042s" keyTimes="0;0.12;0.16;0.24;0.479;0.48;0.52;1" values="-10.25,-10.5;-10.25,-10.5;-10.2,-10.6;-10.2,-10.45;-10.2,-10.45;-10.25,-10.35;-10.25,-10.5;-10.25,-10.5"/><path fill="#000" fill-opacity="0.259" d="M11.85,6.15Q14.85,4.8 14.95,2 15,-0.8 13.65,0.35 12.25,1.55 9.65,2.4 7.15,3.25 4.85,3.2 2.6,3.1 0.9,5.8 -0.75,8.45 0.65,11 2,13.45 4.05,15.55 4.2,16.65 4.75,18.6 5.3,20.5 6.3,21.05 6.9,21.05 7.3,20.6 7.75,20.05 7.7,19.45 7.65,19 7.15,16.65 6.55,14.35 6.55,14.15 9.55,21.3 11.3,20.9 12.95,20.1 12.45,18.55 12.4,18.1 11,15.4 9.7,12.85 9.45,12.2L9.5,12.15Q11.1,13.3 13.65,16 16.25,18.7 17.15,17.7 17.6,17.45 17.95,16.9 18.35,16.1 17.85,15.45 17.8,15.2 15.45,13.05 12.8,10.6 11.75,9.55L11.8,9.5Q13.15,9.65 15.95,11.1 18.8,12.45 19.55,11.85 20.25,11.2 20.45,10.5 20.65,9.7 19.65,9.25 17.5,8.4 15.95,7.75 13.2,6.5 11.85,6.2L11.8,6.2 11.85,6.15"/></g><g id="7" transform="matrix(1 0 0 1 -81.35 30.1)"><animateTransform attributeName="transform" additive="replace" type="translate" dur="1.042s" keyTimes="0;0.12;0.16;0.24;0.479;0.48;0.52;1" values="-71.2,41.3;-71.2,41.3;-71.672,36.933;-72.75,28.446;-72.75,28.446;-71.789,31.779;-71.2,41.3;-71.2,41.3"/><animateTransform attributeName="transform" additive="sum" type="rotate" dur="1.042s" keyTimes="0;0.12;0.16;0.24;0.479;0.48;0.52;1" values="0,0,0;0,0,0;14.568,0,0;44.179,0,0;44.179,0,0;50.236,0,0;0,0,0;0,0,0"/><animateTransform attributeName="transform" additive="sum" type="scale" dur="1.042s" keyTimes="0;0.12;0.16;0.479;0.48;0.52;1" values="1,1;1,1;0.998,0.998;0.998,0.998;0.997,0.997;1,1;1,1"/><animateTransform attributeName="transform" additive="sum" type="translate" dur="1.042s" keyTimes="0;0.12;0.16;0.24;0.479;0.48;0.52;1" values="-10.15,-11.2;-10.15,-11.2;-10.2,-11.1;-10.1,-11.2;-10.1,-11.2;-10.2,-11.3;-10.15,-11.2;-10.15,-11.2"/><path fill="#000" fill-opacity="0.259" d="M20.05,9.1Q19.15,6.05 16.95,5.55 14.75,5 12.5,3.55 10.25,2.05 9.2,0.55 8.15,-0.95 7.5,1.8 6.85,4.55 9.4,6.6L9.45,6.65 9.4,6.65Q8,6.6 5.05,7.05 3.4,7.3 1.05,7.6 0,7.75 0,8.55 0,9.3 0.5,10.1 1.05,10.9 4.15,10.3 7.3,9.65 8.6,9.85L8.6,9.9Q7.35,10.65 4.15,12.35 1.35,13.8 1.2,14 0.55,14.5 0.75,15.4 0.95,16 1.35,16.4 1.95,17.55 5.1,15.65 8.3,13.7 10.15,13L10.2,13.05Q9.75,13.65 7.85,15.75 5.8,18 5.6,18.4 4.75,19.8 6.15,21 7.75,21.8 12.45,15.7 12.4,15.85 11.25,17.95 10.15,20.1 9.95,20.5 9.75,21.1 10.05,21.7 10.35,22.3 10.9,22.45 12.05,22.2 13.05,20.45 14.1,18.7 14.5,17.7 17.05,16.15 19,14.15 21,12.1 20.05,9.1"/></g><g id="4" transform="matrix(1 0 0 1 -3.8 35.5)"><animateTransform attributeName="transform" additive="replace" type="translate" dur="1.042s" keyTimes="0;0.12;0.24;0.479;0.48;0.52;0.64;1" values="-2.5,39;-2.5,39;-2.464,43.066;-2.464,43.066;-2.52,41.007;-2.533,39.015;-2.5,39;-2.5,39"/><animateTransform attributeName="transform" additive="sum" type="rotate" dur="1.042s" keyTimes="0;0.12;0.24;0.479;0.48;0.52;0.64;1" values="0,0,0;0,0,0;-14.481,0,0;-14.481,0,0;-5.56,0,0;3.003,0,0;0,0,0;0,0,0"/><animateTransform attributeName="transform" additive="sum" type="scale" dur="1.042s" keyTimes="0;0.12;0.24;0.48;0.52;1" values="1,1;1,1;0.999,0.999;0.999,0.999;1,1;1,1"/><animateTransform attributeName="transform" additive="sum" type="translate" dur="1.042s" keyTimes="0;0.12;0.24;0.479;0.48;0.52;0.64;1" values="-1.3,-3.5;-1.3,-3.5;-1.3,-3.55;-1.3,-3.55;-1.3,-3.5;-1.35,-3.45;-1.3,-3.5;-1.3,-3.5"/><path fill="#F60" d="M42.25,8.3Q41.8,6.7 41.8,4.4L41.95,2.4Q38,3.15 29.9,8.85 20.8,15.2 12.55,6.65 4.35,-1.95 3.85,0.6L4.45,0.6Q3.95,0.75 3.5,0.9 1.55,1.4 0.95,1.65 0,2.15 0,5.4 0,6.55 8.65,13.8 17.25,21 22.9,20.8 28.6,20.6 35.4,13.4 38.9,9.6 42.25,8.3"/></g><g id="8" transform="matrix(1 0 0 1 -68 29.7)"><animateTransform attributeName="transform" additive="replace" type="translate" dur="1.042s" keyTimes="0;0.12;0.24;0.479;0.48;0.52;0.64;1" values="-33.55,35.85;-33.55,35.85;-33.553,39.799;-33.553,39.799;-33.549,37.945;-33.541,35.944;-33.55,35.85;-33.55,35.85"/><animateTransform attributeName="transform" additive="sum" type="rotate" dur="1.042s" keyTimes="0;0.12;0.24;0.479;0.48;0.52;0.64;1" values="0,0,0;0,0,0;13.705,0,0;13.705,0,0;4.809,0,0;-3.745,0,0;0,0,0;0,0,0"/><animateTransform attributeName="transform" additive="sum" type="scale" dur="1.042s" keyTimes="0;0.12;0.24;0.48;0.52;1" values="1,1;1,1;0.999,0.999;0.999,0.999;1,1;1,1"/><animateTransform attributeName="transform" additive="sum" type="translate" dur="1.042s" keyTimes="0;0.12;0.24;0.479;0.48;0.52;0.64;1" values="-34.45,-6.15;-34.45,-6.15;-34.45,-6.05;-34.45,-6.05;-34.55,-6.15;-34.5,-6.15;-34.45,-6.15;-34.45,-6.15"/><path fill="#F60" d="M42.3,6.85Q42.3,2.7 41.35,2.1 40.8,1.75 38.85,1.1 38.4,0.9 37.9,0.75L38.5,0.75Q31.95,-2.6 27.15,8.8 22.4,20.1 13.35,12.05 4.3,4 0.35,3.05L0.5,5.6Q0.45,8.55 0,10.6 3.35,12.25 6.85,17.1 13.65,26.3 19.3,26.55 24.9,26.8 33.6,17.6 42.25,8.35 42.3,6.85"/></g><g id="2" transform="matrix(1 0 0 1 31.85 34.2)"><animateTransform attributeName="transform" additive="replace" type="translate" dur="1.042s" keyTimes="0;0.12;0.24;0.32;0.479;0.48;0.52;0.64;0.72;1" values="34,41.8;34,41.8;38.028,37.405;38.069,37.35;38.069,37.35;35.967,40.678;33.746,43.801;33.983,41.81;34,41.8;34,41.8"/><animateTransform attributeName="transform" additive="sum" type="rotate" dur="1.042s" keyTimes="0;0.12;0.24;0.32;0.479;0.48;0.52;0.64;0.72;1" values="0,0,0;0,0,0;-55.713,0,0;-59.948,0,0;-59.948,0,0;-75.317,0,0;3.003,0,0;-1.022,0,0;0,0,0;0,0,0"/><animateTransform attributeName="transform" additive="sum" type="scale" dur="1.042s" keyTimes="0;0.12;0.24;0.32;0.479;0.48;0.52;1" values="1,1;1,1;0.998,0.998;0.999,0.999;0.999,0.999;0.998,0.998;1,1;1,1"/><animateTransform attributeName="transform" additive="sum" type="translate" dur="1.042s" keyTimes="0;0.24;0.32;0.479;0.48;0.52;0.64;0.72;1" values="-2.15,-7.6;-2.15,-7.6;-2.2,-7.6;-2.2,-7.6;-2.1,-7.6;-2.15,-7.65;-2.2,-7.6;-2.15,-7.6;-2.15,-7.6"/><path fill="#FFCB99" d="M12.45,18.55Q12.4,18.1 11,15.4 9.7,12.85 9.45,12.2 7.9,13.5 6.55,14.15 9.55,21.3 11.3,20.9 12.95,20.1 12.45,18.55"/><path fill="#FFCB99" d="M9.85,11.8Q9.65,11.95 9.5,12.15 11.1,13.3 13.65,16 16.25,18.7 17.15,17.7 17.6,17.45 17.95,16.9 18.35,16.1 17.85,15.45 17.8,15.2 15.45,13.05 12.8,10.6 11.75,9.55 11.15,10.65 9.85,11.8"/><path fill="#DAB383" d="M11.8,9.5Q12.4,8.5 12.55,7.65 11.75,9.45 9.75,11.3 7.8,13.2 5.55,14.5 6.05,14.4 6.55,14.15 7.9,13.5 9.45,12.2L9.5,12.15Q9.65,11.95 9.85,11.8 11.15,10.65 11.75,9.55L11.8,9.5"/><path fill="#FFCB99" d="M14.95,2Q15,-0.8 13.65,0.35 12.25,1.55 9.65,2.4 7.15,3.25 4.85,3.2 2.6,3.1 0.9,5.8 -0.75,8.45 0.65,11 2,13.45 4.05,15.55 4.2,16.65 4.75,18.6 5.3,20.5 6.3,21.05 6.9,21.05 7.3,20.6 7.75,20.05 7.7,19.45 7.65,19 7.15,16.65 6.55,14.35 6.55,14.15 6.05,14.4 5.55,14.5 7.8,13.2 9.75,11.3 11.75,9.45 12.55,7.65 12.4,8.5 11.8,9.5 13.15,9.65 15.95,11.1 18.8,12.45 19.55,11.85 20.25,11.2 20.45,10.5 20.65,9.7 19.65,9.25 17.5,8.4 15.95,7.75 13.2,6.5 11.85,6.2L11.8,6.2 11.85,6.15Q14.85,4.8 14.95,2"/><path fill="#DAB383" d="M11.8,6.25Q11.2,6.75 10.65,6.95 9.4,7.45 7.9,7.3 9.4,7.85 10.75,7.3 11.7,6.9 11.8,6.25"/></g><g id="10" transform="matrix(1 0 0 1 -42.15 10.1)"><animateTransform attributeName="transform" additive="replace" type="translate" dur="1.042s" keyTimes="0;0.479;0.48;0.52;1" values="-19.65,86.85;-19.65,86.85;-19.65,86.9;-19.65,86.85;-19.65,86.85"/><animateTransform attributeName="transform" additive="sum" type="scale" dur="1.042s" keyTimes="0;0.12;0.24;0.479;0.48;0.52;1" values="1,1;1,1;1.062,0.88;1.062,0.88;1.036,0.94;1,1;1,1"/><animateTransform attributeName="transform" additive="sum" type="translate" dur="1.042s" keyTimes="0;1" values="-22.5,-76.75;-22.5,-76.75"/><path fill="#336" d="M1.95,73.6Q18.05,78.9 40.15,75.35 42.05,75 43.55,66.6 22.4,73.6 1.25,70.1 1.4,72.25 1.95,73.6"/><path fill="#666" d="M27.85,11.85Q27.35,11.3 26.7,11.3 26.35,11.3 26.05,11.45L26.85,12.85Q27.5,13.45 28.1,14.05 28.3,13.65 28.3,13.15 28.3,12.35 27.85,11.85"/><path fill="#F60" d="M33.15,5.65L31.05,8.1 28.3,11.2 28.35,14.3Q28.25,14.2 28.1,14.05 27.5,13.45 26.85,12.85L26.05,11.45 20.8,2.15 20.2,1.1Q2.45,34.25 1.2,65.8L0,69.85Q0.6,69.95 1.25,70.1 22.4,73.6 43.55,66.6 43.9,66.45 44.25,66.35 44.05,65.55 43.85,64.8L43.85,64.75Q43.6,63.85 43.4,62.95 42.15,33.5 33.15,5.65"/><path fill="#FFCB99" d="M31.05,8.1Q30.85,7.2 30.65,6.35 29.45,1.45 26.6,0.5 24.55,-0.15 25,0.25 23.9,-0.2 23.15,0.2 21.95,0.85 20.8,2.15L26.05,11.45Q26.35,11.3 26.7,11.3 27.35,11.3 27.85,11.85 28.3,12.35 28.3,13.15 28.3,13.65 28.1,14.05 28.25,14.2 28.35,14.3L28.3,11.2 31.05,8.1"/><path fill="#DE765C" d="M33.15,5.65L28.3,11.2 28.35,14.3Q28.25,14.2 28.1,14.05 27.5,13.45 26.85,12.85L20.2,1.1Q2.45,34.25 1.2,65.8L1.25,65.8Q16.7,68.05 26.9,66.9 27.1,65.75 27.3,64.75 27.9,61.65 28.65,60.2L28.6,66.75 43.4,62.95Q42.15,33.5 33.15,5.65 M33.4,53.35L42.1,55.95 41.65,56.9 33.1,54.1 33.4,53.35 M18.9,57.15L4.8,61.15 4.75,59.85 18.9,55.45 18.9,57.15"/></g><g id="6" transform="matrix(1 0 0 1 -81.35 27.9)"><animateTransform attributeName="transform" additive="replace" type="translate" dur="1.042s" keyTimes="0;0.12;0.16;0.24;0.32;0.479;0.48;0.52;0.64;0.72;1" values="-62.2,38.7;-62.2,38.7;-63.634,37.139;-66.599,33.847;-66.552,33.824;-66.552,33.824;-65.82,37.431;-61.967,40.691;-62.157,38.686;-62.2,38.7;-62.2,38.7"/><animateTransform attributeName="transform" additive="sum" type="rotate" dur="1.042s" keyTimes="0;0.12;0.16;0.24;0.32;0.479;0.48;0.52;0.64;0.72;1" values="0,0,0;0,0,0;15.278,0,0;45.926,0,0;50.173,0,0;50.173,0,0;54.27,0,0;-3.745,0,0;0.733,0,0;0,0,0;0,0,0"/><animateTransform attributeName="transform" additive="sum" type="scale" dur="1.042s" keyTimes="0;0.12;0.16;0.479;0.48;0.52;1" values="1,1;1,1;0.998,0.998;0.998,0.998;0.997,0.997;1,1;1,1"/><animateTransform attributeName="transform" additive="sum" type="translate" dur="1.042s" keyTimes="0;0.12;0.16;0.24;0.32;0.479;0.48;0.52;0.64;0.72;1" values="-19.15,-10.8;-19.15,-10.8;-19.15,-10.75;-19.15,-10.75;-19.15,-10.7;-19.15,-10.7;-19.15,-10.6;-19.1,-10.85;-19.15,-10.85;-19.15,-10.8;-19.15,-10.8"/><path fill="#FFCB99" d="M7.85,15.75Q5.8,18 5.6,18.4 4.75,19.8 6.15,21 7.75,21.8 12.45,15.7 11.3,14.75 10.2,13.05 9.75,13.65 7.85,15.75"/><path fill="#FFCB99" d="M8.6,9.9Q7.35,10.65 4.15,12.35 1.35,13.8 1.2,14 0.55,14.5 0.75,15.4 0.95,16 1.35,16.4 1.95,17.55 5.1,15.65 8.3,13.7 10.15,13 10,12.75 9.9,12.55 8.95,11.1 8.6,9.9"/><path fill="#DAB383" d="M8.6,9.85L8.6,9.9Q8.95,11.1 9.9,12.55 10,12.75 10.15,13L10.2,13.05Q11.3,14.75 12.45,15.7 12.85,16.05 13.35,16.3 11.5,14.45 10.15,12.15 8.7,9.8 8.35,7.85 8.25,8.7 8.6,9.85"/><path fill="#FFCB99" d="M20.05,9.1Q19.15,6.05 16.95,5.55 14.75,5 12.5,3.55 10.25,2.05 9.2,0.55 8.15,-0.95 7.5,1.8 6.85,4.55 9.4,6.6L9.45,6.65 9.4,6.65Q8,6.6 5.05,7.05 3.4,7.3 1.05,7.6 0,7.75 0,8.55 0,9.3 0.5,10.1 1.05,10.9 4.15,10.3 7.3,9.65 8.6,9.85 8.25,8.7 8.35,7.85 8.7,9.8 10.15,12.15 11.5,14.45 13.35,16.3 12.85,16.05 12.45,15.7 12.4,15.85 11.25,17.95 10.15,20.1 9.95,20.5 9.75,21.1 10.05,21.7 10.35,22.3 10.9,22.45 12.05,22.2 13.05,20.45 14.1,18.7 14.5,17.7 17.05,16.15 19,14.15 21,12.1 20.05,9.1"/><path fill="#DAB383" d="M12.9,8.7Q11.45,8.45 10.4,7.7 9.9,7.3 9.45,6.7 9.35,7.4 10.2,8 11.35,8.85 12.9,8.7"/></g><g id="kel" transform="matrix(-0.949 0 -0.003 1.027 -15.65 38)"><animateTransform attributeName="transform" additive="replace" type="translate" dur="1.042s" keyTimes="0;0.12;0.24;0.479;0.48;0.52;0.64;1" values="-17.324,43.444;-17.324,43.444;-17.277,47.444;-17.277,47.444;-17.316,44.644;-17.324,41.844;-17.324,43.444;-17.324,43.444"/><animateTransform attributeName="transform" additive="sum" type="rotate" dur="1.042s" keyTimes="0;0.479;0.48;0.52;1" values="0.149,0,0;0.149,0,0;0.038,0,0;0.149,0,0;0.149,0,0"/><animateTransform attributeName="transform" additive="sum" type="skewY" dur="1.042s" keyTimes="0;0.479;0.48;0.52;1" values="-180.147;-180.147;-180.037;-180.147;-180.147"/><animateTransform attributeName="transform" additive="sum" type="scale" dur="1.042s" keyTimes="0;1" values="0.949,1.027;0.949,1.027"/><animateTransform attributeName="transform" additive="sum" type="scale" dur="1.042s" keyTimes="0;1" values="-1,1;-1,1"/><animateTransform attributeName="transform" additive="sum" type="translate" dur="1.042s" keyTimes="0;0.12;0.24;0.48;0.52;1" values="-1.75,-5.3;-1.75,-5.3;-1.7,-5.3;-1.7,-5.3;-1.75,-5.3;-1.75,-5.3"/><path fill="#333" d="M1.9,3.8Q1.6,3.8 1.35,3.75L0.8,11.05 4.4,11.05 2.55,3.7Q2.25,3.8 1.9,3.8"/><path fill="#666" d="M3.8,1.9Q3.8,1.1 3.25,0.55 2.7,0 1.9,0 1.1,0 0.55,0.55 0,1.1 0,1.9 0,2.7 0.55,3.25 0.9,3.6 1.35,3.75 1.6,3.8 1.9,3.8 2.25,3.8 2.55,3.7 2.95,3.55 3.25,3.25 3.8,2.7 3.8,1.9"/></g><g id="12_l1" transform="matrix(1 0 0 1 -74.7 -54.1)"><animateTransform attributeName="transform" additive="replace" type="translate" dur="1.042s" keyTimes="0;0.12;0.24;0.479;0.48;0.52;0.64;0.72;1" values="-74.7,-54.1;-74.7,-54.1;-74.7,-49.7;-74.7,-49.7;-74.7,-52.4;-74.7,-55.1;-74.7,-53.9;-74.7,-54.1;-74.7,-54.1"/><g id="17" transform="matrix(1 0 0 1 12.75 16.6)"><path fill="#FFCB99" d="M81.65,53Q81.533,53.509 81.45,54.05L81.55,53.65Q81.588,53.313 81.65,53"/><path fill="#3C3A3D" d="M15.95,0.15Q16.05,0.15 16.15,0.15L16.35,0Q16.15,0.1 15.95,0.15"/><path fill="#FFCB99" d="M2.3,48.15Q1.85,48.7 1.45,49.4 0.841,50.492 2.3,48.15"/><path fill="#FFCB99" d="M84.75,30.95Q84.8,28.85 84.9,26.35 83.885,14.51 71.575,10.35 59.255,6.196 47.25,6.3 35.85,6.35 25.2,10.05 14.55,13.6 6.3,21.15 -2.595,29.253 0.05,37.775 2.689,46.287 2.3,48.15 0,53.218 0,54.9 -0.05,57 0.95,58.55 2.95,61.6 8.25,61.6 10.6,61.6 13.1,59 20.35,73.4 35,76.05 49.65,78.65 59.5,75.95 69.35,73.25 72.15,70.9 74.95,68.5 75.95,67.05 76.95,65.6 77.8,63.95 78.3,63.05 78.7,62.05 79.45,60.35 80,58.45 80.2,57.85 80.35,57.25L80.35,57.2Q80.7,55.5 81.4,52.7 81.55,52.75 81.7,52.8 84.05,53.55 85.5,52.65 88.6,50.8 88.8,48.3 88.9,47 88.2,45.8 87.3,44.1 85.6,43.1 84.5,42.4 83.55,42.5 84.45,36.35 84.75,30.95 M70.1,34.7Q69.9,34.65 69.75,34.65 69.6,34 70.1,34.7 M2,55Q2.05,54.15 3.45,53.25 3.75,52.95 4.25,52.95 5.4,52.95 7.15,54.55 9.5,56.75 9.3,58 8.3,56.55 6.45,55.5 4.5,54.4 3.85,55.5 3.25,56.5 2.5,56.15 1.95,55.9 2,55.2 2,55.1 2,55"/><path fill="#604339" d="M9.75,47.15L9.75,47.2 9.85,47.25Q9.8,47.2 9.75,47.15"/><path fill="#FBA46A" d="M26.3,52.65Q24.2,50.4 21.25,50.4 18.25,50.4 16.15,52.65 14.05,55 14,58.25 14,61.45 16.1,63.75 18.2,66.05 21.2,66.05 24.15,66.05 26.25,63.75 28.4,61.45 28.4,58.25 28.45,55 26.3,52.65"/><path fill="#FFBC79" d="M12.9,57.4L12.9,57.35Q12.75,56.9 12.75,57.05 12.8,57.25 12.9,57.5 12.9,57.45 12.9,57.4"/><path fill="#E28C36" fill-opacity="0.8" d="M2,55Q2.05,54.15 3.45,53.25 3.75,52.95 4.25,52.95 5.4,52.95 7.15,54.55 9.5,56.75 9.3,58 8.3,56.55 6.45,55.5 4.5,54.4 3.85,55.5 3.25,56.5 2.5,56.15 1.95,55.9 2,55.2 2,55.1 2,55"/><path fill="#FBA46A" d="M79.05,55.6Q78.05,52.8 75.6,52.15 73.15,51.5 70.85,53.3 68.45,55.2 67.55,58.4 66.7,61.6 67.8,64.35 68.9,67.1 71.35,67.75 73.8,68.4 75.5,66.95 77.2,65.5 78.65,61.95 80.1,58.4 79.05,55.6"/><path fill="#C46E49" d="M60.9,54.25L60.95,54.25Q60.15,53.7 58.2,53.7 57.85,53.7 57.4,53.7 55.45,53.75 55.2,53.05 55.15,52.9 55.05,52.85 54.9,52.75 54.8,52.8 54.7,52.8 54.65,52.95 54.55,53.05 54.6,53.2 54.8,54.4 57.4,54.3 57.9,54.3 58.2,54.3 59.9,54.35 60.6,54.8 61.9,55.65 61.9,58.25 61.9,58.4 61.9,58.45 61.8,59.45 60.5,59.95 59.15,60.4 57.85,60.5 56.5,60.6 53.9,60 53.7,59.95 53.55,59.9 53.45,60.15 53.4,60.25 53.35,60.35 53.4,60.5 53.45,60.6 53.55,60.7 55.55,61.8 57.35,61.8 57.85,61.8 58.2,61.75 59.85,61.6 61,60.85L61.05,60.85Q62.45,59.95 62.5,58.45 62.5,58.4 62.5,58.25 62.55,55.2 60.9,54.25"/><path fill="#FFB366" d="M84.75,30.95Q84.8,28.85 84.9,26.35 83.885,14.51 71.575,10.35 59.255,6.196 47.25,6.3 35.85,6.35 25.2,10.05 14.55,13.6 6.3,21.15 -2.595,29.253 0.05,37.775 2.689,46.287 2.3,48.15 3.95,49.65 6.05,51.55 6.4,51.85 6.7,52.15L6.95,52.3Q7.2,52.45 7.5,52.6 7.65,52.7 7.8,52.8 7.8,52.65 7.75,52.55L7.8,52.55 7.85,52.45Q7.85,52.05 7.8,50.7 7.85,48.1 8,48 7.95,47.75 7.85,47.5 7.8,47.3 7.75,47.05 7.5,46 7,44.5 6.7,43.55 6.3,42.35 5.15,38.85 4.45,37.05 5.3,37.85 6.55,39.15 6.8,39.3 7.85,40.45 8.45,41.05 9.75,42.55 10.4,43.25 11.15,44.15 11.4,44.4 11.65,44.7 11.65,44.6 11.7,44.5 11.45,43.7 11.25,43L11.25,42.7Q11.2,42.6 11.15,42.55 10.7,41.65 10.3,40.9 10,39.95 9.75,39.15L9.75,39.9Q7.4,35.2 6.45,32.8 6.85,32 9.15,29.35 11.7,26.4 12.55,25.6L14.55,23.7 14.75,23.6Q17.1,21.4 19.9,20.4 20.9,20.2 22.65,20.45 23.55,20.65 23.6,20.8 23.85,20.8 24.1,20.85L24.1,21.1Q25.3,21.45 30,23.4 32.65,24.5 36.4,26.1 45.7,30.05 47.35,30.05 47.85,30.05 48,29.85 48.05,29.75 48.15,29.45 47.6,28.4 45.85,26.05L45.8,26 45.85,26Q49.45,26.85 50.4,26.75 50.95,26.7 51.1,26.5 51.2,26.4 51.25,26.1 50.8,25.2 49.25,23.45 54.7,24.6 66.7,26.3 78.6,27.95 83.1,30.05 84.1,30.5 84.75,30.95"/></g><g><g id="16" transform="matrix(1 0 0 1 46.1 77.95)"><animateTransform attributeName="transform" additive="replace" type="translate" dur="1.042s" keyTimes="0;0.52;0.6;1" values="51.6,77.927;51.6,77.927;51.6,77.95;51.6,77.95"/><animateTransform attributeName="transform" additive="sum" type="skewY" dur="1.042s" keyTimes="0;0.52;0.6;1" values="9.061;9.061;0;0"/><animateTransform attributeName="transform" additive="sum" type="scale" dur="1.042s" keyTimes="0;0.52;0.6;1" values="1.013,0.59;1.013,0.59;1,1;1,1"/><animateTransform attributeName="transform" additive="sum" type="scale" dur="1.042s" keyTimes="0;0.52;0.6;1" values="0.988,1;0.988,1;1,1;1,1"/><animateTransform attributeName="transform" additive="sum" type="translate" dur="1.042s" keyTimes="0;1" values="-5.5,0;-5.5,0"/><path fill="#BC3232" d="M1.8,3.1Q0.65,3 0.35,2.9 0.35,3.1 0.3,3.2 0.25,3.35 0.2,3.4 -0.1,4.1 0.1,4.95L6.5,6.75Q4,3.75 1.8,3.1"/><path fill="#FFF" d="M8.4,2.1L6.55,1.05Q5.15,0.45 4.15,0.15 6.4,1.5 8.85,2.7 8.65,2.4 8.4,2.1"/><path fill="#87301B" d="M9.1,3.35Q9,2.95 8.85,2.7 6.4,1.5 4.15,0.15 2.65,-0.3 1.7,0.65 0.9,1.4 0.35,2.9 0.65,3 1.8,3.1 4,3.75 6.5,6.75L11.05,8.05Q10.05,7.1 9.75,6.55 9.25,5.75 9.1,3.35"/></g><animate attributeName="display" repeatCount="1" dur="1.042s" keyTimes="0;0.52;1" values="none;inline;none"/></g><g style="display:none;"><path fill="#4A2B0B" d="M46.1,78.3Q50.812,78.846 55.65,81.8 54.8,80.95 54,80.15 50.55,77.05 46.1,78.3"/><animate attributeName="display" repeatCount="1" dur="1.042s" keyTimes="0;0.52;1" values="inline;none;none"/></g><g style="display:none;"><path fill="#744236" d="M91.9,60.95Q92.15,59.85 92.1,58.7 91.4,61.1 89.6,62.8 87.75,64.5 85.3,64.2 82.95,63.85 81.4,61.8 80.4,60.55 79.85,58.95 79.65,61 81,62.85 82.15,64.5 84,65 86.5,65.75 88.75,64.55 91.25,63.25 91.9,60.95"/><path fill="#744236" d="M37.6,60.2Q37.55,61.35 37.8,62.45 38.45,64.75 40.95,66.05 43.2,67.25 45.7,66.5 47.55,66 48.7,64.35 50.05,62.5 49.85,60.45 49.3,62.05 48.3,63.3 46.75,65.35 44.4,65.7 41.95,66 40.1,64.3 38.3,62.6 37.6,60.2"/><animate attributeName="display" repeatCount="1" dur="1.042s" keyTimes="0;0.28;0.44;1" values="none;inline;none;none"/></g><g><use xlink:href="#15" transform="matrix(1 0 0 1 37.6 53)"/><animate attributeName="display" repeatCount="1" dur="1.042s" keyTimes="0;0.28;0.44;1" values="inline;none;inline;none"/></g><g id="14" transform="matrix(1 0 0 1 34.2 47.5)"><animateTransform attributeName="transform" additive="replace" type="translate" dur="1.042s" keyTimes="0;0.24;0.32;0.4;0.48;1" values="34.2,47.5;34.2,47.5;34.2,49.5;34.2,49.5;34.2,47.5;34.2,47.5"/><path fill="#3C3A3D" d="M47.1,1.15Q48.4,3.3 50.65,4.55 52.85,5.75 56.4,6.5 57.7,4.15 54.5,3.1 51.3,2.05 49.35,0.6 47.35,-0.85 47.1,1.15"/><path fill="#3C3A3D" d="M11.2,1.75Q9.6,0.9 9.35,1.65 9.1,2.35 5.15,5.3 1.25,8.2 0,9 0.8,10.25 1.35,11.05 1.95,11.85 4.5,10.45 7.05,9.05 9.9,5.8 12.8,2.55 11.2,1.75"/></g><g id="13"><animateTransform attributeName="transform" additive="replace" type="translate" dur="1.042s" keyTimes="0;0.12;0.24;0.32;0.4;0.52;0.6;0.639;0.64;1" values="62.45,34.7;62.45,34.7;62.45,33.9;62.45,34.7;62.45,34.7;62.45,36.7;62.45,34.3;62.45,34.3;62.45,34.7;62.45,34.7"/><animateTransform attributeName="transform" additive="sum" type="skewY" dur="1.042s" keyTimes="0;0.12;0.24;0.32;0.4;0.52;0.6;0.639;0.64;1" values="0;0;-0.917;0;0;2.933;-0.551;-0.551;0;0"/><animateTransform attributeName="transform" additive="sum" type="scale" dur="1.042s" keyTimes="0;0.4;0.52;0.6;1" values="1,1;1,1;1.001,1;1,1;1,1"/><animateTransform attributeName="transform" additive="sum" type="scale" dur="1.042s" keyTimes="0;0.519;0.52;0.587;1" values="1,1;1,1;0.999,1;1,1;1,1" keySplines=".1 .1 .9 .9;.1 .1 .9 .9;0 0 1 1;.5 0 .75 .5" calcMode="spline"/><animateTransform attributeName="transform" additive="sum" type="translate" dur="1.042s" keyTimes="0;1" values="-62.45,-34.7;-62.45,-34.7"/><path fill="#604339" d="M108.1,11.35Q108.25,11.3 108.4,11.3 108.55,11.25 108.65,11.25 107,9.6 104.35,8.15 97.2,4.15 83.05,1 79.7,-0.05 70.65,0 61.6,0.05 50.7,4.1 46.95,5.5 43.1,7.25 39.25,8.95 37.05,10.2 34.85,11.45 33.1,12.65 31.35,13.85 29.05,15 28.5,13.05 28.1,12.25 27.35,10.5 26.1,9.7 25.85,10.1 25.6,10.6 25,11.75 24.6,13.45 24.25,14.5 24.15,15.4 22.6,14.8 20.85,13.65 18.4,12 16.85,12.4L16.7,12.9Q16.7,13 18.15,19.95 2.3,41.8 0,47.6 0.25,47.95 0.5,48.35 5.85,55.6 7.25,57.55 7.7,58.15 7.75,58.2 8.05,58.45 8.35,58.8L8.45,58.9Q8.55,59 8.6,59.05 8.95,59.4 9.35,59.75L14.75,64.5Q14.9,64.6 15.05,64.75 16.7,66.25 18.8,68.15 19.15,68.45 19.45,68.75L19.7,68.9Q19.95,69.05 20.25,69.2 20.4,69.3 20.55,69.4 20.55,69.25 20.5,69.15L20.55,69.15 20.6,69.05Q20.6,68.65 20.55,67.3 20.6,64.7 20.75,64.6 20.7,64.35 20.6,64.1 20.55,63.9 20.5,63.65 20.25,62.6 19.75,61.1 19.45,60.15 19.05,58.95 17.9,55.45 17.2,53.65 18.05,54.45 19.3,55.75 19.55,55.9 20.6,57.05 21.2,57.65 22.5,59.15 23.15,59.85 23.9,60.75 24.15,61 24.4,61.3 24.4,61.2 24.45,61.1 24.2,60.3 24,59.6L24,59.3Q23.95,59.2 23.9,59.15 23.45,58.25 23.05,57.5 22.75,56.95 22.5,56.5 20.15,51.8 19.2,49.4 19.6,48.6 23.7,47.9 27.55,47.2 34.45,36.95 34.9,37 35.4,37.05 35,36.75 39.95,37.9 44.9,39.05 50.25,40.5 55.65,41.9 58.55,42.6L58.6,42.6Q62.2,43.45 63.15,43.35 63.7,43.3 63.85,43.1 63.95,43 64,42.7 63.55,41.8 62,40.05 61.75,39.8 61.5,39.5 59.3,37.2 58.45,36.3L59.45,36.15Q68.4,36.6 77.5,38.2 85.2,39.5 93,41.65 95.4,42.25 97.65,42.95 98.3,43.15 98.75,43.3L99.85,43.6Q100.4,43.8 101.05,44 103.25,44.75 105.2,45.55 106.5,46.05 109.75,46.95 110.15,47.05 110.5,47.1 109.95,46.35 108.55,42.75 107.75,40.75 106.7,37.85 109.15,38.55 116.05,40.75 116.45,40.9 116.8,41 116.9,41.05 117.1,41.1 118.95,41.7 121.45,42.35 123,42.75 124.9,42.95 121.95,36.5 119.1,33.2 118.1,32.05 117.15,31.05 116.95,30.85 116.85,30.75 109,22.55 102.45,22.55 105.65,21.6 112.05,19.9 115.25,19 116.85,18.4 117,18.35 117.15,18.3 118.6,17.65 118.6,17.3 118.6,16.95 117.15,16.45 117,16.35 116.85,16.35 114.95,15.6 110.95,14.6 102.8,12.7 98.75,13.2 104.2,12.05 108.1,11.35 M29.1,16.6L28.9,16.75Q28.8,16.75 28.7,16.75 28.9,16.7 29.1,16.6"/><path fill="#7C5649" d="M97.05,21.35Q95.35,20.65 93.75,20.15 78,15.8 76.75,16.35 69.7,15.65 63.7,16.25 63.45,16.2 63.3,16.25 58.3,16.75 53.5,17.8 52.7,18 51.9,18.2L46.15,19.55Q46.35,19.55 46.55,19.55 91.95,18.2 118.25,36 110.296,28.59 103.375,24.475 101.456,23.355 99.625,22.475 98.314,21.849 97.05,21.35"/><path fill="#604339" d="M67.5,2.05Q59.2,2.65 56.85,3.5 49.95,5.2 44.4,7.75 44.2,7.85 44,7.95 39.45,10.05 35.2,12.7 34.5,13.1 33.85,13.55L28.7,16.75Q28.8,16.75 28.9,16.75L29.1,16.6Q71.8,0.25 102.25,8.35 87.75,1.95 77.6,1.5 75.8,1.4 67.5,2.05"/><path fill="#7C5649" d="M77.6,1.5Q75.8,1.4 67.5,2.05 59.2,2.65 56.85,3.5 49.95,5.2 44.4,7.75 44.2,7.85 44,7.95 39.45,10.05 35.2,12.7 34.5,13.1 33.85,13.55L28.7,16.75Q28.9,16.7 29.1,16.6 71.8,0.25 102.25,8.35 87.75,1.95 77.6,1.5"/><path fill="#3C3A3D" d="M23.9,60.75Q24.15,61 24.4,61.3 24.4,61.2 24.45,61.1 24.2,60.3 24,59.6L24,60.15 23.95,60.2Q23.85,60.05 23.7,59.9 23.2,59.25 22.5,58.45 21.1,56.8 19,54.65 18.85,54.5 18.75,54.4 18,53.65 17.3,53 16.55,53.5 15.9,53.85 17.35,57.8 18.05,60.1 18.05,60.15 18.1,60.2 18.1,60.3 18.15,60.4 18.25,60.75 18.35,61.05 18.5,61.65 18.8,62.55 18.9,62.7 18.95,62.9 18.95,62.95 19,62.95L19,63Q19.05,63.15 19.1,63.3 19.25,63.7 19.45,64.2 19.55,64.35 19.6,64.55 19.6,64.6 19.95,66.25 20.05,66.75 20.2,67.4 20.3,68.15 20.5,69.15L20.55,69.15 20.6,69.05Q20.6,68.65 20.55,67.3 20.6,64.7 20.75,64.6 20.7,64.35 20.6,64.1 20.55,63.9 20.5,63.65 20.25,62.6 19.75,61.1 19.45,60.15 19.05,58.95 17.9,55.45 17.2,53.65 18.05,54.45 19.3,55.75 19.55,55.9 20.6,57.05 21.2,57.65 22.5,59.15 23.15,59.85 23.9,60.75"/><path fill="#3C3A3D" d="M99.85,43.6Q100.4,43.8 101.05,44 103.25,44.75 105.2,45.55 106.5,46.05 109.75,46.95 106.7,44.8 105.45,44.25 104.85,43.95 104.25,43.65 103.8,43.5 103.3,43.25 98.35,41.1 92.7,39.8 87.2,38.45 77.5,37 75.25,36.65 72.75,36.3 59.9,34.45 57.15,34.75 56.6,34.8 56.3,34.9L55.95,35Q55.9,35.4 55.9,35.85 55.9,36 58.1,38.3 58.75,39 59.3,39.5 60.7,40.95 61.35,41.45 59.95,41.2 56.75,40.25 54.25,39.55 50.7,38.4 36.6,35.45 32.9,35.9 27.7,45.35 21.95,47.75 19.55,48.7 18.35,49.1 18.35,49.25 18.35,49.5 18.7,50.2 19.75,52.9 20.7,55.15 22.5,57.5 22.9,58 23.3,58.45 23.6,58.8 23.9,59.15 23.45,58.25 23.05,57.5 22.75,56.95 22.5,56.5 20.15,51.8 19.2,49.4 19.6,48.6 23.7,47.9 27.55,47.2 34.45,36.95 34.9,37 35.4,37.05 35,36.75 39.95,37.9 44.9,39.05 50.25,40.5 55.65,41.9 58.55,42.6L58.6,42.6Q62.2,43.45 63.15,43.35 63.7,43.3 63.85,43.1 63.95,43 64,42.7 63.55,41.8 62,40.05 61.75,39.8 61.5,39.5 59.3,37.2 58.45,36.3L59.45,36.15Q68.4,36.6 77.5,38.2 85.2,39.5 93,41.65 95.4,42.25 97.65,42.95 98.3,43.15 98.75,43.3L99.85,43.6"/><path fill="#3C3A3D" d="M122.25,39.6Q122.9,40.6 123.55,41.7 119.75,40.25 117.1,39.35 116.9,39.25 116.8,39.25 116.15,39 115.6,38.8 109,36.5 105.85,36.7 104.9,35.3 104.1,34.35 99.5,28.8 93.25,28.35 99.6,31.35 103.65,36.25 104.3,37.15 105.2,38.3 104.6,37.85 103.95,37.6 105.4,39.85 107,42.9 107.1,43.15 107.25,43.4 107.7,44.2 108.15,45.1 108.3,45.4 108.45,45.8 108.15,45.65 109.75,46.95 110.15,47.05 110.5,47.1 109.95,46.35 108.55,42.75 107.75,40.75 106.7,37.85 109.15,38.55 116.05,40.75 116.45,40.9 116.8,41 116.9,41.05 117.1,41.1 118.95,41.7 121.45,42.35 123,42.75 124.9,42.95 121.95,36.5 119.1,33.2 118.1,32.05 117.15,31.05 116.95,30.85 116.85,30.75 109,22.55 102.45,22.55 105.65,21.6 112.05,19.9 115.25,19 116.85,18.4 117,18.35 117.15,18.3 118.6,17.65 118.6,17.3 118.6,16.95 117.15,16.45 117,16.35 116.85,16.35 114.95,15.6 110.95,14.6 102.8,12.7 98.75,13.2 104.2,12.05 108.1,11.35 108.25,11.3 108.4,11.3 108.55,11.25 108.65,11.25 107,9.6 104.35,8.15 97.2,4.15 83.05,1 79.7,-0.05 70.65,0 61.6,0.05 50.7,4.1 46.95,5.5 43.1,7.25 39.25,8.95 37.05,10.2 34.85,11.45 33.1,12.65 31.35,13.85 29.05,15 28.5,13.05 28.1,12.25 27.35,10.5 26.1,9.7 25.85,10.1 25.6,10.6 25,11.75 24.6,13.45 24.25,14.5 24.15,15.4 22.6,14.8 20.85,13.65 18.4,12 16.85,12.4L16.7,12.9Q16.7,13 18.15,19.95 2.3,41.8 0,47.6 0.25,47.95 0.5,48.35 5.85,55.6 7.25,57.55 7.7,58.15 7.75,58.2 8.05,58.45 8.35,58.8L8.45,58.9Q8.55,59 8.6,59.05 8.95,59.4 9.35,59.75L14.75,64.5Q14.9,64.6 15.05,64.75 24.65,73.15 15.75,64.1 12.2,60.55 5.8,54.3L1.55,47.45 1.55,47.4Q1.95,45.55 5.15,40.8 10,33.5 13.9,27.6 14.8,26.2 19.15,20.3 19.15,19.95 19.2,18.8 19.25,16.45 18.6,14.3 19.5,14.4 23.15,16.6 23.35,16.7 23.6,16.85 23.6,16.8 23.65,16.8L24.2,16.65Q24.7,16.5 24.75,16.1 24.8,15.65 26.35,12.55 26.55,13.7 27.05,14.95 27.85,16.65 28.7,16.75L33.85,13.55Q34.5,13.1 35.2,12.7 39.45,10.05 44,7.95 44.2,7.85 44.4,7.75 49.95,5.2 56.85,3.5 59.2,2.65 67.5,2.05 75.8,1.4 77.6,1.5 87.75,1.95 102.25,8.35 104.15,9.2 106.15,10.15 102.6,11.2 98.7,12.45 92.95,14.2 92.95,14.5 92.95,14.7 92.9,14.85 104.4,14.75 109.2,15.55 111.9,16.05 114.9,17.15 105.499,20.386 99.625,22.475 101.456,23.355 103.375,24.475 111.129,27.577 116.85,33.15 116.95,33.3 117.1,33.4 119.9,36.15 122.25,39.6"/></g></g></g></svg>