<?xml version="1.0" encoding="utf-8"?>
<!-- Generator: Adobe Illustrator 19.2.0, SVG Export Plug-In . SVG Version: 6.00 Build 0)  -->
<svg version="1.1" id="_x31_012" image-rendering="auto"
	 xmlns="http://www.w3.org/2000/svg" xmlns:xlink="http://www.w3.org/1999/xlink" x="0px" y="0px" width="1020px" height="660px"
	 viewBox="0 0 1020 660" enable-background="new 0 0 1020 660" xml:space="preserve">
<path opacity="0.25" fill="#332C2A" d="M977.7,119.3c-6.6-37.6-26.7-64.2-60.3-79.6c-36.2-18.4-73.4-19.2-111.7-2.3
	c-4.5-2.3-13.8-5.8-28-10.4c-33.4-10.7-66.7-10.5-99.9,0.6c-8.5,3.5-16.9,8.6-25.1,15.5c-12,9.7-19,17.7-21.1,24
	c-3.3-1.8-7.2-3.7-11.6-5.8c-7.2-3.3-23.6-9.5-49.3-18.4c-41.1-17-115.6-20.9-223.4-11.8c-1.8,0.1-3.6,0.3-5.4,0.6
	c-0.3,0-4.9-2-13.9-6c-9.1-4-20.5-7.2-34-9.7c-13.7-2.6-31.8-3.2-54.3-1.7c-22.7,1.4-42.3,5.3-58.9,11.6
	c-16.6,6.1-30.5,12.4-41.5,19.1C105,65.2,78.9,87.5,60.9,111.5l0.2-0.2c-18.6,24.3-31.8,51.3-39.6,81c-7.9,29.5-8.8,58-2.9,85.4
	c0.1,0.4,0.2,0.8,0.2,1.2c3.3,21.5,13.5,46.9,30.3,76.1c1.9,3.3,10.7,18.7,26.3,46.2c-0.4,0.4-0.7,0.8-1,1.4
	c-0.3,0.4-0.5,0.8-0.8,1.4c-8.9,13.1-13.3,30.8-13.3,53c0,0.3,0.5,4.6,1.5,13.1c2.1,9.9,5.1,19,9.1,27.2
	c7.6,15.5,18.1,26.3,31.5,32.7c-0.9,0.3-1.9,0.5-2.9,0.8c-20.5,6.2-37.4,14.1-50.6,23.8c-14.6,10.7-22.6,23-24.2,36.9
	c0.3-2.8,0.5-4.6,0.6-5.2c-3,9.3,0.4,18.6,10,27.8c15.1,14.8,59.9,22.7,134.5,23.6c74.7,0.9,118.3,1,130.8,0.4
	c3.6,0.9,21.5,1.4,53.7,1.4c32.2-0.1,103.8,0.1,214.7,0.8c111.1,0.6,176.9,0.8,197.5,0.6c20.5-0.4,40.1-0.8,58.9-1.2
	c18.8-0.5,40.1-1.2,63.8-1.9c23.6-0.9,39.6-4.1,47.9-9.5c8.4-5.5,14.9-12.5,19.5-20.9c4.5-8.5,6.6-20,6.2-34.6
	c-0.4-14.7-4.6-27.1-12.8-37.1c-6.2-7.3-13.7-13.2-22.6-17.6c5.8-5.4,10.6-12.9,14.3-22.4c5.3-13,7.9-25.4,7.9-37.3
	c0-12.2-4.7-24-14.1-35.4c-4.5-5.3-9.5-10-15.1-14.1c22.9-6.4,38.9-19.2,47.9-38.3c2.8-5.9,5.2-11.7,7.2-17.2
	c6.2-17.5,9.7-51.5,10.4-102C986.9,200.8,984.1,156.8,977.7,119.3z"/>
</svg>
