<?xml version="1.0" encoding="utf-8"?><svg id="1022" image-rendering="auto" baseProfile="basic" version="1.1" x="0px" y="0px" width="660" height="300" xmlns="http://www.w3.org/2000/svg" xmlns:xlink="http://www.w3.org/1999/xlink"><g id="op_l1" overflow="visible" transform="matrix(3.926 0 0 3.926 283.65 18.75)"><g id="w_l1" transform="matrix(1 0 0 1 -66.45 -3.65)"><g><path fill="none" stroke="#000" stroke-opacity="0.251" stroke-width="2" stroke-linecap="round" stroke-linejoin="round" d="M152.2,18.3Q151.65,17.65 151.05,17 149.95,15.8 148.75,14.75 142.55,9.15 134.5,7.45 134.6,7.5 134.75,7.55 129.05,6 122.1,5.85 115.15,5.65 107.7,8.55 105.25,7.55 102,6 98.7,4.4 97.3,3.75 95.977,3.162 90.8,1.625 90.706,1.569 90.6,1.525 90.309,1.442 90,1.35 84.1,-0.4 70.5,0.15 69.5,0.2 68.5,0.25 64.65,0.5 62.1,1.15 49.2,4.65 46.1,11.5 45.5,11.1 43.45,10.65 39.3,9.75 25.95,10.75 12.55,11.75 4.85,20.75 0,26.4 0,34.45 0,37.55 1.95,42.55 4.55,49.2 9.3,54.4 13.65,59.1 20.8,62.75L30.25,66Q38.7,68.15 42.1,68.85 48.45,70.15 56.05,70.8 59.95,71.15 68.15,72.15 74.75,72.95 77.1,73.3 79.65,73.45 80.9,72.4 81.6,71.75 83.45,70 86.4,67.1 88.05,66 103.6,73.4 104.25,72.8 107.8,71.8 127.45,61.7 141.75,54.35 147.05,50.8 151.15,46.95 152.9,44.95 154.7,42.9 156.25,38.5 156.9,35.75 157,32.4 157.05,29.05 156.5,26.4 155.9,23.7 154.9,22.05 153.85,20.35 153.2,19.55 152.7,18.9 152.2,18.3"/><animate attributeName="display" repeatCount="1" dur="1.375s" keyTimes="0;0.333;1" values="none;inline;none"/></g><g style="display:none;"><path fill="none" stroke="#000" stroke-opacity="0.251" stroke-width="2" stroke-linecap="round" stroke-linejoin="round" d="M143.95,18.75Q143.45,18.1 142.85,17.45 141.8,16.3 140.6,15.25 134.696,9.887 127.05,8.2 121.5,6.7 114.75,6.55 108.794,6.372 102.4,8.6 97.757,4.496 90.6,1.525 90.309,1.442 90,1.35 84.1,-0.4 70.5,0.15 69.5,0.2 68.5,0.25 64.65,0.5 62.1,1.15 49.2,4.65 46.1,11.5 45.5,11.1 43.45,10.65 39.3,9.75 25.95,10.75 12.55,11.75 4.85,20.75 0,26.4 0,34.45 0,37.55 1.95,42.55 4.55,49.2 9.3,54.4 13.65,59.1 20.8,62.75L30.25,66Q38.7,68.15 42.1,68.85 48.45,70.15 56.05,70.8 59.95,71.15 68.15,72.15 74.75,72.95 77.1,73.3 79.65,73.45 80.9,72.4 81.6,71.75 83.45,70 84.946,68.529 86.1,67.525 96.944,72.606 97.45,72.1 100.9,71.1 119.95,61.25 133.85,54.05 138.95,50.55 142.95,46.8 144.65,44.85 146.4,42.85 147.9,38.5 148.5,35.85 148.6,32.55 148.65,29.25 148.15,26.7 147.55,24.05 146.6,22.4 145.55,20.75 144.95,19.95 144.45,19.35 143.95,18.75"/><animate attributeName="display" repeatCount="1" dur="1.375s" keyTimes="0;0.303;0.333;1" values="none;inline;none;none"/></g><g style="display:none;"><path fill="none" stroke="#000" stroke-opacity="0.251" stroke-width="2" stroke-linecap="round" stroke-linejoin="round" d="M134.7,17.9Q133.65,16.75 132.55,15.75 126.7,10.4 119.15,8.75 119.25,8.8 119.4,8.85 114,7.35 107.5,7.2 104.456,7.13 101.325,7.675 96.945,4.159 90.6,1.525 90.309,1.442 90,1.35 84.1,-0.4 70.5,0.15 69.5,0.2 68.5,0.25 64.65,0.5 62.1,1.15 49.2,4.65 46.1,11.5 45.5,11.1 43.45,10.65 39.3,9.75 25.95,10.75 12.55,11.75 4.85,20.75 0,26.4 0,34.45 0,37.55 1.95,42.55 4.55,49.2 9.3,54.4 13.65,59.1 20.8,62.75L30.25,66Q38.7,68.15 42.1,68.85 48.45,70.15 56.05,70.8 59.95,71.15 68.15,72.15 74.75,72.95 77.1,73.3 79.65,73.45 80.9,72.4 81.6,71.75 83.45,70 83.953,69.506 84.425,69.075 90.323,71.727 90.7,71.35 94.05,70.4 112.5,60.7 125.95,53.7 130.95,50.3 134.8,46.6 136.45,44.65 138.1,42.7 139.6,38.5 140.2,35.85 140.3,32.65 140.35,29.45 139.8,26.9 139.25,24.3 138.3,22.75 137.3,21.1 136.7,20.35 136.25,19.7 135.75,19.15 135.25,18.5 134.7,17.9"/><animate attributeName="display" repeatCount="1" dur="1.375s" keyTimes="0;0.273;0.303;1" values="none;inline;none;none"/></g><g style="display:none;"><path fill="none" stroke="#000" stroke-opacity="0.251" stroke-width="2" stroke-linecap="round" stroke-linejoin="round" d="M126.45,18.3Q125.45,17.2 124.35,16.2 118.783,11.027 111.6,9.45 111.556,9.438 111.5,9.425L111.4,9.4Q106.959,8.172 101.625,7.95 97.175,4.255 90.6,1.525 90.309,1.442 90,1.35 84.1,-0.4 70.5,0.15 69.5,0.2 68.5,0.25 64.65,0.5 62.1,1.15 49.2,4.65 46.1,11.5 45.5,11.1 43.45,10.65 39.3,9.75 25.95,10.75 12.55,11.75 4.85,20.75 0,26.4 0,34.45 0,37.55 1.95,42.55 4.55,49.2 9.3,54.4 13.65,59.1 20.8,62.75L30.25,66Q38.7,68.15 42.1,68.85 48.45,70.15 56.05,70.8 59.95,71.15 68.15,72.15 74.75,72.95 77.1,73.3 79.65,73.45 80.9,72.4 81.501,71.842 82.95,70.475 83.766,70.723 83.9,70.6 87.1,69.65 105,60.2 118,53.3 122.8,50 126.55,46.4 128.1,44.5 129.75,42.6 131.15,38.45 131.75,35.9 131.85,32.75 131.9,29.6 131.4,27.15 130.85,24.6 129.95,23.05 129,21.45 128.4,20.7 127.95,20.1 127.5,19.55 127,18.95 126.45,18.3"/><animate attributeName="display" repeatCount="1" dur="1.375s" keyTimes="0;0.242;0.273;1" values="none;inline;none;none"/></g><g style="display:none;"><path fill="none" stroke="#000" stroke-opacity="0.251" stroke-width="2" stroke-linecap="round" stroke-linejoin="round" d="M123,27.35Q122.5,24.9 121.6,23.35 120.7,21.8 120.1,21.1 119.7,20.5 119.25,19.95 118.75,19.35 118.25,18.75 117.25,17.65 116.2,16.7 110.837,11.633 103.925,10.05 98.987,5.007 90.6,1.525 90.309,1.442 90,1.35 84.1,-0.4 70.5,0.15 69.5,0.2 68.5,0.25 64.65,0.5 62.1,1.15 49.2,4.65 46.1,11.5 45.5,11.1 43.45,10.65 39.3,9.75 25.95,10.75 12.55,11.75 4.85,20.75 0,26.4 0,34.45 0,37.55 1.95,42.55 4.55,49.2 9.3,54.4 13.65,59.1 20.8,62.75L30.25,66Q38.7,68.15 42.1,68.85 48.45,70.15 56.05,70.8 59.95,71.15 68.15,72.15 74.75,72.95 77.1,73.3 79.65,73.45 80.9,72.4 81.6,71.75 83.45,70 86.4,67.1 88.05,66 89.481,64.608 90.825,63.225 93.844,61.655 97.5,59.7 110.05,52.95 114.7,49.7 118.3,46.2 119.85,44.35 121.45,42.45 122.8,38.45 123.35,35.9 123.45,32.85 123.5,29.8 123,27.35"/><animate attributeName="display" repeatCount="1" dur="1.375s" keyTimes="0;0.212;0.242;1" values="none;inline;none;none"/></g><g style="display:none;"><path fill="none" stroke="#000" stroke-opacity="0.251" stroke-width="2" stroke-linecap="round" stroke-linejoin="round" d="M110.1,19.15Q109.725,18.736 109.325,18.325 105.171,7.574 90.6,1.525 90.309,1.442 90,1.35 84.1,-0.4 70.5,0.15 69.5,0.2 68.5,0.25 64.65,0.5 62.1,1.15 49.2,4.65 46.1,11.5 45.5,11.1 43.45,10.65 39.3,9.75 25.95,10.75 12.55,11.75 4.85,20.75 0,26.4 0,34.45 0,37.55 1.95,42.55 4.55,49.2 9.3,54.4 13.65,59.1 20.8,62.75L30.25,66Q38.7,68.15 42.1,68.85 48.45,70.15 56.05,70.8 59.95,71.15 68.15,72.15 74.75,72.95 77.1,73.3 79.65,73.45 80.9,72.4 81.6,71.75 83.45,70 86.4,67.1 88.05,66 94.263,59.956 98.8,54.3 104.06,51.277 106.7,49.4 110.15,45.95 111.65,44.2 113.15,42.35 114.5,38.4 115.05,35.95 115.15,32.95 115.15,29.95 114.7,27.6 114.2,25.15 113.35,23.7 112.45,22.15 111.9,21.45 111.5,20.9 111.05,20.35 110.6,19.75 110.1,19.15"/><animate attributeName="display" repeatCount="1" dur="1.375s" keyTimes="0;0.182;0.212;1" values="none;inline;none;none"/></g><g style="display:none;"><path fill="none" stroke="#000" stroke-opacity="0.251" stroke-width="2" stroke-linecap="round" stroke-linejoin="round" d="M90.6,1.525Q90.309,1.442 90,1.35 84.1,-0.4 70.5,0.15 69.5,0.2 68.5,0.25 64.65,0.5 62.1,1.15 49.2,4.65 46.1,11.5 45.5,11.1 43.45,10.65 39.3,9.75 25.95,10.75 12.55,11.75 4.85,20.75 0,26.4 0,34.45 0,37.55 1.95,42.55 4.55,49.2 9.3,54.4 13.65,59.1 20.8,62.75L30.25,66Q38.7,68.15 42.1,68.85 48.45,70.15 56.05,70.8 59.95,71.15 68.15,72.15 74.75,72.95 77.1,73.3 79.65,73.45 80.9,72.4 81.6,71.75 83.45,70 86.4,67.1 88.05,66 114.968,39.816 110.2,21.05 106.959,8.316 90.6,1.525"/><animate attributeName="display" repeatCount="1" dur="1.375s" keyTimes="0;0.152;0.182;1" values="none;inline;none;none"/></g><g style="display:none;"><path fill="none" stroke="#000" stroke-opacity="0.251" stroke-width="2" stroke-linecap="round" stroke-linejoin="round" d="M110.2,21.05Q106.959,8.316 90.6,1.525 90.309,1.442 90,1.35 84.1,-0.4 70.5,0.15 69.5,0.2 68.5,0.25 64.65,0.5 62.1,1.15 49.2,4.65 46.1,11.5 45.5,11.1 43.45,10.65 39.3,9.75 25.95,10.75 12.55,11.75 4.85,20.75 0,26.4 0,34.45 0,37.55 1.95,42.55 4.55,49.2 9.3,54.4 13.65,59.1 20.8,62.75L30.25,66Q38.7,68.15 42.1,68.85 48.45,70.15 56.05,70.8 59.95,71.15 68.15,72.15 74.75,72.95 77.1,73.3 79.65,73.45 80.9,72.4 81.6,71.75 83.45,70 86.4,67.1 88.05,66 114.968,39.816 110.2,21.05"/><animate attributeName="display" repeatCount="1" dur="1.375s" keyTimes="0;0.152;1" values="inline;none;none"/></g><g><path fill="#FFF" d="M151.05,17Q149.95,15.8 148.75,14.75 142.55,9.15 134.5,7.45 134.6,7.5 134.75,7.55 129.05,6 122.1,5.85 115.15,5.65 107.7,8.55 105.25,7.55 102,6 98.7,4.4 97.3,3.75 95.977,3.162 90.8,1.625 90.706,1.569 90.6,1.525 90.309,1.442 90,1.35 84.1,-0.4 70.5,0.15 69.5,0.2 68.5,0.25 64.65,0.5 62.1,1.15 49.2,4.65 46.1,11.5 45.5,11.1 43.45,10.65 39.3,9.75 25.95,10.75 12.55,11.75 4.85,20.75 0,26.4 0,34.45 0,37.55 1.95,42.55 4.55,49.2 9.3,54.4 13.65,59.1 20.8,62.75L30.25,66Q38.7,68.15 42.1,68.85 48.45,70.15 56.05,70.8 59.95,71.15 68.15,72.15 74.75,72.95 77.1,73.3 79.65,73.45 80.9,72.4 81.6,71.75 83.45,70 86.4,67.1 88.05,66 103.6,73.4 104.25,72.8 107.8,71.8 127.45,61.7 141.75,54.35 147.05,50.8 151.15,46.95 152.9,44.95 154.7,42.9 156.25,38.5 156.9,35.75 157,32.4 157.05,29.05 156.5,26.4 155.9,23.7 154.9,22.05 153.85,20.35 153.2,19.55 152.7,18.9 152.2,18.3 151.65,17.65 151.05,17"/><animate attributeName="display" repeatCount="1" dur="1.375s" keyTimes="0;0.333;1" values="none;inline;none"/></g><g style="display:none;"><path fill="#FFF" d="M143.95,18.75Q143.45,18.1 142.85,17.45 141.8,16.3 140.6,15.25 134.696,9.887 127.05,8.2 121.5,6.7 114.75,6.55 108.794,6.372 102.4,8.6 97.757,4.496 90.6,1.525 90.309,1.442 90,1.35 84.1,-0.4 70.5,0.15 69.5,0.2 68.5,0.25 64.65,0.5 62.1,1.15 49.2,4.65 46.1,11.5 45.5,11.1 43.45,10.65 39.3,9.75 25.95,10.75 12.55,11.75 4.85,20.75 0,26.4 0,34.45 0,37.55 1.95,42.55 4.55,49.2 9.3,54.4 13.65,59.1 20.8,62.75L30.25,66Q38.7,68.15 42.1,68.85 48.45,70.15 56.05,70.8 59.95,71.15 68.15,72.15 74.75,72.95 77.1,73.3 79.65,73.45 80.9,72.4 81.6,71.75 83.45,70 84.946,68.529 86.1,67.525 96.944,72.606 97.45,72.1 100.9,71.1 119.95,61.25 133.85,54.05 138.95,50.55 142.95,46.8 144.65,44.85 146.4,42.85 147.9,38.5 148.5,35.85 148.6,32.55 148.65,29.25 148.15,26.7 147.55,24.05 146.6,22.4 145.55,20.75 144.95,19.95 144.45,19.35 143.95,18.75"/><animate attributeName="display" repeatCount="1" dur="1.375s" keyTimes="0;0.303;0.333;1" values="none;inline;none;none"/></g><g style="display:none;"><path fill="#FFF" d="M134.7,17.9Q133.65,16.75 132.55,15.75 126.7,10.4 119.15,8.75 119.25,8.8 119.4,8.85 114,7.35 107.5,7.2 104.456,7.13 101.325,7.675 96.945,4.159 90.6,1.525 90.309,1.442 90,1.35 84.1,-0.4 70.5,0.15 69.5,0.2 68.5,0.25 64.65,0.5 62.1,1.15 49.2,4.65 46.1,11.5 45.5,11.1 43.45,10.65 39.3,9.75 25.95,10.75 12.55,11.75 4.85,20.75 0,26.4 0,34.45 0,37.55 1.95,42.55 4.55,49.2 9.3,54.4 13.65,59.1 20.8,62.75L30.25,66Q38.7,68.15 42.1,68.85 48.45,70.15 56.05,70.8 59.95,71.15 68.15,72.15 74.75,72.95 77.1,73.3 79.65,73.45 80.9,72.4 81.6,71.75 83.45,70 83.953,69.506 84.425,69.075 90.323,71.727 90.7,71.35 94.05,70.4 112.5,60.7 125.95,53.7 130.95,50.3 134.8,46.6 136.45,44.65 138.1,42.7 139.6,38.5 140.2,35.85 140.3,32.65 140.35,29.45 139.8,26.9 139.25,24.3 138.3,22.75 137.3,21.1 136.7,20.35 136.25,19.7 135.75,19.15 135.25,18.5 134.7,17.9"/><animate attributeName="display" repeatCount="1" dur="1.375s" keyTimes="0;0.273;0.303;1" values="none;inline;none;none"/></g><g style="display:none;"><path fill="#FFF" d="M126.45,18.3Q125.45,17.2 124.35,16.2 118.783,11.027 111.6,9.45 111.556,9.438 111.5,9.425L111.4,9.4Q106.959,8.172 101.625,7.95 97.175,4.255 90.6,1.525 90.309,1.442 90,1.35 84.1,-0.4 70.5,0.15 69.5,0.2 68.5,0.25 64.65,0.5 62.1,1.15 49.2,4.65 46.1,11.5 45.5,11.1 43.45,10.65 39.3,9.75 25.95,10.75 12.55,11.75 4.85,20.75 0,26.4 0,34.45 0,37.55 1.95,42.55 4.55,49.2 9.3,54.4 13.65,59.1 20.8,62.75L30.25,66Q38.7,68.15 42.1,68.85 48.45,70.15 56.05,70.8 59.95,71.15 68.15,72.15 74.75,72.95 77.1,73.3 79.65,73.45 80.9,72.4 81.501,71.842 82.95,70.475 83.766,70.723 83.9,70.6 87.1,69.65 105,60.2 118,53.3 122.8,50 126.55,46.4 128.1,44.5 129.75,42.6 131.15,38.45 131.75,35.9 131.85,32.75 131.9,29.6 131.4,27.15 130.85,24.6 129.95,23.05 129,21.45 128.4,20.7 127.95,20.1 127.5,19.55 127,18.95 126.45,18.3"/><animate attributeName="display" repeatCount="1" dur="1.375s" keyTimes="0;0.242;0.273;1" values="none;inline;none;none"/></g><g style="display:none;"><path fill="#FFF" d="M123,27.35Q122.5,24.9 121.6,23.35 120.7,21.8 120.1,21.1 119.7,20.5 119.25,19.95 118.75,19.35 118.25,18.75 117.25,17.65 116.2,16.7 110.837,11.633 103.925,10.05 98.987,5.007 90.6,1.525 90.309,1.442 90,1.35 84.1,-0.4 70.5,0.15 69.5,0.2 68.5,0.25 64.65,0.5 62.1,1.15 49.2,4.65 46.1,11.5 45.5,11.1 43.45,10.65 39.3,9.75 25.95,10.75 12.55,11.75 4.85,20.75 0,26.4 0,34.45 0,37.55 1.95,42.55 4.55,49.2 9.3,54.4 13.65,59.1 20.8,62.75L30.25,66Q38.7,68.15 42.1,68.85 48.45,70.15 56.05,70.8 59.95,71.15 68.15,72.15 74.75,72.95 77.1,73.3 79.65,73.45 80.9,72.4 81.6,71.75 83.45,70 86.4,67.1 88.05,66 89.481,64.608 90.825,63.225 93.844,61.655 97.5,59.7 110.05,52.95 114.7,49.7 118.3,46.2 119.85,44.35 121.45,42.45 122.8,38.45 123.35,35.9 123.45,32.85 123.5,29.8 123,27.35"/><animate attributeName="display" repeatCount="1" dur="1.375s" keyTimes="0;0.212;0.242;1" values="none;inline;none;none"/></g><g style="display:none;"><path fill="#FFF" d="M110.1,19.15Q109.725,18.736 109.325,18.325 105.171,7.574 90.6,1.525 90.309,1.442 90,1.35 84.1,-0.4 70.5,0.15 69.5,0.2 68.5,0.25 64.65,0.5 62.1,1.15 49.2,4.65 46.1,11.5 45.5,11.1 43.45,10.65 39.3,9.75 25.95,10.75 12.55,11.75 4.85,20.75 0,26.4 0,34.45 0,37.55 1.95,42.55 4.55,49.2 9.3,54.4 13.65,59.1 20.8,62.75L30.25,66Q38.7,68.15 42.1,68.85 48.45,70.15 56.05,70.8 59.95,71.15 68.15,72.15 74.75,72.95 77.1,73.3 79.65,73.45 80.9,72.4 81.6,71.75 83.45,70 86.4,67.1 88.05,66 94.263,59.956 98.8,54.3 104.06,51.277 106.7,49.4 110.15,45.95 111.65,44.2 113.15,42.35 114.5,38.4 115.05,35.95 115.15,32.95 115.15,29.95 114.7,27.6 114.2,25.15 113.35,23.7 112.45,22.15 111.9,21.45 111.5,20.9 111.05,20.35 110.6,19.75 110.1,19.15"/><animate attributeName="display" repeatCount="1" dur="1.375s" keyTimes="0;0.182;0.212;1" values="none;inline;none;none"/></g><g style="display:none;"><path fill="#FFF" d="M90.6,1.525Q90.309,1.442 90,1.35 84.1,-0.4 70.5,0.15 69.5,0.2 68.5,0.25 64.65,0.5 62.1,1.15 49.2,4.65 46.1,11.5 45.5,11.1 43.45,10.65 39.3,9.75 25.95,10.75 12.55,11.75 4.85,20.75 0,26.4 0,34.45 0,37.55 1.95,42.55 4.55,49.2 9.3,54.4 13.65,59.1 20.8,62.75L30.25,66Q38.7,68.15 42.1,68.85 48.45,70.15 56.05,70.8 59.95,71.15 68.15,72.15 74.75,72.95 77.1,73.3 79.65,73.45 80.9,72.4 81.6,71.75 83.45,70 86.4,67.1 88.05,66 114.968,39.816 110.2,21.05 106.959,8.316 90.6,1.525"/><animate attributeName="display" repeatCount="1" dur="1.375s" keyTimes="0;0.152;0.152;0.182;1" values="inline;none;inline;none;none"/></g></g><g id="4" transform="matrix(1 0 0 1 -57.05 6.05)"><animateTransform attributeName="transform" additive="replace" type="translate" dur="1.375s" keyTimes="0;0.152;0.182;1" values="-23.499,35.089;-23.499,35.089;-17,34.95;-17,34.95"/><animateTransform attributeName="transform" additive="sum" type="skewY" dur="1.375s" keyTimes="0;0.152;0.182;1" values="2.415;2.415;0;0"/><animateTransform attributeName="transform" additive="sum" type="scale" dur="1.375s" keyTimes="0;0.152;0.182;1" values="0.845,0.777;0.845,0.777;1,1;1,1"/><animateTransform attributeName="transform" additive="sum" type="scale" dur="1.375s" keyTimes="0;0.181;0.182;1" values="0.999,1;0.999,1;1,1;1,1"/><animateTransform attributeName="transform" additive="sum" type="translate" dur="1.375s" keyTimes="0;0.152;0.182;1" values="-40.05,-29.1;-40.05,-29.1;-40.05,-28.9;-40.05,-28.9"/><path fill="#000" fill-opacity="0.247" d="M1.3,28.55Q1.25,28.4 1.15,28.25 1.2,28.55 1.3,28.8L1.3,28.55"/><path fill="#392524" d="M25.75,21.85Q25.75,22.95 25.75,23.3 25.75,24.05 25.6,24.35 25.85,24.4 25.95,24.4 26.6,24.4 30.2,22.8 30.7,22.5 30.7,21.05 30.7,19.7 30.65,19.65 29.95,19.3 29,19.75 28.05,20.1 25.95,21.35 26.15,21.85 25.75,21.6 25.75,21.7 25.75,21.85"/><path fill="#392524" d="M25.7,21.55L25.65,21.5 25.6,21.55Q25.5,21.65 25.45,21.85 25.4,21.95 25.4,22L25.7,21.55"/><path fill="#FFF" d="M22.5,16.55Q22.55,16.75 22.75,17.15 23.55,18.65 24.3,19.9 25.05,21 25.65,21.5L25.7,21.55Q25.75,21.55 25.75,21.6 26.15,21.85 25.95,21.35 25.9,21.2 25.85,21.1 25.4,20.25 24.85,19.4 24.25,18.5 23.1,17.05 22.25,16 22.5,16.55"/><path fill="#3D2016" d="M22.75,17.15Q22.55,16.75 22.5,16.55 22.35,16.4 22.25,16.2 21.7,18.35 21.85,18.8 22.05,19.3 23.6,21.6 25.1,23.85 25.6,24.35 25.75,24.05 25.75,23.3 25.75,22.95 25.75,21.85 25.75,21.7 25.75,21.6 25.75,21.55 25.7,21.55L25.4,22Q25.4,21.95 25.45,21.85 25.5,21.65 25.6,21.55L25.65,21.5Q25.05,21 24.3,19.9 23.55,18.65 22.75,17.15"/><path fill="#502A1D" d="M25.75,14.6Q25.55,14.6 25.4,14.7L24.1,15.35 22.25,16.2Q22.35,16.4 22.5,16.55 22.25,16 23.1,17.05 24.25,18.5 24.85,19.4 25.4,20.25 25.85,21.1 25.9,21.2 25.95,21.35 28.05,20.1 29,19.75 29.95,19.3 30.65,19.65 30.6,19 28.8,16.45 27.2,14.2 25.75,14.6"/><path fill="#392524" d="M21.45,10.85Q20.95,11.15 20.6,11.75 20.15,12.55 20.15,13.4 20.15,15.35 23.65,15.35 23.85,15.35 24.1,15.35L25.4,14.7Q25.55,14.6 25.75,14.6 26.2,14 26.2,13 26.2,12.3 25.8,11.6 25.4,11 24.8,10.7 24.15,10.35 23.25,10.35 22.15,10.35 21.45,10.85"/><path fill="#392524" d="M22.2,11.2Q22.2,10.55 21.55,11 20.9,11.4 20.9,11.8 20.9,11.9 20.95,11.95 20.85,12.2 20.85,12.45 20.85,13 21.25,13 21.55,13 22.15,11.6 22.15,11.55 22.15,11.5 22.2,11.3 22.2,11.2"/><path fill="#392524" d="M25.75,12.9Q25.75,12.3 25.35,12.3 25.15,12.3 25.05,12.45 24.6,12.45 24.6,12.8 24.6,13.3 25.05,13.3 25.15,13.5 25.35,13.5 25.75,13.5 25.75,12.9"/><path fill="#FFF" d="M25.05,13.3Q25.2,13.3 25.3,13.15 25.45,13 25.45,12.9 25.45,12.45 25.05,12.45 24.6,12.45 24.6,12.8 24.6,13.3 25.05,13.3"/><path fill="#502A1D" d="M25.35,13.5Q25.75,13.5 25.75,12.9 25.75,12.3 25.35,12.3 25.15,12.3 25.05,12.45 25.45,12.45 25.45,12.9 25.45,13 25.3,13.15 25.2,13.3 25.05,13.3 25.15,13.5 25.35,13.5"/><path fill="#502A1D" d="M21.3,12.25Q21,12.25 20.95,11.95 20.85,12.2 20.85,12.45 20.85,13 21.25,13 21.55,13 22.15,11.6 22.15,11.55 22.15,11.5 21.9,11.7 21.3,12.25"/><path fill="#FFF" d="M22.15,11.5Q22.2,11.3 22.2,11.2 22.2,10.55 21.55,11 20.9,11.4 20.9,11.8 20.9,11.9 20.95,11.95 21,12.25 21.3,12.25 21.9,11.7 22.15,11.5"/><path fill="#000" fill-opacity="0.247" d="M80.1,39.9L68.9,57.8Q68.55,57.8 68.15,57.75 40.55,56.25 16.4,47.4 9.95,45 6,39.05L5.85,38.65Q10.4,44.35 24.25,49.45 39.55,55.1 67.1,56.15 67.5,56.2 67.85,56.2L78.85,38.65 80.1,39.9"/><path fill="#941B24" d="M66.55,48.55Q66.5,49.1 63.55,48.8 60.65,48.5 46.55,47.3 32.35,46.1 16.15,39 5.7,34.45 2.15,29.75 1.95,29.5 1.8,29.3L5,37.45Q5.35,38.05 5.85,38.65 10.4,44.35 24.25,49.45 39.55,55.1 67.1,56.15L66.55,48.55"/><path fill="#70141B" d="M75.45,34.55L75.3,34.4Q72.05,41.35 66.55,48.55L67.1,56.15Q67.5,56.2 67.85,56.2L78.85,38.65 79.05,38.3 75.45,34.55"/><path fill="#CD3F4D" d="M75.3,34.4L74.2,33.4Q73.9,34.35 73.5,35.25 69.45,44.55 66.2,47.75 64.65,48 49.25,46.4 33.8,44.75 19.8,38.9 5.7,32.9 3.65,28.95 1.15,25.65 1.1,23.55 1.1,23.45 1.1,23.35 1.55,5.75 36.8,8.95 29.95,7.8 24.5,7.85 2.95,7.6 0.2,21.35 -0.3,23.9 0.55,26.75 0.8,27.5 1.15,28.25 1.25,28.4 1.3,28.55 1.55,28.9 1.8,29.3 1.95,29.5 2.15,29.75 5.7,34.45 16.15,39 32.35,46.1 46.55,47.3 60.65,48.5 63.55,48.8 66.5,49.1 66.55,48.55 72.05,41.35 75.3,34.4"/><path fill="#000" fill-opacity="0.247" d="M76,9.95Q80.25,15.6 78.3,24.5 77.2,29.75 75.45,34.55L75.3,34.4 74.2,33.4Q76.1,28.4 77.3,22.9 78.95,15.2 76,9.95"/><path fill="#87232D" d="M72.7,8.05L73.825,7.025Q70.821,3.832 65.6,1.8 60.75,-0.15 56.15,0 46.7,0.2 38.5,9 38.4,9.05 38.35,9.15 37.6,9 36.8,8.95 1.55,5.75 1.1,23.35 1.1,23.45 1.1,23.55 1.15,25.65 3.65,28.95 2.25,12.45 21.45,10.85 22.15,10.35 23.25,10.35 24.15,10.35 24.8,10.7 30.9,10.55 38.85,11.75 39.3,11.1 39.75,10.45 44.55,3.85 52.3,2.35 54.1,2 56.05,1.9 64.38,1.365 72.7,8.05"/><path fill="#E7C2D1" d="M73.825,7.025L72.7,8.05Q64.38,1.365 56.05,1.9 54.1,2 52.3,2.35 44.55,3.85 39.75,10.45 39.3,11.1 38.85,11.75 30.9,10.55 24.8,10.7 25.4,11 25.8,11.6 26.2,12.3 26.2,13 26.2,14 25.75,14.6 27.2,14.2 28.8,16.45 30.6,19 30.65,19.65 30.7,19.7 30.7,21.05 30.7,22.5 30.2,22.8 26.6,24.4 25.95,24.4 25.85,24.4 25.6,24.35 25.1,23.85 23.6,21.6 22.05,19.3 21.85,18.8 21.7,18.35 22.25,16.2L24.1,15.35Q23.85,15.35 23.65,15.35 20.15,15.35 20.15,13.4 20.15,12.55 20.6,11.75 20.95,11.15 21.45,10.85 2.25,12.45 3.65,28.95 5.7,32.9 19.8,38.9 33.8,44.75 49.25,46.4 64.65,48 66.2,47.75 69.45,44.55 73.5,35.25 73.9,34.35 74.2,33.4 76.1,28.4 77.3,22.9 78.95,15.2 76,9.95 75.118,8.379 73.825,7.025"/><path fill="#392524" d="M53.8,5.85Q53.8,5.15 53.4,4.45 52.55,3.25 50.85,3.25 49,3.25 48.2,4.7 47.7,5.45 47.7,6.3 47.7,8.2 51.25,8.2 53.8,8.2 53.8,5.85"/><path fill="#392524" d="M41.35,9.6Q40.95,10.4 40.95,11.25 40.95,13.2 44.45,13.2 47,13.2 47,10.85 47,10.15 46.6,9.45 45.75,8.2 44.05,8.2 42.2,8.2 41.35,9.6"/><path fill="#E7C2D1" d="M51.45,18Q50.85,20.1 51.05,20.65 51.25,21.05 52.8,23.35 54.25,25.6 54.75,26.1 55.05,26.15 55.15,26.15 55.8,26.15 59.4,24.55 59.9,24.3 59.9,22.9 59.9,21.45 59.85,21.4 59.8,20.75 58,18.3 56.15,15.7 54.55,16.45L51.45,18"/><path fill="#E7C2D1" d="M58.5,26.45Q58.4,29.15 58.65,29.75 58.9,30.35 59.65,31.25 60.35,32.05 60.55,32.35 60.7,32.4 60.8,32.55 60.85,32.6 60.9,32.6 61,32.6 61.15,32.6 61.85,32.6 64.95,31.5 66.45,30.7 66.3,29.3 66.15,27.85 65.9,27.8 65.8,27.25 64.95,26.1 63.95,24.7 62.9,24.7 61.5,25.2 60.45,25.6L58.5,26.45"/><path fill="#E7C2D1" d="M55.8,28.6Q54.7,27.25 53.75,27.25 52.25,27.7 51.25,28.15L49.35,28.95Q49.25,31.7 49.5,32.25 49.7,32.85 50.45,33.75 51.15,34.55 51.4,34.9 51.55,34.95 51.65,35.05 51.7,35.1 51.75,35.1 51.85,35.1 51.95,35.1 52.65,35.1 55.8,34.05 57.25,33.25 57.1,31.85 56.9,30.4 56.65,30.35 56.6,29.7 55.8,28.6"/><path fill="#E7C2D1" d="M56.5,34.35L54.6,35.15Q54.5,37.9 54.75,38.55 55.05,39.05 55.75,40 56.4,40.85 56.65,41.1 56.8,41.15 56.9,41.25 56.95,41.3 57.05,41.3 57.15,41.3 57.3,41.3 57.95,41.3 61.05,40.25 62.55,39.45 62.4,38.05 62.25,36.6 62,36.55 61.95,35.95 61.05,34.85 60.05,33.45 59,33.45 57.6,34 56.5,34.35"/><path fill="#E7C2D1" d="M44.85,26Q44.8,25.35 43,22.9 41.15,20.3 39.6,21.05L36.45,22.6Q35.85,24.7 36.05,25.2 36.25,25.7 37.8,28 39.25,30.25 39.8,30.7 40.05,30.75 40.15,30.75 40.8,30.75 44.4,29.15 44.9,28.9 44.9,27.45 44.9,26.05 44.85,26"/><path fill="#E7C2D1" d="M42.65,36.7Q43.3,37.55 43.55,37.9 43.7,37.95 43.85,38.05 43.9,38.1 43.95,38.1 44.05,38.1 44.2,38.1 44.85,38.1 47.95,37 49.45,36.25 49.3,34.8 49.15,33.4 48.9,33.35 48.85,32.7 47.95,31.6 46.95,30.2 45.9,30.2 44.5,30.7 43.4,31.15L41.5,31.95Q41.4,34.6 41.7,35.25 41.95,35.85 42.65,36.7"/><path fill="#E7C2D1" d="M47.2,38.65L45.3,39.4Q45.2,42.1 45.4,42.75 45.65,43.3 46.4,44.2 47.1,45.05 47.35,45.4 47.5,45.45 47.55,45.5 47.6,45.55 47.65,45.55 47.75,45.55 47.9,45.55 48.6,45.55 51.75,44.45 53.2,43.65 53.05,42.3 52.9,40.9 52.65,40.85 52.55,40.2 51.75,39.05 50.7,37.65 49.7,37.65 48.25,38.2 47.2,38.65"/><path fill="#392524" d="M60.4,42.25Q59.9,43.15 59.9,44.1 59.9,46.3 63.9,46.3 66.85,46.3 66.85,43.55 66.85,42.8 66.35,42 65.4,40.6 63.4,40.6 61.25,40.6 60.4,42.25"/><path fill="#E7C2D1" d="M63.45,32.5Q63.35,35.2 63.6,35.85 63.9,36.45 64.6,37.3 65.25,38.15 65.5,38.5 65.65,38.55 65.75,38.65 65.8,38.7 65.9,38.7 66,38.7 66.15,38.7 66.8,38.7 69.9,37.55 71.35,36.75 71.2,35.35 71.1,34 70.85,33.9 70.8,33.3 69.9,32.15 68.9,30.75 67.85,30.75 66.45,31.3 65.35,31.75L63.45,32.5"/><path fill="#E7C2D1" d="M20.4,20.7Q18.6,18.15 17,18.9L13.85,20.45Q13.25,22.5 13.45,23 13.65,23.5 15.25,25.8 16.7,28.05 17.25,28.5 17.5,28.55 17.55,28.55 18.2,28.55 21.8,26.95 22.3,26.7 22.3,25.25 22.3,23.85 22.25,23.8 22.2,23.15 20.4,20.7"/><path fill="#E7C2D1" d="M39.65,16.8Q39.6,16.2 37.8,13.7 36,11.1 34.4,11.85L31.25,13.4Q30.65,15.5 30.85,16.05 31.05,16.45 32.55,18.75 34.1,21 34.6,21.5 34.8,21.55 34.95,21.55 35.6,21.55 39.15,19.95 39.7,19.7 39.7,18.3 39.7,16.85 39.65,16.8"/><path fill="#392524" d="M4.7,21.4Q4.25,22.3 4.25,23.25 4.25,25.45 8.2,25.45 11.15,25.45 11.15,22.8 11.15,22 10.7,21.2 9.75,19.8 7.75,19.8 5.6,19.8 4.7,21.4"/><path fill="#392524" d="M15.85,16.3Q15.85,15.65 15.45,14.9 14.65,13.75 12.95,13.75 11.05,13.75 10.25,15.15 9.8,15.95 9.8,16.75 9.8,18.65 13.3,18.65 15.85,18.65 15.85,16.3"/><path fill="#392524" d="M14.65,29.85Q14.65,29.1 14.15,28.3 13.25,26.9 11.25,26.9 9.1,26.9 8.2,28.5 7.7,29.45 7.7,30.4 7.7,32.6 11.7,32.6 14.65,32.6 14.65,29.85"/><path fill="#392524" d="M19.6,31.4Q17.45,31.4 16.5,33 16,33.9 16,34.9 16,37.1 20,37.1 22.95,37.1 22.95,34.35 22.95,33.6 22.45,32.8 21.55,31.4 19.6,31.4"/><path fill="#E7C2D1" d="M35.05,28.7Q35,28.05 33.2,25.5 31.4,22.95 29.8,23.75L26.65,25.25Q26.1,27.4 26.25,27.85 26.45,28.35 28,30.65 29.5,32.9 30,33.4 30.25,33.45 30.35,33.45 31,33.45 34.6,31.85 35.1,31.55 35.1,30.1 35.1,28.75 35.05,28.7"/><path fill="#E7C2D1" d="M31.95,35.9Q31.85,38.65 31.9,39.15 31.95,39.7 32.8,40.75 33.65,41.65 34,41.85 34.15,41.9 34.25,42 34.3,42.05 34.35,42.05 34.45,42.05 34.6,42.05 35.25,42.05 38.4,40.95 39.85,40.2 39.7,38.75 39.55,37.35 39.25,37.3 39.2,36.65 38.4,35.6 37.35,34.2 36.35,34.2 34.85,34.65 33.85,35.1L31.95,35.9"/><path fill="#392524" d="M39.7,38.75Q39.55,37.35 39.25,37.3 38.6,37 37.65,37.4 36.65,37.8 34.45,39.05 34.3,39.15 34.25,39.25 34.15,39.35 34.1,39.55 34.05,39.6 34.05,39.65L34.4,39.1Q34.4,39.35 34.4,39.55 34.4,40.65 34.4,41 34.4,41.75 34,41.85 34.15,41.9 34.25,42 34.3,42.05 34.35,42.05 34.45,42.05 34.6,42.05 35.25,42.05 38.4,40.95 39.85,40.2 39.7,38.75"/><path fill="#FFF" d="M38.6,38.05Q38.95,37.8 38.95,37.6 38.95,37.25 38.6,37.25 38.3,37.25 37.9,37.45 37.5,37.65 37.5,37.9 37.5,38.3 37.85,38.3 38.15,38.3 38.6,38.05"/><path fill="#3D2016" d="M32.35,36.55Q32.35,36.45 32.4,36.4 32.15,36.1 31.95,35.9 31.85,38.65 31.9,39.15 31.95,39.7 32.8,40.75 33.65,41.65 34,41.85 34.4,41.75 34.4,41 34.4,40.65 34.4,39.55 34.4,39.35 34.4,39.1L34.05,39.65Q34.05,39.6 34.1,39.55 34.15,39.35 34.25,39.25 34.3,39.15 34.45,39.05 34.3,38.8 33.9,38.4 33.8,38.5 33.65,38.5 33.45,38.5 32.9,37.55 32.35,36.65 32.35,36.55"/><path fill="#FFF" d="M33.5,37.1Q32.9,36.25 32.75,36.25 32.45,36.25 32.4,36.4 32.35,36.45 32.35,36.55 32.35,36.65 32.9,37.55 33.45,38.5 33.65,38.5 33.8,38.5 33.9,38.4 34,38.25 34.05,38.05 34.05,37.95 33.5,37.1"/><path fill="#502A1D" d="M32.75,36.25Q32.9,36.25 33.5,37.1 34.05,37.95 34.05,38.05 34,38.25 33.9,38.4 34.3,38.8 34.45,39.05 36.65,37.8 37.65,37.4 38.6,37 39.25,37.3 39.2,36.65 38.4,35.6 37.35,34.2 36.35,34.2 34.85,34.65 33.85,35.1L31.95,35.9Q32.15,36.1 32.4,36.4 32.45,36.25 32.75,36.25"/><path fill="#392524" d="M30.05,30.55L30,30.6Q29.9,30.7 29.85,30.95 29.8,31 29.8,31.05L30.1,30.6 30.05,30.55"/><path fill="#3D2016" d="M27.15,26.2Q26.95,25.8 26.9,25.6 26.75,25.45 26.65,25.25 26.1,27.4 26.25,27.85 26.45,28.35 28,30.65 29.5,32.9 30,33.4 30.15,33.1 30.15,32.35 30.15,32 30.15,30.95 30.15,30.8 30.15,30.65L30.1,30.6 29.8,31.05Q29.8,31 29.85,30.95 29.9,30.7 30,30.6L30.05,30.55Q29.45,30.05 28.7,28.95 27.95,27.7 27.15,26.2"/><path fill="#FFF" d="M27.5,26.1Q26.65,25.05 26.9,25.6 26.95,25.8 27.15,26.2 27.95,27.7 28.7,28.95 29.45,30.05 30.05,30.55L30.1,30.6 30.15,30.65Q30.55,30.95 30.35,30.4 30.3,30.3 30.25,30.2 29.8,29.3 29.25,28.45 28.65,27.55 27.5,26.1"/><path fill="#502A1D" d="M35.05,28.7Q35,28.05 33.2,25.5 31.4,22.95 29.8,23.75L26.65,25.25Q26.75,25.45 26.9,25.6 26.65,25.05 27.5,26.1 28.65,27.55 29.25,28.45 29.8,29.3 30.25,30.2 30.3,30.3 30.35,30.4 32.45,29.15 33.4,28.8 34.35,28.35 35.05,28.7"/><path fill="#392524" d="M35.1,30.1Q35.1,28.75 35.05,28.7 34.35,28.35 33.4,28.8 32.45,29.15 30.35,30.4 30.55,30.95 30.15,30.65 30.15,30.8 30.15,30.95 30.15,32 30.15,32.35 30.15,33.1 30,33.4 30.25,33.45 30.35,33.45 31,33.45 34.6,31.85 35.1,31.55 35.1,30.1"/><path fill="#392524" d="M18.35,32.35Q18.35,31.7 17.6,32.1 16.85,32.55 16.85,33.05 16.85,33.15 16.9,33.3 16.8,33.5 16.8,33.8 16.8,34.4 17.3,34.4 17.6,34.4 18.25,32.75 18.25,32.7 18.25,32.65 18.35,32.5 18.35,32.35"/><path fill="#392524" d="M21.6,33.8Q21.1,33.8 21.1,34.2 21.1,34.75 21.6,34.75 21.75,35 21.95,35 22.4,35 22.4,34.25 22.4,33.6 21.95,33.6 21.75,33.6 21.6,33.8"/><path fill="#FFF" d="M21.9,34.55Q22.05,34.4 22.05,34.25 22.05,33.8 21.6,33.8 21.1,33.8 21.1,34.2 21.1,34.75 21.6,34.75 21.8,34.75 21.9,34.55"/><path fill="#502A1D" d="M21.95,33.6Q21.75,33.6 21.6,33.8 22.05,33.8 22.05,34.25 22.05,34.4 21.9,34.55 21.8,34.75 21.6,34.75 21.75,35 21.95,35 22.4,35 22.4,34.25 22.4,33.6 21.95,33.6"/><path fill="#502A1D" d="M18.25,32.75Q18.25,32.7 18.25,32.65 18,32.9 17.35,33.55 16.95,33.55 16.9,33.3 16.8,33.5 16.8,33.8 16.8,34.4 17.3,34.4 17.6,34.4 18.25,32.75"/><path fill="#FFF" d="M18.25,32.65Q18.35,32.5 18.35,32.35 18.35,31.7 17.6,32.1 16.85,32.55 16.85,33.05 16.85,33.15 16.9,33.3 16.95,33.55 17.35,33.55 18,32.9 18.25,32.65"/><path fill="#392524" d="M13.3,29.3Q12.85,29.3 12.85,29.7 12.85,30.25 13.3,30.25 13.4,30.5 13.65,30.5 14.1,30.5 14.1,29.75 14.1,29.1 13.65,29.1 13.4,29.1 13.3,29.3"/><path fill="#392524" d="M10.05,27.85Q10.05,27.2 9.3,27.6 8.6,28.05 8.6,28.55 8.6,28.7 8.65,28.8 8.55,29 8.55,29.3 8.55,29.9 8.95,29.9 9.3,29.9 9.95,28.25 9.95,28.2 9.95,28.15 10.05,28 10.05,27.85"/><path fill="#FFF" d="M9,29.05Q9.7,28.4 9.95,28.15 10.05,28 10.05,27.85 10.05,27.2 9.3,27.6 8.6,28.05 8.6,28.55 8.6,28.7 8.65,28.8 8.7,29.05 9,29.05"/><path fill="#502A1D" d="M9.95,28.15Q9.7,28.4 9,29.05 8.7,29.05 8.65,28.8 8.55,29 8.55,29.3 8.55,29.9 8.95,29.9 9.3,29.9 9.95,28.25 9.95,28.2 9.95,28.15"/><path fill="#FFF" d="M13.3,30.25Q13.45,30.25 13.6,30.05 13.75,29.9 13.75,29.75 13.75,29.3 13.3,29.3 12.85,29.3 12.85,29.7 12.85,30.25 13.3,30.25"/><path fill="#502A1D" d="M13.65,29.1Q13.4,29.1 13.3,29.3 13.75,29.3 13.75,29.75 13.75,29.9 13.6,30.05 13.45,30.25 13.3,30.25 13.4,30.5 13.65,30.5 14.1,30.5 14.1,29.75 14.1,29.1 13.65,29.1"/><path fill="#392524" d="M11.2,14.3Q10.6,14.7 10.6,15.2 10.6,15.3 10.65,15.35 10.5,15.55 10.5,15.8 10.5,16.3 10.95,16.3 11.2,16.3 11.8,14.9 11.8,14.85 11.8,14.8 11.85,14.65 11.85,14.55 11.85,13.95 11.2,14.3"/><path fill="#392524" d="M14.25,16.2Q14.25,16.65 14.7,16.65 14.8,16.85 15.05,16.85 15.4,16.85 15.4,16.2 15.4,15.65 15.05,15.65 14.8,15.65 14.7,15.8 14.25,15.8 14.25,16.2"/><path fill="#502A1D" d="M14.95,16.45Q14.85,16.65 14.7,16.65 14.8,16.85 15.05,16.85 15.4,16.85 15.4,16.2 15.4,15.65 15.05,15.65 14.8,15.65 14.7,15.8 15.15,15.8 15.15,16.2 15.15,16.3 14.95,16.45"/><path fill="#FFF" d="M14.7,15.8Q14.25,15.8 14.25,16.2 14.25,16.65 14.7,16.65 14.85,16.65 14.95,16.45 15.15,16.3 15.15,16.2 15.15,15.8 14.7,15.8"/><path fill="#502A1D" d="M11.8,14.9Q11.8,14.85 11.8,14.8 11.55,15 11,15.6 10.7,15.6 10.65,15.35 10.5,15.55 10.5,15.8 10.5,16.3 10.95,16.3 11.2,16.3 11.8,14.9"/><path fill="#FFF" d="M11.85,14.55Q11.85,13.95 11.2,14.3 10.6,14.7 10.6,15.2 10.6,15.3 10.65,15.35 10.7,15.6 11,15.6 11.55,15 11.8,14.8 11.85,14.65 11.85,14.55"/><path fill="#392524" d="M6.5,21Q6.6,20.85 6.6,20.75 6.6,20.05 5.8,20.55 5.05,20.9 5.05,21.45 5.05,21.55 5.1,21.65 5,21.85 5,22.2 5,22.85 5.45,22.85 5.8,22.85 6.5,21.1 6.5,21.05 6.5,21"/><path fill="#392524" d="M9.8,23.1Q9.9,23.35 10.15,23.35 10.65,23.35 10.65,22.7 10.65,22 10.15,22 9.9,22 9.8,22.2 9.3,22.2 9.3,22.6 9.3,23.1 9.8,23.1"/><path fill="#502A1D" d="M10.1,22.95Q9.95,23.1 9.8,23.1 9.9,23.35 10.15,23.35 10.65,23.35 10.65,22.7 10.65,22 10.15,22 9.9,22 9.8,22.2 10.25,22.2 10.25,22.7 10.25,22.85 10.1,22.95"/><path fill="#FFF" d="M9.3,22.6Q9.3,23.1 9.8,23.1 9.95,23.1 10.1,22.95 10.25,22.85 10.25,22.7 10.25,22.2 9.8,22.2 9.3,22.2 9.3,22.6"/><path fill="#FFF" d="M6.6,20.75Q6.6,20.05 5.8,20.55 5.05,20.9 5.05,21.45 5.05,21.55 5.1,21.65 5.15,21.95 5.5,21.95 6.25,21.3 6.5,21 6.6,20.85 6.6,20.75"/><path fill="#502A1D" d="M6.5,21.1Q6.5,21.05 6.5,21 6.25,21.3 5.5,21.95 5.15,21.95 5.1,21.65 5,21.85 5,22.2 5,22.85 5.45,22.85 5.8,22.85 6.5,21.1"/><path fill="#392524" d="M34.45,19.05L34.7,18.7 34.65,18.65Q34.65,18.7 34.6,18.7 34.5,18.8 34.45,19.05"/><path fill="#FFF" d="M31.55,13.85Q31.6,14 31.75,14.3 32.5,15.9 33.3,17.05 34.05,18.25 34.65,18.65L34.7,18.7Q35.2,19.1 34.9,18.5 34.85,18.4 34.8,18.35 34.4,17.45 33.85,16.55 33.25,15.7 32.1,14.2 31.15,13 31.55,13.85"/><path fill="#3D2016" d="M31.75,14.3Q31.6,14 31.55,13.85 31.4,13.65 31.25,13.4 30.65,15.5 30.85,16.05 31.05,16.45 32.55,18.75 34.1,21 34.6,21.5 34.7,21.25 34.7,20.55 34.7,20.15 34.7,19.05 34.7,18.85 34.7,18.7L34.45,19.05Q34.5,18.8 34.6,18.7 34.65,18.7 34.65,18.65 34.05,18.25 33.3,17.05 32.5,15.9 31.75,14.3"/><path fill="#502A1D" d="M39.65,16.8Q39.6,16.2 37.8,13.7 36,11.1 34.4,11.85L31.25,13.4Q31.4,13.65 31.55,13.85 31.15,13 32.1,14.2 33.25,15.7 33.85,16.55 34.4,17.45 34.8,18.35 34.85,18.4 34.9,18.5 37,17.25 38,16.9 38.95,16.45 39.65,16.8"/><path fill="#392524" d="M39.7,18.3Q39.7,16.85 39.65,16.8 38.95,16.45 38,16.9 37,17.25 34.9,18.5 35.2,19.1 34.7,18.7 34.7,18.85 34.7,19.05 34.7,20.15 34.7,20.55 34.7,21.25 34.6,21.5 34.8,21.55 34.95,21.55 35.6,21.55 39.15,19.95 39.7,19.7 39.7,18.3"/><path fill="#392524" d="M17.05,26.05Q17,26.1 17,26.15L17.35,25.75 17.3,25.7 17.25,25.75Q17.1,25.85 17.05,26.05"/><path fill="#FFF" d="M14.15,20.9Q14.2,21.05 14.35,21.35 15.2,22.9 15.9,24.05 16.65,25.2 17.3,25.7L17.35,25.75 17.4,25.8Q17.75,26.05 17.6,25.5 17.55,25.4 17.5,25.3 17,24.45 16.45,23.6 15.85,22.75 14.7,21.25 13.75,20.05 14.15,20.9"/><path fill="#3D2016" d="M14.15,20.9Q14,20.7 13.85,20.45 13.25,22.5 13.45,23 13.65,23.5 15.25,25.8 16.7,28.05 17.25,28.5 17.4,28.25 17.4,27.5 17.4,27.2 17.4,26.05 17.4,25.9 17.4,25.8L17.35,25.75 17,26.15Q17,26.1 17.05,26.05 17.1,25.85 17.25,25.75L17.3,25.7Q16.65,25.2 15.9,24.05 15.2,22.9 14.35,21.35 14.2,21.05 14.15,20.9"/><path fill="#392524" d="M22.25,23.8Q21.55,23.5 20.6,23.9 19.7,24.3 17.6,25.5 17.75,26.05 17.4,25.8 17.4,25.9 17.4,26.05 17.4,27.2 17.4,27.5 17.4,28.25 17.25,28.5 17.5,28.55 17.55,28.55 18.2,28.55 21.8,26.95 22.3,26.7 22.3,25.25 22.3,23.85 22.25,23.8"/><path fill="#502A1D" d="M22.25,23.8Q22.2,23.15 20.4,20.7 18.6,18.15 17,18.9L13.85,20.45Q14,20.7 14.15,20.9 13.75,20.05 14.7,21.25 15.85,22.75 16.45,23.6 17,24.45 17.5,25.3 17.55,25.4 17.6,25.5 19.7,24.3 20.6,23.9 21.55,23.5 22.25,23.8"/><path fill="#392524" d="M65.75,35.85Q65.65,35.95 65.6,36.15 65.55,36.25 65.55,36.3L65.95,35.75Q65.95,35.95 65.95,36.15 65.95,37.25 65.95,37.6 65.95,38.35 65.5,38.5 65.65,38.55 65.75,38.65 65.8,38.7 65.9,38.7 66,38.7 66.15,38.7 66.8,38.7 69.9,37.55 71.35,36.75 71.2,35.35 71.1,34 70.85,33.9 70.1,33.6 69.15,34.05 68.2,34.35 66,35.7 65.8,35.8 65.75,35.85"/><path fill="#FFF" d="M70.1,34.6Q70.55,34.35 70.55,34.2 70.55,33.85 70.1,33.85 69.8,33.85 69.4,34.1 69.05,34.25 69.05,34.45 69.05,34.9 69.35,34.9 69.65,34.9 70.1,34.6"/><path fill="#502A1D" d="M63.45,32.5Q63.7,32.7 63.95,33 64,32.8 64.3,32.8 64.45,32.8 65,33.7 65.55,34.5 65.55,34.6 65.45,34.85 65.35,34.95 65.8,35.35 66,35.7 68.2,34.35 69.15,34.05 70.1,33.6 70.85,33.9 70.8,33.3 69.9,32.15 68.9,30.75 67.85,30.75 66.45,31.3 65.35,31.75L63.45,32.5"/><path fill="#FFF" d="M63.95,33Q63.9,33.05 63.9,33.15 63.9,33.3 64.45,34.2 64.95,35.05 65.15,35.05 65.25,35.05 65.35,34.95 65.45,34.85 65.55,34.6 65.55,34.5 65,33.7 64.45,32.8 64.3,32.8 64,32.8 63.95,33"/><path fill="#3D2016" d="M63.9,33.15Q63.9,33.05 63.95,33 63.7,32.7 63.45,32.5 63.35,35.2 63.6,35.85 63.9,36.45 64.6,37.3 65.25,38.15 65.5,38.5 65.95,38.35 65.95,37.6 65.95,37.25 65.95,36.15 65.95,35.95 65.95,35.75L65.55,36.3Q65.55,36.25 65.6,36.15 65.65,35.95 65.75,35.85 65.8,35.8 66,35.7 65.8,35.35 65.35,34.95 65.25,35.05 65.15,35.05 64.95,35.05 64.45,34.2 63.9,33.3 63.9,33.15"/><path fill="#392524" d="M61.5,41.3Q60.7,41.75 60.7,42.3 60.7,42.4 60.75,42.5 60.65,42.7 60.65,43.05 60.65,43.6 61.1,43.6 61.5,43.6 62.15,41.95 62.15,41.9 62.15,41.85 62.25,41.7 62.25,41.6 62.25,40.9 61.5,41.3"/><path fill="#392524" d="M65.45,43.05Q64.95,43.05 64.95,43.4 64.95,43.95 65.45,43.95 65.55,44.2 65.8,44.2 66.3,44.2 66.3,43.45 66.3,42.8 65.8,42.8 65.55,42.8 65.45,43.05"/><path fill="#FFF" d="M65.45,43.95Q65.6,43.95 65.75,43.8 65.95,43.6 65.95,43.45 65.95,43.05 65.45,43.05 64.95,43.05 64.95,43.4 64.95,43.95 65.45,43.95"/><path fill="#502A1D" d="M65.8,42.8Q65.55,42.8 65.45,43.05 65.95,43.05 65.95,43.45 65.95,43.6 65.75,43.8 65.6,43.95 65.45,43.95 65.55,44.2 65.8,44.2 66.3,44.2 66.3,43.45 66.3,42.8 65.8,42.8"/><path fill="#FFF" d="M61.15,42.75Q61.9,42.1 62.15,41.85 62.25,41.7 62.25,41.6 62.25,40.9 61.5,41.3 60.7,41.75 60.7,42.3 60.7,42.4 60.75,42.5 60.8,42.75 61.15,42.75"/><path fill="#502A1D" d="M62.15,41.85Q61.9,42.1 61.15,42.75 60.8,42.75 60.75,42.5 60.65,42.7 60.65,43.05 60.65,43.6 61.1,43.6 61.5,43.6 62.15,41.95 62.15,41.9 62.15,41.85"/><path fill="#392524" d="M47.7,42.65Q47.7,42.85 47.7,43.1 47.7,44.15 47.7,44.55 47.7,45.3 47.35,45.4 47.5,45.45 47.55,45.5 47.6,45.55 47.65,45.55 47.75,45.55 47.9,45.55 48.6,45.55 51.75,44.45 53.2,43.65 53.05,42.3 52.9,40.9 52.65,40.85 51.9,40.5 51,40.95 49.95,41.25 47.75,42.6 47.6,42.7 47.55,42.75 47.5,42.85 47.45,43.1L47.7,42.65"/><path fill="#FFF" d="M50.85,41.35Q50.85,41.8 51.2,41.8 51.5,41.8 51.9,41.55 52.3,41.25 52.3,41.1 52.3,40.8 51.9,40.8 51.65,40.8 51.25,40.95 50.85,41.15 50.85,41.35"/><path fill="#3D2016" d="M45.65,40.1Q45.65,39.95 45.7,39.9 45.5,39.6 45.3,39.4 45.2,42.1 45.4,42.75 45.65,43.3 46.4,44.2 47.1,45.05 47.35,45.4 47.7,45.3 47.7,44.55 47.7,44.15 47.7,43.1 47.7,42.85 47.7,42.65L47.45,43.1Q47.5,42.85 47.55,42.75 47.6,42.7 47.75,42.6 47.6,42.3 47.2,41.9 47.1,41.95 47,41.95 46.8,41.95 46.25,41.05 45.65,40.2 45.65,40.1"/><path fill="#FFF" d="M46.1,39.7Q45.8,39.7 45.7,39.9 45.65,39.95 45.65,40.1 45.65,40.2 46.25,41.05 46.8,41.95 47,41.95 47.1,41.95 47.2,41.9 47.3,41.75 47.4,41.55 47.4,41.4 46.85,40.6 46.25,39.7 46.1,39.7"/><path fill="#502A1D" d="M45.7,39.9Q45.8,39.7 46.1,39.7 46.25,39.7 46.85,40.6 47.4,41.4 47.4,41.55 47.3,41.75 47.2,41.9 47.6,42.3 47.75,42.6 49.95,41.25 51,40.95 51.9,40.5 52.65,40.85 52.55,40.2 51.75,39.05 50.7,37.65 49.7,37.65 48.25,38.2 47.2,38.65L45.3,39.4Q45.5,39.6 45.7,39.9"/><path fill="#392524" d="M44.05,35.1Q43.9,35.2 43.85,35.25 43.7,35.35 43.65,35.6 43.6,35.65 43.6,35.7L44,35.15Q44,35.35 44,35.6 44,36.65 44,37.05 44,37.8 43.55,37.9 43.7,37.95 43.85,38.05 43.9,38.1 43.95,38.1 44.05,38.1 44.2,38.1 44.85,38.1 47.95,37 49.45,36.25 49.3,34.8 49.15,33.4 48.9,33.35 48.2,33 47.25,33.45 46.25,33.8 44.05,35.1"/><path fill="#FFF" d="M48.6,33.65Q48.6,33.3 48.2,33.3 47.85,33.3 47.5,33.5 47.1,33.7 47.1,33.9 47.1,34.3 47.45,34.3 47.7,34.3 48.2,34.1 48.6,33.8 48.6,33.65"/><path fill="#502A1D" d="M42,32.45Q42.05,32.2 42.35,32.2 42.5,32.2 43.1,33.1 43.6,34 43.6,34.1 43.5,34.3 43.45,34.4 43.9,34.8 44.05,35.1 46.25,33.8 47.25,33.45 48.2,33 48.9,33.35 48.85,32.7 47.95,31.6 46.95,30.2 45.9,30.2 44.5,30.7 43.4,31.15L41.5,31.95Q41.75,32.1 42,32.45"/><path fill="#FFF" d="M41.95,32.6Q41.95,32.7 42.5,33.6 43.05,34.45 43.25,34.45 43.35,34.45 43.45,34.4 43.5,34.3 43.6,34.1 43.6,34 43.1,33.1 42.5,32.2 42.35,32.2 42.05,32.2 42,32.45 41.95,32.5 41.95,32.6"/><path fill="#3D2016" d="M42.5,33.6Q41.95,32.7 41.95,32.6 41.95,32.5 42,32.45 41.75,32.1 41.5,31.95 41.4,34.6 41.7,35.25 41.95,35.85 42.65,36.7 43.3,37.55 43.55,37.9 44,37.8 44,37.05 44,36.65 44,35.6 44,35.35 44,35.15L43.6,35.7Q43.6,35.65 43.65,35.6 43.7,35.35 43.85,35.25 43.9,35.2 44.05,35.1 43.9,34.8 43.45,34.4 43.35,34.45 43.25,34.45 43.05,34.45 42.5,33.6"/><path fill="#392524" d="M39.9,27.9L39.9,27.85Q39.8,27.9 39.8,27.95 39.7,28.05 39.65,28.25 39.6,28.3 39.6,28.35L39.9,27.9"/><path fill="#FFF" d="M36.65,22.9Q36.65,23.05 36.9,23.55 37.75,25.1 38.5,26.25 39.2,27.45 39.85,27.85L39.9,27.85 39.9,27.9Q39.95,27.9 39.95,27.95 40.35,28.25 40.15,27.7 40.1,27.6 40.05,27.5 39.6,26.65 39,25.8 38.45,24.95 37.3,23.45 36.5,22.45 36.65,22.9"/><path fill="#3D2016" d="M36.9,23.55Q36.65,23.05 36.65,22.9 36.55,22.75 36.45,22.6 35.85,24.7 36.05,25.2 36.25,25.7 37.8,28 39.25,30.25 39.8,30.7 39.95,30.45 39.95,29.7 39.95,29.35 39.95,28.25 39.95,28.1 39.95,27.95 39.95,27.9 39.9,27.9L39.6,28.35Q39.6,28.3 39.65,28.25 39.7,28.05 39.8,27.95 39.8,27.9 39.9,27.85L39.85,27.85Q39.2,27.45 38.5,26.25 37.75,25.1 36.9,23.55"/><path fill="#392524" d="M44.85,26Q44.15,25.7 43.2,26.1 42.25,26.5 40.15,27.7 40.35,28.25 39.95,27.95 39.95,28.1 39.95,28.25 39.95,29.35 39.95,29.7 39.95,30.45 39.8,30.7 40.05,30.75 40.15,30.75 40.8,30.75 44.4,29.15 44.9,28.9 44.9,27.45 44.9,26.05 44.85,26"/><path fill="#502A1D" d="M43.2,26.1Q44.15,25.7 44.85,26 44.8,25.35 43,22.9 41.15,20.3 39.6,21.05L36.45,22.6Q36.55,22.75 36.65,22.9 36.5,22.45 37.3,23.45 38.45,24.95 39,25.8 39.6,26.65 40.05,27.5 40.1,27.6 40.15,27.7 42.25,26.5 43.2,26.1"/><path fill="#392524" d="M57.15,38.35Q56.95,38.5 56.9,38.55 56.8,38.65 56.75,38.8 56.7,38.85 56.7,38.9L57.1,38.4Q57.1,38.65 57.1,38.8 57.1,39.9 57.1,40.3 57.1,41 56.65,41.1 56.8,41.15 56.9,41.25 56.95,41.3 57.05,41.3 57.15,41.3 57.3,41.3 57.95,41.3 61.05,40.25 62.55,39.45 62.4,38.05 62.25,36.6 62,36.55 61.25,36.3 60.35,36.65 59.35,37.05 57.15,38.35"/><path fill="#FFF" d="M60.2,37.15Q60.2,37.55 60.5,37.55 60.8,37.55 61.25,37.3 61.7,37.05 61.7,36.85 61.7,36.5 61.25,36.5 60.95,36.5 60.55,36.7 60.2,36.9 60.2,37.15"/><path fill="#502A1D" d="M54.6,35.15Q54.85,35.35 55.1,35.7 55.15,35.5 55.45,35.5 55.6,35.5 56.15,36.4 56.7,37.2 56.7,37.3 56.65,37.5 56.55,37.65 56.95,38.05 57.15,38.35 59.35,37.05 60.35,36.65 61.25,36.3 62,36.55 61.95,35.95 61.05,34.85 60.05,33.45 59,33.45 57.6,34 56.5,34.35L54.6,35.15"/><path fill="#FFF" d="M55.1,35.7Q55.05,35.75 55.05,35.85 55.05,35.95 55.6,36.8 56.15,37.75 56.3,37.75 56.45,37.75 56.55,37.65 56.65,37.5 56.7,37.3 56.7,37.2 56.15,36.4 55.6,35.5 55.45,35.5 55.15,35.5 55.1,35.7"/><path fill="#3D2016" d="M55.05,35.85Q55.05,35.75 55.1,35.7 54.85,35.35 54.6,35.15 54.5,37.9 54.75,38.55 55.05,39.05 55.75,40 56.4,40.85 56.65,41.1 57.1,41 57.1,40.3 57.1,39.9 57.1,38.8 57.1,38.65 57.1,38.4L56.7,38.9Q56.7,38.85 56.75,38.8 56.8,38.65 56.9,38.55 56.95,38.5 57.15,38.35 56.95,38.05 56.55,37.65 56.45,37.75 56.3,37.75 56.15,37.75 55.6,36.8 55.05,35.95 55.05,35.85"/><path fill="#392524" d="M51.8,32.15Q51.8,32.35 51.8,32.6 51.8,33.7 51.8,34.1 51.8,34.8 51.4,34.9 51.55,34.95 51.65,35.05 51.7,35.1 51.75,35.1 51.85,35.1 51.95,35.1 52.65,35.1 55.8,34.05 57.25,33.25 57.1,31.85 56.9,30.4 56.65,30.35 56,30 55.05,30.45 54,30.8 51.85,32.1 51.7,32.2 51.65,32.25 51.55,32.35 51.5,32.6 51.45,32.65 51.45,32.7L51.8,32.15"/><path fill="#FFF" d="M56.35,30.65Q56.35,30.3 56,30.3 55.7,30.3 55.3,30.5 54.9,30.7 54.9,30.95 54.9,31.35 55.25,31.35 55.55,31.35 56,31.1 56.35,30.8 56.35,30.65"/><path fill="#FFF" d="M51.05,31.5Q51.15,31.5 51.25,31.4 51.35,31.3 51.45,31.1 51.45,31 50.9,30.1 50.25,29.25 50.1,29.25 49.85,29.25 49.75,29.45 49.7,29.5 49.7,29.65 49.7,29.7 50.25,30.6 50.85,31.5 51.05,31.5"/><path fill="#3D2016" d="M51.25,31.4Q51.15,31.5 51.05,31.5 50.85,31.5 50.25,30.6 49.7,29.7 49.7,29.65 49.7,29.5 49.75,29.45 49.55,29.15 49.35,28.95 49.25,31.7 49.5,32.25 49.7,32.85 50.45,33.75 51.15,34.55 51.4,34.9 51.8,34.8 51.8,34.1 51.8,33.7 51.8,32.6 51.8,32.35 51.8,32.15L51.45,32.7Q51.45,32.65 51.5,32.6 51.55,32.35 51.65,32.25 51.7,32.2 51.85,32.1 51.7,31.85 51.25,31.4"/><path fill="#502A1D" d="M56.65,30.35Q56.6,29.7 55.8,28.6 54.7,27.25 53.75,27.25 52.25,27.7 51.25,28.15L49.35,28.95Q49.55,29.15 49.75,29.45 49.85,29.25 50.1,29.25 50.25,29.25 50.9,30.1 51.45,31 51.45,31.1 51.35,31.3 51.25,31.4 51.7,31.85 51.85,32.1 54,30.8 55.05,30.45 56,30 56.65,30.35"/><path fill="#392524" d="M60.65,30.05Q60.6,30.1 60.6,30.2L60.95,29.7Q60.95,29.85 60.95,30.05 60.95,31.2 60.95,31.55 60.95,32.25 60.55,32.35 60.7,32.4 60.8,32.55 60.85,32.6 60.9,32.6 61,32.6 61.15,32.6 61.85,32.6 64.95,31.5 66.45,30.7 66.3,29.3 66.15,27.85 65.9,27.8 65.15,27.5 64.25,27.95 63.2,28.3 61,29.65 60.85,29.7 60.8,29.75 60.7,29.85 60.65,30.05"/><path fill="#FFF" d="M65.15,28.55Q65.55,28.3 65.55,28.15 65.55,27.75 65.15,27.75 64.85,27.75 64.5,28 64.1,28.2 64.1,28.4 64.1,28.85 64.45,28.85 64.75,28.85 65.15,28.55"/><path fill="#FFF" d="M58.95,26.95Q58.9,27 58.9,27.1 58.9,27.25 59.5,28.1 60.05,29 60.25,29 60.35,29 60.45,28.9 60.55,28.8 60.6,28.55 60.6,28.45 60.1,27.6 59.5,26.75 59.35,26.75 59.05,26.75 58.95,26.95"/><path fill="#502A1D" d="M58.5,26.45Q58.7,26.65 58.95,26.95 59.05,26.75 59.35,26.75 59.5,26.75 60.1,27.6 60.6,28.45 60.6,28.55 60.55,28.8 60.45,28.9 60.85,29.3 61,29.65 63.2,28.3 64.25,27.95 65.15,27.5 65.9,27.8 65.8,27.25 64.95,26.1 63.95,24.7 62.9,24.7 61.5,25.2 60.45,25.6L58.5,26.45"/><path fill="#3D2016" d="M58.95,26.95Q58.7,26.65 58.5,26.45 58.4,29.15 58.65,29.75 58.9,30.35 59.65,31.25 60.35,32.05 60.55,32.35 60.95,32.25 60.95,31.55 60.95,31.2 60.95,30.05 60.95,29.85 60.95,29.7L60.6,30.2Q60.6,30.1 60.65,30.05 60.7,29.85 60.8,29.75 60.85,29.7 61,29.65 60.85,29.3 60.45,28.9 60.35,29 60.25,29 60.05,29 59.5,28.1 58.9,27.25 58.9,27.1 58.9,27 58.95,26.95"/><path fill="#392524" d="M54.95,23.35Q54.95,23.5 54.95,23.65 54.95,24.75 54.95,25.15 54.95,25.85 54.75,26.1 55.05,26.15 55.15,26.15 55.8,26.15 59.4,24.55 59.9,24.3 59.9,22.9 59.9,21.45 59.85,21.4 59.1,21.05 58.2,21.5 57.25,21.85 55.15,23.1 55.35,23.65 54.95,23.35"/><path fill="#392524" d="M54.9,23.3L54.85,23.25Q54.8,23.3 54.75,23.3 54.65,23.45 54.6,23.65 54.55,23.7 54.55,23.75L54.9,23.3"/><path fill="#FFF" d="M55.15,23.1Q55.1,23 55.05,22.95 54.55,22.05 54,21.2 53.45,20.3 52.25,18.8 51.5,17.85 51.6,18.25 51.65,18.45 51.9,18.95 52.75,20.5 53.5,21.65 54.2,22.85 54.85,23.25L54.9,23.3Q54.95,23.3 54.95,23.35 55.35,23.65 55.15,23.1"/><path fill="#502A1D" d="M51.45,18Q51.55,18.15 51.6,18.25 51.5,17.85 52.25,18.8 53.45,20.3 54,21.2 54.55,22.05 55.05,22.95 55.1,23 55.15,23.1 57.25,21.85 58.2,21.5 59.1,21.05 59.85,21.4 59.8,20.75 58,18.3 56.15,15.7 54.55,16.45L51.45,18"/><path fill="#3D2016" d="M51.6,18.25Q51.55,18.15 51.45,18 50.85,20.1 51.05,20.65 51.25,21.05 52.8,23.35 54.25,25.6 54.75,26.1 54.95,25.85 54.95,25.15 54.95,24.75 54.95,23.65 54.95,23.5 54.95,23.35 54.95,23.3 54.9,23.3L54.55,23.75Q54.55,23.7 54.6,23.65 54.65,23.45 54.75,23.3 54.8,23.3 54.85,23.25 54.2,22.85 53.5,21.65 52.75,20.5 51.9,18.95 51.65,18.45 51.6,18.25"/><path fill="#392524" d="M42.35,8.85Q41.7,9.25 41.7,9.65 41.7,9.75 41.75,9.8 41.65,10.05 41.65,10.3 41.65,10.85 42.05,10.85 42.35,10.85 42.95,9.45 42.95,9.4 42.95,9.35 43,9.2 43,9.05 43,8.45 42.35,8.85"/><path fill="#392524" d="M46.15,11.4Q46.55,11.4 46.55,10.75 46.55,10.15 46.15,10.15 45.9,10.15 45.8,10.3 45.4,10.3 45.4,10.7 45.4,11.15 45.8,11.15 45.9,11.4 46.15,11.4"/><path fill="#FFF" d="M45.8,11.15Q46,11.15 46.1,11 46.25,10.85 46.25,10.75 46.25,10.3 45.8,10.3 45.4,10.3 45.4,10.7 45.4,11.15 45.8,11.15"/><path fill="#502A1D" d="M45.8,11.15Q45.9,11.4 46.15,11.4 46.55,11.4 46.55,10.75 46.55,10.15 46.15,10.15 45.9,10.15 45.8,10.3 46.25,10.3 46.25,10.75 46.25,10.85 46.1,11 46,11.15 45.8,11.15"/><path fill="#502A1D" d="M41.75,9.8Q41.65,10.05 41.65,10.3 41.65,10.85 42.05,10.85 42.35,10.85 42.95,9.45 42.95,9.4 42.95,9.35 42.7,9.5 42.1,10.1 41.8,10.1 41.75,9.8"/><path fill="#FFF" d="M43,9.05Q43,8.45 42.35,8.85 41.7,9.25 41.7,9.65 41.7,9.75 41.75,9.8 41.8,10.1 42.1,10.1 42.7,9.5 42.95,9.35 43,9.2 43,9.05"/><path fill="#392524" d="M52.15,5.7Q52.15,6.2 52.65,6.2 52.75,6.4 52.95,6.4 53.35,6.4 53.35,5.75 53.35,5.15 52.95,5.15 52.75,5.15 52.65,5.35 52.15,5.35 52.15,5.7"/><path fill="#392524" d="M49.7,4.35Q49.75,4.2 49.75,4.1 49.75,3.45 49.15,3.9 48.5,4.25 48.5,4.75 48.5,4.85 48.55,4.9 48.45,5.05 48.45,5.35 48.45,5.85 48.85,5.85 49.15,5.85 49.7,4.45 49.7,4.4 49.7,4.35"/><path fill="#FFF" d="M49.7,4.35Q49.75,4.2 49.75,4.1 49.75,3.45 49.15,3.9 48.5,4.25 48.5,4.75 48.5,4.85 48.55,4.9 48.6,5.1 48.9,5.1 49.5,4.6 49.7,4.35"/><path fill="#502A1D" d="M49.7,4.45Q49.7,4.4 49.7,4.35 49.5,4.6 48.9,5.1 48.6,5.1 48.55,4.9 48.45,5.05 48.45,5.35 48.45,5.85 48.85,5.85 49.15,5.85 49.7,4.45"/><path fill="#502A1D" d="M53.05,5.75Q53.05,5.85 52.9,6 52.8,6.2 52.65,6.2 52.75,6.4 52.95,6.4 53.35,6.4 53.35,5.75 53.35,5.15 52.95,5.15 52.75,5.15 52.65,5.35 53.05,5.35 53.05,5.75"/><path fill="#FFF" d="M52.65,5.35Q52.15,5.35 52.15,5.7 52.15,6.2 52.65,6.2 52.8,6.2 52.9,6 53.05,5.85 53.05,5.75 53.05,5.35 52.65,5.35"/></g><g><g id="3" transform="matrix(1 0 0 1 -5.65 0.7)"><animateTransform attributeName="transform" additive="replace" type="translate" dur="1.375s" keyTimes="0;0.333;0.424;1" values="-4.65,0.7;-4.65,0.7;-5.65,0.7;-5.65,0.7"/><path fill="#000" fill-opacity="0.247" d="M84.55,29.65L84.5,29.65Q83.5,25.8 80.8,22.15 77,17.15 73.45,15.2 69.7,13.25 66.2,12.05 62.55,10.8 59.6,10.25 56.5,9.65 52.95,9.75 49.25,9.85 44.3,11.9 38.05,7 32.1,3.5 26.15,0 18.85,0 11.55,0 6.7,3.05 3.7,4.85 2.95,7.75L1.1,11.95Q0.45,13 0.2,14.3 -0.15,15.5 0.05,17.55 -0.4,22.4 2.1,25.35 3.15,27.6 4.95,29.95 8.75,34.95 17.8,42.55 26.95,50.2 35.7,56 41.7,60.05 42.8,61.5 46.15,58.85 54.9,55.9 64.15,52.8 73.3,48.55 78.65,46 80.8,43.1 81.7,41.9 82,40.65L83.45,37.55Q86.45,33.7 84.55,29.65"/></g><animate attributeName="display" repeatCount="1" dur="1.375s" keyTimes="0;0.333;1" values="none;inline;none"/></g><g id="2_l1" transform="matrix(1 0 0 1 -5.8 -0.85)"><animateTransform attributeName="transform" additive="replace" type="translate" dur="1.375s" keyTimes="0;0.152;0.333;0.424;1" values="-12.277,32.752;-12.277,32.752;37.95,29.9;36.95,29.9;36.95,29.9"/><animateTransform attributeName="transform" additive="sum" type="rotate" dur="1.375s" keyTimes="0;0.152;0.333;1" values="-26.703,0,0;-26.703,0,0;0,0,0;0,0,0"/><animateTransform attributeName="transform" additive="sum" type="scale" dur="1.375s" keyTimes="0;0.152;0.333;1" values="0.999,0.999;0.999,0.999;1,1;1,1"/><animateTransform attributeName="transform" additive="sum" type="translate" dur="1.375s" keyTimes="0;1" values="-42.75,-30.75;-42.75,-30.75"/><path fill="#941B24" d="M8.85,24.2Q7.45,22.5 6.35,20.8L2.55,25.65Q2.25,25.3 2,24.95 3.1,27.35 5.05,29.95 8.85,35 17.9,42.6 27.05,50.2 35.8,56.05 41.85,60.05 42.9,61.5L45.85,53.25Q45.7,53 39.8,50.05 33.95,47 23.75,38.4 13.45,29.8 8.85,24.2"/><path fill="#F47E09" d="M0.1,17.15Q0.1,17.25 0.1,17.35 -0.4,21.85 2,24.95 2.25,25.3 2.55,25.65L6.35,20.8 6.5,20.6 2.8,11.5Q0.15,14.3 0.1,17.15"/><path fill="#941B24" d="M2.8,10.25Q2.75,8.95 3.05,7.8L1.2,11.95Q0.55,13.05 0.3,14.3 0,15.35 0.1,17.15 0.15,14.3 2.8,11.5L2.9,11.55Q2.8,10.85 2.8,10.25"/><path fill="#F78D24" d="M25.6,23Q26.45,23.65 27.45,24.1 27.25,23.9 27.25,23.85 27.15,23.7 27.15,23.35 27.15,22.25 29.5,21.95 30.2,21.85 33.05,21.85 33.298,21.85 33.5,21.85 33.447,21.848 33.35,21.8 34.15,21.7 37.9,22.2 40.9,22.55 42.6,23.1 36.75,20.85 32.95,19.9 24.75,17.8 24.05,20.7 23.8,21.6 25.6,23"/><path fill="#FC3" d="M48.1,25.15Q48.15,25.2 48.25,25.3L48.15,25.15 48.1,25.15"/><path fill="#FFD34F" d="M48.4,25.45L48.35,25.4 48.35,25.45 48.4,25.45"/><path fill="#B9212D" d="M55.65,35.05Q54.6,33.75 53.6,32.5L6.5,20.6 6.35,20.8Q7.45,22.5 8.85,24.2 13.45,29.8 23.75,38.4 33.95,47 39.8,50.05 45.7,53 45.85,53.25 50.4,51.8 58.7,49.2 67.05,46.5 76.2,42.25 79.1,40.85 81.1,39.4L67.1,35.85Q67.05,35.85 67.05,35.9 65.9,38.45 64.85,39.9 63.7,41.3 61.25,40.6 59.75,40.25 55.65,35.05"/><path fill="#900" d="M49.3,20.2L49.35,20.2Q49.3,20.15 49.25,20.15L49.3,20.2"/><path fill="#C96834" d="M44,23.6Q43.5,23.3 42.6,23.1 40.9,22.55 37.9,22.2 34.15,21.7 33.35,21.8 33.447,21.848 33.5,21.85 33.298,21.85 33.05,21.85 30.2,21.85 29.5,21.95 27.15,22.25 27.15,23.35 27.15,23.7 27.25,23.85 27.25,23.9 27.45,24.1 28.1,24.45 28.8,24.6 31.05,25.25 37.75,24 42.55,23.1 44,23.6"/><path fill="#FC3" d="M45.1,18.8Q45.15,18.75 45.35,18.7 45.25,18.55 45.15,18.3 44.7,16.8 40.15,12.15 35.65,7.5 31,5.9 26.3,4.25 25.35,8.5 24.5,12.6 24.3,13.35 24.3,13.75 23.65,15.95 23.65,16 23.65,16.15 23.55,16.4 23.3,17.05 22.8,18.35 22.6,19.25 21.4,23.8 26.35,25.25 33.75,27.35 42.6,25.1 42.531,25.144 42.45,25.2L45.375,24.8 45.4,24.75Q45.2,24.65 45.1,24.6 45,24.55 44.8,24.45L44.85,24.45Q44.7,24.4 44.55,24.35 44.45,24.2 44.4,24.15 44.3,24.1 44.2,24 44.15,23.95 44.1,23.9 44.05,23.75 44,23.6 42.55,23.1 37.75,24 31.05,25.25 28.8,24.6 28.1,24.45 27.45,24.1 26.45,23.65 25.6,23 23.8,21.6 24.05,20.7 24.75,17.8 32.95,19.9 36.75,20.85 42.6,23.1 43.5,23.3 44,23.6 43.65,23.05 43.75,23.1 43.65,22.4 43.75,21.55 43.8,21.05 44,20.65 44.3,19.35 44.9,18.85 45.05,18.8 45.1,18.8"/><path fill="#FFD34F" d="M45.35,18.7Q45.15,18.75 45.1,18.8 45.05,18.8 44.9,18.85 44.3,19.35 44,20.65 43.8,21.05 43.75,21.55 43.65,22.4 43.75,23.1 43.65,23.05 44,23.6 44.05,23.75 44.1,23.9 44.15,23.95 44.2,24 44.3,24.1 44.4,24.15 44.45,24.2 44.55,24.35 44.7,24.4 44.85,24.45L44.8,24.45Q45,24.55 45.1,24.6 45.2,24.65 45.4,24.75 45.446,24.767 45.5,24.775 45.601,24.813 45.725,24.85 46.03,24.953 46.45,25.05L46.5,25.05Q47.4,25.25 47.95,25.05L47.85,24.95Q47.6,24.7 47.9,24.95 47.95,25 48,25.05L48.05,25.05Q48.065,25.089 48.075,25.125L48.1,25.15 48.15,25.15Q48.2,25.1 48.3,25.05 48.35,25 48.45,24.95 48.6,24.85 48.75,24.7 48.8,24.55 49,24.45L49,24.4Q49,24.35 49.1,24.35 49.4,23.7 49.7,22.7 49.8,22.3 49.8,21.95 49.75,21.15 49.4,20.4 49.4,20.35 49.4,20.3 49.4,20.25 49.35,20.25L49.35,20.2 49.3,20.2 49.25,20.15Q49.3,20.15 49.35,20.2 48.8,19.2 47.8,18.8 46.65,18.5 45.35,18.7"/><path fill="#FC3" d="M44.45,23.35L45,23.95Q45.2,24.2 45.55,24.4 45.9,24.55 46.45,24.7 47,24.8 47.7,24.8 47.8,24.75 47.9,24.7 48.65,24.2 48.75,24 48.85,23.75 47.65,24.15 47.2,24.3 46.75,24.3 46.25,24.25 45.75,23.95 45.55,23.85 45.35,23.7 45.15,23.55 45,23.45 44.2,22.85 44.35,23.1L44.45,23.35"/><path fill="#FC3" d="M70.25,20.25Q67.2,18.75 63.9,18.7 60.7,18.5 56.2,18.75 51.4,19.2 49.4,20.3 49.4,20.35 49.4,20.4 49.75,21.15 49.8,21.95 49.8,22.3 49.7,22.7 49.4,23.7 49.1,24.35 49,24.35 49,24.4L49,24.45Q48.8,24.55 48.75,24.7 48.6,24.85 48.45,24.95 48.35,25 48.3,25.05 48.2,25.1 48.15,25.15 48.25,25.25 48.3,25.3L48.35,25.35 48.35,25.4 48.4,25.45Q51.95,29.35 54.5,32.65 54.55,32.7 54.55,32.75 60.2,39.3 62.6,39.3 64.6,38.8 66.55,35.75 66.95,35.05 67.35,34.3 69.65,29.9 71.45,28.3 72.1,27.6 72.6,27 74.15,25 74.15,23.7 74.1,23.55 74,23.3 73.4,21.6 70.25,20.25"/><path fill="#C96834" d="M50.95,27.75Q51.25,28 51.55,28.3 54.25,30.85 55.45,32.1 55.65,32.3 56.3,33.15 56.65,33.55 57.05,34.1 57.5,34.6 58.15,35.4 59.45,36.9 60.15,37.65 61.6,38.6 61.65,37.8 61.45,35.8 60.4,34.2 60.05,33.6 59.55,33.05 57,30.1 50.7,27.55L50.95,27.75"/><path fill="#C96834" d="M61.65,38.25Q61.5,38.3 61.25,38.4 61.4,38.35 61.65,38.3L61.65,38.25"/><path fill="#B9212D" d="M63.9,18.7Q67.2,18.75 70.25,20.25 73.4,21.6 74,23.3 74.1,23.55 74.15,23.7 74.4,25.1 72.95,27.1L84.55,29.65Q83.6,25.8 80.9,22.2 77.15,17.15 73.55,15.2 69.8,13.25 66.3,12.05 62.65,10.85 59.7,10.25 56.65,9.65 53.05,9.75 49.35,9.85 44.4,11.9 38.15,7.05 32.2,3.5 26.3,0 18.95,0 11.65,0 6.8,3.05 3.85,4.9 3.05,7.8 2.75,8.95 2.8,10.25 2.8,10.85 2.9,11.55L23.65,16.15Q23.65,16 23.65,15.95 24.3,13.75 24.3,13.35 24.5,12.6 25.35,8.5 26.3,4.25 31,5.9 35.65,7.5 40.15,12.15 44.7,16.8 45.15,18.3 45.25,18.55 45.35,18.7 46.65,18.5 47.8,18.8 48.8,19.2 49.35,20.2L49.35,20.25Q49.4,20.25 49.4,20.3 51.4,19.2 56.2,18.75 60.7,18.5 63.9,18.7"/><path fill="#70141B" d="M81.8,39.55L81.1,39.4Q79.1,40.85 76.2,42.25 67.05,46.5 58.7,49.2 50.4,51.8 45.85,53.25L42.9,61.5Q46.3,58.85 55.05,55.95 64.25,52.8 73.4,48.6 78.8,46 80.9,43.15 81.8,41.9 82.1,40.65L83.4,37.95Q82.7,38.75 81.8,39.55"/><path fill="#F78D24" d="M83.4,37.95Q86.75,33.85 84.75,29.7L84.55,29.65 72.95,27.1Q74.4,25.1 74.15,23.7 74.15,25 72.6,27 72.1,27.6 71.45,28.3 69.65,29.9 67.35,34.3 66.95,35.05 66.55,35.75 64.6,38.8 62.6,39.3 60.2,39.3 54.55,32.75 54.55,32.7 54.5,32.65 51.95,29.35 48.4,25.45L48.35,25.45 48.35,25.4 48.35,25.35 48.3,25.3Q48.25,25.25 48.15,25.15L48.25,25.3Q48.15,25.2 48.1,25.15L48.075,25.125Q48.065,25.089 48.05,25.05L48,25.05Q47.95,25 47.9,24.95 47.6,24.7 47.85,24.95L47.95,25.05Q47.4,25.25 46.5,25.05L46.45,25.05Q46.03,24.953 45.725,24.85 45.601,24.813 45.5,24.775 45.446,24.767 45.4,24.75L45.375,24.8 42.45,25.2Q42.531,25.144 42.6,25.1 33.75,27.35 26.35,25.25 21.4,23.8 22.6,19.25 22.8,18.35 23.3,17.05 23.55,16.4 23.65,16.15L2.9,11.55 2.8,11.5 6.5,20.6 53.6,32.5Q54.6,33.75 55.65,35.05 59.75,40.25 61.25,40.6 63.7,41.3 64.85,39.9 65.9,38.45 67.05,35.9 67.05,35.85 67.1,35.85L81.1,39.4 81.8,39.55Q82.7,38.75 83.4,37.95"/><g id="II" transform="matrix(1 0 0 1 27.9 24.8)"><animateTransform attributeName="transform" additive="replace" type="translate" dur="1.375s" keyTimes="0;0.182;0.303;0.394;0.455;1" values="44.65,24.8;44.65,24.8;44.622,24.733;44.692,24.695;44.65,24.8;44.65,24.8"/><animateTransform attributeName="transform" additive="sum" type="rotate" dur="1.375s" keyTimes="0;0.182;0.303;0.394;0.455;1" values="0,0,0;0,0,0;11.662,0,0;-1.704,0,0;0,0,0;0,0,0"/><animateTransform attributeName="transform" additive="sum" type="scale" dur="1.375s" keyTimes="0;0.182;0.303;0.394;1" values="1,1;1,1;0.999,0.999;1,1;1,1"/><animateTransform attributeName="transform" additive="sum" type="translate" dur="1.375s" keyTimes="0;0.182;0.303;0.394;0.455;1" values="-16.75,0;-16.75,0;-16.65,0.1;-16.8,0;-16.75,0;-16.75,0"/><path fill="#FC3" d="M14.8,4.9Q16.6,1.7 17.5,0L14.55,0.4Q12.65,1.6 9.7,3.65 8.4,4.45 6.95,5.45 -1.6,11.05 0.35,12 2.3,12.95 3.8,14.9 5.3,16.85 6.35,17.05 7.4,17.25 12.95,8.05 13.95,6.35 14.8,4.9"/></g><g id="I" transform="matrix(1 0 0 1 44.65 24.8)"><animateTransform attributeName="transform" additive="replace" type="translate" dur="1.375s" keyTimes="0;0.182;0.303;0.394;0.455;1" values="47.85,24.95;47.85,24.95;47.843,24.976;47.803,24.864;47.85,24.95;47.85,24.95"/><animateTransform attributeName="transform" additive="sum" type="rotate" dur="1.375s" keyTimes="0;0.182;0.303;0.394;0.455;1" values="0,0,0;0,0,0;18.979,0,0;-1.733,0,0;0,0,0;0,0,0"/><animateTransform attributeName="transform" additive="sum" type="scale" dur="1.375s" keyTimes="0;0.182;0.303;0.394;1" values="1,1;1,1;0.999,0.999;1,1;1,1"/><animateTransform attributeName="transform" additive="sum" type="translate" dur="1.375s" keyTimes="0;0.182;0.303;0.394;0.455;1" values="-3.2,-0.15;-3.2,-0.15;-3.2,-0.1;-3.15,-0.15;-3.2,-0.15;-3.2,-0.15"/><path fill="#FC3" d="M3.45,0.35Q3.4,0.3 3.4,0.25L3.35,0.25Q3.3,0.2 3.25,0.15 2.95,-0.1 3.2,0.15L3.3,0.25Q2.75,0.45 1.85,0.25L1.8,0.25Q1.9,2.35 1.7,5.85 1.65,6.45 1.6,7.15 1.6,8.65 0.1,20.85 -0.1,21.95 0.2,22.4 0.45,22.85 3.6,22.6 6.75,22.35 7.9,22.25 9.05,22.1 8.7,20.45 8.3,18.75 7.05,12.65 6.5,9.8 5.65,6.85 4.7,3.65 3.45,0.35"/></g></g><g style="display:none;"><g id="star" transform="matrix(0.255 0 0 0.255 -32.1 21.65)"><animateTransform attributeName="transform" additive="replace" type="translate" dur="1.375s" keyTimes="0;0.333;0.606;0.879;1" values="-30.452,23.298;-30.452,23.298;-30.524,23.29;-30.452,23.298;-30.452,23.298"/><animateTransform attributeName="transform" additive="sum" type="scale" dur="1.375s" keyTimes="0;0.333;0.606;0.879;1" values="0.255,0.255;0.255,0.255;1.139,1.139;0.255,0.255;0.255,0.255"/><animateTransform attributeName="transform" additive="sum" type="translate" dur="1.375s" keyTimes="0;0.333;0.606;0.879;1" values="-6.45,-6.45;-6.45,-6.45;-6.3,-6.4;-6.45,-6.45;-6.45,-6.45"/><path fill="#FFF" d="M7.8,3.2L6.45,0 5.1,3.2 1.4,3.55 3.8,6.25 2.7,10.3 6.45,8.4 10.3,10.05 9.1,6.25 11.3,3.55 7.8,3.2"/></g><animate attributeName="display" repeatCount="1" dur="1.375s" keyTimes="0;0.333;0.909;1" values="none;inline;none;none"/></g></g></svg>