<?xml version="1.0" encoding="utf-8"?><svg id="1021" image-rendering="auto" baseProfile="basic" version="1.1" x="0px" y="0px" width="300" height="300" xmlns="http://www.w3.org/2000/svg" xmlns:xlink="http://www.w3.org/1999/xlink"><defs><radialGradient gradientUnits="userSpaceOnUse" color-interpolation="sRGB" r="124.16" cx="103.6" cy="58.95" fx="103.113" fy="58.95" gradientTransform="matrix(0.99 0.144 -0.146 0.991 9.7 -14.35)" id="radialGradient"><stop stop-color="#C43342" stop-opacity="1" offset="0"/><stop stop-color="#B8202B" stop-opacity="1" offset="1"/></radialGradient><radialGradient gradientUnits="userSpaceOnUse" color-interpolation="sRGB" r="124.16" cx="103.6" cy="58.95" fx="103.113" fy="58.95" gradientTransform="matrix(0.99 0.144 -0.146 0.991 9.7 -14.35)" id="radialGradient1"><stop stop-color="#C43342" stop-opacity="1" offset="0"/><stop stop-color="#82202B" stop-opacity="1" offset="1"/></radialGradient></defs><g id="Symbol_25_l1" overflow="visible" transform="matrix(1 0 0 1 3.75 5.85)"><g id="Symbol_24_l1" transform="matrix(1 0 0 1 146.1 144.2)"><path fill="none" stroke="#000" stroke-opacity="0.251" stroke-width="6" stroke-linecap="round" stroke-linejoin="round" d="M120.75,-101.75Q102.5,-121.8 88.5,-110.55 81.1,-132.8 29.85,-143 -21.6,-153.2 -82.65,-78.15 -143.7,-2.9 -145.9,36.75 -148.1,76.2 -125.7,83.6 -161.1,116.25 -121.1,129.85 -81.25,143.65 -33.6,144.25 14.05,144.85 65.9,140.85 117.55,136.85 136.15,114.4 154.55,92 127.75,61.8 145.75,32.55 146.15,-20.5 146.35,-73.55 120.75,-101.75"/><g mask="url(#mask_)"><path fill="#FFF" d="M120.75,-101.75Q102.5,-121.8 88.5,-110.55 81.1,-132.8 29.85,-143 -21.6,-153.2 -82.65,-78.15 -143.7,-2.9 -145.9,36.75 -148.1,76.2 -125.7,83.6 -161.1,116.25 -121.1,129.85 -81.25,143.65 -33.6,144.25 14.05,144.85 65.9,140.85 117.55,136.85 136.15,114.4 154.55,92 127.75,61.8 145.75,32.55 146.15,-20.5 146.35,-73.55 120.75,-101.75 M-83.65,108.6L-83.65,108.4 -83.45,108.4 -83.65,108.6"/></g><g mask="url(#mask_)" style="display:none;"><g id="Symbol_19" transform="matrix(0.348 0 0 0.348 -39.25 72.55)" opacity="0.3"><animateTransform attributeName="transform" additive="replace" type="translate" fill="freeze" dur="4s" keyTimes="0;0.04;0.06;1" values="1.9,80.857;1.9,80.857;1.9,80.85;1.9,80.85"/><animateTransform attributeName="transform" additive="sum" type="scale" fill="freeze" dur="4s" keyTimes="0;0.04;0.06;0.08;1" values="0.348,0.348;0.348,0.348;1.034,1;1,1;1,1"/><animateTransform attributeName="transform" additive="sum" type="translate" fill="freeze" dur="4s" keyTimes="0;0.04;0.06;1" values="-118.15,-23.85;-118.15,-23.85;-118.15,-23.9;-118.15,-23.9"/><animate attributeName="opacity" fill="freeze" dur="4s" keyTimes="0;0.04;0.06;1" values="0.3;0.3;1;1"/><path fill="#000" fill-opacity="0.278" d="M229.8,32.45Q246.2,24.85 221.35,12.45 196.35,0 191.75,0L148.5,0 148.5,0.2 122.9,0.85Q114.9,2.85 94.85,3.65 79.45,4.25 76.05,7.65 29,16.65 17,19.05 0,22.65 0,32.25 0,37.45 8.4,39.65 16.6,41.85 18.8,42.25 21,42.65 35.2,44.85 49.2,46.85 102.65,47.65 156.1,48.45 184.75,44.25 213.15,40.05 229.8,32.45"/></g><animate attributeName="display" fill="freeze" repeatCount="1" dur="4s" keyTimes="0;0.04;1" values="none;inline;inline"/></g><g mask="url(#mask_)"><g id="Symbol_18" transform="matrix(1 0 0 1 -104.15 -399.7)"><animateTransform attributeName="transform" additive="replace" type="translate" fill="freeze" dur="4s" keyTimes="0;0.04;0.041;0.06;0.08;0.1;1" values="9.6,-294.05;9.6,-294.05;9.6,-260.05;9.635,-10.55;9.599,-15.051;9.6,-14.05;9.6,-14.05"/><animateTransform attributeName="transform" additive="sum" type="scale" fill="freeze" dur="4s" keyTimes="0;0.04;0.06;0.08;0.1;1" values="1,1;1,1;1.035,0.995;0.987,1.009;1,1;1,1"/><animateTransform attributeName="transform" additive="sum" type="translate" fill="freeze" dur="4s" keyTimes="0;0.04;0.06;0.08;1" values="-113.75,-105.65;-113.75,-105.65;-113.8,-105.65;-113.75,-105.65;-113.75,-105.65"/><path fill="url(#radialGradient)" d="M139.5,206.65Q142.15,206.15 145,205.7 154.2,204.1 162.45,202.1 167.85,200.7 172.85,199.3L139.5,206.65"/><path fill="#B8202B" d="M207.65,104.25Q207.653,104.605 207.85,105 216.45,144.85 200.25,171.65 187.65,192.3 158,201.9 187.05,194.5 193.45,191.3 194.85,190.3 195.85,189.3 224.9,172.25 214.45,127.45 212.25,120.85 213.65,124.05L213.85,124.25Q213.25,122.85 213.05,121.45 212.85,120.65 212.45,119.85 212.25,119.45 212.25,119 209.65,109.6 207.85,104.8 207.656,104.413 207.65,104.25"/><path fill="url(#radialGradient1)" d="M186.45,57.15L186.65,57.75 186.85,57.95 186.45,57.15"/><path fill="url(#radialGradient)" d="M180.85,47.55Q179.85,45.35 178.85,43.35 174.65,35.55 170.25,29.15 145,-6.7 107.8,8.35 78.35,21.75 43.9,65.4 42.9,67 41.5,68.6 18.1,103 7.7,127.85 1.3,143.25 0.5,153.65 -0.7,163.65 0.9,167.65 2.3,171.05 3.9,175.05L3.7,175.25Q9.9,199.9 59.75,209.1 79.55,211.7 102.6,211.3 112,211.1 134.2,207.5 134.4,207.5 134.8,207.5 135.2,207.5 135.4,207.3 135.8,207.3 136,207.3 136.8,206.9 137.6,206.7 148.8,204.1 158,201.9 187.65,192.3 200.25,171.65 216.45,144.85 207.85,105 207.653,104.605 207.65,104.25L207.65,104.2Q207.45,104 207.45,103.8 205.05,97.6 199.65,85.2 194.45,72.6 192.25,68.6 190.05,64.6 189.45,63.4L189.45,63.2Q189.05,62.6 188.85,62L186.65,57.75 186.45,57.15 183.05,50.55Q182.85,49.75 182.45,49.35 182.05,48.95 181.85,48.75 181.85,48.55 181.85,48.35L181.65,48.15Q180.85,47.35 180.85,47.55"/><path fill="#C12F3D" d="M130.8,22.55L127,20.75 124,21.55 121.8,25.35 122.8,28.75Q122.8,30.35 125.2,30.55L129.6,29.55 131.8,26.35 130.8,22.55"/><path fill="#C12F3D" d="M126.2,47.55L128.6,45.15 127.6,40.15 124,38.55 120,39.35 117.6,43.95 118.2,46.35Q119.8,49.15 122,49.35L126.2,47.55"/><path fill="#C12F3D" d="M155.4,34.75L154.2,30.95Q153.2,29.35 151.2,29.15L147.2,30.15 145.2,33.35 145.8,37.35 149.4,39.95Q151,39.95 153.2,37.95L155.4,34.75"/><path fill="#C12F3D" d="M115.2,33.55L118.4,30.55 116.8,26.55Q115.8,24.75 113.8,24.55L109,25.75 107.2,29.35 108,32.75 112,34.55 115.2,33.55"/><path fill="#C12F3D" d="M111.2,47.95L109.8,44.15Q109.238,43.495 103.6,43.725L99.55,46.55 100.95,50.75 102.25,51.7Q106.199,49.863 111.2,47.95"/><path fill="#C12F3D" d="M166.85,61.55L164.85,58.55 160.85,58.15 157.2,59.95 156.4,63.8 158.2,66.4 162.05,68 165.85,65 166.85,61.55"/><path fill="#879A45" d="M170.85,29.35Q170.65,29.35 170.25,29.15 174.65,35.55 178.85,43.35L181.85,48.35Q181.85,48.55 181.85,48.75 182.05,48.95 182.45,49.35 182.85,49.75 183.05,50.55L186.45,57.15 186.85,57.95 186.65,57.75 188.85,62Q189.05,62.6 189.45,63.2L189.45,63.4Q190.05,64.6 192.25,68.6 194.45,72.6 199.65,85.2 205.05,97.6 207.45,103.8 207.45,104 207.65,104.2L207.65,104.25Q207.656,104.413 207.85,104.8 209.65,109.6 212.25,119 234.3,127.45 212.85,93.6 229.9,84 227.1,68 224.3,51.75 202.85,59.55 208.85,36.95 199.65,34.35 190.45,31.55 194.25,52.75 184.85,29.95 170.85,29.35"/><path fill="#BC303F" d="M178.85,43.35Q179.85,45.35 180.85,47.55 180.85,47.35 181.65,48.15L181.85,48.35 178.85,43.35"/><path fill="#C02D3B" d="M170.25,29.15Q145,-6.7 107.8,8.35 78.35,21.75 43.9,65.4 96.35,-9.9 138.8,1.5 149,3.9 159.2,14.15 164.45,18.95 170.85,29.35 170.65,29.35 170.25,29.15"/><path fill="#BC303F" d="M214.45,127.45Q214.05,125.85 213.65,124.05 212.25,120.85 214.45,127.45"/><path fill="#D25764" d="M162.05,68L165.85,65 166.85,61.55 164.85,58.55 160.85,58.15 157.2,59.95 156.4,63.8 158.2,66.4 162.05,68"/><path fill="#D25764" d="M130.8,22.55L127,20.75 124,21.55 121.8,25.35 122.8,28.75Q122.8,30.35 125.2,30.55L129.6,29.55 131.8,26.35 130.8,22.55"/><path fill="#D25764" d="M122,49.35L126.2,47.55 128.6,45.15 127.6,40.15 124,38.55 120,39.35 117.6,43.95 118.2,46.35Q119.8,49.15 122,49.35"/><path fill="#D25764" d="M151.2,29.15L147.2,30.15 145.2,33.35 145.8,37.35 149.4,39.95Q151,39.95 153.2,37.95L155.4,34.75 154.2,30.95Q153.2,29.35 151.2,29.15"/><path fill="#D25764" d="M115.2,33.55L118.4,30.55 116.8,26.55Q115.8,24.75 113.8,24.55L109,25.75 107.2,29.35 108,32.75 112,34.55 115.2,33.55"/><path fill="#D25764" d="M111.2,47.95L109.8,44.15Q108.6,42.75 106.2,42.35L104.4,43.15 99.55,46.55 100.95,50.75 104,52.95 108.8,51.35 111.2,47.95"/><path fill="#BC303F" d="M170.25,29.15Q145,-6.7 107.8,8.35 78.35,21.75 43.9,65.4 96.35,-9.9 138.8,1.5 149,3.9 159.2,14.15 164.45,18.95 170.85,29.35 170.65,29.35 170.25,29.15"/><path fill="#8B1821" d="M207.65,104.25Q207.653,104.605 207.85,105 216.45,144.85 200.25,171.65 187.65,192.3 158,201.9 187.05,194.5 193.45,191.3 194.85,190.3 195.85,189.3 224.9,172.25 214.45,127.45 212.25,120.85 213.65,124.05L213.85,124.25Q213.25,122.85 213.05,121.45 212.85,120.65 212.45,119.85 212.25,119.45 212.25,119 209.65,109.6 207.85,104.8 207.656,104.413 207.65,104.25"/><path fill="#667434" d="M184.25,52.95L186.85,57.95 186.65,57.75 188.85,62Q189.05,62.6 189.45,63.2L189.45,63.4Q190.05,64.6 192.25,68.6 194.45,72.6 199.65,85.2 205.05,97.6 207.45,103.8 207.45,104 207.65,104.2L207.65,104.25Q207.656,104.413 207.85,104.8 218.3,110.8 205.65,89 211.45,92.6 215.25,84.6 218.7,76.4 212.45,70.6 206.05,64.8 198.85,70.2 184.25,50.95 184.25,52.95"/></g></g><g mask="url(#mask_)"/><g mask="url(#mask_)"/><g mask="url(#mask_)" style="display:none;"><g id="Symbol_17" transform="matrix(1 0 0 1 -52.85 -207.85)"><animateTransform attributeName="transform" additive="replace" type="translate" fill="freeze" dur="4s" keyTimes="0;0.16;0.19;0.42;0.65;0.83;0.89;1" values="-52.85,-207.85;-52.85,-207.85;-52.85,-147.85;-51.85,-147.85;-53.85,-147.85;-52.85,-147.85;-52.85,-212.85;-52.85,-212.85"/><path fill="#4E2931" d="M8.2,43.3Q7.3,27.9 7.1,12.95 6.9,-2.05 4.55,0.35 2.2,2.75 2.05,16.85 1.85,30.95 1.3,45.6 0.75,60.25 0.1,71 -0.6,81.75 5.15,81.65 10.9,81.55 10,70.15 9.1,58.7 8.2,43.3"/><path fill="#997055" d="M8.1,33.7Q8.7,31.65 7.65,31.75 7.3,33 6.5,34.55 5.55,36.45 4,38.1 2.6,39.6 0.95,41.1 3.7,40.25 5.65,38 7.35,36.15 8.1,33.7"/><path fill="#997055" d="M8.35,43.75Q5.85,51.6 0.25,58.8 9.5,53.45 8.35,43.75"/><path fill="#997055" d="M9.3,59.3Q7.1,66.5 -0.15,74.7 10.9,68.8 9.3,59.3"/></g><animate attributeName="display" fill="freeze" repeatCount="1" dur="4s" keyTimes="0;0.16;0.9;1" values="none;inline;none;none"/></g><g mask="url(#mask_)"><g id="Symbol_18_l1" transform="matrix(1 0 0 1 -123.15 -78.9)"><g style="display:none;" id="Symbol 18_1.20"><path fill="#4E2931" d="M4.25,132.45Q3.1,132.25 2.25,131.8 0.95,135.8 1.25,138.9 2.05,145.3 10.1,148.5 15.35,149.9 19.2,148.25 24.85,155 35.8,160.55 35.85,160.3 35.9,160.1 37.9,150.9 37.3,148.1 36.1,142.7 31.9,137.1 26.9,130.65 20.3,126.85L12.7,125.85Q11.7,126.45 9.5,129.85 7.1,132.85 4.25,132.45"/><path fill="#997055" d="M9.9,115.45Q4.05,116.3 1.6,121.25 0.5,123.4 0.05,126.45 -0.15,128.05 0.25,129.45 0.75,131 2.25,131.8 3.1,132.25 4.25,132.45 7.1,132.85 9.5,129.85 11.7,126.45 12.7,125.85L20.3,126.85Q26.9,130.65 31.9,137.1 36.1,142.7 37.3,148.1 37.9,150.9 35.9,160.1 35.85,160.3 35.8,160.55 33.6,168.55 36.9,169.7 40.2,170.6 45.55,164.8 46,164.25 46.5,163.7 47.5,157.5 47.5,157.1 50.7,134.85 26.9,120.25 17.3,114.25 9.9,115.45"/><path fill="#4E2931" d="M35.1,86.65Q33.9,87.25 28.7,91.45 23.5,95.05 20.5,94.65 19.45,94.5 18.65,94.2 12.95,101.35 10.7,103.45 7.9,105.85 4.65,109.85 0.5,114.5 1.6,121.25 4.05,116.3 9.9,115.45 17.3,114.25 26.9,120.25 50.7,134.85 47.5,157.1 47.5,157.5 46.5,163.7 46,164.25 45.55,164.8 58.25,169.3 77.6,171.05 78.75,170 80.75,168.9 85.15,166.7 85.75,162.9 87.75,149.5 76.35,124.25 63.95,97.45 49.1,88.65L35.1,86.65"/><path fill="#783F4B" d="M19.3,95.85Q19.1,95.95 18.9,96.1 16.65,97.4 16.1,99.45 15.1,101.25 16.7,100.85 17.1,100.6 17.75,99.95 18.6,99.05 19.9,97.25 21.7,94.25 19.3,95.85"/><path fill="#783F4B" d="M10.7,109.85Q13.5,106.25 14.5,103.65 15.3,101.05 10.1,105.85 4.45,110.65 4.45,112.05 4.45,113.25 6.3,113.25 7.9,113.25 10.7,109.85"/><path fill="#997055" d="M15.5,90.85Q16.1,93.25 18.65,94.2 19.45,94.5 20.5,94.65 23.5,95.05 28.7,91.45 33.9,87.25 35.1,86.65L49.1,88.65Q63.95,97.45 76.35,124.25 87.75,149.5 85.75,162.9 85.15,166.7 80.75,168.9 78.75,170 77.6,171.05 76.15,172.4 75.95,173.7 75.75,175.3 76.15,176.5 76.95,179.1 80.15,179.5 86.55,180.5 91.35,174.5 92.2,173.4 93,172 95.55,167.35 97.55,159.1 100.15,148.1 96.55,133.85 92.95,119.65 85.95,110.45 78.55,101.05 73.55,96.25 68.15,91.25 59.5,85.05 44.1,73.4 29.1,77.4 26.85,77.95 25,78.6 16.3,81.7 15.5,87.45 15.5,87.65 15.5,90.85"/><path fill="#4E2931" d="M44.6,40.8Q44.4,41.4 43.9,41 43.1,40.6 30.3,65.6 27.55,71.95 25,78.6 26.85,77.95 29.1,77.4 44.1,73.4 59.5,85.05 68.15,91.25 73.55,96.25 78.55,101.05 85.95,110.45 92.95,119.65 96.55,133.85 100.15,148.1 97.55,159.1 95.55,167.35 93,172 107.3,172.45 124.4,171.7 127.35,171.6 130.2,171.5 131.65,169.85 134.2,167.1 140.2,161.3 141.2,153.3 147,113.85 101.75,72.2 78.95,52.4 58.9,49.6 46.1,47.8 44.6,40.8"/><path fill="#997055" d="M136.2,90.05Q127.2,73.4 107.55,55.8 88.15,38 81.75,34.6 75.35,30.6 64.75,23 58.5,18.6 53.3,22.25 49.65,24.75 46.5,31.2 43.75,36.8 44.6,40.8 46.1,47.8 58.9,49.6 78.95,52.4 101.75,72.2 147,113.85 141.2,153.3 140.2,161.3 134.2,167.1 131.65,169.85 130.2,171.5 128.3,173.55 128.2,173.9 128,175.7 128.4,176.7 129.8,179.5 134.8,180.1 144.2,181.45 148.25,170.35 148.35,170.1 148.4,169.9 149.4,166.9 151.2,155.5 153.8,136.9 149.4,122.05 145.2,106.85 136.2,90.05"/><path fill="#4E2931" d="M107.55,55.8Q127.2,73.4 136.2,90.05 145.2,106.85 149.4,122.05 153.8,136.9 151.2,155.5 149.4,166.9 148.4,169.9 148.35,170.1 148.25,170.35 200.9,165.85 205.85,150.1 211.65,130.85 151.4,157.3 183.25,83.25 130.8,30.6 78.55,-22.05 62.1,15.95 58.6,16.3 53.3,22.25 58.5,18.6 64.75,23 75.35,30.6 81.75,34.6 88.15,38 107.55,55.8"/><animate attributeName="display" fill="freeze" repeatCount="1" dur="4s" keyTimes="0;0.2;1" values="none;inline;inline"/><animate attributeName="mask" repeatCount="1" dur="4s" keyTimes="0;0.2;1" values="none;url(#mask_1);url(#mask_1)" fill="freeze"/></g><mask id="mask_1"><g style="display:none;"><g id="Symbol_20" transform="matrix(1 0 0 1 64.05 -0.3)"><animateTransform attributeName="transform" additive="replace" type="translate" fill="freeze" dur="4s" keyTimes="0;0.2;0.68;0.79;1" values="76.05,11.9;76.05,11.9;74.637,93.446;74.178,99.559;74.178,99.559"/><animateTransform attributeName="transform" additive="sum" type="rotate" fill="freeze" dur="4s" keyTimes="0;0.2;0.68;0.79;1" values="0,0,0;0,0,0;-6.097,0,0;0,0,0;0,0,0"/><animateTransform attributeName="transform" additive="sum" type="skewY" fill="freeze" dur="4s" keyTimes="0;0.2;0.68;0.79;1" values="0;0;6.097;0;0"/><animateTransform attributeName="transform" additive="sum" type="scale" fill="freeze" dur="4s" keyTimes="0;0.2;0.68;0.79;1" values="1,1;1,1;8.685,8.149;13.473,8.497;13.473,8.497"/><animateTransform attributeName="transform" additive="sum" type="scale" fill="freeze" dur="4s" keyTimes="0;0.2;0.68;0.79;1" values="1,1;1,1;0.994,1;1,1;1,1"/><animateTransform attributeName="transform" additive="sum" type="translate" fill="freeze" dur="4s" keyTimes="0;0.2;0.68;0.79;1" values="-12,-12.2;-12,-12.2;-12,-12.15;-12.1,-12.2;-12.1,-12.2"/><path fill="#FFF" d="M24,11.4Q24,0 15.25,0 10.95,0 5.5,4.45 0,8.9 0,12.65 -0.004,16.8 2.725,21.925 5.463,27.049 10.55,26.65 15.637,26.25 19.825,21.725 24.004,17.2 24,11.4" fill-opacity="1"/></g><animate attributeName="display" fill="freeze" repeatCount="1" dur="4s" keyTimes="0;0.2;1" values="none;inline;inline"/></g></mask></g></g><g mask="url(#mask_)"><g id="Symbol_16" transform="matrix(1 0 0 1 -114.85 94.6)"><path fill="#4E2931" d="M204.15,15.2Q204.15,14.8 204.15,14.6L204.15,14.2Q204.15,13.4 200.35,9.8 196.55,6.2 191.35,6 185.95,5.6 178.15,11 170.1,16.4 176.35,17.8 182.35,19 186.15,19.6L195.75,19.6Q195.95,19.4 200.75,18.6 204.15,17.8 204.15,15.2"/><path fill="#4E2931" d="M149.1,6.4Q145.3,11.2 157.9,11.8 170.55,12.4 169.1,7 169.1,4.8 161.1,3.2 152.9,1.4 149.1,6.4"/><path fill="#4E2931" d="M129.7,35.45L136.7,35.45Q140.7,33.85 140.7,31.05 140.7,29.65 139.9,28.85 139.3,28.25 136.1,26.65 130.9,25.65 127.1,28.05 123.9,29.65 123.9,31.25 123.9,32.65 124.5,33.25 125.7,34.45 129.7,35.45"/><path fill="#4E2931" d="M50.6,8.2Q56.85,7 56.85,5.8 56.85,-0.2 49.8,0 42.8,0.2 42.8,5.6L42.8,7.2Q43.6,8.4 47,8.4 49.4,8.4 50.6,8.2"/><path fill="#4E2931" d="M55.45,19.6Q53.4,14.4 40.6,11.8 27.4,9.2 23.4,19 21.2,23.85 24.6,25.45 26.8,25.85 34.6,26.45L48.2,26.45Q56.05,25.65 56.65,25.25 57.25,24.85 55.45,19.6"/><path fill="#4E2931" d="M73.05,29.65Q73.05,28.65 72.65,28.25 72.25,27.85 70.05,26.85 66.85,26.25 64.45,27.65 62.25,28.65 62.25,29.85 62.25,30.65 62.65,31.05 63.45,31.85 66.05,32.45L70.45,32.45Q73.05,31.45 73.05,29.65"/><path fill="#4E2931" d="M17.4,14Q17.6,13.8 17.6,11.6 17.6,5.4 8.8,6 0,6.6 0,12 0,15.4 10,15.4 16.2,15.4 17.4,14"/></g></g><g mask="url(#mask_)"><g style="display:none;"><g id="Symbol_15" transform="matrix(1 0 0 1 -113.65 -72.95)"><path fill="#FFF" d="M181.35,181.55Q181.55,179.95 183.35,178.95 185.35,177.95 185.35,177.35L185.15,176.35Q183.55,176.35 180.15,178.15 176.95,179.95 176.95,180.55L177.15,181.55 179.35,181.75 181.35,181.55"/><path fill="#FFF" d="M59.25,5Q54.05,9.8 56.25,14 56.65,14.8 57.05,15.85L57.05,15.25Q62.65,11.2 63.65,10.2 65.45,8.6 69.05,4.4 72.65,0 68.45,0 64.25,0 59.25,5"/><path fill="#FFF" d="M1.4,180.15Q4.4,176.75 4.4,176.35 4.2,175.95 4.2,175.55 2.8,175.55 1.4,176.55 0,177.55 0,178.35 0,179.35 1.4,180.15"/><path fill="#FFF" d="M31.6,184.15Q31.6,180.75 28.4,182.15 25.2,183.75 25.2,186.55L25.2,188Q25.4,189 27,189 27.8,189 29.6,187.15 31.6,185.35 31.6,184.15"/></g><animate attributeName="display" fill="freeze" repeatCount="1" dur="4s" keyTimes="0;0.2;1" values="none;inline;inline"/></g><g><g id="Symbol_15_copy" transform="matrix(1 0 0 1 -113.65 -72.95)"><path fill="#FFF" d="M181.35,181.55Q181.55,179.95 183.35,178.95 185.35,177.95 185.35,177.35L185.15,176.35Q183.55,176.35 180.15,178.15 176.95,179.95 176.95,180.55L177.15,181.55 179.35,181.75 181.35,181.55"/><path fill="#FFF" d="M1.4,180.15Q4.4,176.75 4.4,176.35 4.2,175.95 4.2,175.55 2.8,175.55 1.4,176.55 0,177.55 0,178.35 0,179.35 1.4,180.15"/><path fill="#FFF" d="M25.2,186.55L25.2,188Q25.4,189 27,189 27.8,189 29.6,187.15 31.6,185.35 31.6,184.15 31.6,180.75 28.4,182.15 25.2,183.75 25.2,186.55"/></g><animate attributeName="display" fill="freeze" repeatCount="1" dur="4s" keyTimes="0;0.2;1" values="inline;none;none"/></g></g><mask id="mask_"><path fill="#FFF" d="M120.75,-101.75Q102.5,-121.8 88.5,-110.55 81.1,-132.8 29.85,-143 -21.6,-153.2 -82.65,-78.15 -143.7,-2.9 -145.9,36.75 -148.1,76.2 -125.7,83.6 -161.1,116.25 -121.1,129.85 -81.25,143.65 -33.6,144.25 14.05,144.85 65.9,140.85 117.55,136.85 136.15,114.4 154.55,92 127.75,61.8 145.75,32.55 146.15,-20.5 146.35,-73.55 120.75,-101.75 M-83.65,108.6L-83.65,108.4 -83.45,108.4 -83.65,108.6" fill-opacity="1"/></mask></g></g></svg>