<?xml version="1.0" encoding="utf-8"?><svg id="1015" image-rendering="auto" baseProfile="basic" version="1.1" x="0px" y="0px" width="300" height="300" xmlns="http://www.w3.org/2000/svg" xmlns:xlink="http://www.w3.org/1999/xlink"><defs><radialGradient gradientUnits="userSpaceOnUse" color-interpolation="sRGB" r="118.668" cx="106.4" cy="105.2" fx="121.292" fy="105.2" gradientTransform="matrix(1 0 0 1 0 0)" id="radialGradient"><stop stop-color="#CE3949" stop-opacity="1" offset="0.40784"/><stop stop-color="#AA2B37" stop-opacity="1" offset="0.89412"/><stop stop-color="#AA2B37" stop-opacity="1" offset="0.97647"/></radialGradient><radialGradient gradientUnits="userSpaceOnUse" color-interpolation="sRGB" r="106.516" cx="116.25" cy="70.95" fx="129.617" fy="70.95" gradientTransform="matrix(0.966 0.259 -0.266 0.996 22.8 -29.85)" id="radialGradient1"><stop stop-color="#CE3949" stop-opacity="1" offset="0.40784"/><stop stop-color="#AA2B37" stop-opacity="1" offset="0.89412"/><stop stop-color="#AA2B37" stop-opacity="1" offset="0.97647"/></radialGradient><radialGradient gradientUnits="userSpaceOnUse" color-interpolation="sRGB" r="106.467" cx="46.5" cy="27.7" fx="59.861" fy="27.7" gradientTransform="matrix(0.968 0.251 -0.257 0.999 8.6 -11.65)" id="radialGradient2"><stop stop-color="#CE3949" stop-opacity="1" offset="0.40784"/><stop stop-color="#AA2B37" stop-opacity="1" offset="0.89412"/><stop stop-color="#AA2B37" stop-opacity="1" offset="0.97647"/></radialGradient></defs><g id="Symbol_14_l1" overflow="visible" transform="matrix(1 0 0 1 4 16.25)"><g id="Symbol_13_l1" transform="matrix(1 0 0 1 146 133.75)"><path fill="none" stroke="#000" stroke-opacity="0.251" stroke-width="6" stroke-linecap="round" stroke-linejoin="round" d="M13.9,-63.1Q14.5,-64.3 14.1,-66.7 8.5,-91.95 -2.5,-107.75 -4.5,-110.75 -6.5,-113.35 -8.3,-115.35 -10.1,-117.15 -23.9,-131.15 -44.3,-133.35 -51.7,-134.15 -59.7,-133.35 -71.9,-132.15 -85.7,-127.75 -93.95,-124.75 -100.95,-121.15 -137.15,-103.55 -144.35,-74.3 -152.95,-39.7 -116.55,31.95 -109.55,44.55 -100.95,57.95 -78.1,92.95 -43.5,133.75 -42.7,133.15 -41.5,133.15 46.15,101.95 94.15,66.55 121.35,45.95 135.8,24.1 137.4,20.5 138.8,16.9 153.2,-20.9 138.8,-51.3 137.4,-54.3 135.8,-57.1 133.2,-61.5 131.6,-64.1 128.35,-69.3 122.55,-75.3 88.95,-109.75 13.9,-63.1"/><path fill="#FFF" d="M13.9,-63.1Q14.5,-64.3 14.1,-66.7 8.5,-91.95 -2.5,-107.75 -4.5,-110.75 -6.5,-113.35 -8.3,-115.35 -10.1,-117.15 -23.9,-131.15 -44.3,-133.35 -51.7,-134.15 -59.7,-133.35 -71.9,-132.15 -85.7,-127.75 -93.95,-124.75 -100.95,-121.15 -137.15,-103.55 -144.35,-74.3 -152.95,-39.7 -116.55,31.95 -109.55,44.55 -100.95,57.95 -78.1,92.95 -43.5,133.75 -42.7,133.15 -41.5,133.15 46.15,101.95 94.15,66.55 121.35,45.95 135.8,24.1 137.4,20.5 138.8,16.9 153.2,-20.9 138.8,-51.3 137.4,-54.3 135.8,-57.1 133.2,-61.5 131.6,-64.1 128.35,-69.3 122.55,-75.3 88.95,-109.75 13.9,-63.1"/><g><g id="Symbol_14" transform="matrix(1 0 0 1 -32.4 -65.6)"><animateTransform attributeName="transform" additive="replace" type="translate" dur="1.2s" keyTimes="0;0.433;0.5;0.567;1" values="-30.45,-66.25;-30.45,-66.25;-33.05,-65.6;-32.4,-65.6;-32.4,-65.6"/><path fill="#942530" d="M31.15,59.15L31.3,63.9Q33.1,66.5 57.35,80.3 63.75,83.8 68.1,86.2 72.2,85.55 75.35,85.1 70.95,83.1 56.95,75.1 34.5,62.3 31.15,59.15"/><path fill="#942530" d="M55.95,44.9Q51.7,32.3 51.7,30.1 51.85,29.95 51.95,29.85 49.45,31.6 49.1,31.9 53.5,47.15 55.9,57.3L59.55,57.1Q60.35,57.5 55.95,44.9"/><path fill="#942530" d="M148.35,67.9Q149.15,61.3 148.55,54.9 148.35,54.5 148.35,53.7 148.2,52.7 148.05,51.75 148.65,57.3 147.95,62.7 141.35,119.15 1,159.1 0.7,162.25 0.5,164.35 0.3,164.35 0.5,164.55 141.75,124.55 148.35,67.9"/><path fill="url(#radialGradient2)" d="M139.35,24.9Q135.75,18.5 131.95,13.7 105.35,-18.35 57.55,24.7 54.5,27.2 51.95,29.85 51.85,29.95 51.7,30.1 51.7,32.3 55.95,44.9 60.35,57.5 59.55,57.1L55.9,57.3 30.7,58.7Q30.85,58.9 31.15,59.15 34.5,62.3 56.95,75.1 70.95,83.1 75.35,85.1 72.2,85.55 68.1,86.2 48.15,89.3 5.5,97.1 5.7,100.75 2.7,133.95 0.5,152.15 0.1,159.15 -0.1,159.15 0.1,159.35 0.55,159.2 1,159.1 141.35,119.15 147.95,62.7 148.65,57.3 148.05,51.75 147.9,50.7 147.75,49.7 147.75,49.3 147.75,48.7 146.35,39.3 141.75,29.1 140.15,26.7 139.35,24.9"/></g><animate attributeName="display" repeatCount="1" dur="1.2s" keyTimes="0;0.433;1" values="none;inline;none"/></g><g><g id="Symbol_13" transform="matrix(1 0 0 1 -125.55 -114.45)"><animateTransform attributeName="transform" additive="replace" type="translate" dur="1.2s" keyTimes="0;0.433;0.5;0.567;1" values="-126.85,-115.75;-126.85,-115.75;-124.9,-114.45;-125.55,-114.45;-125.55,-114.45"/><path fill="#84222C" d="M77.45,139.55Q77.4,140.65 77.35,141.85 76.35,161.7 74.65,207.6 75.05,205.9 76.25,195.4 76.95,186.1 82.1,152.8 82.85,148.1 83.65,142.95 96.5,140.7 107.2,138.85 116.15,137.3 123.6,136.1 131.75,134.8 138.1,133.85 139.75,133.55 141.25,133.35 141.1,133.3 141,133.2 138.15,131.7 135.2,129.9 116.7,132.65 97.45,136.35 84.45,138.35 77.45,139.55"/><path fill="url(#radialGradient1)" d="M104.65,17.1Q101.5,13.2 97.75,10.2 80.25,-3.65 48.85,1.3 9.6,14.3 2,46.15 -3.4,67.95 5.8,98.55 8.2,106.15 11.8,114.75 24,140.75 44.25,172.2 50.05,181 74.65,207.8 74.65,207.7 74.65,207.6 76.35,161.7 77.35,141.85 77.4,140.65 77.45,139.55 84.45,138.35 97.45,136.35 116.7,132.65 135.2,129.9 135.7,129.85 136.25,129.75 128.75,125.8 120.4,120.2 118.25,118.75 116.05,117.2 105.45,109.75 93.45,99.75L122.85,98.15 121.05,73.35Q120.65,64.55 119.65,56.55 117.25,37.35 110.05,24.5 107.85,20.3 104.65,17.1"/><path fill="#84222C" d="M109.65,20.5Q104.55,14.2 97.75,10.2 101.5,13.2 104.65,17.1 107.85,20.3 110.05,24.5 117.25,37.35 119.65,56.55 120.65,64.55 121.05,73.35L122.85,98.15 93.45,99.75Q105.45,109.75 116.05,117.2 118.25,118.75 120.4,120.2 118.4,118.75 116.4,117.3 107.85,111 98.45,103.15L127.85,101.75 125.85,76.75Q125.65,67.95 124.65,59.95 122.25,40.75 115.05,27.9 112.65,23.9 109.65,20.5"/><path fill="#FCF1F3" d="M90.45,16.3Q93.45,18.5 93.85,18.9 97.05,15.7 83.85,7.3 70.85,-0.9 66.05,3.9L66.25,7.3Q84.25,11.7 90.45,16.3"/><path fill="#FCF1F3" d="M58.05,5.9Q54.85,1.5 52.65,1.3 51.45,1.3 49.65,3.1 48.45,4.3 48.25,4.5 47.65,5.9 49.65,7.9 50.45,8.7 52.85,9.1 55.65,9.5 57.05,8.1 58.05,7.1 58.05,6.7 57.85,6.1 58.05,5.9"/></g><animate attributeName="display" repeatCount="1" dur="1.2s" keyTimes="0;0.433;1" values="none;inline;none"/></g><g style="display:none;"><g id="Symbol_12" transform="matrix(1 0 0 1 -112.55 -114.45)"><animateTransform attributeName="transform" additive="replace" type="translate" dur="1.2s" keyTimes="0;0.299;0.3;0.333;0.334;0.366;0.367;0.399;0.4;1" values="-112.55,-114.45;-112.55,-114.45;-112.55,-116.05;-112.55,-116.05;-112.55,-114.45;-112.55,-114.45;-112.55,-116.05;-112.55,-116.05;-112.55,-114.45;-112.55,-114.45" calcMode="discrete"/><path fill="#FCF1F3" d="M93.85,18.9Q97.05,15.7 83.85,7.3 70.85,-0.9 66.05,3.9L66.25,7.3Q84.25,11.7 90.45,16.3 93.45,18.5 93.85,18.9"/><path fill="#FCF1F3" d="M52.65,1.3Q51.45,1.3 49.65,3.1 48.45,4.3 48.25,4.5 47.65,5.9 49.65,7.9 50.45,8.7 52.85,9.1 55.65,9.5 57.05,8.1 58.05,7.1 58.05,6.7 57.85,6.1 58.05,5.9 54.85,1.5 52.65,1.3"/><path fill="#84222C" d="M110.7,151.45Q110.738,151.338 110.8,151.25 109.469,152.505 108.075,153.85 109.425,152.613 110.7,151.45"/><path fill="#942530" d="M125.45,73.4Q125.75,73.25 126,73.1 126.15,72.95 126.25,72.85 126,73.05 125.75,73.2 125.6,73.3 125.45,73.4"/><path fill="#84222C" d="M109.65,20.5Q104.55,14.2 97.75,10.2 101.5,13.2 104.65,17.1 107.85,20.3 110.05,24.5 117.25,37.35 119.65,56.55 120.65,64.55 121.05,73.35L121.35,77.5Q124.1,74.35 125.45,73.4 125.6,73.3 125.75,73.2 125.45,66.35 124.65,59.95 122.25,40.75 115.05,27.9 112.65,23.9 109.65,20.5"/><path fill="#84222C" d="M75.3,202.1Q75.05,202.15 74.85,202.25 74.75,204.85 74.65,207.6 74.75,207.15 74.95,206.05 75.1,204.35 75.3,202.1"/><path fill="#942530" d="M222.65,96.7Q222.5,95.7 222.35,94.75 222.95,100.3 222.25,105.7 215.65,162.1 75.45,202.05 75.4,202.1 75.3,202.1 75.1,204.35 74.95,206.05 74.85,206.75 74.8,207.35 74.6,207.35 74.8,207.55 216.05,167.55 222.65,110.9 223.45,104.3 222.85,97.9 222.65,97.5 222.65,96.7"/><path fill="url(#radialGradient)" d="M213.65,67.9Q210.05,61.5 206.25,56.7 179.65,24.65 131.85,67.7 128.8,70.2 126.25,72.85 126.15,72.95 126,73.1 125.75,73.25 125.45,73.4 124.1,74.35 121.35,77.5L121.05,73.35Q120.65,64.55 119.65,56.55 117.25,37.35 110.05,24.5 107.85,20.3 104.65,17.1 101.5,13.2 97.75,10.2 80.25,-3.65 48.85,1.3 9.6,14.3 2,46.15 -3.4,67.95 5.8,98.55 8.2,106.15 11.8,114.75 24,140.75 44.25,172.2 50.05,181 74.65,207.8 74.65,207.7 74.65,207.6 74.75,204.85 74.85,202.25 75.05,202.15 75.3,202.1 75.4,202.1 75.45,202.05 215.65,162.1 222.25,105.7 222.95,100.3 222.35,94.75 222.2,93.7 222.05,92.7 222.05,92.3 222.05,91.7 220.65,82.3 216.05,72.1 214.45,69.7 213.65,67.9"/><g id="Symbol_15" transform="matrix(1 0 0 1 48.1 1.3)"><path fill="#FCF1F3" d="M42.35,15Q45.35,17.2 45.75,17.6 48.95,14.4 35.75,6 22.75,-2.2 17.95,2.6L18.15,6Q36.15,10.4 42.35,15"/><path fill="#FCF1F3" d="M4.55,0Q3.35,0 1.55,1.8 0.35,3 0.15,3.2 -0.45,4.6 1.55,6.6 2.35,7.4 4.75,7.8 7.55,8.2 8.95,6.8 9.95,5.8 9.95,5.4 9.75,4.8 9.95,4.6 6.75,0.2 4.55,0"/></g></g><animate attributeName="display" repeatCount="1" dur="1.2s" keyTimes="0;0.433;1" values="inline;none;none"/></g><g style="display:none;"><path fill="#942530" d="M40.5,-57.6L40.5,-57.55Q39.2,-57.3 38.9,-56.1 38.9,-56.05 38.95,-56.05 40.6,-55.55 41.45,-57.05 41.45,-57.1 41.4,-57.15 41.15,-57.7 40.5,-57.6"/><path fill="#942530" d="M0.4,-62.45Q0,-59.4 0.45,-62.5L0.4,-62.45"/><path fill="#942530" d="M18.3,-17.4Q17.3,-17.05 17.6,-16.15 17.7,-16.1 17.75,-16.1 19.6,-16.5 18.3,-17.4"/><path fill="#942530" d="M-1.45,-72.85Q-1.65,-72.8 -1.7,-72.7 -2.7,-70.3 -0.35,-70.1 -0.3,-70.2 -0.3,-70.25 0.05,-72.05 -1.45,-72.85"/><path fill="#942530" d="M-16.1,-8.7L-16.1,-8.65Q-17.7,-7.3 -15.4,-7.25 -15.35,-7.35 -15.3,-7.45 -15.1,-8.4 -16.1,-8.7"/><path fill="#942530" d="M-68.3,97.5Q-68.45,97.5 -68.65,97.55 -69.55,97.8 -69.6,98.55L-69.6,98.6Q-68.15,99.05 -66.8,98.2 -66.8,98.15 -66.85,98.1 -67.25,97.2 -68.3,97.5"/><path fill="#942530" d="M-33.15,70.3Q-33.3,70.3 -33.4,70.35 -33.85,70.4 -34,70.8 -33.85,71.7 -33,72.05 -32.9,72 -32.8,71.9 -31.8,70.9 -33.15,70.3"/><animate attributeName="display" repeatCount="1" dur="1.2s" keyTimes="0;0.5;0.533;1" values="none;inline;none;none"/></g><g style="display:none;"><path fill="#942530" d="M3.5,-63.05Q4.2,-66.65 1.15,-68.25 0.8,-68.15 0.7,-67.9 -1.3,-63.1 3.4,-62.75 3.5,-62.9 3.5,-63.05"/><path fill="#942530" d="M0.45,-62.5L0.4,-62.45Q0,-59.4 0.45,-62.5"/><path fill="#942530" d="M33.05,-53.85L33.05,-53.8Q29.75,-53.1 28.95,-50.15 29,-50 29.1,-49.95 33.25,-48.65 35.4,-52.5 35.35,-52.65 35.25,-52.75 34.6,-54.1 33.05,-53.85"/><path fill="#942530" d="M16.5,-18.5L16.5,-18.45Q13.8,-17.55 14.65,-15.1 14.85,-14.95 15,-15 20,-16.05 16.5,-18.5"/><path fill="#942530" d="M-13.25,-9.4L-13.25,-9.35Q-16.45,-6.6 -11.8,-6.55 -11.7,-6.7 -11.65,-6.9 -11.2,-8.85 -13.25,-9.4"/><path fill="#942530" d="M-62.4,96.35Q-62.9,96.4 -63.5,96.55 -65.95,97.25 -66.2,99.35 -66.15,99.5 -66.1,99.55 -62,100.8 -58.2,98.4 -58.2,98.25 -58.25,98.1 -59.4,95.6 -62.4,96.35"/><path fill="#942530" d="M-35.1,68.75Q-35.4,68.8 -35.7,68.85 -36.95,69 -37.35,70.1 -36.95,72.55 -34.7,73.55 -34.35,73.45 -34.15,73.2 -31.4,70.35 -35.1,68.75"/><animate attributeName="display" repeatCount="1" dur="1.2s" keyTimes="0;0.467;0.5;1" values="none;inline;none;none"/></g><g style="display:none;"><path fill="#942530" d="M6.3,-55.3Q6,-55.25 5.9,-55.1 2.85,-50.25 8.05,-47.6 8.2,-47.7 8.25,-47.85 10.95,-52.55 6.3,-55.3"/><path fill="#942530" d="M15.3,-22.7Q14.45,-22.65 13.95,-21.85 13.55,-21.2 13.6,-20.45 16.35,-17.8 18.1,-21.05 18.1,-21.2 18.05,-21.3 17.35,-23.1 15.3,-22.7"/><path fill="#942530" d="M18.25,-47.35Q17.2,-46.45 17.95,-46.3 27.7,-44.3 23.1,-50.55 20.5,-49.4 18.25,-47.35"/><path fill="#942530" d="M14.5,10.7Q14.15,10.85 13.55,11 12.7,11.3 12.35,12.1 12.35,12.25 12.4,12.35 14.65,16.7 17.45,12.95 17.45,12.8 17.4,12.7 16.6,10.8 14.5,10.7"/><path fill="#942530" d="M-32.4,33.65Q-32.7,33.7 -33,33.8 -35.85,34.45 -36,37.1 -35.95,37.25 -35.9,37.25 -27.75,39.05 -32.4,33.65"/><path fill="#942530" d="M-32.85,67.05Q-31.85,62.45 -35.5,60.15 -35.9,60.25 -36.3,60.4 -36.9,60.65 -37.1,61.2 -37.45,67 -33,67.4 -32.9,67.25 -32.85,67.05"/><path fill="#942530" d="M-35.15,92.4Q-35.4,92.45 -35.9,92.6 -36.5,92.8 -36.8,93.35 -37.25,97.3 -33.75,98.15 -33.65,98.1 -33.6,98 -30.95,94.35 -35.15,92.4"/><animate attributeName="display" repeatCount="1" dur="1.2s" keyTimes="0;0.433;0.467;1" values="none;inline;none;none"/></g></g></g></svg>