<?xml version="1.0" encoding="utf-8"?><svg id="1012" image-rendering="auto" baseProfile="basic" version="1.1" x="0px" y="0px" width="1020" height="660" xmlns="http://www.w3.org/2000/svg" xmlns:xlink="http://www.w3.org/1999/xlink"><defs><symbol id="ear" overflow="visible"><path fill="#FFCB99" d="M13.9,2.4Q12.35,1.25 10.4,0.3 5.85,-1.65 3.6,2.75 2.1,5.6 2.1,8.8 2.1,11.1 3.15,12.8 5.2,16.15 10.65,16.15 14.55,16.15 18.7,8.95 19,9.15 18.75,8.55 18.5,7.95 17.15,5.85 15.75,3.75 13.9,2.4"/><path fill="#E28C36" fill-opacity="0.8" d="M6.15,9.45Q6.75,8.25 8.8,9.45 10.75,10.6 11.75,12.2 11.95,10.8 9.5,8.4 7.7,6.65 6.5,6.65 6,6.65 5.65,6.95 4.25,7.95 4.2,8.9 4.2,9 4.2,9.1 4.2,9.85 4.75,10.15 5.5,10.55 6.15,9.45"/>
</symbol><symbol id="eye_g" overflow="visible"><path fill="#744236" d="M10.65,6.7L10.675,6.7Q9.801,4.846 7.95,4.225 6.099,3.564 4.3,4.55 3.682,4.871 3.2,5.325 2.328,6.145 1.925,7.4 1.537,8.647 1.775,9.825 1.913,10.5 2.25,11.15 3.163,13.004 5,13.625 6.903,14.234 8.6,13.3 10.352,12.388 10.975,10.45 11.582,8.498 10.65,6.7"/><path fill="#FFF" d="M10.45,6.8L10.425,6.8Q9.599,5.054 7.85,4.475 6.101,3.836 4.4,4.75 3.581,5.192 3.025,5.875 2.465,6.564 2.175,7.5 1.883,8.411 1.95,9.275 2.01,10.187 2.45,11.05 3.337,12.796 5.1,13.375 6.897,13.966 8.5,13.1 10.148,12.212 10.725,10.35 11.318,8.502 10.45,6.8"/><path fill="#696" d="M4.15,4.9Q3.25,5.1 2.75,5.9 2.4,6.45 2.35,6.95 2.35,7.15 2.35,7.35 2.35,7.5 2.35,7.6 2.5,8.5 3.25,9.05 3.95,9.5 4.85,9.25 5.75,9.05 6.25,8.25 6.75,7.4 6.65,6.5 6.5,5.6 5.75,5.1 5,4.65 4.15,4.9"/><path fill="#000" d="M5.7,6.6Q5.6,6.05 5.3,5.7 4.9,5.2 4.25,5.25 3.65,5.25 3.3,5.65 2.85,6.05 2.8,6.65 2.85,7.2 3.35,7.6 3.65,7.95 4.25,8 4.85,8 5.2,7.6 5.6,7.2 5.7,6.6"/><path fill="#000" d="M7.9,15.4Q7.65,15 7.55,15.8L7.5,16.7Q7.6,16.9 8.1,16.8 8.55,16.65 8.35,16.2 8.1,15.75 7.9,15.4"/><path fill="#000" d="M3.8,15.55Q4,15.85 4.2,15.85 4.3,15.9 4.45,15.25 4.55,14.6 4.5,14.55 4.3,14.2 3.95,14.75 3.55,15.25 3.8,15.55"/><path fill="#000" d="M12.1,15.05Q12.3,14.95 12.4,14.85 12.55,14.65 11.95,14.25 11.531,13.936 11.275,13.875 11.176,13.835 11.1,13.85 10.8,13.85 11,14.2 11.04,14.26 11.125,14.35 11.239,14.509 11.45,14.75 11.95,15.15 12.1,15.05"/><path fill="#FFF" d="M6.05,6.75Q6,6.6 5.85,6.45 5.65,6.3 5.55,6.35 5.3,6.4 5.25,6.65 5.05,6.75 5.15,7 5.15,7.1 5.3,7.3 5.5,7.45 5.7,7.35 5.95,7.3 6.05,7.1 6.15,7 6.05,6.75"/>
</symbol></defs><g id="op_l1" overflow="visible" transform="matrix(3.865 0 0 3.865 1364.75 741.35)"><g id="1" transform="matrix(1 0 0 1 -349.3 -188.35)"><path fill="none" stroke="#000" stroke-opacity="0.251" stroke-width="2" stroke-linecap="round" stroke-linejoin="round" d="M246.8,92.4Q247.9,90.1 248.65,87.95 251.05,81.15 251.35,61.55 251.65,41.95 249.15,27.4 246.6,12.8 233.55,6.8 219.5,-0.35 204.65,6.2 202.9,5.3 197.4,3.5 184.45,-0.65 171.55,3.65 168.25,5 165.05,7.65 160.4,11.4 159.6,13.85 158.3,13.15 156.6,12.35 153.8,11.05 143.85,7.6 127.9,1 86.05,4.55 85.35,4.6 84.65,4.7 84.55,4.7 81.05,3.15 77.5,1.6 72.25,0.65 66.95,-0.35 58.2,0.2 49.4,0.75 42.95,3.2 36.5,5.55 32.2,8.15 18.95,16.05 11.95,25.4L12,25.35Q4.8,34.8 1.75,46.3 -1.3,57.75 1,68.4 1.05,68.55 1.05,68.7 2.35,77.05 8.9,88.4 9.65,89.7 15.7,100.35 15.55,100.5 15.45,100.7 15.35,100.85 15.25,101.05 11.8,106.15 11.8,114.75 11.8,114.85 12.2,118.15 13,122 14.55,125.2 17.5,131.2 22.7,133.65 22.35,133.75 21.95,133.85 14,136.25 8.85,140 3.2,144.15 2.6,149.55 2.7,148.45 2.75,148.2 1.6,151.8 5.35,155.4 11.2,161.15 40.15,161.5 69.15,161.85 74,161.6 75.4,161.95 87.9,161.95 100.4,161.9 143.45,162.15 186.55,162.4 194.55,162.3 202.5,162.15 209.8,162 217.1,161.8 226.3,161.5 235.45,161.15 238.7,159.05 241.95,156.9 243.75,153.65 245.5,150.35 245.35,144.7 245.2,139 242.05,135.1 239.65,132.25 236.2,130.55 238.45,128.45 239.9,124.75 241.95,119.7 241.95,115.1 241.95,110.35 238.3,105.95 236.55,103.9 234.4,102.3 243.3,99.8 246.8,92.4"/><path fill="#FFF" d="M248.65,87.95Q251.05,81.15 251.35,61.55 251.65,41.95 249.15,27.4 246.6,12.8 233.55,6.8 219.5,-0.35 204.65,6.2 202.9,5.3 197.4,3.5 184.45,-0.65 171.55,3.65 168.25,5 165.05,7.65 160.4,11.4 159.6,13.85 158.3,13.15 156.6,12.35 153.8,11.05 143.85,7.6 127.9,1 86.05,4.55 85.35,4.6 84.65,4.7 84.55,4.7 81.05,3.15 77.5,1.6 72.25,0.65 66.95,-0.35 58.2,0.2 49.4,0.75 42.95,3.2 36.5,5.55 32.2,8.15 18.95,16.05 11.95,25.4L12,25.35Q4.8,34.8 1.75,46.3 -1.3,57.75 1,68.4 1.05,68.55 1.05,68.7 2.35,77.05 8.9,88.4 9.65,89.7 15.7,100.35 15.55,100.5 15.45,100.7 15.35,100.85 15.25,101.05 11.8,106.15 11.8,114.75 11.8,114.85 12.2,118.15 13,122 14.55,125.2 17.5,131.2 22.7,133.65 22.35,133.75 21.95,133.85 14,136.25 8.85,140 3.2,144.15 2.6,149.55 2.7,148.45 2.75,148.2 1.6,151.8 5.35,155.4 11.2,161.15 40.15,161.5 69.15,161.85 74,161.6 75.4,161.95 87.9,161.95 100.4,161.9 143.45,162.15 186.55,162.4 194.55,162.3 202.5,162.15 209.8,162 217.1,161.8 226.3,161.5 235.45,161.15 238.7,159.05 241.95,156.9 243.75,153.65 245.5,150.35 245.35,144.7 245.2,139 242.05,135.1 239.65,132.25 236.2,130.55 238.45,128.45 239.9,124.75 241.95,119.7 241.95,115.1 241.95,110.35 238.3,105.95 236.55,103.9 234.4,102.3 243.3,99.8 246.8,92.4 247.9,90.1 248.65,87.95 M154.4,18.45Q154.345,18.45 154.3,18.45L154.25,18.4Q154.301,18.447 154.4,18.45"/></g><g id="5" transform="matrix(1 0 0 1 -342 -181.65)"><path fill="#5ECCC0" d="M214.85,3.2Q211,2.8 204.2,4.75 197.4,6.65 193.7,9.1 190.05,4.65 185.3,3.8 179.45,2.65 172.9,4.05 166.35,5.5 157.15,13.95 156.75,14.25 155.9,15.65 155.4,15.4 154.9,15.1 147.05,11.25 135.35,6.85 120.25,0.9 80.9,4.1 80.25,4.15 79.6,4.25 79.55,4.25 76.25,2.85 72.9,1.45 67.9,0.55 62.95,-0.3 54.7,0.2 46.45,0.65 40.4,2.9 34.35,5.1 30.25,7.4 17.8,14.65 11.25,23.1L11.3,23.05Q4.5,31.7 1.65,42.1 -1.25,52.5 0.9,62.15 0.95,62.3 0.95,62.4 2.15,70 8.35,80.35 8.9,81.35 16.15,91.7 16.75,92.55 17.45,93.55 17.8,94.05 18.2,94.65 14.85,96.85 13,100.6 11.1,104.35 11.45,107.4 11.35,111.65 13.9,115.45 16.4,119.25 29.15,125.95 8.35,130.5 6.85,138.5 5.35,146.4 37.75,146.8 65,147.1 69.6,146.9 70.9,147.2 82.7,147.2 91.45,147.15 116.35,147.4 122.7,147.6 131.3,147.65 138,147.7 143.1,147.65 176.35,147.9 185.3,147.9 195.25,147.85 210.75,147.3 226.2,146.75 229.65,139.05 233.05,131.3 214.2,125.6 214.65,125.15 215.15,124.65 219.45,120.25 222.65,112.95 225.8,105.65 224.25,102.75 222.7,99.85 215.95,95.15 233.25,86.9 236.05,65.25 237.55,56.5 237.55,49.45 237.35,45.15 236.6,34.05 235.8,22.95 231.3,15.6 226.85,8.25 222.75,6 218.65,3.65 214.85,3.2 M224.1,80.55L224.15,80.6 224.1,80.6 224.1,80.55 M145.25,16.8Q145.195,16.8 145.15,16.8L145.1,16.75Q145.151,16.797 145.25,16.8"/><path fill="#85D8CF" d="M176.9,67.75Q171.7,57 164.4,53 153.7,45.5 145.1,39.9 128.5,29 122,29 114.95,29 97.35,35.95 81.1,42.35 68.15,50.15 80.2,66.45 86.1,82.5 89.6,91.95 94.35,107.35 98.8,119 106.45,123.85 115.9,129.8 135.2,129.8 154.45,129.8 166.8,121 182,110.25 182,88.6 182,78.2 176.9,67.75"/></g><g id="a1_l1" transform="matrix(1 0 0 1 -351.05 -190.05)"><g id="13" transform="matrix(1 0 0 1 34.5 147.65)"><animateTransform attributeName="transform" additive="replace" type="translate" dur="1.667s" keyTimes="0;0.2;0.275;1" values="91.763,149.35;91.763,149.35;91.75,149.35;91.75,149.35"/><animateTransform attributeName="transform" additive="sum" type="scale" dur="1.667s" keyTimes="0;0.2;0.275;1" values="0.679,1;0.679,1;1,1;1,1"/><animateTransform attributeName="transform" additive="sum" type="translate" dur="1.667s" keyTimes="0;0.2;0.275;1" values="-57.3,-1.7;-57.3,-1.7;-57.25,-1.7;-57.25,-1.7"/><path fill="#000" fill-opacity="0.388" d="M50.55,3.65Q57.9,2.9 57.65,1.8 57.35,0.7 51.75,0 52.55,0.5 42.1,0.05 41.35,0.05 40.55,0.1 39.8,0.2 34,0.3 30.35,0.45 26.25,0.7 21.9,1 18.05,1.35 18.05,1.25 14,1.7L14,1.75Q10,2.1 6.6,2.6 -0.95,3.7 0.15,4.55 0.95,5.15 5.35,5.3 5.35,5.35 5.5,5.35 5.7,5.45 5.95,5.4 6.25,5.4 6.65,5.35 8.3,5.4 10.3,5.45 19.6,5.45 31.35,4.9 43.1,4.35 50.55,3.65"/></g><g><g id="sh1" transform="matrix(1 0 0 1 14.6 10.65)"><path fill="#000" fill-opacity="0.251" d="M55.9,10.55Q56.1,10.35 56.4,10.2 56.45,10.15 56.5,10.05 57.35,9.45 60.5,6.3 55.8,5.55 52.8,5.9 51.75,6 50.75,6.15 50.55,6.2 50.4,6.2 42.35,7.5 39.5,11.15 40.3,9 42.1,4.7 42.95,2.6 43.3,1.4 43.3,1.35 43.35,1.2 43.65,0.15 43.4,0.05 43.2,-0.1 42.3,0.5 42.2,0.55 42.15,0.6 40.85,1.4 38.55,3.3 33.9,7.15 32.45,9.65 34.1,6.15 35.45,3.65 35.45,3.55 35.5,3.45 35.55,3.4 35.6,3.3 33.95,3.6 31.95,4.55 26.6,7.05 18.7,13.75 17.4,15.3 16.2,16.75 8.9,25.5 6.5,33.2 5.7,35.85 5.05,38.7 4.45,41.55 4.3,43 4.2,44.5 4.05,46.2 3.85,47.8 3.55,49.4 6.65,49.9 6.7,51.75 0.8,55.05 0,56.25 2.3,56.65 2.95,57.1 0.75,61.45 10.05,76.35 11.7,79 13,81.1 14.55,80.1 15.05,79.75 15.45,80.3 16.4,81.7 16.5,81.75 16.6,81.7 17,81.75 18.25,80.75L20.15,79.4 20.15,79.45Q21.85,78.35 22.95,77.65 23.15,77.5 23.45,77.3 24.2,76.8 25.1,76.3 25.65,76.7 26.2,77 27.65,77.8 31.6,77.55 35.5,77.25 36.65,75.2 36.8,74.85 36.9,74.6 36.95,74.6 37,74.6 37.1,74.6 37.2,74.65 38.75,75.1 41.45,75.6 43.55,76.05 46.25,75.85 45.8,78.15 46.5,83.7 46.8,85.7 47,87.05 47.1,87.05 47.15,87 47.15,87.2 47.2,87.4L47.6,90.35Q49.9,107.5 51.25,115.7L55.75,114.85Q55.8,115.05 55.95,115.3 55.55,122.85 49.55,139.05L56.15,139.45Q61.05,124.85 61.85,120.15L70.1,117.4Q71.6,123.35 71,129.35L71.8,129.35Q71.2,133.5 68.35,137.7L68.1,137.7 68.15,138Q68,138.15 67.9,138.35L68.15,138.35 68.25,139.2 68.55,139.8Q68.65,139.85 73.5,138.85 75.85,138.35 77.05,138.15 76.25,137.75 74.5,137.5 74.2,137.45 73.85,137.4 76.1,121.65 75.7,111.95 75.7,111.9 75.7,111.85 75.7,111.25 75.65,110.7L76.35,110.55Q76.2,109.35 76.1,108.45 75.9,107.95 75.7,107.3 74.15,103.1 72.8,100.3 73.15,98.75 73.85,96.45 74.65,93.9 74.65,92.3 74.65,88.3 67.3,83.6 67.1,83.45 66.9,83.35 64.45,81.8 62.25,80.95 60.05,80.15 59.95,80.7 58.5,78.95 57.05,77.3 56.6,77.4 55.7,77.4 54.5,76.05 53.35,74.95 53.8,74.7 54.35,74.5 54.5,74.45 54.6,74.4 54.55,74.35 54.5,74.3 54,73.8 53.5,73.5 55.8,72.3 57.65,70.65L59.5,69Q61.4,67.25 64.65,62.15 67.8,57.05 68.95,53.5 70.1,50.1 69.75,46.3 69.6,44.35 68.95,42.6 68.5,41.4 68,40.3 67.65,39.65 67.25,39.05 66.6,38 65.75,36.9 65.6,36.7 65.45,36.5 65.35,36.45 64.6,35.65L64.9,35.95Q64.2,35.2 63.45,34.4 63.4,34.35 57.85,29.25 53.6,25.45 51.65,23.7 50.95,23.15 50.5,22.75L50.05,22.35Q49.6,22.05 49.25,21.8L49.25,21.75 49.2,21.75Q49.65,21.45 49.9,21.25L50.55,20.8Q50.95,20.5 51.3,20.25 52.65,19.3 54,18.5 54.4,18.25 55.1,17.75 55.8,17.2 56.75,16.5 56.925,16.631 57.025,16.725 56.925,16.625 56.75,16.45 56.9,16.4 57.05,16.25 57.15,16.2 57.2,16.1 56.55,16.15 53.75,15.55 52.35,15.2 50.2,14.65 51.65,13.6 55.9,10.55 M17.55,59.725Q17.555,59.531 17.6,59.35 17.65,59.2 17.75,59.1 17.75,59.25 17.65,59.35 17.559,59.531 17.55,59.725 M60.05,80.8Q60.1,80.8 60.15,80.85 60.15,80.9 60.15,80.95 60.1,80.9 60.05,80.8 M47.8,75.6Q47.75,75.85 47.7,76.15L47.7,76.2Q47.2,76.1 46.65,76.05L46.65,75.8Q46.95,75.75 47.25,75.7 47.55,75.65 47.8,75.6 M62.95,84.55Q65.75,85.8 67.1,87.2 68.55,88.75 68.55,90.75 68.55,91.6 68.25,92.55 65.65,88.25 62.9,84.55L62.95,84.55"/><path fill="#000" fill-opacity="0.373" d="M52.15,116Q52.1,115.95 52.1,115.9L52.15,115.95 52.15,116"/></g><animate attributeName="display" repeatCount="1" dur="1.667s" keyTimes="0;0.275;1" values="none;inline;none"/></g><g style="display:none;"><path fill="#000" fill-opacity="0.251" d="M84.95,14.4Q84.85,14.4 84.75,14.4 83.25,14.65 80.4,15.5 74.6,17.25 72.35,19 75.2,16.4 77.45,14.6 77.45,14.55 77.55,14.5 77.6,14.45 77.7,14.35 76.05,14 73.8,14.1 67.95,14.3 58.05,17.4 56.25,18.35 54.55,19.2 44.45,24.4 39.25,30.6 37.45,32.65 35.75,35.05 34.1,37.45 33.4,38.7 32.7,40.1 31.9,41.55 31.1,43 30.2,44.35 32.85,46 32.15,47.7 25.5,48.45 24.25,49.25 26.2,50.55 26.65,51.2 22.95,54.35 25.7,71.65 26.15,74.75 26.55,77.2 28.35,76.85 28.95,76.75 29.1,77.4 29.45,79.1 29.55,79.15 29.65,79.15 30,79.35 31.5,78.9L33.8,78.45 33.75,78.45Q35.75,78.1 37.1,77.9 37.3,77.85 37.65,77.8 38.55,77.65 39.55,77.5 39.9,78.1 40.3,78.55 41.3,79.85 45.05,81.15 48.8,82.45 50.65,81 50.9,80.75 51.1,80.55L51.15,80.55Q51.25,80.6 51.35,80.7 52.6,81.7 54.9,83.25 56.65,84.45 59.25,85.3 59.2,85.35 59.15,85.45L60.05,84.5 61.2,84.45Q61.891,84.657 62.6,84.875 62.475,84.888 62.35,84.9L61.3,85.4 60.825,86.625Q60.42,88.96 61.1,94.35 61.4,96.35 61.6,97.7 61.7,97.7 61.75,97.65 61.75,97.85 61.8,98.05L62.2,101Q64.5,118.15 65.85,126.35L70.35,125.5Q70.4,125.7 70.55,125.95 70.15,133.5 64.15,149.7L70.75,150.1Q75.65,135.5 76.45,130.8L84.7,128.05Q86.2,134 85.6,140L86.4,140Q85.8,144.15 82.95,148.35L82.7,148.35 82.75,148.65Q82.6,148.8 82.5,149L82.75,149 82.85,149.85 83.15,150.45Q83.25,150.5 88.1,149.5 90.45,149 91.65,148.8 90.85,148.4 89.1,148.15 88.8,148.1 88.45,148.05 90.7,132.3 90.3,122.6 90.3,122.55 90.3,122.5 90.3,121.9 90.25,121.35L90.95,121.2Q90.8,120 90.7,119.1 90.5,118.6 90.3,117.95 88.75,113.75 87.4,110.95 87.75,109.4 88.45,107.1 89.25,104.55 89.25,102.95 89.25,98.95 81.9,94.25 81.7,94.1 81.5,94 79.05,92.45 76.85,91.6 74.65,90.8 74.55,91.35 73.1,89.6 71.65,87.95 71.2,88.05 70.3,88.05 69.23,86.847 68.2,85.85 70.041,85.568 71.75,84.95L74.1,84.2Q76.55,83.35 81.5,79.9 86.4,76.4 88.85,73.55 91.2,70.9 92.4,67.3 93,65.45 93.1,63.55 93.15,62.3 93.1,61.05 93.05,60.3 92.85,59.6 92.75,58.4 92.35,57.05 92.3,56.8 92.2,56.55 92.15,56.45 91.8,55.5L91.95,55.85Q91.6,54.85 91.2,53.9 91.2,53.8 88.05,46.95 85.65,41.8 84.5,39.45 84.05,38.65 83.85,38.1L83.6,37.55Q83.25,37.1 83.05,36.75L83.05,36.7 83,36.65Q83.55,36.55 83.85,36.5L84.65,36.3Q85.1,36.2 85.55,36.1 87.15,35.75 88.7,35.55 89.2,35.45 90.05,35.25 90.9,35.05 92,34.75 92.141,34.984 92.2,35.125 92.144,34.981 92.05,34.7 92.2,34.7 92.4,34.65 92.5,34.65 92.55,34.6 91.95,34.4 89.65,32.75 88.45,31.85 86.7,30.5 88.45,30.15 93.55,28.95 93.8,28.85 94.15,28.85 94.25,28.8 94.3,28.7 95.3,28.5 99.45,26.85 95.45,24.3 92.5,23.5 91.5,23.15 90.55,22.9 90.35,22.85 90.2,22.8 82.25,20.85 78.2,23.15 79.8,21.45 83.1,18.2 84.75,16.6 85.5,15.6 85.5,15.55 85.65,15.45 86.35,14.6 86.15,14.4 86.05,14.2 84.95,14.4 M39.075,59.3Q39.163,59.125 39.25,58.95 39.35,58.8 39.5,58.8 39.45,58.9 39.3,58.95 39.169,59.125 39.075,59.3 M62.4,86.25Q62.35,86.5 62.3,86.8L62.3,86.85Q61.8,86.75 61.25,86.7L61.25,86.45Q61.55,86.4 61.85,86.35 62.15,86.3 62.4,86.25 M77.55,95.2Q80.35,96.45 81.7,97.85 83.15,99.4 83.15,101.4 83.15,102.25 82.85,103.2 80.25,98.9 77.5,95.2L77.55,95.2 M74.75,91.6Q74.7,91.55 74.65,91.45 74.7,91.45 74.75,91.5 74.75,91.55 74.75,91.6"/><path fill="#000" fill-opacity="0.373" d="M66.7,126.55L66.75,126.6 66.75,126.65Q66.7,126.6 66.7,126.55"/><animate attributeName="display" repeatCount="1" dur="1.667s" keyTimes="0;0.25;0.275;1" values="none;inline;none;none"/></g><g style="display:none;"><path fill="#000" fill-opacity="0.251" d="M98.4,23.7Q92.8,21.85 82.5,21.25 80.45,21.5 78.55,21.75 67.25,23.05 60.2,27 57.85,28.35 55.35,30 53,31.65 51.85,32.6 50.8,33.65 49.5,34.75 48.25,35.8 46.95,36.75 48.85,39.2 47.6,40.6 41.1,38.95 39.65,39.3 41.05,41.1 41.2,41.9 36.65,43.55 33.15,60.8 32.5,63.85 32,66.3 33.8,66.6 34.45,66.7 34.3,67.35 34.05,69 34.15,69.15 34.2,69.15 34.5,69.5 36.05,69.6L38.4,69.95 38.35,70Q40.3,70.35 41.6,70.55 41.85,70.6 42.25,70.65 43.15,70.85 44.1,71.1 44.25,71.75 44.45,72.35 44.95,73.95 47.95,76.45 51,78.95 53.25,78.25 53.6,78.1 53.85,77.95 53.9,78 53.9,78.05 54,78.1 54,78.2 54.85,79.6 56.45,81.85 57.7,83.6 59.8,85.3 59.75,85.35 59.7,85.4 59.9,85.45 60.1,85.55 60.15,85.65 60.3,85.7 60.92,85.992 61.525,86.375 61.501,86.392 61.475,86.4 61.513,86.396 61.55,86.4 61.869,86.601 62.175,86.825 61.736,86.744 61.25,86.7L61.25,86.475Q61.036,86.55 60.825,86.625 60.42,88.956 61.1,94.35 61.4,96.35 61.6,97.7 61.7,97.7 61.75,97.65 61.75,97.85 61.8,98.05L62.2,101Q64.5,118.15 65.85,126.35L70.35,125.5Q70.4,125.7 70.55,125.95 70.15,133.5 64.15,149.7L70.75,150.1Q75.65,135.5 76.45,130.8L84.7,128.05Q86.2,134 85.6,140L86.4,140Q85.8,144.15 82.95,148.35L82.7,148.35 82.75,148.65Q82.6,148.8 82.5,149L82.75,149 82.85,149.85 83.15,150.45Q83.25,150.5 88.1,149.5 90.45,149 91.65,148.8 90.85,148.4 89.1,148.15 88.8,148.1 88.45,148.05 90.7,132.3 90.3,122.6 90.3,122.55 90.3,122.5 90.3,121.9 90.25,121.35L90.95,121.2Q90.8,120 90.7,119.1 90.5,118.6 90.3,117.95 88.75,113.75 87.4,110.95 87.75,109.4 88.45,107.1 89.25,104.55 89.25,102.95 89.25,98.95 81.9,94.25 81.7,94.1 81.5,94 79.05,92.45 76.85,91.6 74.65,90.8 74.55,91.35 73.73,90.36 72.9,89.4L74.1,89.45Q76.7,89.45 82.55,88 88.35,86.45 91.6,84.7 94.8,83 97.15,80 98.4,78.5 99.1,76.75 99.6,75.6 100,74.45 100.2,73.75 100.35,73 100.55,71.85 100.7,70.45 100.75,70.2 100.8,69.95 100.7,69.8 100.7,68.7L100.75,69.15Q100.75,68.15 100.8,67 100.75,67 100.2,59.4 99.8,53.75 99.55,51.15 99.4,50.25 99.35,49.65L99.3,49.05Q99.15,48.55 99.1,48.1L99.15,48.1 99.15,48.05Q99.65,48.1 99.95,48.15L100.75,48.3Q101.25,48.3 101.65,48.4 103.3,48.65 104.8,48.95 105.3,49.1 106.15,49.15 107,49.25 108.2,49.4 108.35,49.45 108.6,49.45 108.7,49.5 108.8,49.45 108.3,49 106.7,46.7 105.9,45.45 104.7,43.55 106.5,43.8 111.7,44.5 111.95,44.5 112.25,44.6 112.35,44.6 112.45,44.6 113.5,44.7 117.95,44.6 115,40.8 112.6,39 111.8,38.35 110.95,37.8 110.75,37.7 110.65,37.6 103.9,33 99.35,33.7 101.4,32.65 105.65,30.8 107.75,29.8 108.8,29.2 108.85,29.15 109,29.1 109.95,28.55 109.8,28.3 109.75,28.05 108.7,27.85 108.6,27.85 108.5,27.8 107,27.5 104.05,27.35 98,26.95 95.25,27.75 98.85,26.35 101.55,25.45 101.65,25.35 101.75,25.35 101.8,25.35 101.9,25.3 100.5,24.4 98.4,23.7 M77.55,95.2Q80.35,96.45 81.7,97.85 83.15,99.4 83.15,101.4 83.15,102.25 82.85,103.2 80.25,98.9 77.5,95.2L77.55,95.2 M74.75,91.6Q74.7,91.55 74.65,91.45 74.7,91.45 74.75,91.5 74.75,91.55 74.75,91.6"/><path fill="#000" fill-opacity="0.373" d="M66.7,126.55L66.75,126.6 66.75,126.65Q66.7,126.6 66.7,126.55"/><animate attributeName="display" repeatCount="1" dur="1.667s" keyTimes="0;0.225;0.25;1" values="none;inline;none;none"/></g><g style="display:none;"><path fill="#000" fill-opacity="0.251" d="M124.1,37.9Q128,37.6 130.85,37.6 130.95,37.55 131,37.55 131.1,37.55 131.2,37.5 130.15,36.25 128.3,34.95 123.55,31.55 113.8,27.95 111.8,27.55 110,27.25 98.75,25.15 90.85,26.9 88.15,27.5 85.35,28.3 82.6,29.2 81.25,29.75 79.9,30.4 78.35,31.15 76.85,31.7 75.3,32.25 76.4,35.2 74.8,36.15 69.05,32.65 67.6,32.5 68.4,34.7 68.3,35.55 63.45,35.75 55.05,51.15 53.5,53.9 52.35,56.1 53.95,56.95 54.5,57.15 54.25,57.8 53.5,59.35 53.5,59.45 53.6,59.5 53.75,59.85 55.25,60.45L57.3,61.45Q59.1,62.45 60.25,63.05 60.45,63.15 60.8,63.3 61.6,63.7 62.45,64.25 62.4,64.9 62.4,65.55 62.4,67.2 64.6,70.55 66.75,73.8 69.15,73.8 69.5,73.7 69.75,73.7 69.8,73.75 69.8,73.8 69.85,73.9 69.85,73.95 70.2,75.55 71.15,78.15 71.75,80.2 73.25,82.45 73.1,82.5 72.95,82.55 73.05,82.6 73.2,82.7 73.3,82.8 73.35,82.9L73.5,82.8Q73.594,82.894 73.7,83 72.854,85.145 72.05,89.05 71.65,91.05 71.45,92.45 71.55,92.45 71.6,92.45 71.55,92.65 71.5,92.8L70.9,95.75 68.15,124.25 70.5,121.6 70.85,121.1Q75.973,123.966 82.075,125.875 75.925,126.001 70.4,125L70.2,125.525 70.35,125.5Q70.4,125.7 70.55,125.95 70.15,133.5 64.15,149.7L70.75,150.1Q75.65,135.5 76.45,130.8L84.7,128.05Q86.2,134 85.6,140L86.4,140Q85.8,144.15 82.95,148.35L82.7,148.35 82.75,148.65Q82.6,148.8 82.5,149L82.75,149 82.85,149.85 83.15,150.45Q83.25,150.5 88.1,149.5 90.45,149 91.65,148.8 90.85,148.4 89.1,148.15 88.8,148.1 88.45,148.05 90.347,134.772 90.35,125.8 90.428,125.545 90.5,125.3 90.5,125.25 90.5,125.2 90.7,124.6 90.85,124.1L91.55,124.2Q91.8,123.05 91.95,122.15 92,121.6 92,120.9 91.9,116.4 91.5,113.3 92.4,112 93.75,110.05 95.35,107.85 95.85,106.35 97.15,102.55 91.75,95.8 91.6,95.55 91.45,95.4 89.65,93.15 87.8,91.6 87.345,91.221 87,90.975 89.518,91.504 94.25,91.7 100.25,91.95 103.9,91.2 107.4,90.55 110.55,88.4 112.15,87.3 113.35,85.85 114.2,84.9 114.9,83.95 115.3,83.3 115.6,82.65 116.25,81.55 116.8,80.3 116.85,80.05 117,79.8 117,79.761 117.15,79.1 117.45,78.15 117.8,77.1 117.85,77 119.55,69.65 120.75,64.1 121.35,61.55 121.45,60.65 121.6,60.05L121.7,59.45Q121.75,58.9 121.8,58.5L121.85,58.45 121.85,58.4Q122.3,58.65 122.6,58.8L123.3,59.15Q123.75,59.35 124.2,59.55 125.65,60.2 127,61 127.45,61.25 128.2,61.6 129.05,61.95 130.1,62.45 130.053,62.638 130.05,62.775 130.056,62.635 130.15,62.4 130.3,62.5 130.45,62.55 130.55,62.65 130.7,62.65 130.3,62.05 129.5,59.35 129.1,57.95 128.5,55.85 130.15,56.55 134.9,58.75 135.15,58.85 135.45,59.05 135.5,59.05 135.6,59.05 136.55,59.5 140.85,60.7 139.2,56.2 137.4,53.8 136.8,52.95 136.15,52.1 136,52 135.95,51.85 130.9,45.45 126.3,44.75 128.6,44.4 133.2,43.9 135.45,43.55 136.65,43.3 136.7,43.3 136.85,43.2 137.9,43 137.9,42.7 137.9,42.5 136.95,42 136.85,41.9 136.8,41.95 135.45,41.15 132.65,40.1 127.05,37.95 124.1,37.9 M85.85,90.9Q85.85,90.85 85.8,90.75 85.85,90.8 85.9,90.85L85.85,90.9 M87.35,95.25Q89.6,97.35 90.4,99.1 91.3,101.05 90.65,102.95 90.35,103.75 89.75,104.55 88.7,99.6 87.3,95.25L87.35,95.25 M73.85,49.4Q73.7,49.5 73.6,49.45 73.366,49.45 73.225,49.55 73.363,49.447 73.55,49.4 73.7,49.35 73.85,49.4"/><path fill="#000" fill-opacity="0.373" d="M66.85,121.35L66.9,121.4 66.85,121.45Q66.85,121.4 66.85,121.35"/><animate attributeName="display" repeatCount="1" dur="1.667s" keyTimes="0;0.2;0.225;1" values="none;inline;none;none"/></g><g style="display:none;"><path fill="#000" fill-opacity="0.251" d="M141,41.15Q139.3,40.15 137.65,39.2 127.85,33.4 119.85,32.25 117.1,31.9 114.2,31.75 111.3,31.6 109.8,31.7 108.35,31.8 106.6,31.95 105,32 103.4,31.95 103.4,35.1 101.55,35.45 97.35,30.2 96.05,29.55 96.05,31.95 95.7,32.6 91.05,31.15 77.85,42.75 75.5,44.8 73.6,46.45 74.85,47.8 75.3,48.2 74.8,48.7 73.55,49.9 73.55,50 73.6,50.1 73.6,50.5 74.8,51.55L76.45,53.2 76.4,53.2Q77.75,54.7 78.6,55.7 78.8,55.85 79.05,56.1 79.7,56.8 80.3,57.6 80,58.2 79.8,58.8 79.25,60.35 80.1,64.2 81.05,68 83.3,68.85 83.65,68.9 83.9,68.95 83.9,69 83.9,69.05 83.9,69.15 83.9,69.25 83.75,70.85 83.65,73.6 83.55,75.55 84.05,77.9 84.2,78.15 84.35,78.35 85.873,81.526 87.2,84.475 85.809,86.227 84,89.45 82.95,91.2 82.35,92.4 82.4,92.45 82.5,92.45 82.35,92.65 82.3,92.8L80.8,95.4 69.65,119.1 72.45,119.85Q72.4,120 72.35,120.3 72.3,120.35 72.2,120.5 72.3,120.45 72.4,120.4 72.75,120.4 73,119.6 74.2,120.3 74.65,121.2 75.15,121.8 75.2,122.25L79.45,126.1 79.6,126.3 74,125.8Q75.516,121.033 73.5,120.6 73.225,122.911 71.725,127.725 70.222,132.535 64.15,149.7L70.75,150.1Q75.65,135.5 76.45,130.8 81.127,131.828 85.65,132.55 84.537,133.434 85.7,132.55 81.34,151.355 82.725,148.5L82.75,148.65Q82.6,148.8 82.5,149L82.75,149 82.85,149.85 83.15,150.45Q83.25,150.5 88.1,149.5 90.45,149 91.65,148.8 90.85,148.4 89.1,148.15 88.8,148.1 85.85,148.8 89.993,137.251 90.3,129.3 90.57,128.92 90.85,128.6L91.45,128.85Q92.05,127.8 92.55,127.05 92.7,126.55 92.9,125.85 94.25,121.65 94.85,118.55 96.05,117.55 98,116.15 100.2,114.6 101.15,113.35 103.6,110.15 100.6,101.95 100.5,101.7 100.4,101.5 99.4,98.8 98.15,96.8 96.9,94.8 96.5,95.2 96.436,93.725 96.35,92.325 98.142,93.228 100.65,94.3 106.25,96.6 109.9,97.15 113.45,97.75 117.15,96.8 119,96.35 120.65,95.4 121.8,94.75 122.75,94.1 123.35,93.65 123.9,93.15 124.85,92.35 125.8,91.35 125.9,91.15 126.1,91 126.15,90.85 126.8,90L126.55,90.35Q127.2,89.5 127.85,88.65 127.9,88.6 132.05,82.3 135.15,77.5 136.5,75.3 136.95,74.5 137.3,74L137.6,73.5Q137.85,73 138.05,72.6L138.1,72.6Q138.417,72.963 138.65,73.15L139.2,73.75Q139.55,74.1 139.85,74.4 141.05,75.55 142.05,76.75 142.35,77.1 142.9,77.75 143.6,78.3 144.45,79.15 144.309,79.338 144.25,79.475 144.313,79.338 144.5,79.15 144.55,79.25 144.75,79.4 144.8,79.5 144.9,79.55 144.75,78.9 144.9,76.05 145.05,74.6 145.25,72.4 146.45,73.65 150.2,77.35 150.45,77.5 150.6,77.75 150.65,77.8 150.75,77.85 151.5,78.6 155.1,81.2 155.1,76.4 154.25,73.55 154,72.55 153.65,71.55 153.6,71.4 153.55,71.25 151,63.5 146.95,61.3 149.2,61.75 153.7,62.8 155.9,63.3 157.15,63.45 157.2,63.45 157.35,63.45 158.45,63.6 158.55,63.35 158.65,63.1 157.9,62.3 157.85,62.2 157.8,62.15 156.75,61 154.55,59.05 150,55.1 147.25,54.1 151,55.1 153.7,56.05 153.8,56.05 153.9,56.1 153.95,56.1 154.05,56.15 153.5,54.55 152.25,52.75 148.9,47.85 141,41.15 M95.475,47.5Q95.613,47.45 95.8,47.45 95.95,47.5 96.1,47.55 95.95,47.55 95.8,47.5 95.613,47.453 95.475,47.5 M96.5,95.5Q96.45,95.45 96.5,95.35L96.55,95.4Q96.5,95.45 96.5,95.5 M95.9,109.65Q96.397,104.677 96.5,100.05 98,102.75 98.2,104.7 98.45,106.8 97.25,108.4 96.75,109.1 95.9,109.65 M82.95,148.35L82.8,148.35Q83.523,146.709 85.6,140L86.4,140Q85.8,144.15 82.95,148.35"/><path fill="#000" fill-opacity="0.373" d="M68.95,118.45L68.95,118.5 68.9,118.55Q68.9,118.5 68.95,118.45"/><animate attributeName="display" repeatCount="1" dur="1.667s" keyTimes="0;0.2;1" values="inline;none;none"/></g><g id="head2_l1" transform="matrix(1 0 0 1 0 2.7)"><animateTransform attributeName="transform" additive="replace" type="translate" dur="1.667s" keyTimes="0;0.05;0.1;0.175;0.225;0.275;0.35;0.425;0.5;0.575;0.65;0.725;0.8;0.875;0.95;1" values="85.839,81.965;85.888,80.639;85.888,81.855;85.875,82.716;64.353,87.313;64.921,84.931;64.9,87.55;64.9,84.85;64.9,87.55;64.9,84.85;64.9,87.55;64.9,84.85;64.9,87.55;64.9,84.85;64.9,87.55;64.9,87.55"/><animateTransform attributeName="transform" additive="sum" type="rotate" dur="1.667s" keyTimes="0;0.05;0.1;0.175;0.225;0.275;0.35;1" values="77.447,0,0;77.477,0,0;77.447,0,0;77.839,0,0;43.193,0,0;-7.587,0,0;0,0,0;0,0,0"/><animateTransform attributeName="transform" additive="sum" type="skewY" dur="1.667s" keyTimes="0;0.1;0.175;0.225;1" values="0;0;-0.796;0;0"/><animateTransform attributeName="transform" additive="sum" type="scale" dur="1.667s" keyTimes="0;0.1;0.175;0.225;0.275;1" values="0.999,0.999;0.999,0.999;0.969,0.999;0.998,0.998;1,1;1,1"/><animateTransform attributeName="transform" additive="sum" type="translate" dur="1.667s" keyTimes="0;0.05;0.1;0.175;0.225;0.275;0.35;1" values="-64.9,-84.95;-64.95,-84.9;-64.9,-84.9;-64.85,-84.9;-64.75,-84.85;-64.95,-84.85;-64.9,-84.85;-64.9,-84.85"/><g id="juhy" transform="matrix(1 0 0 1 14.3 28.3)"><path fill="#FFCB99" d="M60.85,10.5L60.8,10.4Q60.703,10.448 60.6,10.45 60.752,10.451 60.85,10.5"/><path fill="#000" fill-opacity="0.263" d="M76.35,14.15Q76.3,14.15 76.25,14.1 76.3,14.1 76.35,14.1L76.35,14.15"/><path fill="#000" fill-opacity="0.263" d="M76.4,17.7L76.45,17.8Q76.4,17.8 76.35,17.75L76.35,17.7 76.4,17.7"/><path fill="#604339" d="M27.9,56.75Q27.95,56.75 27.95,56.7 26.85,57.4 25.7,58.15 25.1,58.55 24.65,58.9 26,58 27.75,56.85 27.8,56.85 27.9,56.75"/><path fill="#FFBC79" d="M29.25,53.7L29.25,53.65Q29.15,53.65 29.05,53.6 29.098,53.648 29.15,53.65 29.2,53.7 29.25,53.7"/><path fill="#FFBC79" d="M36.4,55.9Q36.5,55.95 36.65,56L36.75,56Q36.55,55.95 36.4,55.9"/><path fill="#FFCB99" d="M31.5,54.3Q31.35,54.25 31.2,54.15L30.2,53.8Q30.15,53.85 30.1,53.8 30.05,53.8 29.9,53.8L29.85,53.75 29.8,53.8Q30.1,53.95 30.35,54L31.4,54.3 31.6,54.35 31.65,54.4 31.7,54.4 31.9,54.5Q31.75,54.4 31.5,54.3"/><path fill="#FFB366" d="M31.4,54.3L31.1,54.25 31.65,54.4 31.6,54.35 31.4,54.3"/><path fill="#FFCB99" d="M31,54.05Q30.95,54.05 30.9,54 30.6,53.85 30.35,53.75L30.3,53.75 31.2,54.15Q31.1,54.1 31,54.05"/><path fill="#FFB366" d="M19.05,42.025Q19.05,42.156 19.05,42.25 18.95,42.75 19.05,43.15 19.1,43.35 19.15,43.55L19.15,43.6Q19.2,43.8 19.25,43.9 19.7,45.05 22.75,48.8 22.5,49.3 22,50.75 23.05,50.85 25.75,51.8 27.95,52.55 29.65,53.7 29.7,53.75 29.75,53.8L29.8,53.8 29.85,53.75 29.9,53.8Q30.05,53.8 30.1,53.8 30.15,53.85 30.2,53.8L31.2,54.15 30.3,53.75 30.35,53.75Q30.6,53.85 30.9,54 30.95,54.05 31,54.05 31.1,54.1 31.2,54.15 31.35,54.25 31.5,54.3 31.75,54.4 31.9,54.5L31.95,54.5 31.95,54.55Q32,54.55 32,54.5L32.45,54.65Q32.4,54.6 31.75,54.15L30.1,53.05Q30.05,53.05 30.05,53 30.1,53.05 30.15,53L30.2,53.05Q30.3,53 30.35,53L30.45,52.95Q30.45,52.6 30.45,52.45 29.75,52.2 28.15,51.55 27.5,51.35 26.7,51.05 24.6,50.4 23.4,49.95 23.4,49.45 23.45,48.6 21.6,46.55 20.6,45.25 20.1,44.65 19.85,44.25 19.45,43.65 19.35,43.35 19.3,43.25 19.25,43.1 19.2,42.9 19.15,42.7 19.1,42.5 19.1,42.3 19.053,42.159 19.05,42.025"/><path fill="#FFCB99" d="M23,49.9Q23,49.85 23,49.8 23.2,49.3 23.15,49.2 23.05,49.5 22.95,49.9L23,49.9"/><path fill="#3C3A3D" d="M19.9,38.75Q20,38.4 20.1,38.1 20.1,38 20.1,37.95 19.9,38.4 19.85,38.45 17.75,42.75 17.95,43.2 18.6,44.65 19.75,45.7 20.9,46.75 22.05,49.25 21.4,50.35 20.9,51.15 21,51.25 21.2,51.35 25,52.3 26.9,52.95L26.95,52.95Q27,53 27.05,52.95L27.05,53Q27.2,53 27.35,53.1 27.45,53.1 27.5,53.15 27.8,53.2 28.3,53.4 28.4,53.4 28.6,53.5 28.8,53.55 29.1,53.65L29.15,53.65Q29.098,53.648 29.05,53.6 29.15,53.65 29.25,53.65L29.3,53.65 29.35,53.7Q29.4,53.7 29.45,53.7 29.6,53.75 29.75,53.8 29.7,53.75 29.65,53.7 27.95,52.55 25.75,51.8 23.05,50.85 22,50.75 22.5,49.3 22.75,48.8 19.7,45.05 19.25,43.9 19.2,43.8 19.15,43.6L19.15,43.55Q19.1,43.35 19.05,43.15 18.95,42.75 19.05,42.25 19.05,42.156 19.05,42.025L19.05,42 19.1,41.75Q19.1,41.55 19.15,41.4 19.2,41.15 19.25,40.95L19.9,38.75"/><path fill="#3C3A3D" d="M4.1,30.7Q3.35,30.55 2.7,30.65 3.35,32.1 4.3,34.15 3.449,34.688 0.675,36.875 0.348,37.124 0,37.4 0.102,37.441 0.525,37.525 1.131,37.623 2.4,37.8 4.8,38.2 5.45,38.7 3.4,43.05 5.35,47.15 7.3,51.15 7.75,52.1 8.15,53.05 9.05,54.8 9.3,55.2 9.5,55.65 9.5,55.7 9.55,55.7 9.75,56.1 9.95,56.55 10.75,58 11.7,59.65 12.9,61.7 13.9,63.45 14.25,63.2 14.75,62.8 16.3,61.7 16.8,61.35 17.15,61.9 18.05,63.3 18.15,63.35 18.25,63.3 18.6,63.35 19.8,62.35L21.55,61 21.55,61.05Q23.15,59.95 24.2,59.25 24.4,59.1 24.65,58.9 25.1,58.55 25.7,58.15 26.85,57.4 27.95,56.7 28.3,56.5 28.6,56.25 28.7,56.1 28.65,56.1 28.6,56.05 28.55,56 28.35,56 28.25,56.15 28.2,56.15 28.2,56.2 27.45,56.6 26.75,56.95 25.35,57.75 25.2,57.95 25.15,58 25.05,58.05 24.95,58.05 24.9,58.15 24.8,58.3 23.9,58.9 23.1,59.5 23,59.6 22.95,59.75 19.2,62.3 19.15,62.4 18.7,62.6 18.6,62.65 18.45,62.7 18.45,62.75 18.4,62.7 17.7,62.1 17.5,61.7 17.2,61.25 17.05,61 16.85,60.7 16.8,60.7 16.65,60.55 16.25,60.9 16.05,61.05 15.9,61.2 15.65,61.35 15.45,61.5L13.85,62.7Q14.05,62.55 11.4,57.1 10.15,54.6 9.2,52.65 9,52.3 8.9,52.05 8,50.25 7.4,49.1 6,46.5 5.65,45.6 5.35,44.7 5.25,44 4.6,40.05 5.65,38.55 5.95,38.2 6.35,38 6.55,37.85 6.4,37.75 5.95,37.45 3.85,37.1 1.9,36.8 1.4,36.85 3.65,35.15 5.1,34.4 4.3,32.95 3.55,31.85 4.3,32.2 5.2,32.35 6.45,32.6 6.85,32.1 6.85,32.05 6.9,32L6.5,27 6.05,30.95Q6.05,31.1 6,31.25 4.7,30.85 4.1,30.7"/><path fill="#604339" d="M6.8,27.15Q6.65,27.05 6.5,27L6.9,32Q6.85,32.05 6.85,32.1 6.45,32.6 5.2,32.35 4.3,32.2 3.55,31.85 4.3,32.95 5.1,34.4 3.65,35.15 1.4,36.85 1.9,36.8 3.85,37.1 5.95,37.45 6.4,37.75 6.55,37.85 6.35,38 5.95,38.2 5.65,38.55 4.6,40.05 5.25,44 5.35,44.7 5.65,45.6 6,46.5 7.4,49.1 8,50.25 8.9,52.05 9,52.3 9.2,52.65 10.15,54.6 11.4,57.1 14.05,62.55 13.85,62.7L15.45,61.5Q15.65,61.35 15.9,61.2 16.05,61.05 16.25,60.9 16.65,60.55 16.8,60.7 16.85,60.7 17.05,61 17.2,61.25 17.5,61.7 17.7,62.1 18.4,62.7 18.45,62.75 18.45,62.7 18.6,62.65 18.7,62.6 19.15,62.4 19.2,62.3 22.95,59.75 23,59.6 23.1,59.5 23.9,58.9 24.8,58.3 24.9,58.15 24.95,58.05 25.05,58.05 25.15,58 25.2,57.95 25.35,57.75 26.75,56.95 27.45,56.6 28.2,56.2 28.2,56.15 28.25,56.15 28.3,56.05 28.35,55.95 28.8,55.1 29.4,54.4 29.5,54.25 29.6,54.1 29.7,53.95 29.8,53.8L29.75,53.8Q29.6,53.75 29.45,53.7 29.4,53.7 29.35,53.7L29.3,53.65 29.25,53.65 29.25,53.7Q29.2,53.7 29.15,53.65L29.1,53.65Q28.8,53.55 28.6,53.5 28.4,53.4 28.3,53.4 27.8,53.2 27.5,53.15 27.45,53.1 27.35,53.1 27.2,53 27.05,53L27.05,52.95Q27,53 26.95,52.95L26.9,52.95Q25,52.3 21.2,51.35 21,51.25 20.9,51.15 21.4,50.35 22.05,49.25 20.9,46.75 19.75,45.7 18.6,44.65 17.95,43.2 17.75,42.75 19.85,38.45 19.9,38.4 20.1,37.95 20.05,37.85 19.95,37.75 15.9,31.1 6.8,27.15"/><path fill="#FFB366" d="M51.05,5.3Q50.4,4.75 50,4.35L49.55,3.95Q49.15,3.65 48.8,3.4 48.6,3.5 48.45,3.65 43.6,0.6 38,0.1 32.05,-0.4 26.7,2.05 21.6,4.3 17.1,8.25 12.6,12.2 10.2,17.1 7.75,21.95 6.8,27.15 15.9,31.1 19.95,37.75 20.05,37.85 20.1,37.95 20.4,36.7 21.35,35.5L21.5,35.6Q22.15,35.1 25.1,33.2 26.7,32.1 29.15,30.65 35.05,26.85 35.7,25.95 35.9,25.65 35.8,25.55 35.8,25.45 35.65,25.3 34.9,25.15 32.9,25.25 34.8,23.6 35.15,22.95 35.35,22.65 35.25,22.45 35.25,22.35 35.15,22.25 34.45,22.15 32.85,22.35 35.7,19.7 41.45,13.6 47.15,7.5 50.1,5.8 50.65,5.45 51.05,5.3"/><path fill="#FFCB99" d="M64,18.1Q63.9,18.05 63.85,18L63.7,17.85Q63.069,17.083 62.275,16.2 62.188,16.098 62.1,16 62.05,15.95 56.85,10.85 52.9,7.05 51.05,5.3 50.65,5.45 50.1,5.8 47.15,7.5 41.45,13.6 35.7,19.7 32.85,22.35 34.45,22.15 35.15,22.25 35.25,22.35 35.25,22.45 35.35,22.65 35.15,22.95 34.8,23.6 32.9,25.25 34.9,25.15 35.65,25.3 35.8,25.45 35.8,25.55 35.9,25.65 35.7,25.95 35.05,26.85 29.15,30.65 26.7,32.1 25.1,33.2 22.15,35.1 21.5,35.6L21.35,35.5Q20.4,36.7 20.1,37.95 20.1,38 20.1,38.1 20,38.4 19.9,38.75L19.25,40.95Q19.2,41.15 19.15,41.4 19.1,41.55 19.1,41.75L19.05,42 19.05,42.025Q19.053,42.159 19.1,42.3 19.1,42.5 19.15,42.7 19.2,42.9 19.25,43.1 19.3,43.25 19.35,43.35 19.45,43.65 19.85,44.25 20.1,44.65 20.6,45.25 21.6,46.55 23.45,48.6 23.4,49.45 23.4,49.95 24.6,50.4 26.7,51.05 27.5,51.35 28.15,51.55 29.75,52.2 30.45,52.45 30.45,52.6 30.45,52.95L30.35,53Q30.3,53 30.2,53.05L30.15,53Q30.1,53.05 30.05,53 30.05,53.05 30.1,53.05L31.75,54.15Q32.4,54.6 32.45,54.65L35.45,55.65Q35.6,55.65 35.8,55.7 35.9,55.75 36.4,55.9 36.55,55.95 36.75,56L36.8,56Q37.1,56.15 37.35,56.2 37.45,56.2 37.55,56.25 39,56.7 41.5,57.2 43.8,57.75 46.95,57.3 50.735,56.386 53.725,54.525 55.328,53.518 56.7,52.25L58.4,50.6Q60.2,48.85 63.25,43.75 66.2,38.65 67.25,35.1 68.35,31.7 68,27.9 67.85,25.95 67.25,24.2 66.85,23 66.35,21.9 66.05,21.25 65.65,20.65 65.05,19.6 64.25,18.5 64.1,18.3 64,18.1"/></g><g id="hair1" transform="matrix(1 0 0 1 20.35 9.9)"><animateTransform attributeName="transform" additive="replace" type="translate" dur="1.667s" keyTimes="0;0.2;0.275;0.35;0.425;0.5;0.575;1" values="25.2,63.9;25.2,63.9;25.232,63.882;24.8,63.892;25.23,63.881;25.229,63.9;25.2,63.9;25.2,63.9"/><animateTransform attributeName="transform" additive="sum" type="rotate" dur="1.667s" keyTimes="0;0.2;0.275;0.35;0.425;0.5;0.575;1" values="0,0,0;0,0,0;3.467,0,0;-9.952,0,0;3.463,0,0;-1.154,0,0;0,0,0;0,0,0"/><animateTransform attributeName="transform" additive="sum" type="scale" dur="1.667s" keyTimes="0;0.275;0.35;0.425;1" values="1,1;1,1;0.999,0.999;1,1;1,1"/><animateTransform attributeName="transform" additive="sum" type="translate" dur="1.667s" keyTimes="0;0.2;0.275;0.35;0.425;0.5;1" values="-4.85,-54;-4.85,-54;-4.9,-53.95;-4.95,-53.9;-4.9,-54;-4.85,-54;-4.85,-54"/><path fill="#7C5649" d="M12.2,17.05Q11.4,18 10.8,19 4.85,28.65 4.95,29.55 3.05,34.1 2.25,38.2 2.2,38.3 2.2,38.45 1.5,41.9 1.2,45.3 1.15,45.85 1.05,46.4L0.85,50.15 0.9,50.2Q1.05,49.75 1.15,49.3 9.4,19.6 25.85,5.75 16.55,11.45 12.2,17.05"/><path fill="#7C5649" d="M32.45,12.75Q31.6,13.25 30.8,13.75 29.7,14.45 28.85,15.15 20.15,22.35 19.95,23.25 16.7,26.95 14.6,30.55 14.5,30.7 14.45,30.85 12.7,33.8 11.3,36.95 11.15,37.45 10.9,38L9.3,41.75Q9.4,41.65 9.45,41.5 27.05,15.4 47.3,7.45 40.05,9.1 35.05,11.4 33.65,12.05 32.45,12.75"/><path fill="#3C3A3D" d="M50.8,6.6Q51.65,6.6 52.5,6.65 50.15,8.25 48.6,9.4 48.55,9.45 48.45,9.5 48.1,9.8 47.75,10 43.85,12.85 42.65,14.7 41.55,14.7 40.65,14.75 35.85,15.25 33.05,18.65 37.25,16.2 41.55,15.8 42.3,15.75 43.25,15.65 42.75,15.85 42.4,16.1 44.2,16.2 46.5,16.45 46.7,16.5 46.85,16.5 47.45,16.6 48.15,16.65 48.35,16.7 48.7,16.75 48.5,16.85 49.25,16.65 49.45,16.6 49.65,16.55 48.95,16.8 48.35,17.05 47.15,17.55 46.6,17.85 46.25,18.1 45.8,18.3 45.5,18.5 45.2,18.65 42.05,20.6 39.05,23.3 36.1,25.9 31.4,30.85 30.3,31.95 29.15,33.2 22.95,39.75 22,41.4 21.8,41.75 21.75,41.95L21.7,42.2Q21.85,42.4 22.1,42.6 22.15,42.65 24.3,42.25 24.95,42.15 25.4,42.05 26.8,41.8 27.3,41.65 26.65,42.3 24.8,43.8 23.1,45.15 20.45,47.15 19.8,47.7 19.2,48.15 18.4,48.9 17.7,49.6 17.1,50.2 16.6,50.75L17.2,50.175Q16.985,50.403 16.8,50.65L16.65,50.75 16.45,50.95Q16.35,51.05 16.25,51.2L16.2,51.25Q16.15,51.3 16.1,51.35L16.1,51.3 14.55,53.05Q13.15,54.7 12.2,57.45 11.8,58.55 11.7,59.45 11.6,60.05 11.65,60.6L13.1,61.95Q13.05,61.75 13,61.55 12.9,61.15 13,60.65 13,60.55 13,60.4L13.05,60.15Q13.1,59.75 13.15,59.35 13.2,59.2 13.25,59.1 13.6,57.45 13.9,56.15 14.15,54.75 16.8,52 17.6,51.3 18.75,50.35 20.35,49 22.7,47.15 25.25,45.05 26.85,43.65 28.75,42 29.1,41.35 29.3,41.05 29.2,40.85 29.2,40.75 29.1,40.65 28.4,40.55 26.8,40.75 26.6,40.75 26.3,40.8 24.2,41.15 23.4,41.25L23.7,40.65Q27.55,35.8 32.05,31.3 35.85,27.45 40.15,23.85 41.45,22.75 42.75,21.8L42.75,21.75 42.7,21.75Q43.15,21.45 43.35,21.25L44,20.8Q44.35,20.5 44.7,20.25 45.95,19.3 47.2,18.5 47.6,18.25 48.25,17.75 48.9,17.2 49.8,16.5 49.988,16.65 50.2,16.825 49.988,16.638 49.8,16.45 49.95,16.4 50.05,16.25 50.15,16.2 50.2,16.1 49.6,16.15 47,15.55 45.65,15.2 43.65,14.65 45,13.6 49,10.55 49.2,10.35 49.45,10.2 49.5,10.15 49.55,10.05 50.35,9.45 53.3,6.3 48.9,5.55 46.1,5.9 45.1,6 44.15,6.15 44,6.2 43.85,6.2 36.3,7.5 33.65,11.15 34.4,9 36.05,4.7 36.85,2.6 37.2,1.4 37.2,1.35 37.25,1.2 37.5,0.15 37.3,0.05 37.1,-0.1 36.25,0.5 36.15,0.55 36.1,0.6 34.9,1.4 32.75,3.3 28.4,7.15 27.05,9.65 28.6,6.15 29.85,3.65 29.85,3.55 29.9,3.45 29.95,3.4 30,3.3 28.45,3.6 26.55,4.55 21.55,7.05 14.15,13.75 12.95,15.3 11.8,16.75 5,25.5 2.75,33.2 2,35.85 1.4,38.7 0.8,41.55 0.7,43 0.6,44.5 0.45,46.2 0.35,47.25 0.2,48.35 0.1,48.85 0,49.35L0.85,50.15 1.05,46.4Q1.15,45.85 1.2,45.3 1.5,41.9 2.2,38.45 2.2,38.3 2.25,38.2 3.05,34.1 4.95,29.55 4.85,28.65 10.8,19 11.4,18 12.2,17.05 16.55,11.45 25.85,5.75 27.05,5.05 28.4,4.25 27.5,6.7 26.6,9.4 25.3,13.3 25.45,13.4 25.85,13.7 25.8,13.45 30.1,7.1 32.55,4.65 33.9,3.3 35.7,2 33.7,8.6 32.45,12.75 33.65,12.05 35.05,11.4 39.85,8.25 45.2,7.15 45.3,7.15 45.4,7.1 48.05,6.6 50.8,6.6"/><path fill="#604339" d="M52.5,6.65Q51.65,6.6 50.8,6.6 48.05,6.6 45.4,7.1 45.3,7.15 45.2,7.15 39.85,8.25 35.05,11.4 40.05,9.1 47.3,7.45 27.05,15.4 9.45,41.5 9.4,41.65 9.3,41.75L10.9,38Q11.15,37.45 11.3,36.95 12.7,33.8 14.45,30.85 14.5,30.7 14.6,30.55 16.7,26.95 19.95,23.25 20.15,22.35 28.85,15.15 29.7,14.45 30.8,13.75 31.6,13.25 32.45,12.75 33.7,8.6 35.7,2 33.9,3.3 32.55,4.65 30.1,7.1 25.8,13.45 25.85,13.7 25.45,13.4 25.3,13.3 26.6,9.4 27.5,6.7 28.4,4.25 27.05,5.05 25.85,5.75 9.4,19.6 1.15,49.3 1.05,49.75 0.9,50.2L11.65,60.6Q11.6,60.05 11.7,59.45 11.8,58.55 12.2,57.45 13.15,54.7 14.55,53.05L16.1,51.3 16.1,51.35Q16.15,51.3 16.2,51.25L16.25,51.2Q16.35,51.05 16.45,50.95L16.65,50.75 16.8,50.65Q16.985,50.403 17.2,50.175L16.6,50.75Q17.1,50.2 17.7,49.6 18.4,48.9 19.2,48.15 19.8,47.7 20.45,47.15 23.1,45.15 24.8,43.8 26.65,42.3 27.3,41.65 26.8,41.8 25.4,42.05 24.95,42.15 24.3,42.25 22.15,42.65 22.1,42.6 21.85,42.4 21.7,42.2L21.75,41.95Q21.8,41.75 22,41.4 22.95,39.75 29.15,33.2 30.3,31.95 31.4,30.85 36.1,25.9 39.05,23.3 42.05,20.6 45.2,18.65 45.5,18.5 45.8,18.3 46.25,18.1 46.6,17.85 47.15,17.55 48.35,17.05 48.95,16.8 49.65,16.55 49.45,16.6 49.25,16.65 48.5,16.85 48.7,16.75 48.35,16.7 48.15,16.65 47.45,16.6 46.85,16.5 46.7,16.5 46.5,16.45 44.2,16.2 42.4,16.1 42.75,15.85 43.25,15.65 42.3,15.75 41.55,15.8 37.25,16.2 33.05,18.65 35.85,15.25 40.65,14.75 41.55,14.7 42.65,14.7 43.85,12.85 47.75,10 48.1,9.8 48.45,9.5 48.55,9.45 48.6,9.4 50.15,8.25 52.5,6.65"/></g><g id="ch1" transform="matrix(1 0 0 1 51.3 46.75)"><animateTransform attributeName="transform" additive="replace" type="translate" dur="1.667s" keyTimes="0;0.25;0.325;0.4;0.475;0.55;0.625;0.7;0.8;0.9;1" values="51.3,46.75;51.3,46.75;52.35,47.85;51.3,46.75;52.35,47.85;51.3,46.75;52.35,47.85;51.3,46.75;52.35,47.85;51.3,46.75;51.3,46.75"/><path fill="#FBA46A" d="M27.85,2.75Q27.6,1.5 26.5,0.7 25.4,-0.1 24,0 22.75,0.2 22,1.2 21.3,2.25 21.5,3.55 21.85,4.85 22.95,5.65 24.05,6.45 25.35,6.3 26.7,6.1 27.4,5.05 28.15,4.05 27.85,2.75"/><path fill="#FBA46A" d="M1.6,36.45Q3,37.45 4.75,36.9 6.6,36.45 7.7,34.8 8.85,33.1 8.65,31.25 8.45,29.35 7.05,28.35 5.65,27.35 3.85,27.8 2.1,28.25 0.9,29.95 -0.15,31.65 0,33.5 0.2,35.45 1.6,36.45"/></g><g><g id="m2" transform="matrix(1 0 0 1 55.3 54.65)"><animateTransform attributeName="transform" additive="replace" type="translate" dur="1.667s" keyTimes="0;0.25;0.325;0.4;0.475;0.55;0.625;0.7;0.8;0.9;1" values="66.5,66.1;66.5,66.1;66.709,66.282;66.5,66.1;66.709,66.282;66.5,66.1;66.709,66.282;66.5,66.1;66.709,66.282;66.5,66.1;66.5,66.1"/><animateTransform attributeName="transform" additive="sum" type="rotate" dur="1.667s" keyTimes="0;0.25;0.325;0.4;0.475;0.55;0.625;0.7;0.8;0.9;1" values="0,0,0;0,0,0;-4.354,0,0;0,0,0;-4.354,0,0;0,0,0;-4.354,0,0;0,0,0;-4.354,0,0;0,0,0;0,0,0"/><animateTransform attributeName="transform" additive="sum" type="skewY" dur="1.667s" keyTimes="0;0.25;0.325;0.4;0.475;0.55;0.625;0.7;0.8;0.9;1" values="0;0;14.961;0;14.961;0;14.961;0;14.961;0;0"/><animateTransform attributeName="transform" additive="sum" type="scale" dur="1.667s" keyTimes="0;0.25;0.325;0.4;0.475;0.55;0.625;0.7;0.8;0.9;1" values="1,1;1,1;1.01,1.081;1,1;1.01,1.081;1,1;1.01,1.081;1,1;1.01,1.081;1,1;1,1"/><animateTransform attributeName="transform" additive="sum" type="scale" dur="1.667s" keyTimes="0;0.25;0.325;0.4;0.475;0.55;0.625;0.7;0.8;0.9;1" values="1,1;1,1;0.966,1;1,1;0.966,1;1,1;0.966,1;1,1;0.966,1;1,1;1,1"/><animateTransform attributeName="transform" additive="sum" type="translate" dur="1.667s" keyTimes="0;0.25;0.325;0.4;0.475;0.55;0.625;0.7;0.8;0.9;1" values="-11.2,-11.45;-11.2,-11.45;-11.25,-11.45;-11.2,-11.45;-11.25,-11.45;-11.2,-11.45;-11.25,-11.45;-11.2,-11.45;-11.25,-11.45;-11.2,-11.45;-11.2,-11.45"/><path fill="#630" d="M22.25,10.7Q22.65,8.75 22.3,6.95 22.05,5.15 21,2.95 19.95,0.65 19.6,0 19.55,0.25 18.55,1.85 16.6,5 13.85,8.5 11.15,12 7.15,15.35 6.6,15.85 6,16.3 3.75,18.1 1.4,19.6L1.35,19.6Q0.75,20 0.2,20.4 0.05,20.45 0.05,20.55 0,20.7 0,20.85 0.1,20.9 0.15,21.05 0.3,21.1 0.4,21.2 1.9,22.15 3.5,22.55 5.95,23.25 8.55,22.75 13.1,21.9 17.1,18.25 20.95,14.7 22.25,10.7"/><path fill="#630" d="M20.75,2.85Q20.85,2.955 20.85,3.05 20.8,3 20.7,2.8 20.45,2.25 20.4,1.95 20,1.3 19.6,0.55 15.45,7.05 15.35,7.15 15.2,7.2 12.1,11L6.05,16.7 6.1,16.7 6.1,16.75Q5.9,16.8 5.05,17.45 3.85,18.4 1.7,20.25 1.35,20.5 1.05,20.65 2.35,21.5 3.75,21.85 3.85,21.85 3.95,21.85 6.1,22.45 8.5,22 8.8,22 9.05,21.9 13.2,20.9 17.9,17 20.75,14.55 22.15,10.2L22.1,10.25Q22.1,10.05 22.2,9.85 22.45,6.6 20.9,3L20.75,2.85"/><path fill="#BC3232" d="M8.5,22Q8.8,22 9.05,21.9L19.65,12.05Q12.5,11.45 3.95,21.85 6.1,22.45 8.5,22"/><path fill="#FAFAFA" d="M22.15,10.2L22.1,10.25Q22.1,10.05 22.2,9.85L22.15,9.8 19.65,12.05 9.05,21.9Q13.2,20.9 17.9,17 20.75,14.55 22.15,10.2"/><path fill="#FAFAFA" d="M20.7,2.8Q20.45,2.25 20.4,1.95 20,1.3 19.6,0.55 15.45,7.05 15.35,7.15 15.2,7.2 12.1,11L6.05,16.7 6.1,16.7 6.1,16.75 7.25,17.15Q15.75,11.45 20.85,3.05 20.8,3 20.7,2.8"/><path fill="#87301B" d="M20.9,3L20.85,3.05Q15.75,11.45 7.25,17.15L6.1,16.75Q5.9,16.8 5.05,17.45 3.85,18.4 1.7,20.25 1.35,20.5 1.05,20.65 2.35,21.5 3.75,21.85 3.85,21.85 3.95,21.85 12.5,11.45 19.65,12.05L22.15,9.8 22.2,9.85Q22.45,6.6 20.9,3"/><path fill="#FAFAFA" d="M20.85,3.05L20.9,3 20.75,2.85Q20.85,2.955 20.85,3.05"/></g><animate attributeName="display" repeatCount="1" dur="1.667s" keyTimes="0;0.25;1" values="none;inline;none"/></g><g style="display:none;"><path fill="#4A2B0B" d="M76.1,54.55Q74.5,60.95 71.15,64.7 65.4,71.25 56.8,69.65 61.925,71.968 68.775,67.85 75.629,63.724 76.1,54.55"/><animate attributeName="display" repeatCount="1" dur="1.667s" keyTimes="0;0.25;1" values="inline;none;none"/></g><g id="ju" transform="matrix(1 0 0 1 65.75 54.1)"><path fill="#FBA46A" d="M3.95,0.15Q3.45,-0.2 2.55,0.3 1.7,0.75 0.95,1.8 0.2,2.8 0.05,3.8 -0.15,4.8 0.35,5.15 0.85,5.5 1.75,5 2.6,4.5 3.35,3.5 4.1,2.45 4.25,1.5 4.45,0.5 3.95,0.15"/></g><g id="n" transform="matrix(1 0 0 1 63.3 52.3)"><animateTransform attributeName="transform" additive="replace" type="translate" dur="1.667s" keyTimes="0;0.25;0.325;0.4;0.475;0.55;0.625;0.7;0.8;0.9;1" values="66.75,59.15;66.75,59.15;66.733,59.175;66.75,59.15;66.733,59.175;66.75,59.15;66.733,59.175;66.75,59.15;66.733,59.175;66.75,59.15;66.75,59.15"/><animateTransform attributeName="transform" additive="sum" type="rotate" dur="1.667s" keyTimes="0;0.25;0.325;0.4;0.475;0.55;0.625;0.7;0.8;0.9;1" values="0,0,0;0,0,0;5.192,0,0;0,0,0;5.192,0,0;0,0,0;5.192,0,0;0,0,0;5.192,0,0;0,0,0;0,0,0"/><animateTransform attributeName="transform" additive="sum" type="translate" dur="1.667s" keyTimes="0;1" values="-3.45,-6.85;-3.45,-6.85"/><path fill="#D96635" d="M5.85,1.15Q5.9,1.2 5.95,1.25 6.5,1.75 6.5,2.65 6.4,3.5 5.9,4.4 5.75,4.6 5.6,4.85 4.9,5.8 3.6,6.45 3.5,6.5 3.5,6.55 3.45,6.65 3.5,6.7 3.5,6.8 3.65,6.8 3.7,6.85 3.8,6.85 5.2,6.1 5.95,5.1 6.15,4.8 6.25,4.6 6.85,3.65 6.9,2.7L6.9,2.65Q7,1.5 6.2,0.9 6.15,0.85 6.1,0.8 4.4,-0.4 3.25,0.2 2.7,0.45 1.85,1.5 1.7,1.7 1.55,1.95 0.8,3.1 0.3,2.95 0.25,2.9 0.15,2.95 0.05,3 0.05,3.1 0,3.15 0,3.25 0.1,3.35 0.15,3.35 0.9,3.7 1.9,2.2 2.1,1.9 2.2,1.75 2.9,0.85 3.4,0.6 4.4,0.1 5.85,1.15"/></g><g id="g3" transform="matrix(1 0 0 1 42.6 64.7)"><animateTransform attributeName="transform" additive="replace" type="translate" dur="1.667s" keyTimes="0;0.25;0.325;0.4;0.475;0.55;0.625;0.7;0.8;0.9;1" values="42.6,64.7;42.6,64.7;41.6,63.7;42.6,64.7;41.55,63.6;42.6,64.7;41.55,63.6;42.6,64.7;41.55,63.6;42.6,64.7;42.6,64.7"/><path fill="#3C3A3D" d="M0.4,7.7Q1.45,7.75 2.05,7.8 2.75,7.75 2.5,6.8 2.25,5.9 1.3,0.75 1.2,0.4 1.2,0.05 1.1,0 0.95,0 -0.05,-0.3 0,3.15 0,6.55 0.4,7.7"/></g><g id="g2" transform="matrix(1 0 0 1 59.15 36.1)"><animateTransform attributeName="transform" additive="replace" type="translate" dur="1.667s" keyTimes="0;0.25;0.325;0.4;0.475;0.55;0.625;0.7;0.8;0.9;1" values="59.15,36.1;59.15,36.1;58.15,35.1;59.15,36.1;58.1,35;59.15,36.1;58.1,35;59.15,36.1;58.1,35;59.15,36.1;59.15,36.1"/><path fill="#3C3A3D" d="M0.4,3.6Q2.55,2.95 4.25,2.65 6.75,2.2 6.9,2.2 4.6,0.1 4.3,0 2.7,0.55 0.8,1.7 -0.55,2.55 0.4,3.6"/></g><g id="es" transform="matrix(1 0 0 1 48.7 42.15)"><animateTransform attributeName="transform" additive="replace" type="translate" dur="1.667s" keyTimes="0;0.25;0.325;0.4;0.475;0.55;0.625;0.7;0.8;0.9;1" values="60.9,59.3;60.9,59.3;60.674,59.1;60.9,59.3;60.674,59.1;60.9,59.3;60.674,59.1;60.9,59.3;60.674,59.1;60.9,59.3;60.9,59.3"/><animateTransform attributeName="transform" additive="sum" type="rotate" dur="1.667s" keyTimes="0;0.25;0.325;0.4;0.475;0.55;0.625;0.7;0.8;0.9;1" values="0,0,0;0,0,0;1.93,0,0;0,0,0;1.93,0,0;0,0,0;1.93,0,0;0,0,0;1.93,0,0;0,0,0;0,0,0"/><animateTransform attributeName="transform" additive="sum" type="skewY" dur="1.667s" keyTimes="0;0.25;0.325;0.4;0.475;0.55;0.625;0.7;0.8;0.9;1" values="0;0;-1.93;0;-1.93;0;-1.93;0;-1.93;0;0"/><animateTransform attributeName="transform" additive="sum" type="scale" dur="1.667s" keyTimes="0;0.25;0.325;0.4;0.475;0.55;0.625;0.7;0.8;0.9;1" values="1,1;1,1;0.963,1.001;1,1;0.963,1.001;1,1;0.963,1.001;1,1;0.963,1.001;1,1;1,1"/><animateTransform attributeName="transform" additive="sum" type="scale" dur="1.667s" keyTimes="0;0.325;0.326;0.4;0.475;0.55;0.625;0.7;0.8;0.9;1" values="1,1;1,1;0.999,1;1,1;0.999,1;1,1;0.999,1;1,1;0.999,1;1,1;1,1"/><animateTransform attributeName="transform" additive="sum" type="translate" dur="1.667s" keyTimes="0;0.25;0.325;0.4;0.475;0.55;0.625;0.7;0.8;0.9;1" values="-12.2,-17.15;-12.2,-17.15;-12.15,-17.15;-12.2,-17.15;-12.15,-17.15;-12.2,-17.15;-12.15,-17.15;-12.2,-17.15;-12.15,-17.15;-12.2,-17.15;-12.2,-17.15"/><path fill="#604339" d="M24.25,0.75Q24.25,0.7 24.2,0.7 23.4,0.1 22.3,0 20.6,-0.1 19.3,0.95 17.95,2.05 17.8,3.7 17.6,5.35 18.6,6.6 19,7.05 19.5,7.35L19.5,7.4 19.55,7.45Q19.6,7.5 19.75,7.6 19.85,7.65 20,7.8 20.05,7.6 20.15,7.45 20.1,7.45 20.1,7.4 20.05,7.3 20,7.35 19.9,7.25 19.75,7.15 19.55,6.95 19.4,6.75 18.45,5.6 18.65,4.1 18.8,2.55 20,1.6 21.2,0.6 22.7,0.75 23.55,0.8 24.25,1.2 24.3,1 24.4,0.85 24.3,0.8 24.25,0.75"/><path fill="#604339" d="M6.2,25.55L6.15,25.5Q5.1,25.1 3.85,25.3 2,25.65 0.9,27.2 -0.2,28.75 0.05,30.6 0.35,32.45 1.8,33.5 2.35,33.85 2.9,34.05L3,34.15Q3.1,34.2 3.2,34.2 3.4,34.3 3.5,34.35 3.6,34.15 3.65,33.95 3.6,33.95 3.55,33.9L3.5,33.85Q3.3,33.8 3.2,33.8 2.9,33.6 2.65,33.45 1.3,32.5 1.1,30.8 0.85,29.1 1.85,27.7 2.85,26.3 4.5,26 5.45,25.8 6.3,26 6.3,25.8 6.4,25.6 6.25,25.55 6.2,25.55"/></g><use xlink:href="#ear" transform="matrix(0.36 -0.624 0.589 0.34 35.6 85.2)"/></g><g id="shoes2" transform="matrix(1 0 0 1 63 147)"><animateTransform attributeName="transform" additive="replace" type="translate" dur="1.667s" keyTimes="0;0.1;0.175;0.225;1" values="76.9,149.2;76.9,149.2;76.9,149.229;76.9,149.2;76.9,149.2"/><animateTransform attributeName="transform" additive="sum" type="scale" dur="1.667s" keyTimes="0;0.1;0.175;0.225;1" values="1,1;1,1;1,0.968;1,1;1,1"/><animateTransform attributeName="transform" additive="sum" type="translate" dur="1.667s" keyTimes="0;1" values="-13.9,-2.2;-13.9,-2.2"/><path fill="#4E4E4E" d="M5.7,3.9L5.6,1.5Q4.3,1.2 2.55,1L0,1.65 0.15,3.6 5.7,3.9"/><path fill="#3C3A3D" d="M8.4,4.4Q8.45,4.35 8.5,4.3 8.7,3.95 8.45,3.25 8.2,2.05 5.6,1.5L5.7,3.9 0.15,3.6 0.4,4.35Q0.5,4.4 0.55,4.35 8.35,4.5 8.4,4.4"/><path fill="#3C3A3D" d="M24.7,0.45L24.8,2.9 18.85,2.65 19.1,3.4Q19.2,3.45 19.25,3.4 27.6,3.4 27.65,3.35 27.7,3.3 27.75,3.2 28,2.85 27.75,2.15 27.5,0.95 24.7,0.45"/><path fill="#4E4E4E" d="M24.8,2.9L24.7,0.45Q23.35,0.15 21.45,0L18.7,0.7 18.85,2.65 24.8,2.9"/></g><g id="l2" transform="matrix(1 0 0 1 81.5 122.35)"><animateTransform attributeName="transform" additive="replace" type="translate" dur="1.667s" keyTimes="0;0.1;0.175;0.225;0.275;1" values="85.5,148.5;85.5,148.5;85.5,148.556;85.522,148.5;85.5,148.5;85.5,148.5"/><animateTransform attributeName="transform" additive="sum" type="rotate" dur="1.667s" keyTimes="0;0.1;0.175;0.225;0.275;1" values="5.461,0,0;5.461,0,0;5.642,0,0;0.719,0,0;0,0,0;0,0,0"/><animateTransform attributeName="transform" additive="sum" type="skewY" dur="1.667s" keyTimes="0;0.1;0.175;0.225;0.275;1" values="-5.461;-5.461;-5.642;-0.719;0;0"/><animateTransform attributeName="transform" additive="sum" type="scale" dur="1.667s" keyTimes="0;0.1;0.175;0.225;1" values="1,1.005;1,1.005;1,0.972;1,1;1,1"/><animateTransform attributeName="transform" additive="sum" type="scale" dur="1.667s" keyTimes="0;0.175;0.225;1" values="0.995,1;0.995,1;1,1;1,1"/><animateTransform attributeName="transform" additive="sum" type="translate" dur="1.667s" keyTimes="0;1" values="-4,-26.15;-4,-26.15"/><path fill="#336" d="M7.8,0.7L1.25,0Q6.95,12.95 0,26.15L5.35,25.8Q8.8,13.5 7.8,0.7"/></g><g id="l1" transform="matrix(1 0 0 1 62.65 125)"><animateTransform attributeName="transform" additive="replace" type="translate" dur="1.667s" keyTimes="0;0.1;0.175;0.225;0.275;1" values="67.2,150.1;67.2,150.1;67.2,150.09;67.235,150.1;67.2,150.1;67.2,150.1"/><animateTransform attributeName="transform" additive="sum" type="rotate" dur="1.667s" keyTimes="0;0.1;0.175;0.225;0.275;1" values="5.349,0,0;5.349,0,0;5.527,0,0;0.719,0,0;0,0,0;0,0,0"/><animateTransform attributeName="transform" additive="sum" type="skewY" dur="1.667s" keyTimes="0;0.1;0.175;0.225;0.275;1" values="-5.349;-5.349;-5.527;-0.719;0;0"/><animateTransform attributeName="transform" additive="sum" type="scale" dur="1.667s" keyTimes="0;0.1;0.175;0.225;1" values="1,1.004;1,1.004;1,0.972;1,1;1,1"/><animateTransform attributeName="transform" additive="sum" type="scale" dur="1.667s" keyTimes="0;0.175;0.176;0.225;1" values="0.996,1;0.996,1;0.995,1;1,1;1,1"/><animateTransform attributeName="transform" additive="sum" type="translate" dur="1.667s" keyTimes="0;1" values="-4.55,-25.1;-4.55,-25.1"/><path fill="#336" d="M14.55,0.85L8.4,0Q7.7,14.3 0,24.15 2.45,25.4 7.85,25.1 12.75,13.9 14.55,0.85"/></g><g id="b2" transform="matrix(1 0 0 1 61.6 82.5)"><animateTransform attributeName="transform" additive="replace" type="translate" dur="1.667s" keyTimes="0;0.1;0.175;0.225;0.275;0.35;0.425;0.5;0.575;0.65;0.725;0.8;0.875;0.95;1" values="79.569,128.795;79.569,128.795;79.582,129.508;79.819,128.8;79.55,128.965;79.55,128.8;79.55,128.889;79.55,128.8;79.55,128.926;79.55,128.8;79.55,128.926;79.55,128.8;79.55,128.926;79.55,128.8;79.55,128.8"/><animateTransform attributeName="transform" additive="sum" type="rotate" dur="1.667s" keyTimes="0;0.1;0.175;0.225;0.275;1" values="34.211,0,0;34.211,0,0;35.089,0,0;0.719,0,0;0,0,0;0,0,0"/><animateTransform attributeName="transform" additive="sum" type="skewY" dur="1.667s" keyTimes="0;0.1;0.175;0.225;0.275;1" values="0;0;-1.747;-0.719;0;0"/><animateTransform attributeName="transform" additive="sum" type="scale" dur="1.667s" keyTimes="0;0.1;0.175;0.225;0.275;0.35;0.425;0.5;0.575;0.65;0.725;0.8;0.875;0.95;1" values="0.999,0.999;0.999,0.999;0.99,0.978;1,1;1,1.036;1,1;1,1.024;1,1;1,1.02;1,1;1,1.02;1,1;1,1.02;1,1;1,1"/><animateTransform attributeName="transform" additive="sum" type="translate" dur="1.667s" keyTimes="0;0.1;0.175;0.225;0.275;0.35;1" values="-17.95,-46.2;-17.95,-46.2;-18,-46.25;-17.95,-46.3;-17.95,-46.35;-17.95,-46.3;-17.95,-46.3"/><path fill="#336" d="M2.2,11.5Q2.15,11.6 2.15,11.7L3.35,19.3Q5.85,30.85 8.05,38.2 10.15,45.55 11.9,48.65L27.35,43.1Q29.05,37.15 25.8,33 22.5,28.8 21,26.65 20.15,25.45 19.05,23.8 18.6,24.3 17.45,25.4 13.55,29.05 11.3,29.15 10.15,29.25 9.3,28.2 8.4,27 5.15,19.05 3.05,13.6 2.2,11.5"/><path fill="#FFCB99" d="M13,9.75Q12.65,9.2 10.65,6.55 8.45,3.75 6.45,1.7 4.4,-0.35 2.65,0.05 1.45,0.35 1.75,0.4 1.1,0.55 0.8,0.95 0.2,1.95 0.05,3.55 -0.15,5.1 0.2,6 0.5,6.85 0.9,8.1 1.25,9.35 1.65,10.25 1.75,10.5 2.2,11.5 3.05,13.6 5.15,19.05 8.4,27 9.3,28.2 10.15,29.25 11.3,29.15 13.55,29.05 17.45,25.4 18.6,24.3 19.05,23.8 19.15,23.7 19.2,23.6 19.8,22.75 19.65,21.85 19.5,20.35 15.9,14.5 13.5,10.45 13,9.75"/></g><g id="s2" transform="matrix(1 0 0 1 60.6 85.9)"><animateTransform attributeName="transform" additive="replace" type="translate" dur="1.667s" keyTimes="0;0.1;0.175;0.225;0.275;0.35;0.425;0.5;0.575;0.65;0.725;0.8;0.875;0.95;1" values="82.619,123.021;82.619,123.021;82.669,123.142;79.991,125;79.65,122.415;79.65,122.5;79.65,122.462;79.65,122.5;79.65,122.482;79.65,122.5;79.65,122.482;79.65,122.5;79.65,122.482;79.65,122.5;79.65,122.5"/><animateTransform attributeName="transform" additive="sum" type="rotate" dur="1.667s" keyTimes="0;0.1;0.175;0.225;0.275;1" values="34.698,0,0;34.698,0,0;35.582,0,0;0.719,0,0;0,0,0;0,0,0"/><animateTransform attributeName="transform" additive="sum" type="skewY" dur="1.667s" keyTimes="0;0.1;0.175;0.225;0.275;1" values="0;0;-1.758;-0.719;0;0"/><animateTransform attributeName="transform" additive="sum" type="scale" dur="1.667s" keyTimes="0;0.1;0.175;0.225;0.275;0.35;0.425;0.5;0.575;0.65;0.725;0.8;0.875;0.95;1" values="0.998,0.998;0.998,0.998;0.99,0.978;1,1;1,1.036;1,1;1,1.024;1,1;1,1.02;1,1;1,1.02;1,1;1,1.02;1,1;1,1"/><animateTransform attributeName="transform" additive="sum" type="translate" dur="1.667s" keyTimes="0;0.1;0.175;0.225;0.35;0.425;0.5;1" values="-19.05,-36.65;-19.05,-36.65;-19.1,-36.6;-19.05,-36.6;-19.05,-36.6;-19.05,-36.65;-19.05,-36.6;-19.05,-36.6"/><path fill="#F60" d="M5.85,37.35L6.15,39.75 29.55,34.55Q29.4,33 29.3,31.95L25.35,32.65Q25.9,33 26.5,33.4L5.85,37.35"/><path fill="#DE765C" d="M11.5,1.3Q9.8,1.8 0,0 5.85,27.35 5.85,37.35L26.5,33.4Q25.9,33 25.35,32.65L29.3,31.95 29.65,32.05Q29.4,31.55 29.25,31 21.15,12.75 11.5,1.3"/><path fill="#DE765C" d="M11.75,2.3Q11.35,2.15 11,2.3 10.6,2.45 10.5,2.9 10.35,3.25 10.55,3.65 10.7,4.05 11.1,4.25 11.35,4.3 11.6,4.3L13,8.15 14.7,7.35 12.15,4Q12.25,3.9 12.35,3.65 12.45,3.25 12.3,2.85 12.1,2.45 11.75,2.3"/><path fill="#F60" d="M15.9,31.8L15.95,30.8 7.25,32.1 7.25,32.85 15.9,31.8"/><path fill="#333" d="M11.9,4.2Q11.75,4.25 11.6,4.3L13,8.15 14.7,7.35 12.15,4Q12.05,4.15 11.9,4.2"/><path fill="#666" d="M12.3,2.85Q12.1,2.45 11.75,2.3 11.35,2.15 11,2.3 10.6,2.45 10.5,2.9 10.35,3.25 10.55,3.65 10.7,4.05 11.1,4.25 11.35,4.3 11.6,4.3 11.75,4.25 11.9,4.2 12.05,4.15 12.15,4 12.25,3.9 12.35,3.65 12.45,3.25 12.3,2.85"/></g><g><g id="sh" transform="matrix(1.203 0 0 1 82.4 30.55)"><animateTransform attributeName="transform" additive="replace" type="translate" dur="1.667s" keyTimes="0;0.275;0.35;0.425;0.5;0.575;0.65;0.725;0.8;0.875;0.95;1" values="94.25,59.95;94.25,59.95;91.75,59.95;94.25,59.95;91.75,59.95;94.25,59.95;91.75,59.95;94.25,59.95;91.75,59.95;94.613,59.95;94.25,59.95;94.25,59.95"/><animateTransform attributeName="transform" additive="sum" type="scale" dur="1.667s" keyTimes="0;0.275;0.35;0.425;0.5;0.575;0.65;0.725;0.8;0.875;0.95;1" values="1.203,1;1.203,1;1,1;1.203,1;1,1;1.203,1;1,1;1.203,1;1,1;1.301,1;1.203,1;1.203,1"/><animateTransform attributeName="transform" additive="sum" type="translate" dur="1.667s" keyTimes="0;1" values="-9.85,-29.4;-9.85,-29.4"/><path fill="#FEFEFE" d="M14.15,2.85Q13.95,1.5 13.8,0 10.85,2.75 7.15,6.8 0,14.75 0,15.65 0,15.7 0.7,16.3 5.35,11.85 12.2,4.7 13.25,3.6 14.15,2.85"/><path fill="#FEFEFE" d="M2,21.95Q1.3,22.35 0.75,22.6 2.05,22.65 8.4,20.5 16.05,17.9 15.05,16.15 14.7,15.55 2,21.95"/><path fill="#FEFEFE" d="M12.35,32.8Q12.7,32.65 13,32.55 1.75,35.9 1.4,36.4 0.9,37 3.85,38.85 6.8,40.75 11.45,44.55 16.05,48.35 14.65,48.2 13.4,47.8 11.8,47.35 3.55,44.95 3.55,45.65 3.55,46.1 3.6,46.05 7.35,47.2 14,49.45 15.7,50 16.9,50.45 18.9,51.55 19.7,49.4L14.5,45.4Q7.05,39.7 3.9,37.35 7.3,34.85 12.35,32.8"/><path fill="#FEFEFE" d="M4.95,54Q9.3,58.8 10.3,58.8 10.9,58.8 10.9,58.65 11,58.7 11,58.1 11,57.65 5.9,52.45 0.75,47.25 0.75,49.25 0.75,49.2 4.95,54"/></g><animate attributeName="display" repeatCount="1" dur="1.667s" keyTimes="0;0.275;1" values="none;inline;none"/></g><g id="12" transform="matrix(1 0 0 1 55.55 90.9)"><animateTransform attributeName="transform" additive="replace" type="translate" dur="1.667s" keyTimes="0;0.1;0.175;0.225;0.275;0.35;0.425;0.5;0.575;0.65;0.725;0.8;0.875;0.95;1" values="85.784,89.121;85.784,89.121;86.904,88.602;62.526,91;62.9,92.52;62.9,92.85;62.9,92.096;62.9,92.85;62.9,92.239;62.9,92.85;62.9,92.239;62.9,92.85;62.9,92.239;62.9,92.85;62.9,92.85"/><animateTransform attributeName="transform" additive="sum" type="rotate" dur="1.667s" keyTimes="0;0.1;0.175;0.225;0.275;1" values="34.698,0,0;34.698,0,0;35.581,0,0;0.719,0,0;0,0,0;0,0,0"/><animateTransform attributeName="transform" additive="sum" type="skewY" dur="1.667s" keyTimes="0;0.1;0.175;0.225;0.275;1" values="0;0;-1.758;-0.719;0;0"/><animateTransform attributeName="transform" additive="sum" type="scale" dur="1.667s" keyTimes="0;0.1;0.175;0.225;0.275;0.35;0.425;0.5;0.575;0.65;0.725;0.8;0.875;0.95;1" values="0.998,0.998;0.998,0.998;0.99,0.944;1,1;1,1.036;1,1;1,1.024;1,1;1,1.02;1,1;1,1.02;1,1;1,1.02;1,1;1,1"/><animateTransform attributeName="transform" additive="sum" type="translate" dur="1.667s" keyTimes="0;0.1;0.175;0.225;0.275;1" values="-7.35,-1.95;-7.35,-1.95;-7.45,-1.95;-7.4,-1.95;-7.35,-1.95;-7.35,-1.95"/><path fill="#FFCB99" d="M8.55,17.95L8.5,17.95Q8.45,18.2 8.35,19.05 8.25,19.95 7.7,22.8 7.5,23.8 7.6,24.1 7.6,24.15 7.65,24.2 7.95,24.7 12.05,26.4 12.6,26.1 12.15,25.3 11.8,24.7 11.35,24.35 11.5,24.3 13.35,24.7 15.2,25.05 15.5,24.85 16.05,24.55 15.9,24.1 15.7,23.75 15.7,23.7 15.5,23.4 14.2,22.75 13.25,22.15 12.8,22.05L12.7,21.9Q14.9,21.05 15.4,20.6 15.65,20.3 15.4,19.8 14.95,19.05 12.65,19 9.9,18.9 9.7,18.8L9.55,18.85Q9.6,18.8 9.65,18.8 11.65,17.05 11.15,16.2 10.85,15.65 9.8,16.25 9.45,17.1 9.05,17.4 8.85,17.5 8.55,17.95"/><path fill="#F60" d="M7.9,4.7Q8,4.15 6.4,0 -3.25,15.95 1.65,19.75 6.5,23.55 7.6,24.1 7.5,23.8 7.7,22.8 8.25,19.95 8.35,19.05 8.45,18.2 8.5,17.95L8.55,17.95Q8.55,17.85 8.55,17.8 8.55,17.75 8.55,17.7 2.95,15.7 5.35,10.4 6.85,7 7.6,5.85 7.6,5.75 7.7,5.65 7.7,5.6 7.75,5.45 7.8,5.25 7.9,4.7"/></g><g id="h11" transform="matrix(1 0 0 1 74.45 90.45)"><animateTransform attributeName="transform" additive="replace" type="translate" dur="1.667s" keyTimes="0;0.1;0.175;0.2;0.225;0.275;0.35;0.425;0.5;0.575;0.65;0.725;0.8;0.875;0.95;1" values="96.69,94.975;96.69,94.975;96.332,94.175;85.409,90.335;73.741,91.15;75.75,91.034;75.25,91.45;75.25,90.622;75.25,91.45;75.25,90.82;75.25,91.45;75.25,90.82;75.25,91.45;75.25,90.82;75.25,91.45;75.25,91.45"/><animateTransform attributeName="transform" additive="sum" type="rotate" dur="1.667s" keyTimes="0;0.1;0.175;0.2;0.225;0.275;1" values="34.698,0,0;34.698,0,0;35.582,0,0;16.542,0,0;-2.354,0,0;0,0,0;0,0,0"/><animateTransform attributeName="transform" additive="sum" type="skewY" dur="1.667s" keyTimes="0;0.1;0.175;0.2;0.225;0.275;1" values="0;0;-1.758;0.264;2.354;0;0"/><animateTransform attributeName="transform" additive="sum" type="scale" dur="1.667s" keyTimes="0;0.1;0.175;0.2;0.225;0.275;0.35;0.425;0.5;0.575;0.65;0.725;0.8;0.875;0.95;1" values="0.998,0.998;0.998,0.998;0.99,0.951;0.994,0.975;1,1.001;1,1.036;1,1;1,1.024;1,1;1,1.02;1,1;1,1.02;1,1;1,1.02;1,1;1,1"/><animateTransform attributeName="transform" additive="sum" type="scale" dur="1.667s" keyTimes="0;0.2;0.225;0.275;1" values="1,1;1,1;0.999,1;1,1;1,1" keySplines=".1 .1 .9 .9;0 0 1 1;0 0 1 1;0 0 1 1" calcMode="spline"/><animateTransform attributeName="transform" additive="sum" type="translate" dur="1.667s" keyTimes="0;0.1;0.175;0.2;0.225;0.275;0.35;0.425;0.5;1" values="-0.8,-1;-0.8,-1;-0.8,-0.95;-0.85,-0.9;-0.8,-1;-0.8,-0.95;-0.8,-1;-0.8,-0.95;-0.8,-1;-0.8,-1"/><path fill="#FFCB99" d="M8.55,14.8Q8.05,14.55 7.8,14.55 7.3,14.5 6.6,13.95 5.4,13.95 5.4,14.55 5.4,15.55 8,16.05 8.05,16.05 8.1,16.05L7.95,16.15Q7.8,16.3 5.5,17.75 3.55,18.95 3.55,19.85 3.55,20.4 3.9,20.5 4.55,20.7 6.9,20.3L6.9,20.45Q6.55,20.8 6,21.8 5.2,23 5.2,23.35 5.2,23.4 5.2,23.8 5.35,24.3 5.95,24.3 6.3,24.3 7.75,23.05 9.15,21.8 9.3,21.75 9.1,22.25 9.1,22.95 9.1,23.9 9.7,23.9 12.45,20.35 12.45,19.75 12.45,19.7 12.45,19.65 12.35,19.35 11.65,18.6 9.75,16.4 9.25,15.7 8.75,15 8.55,14.8 M6.45,18.9Q6.45,18.85 6.5,18.85L6.5,18.9Q6.45,18.95 6.45,18.9"/><path fill="#F60" d="M3.3,3.85Q4.5,4.45 7.5,6.65 12.25,10.05 8.4,14.6 8.45,14.65 8.45,14.7 8.5,14.75 8.55,14.8 8.75,15 9.25,15.7 9.75,16.4 11.65,18.6 12.35,19.35 12.45,19.65 13.05,17.45 14.35,14.6 17.75,7.2 0,0 1.35,1.6 2.2,2.65L2.25,2.7 2.25,2.75Q2.65,3.25 3,3.7 3.05,3.7 3.15,3.75 3.25,3.8 3.3,3.85"/></g></g><g id="a_l1" transform="matrix(1 0 0 1 -188.45 -176.25)"><g id="s1" transform="matrix(1 0 0 1 16.6 134.15)"><path fill="#000" fill-opacity="0.388" d="M42.7,3.1Q49.1,2.25 48.15,1.35 47.35,0.7 42.6,0.35 40.7,0.4 35.1,0.05 34.5,0 33.8,0.05 33.2,0.1 28.35,0.05 25.25,0.05 21.85,0.2 18.25,0.35 15.05,0.55 15.05,0.45 11.65,0.8L11.65,0.85Q8.3,1.05 5.45,1.45 -0.8,2.3 0.15,3.15 0.8,3.8 4.6,4.1 4.6,4.15 6.95,4.3 7,4.3 8.7,4.4 16.5,4.7 26.4,4.35 36.4,3.95 42.7,3.1"/></g><g id="h1_l1" transform="matrix(1 0 0 1 -1.75 0)"><animateTransform attributeName="transform" additive="replace" type="translate" dur="1.667s" keyTimes="0;0.225;0.275;0.325;1" values="-1.75,0;-1.75,0;-1.75,0.3;-1.75,0;-1.75,0"/><g id="s4" transform="matrix(1 0 0 1 0 12)"><path fill="#000" fill-opacity="0.282" d="M52.05,6.15Q52.05,5.95 51.75,5.65 51.4,5.35 50.45,5.35 50.05,5.35 49.75,5.45 49.95,4.8 49.95,4.35 49.95,2.25 48.25,2.45 47.6,2.55 47.1,2.95 46.75,3.2 46.65,3.55 46.6,3.55 46.55,3.55 46.35,2.9 46,2.4 45.3,1.35 44.6,1.85 44.15,2.25 44.05,2.75 43.55,2.5 42.7,2.25 41.95,2.05 40.95,1.85 38.5,0.8 32.9,0.15 31.55,0.25 30.3,0.25 29.45,0.2 28.15,0.25 27.55,0.2 26.9,0.1 26.55,0.05 26.3,0 26.55,0.1 26.9,0.25 27,0.25 27.15,0.3 27,0.3 26.95,0.3 25.1,0.3 23.05,0.9 19.9,2.1 14.5,5.7 6,14.35 4.8,16.05L4.8,16.1Q4.85,16.1 4.9,16.1 5.3,16.05 5.65,16 7.65,15.55 11.15,14.25 7.25,18.35 4.45,19.5 3.8,19.85 3.25,19.9 3.85,20.2 4.4,20.4 7.35,21.4 10.4,21.9 10.55,21.9 10.7,21.9 7.3,28.85 0.1,49.5 -0.95,52.5 8.55,55.7L9.3,54.65Q10.3,53.35 10.55,53.55L9.9,56.15Q11.1,56.5 12.45,56.9L16.2,51Q16.5,51.15 16.75,51.35L14.9,57.55Q16.15,57.9 17.55,58.2 23.3,59.6 28.75,60.35 28.65,60.55 28.5,60.75 34.561,60.165 40.5,61.275 40.445,61.183 40.4,61.1 48.6,60.25 50.5,60.25 51.05,60.15 51.6,60.05 52.35,59.9 53.15,59.85L53.1,56.65 54.15,59.55Q57.9,58.9 61.2,58L61.25,49.7 65.25,56.85Q74.6,53.85 79.6,49.25 78.75,48.05 68.25,29.1 63.65,20.95 60.65,16.65 60.2,15.8 59.7,15.15 55.8,10.1 52.45,7.8 52.05,7.55 51.75,7.35 51.95,6.9 51.95,6.65 52.05,6.3 52.05,6.15 M51.45,6.05Q51.65,6.1 51.65,6.6 51.65,6.8 51.5,7.05 51.5,6.85 51.45,6.7 51.35,6.2 50.95,6 51.35,6 51.45,6.05 M47.2,3.45Q47.55,2.9 48.5,2.9 49.15,2.9 49.45,3.55 49.6,3.95 49.6,4.3 49.6,4.85 49.25,5.65 49.25,5.7 49.2,5.8 49.45,4.85 49.4,4.35 49.35,3.4 47.4,3.4 47.25,3.4 47.2,3.45 M46,4.1Q45.45,3.85 44.95,3.6 44.85,3.55 44.8,3.5 45.15,3.25 44.4,2.9 44.4,2.7 44.45,2.6 44.65,2.2 45.3,2.2 46.05,2.2 46.3,3.65 46.1,3.8 46,4.05L46,4.1"/></g><g id="h16" transform="matrix(1 0 0 1 1.75 17.4)"><path fill="#A63F20" d="M79.65,43.6Q79.5,43.35 78.85,42.2 76.45,37.55 67.15,18.45 55.5,-5.5 47.6,1.6 45.95,4.15 47.8,2.6 47.4,4.65 34.45,3.65 23.1,2.75 15.2,11.7 15.45,10.8 12.8,13 10.2,15.1 0.95,41.45 0.9,41.6 0.85,41.75 0.5,42.8 0.1,43.9 -0.9,46.85 8.55,50.05L9.35,49.05Q10.35,47.7 10.55,47.95L9.9,50.55Q11.1,50.85 12.45,51.25L16.9,44.35Q17,44.45 16.95,45.15L14.95,51.9Q16.2,52.25 17.6,52.55 36.5,57.1 51.65,54.45 52.4,54.3 53.15,54.2L53.1,51.05 54.2,53.9Q57.95,53.25 61.25,52.4L61.3,44.05 65.3,51.2Q74.65,48.2 79.65,43.6"/><path fill="#8D331D" d="M67.15,18.45Q75.8,38.65 76.5,39.8 75.8,40.55 74.95,41.3 70.55,45.1 63.45,47.85L65.3,51.2Q74.65,48.2 79.65,43.6 79.5,43.35 78.85,42.2 76.45,37.55 67.15,18.45"/><path fill="#8D331D" d="M59.1,40.3L59.05,49.35Q58.65,49.45 58.3,49.55 55.5,50.35 52.35,50.95L51.3,47.85 51.35,51.3Q51,51.35 50.7,51.4 50.6,51.4 50.5,51.45 50.2,51.5 49.9,51.55 35.55,54.4 17.6,49.5 16.65,49.25 15.8,49.05L14.95,51.9Q16.2,52.25 17.6,52.55 36.5,57.1 51.65,54.45 52.4,54.3 53.15,54.2L53.1,51.05 54.2,53.9Q57.95,53.25 61.25,52.4L61.3,44.8 59.1,40.3"/><path fill="#8D331D" d="M9.75,45.7L9,46.8Q1.8,44 0.95,41.45 0.9,41.6 0.85,41.75 0.5,42.8 0.1,43.9 -0.9,46.85 8.55,50.05L9.35,49.05Q10.35,47.7 10.55,47.95L9.9,50.55Q11.1,50.85 12.45,51.25L15.75,46.15 16.95,41.5Q17,40.75 16.9,40.6L12.7,48.1Q11.4,47.65 10.25,47.35L10.9,44.5Q10.7,44.25 9.75,45.7"/></g><g id="s3" transform="matrix(1 0 0 1 9.15 19.25)"><path fill="#000" fill-opacity="0.361" d="M53.45,35.65Q53.65,33.7 52.95,31.85 51.9,29.05 49.15,29.8 49.95,23.15 46.15,16.6 41.2,8.35 36.2,5.15 31.25,2 22.75,0.25 14.4,-1.5 6.2,10.35 -0.7,27.05 0.05,32.35 1.05,38.95 5.85,42.3 10.8,45.65 14.05,46.5 17.4,47.4 17.85,47.55 23.75,49.1 29.3,48.3 32.2,47.95 35.5,46.65 38.7,45.3 42.35,42.55 42.85,42.25 42.7,42.3L42.6,42.35Q42.65,42.3 42.75,42.25 42.75,42.2 42.85,42.15 44.55,40.6 45.85,38.7 46.75,39.5 47.7,39.6 51.05,40 52.5,38.05 53.25,37.05 53.45,35.65"/></g><g id="lula_fa" transform="matrix(-0.579 -0.188 -0.168 0.517 63.6 31.1)"><path fill="#FFCB99" d="M56.675,-3.7Q42.597,-5.42 33.2,-2.7 23.802,0.006 11.9,11.75 0,23.6 0,40.25 0,47.524 2.25,53.9 2.351,54.181 2.45,54.45L2.45,54.475 2.575,54.775Q2.769,55.234 3,55.8 4.162,58.657 5.5,60.75 8.932,66.22 11.8,69.5 14.67,72.781 22.325,76.9 29.981,81.03 35.6,81.5 41.212,81.955 46.825,82.25 52.441,82.545 61.775,79.475 71.108,76.404 75.95,65.35 79.762,56.59 77.55,23.4 70.749,-1.97 56.675,-3.7"/></g><g id="e2_l1" transform="matrix(1 0 0 1 8.1 35.75)"><g style="display:none;"><path fill="#604339" d="M26,9.4Q25.9,10 25.9,10.6 25.9,11.55 26.3,12.45 26.9,13.9 28.4,14.4 29.5,14.85 30.7,14.7 32.8,14.2 33.05,12.1 32.35,13.35 31.15,13.8 29.65,14.3 28.4,13.55 26.15,12.2 26,9.4"/><path fill="#000" d="M26.6,16.65L26.8,16Q26.9,15.4 26.65,15.6 26.45,15.85 26.15,16.1 25.9,16.35 26.15,16.65 26.45,16.8 26.6,16.65"/><path fill="#000" d="M29.25,16.95Q29.4,17 29.65,16.75 29.95,16.65 29.75,16.15 29.65,15.65 29.4,15.85 29.35,15.9 29.25,16.4 29.2,16.9 29.25,16.95"/><path fill="#000" d="M23.45,14.05Q23.5,14.1 23.65,14.3 23.7,14.4 24.15,14.2 24.55,14 24.7,13.9 24.9,13.7 24.7,13.65 24.55,13.5 24,13.75 23.45,13.85 23.45,14.05"/><path fill="#604339" d="M2.8,3.7Q2.7,4.3 2.7,4.9 2.7,5.85 3.1,6.75 3.7,8.2 5.2,8.7 6.3,9.15 7.5,9 9.6,8.5 9.85,6.4 9.15,7.65 7.95,8.1 6.45,8.6 5.2,7.85 2.95,6.5 2.8,3.7"/><path fill="#000" d="M0.65,8.65Q0.7,8.75 1.15,8.55 1.55,8.35 1.65,8.25 1.85,8.05 1.65,8 1.5,7.85 0.95,8.1 0.4,8.25 0.45,8.45 0.5,8.5 0.65,8.65"/><path fill="#000" d="M3.7,10.9L3.85,10.25Q3.95,9.65 3.7,9.85 3.5,10.1 3.2,10.35 2.95,10.65 3.25,10.9 3.55,11.05 3.7,10.9"/><path fill="#000" d="M6.75,10.9Q7,10.8 6.8,10.3 6.7,9.8 6.45,10 6.4,10.05 6.3,10.55 6.3,11.05 6.35,11.1 6.5,11.15 6.75,10.9"/><animate attributeName="display" repeatCount="1" dur="1.667s" keyTimes="0;0.2;0.275;1" values="none;inline;none;none"/></g><g><path fill="#E7994A" d="M29.6,7.2Q27.8,7.2 26.5,8.3 25.25,9.45 25.25,11.05 25.25,12.65 26.5,13.75 27.8,14.95 29.6,14.95 31.35,14.95 32.6,13.75 33.9,12.65 33.9,11.05 33.9,9.45 32.6,8.3 31.35,7.2 29.6,7.2"/><path fill="#E7994A" d="M9.35,2.75Q8.1,1.65 6.35,1.65 4.55,1.65 3.25,2.75 2,3.9 2,5.5 2,7.1 3.25,8.2 4.55,9.4 6.35,9.4 8.1,9.4 9.35,8.2 10.65,7.1 10.65,5.5 10.65,3.9 9.35,2.75"/><animate attributeName="display" repeatCount="1" dur="1.667s" keyTimes="0;0.2;0.275;1" values="inline;none;inline;none"/></g><g><use xlink:href="#eye_g" transform="matrix(-0.744 -0.241 -0.239 0.736 36.5 5.8)"/><use xlink:href="#eye_g" transform="matrix(-0.744 -0.241 -0.239 0.736 13.25 0.1)"/><animate attributeName="display" repeatCount="1" dur="1.667s" keyTimes="0;0.2;0.275;1" values="inline;none;inline;none"/></g></g><g id="mouth" transform="matrix(1 0 0 1 29.15 53.05)"><path fill="#87301B" d="M5.1,1.95Q5.25,1.8 5.75,1.4 6.2,1 4,0.2 1.8,-0.65 0,2L0.5,2.65Q0.9,2.1 2.2,1.55 3.45,1 4.4,1.5 5,1.8 5.1,1.95"/><path fill="#CC3C3C" d="M8.35,4.85L8.3,4.9 8.3,4.95Q8.35,4.9 8.35,4.85"/></g><g id="p1" transform="matrix(1 0 0 1 11.35 42)"><path fill="#A63F20" fill-opacity="0.659" d="M17.15,3.2Q17.35,2.9 17.2,2.75 17.05,2.75 17,2.75 16.95,2.85 16.9,3 16.7,3.25 16.85,3.4 16.95,3.4 17,3.4 17.05,3.4 17.15,3.2"/><path fill="#A63F20" fill-opacity="0.659" d="M14.55,2.2Q14.5,2.1 14.5,2.05L14.7,1.9 14.9,1.95Q14.95,2.15 14.9,2.25 14.8,2.35 14.7,2.3 14.65,2.3 14.55,2.2"/><path fill="#A63F20" fill-opacity="0.659" d="M13.7,4.35L13.95,4.45Q14.2,4.55 14.3,4.75 14.4,5.1 14.3,4.95 14.1,5.1 13.95,5.15 13.7,5.35 13.55,5.3 13.4,5.25 13.35,4.85 13.25,4.6 13.4,4.5L13.55,4.35Q13.65,4.35 13.7,4.35"/><path fill="#A63F20" fill-opacity="0.659" d="M16.65,7.2Q16.85,7.3 16.85,7.4 16.95,7.55 16.75,7.8 16.7,7.95 16.65,7.95L16.55,8.05 16.3,7.9 16.25,7.85Q16.05,7.7 16.15,7.6 16.35,7.15 16.65,7.1 16.7,7.15 16.65,7.2"/><path fill="#A63F20" fill-opacity="0.659" d="M15.8,9.6L15.8,9.45Q15.95,9.3 16.1,9.3 16.25,9.25 16.35,9.35 16.5,9.4 16.65,9.55 16.55,9.65 16.4,9.8L16.35,9.75Q16.25,9.85 16.15,9.85 16.1,9.85 16,9.75 15.8,9.7 15.8,9.6"/><path fill="#A63F20" fill-opacity="0.659" d="M9.55,0.55Q9.45,0.8 9.3,0.8L8.9,0.65Q8.5,0.4 8.55,0.15L8.8,0Q9.5,0.3 9.55,0.55"/><path fill="#A63F20" fill-opacity="0.659" d="M7.75,2.5Q7.7,2.75 7.65,2.9 7.45,2.9 7.3,2.9 7.15,2.8 7.1,2.6L7.25,2.4Q7.3,2.15 7.4,2.1 7.5,2.2 7.6,2.25 7.75,2.35 7.75,2.5"/><path fill="#A63F20" fill-opacity="0.659" d="M0.45,4.25L0.5,4.25Q0.65,4.3 0.65,4.45 0.7,4.55 0.6,4.7 0.5,4.9 0.4,4.85 0.35,4.85 0.2,4.75 -0.05,4.6 0.05,4.4 0.2,4.25 0.45,4.25"/><path fill="#A63F20" fill-opacity="0.659" d="M2.25,5.65Q2.45,5.5 2.7,5.6 3,5.75 3.05,5.8 3.2,5.9 3,6.15 2.95,6.4 2.75,6.4 2.7,6.4 2.6,6.35L2.55,6.3Q2.55,6.25 2.5,6.25 2.45,6.15 2.5,6.05L2.45,6.05Q2.35,5.8 2.25,5.65"/></g><g id="nose" transform="matrix(1 0 0 1 16.1 44.1)"><path fill="#7C4D42" d="M4.65,0Q4.6,0.05 4.3,0.2 3.75,0.45 2.2,1.1 0.75,1.75 0.4,2.15 0.1,2.5 0,3.35 -0.1,4.25 0.95,5.3 2,6.35 4.7,6.2 4.8,6 4.9,5.85 4.65,5.8 4.25,5.75 2.9,5.6 1.85,5.05 0.8,4.5 0.75,3.8 0.75,3.1 1.05,2.5 1.4,1.85 2.6,1.45 3.9,1.05 4.75,0.6L4.65,0"/></g><g id="eb1" transform="matrix(1 0 0 1 14.7 35.7)"><path fill="#873721" d="M20.3,8.05Q21.1,7.95 22.65,7.6 24.2,7.3 25.5,6.75 26.75,6.25 25.7,4.55 25.15,4.8 23.1,5.65 20.6,6.65 20.15,6.9 19.65,7.2 19.55,7.65 19.45,8.1 20.3,8.05"/><path fill="#873721" d="M3.2,4.1Q3.85,4.25 4,4 3.8,3.8 2.55,2 1.3,0.15 1.15,0.05 0.8,-0.05 0.25,0.25 -0.25,0.45 0.2,1.3 0.7,2.25 1.65,3.05 2.55,3.85 3.2,4.1"/></g><g id="hair" transform="matrix(-0.565 -0.226 -0.226 0.565 77.75 27.4)"><path fill="#A63F20" d="M67,23.5L67.05,23.5Q73.75,24.15 93.25,31.7 80.719,7.531 68.35,3.775 55.981,0.018 43,2.8 50.85,-1.05 30.95,7.75L17.3,44.75Q10.602,51.303 37.925,38.075 60.184,27.292 57.45,26.5 57.744,26.408 58.05,26.35L57.75,24.65Q59.75,24.25 61.4,23.8L61.8,25.5Q61.85,25.45 61.9,25.45 65.15,24.55 67,23.5"/></g><g id="ch" transform="matrix(1 0 0 1 8.45 49.1)"><path fill="#ED4E3D" fill-opacity="0.514" d="M40.95,12.4Q43.3,11.55 43.8,9.55 44.4,7.5 42.7,5.45 41,3.4 38.1,2.55 35.3,1.8 32.85,2.65 30.5,3.5 30.05,5.6 29.55,7.6 31.15,9.6 32.85,11.6 35.65,12.4 38.55,13.25 40.95,12.4"/><path fill="#ED4E3D" fill-opacity="0.514" d="M9.45,3Q10.9,4.7 10.35,6.55 9.95,8.3 7.85,9.05 5.75,9.8 3.7,9.1 1.7,8.35 1.1,6.15 0.55,3.9 0.1,2.25 -0.4,0.65 1.3,0.2 3,-0.25 5.4,0.45 7.95,1.15 9.45,3"/></g><g id="h15" transform="matrix(1 0 0 1 5 11.55)"><path fill="#A63F20" d="M42.6,4.6Q42.6,4.55 42.55,4.5 41.6,3.7 41.6,3.65 41.25,3.45 40.55,3.05 40.15,2.8 39.7,2.55 36.2,0.7 32.35,0.3 28.05,-0.05 25.65,0 23.4,0.15 19.85,1.15 16.65,2.35 11.95,5.65 -0.25,16.85 0.6,16.55L1.5,16.35 1.55,16.35Q1.65,16.35 1.7,16.3 2.05,16.3 2.4,16.2 4.45,15.8 7.9,14.5 4,18.55 1.2,19.7 0.55,20 0,20.2 0.6,20.4 1.2,20.6 4.15,21.6 7.15,22.1 16.45,23.6 25.7,21.9L34.5,20.65Q35.65,25.4 39.85,28.35 41.1,29.6 43.1,30.35 43.55,30.5 44.05,30.65 44.1,30.65 44.05,30.6 44,30.55 43.95,30.45 39.7,24.2 41.2,15.4 41.05,15.25 40.95,15.1 40.4,14.3 39.35,13.75 39.3,13.55 39.2,13.35 38.6,12.55 37.8,11.95 37.55,11.4 36.15,8.45 35.5,7.15 41.2,5.1 42.1,5.75 43.45,6.7L42.4,7Q43.05,7.85 45,6.4 44.35,5.95 43.8,5.5 43.35,5.15 42.95,4.8 42.9,4.8 42.8,4.75L42.75,4.7 42.75,4.65Q42.7,4.6 42.6,4.6"/><path fill="#873721" d="M10.8,15.55Q10.8,15.6 10.8,15.65 10.923,15.446 11.075,15.25 10.954,15.396 10.8,15.55"/><path fill="#A63F20" d="M42.7,4.45Q42.75,4.5 42.75,4.55 43.2,4.4 43.65,4.25 43.15,4.4 42.7,4.45"/><path fill="#873721" d="M42.75,4.55Q42.75,4.5 42.7,4.45 42,3.9 41.6,3.65 41.6,3.7 42.55,4.5 42.6,4.55 42.6,4.6 42.7,4.6 42.75,4.65 42.8,4.65 42.8,4.75 42.9,4.8 42.95,4.8 43.35,5.15 43.8,5.5 44.35,5.95 45,6.4 44.35,5.9 43.75,5.4 43.35,5 42.95,4.7L42.9,4.65Q42.85,4.6 42.75,4.55"/><path fill="#B13F23" d="M13.1,10.5L13.4,10.85Q13.55,10.6 13.75,10.35 14.85,8.8 17,7.65 19.05,6.5 22.4,5.55 19.9,5.35 17.1,6.7 14.55,8.1 13.55,9.7 13.15,10.35 13.1,10.5"/><path fill="#873721" d="M37.75,2Q38.65,2.2 39.5,2.5 39.6,2.5 39.7,2.55 36.2,0.7 32.35,0.3 28.05,-0.05 25.65,0 23.4,0.15 19.85,1.15 16.65,2.35 11.95,5.65 -0.25,16.85 0.6,16.55L1.5,16.35 1.55,16.35Q1.65,16.35 1.7,16.3 2.05,16.3 2.4,16.2 4.45,15.8 7.9,14.5 4,18.55 1.2,19.7 0.55,20 0,20.2 0.6,20.4 1.2,20.6 4.15,21.6 7.15,22.1 16.45,23.6 25.7,21.9L34.5,20.65Q35.65,25.4 39.85,28.35 38.6,27.15 38.1,25.5 37.1,21.65 36.25,17.5 35,17.8 31.15,19.1 25.35,21.1 14.1,22.25 9.1,21.8 3.25,20.85 1.65,20.35 1.25,20.15 0.85,19.95 1.2,20.05 1.3,20.05 1.4,20.1 4.9,18.8 7.45,16.1 10.05,13.4 11.75,11.8L3.8,14.8Q5,13.5 7.8,10.75 7.8,11.1 10.9,8.5 15.75,4.35 19.25,2.9 22.75,1.3 24.15,1.15 25.6,0.95 26.75,0.85 27.9,0.75 28.65,0.7L28.9,0.8Q33.95,1.15 37.75,2"/></g><g id="p" transform="matrix(1 0 0 1 29.9 11.75)"><path fill="#445F8E" d="M12.5,3.9Q12.5,3.2 12.7,2.85 7.2,0.9 0.6,0.1 0.3,0.05 0,0 0.3,0.1 0.6,0.25 7.75,2.4 12.7,5.3 12.5,4.85 12.5,3.9"/><path fill="#445F8E" d="M23.85,10.4Q24.2,11 24.2,11.4 24.2,12.65 22.15,12.65 21.65,12.65 21.25,12.45L21.25,12.5Q21.25,12.75 21.2,12.95 27.05,23.7 27.6,36.7 30.85,23.95 25.7,10.25 25.1,9.75 24.5,9.25 24.4,9.4 24.2,9.55 24,9.75 23.85,9.85 23.85,10.05 23.85,10.15 23.85,10.3 23.85,10.4"/><path fill="#538DC6" d="M22.35,5.35Q21.95,5.35 21.65,5.45 21.85,4.75 21.85,4.35 21.85,2.25 20.15,2.45 19.5,2.5 18.95,2.95 18.65,3.2 18.55,3.5 18.5,3.5 18.45,3.5 18.25,2.9 17.9,2.4 17.2,1.3 16.5,1.85 15.95,2.25 15.9,2.9 15.25,2.5 14.5,2.35 13.15,2 12.7,2.85 12.5,3.2 12.5,3.9 12.5,4.85 12.7,5.3 12.75,5.4 12.8,5.45 12.85,5.5 12.95,5.6 12.25,5.6 11.95,5.95L11.8,6.55Q11.8,7.1 11.95,7.25 12.1,7.45 12.85,7.8 12.65,7.9 12.5,7.95 11.55,8.45 11.55,9.5 11.55,10.05 11.65,10.25 12,10.85 13.2,10.85 13.9,10.85 14.8,10.5 14.45,10.75 14.35,10.9 13.7,11.55 13.7,12.7 13.7,12.75 13.7,13.55 13.95,14.4 15.25,14.4 16.45,14.4 17.1,13.45L17.1,13.4Q17.35,14 19.65,14 21,14 21.2,12.95 21.25,12.75 21.25,12.5L21.25,12.45Q21.65,12.65 22.15,12.65 24.2,12.65 24.2,11.4 24.2,11 23.85,10.4 23.85,10.3 23.85,10.15 23.85,10.05 23.85,9.85 24,9.75 24.2,9.55 24.4,9.4 24.5,9.25 24.65,8.95 24.65,8.7 24.65,8.4 23.5,8.05 23.35,8 23.3,7.95 23.3,7.8 23.35,7.65 23.85,7.05 23.85,6.6 23.95,6.3 23.95,6.15 23.95,5.9 23.65,5.65 23.3,5.3 22.35,5.35 M21.5,4.3Q21.5,4.8 21.2,5.65 21.1,5.7 21.05,5.75 21.35,4.85 21.3,4.35 21.25,3.4 19.3,3.4 19.15,3.4 19.05,3.4 19.45,2.85 20.35,2.85 21,2.85 21.3,3.55 21.5,3.95 21.5,4.3 M21.05,5.9L21,5.9 21,5.85Q21.05,5.85 21.05,5.9 M23.35,6Q23.55,6.1 23.55,6.6 23.55,6.85 23.4,7.05 23.4,6.85 23.35,6.7 23.25,6.2 22.85,5.95 23.25,6 23.35,6 M17.2,2.15Q17.95,2.15 18.2,3.65 18,3.8 17.9,4 17.8,4.35 17.95,4.75L17.85,4.75Q17.1,3.75 16.25,3.15L16.25,3.1Q16.25,2.75 16.3,2.6 16.55,2.15 17.2,2.15 M13.55,6.05Q13.95,6.35 14.65,6.8L14.6,6.9Q13.9,7.25 13.4,7.5 12.7,7.4 12.4,7.15 12.15,6.95 12.15,6.45 12.15,6.2 12.2,6.05L13.55,6.05 M12,9.2Q12,9.7 12.2,9.8 12.8,10.05 15.2,9.9 15.05,9.95 14.9,10.05 14.3,10.45 13.2,10.45 12.25,10.45 12,10.1 11.9,10 11.9,9.5 11.9,9.3 12,9.05 12,9.1 12,9.2 M17,13.25Q16.55,14.05 15.25,14.05 14.7,14.05 14.4,13.85L15.2,13.9Q16.15,13.9 16.75,13.25 16.95,13.1 17.1,12.9 17.05,13.1 17,13.25 M14.05,12.7Q14.05,12.15 14.35,11.6L14.35,13.85Q14.15,13.65 14.05,13.4 14.05,12.75 14.05,12.7 M20.5,11.95Q20.7,12.2 20.9,12.5 20.9,12.75 20.75,13.05 20.55,13.45 20.05,13.6 20.3,13.3 20.35,12.85 20.35,12 20.3,11.75 20.4,11.85 20.5,11.95 M23.85,8.45Q24.15,8.6 24.3,8.75 24.3,8.9 24.25,9.05 23.7,8.65 23.2,8.25 23.55,8.35 23.85,8.45"/><path fill="#538DC6" d="M23.2,8.25Q23.25,8.45 23.55,9.1 23.6,9.3 23.7,9.5 23.85,9.4 23.95,9.3 24.15,9.15 24.25,9.05 24.3,8.9 24.3,8.75 24.15,8.6 23.85,8.45 23.55,8.35 23.2,8.25"/><path fill="#538DC6" d="M20.5,11.95Q20.4,11.85 20.3,11.75 20.35,12 20.35,12.85 20.3,13.3 20.05,13.6 20.55,13.45 20.75,13.05 20.9,12.75 20.9,12.5L20.9,12.45Q20.9,12.4 20.85,12.2 20.65,12.1 20.5,11.95"/><path fill="#445F8E" d="M21.25,12.15Q21.4,12.3 21.55,12.3 23.2,12.3 23.7,11.9 23.85,11.75 23.85,11.4 23.85,11.35 23.85,11.3 23.6,11.6 22.25,11.6L21.1,11.6Q21.2,11.75 21.2,11.85 21.25,11.95 21.25,12.15"/><path fill="#445F8E" d="M19.8,8.1Q19.15,7.65 18.7,7.3 18.8,7.1 18.7,6.95 17.1,6.9 16.7,7.4 16.6,7.55 16.6,7.95 16.55,8.1 16.55,8.3L16.65,9.2Q17.05,10.1 18.55,10.1 18.75,10.1 18.95,10.1 20.2,9.95 20.2,8.9 20.2,8.4 19.8,8.1"/><path fill="#445F8E" d="M20.85,12.2Q20.65,12.1 20.5,11.95 20.7,12.2 20.9,12.5L20.9,12.45Q20.9,12.4 20.85,12.2"/><path fill="#445F8E" d="M23.2,8.25Q23.25,8.45 23.55,9.1 23.6,9.3 23.7,9.5 23.85,9.4 23.95,9.3 24.15,9.15 24.25,9.05 23.7,8.65 23.2,8.25"/></g><use xlink:href="#ear" transform="matrix(-0.616 -0.068 -0.068 0.616 62.65 48.35)"/></g><g id="aa" transform="matrix(1 0 0 1 0 12.65)"><path fill="#000" fill-opacity="0.282" d="M31.3,56.65Q28.605,62.067 28.3,62.55 27.05,64.5 25.6,66.75 23.65,69.75 22.75,71.45 23.65,71.75 24.95,72.4 26.15,70.85 27.1,69.7 22.2,90 19.85,96.05 20.2,96 20.5,96 19.65,97.75 19.05,99.15 18.3,101.05 17.85,102.35L17.8,102.35Q17.95,102.4 18,102.4 20.15,103.6 27.2,104.3 27.2,104.5 27.25,104.75 27.35,105.7 27.55,107 27.75,108.75 28.05,111.1 28.9,117.4 28.8,120.3 28.8,120.4 28.8,120.45 26.85,124.7 32.25,122.65 33,123.75 31.95,113.75 31.25,106.95 30.95,104.6 31,104.6 31.05,104.6 32.65,104.5 34.65,104.35 36.85,104.15 37.15,104.1 37.2,104.1 37.25,104.1 37.4,104.05 37.5,104.05 37.6,104.35 37.65,104.75 37.7,104.85 37.7,104.95 37.9,105.65 38.05,106.35 38.5,108.55 38.3,107.85L38.75,109.8Q39.7,113.95 40.6,117.9 40.9,119.3 42.05,122.4 44.1,122.6 43.5,120.45 42.75,117.6 42.05,112.3 41.8,110.3 41.55,108.7 41.35,107.35 41.25,106.35 41.05,105.5 40.95,104.75 40.8,104.1 40.7,103.5 41.7,102.9 44.3,101.35 49.2,98.4 49.85,96.05 47.95,93.7 48.05,93.7 43.95,88 42.3,80.2 41.65,77.1 40.75,71.65 41,71.65 41.45,71.65 44.55,71.6 44.4,71.1 46,71.35 44.25,68.15 42.8,65.5 41.25,62.55 40.85,61.928 37.25,56.2 34.155,53.989 31.3,56.65"/><path fill="#000" fill-opacity="0.388" d="M43.1,103.6L43.15,103.55 43.2,103.55Q43.15,103.6 43.1,103.6"/></g><g id="b1_l1" transform="matrix(1 0 0 1 12.7 62.45)"><g id="h14" transform="matrix(1 0 0 1 8.95 6.55)"><path fill="#538DC6" d="M9.45,5.6Q9.45,5.55 9.4,5.5 9.449,5.451 9.4,5.4L9.45,5.45Q8.95,2.4 9.25,0.65 9.55,-1.1 7.7,2 5.9,5.1 3.35,9.55 0.75,13.95 0.2,15.5 0,16.05 0,16.2 0.85,15.85 2.8,15.2 4.85,12.2 6.1,10.7 7.4,9.15 8.65,7 9.15,6.1 9.4,5.6L9.45,5.6"/></g><g id="leg2_lula_copy_l1.667s" transform="matrix(-0.424 0 0 0.424 37.95 50.1)"><g><path fill="#E69E34" d="M26.35,21.35L27.4,16.7Q26.95,18.4 28.9,4.55L19.4,1.5Q18.75,15.55 18.3,18.7 17.8,22.45 17.15,27.2 15.2,41.95 12.05,51.2 11.75,52.25 10.9,53.3L19.4,53.3Q19.53,52.314 19.725,51.15 20.422,46.941 21.95,40.4 24.1,31.15 26.35,21.35"/><animate attributeName="display" repeatDur="1.667s" dur="0.25s" keyTimes="0;0.5;1" values="none;inline;none"/></g><g style="display:none;"><path fill="#E69E34" d="M26.35,21.35L27.4,16.7Q26.95,18.4 30.1,2.75L20.95,1.2Q18.75,15.55 18.3,18.7 17.8,22.45 17.15,27.2 15.2,41.95 13.15,48.5 11.75,52.25 10.9,53.3L19.4,53.3Q19.53,52.314 19.725,51.15 20.422,46.941 21.95,40.4 24.1,31.15 26.35,21.35"/><animate attributeName="display" repeatDur="1.667s" dur="0.25s" keyTimes="0;0.5;1" values="inline;none;none"/></g><g><path fill="#E69E34" d="M20.1,53.65Q20.1,53.55 19.85,53 19.85,53.2 19.8,53.3L14.9,52.65Q14.5,53.1 14.25,53 14.15,52.95 11.9,52.95 9.65,52.85 5.7,53.2 1.7,53.5 2.45,54.3 3.2,55.1 1.85,55.5 0.5,55.95 0.7,56.35 1.05,57.15 2.2,57.95 3.55,58.8 5.9,59.5 6.8,59.75 7.65,59.95 7.8,59.95 13.9,60.2 19.95,60.45 20.45,59.2 20.9,57.95 20.1,53.65"/><animate attributeName="display" repeatDur="1.667s" dur="0.25s" keyTimes="0;0.5;1" values="none;inline;none"/></g><g style="display:none;"><path fill="#E69E34" d="M12.5,49.475Q10.495,48.444 6.775,46.975 3.054,45.506 3.375,46.55 3.698,47.598 2.35,47.35 0.9,47.15 0.9,47.6 0.85,48.5 1.55,49.7 2.4,51.05 4.2,52.7 4.9,53.35 5.6,53.9 5.7,53.95 11.05,56.9 16.4,59.8 17.4,58.9 18.34,57.96 19.5,53.75 19.531,53.648 19.55,53.025 19.484,53.177 19.4,53.3L15.25,50.55Q14.75,50.75 14.55,50.6 14.501,50.502 12.5,49.475"/><animate attributeName="display" repeatDur="1.667s" dur="0.25s" keyTimes="0;0.5;1" values="inline;none;none"/></g><g><path fill="#741D26" d="M16.05,60.55Q22.7,60.05 20.6,58.8 7.4,59.4 -2,57.9 -1.85,58.4 -1.5,58.65 9.35,61.05 16.05,60.55"/><path fill="#AA2B37" d="M7.9,55.7L6.6,53.35Q0.55,51.2 -1.8,54.95 -2.45,56.85 -2,57.9 7.4,59.4 20.6,58.8 21.55,57.45 20.05,53.65 19.85,53.15 19.55,52.45L12.05,51.2 11.65,53.7 13.6,54.35Q12.5,57.65 7.9,55.7"/><animate attributeName="display" repeatDur="1.667s" dur="0.25s" keyTimes="0;0.5;1" values="none;inline;none"/></g><g style="display:none;"><path fill="#AA2B37" d="M13.4,51.5Q10.95,54 7.65,50.2L7.55,47.55Q3.05,42.9 -0.7,45.25 -2.1,46.65 -2.2,47.8 5.6,53.3 17.7,58.55 19.086,57.812 19.45,53.75 19.517,53.138 19.55,52.45L13.35,48 11.9,50.05 13.4,51.5"/><path fill="#741D26" d="M12.775,58.15Q19.002,60.635 17.7,58.55 5.6,53.3 -2.2,47.8 -2.3,48.3 -2.05,48.7 6.556,55.654 12.775,58.15"/><animate attributeName="display" repeatDur="1.667s" dur="0.25s" keyTimes="0;0.5;1" values="inline;none;none"/></g></g><g id="leg_lula" transform="matrix(0.41 -0.11 0.11 0.41 4.15 51.55)"><path fill="#E69E34" d="M27.325,6.9Q26.218,5.895 23.15,8.05 21.7,9.05 20.35,10 19.9,12.9 19.3,17.45 18.7,21.65 17.95,27.2 16,41.95 12.95,52.15 13.621,52.2 12.825,52.85L21.1,52.85Q21.745,48.337 23.6,40.4 25.75,31.15 28,21.35L29.05,16.7Q28.55,18.6 29.9,11.85 31.176,5.247 27.325,6.9"/><path fill="#FFCB99" d="M27.15,-30.575L27.1,-30.55 27.1,-30.525Q27.129,-30.55 27.15,-30.575"/><path fill="#FFCB99" d="M28.05,-33.45Q28.195,-33.494 28.325,-33.525 28.249,-33.576 28.15,-33.6 27.45,-33.8 28.05,-33.45"/><path fill="#E69E34" d="M50.975,-13.325Q51.24,-14.412 51.55,-15.6 48,-12.75 41.2,-7.35 34.482,-1.976 20.25,8.1 19.656,13.193 18.975,18.325 16.142,39.68 17.1,41.9 14.788,65.213 24.95,16.65L27.25,15.25Q29.15,13.65 38.45,6.45 48.15,-1.15 51.65,-3.55 51.15,-5.45 53.8,-15.6 52.579,-14.62 50.975,-13.325"/><path fill="#E69E34" d="M12.9,60.2Q18.956,60.8 18.925,58.25 18.883,55.729 19.025,52.85L14.75,52.3Q14.5,52.55 14.3,52.7 13.95,53.05 13.65,52.5 13.3,51.95 10.15,52.75 7,53.5 4.85,53.65 2.7,53.75 2.65,54.1 2.55,54.4 1.2,54.75 -0.2,55.1 -0.05,55.5 0.25,56.35 1.35,57.2 2.6,58.15 5,59 5.85,59.3 6.75,59.5 6.85,59.55 12.9,60.2"/><path fill="#AA2B37" d="M9.3,55.95L8.8,52.7Q2.05,51.1 -0.5,54.6 -1.3,56.3 -0.9,57.4 8.6,59.45 19.75,60L21.4,51.1 13.6,50.35 12.5,52 15.75,54.15Q13.95,58.1 9.3,55.95"/><path fill="#88222D" d="M19.6,60.7L19.75,60Q8.6,59.45 -0.9,57.4 -0.75,57.85 -0.4,58.15 9,60.85 19.6,60.7"/></g><g id="d2" transform="matrix(1 0 0 1 5.25 34.15)"><path fill="#AA2B37" d="M6.85,0.3Q6.35,1.3 6.1,1.85 5.9,2.3 5.85,2.45 5.9,2.45 5.6,3.45 5.95,2.7 6.3,1.9 6.4,1.65 6.45,1.45 6.75,0.85 6.95,0.4L6.85,0.3"/><path fill="#AA2B37" d="M22.3,18.65Q23.65,18.2 25.2,17.55 25.65,17.35 26.8,16.75 27.45,16.4 28.2,15.85L28.25,15.8Q28.8,15.4 29.45,14.8 29.5,14.75 30.3,13.75 16.3,20.25 1.4,16.15L7.6,0.75 7.1,0.45Q6.75,1.1 6.45,1.85 6.25,2.2 6.15,2.55 5.6,3.85 5.05,5.05 5,5.2 4.95,5.35 4.75,5.75 4.6,6.15 4.4,6.55 4.25,6.95 3.95,7.6 3.7,8.2L4.15,7.4 4,7.75Q3.9,7.9 3.6,8.5 0.95,14.6 0,17.5L0,17.55Q0.05,17.55 0.1,17.6 2.65,19.05 12.15,19.75 13.05,19.85 13.9,19.85L15.6,19.7 15.15,19.8Q16.9,19.7 18.3,19.5 18.5,19.5 18.75,19.45 19.05,19.35 19.35,19.3L19.4,19.3Q21.15,19 22.3,18.65"/><path fill="#B92D30" d="M25.15,6.25Q21.05,1.1 20.3,0 16.2,0.25 7.6,0.7L7.6,0.75 1.4,16.15Q16.3,20.25 30.3,13.75L30.35,13.75Q30.45,13.6 30.55,13.5L30.75,13.25Q30.6,13.1 30.5,13.05 29.4,11.65 25.15,6.25"/></g><g id="eb" transform="matrix(1 0 0 1 6.4 0)"><g id="b3" transform="matrix(1 0 0 1 6.2 0)"><path fill="#FFCB99" d="M4.65,7.35Q3.7,8.65 3.55,9.6 3.35,10.55 3.05,11.75 2.75,13.05 2.6,14 2.45,14.8 1.15,23.35 -0.15,31.85 0,33.3 0.2,34.6 1.2,35.15 3.2,36.25 8.4,35 10.45,34.55 10.9,34.3 11.85,33.95 12.25,33.15 12.85,31.75 12.75,24.85 12.7,20.15 12.65,19.3 12.6,18.7 12.25,15.4 11.8,11.8 11.1,9.05 10.5,6.75 9.25,6 10.1,3.75 10.45,2.35 10.05,1.8 7.15,0.75 5.6,0.15 4.75,0 4.7,0.05 5.6,3.35 5.95,4.7 5.95,6.05 5.25,6.55 4.65,7.35"/></g><g id="d3" transform="matrix(1 0 0 1 0 6.25)"><path fill="#538DC6" d="M15.9,0Q16.05,3.15 14.85,6 14.05,7 14.05,6.9 12.35,8.45 11.7,8.1 10.15,6.2 11.15,0.8 10.65,1 10.15,1.9L8.05,9.35Q3.05,32.65 0,41.15 12.5,45.3 29.2,40.45 22.6,31.1 21.1,23.3 20.2,18.55 18.75,8.35 18.4,6.3 17.6,1.9 17.2,0 15.9,0"/></g></g><g id="h13" transform="matrix(1 0 0 1 22.85 6.75)"><path fill="#538DC6" d="M1.15,5.65Q1.2,5.75 1.25,5.85L1.3,5.85Q1.6,6.2 4,10 6.4,13.75 7.35,13.75 8.3,13.75 9.95,15.05 8.25,12.75 8.1,12.55 3.15,3.95 0.8,0.15 -0.4,-0.4 0.25,1.15 0.85,2.7 1.2,5.7L1.15,5.65"/></g><g id="h12" transform="matrix(1 0 0 1 8.75 20.15)"><path fill="#DAB383" d="M10.5,2.9Q12.6,2.85 14.4,2.85 8.5,2.55 5.4,1.1 5.15,0.95 4.95,0.85 2.75,1.5 2.35,1.6L2.4,1.6Q2.55,1.55 2.75,1.55 3.45,1.65 4.65,1.85 8.2,2.45 10.5,2.9"/><path fill="#000" fill-opacity="0.443" d="M21.65,6.15Q21.75,6.3 21.75,6.5 21.75,6.75 21.5,7.15 21.6,7.45 21.5,7.7 21.35,7.85 21.1,8.05 21.2,8.3 21.05,8.45 20.95,8.65 20.6,8.85 20.65,9.05 20.4,9.25 20.2,9.4 19.3,9.3 18.65,9.2 17.95,8.45 15.75,7.6 13.25,6.95 10.7,6.3 9.05,5.85 7.4,5.4 6.25,5.15 5.05,4.85 4.55,4.8 4,4.6 2.7,4.15 0.1,3.3 0.05,2.9 0.5,2.95 1.8,3.45 4.25,4.25 6.15,4.45 8.1,4.6 10.45,5.25 12.25,5.6 13.9,6.15 15.9,6.8 17.65,7.65L17.7,7.65Q18.55,8.65 19.8,9.1 20.05,9.1 20.25,8.95 20.5,8.75 20.45,8.55 20.8,8.35 20.9,8.15 21.05,8 20.95,7.75 21.2,7.55 21.35,7.4 21.45,7.15 21.35,6.85 21.6,6.45 21.6,6.2 21.6,6.15 21.6,6.1L21.65,6.15"/><path fill="#DAB383" d="M20.65,5.45Q20.55,5.6 20.5,5.65 20.3,5.55 20.15,5.45 20.1,5.65 20.4,5.8 20.7,5.9 21,5.8 20.9,5.75 20.8,5.75 20.7,5.75 20.65,5.7L20.65,5.45"/><path fill="#000" fill-opacity="0.443" d="M20.7,5.2Q20.75,5.35 20.8,5.5 20.7,5.45 20.65,5.45 20.65,5.302 20.65,5.15 20.652,5.2 20.7,5.2"/><path fill="#FFCB99" d="M20.65,5.15Q20.6,5.05 20.55,4.9 19.6,4.4 18.25,4.75 17.35,4.5 16.45,4.25 15.1,3.85 12.65,3.35 12.3,3.25 11.85,3.2 11.25,3.05 10.5,2.9 8.2,2.45 4.65,1.85 3.45,1.65 2.75,1.55 2.55,1.55 2.4,1.6L2.35,1.6Q1.15,1.85 0.15,2.75 0.05,2.8 0.05,2.85L0,2.9 0.05,2.9Q0.5,2.95 1.8,3.45 4.25,4.25 6.15,4.45 8.1,4.6 10.45,5.25 12.25,5.6 13.9,6.15 15.9,6.8 17.65,7.65L17.7,7.65Q18.55,8.65 19.8,9.1 20.05,9.1 20.25,8.95 20.5,8.75 20.45,8.55 20.8,8.35 20.9,8.15 21.05,8 20.95,7.75 21.2,7.55 21.35,7.4 21.45,7.15 21.35,6.85 21.6,6.45 21.6,6.2 21.6,6.15 21.6,6.1 21.55,5.95 21.5,5.85 21.4,5.75 21.15,5.65 20.95,5.55 20.8,5.5 20.7,5.45 20.65,5.45L20.65,5.7Q20.7,5.75 20.8,5.75 20.9,5.75 21,5.8 20.7,5.9 20.4,5.8 20.1,5.65 20.15,5.45 20.3,5.55 20.5,5.65 20.55,5.6 20.65,5.45 20.65,5.302 20.65,5.15"/><path fill="#000" fill-opacity="0.443" d="M23.8,2.1Q23,3 21.55,3.05 20.1,3.05 18.85,3.1 17.6,3.15 14.55,3.15 13.25,3.15 11.85,3.2 11.25,3.05 10.5,2.9 12.6,2.85 14.4,2.85 17.45,2.85 19.6,2.85 19.95,2.8 20.3,2.8 22.45,2.8 22.5,2.65 24.3,1.4 23.35,0.85 24.45,1.3 23.8,2.1"/><path fill="#FFCB99" d="M23.35,0.85Q23.1,0.75 22.8,0.65 21,0.05 19.75,0.05 18.6,0.05 16.6,0 14.7,0 13.5,0.05 11.4,0.2 9.35,0.35 7.15,0.45 5.1,0.8 5.05,0.8 4.95,0.85 5.15,0.95 5.4,1.1 8.5,2.55 14.4,2.85 17.45,2.85 19.6,2.85 19.95,2.8 20.3,2.8 22.45,2.8 22.5,2.65 24.3,1.4 23.35,0.85"/><path fill="none" stroke="#BE968B" stroke-width="0.25" stroke-linecap="round" stroke-linejoin="round" d="M21.5,5.85Q21.55,5.95 21.6,6.1M21.15,5.65Q21.4,5.75 21.5,5.85M20.8,5.5Q20.95,5.55 21.15,5.65M20.55,4.9Q20.6,5.05 20.65,5.15M18.25,4.75Q19.6,4.4 20.55,4.9"/><path fill="none" fill-opacity="0.443" stroke="#BE968B" stroke-width="0.25" stroke-linecap="round" stroke-linejoin="round" d="M19.8,9.1Q18.55,8.65 17.7,7.65M20.25,8.95Q20.05,9.1 19.8,9.1M20.45,8.55Q20.5,8.75 20.25,8.95M20.9,8.15Q20.8,8.35 20.45,8.55M20.95,7.75Q21.05,8 20.9,8.15M21.35,7.4Q21.2,7.55 20.95,7.75M21.35,6.85Q21.45,7.15 21.35,7.4M21.6,6.2Q21.6,6.45 21.35,6.85M21.6,6.1Q21.6,6.15 21.6,6.2"/><path fill="none" fill-opacity="0.443" stroke="#BE968B" stroke-width="0.25" stroke-linecap="round" stroke-linejoin="round" d="M20.65,5.45Q20.7,5.45 20.8,5.5M20.65,5.15Q20.65,5.302 20.65,5.45"/></g></g></g><g><g id="3333" transform="matrix(1 0 0 1 -249.05 -172.95)"><animateTransform attributeName="transform" additive="replace" type="translate" dur="1.667s" keyTimes="0;0.3;0.375;0.425;1" values="-218.7,-145.751;-218.7,-145.751;-218.65,-145.771;-218.65,-145.75;-218.65,-145.75"/><animateTransform attributeName="transform" additive="sum" type="scale" dur="1.667s" keyTimes="0;0.3;0.375;0.425;1" values="1.096,1.096;1.096,1.096;0.975,0.975;1,1;1,1"/><animateTransform attributeName="transform" additive="sum" type="translate" dur="1.667s" keyTimes="0;0.3;0.375;1" values="-30.35,-27.2;-30.35,-27.2;-30.4,-27.2;-30.4,-27.2"/><g id="11" transform="matrix(1 0 0 1 0.95 2.95)"><path fill="#000" fill-opacity="0.353" d="M58.25,17.05Q57.6,16.5 56.35,16.45 53.2,16.25 49.85,18.6 47.5,20.25 43.5,24.95 43.05,25.3 39,30.8 34.45,36.9 34.2,38.7 34.2,38.8 34.2,40.35 34.8,42.1 37.35,42.75 40,43.45 43.3,39.1 46,40.9 49.2,41.8 49.1,42.15 49.05,42.55 49.05,42.6 48.6,45.5 48.75,48.55 51.75,49.3 54.75,50.1 57.35,39.95 59.45,29.35 59.5,28.9 59.7,27.75 59.8,25.7 59.95,22.85 59.75,21.15 59.9,17.7 58.25,17.05 M52.3,27.15Q52.2,27.75 50.45,36.1 48.7,34.9 46.65,34 46.55,33.95 46.5,33.9 47.15,32.8 47.95,31.45 49.1,29.5 52.35,26.3 52.3,26.95 52.3,27.15"/><path fill="#000" fill-opacity="0.353" d="M29.9,7.45Q31.85,14.85 31.85,27 31.85,27.35 32.1,31.45 32.25,36.15 31.85,39.8 30.85,51.4 25.65,51.45 20.5,51.45 19.5,39.2 19.3,37.2 19.25,34.9 17.25,35.1 14.8,35.1 14.2,35.1 13.6,35.15 13.8,39.7 14,45 13.95,47.35 12.6,49.15 10.8,51.45 7.4,51.4 2.55,51.4 0.8,31 0.2,24.65 0.1,16.95 0,10.45 0,10.35 0,4.95 2.25,2.1 4.35,-0.55 7.1,0.15 9.95,0.85 11.65,4.85 13.5,9.35 13.05,16.5 13.1,18.95 13.2,22.1 13.95,22.05 14.75,22 17.25,22 19.55,22.45 19.75,12.65 21.3,6.7 23.1,0.2 25.65,0.45 28.2,0.65 29.9,7.45"/></g><path fill="#FC3" d="M59.45,21.15Q59.6,17.7 57.95,17.05 57.3,16.5 56.05,16.45 52.9,16.25 49.55,18.65 47.2,20.25 43.2,24.95 42.75,25.3 38.7,30.8 34.15,36.95 33.9,38.7 33.9,38.8 33.9,40.35 34.5,42.1 37.05,42.8 39.7,43.5 43,39.1 45.7,40.9 48.9,41.8 48.8,42.2 48.75,42.55 48.75,42.6 48.3,45.5 48.45,48.55 51.45,49.35 54.45,50.1 57.05,39.95 59.15,29.35 59.2,28.9 59.4,27.8 59.5,25.7 59.65,22.85 59.45,21.15 M52,27.15Q51.9,27.8 50.15,36.1 48.4,34.95 46.35,34 46.25,33.95 46.2,33.9 46.85,32.8 47.65,31.45 48.8,29.5 52.05,26.3 52,26.95 52,27.15"/><path fill="#FC3" d="M29.9,7.5Q28.2,0.65 25.65,0.45 23.1,0.2 21.3,6.7 19.75,12.7 19.55,22.5 17.25,22 14.75,22 13.95,22.05 13.2,22.1 13.1,18.95 13.05,16.5 13.5,9.35 11.65,4.9 9.95,0.85 7.1,0.15 4.35,-0.55 2.25,2.1 0,4.95 0,10.35 0,10.45 0.1,16.95 0.2,24.65 0.8,31.05 2.55,51.4 7.4,51.4 10.8,51.45 12.6,49.15 13.95,47.35 14,45 13.8,39.7 13.6,35.15 14.2,35.1 14.8,35.1 17.25,35.1 19.25,34.95 19.3,37.2 19.5,39.2 20.5,51.45 25.65,51.45 30.85,51.4 31.85,39.8 32.25,36.15 32.1,31.45 31.85,27.35 31.85,27 31.85,14.85 29.9,7.5"/></g><animate attributeName="display" repeatCount="1" dur="1.667s" keyTimes="0;0.3;1" values="none;inline;none"/></g><g><g id="2222" transform="matrix(1 0 0 1 -255.15 -117.3)"><animateTransform attributeName="transform" additive="replace" type="translate" dur="1.667s" keyTimes="0;0.475;0.55;0.6;1" values="-221.4,-89.886;-221.4,-89.886;-221.399,-89.905;-221.4,-89.9;-221.4,-89.9"/><animateTransform attributeName="transform" additive="sum" type="scale" dur="1.667s" keyTimes="0;0.475;0.55;0.6;1" values="1.084,1.084;1.084,1.084;0.985,0.985;1,1;1,1"/><animateTransform attributeName="transform" additive="sum" type="translate" dur="1.667s" keyTimes="0;1" values="-33.75,-27.4;-33.75,-27.4"/><g id="222" transform="matrix(1 0 0 1 0.1 1.15)"><path fill="#000" fill-opacity="0.353" d="M64.45,15.25Q63.4,11 62.25,8.5 60.9,3.35 57.8,3.1 56.35,2.55 54.1,3.05 48.65,4.05 44,8.95 40.65,12.35 35.9,20.9 35.25,21.6 30.75,31.45 25.85,42.45 26.15,45.15 26.15,45.3 26.95,47.65 28.65,49.9 33.4,49.85 38.3,49.8 42,42.05 47.5,43.55 53.5,43.6 53.5,44.15 53.55,44.7 53.55,44.85 54.15,49.35 55.85,53.75 61.4,53.7 66.95,53.6 66.75,37.4 65.45,20.9 65.35,20.1 65.15,18.45 64.45,15.25 M52.15,20.65Q52.25,21.6 53,34.55 49.6,33.6 45.4,33 45.2,33 45.15,32.95 45.75,31.1 46.5,28.7 47.6,25.4 51.75,19.25 52.1,20.3 52.15,20.65"/><path fill="#000" fill-opacity="0.353" d="M32.55,10.4Q32.65,16.15 30,24.8 29.95,25.1 29.25,28.05 28.35,31.4 27.3,33.95 23.8,42.1 19.05,41 14.5,39.9 16.2,30.95 16.5,29.45 16.95,27.85 15.1,27.55 12.9,27.05 12.3,26.9 11.8,26.75 10.95,30.05 10,33.95 9.5,35.6 7.85,36.6 5.75,37.85 2.65,37.15 -1.75,36.1 1.15,21.2 2.05,16.5 3.6,10.95 4.95,6.3 5,6.2 6.15,2.35 8.8,0.8 11.25,-0.65 13.6,0.45 15.95,1.5 16.7,4.7 17.35,8.35 15.4,13.35 14.85,15.1 14.25,17.4 14.95,17.5 15.7,17.7 18.05,18.15 19.9,18.95 22.3,12.05 25.05,8.15 28,3.75 30.2,4.5 32.45,5.2 32.55,10.4"/></g><path fill="#FC3" d="M65.25,14.75Q64.15,10.55 63.05,8.05 61.7,2.85 58.6,2.65 57.15,2.1 54.85,2.55 49.45,3.55 44.8,8.5 41.45,11.9 36.7,20.45 36.05,21.15 31.55,31 26.65,42 26.95,44.7 26.95,44.8 27.75,47.2 29.45,49.4 34.2,49.35 39.1,49.35 42.8,41.55 48.25,43.05 54.25,43.1 54.25,43.65 54.35,44.2 54.35,44.35 54.9,48.85 56.65,53.3 62.15,53.25 67.75,53.15 67.55,36.9 66.25,20.45 66.15,19.65 65.95,17.95 65.25,14.75 M52.9,20.15Q53.05,21.15 53.8,34.1 50.35,33.1 46.2,32.5 46,32.5 45.95,32.45 46.55,30.6 47.3,28.25 48.35,24.95 52.55,18.75 52.85,19.85 52.9,20.15"/><path fill="#FC3" d="M32.5,10.45Q32.4,5.25 30.2,4.55 28,3.8 25.05,8.15 22.3,12.05 19.9,19 18,18.2 15.7,17.75 14.95,17.55 14.25,17.4 14.8,15.15 15.35,13.35 17.35,8.4 16.7,4.7 15.95,1.5 13.6,0.45 11.25,-0.6 8.8,0.8 6.15,2.35 4.95,6.2 4.9,6.3 3.55,11 2.05,16.5 1.15,21.2 -1.75,36.1 2.65,37.15 5.75,37.9 7.85,36.65 9.45,35.6 10,34 10.9,30.1 11.8,26.8 12.3,26.95 12.85,27.05 15.1,27.6 16.95,27.85 16.5,29.5 16.15,30.95 14.5,39.95 19.05,41 23.8,42.1 27.25,34 28.35,31.45 29.2,28.1 29.9,25.1 30,24.85 32.65,16.15 32.5,10.45"/></g><animate attributeName="display" repeatCount="1" dur="1.667s" keyTimes="0;0.475;1" values="none;inline;none"/></g><g><g id="111" transform="matrix(1 0 0 1 -253.6 -71.85)"><animateTransform attributeName="transform" additive="replace" type="translate" dur="1.667s" keyTimes="0;0.7;0.775;0.825;1" values="-223.35,-53.462;-223.35,-53.462;-223.35,-53.552;-223.35,-53.55;-223.35,-53.55"/><animateTransform attributeName="transform" additive="sum" type="scale" dur="1.667s" keyTimes="0;0.7;0.775;0.825;1" values="1.111,1.111;1.111,1.111;0.983,0.983;1,1;1,1"/><animateTransform attributeName="transform" additive="sum" type="translate" dur="1.667s" keyTimes="0;0.7;0.775;1" values="-30.25,-18.4;-30.25,-18.4;-30.25,-18.3;-30.25,-18.3"/><g id="333" transform="matrix(1 0 0 1 1.5 2.7)"><path fill="#000" fill-opacity="0.353" d="M55.15,12.15Q54.5,11.85 53.6,12.05 51.2,12.5 49.2,14.55 47.8,16 45.75,19.7 45.45,20 43.5,24.25 41.3,28.9 41.5,30.1 41.5,30.15 41.9,31.15 42.6,32.2 44.6,32.2 46.7,32.2 48.35,28.85 50.7,29.5 53.3,29.55 53.3,29.75 53.3,30.05L53.6,32Q54.3,33.9 56.7,33.9 59.05,33.9 59,26.95 58.45,19.8 58.4,19.5 58.35,18.75 58,17.4 57.55,15.55 57.05,14.5 56.45,12.25 55.15,12.15 M52.7,19.65Q52.75,20.05 53.1,25.65 51.6,25.2 49.8,24.95 49.75,24.95 49.7,24.95 49.95,24.1 50.3,23.1 50.7,21.7 52.55,19.05 52.65,19.5 52.7,19.65"/><path fill="#000" fill-opacity="0.353" d="M34.9,9.25Q35.85,9.1 36.5,9.35 37.8,9.45 38.4,11.7 38.85,12.75 39.35,14.6 39.65,15.95 39.75,16.7 39.8,17.05 40.35,24.15 40.4,31.1 38.05,31.1 35.6,31.1 34.9,29.2L34.65,27.25Q34.65,26.95 34.65,26.75 32.05,26.7 29.65,26.05 28.05,29.4 25.95,29.4 23.9,29.4 23.2,28.35 22.85,27.35 22.85,27.3 22.65,26.15 24.85,21.45 26.8,17.2 27.05,16.9 29.1,13.2 30.55,11.8 32.55,9.7 34.9,9.25 M34.05,16.85Q34.1,17.25 34.4,22.85 32.9,22.4 31.1,22.15 31.05,22.15 31,22.15 31.3,21.3 31.6,20.35 32.05,18.9 33.9,16.25 34,16.7 34.05,16.85"/><path fill="#000" fill-opacity="0.353" d="M23.05,7.4Q23.15,11.5 21.3,17.65 21.25,17.8 20.75,19.9 20.1,22.3 19.3,24.15 16.9,29.85 13.55,29.1 10.3,28.3 11.5,21.95 11.75,20.9 12,19.75 10.7,19.6 9.15,19.2 8.75,19.1 8.4,19.05 7.75,21.3 7.05,24.1 6.7,25.25 5.6,25.95 4.05,26.9 1.9,26.35 -1.25,25.65 0.8,15.05 1.45,11.7 2.55,7.8 3.5,4.5 3.5,4.45 4.35,1.7 6.25,0.6 8,-0.45 9.6,0.3 11.3,1.1 11.8,3.35 12.35,6 10.9,9.45 10.55,10.7 10.1,12.35 10.6,12.45 11.15,12.55 12.75,12.95 14.1,13.45 15.8,8.6 17.75,5.8 19.85,2.7 21.5,3.25 23,3.75 23.05,7.4"/></g><path fill="#FC3" d="M45.45,20.15Q45.2,20.45 43.25,24.7 41.05,29.4 41.25,30.55 41.25,30.6 41.6,31.6 42.3,32.65 44.35,32.65 46.45,32.65 48.05,29.3 50.45,29.95 53.05,30 53.05,30.25 53.05,30.5L53.3,32.45Q54,34.35 56.45,34.35 58.8,34.35 58.75,27.4 58.2,20.3 58.15,19.95 58.05,19.2 57.75,17.85 57.25,16 56.8,14.95 56.2,12.7 54.9,12.6 54.25,12.35 53.3,12.55 50.95,12.95 48.95,15.05 47.5,16.5 45.45,20.15 M52.45,20.1Q52.5,20.5 52.8,26.1 51.35,25.7 49.5,25.4 49.45,25.4 49.4,25.4 49.7,24.55 50.05,23.6 50.45,22.15 52.3,19.5 52.4,19.95 52.45,20.1"/><path fill="#FC3" d="M38.4,11.65Q37.8,9.45 36.5,9.35 35.85,9.05 34.9,9.25 32.55,9.65 30.55,11.75 29.1,13.2 27.05,16.85 26.75,17.2 24.8,21.4 22.65,26.1 22.8,27.25 22.8,27.3 23.2,28.35 23.9,29.35 25.95,29.35 28,29.35 29.65,26 32,26.65 34.6,26.7 34.6,26.95 34.6,27.2L34.9,29.15Q35.6,31.1 38,31.1 40.4,31.1 40.35,24.1 39.8,17 39.75,16.65 39.65,15.95 39.3,14.6 38.85,12.75 38.4,11.65 M34,16.8Q34.05,17.25 34.4,22.8 32.9,22.4 31.1,22.1 31.05,22.1 31,22.1 31.3,21.25 31.6,20.3 32,18.85 33.9,16.2 33.95,16.65 34,16.8"/><path fill="#FC3" d="M23.05,7.4Q23,3.7 21.45,3.2 19.85,2.65 17.75,5.75 15.8,8.55 14.1,13.4 12.75,12.9 11.1,12.55 10.6,12.4 10.1,12.3 10.55,10.7 10.9,9.45 12.3,5.95 11.8,3.3 11.3,1.05 9.6,0.3 8,-0.45 6.25,0.55 4.35,1.65 3.5,4.4 3.5,4.45 2.5,7.75 1.45,11.65 0.8,15 -1.25,25.6 1.85,26.35 4.05,26.85 5.6,25.9 6.7,25.2 7.05,24.05 7.7,21.25 8.35,19 8.75,19.1 9.1,19.2 10.7,19.55 12,19.75 11.7,20.85 11.5,21.9 10.3,28.3 13.55,29.1 16.85,29.8 19.3,24.1 20.1,22.25 20.75,19.9 21.25,17.8 21.3,17.6 23.15,11.45 23.05,7.4"/></g><animate attributeName="display" repeatCount="1" dur="1.667s" keyTimes="0;0.7;1" values="none;inline;none"/></g></g></svg>