<?xml version="1.0" encoding="utf-8"?>
<!-- Generator: Adobe Illustrator 19.2.0, SVG Export Plug-In . SVG Version: 6.00 Build 0)  -->
<svg version="1.1" id="_x31_021" image-rendering="auto"
	 xmlns="http://www.w3.org/2000/svg" xmlns:xlink="http://www.w3.org/1999/xlink" x="0px" y="0px" width="300px" height="300px"
	 viewBox="0 0 300 300" enable-background="new 0 0 300 300" xml:space="preserve">
<path opacity="0.25" fill="#332C2A" d="M296,129.5c0.1-35.4-8.3-62.5-25.4-81.3c-12.2-13.4-22.9-16.3-32.3-8.8
	c-4.9-14.8-24.5-25.7-58.7-32.5c-34.3-6.8-71.8,14.8-112.5,64.9C26.5,122.1,5.4,160.4,4,186.8c-1.5,26.3,5.3,41.9,20.2,46.9
	c-23.6,21.8-22.1,37.2,4.6,46.3c26.6,9.2,55.7,14,87.5,14.4s64.9-0.7,99.5-3.4c34.4-2.7,57.9-11.5,70.3-26.5
	c12.3-14.9,9.5-32.5-8.4-52.6C289.6,192.3,295.7,164.9,296,129.5z"/>
</svg>
