<?xml version="1.0" encoding="utf-8"?>
<!-- Generator: Adobe Illustrator 19.2.0, SVG Export Plug-In . SVG Version: 6.00 Build 0)  -->
<svg version="1.1" id="_x31_016" image-rendering="auto"
	 xmlns="http://www.w3.org/2000/svg" xmlns:xlink="http://www.w3.org/1999/xlink" x="0px" y="0px" width="660px" height="660px"
	 viewBox="0 0 660 660" enable-background="new 0 0 660 660" xml:space="preserve">
<path opacity="0.25" fill="#332C2A" d="M641.4,279.8l-0.7-6.1c-0.2-1.6-0.4-3.1-0.6-4.6c0.2,1.4,0.5,3,0.7,4.6
	c-1.6-15.7-2.1-26.6-1.6-32.7l6.3-42.8c4.4-30.4,6.5-51.4,6.5-62.9c0-27.9-8.7-50.8-26.2-68.8c-15.2-15.6-34.5-25.5-57.9-29.8
	c-21.8-4.1-41.1-2.3-57.7,5.4c-1.2,0.5-2.4,1.1-3.6,1.8c-1.7,0.9-3.3,1.9-4.8,3c-0.5-4.1-4.1-8.7-10.7-13.7
	c-3.2-2.5-7.1-5.2-11.9-7.9c-1.9-1.1-3.8-2.1-5.8-3.2c-12-6.2-24.1-9.9-36.3-11.1c-11.6-0.7-21,0.7-28,4.2c-5.2-3.3-12.4-6-21.6-7.9
	c-3.7-0.8-7.3-1.4-10.7-1.8c-5.6-0.7-11-0.8-16.3-0.4c-4,0.1-7.3,0.3-10.1,0.6c-3.3,0.3-5.8,0.6-7.3,1c-3,0.5-7.1,1.6-12.3,3.2
	c-7,2.1-13.5,4.8-19.4,7.9c-8.5-2.8-16.5-4.6-24.2-5.4l-1.5-0.1c-9.5-0.7-18.5,0.2-26.9,2.7c-4.1,1.1-8.1,2.7-12.1,5
	c-1.9,1.1-3.4,2-4.8,3c-1.9-1.6-5-4-9.3-7.3c-4.5-3.3-11.9-5.5-22.2-6.5H198c-9.8-0.1-21.1,2.8-33.9,8.9c-6.1,2.8-10.8,5.5-14.1,8.1
	c-3.2-5.6-8.4-10.1-15.7-13.7c-12.3-6-26.8-7.5-43.4-4.8C73.5,10.3,59,17.1,47.5,28.1C34.4,40.5,27.9,56.3,27.9,75.3
	c0,0.9,0,1.9,0,2.8c0.3,9.5,1.5,18.1,3.6,25.8c2.4,8.6,3.6,14.7,3.6,18.4c0,2.6-3,13.5-9.1,32.5c-4.9,18.6-7.8,37.2-8.7,55.5
	c-0.3,4.4-0.4,8.7-0.4,13.1c0,0.3,0.5,13.8,1.6,40.5c0.8,7.1,1.8,13.4,3,18.6c-0.3,1.1-0.5,2.1-0.8,3.2
	C13.4,303.9,9,320.7,7.4,336.1s-2.2,28.4-1.8,38.7c0.4,10.3,3.5,23.5,9.3,39.7c5.7,16,13.8,27.4,24.4,34.3
	c-12.8,21.2-21.5,39.9-26,56.3c-4.8,17.7-5.4,35.9-2,54.5c3.4,18.5,11,33.3,22.8,44.2c3.2,2.9,5.7,5.2,7.5,6.7
	c-0.3,2.5-0.2,7.6,0.2,15.3c0.4,7.7,4.5,13.7,12.3,18c7.7,4.4,20.8,6.1,39.5,5.4c18.5-0.9,31.7-3.9,39.7-8.9
	c8.2,4.2,24.1,6.7,47.8,7.5c23.5,0.7,41.2-3.4,53-12.3c13.4,9.1,30.2,13.2,50.6,12.1c11.8-1.5,21-4.8,27.8-9.9
	c5.8-4.4,9.2-6.8,10.1-7.3h-0.1l0.3-0.2c1.5,0.3,2.9,0.7,4.4,1.2c1.9,0.8,3.7,1.5,5.5,2.3c6.4,2.6,11.8,4.8,16.2,6.4
	c22.2,8.7,59.2,13.1,110.9,13.1c17.1,0,32.7-0.5,47-1.4c49.2-3.2,83.4-11.4,102.5-24.6c8.7-6.1,14.4-13.2,17.1-21.2
	c1.1-3.8,1.6-9.6,1.6-17.3c0-10.8-5.9-21.2-17.7-30.9c-9.8-7.9-22.2-14.5-37.3-19.6c12.2-6.5,21.8-16.9,29-31.1
	c7.8-15.3,11.7-31.1,11.7-47.2c0-7.5-1.9-15-5.8-22.4c1.2,1.3,7.3-1.3,18.2-7.7c11.5-6.9,18.6-21.2,21.4-43
	c2.8-21.8,3-40.3,0.6-55.5C645.6,316,643.3,298.9,641.4,279.8z"/>
</svg>
