<?xml version="1.0" encoding="utf-8"?><svg id="1007" image-rendering="auto" baseProfile="basic" version="1.1" x="0px" y="0px" width="300" height="300" xmlns="http://www.w3.org/2000/svg" xmlns:xlink="http://www.w3.org/1999/xlink"><g id="Symbol_8_l1" overflow="visible" transform="matrix(0.99 0 0 0.99 6.5 3.5)"><g id="Symbol_7_l1" transform="matrix(0.996 0 0 0.996 144.4 147.7)"><path fill="none" stroke="#000" stroke-opacity="0.251" stroke-width="6" stroke-linecap="round" stroke-linejoin="round" d="M109.1,90.8Q107.65,78.45 109.55,72.2 110.35,68.2 129.2,49.8 148.05,31.4 144.25,16.95 137.8,-20.5 40.5,-73.45 37.75,-74.9 -37.75,-114.65 -100.35,-147.75 -115.4,-148.15 -142.6,-149.6 -144.7,-123.05 -146.15,-110.3 -139.9,-97.95 -134.85,-87.7 -121.45,-63.85 -117.9,-55.65 -106,-30.35 -96.55,-10.7 -91.55,2.1 -87.55,12.95 -68.75,52.3 -49.7,91.45 -33.4,118.4 -29.8,123.85 -28.15,127 -22.7,136.85 -7.2,141.45 8.05,146.05 22.05,137.05 36.1,127.85 46.75,130.75 49.9,131.6 57.25,138.1 64.55,144.6 77.3,147.5 89.85,150.45 100.35,139.15 110.6,127.85 110.6,115.3 110.6,102.75 109.1,90.8"/><g mask="url(#mask_)"><path fill="#FFF" d="M109.1,90.8Q107.65,78.45 109.55,72.2 110.35,68.2 129.2,49.8 148.05,31.4 144.25,16.95 137.8,-20.5 40.5,-73.45 37.75,-74.9 -37.75,-114.65 -100.35,-147.75 -115.4,-148.15 -142.6,-149.6 -144.7,-123.05 -146.15,-110.3 -139.9,-97.95 -134.85,-87.7 -121.45,-63.85 -117.9,-55.65 -106,-30.35 -96.55,-10.7 -91.55,2.1 -87.55,12.95 -68.75,52.3 -49.7,91.45 -33.4,118.4 -29.8,123.85 -28.15,127 -22.7,136.85 -7.2,141.45 8.05,146.05 22.05,137.05 36.1,127.85 46.75,130.75 49.9,131.6 57.25,138.1 64.55,144.6 77.3,147.5 89.85,150.45 100.35,139.15 110.6,127.85 110.6,115.3 110.6,102.75 109.1,90.8"/></g><g mask="url(#mask_)" style="display:none;"><g id="Symbol_6" transform="matrix(1 0 0 1 101.15 148.75)"><animateTransform attributeName="transform" additive="replace" type="translate" fill="freeze" dur="0.8s" keyTimes="0;0.2;0.5;0.7;1" values="227.45,276.15;227.45,276.15;-2.55,-10.8;4.45,-5.8;4.45,-5.8"/><animateTransform attributeName="transform" additive="sum" type="skewY" fill="freeze" dur="0.8s" keyTimes="0;0.2;0.5;0.7;1" values="0;0;3.172;0;0"/><animateTransform attributeName="transform" additive="sum" type="scale" fill="freeze" dur="0.8s" keyTimes="0;0.2;0.5;0.7;1" values="1,1;1,1;1.002,1;1,1;1,1"/><animateTransform attributeName="transform" additive="sum" type="scale" fill="freeze" dur="0.8s" keyTimes="0;0.2;0.5;0.7;1" values="1,1;1,1;0.998,1;1,1;1,1"/><animateTransform attributeName="transform" additive="sum" type="translate" fill="freeze" dur="0.8s" keyTimes="0;1" values="-126.3,-127.4;-126.3,-127.4"/><path fill="#E7C2D1" d="M0.8,1L0,0.15 117.9,254.85 157.2,219.55 183.4,196 6.8,7.4 0.8,1"/><path fill="#AE5151" d="M0.2,0L0.5,0.45 9.8,6.35 0.2,0"/><path fill="#AE5151" d="M0.7,0.8L0.8,1 6.8,7.4 5.25,5.2 0.7,0.8"/><path fill="#E7C2D1" d="M195.2,189.05L252.35,161.4 242.7,155.1 9.8,6.35 0.5,0.45 0,0.15 0.7,0.8 5.25,5.2 195.2,189.05"/><path fill="#C67596" d="M252.65,161.35L242.7,155.1 252.35,161.4 195.2,189.05 5.25,5.2 6.8,7.4 183.4,196 157.2,219.55 177.9,246.65 178.25,245.95 178.15,246.6 201,195.05 252.65,161.35"/><path fill="#AE5151" d="M182.4,194.95L183.4,196 157.2,219.55 177.9,246.65 178.25,245.95 183.55,195.95 182.4,194.95"/></g><animate attributeName="display" fill="freeze" repeatCount="1" dur="0.8s" keyTimes="0;0.2;1" values="none;inline;inline"/></g><g mask="url(#mask_)" style="display:none;"><g id="Symbol_5" transform="matrix(1 0 0 1 193.6 308.15)"><animateTransform attributeName="transform" additive="replace" type="translate" fill="freeze" dur="0.8s" keyTimes="0;0.2;0.5;0.7;1" values="222.25,334.1;222.25,334.1;-6.75,46.15;-0.75,52.15;-0.75,52.15"/><animateTransform attributeName="transform" additive="sum" type="skewY" fill="freeze" dur="0.8s" keyTimes="0;0.2;0.5;0.7;1" values="0;0;4.391;0;0"/><animateTransform attributeName="transform" additive="sum" type="scale" fill="freeze" dur="0.8s" keyTimes="0;0.2;0.5;0.7;1" values="1,1;1,1;1.003,1;1,1;1,1"/><animateTransform attributeName="transform" additive="sum" type="scale" fill="freeze" dur="0.8s" keyTimes="0;0.2;0.5;0.7;1" values="1,1;1,1;0.997,1;1,1;1,1"/><animateTransform attributeName="transform" additive="sum" type="translate" fill="freeze" dur="0.8s" keyTimes="0;1" values="-28.65,-25.95;-28.65,-25.95"/><path fill="#BB313F" d="M53.8,19.2Q54.2,19.2 54.4,19.2L54.6,19.2Q56.3,19.2 57.35,19.2 56.3,16.7 47.5,8.95 38.5,1.2 34.75,0.15 30.75,-0.9 25.3,6.2 22.8,1 16.95,1.2 10.25,1.4 5,15 1.05,24.65 0,29.45 6.3,25.45 21.95,22.15 37.65,19 45.4,19.2 51.7,19.2 53.8,19.2"/><path fill="#BB313F" d="M54.6,25.25L54.6,22.15Q39.35,26.75 20.7,29.45 2.1,31.95 1.25,31.55 0.4,30.7 5,40.95 9.2,50.8 25.1,51.85 40.8,52.45 49.15,45.15 57.1,37.6 54.6,25.25"/></g><animate attributeName="display" fill="freeze" repeatCount="1" dur="0.8s" keyTimes="0;0.2;1" values="none;inline;inline"/></g><mask id="mask_"><path fill="#FFF" d="M109.1,90.8Q107.65,78.45 109.55,72.2 110.35,68.2 129.2,49.8 148.05,31.4 144.25,16.95 137.8,-20.5 40.5,-73.45 37.75,-74.9 -37.75,-114.65 -100.35,-147.75 -115.4,-148.15 -142.6,-149.6 -144.7,-123.05 -146.15,-110.3 -139.9,-97.95 -134.85,-87.7 -121.45,-63.85 -117.9,-55.65 -106,-30.35 -96.55,-10.7 -91.55,2.1 -87.55,12.95 -68.75,52.3 -49.7,91.45 -33.4,118.4 -29.8,123.85 -28.15,127 -22.7,136.85 -7.2,141.45 8.05,146.05 22.05,137.05 36.1,127.85 46.75,130.75 49.9,131.6 57.25,138.1 64.55,144.6 77.3,147.5 89.85,150.45 100.35,139.15 110.6,127.85 110.6,115.3 110.6,102.75 109.1,90.8" fill-opacity="1"/></mask></g></g></svg>