<?xml version="1.0" encoding="utf-8"?>
<!-- Generator: Adobe Illustrator 19.2.0, SVG Export Plug-In . SVG Version: 6.00 Build 0)  -->
<svg version="1.1" id="_x31_022" image-rendering="auto"
	 xmlns="http://www.w3.org/2000/svg" xmlns:xlink="http://www.w3.org/1999/xlink" x="0px" y="0px" width="660px" height="300px"
	 viewBox="0 0 660 300" enable-background="new 0 0 660 300" xml:space="preserve">
<path opacity="0.25" fill="#332C2A" d="M637.2,108.1c-1.6-7.1-3.7-12.8-6.3-17.1c-2.7-4.4-5-7.7-6.7-9.8c-1.3-1.7-2.6-3.3-3.9-4.9
	c-1.4-1.7-2.9-3.4-4.5-5.1c-2.9-3.1-5.9-6.1-9-8.8c-16.2-14.7-34.9-24.2-55.9-28.7c0.3,0.1,0.6,0.3,1,0.4
	c-14.9-4.1-31.5-6.3-49.7-6.7c-18.2-0.5-37,3-56.5,10.6c-6.4-2.6-13.9-6-22.4-10c-8.6-4.2-14.8-7.1-18.5-8.8
	c-3.5-1.5-12-4.3-25.5-8.3c-0.2-0.1-0.5-0.3-0.8-0.4c-0.8-0.2-1.5-0.4-2.4-0.7c-15.4-4.6-41-6.2-76.6-4.7c-2.6,0.1-5.2,0.3-7.9,0.4
	c-10.1,0.7-18.5,1.8-25.1,3.5c-33.8,9.2-54.7,22.7-62.8,40.6c-1.6-1-5-2.2-10.4-3.3c-10.9-2.4-33.8-2.2-68.7,0.4
	C89.6,49.2,62,62.3,41.8,85.9c-12.7,14.8-19,32.7-19,53.8c0,8.1,2.6,18.7,7.7,31.8c6.8,17.4,16.4,32.9,28.9,46.5
	c11.4,12.3,26.4,23.2,45.1,32.8l37.1,12.8c22.1,5.6,37.6,9.4,46.5,11.2c16.6,3.4,34.9,6,54.8,7.7c10.2,0.9,26,2.7,47.5,5.3
	c17.3,2.1,29,3.6,35.1,4.5c6.7,0.4,11.6-0.8,14.9-3.5c1.8-1.7,5.2-4.8,10-9.4c7.7-7.6,13.7-12.8,18.1-15.7
	c40.7,19.4,61.9,28.3,63.6,26.7c9.3-2.6,39.7-17.1,91.1-43.6c37.4-19.2,63.1-33.5,76.9-42.8c10.7-10.1,18.4-17.7,23-23
	c4.7-5.4,9.1-13.8,13.2-25.3c1.7-7.2,2.7-15.2,2.9-23.9C639.3,122.9,638.6,115,637.2,108.1z"/>
</svg>
