<?xml version="1.0" encoding="utf-8"?><svg id="1018" image-rendering="auto" baseProfile="basic" version="1.1" x="0px" y="0px" width="660" height="660" xmlns="http://www.w3.org/2000/svg" xmlns:xlink="http://www.w3.org/1999/xlink"><defs><symbol id="eye_g_ang" overflow="visible"><path fill="#744236" d="M10.65,6.7L10.675,6.7Q9.801,4.846 7.95,4.225 6.099,3.564 4.3,4.55 3.682,4.871 3.2,5.325 2.328,6.145 1.925,7.4 1.537,8.647 1.775,9.825 1.913,10.5 2.25,11.15 3.163,13.004 5,13.625 6.903,14.234 8.6,13.3 10.352,12.388 10.975,10.45 11.582,8.498 10.65,6.7"/><path fill="#FFF" d="M10.45,6.8L10.425,6.8Q9.599,5.054 7.85,4.475 6.101,3.836 4.4,4.75 3.581,5.192 3.025,5.875 2.465,6.564 2.175,7.5 1.883,8.411 1.95,9.275 2.01,10.187 2.45,11.05 3.337,12.796 5.1,13.375 6.897,13.966 8.5,13.1 10.148,12.212 10.725,10.35 11.318,8.502 10.45,6.8"/><path fill="#696" d="M2.35,6.85Q2,7.4 1.95,7.9 1.95,8.1 1.95,8.3 1.95,8.45 1.95,8.55 2.1,9.45 2.85,10 3.55,10.45 4.45,10.2 5.35,10 5.85,9.2 6.35,8.35 6.25,7.45 6.1,6.55 5.35,6.05 4.6,5.6 3.75,5.85 2.85,6.05 2.35,6.85"/><path fill="#000" d="M4.9,6.65Q4.5,6.15 3.85,6.2 3.25,6.2 2.9,6.6 2.45,7 2.4,7.6 2.45,8.15 2.95,8.55 3.25,8.9 3.85,8.95 4.45,8.95 4.8,8.55 5.2,8.15 5.3,7.55 5.2,7 4.9,6.65"/><path fill="#000" d="M7.9,15.4Q7.65,15 7.55,15.8L7.5,16.7Q7.6,16.9 8.1,16.8 8.55,16.65 8.35,16.2 8.1,15.75 7.9,15.4"/><path fill="#000" d="M3.8,15.55Q4,15.85 4.2,15.85 4.3,15.9 4.45,15.25 4.55,14.6 4.5,14.55 4.3,14.2 3.95,14.75 3.55,15.25 3.8,15.55"/><path fill="#000" d="M11,14.2Q11.1,14.35 11.45,14.75 11.95,15.15 12.1,15.05 12.3,14.95 12.4,14.85 12.55,14.65 11.95,14.25 11.35,13.8 11.1,13.85 10.8,13.85 11,14.2"/><path fill="#FFF" d="M5.65,8.05Q5.75,7.95 5.65,7.7 5.6,7.55 5.45,7.4 5.25,7.25 5.15,7.3 4.9,7.35 4.85,7.6 4.65,7.7 4.75,7.95 4.75,8.05 4.9,8.25 5.1,8.4 5.3,8.3 5.55,8.25 5.65,8.05"/>
</symbol><symbol id="eye_g_a" overflow="visible"><path fill="#744236" d="M10.65,6.7L10.675,6.7Q9.801,4.846 7.95,4.225 6.099,3.564 4.3,4.55 3.682,4.871 3.2,5.325 2.328,6.145 1.925,7.4 1.537,8.647 1.775,9.825 1.913,10.5 2.25,11.15 3.163,13.004 5,13.625 6.903,14.234 8.6,13.3 10.352,12.388 10.975,10.45 11.582,8.498 10.65,6.7"/><path fill="#FFF" d="M10.45,6.8L10.425,6.8Q9.599,5.054 7.85,4.475 6.101,3.836 4.4,4.75 3.581,5.192 3.025,5.875 2.465,6.564 2.175,7.5 1.883,8.411 1.95,9.275 2.01,10.187 2.45,11.05 3.337,12.796 5.1,13.375 6.897,13.966 8.5,13.1 10.148,12.212 10.725,10.35 11.318,8.502 10.45,6.8"/><path fill="#696" d="M4.75,5Q3.85,5.2 3.35,6 3,6.55 2.95,7.05 2.95,7.25 2.95,7.45 2.95,7.6 2.95,7.7 3.1,8.6 3.85,9.15 4.55,9.6 5.45,9.35 6.35,9.15 6.85,8.35 7.35,7.5 7.25,6.6 7.1,5.7 6.35,5.2 5.6,4.75 4.75,5"/><path fill="#000" d="M4.85,5.35Q4.25,5.35 3.9,5.75 3.45,6.15 3.4,6.75 3.45,7.3 3.95,7.7 4.25,8.05 4.85,8.1 5.45,8.1 5.8,7.7 6.2,7.3 6.3,6.7 6.2,6.15 5.9,5.8 5.5,5.3 4.85,5.35"/><path fill="#000" d="M7.9,15.4Q7.65,15 7.55,15.8L7.5,16.7Q7.6,16.9 8.1,16.8 8.55,16.65 8.35,16.2 8.1,15.75 7.9,15.4"/><path fill="#000" d="M3.8,15.55Q4,15.85 4.2,15.85 4.3,15.9 4.45,15.25 4.55,14.6 4.5,14.55 4.3,14.2 3.95,14.75 3.55,15.25 3.8,15.55"/><path fill="#000" d="M12.1,15.05Q12.3,14.95 12.4,14.85 12.55,14.65 11.95,14.25 11.35,13.8 11.1,13.85 10.8,13.85 11,14.2 11.1,14.35 11.45,14.75 11.95,15.15 12.1,15.05"/><path fill="#FFF" d="M6.3,7.45Q6.55,7.4 6.65,7.2 6.75,7.1 6.65,6.85 6.6,6.7 6.45,6.55 6.25,6.4 6.15,6.45 5.9,6.5 5.85,6.75 5.65,6.85 5.75,7.1 5.75,7.2 5.9,7.4 6.1,7.55 6.3,7.45"/>
</symbol><symbol id="s1" overflow="visible"><path fill="#000" fill-opacity="0.353" d="M100.3,31.8Q98.25,28.55 96.5,25.85 97.55,26.1 98.4,26.25 98.9,26.45 99.4,26.45 99.5,26.5 99.6,26.5L99.65,26.5Q99.65,26.45 98.9,26.25 98.1,26 84.7,12.95 80.596,8.948 76.725,6.2 69.105,0.813 62.35,0.25 52.1,-0.65 42.9,1.55 37.289,2.854 32.675,6.2 29.677,8.371 27.1,11.4 20.5,19.1 16.75,25.85 14.9,29.25 10.15,45.4 8.401,51.348 6.95,56.25 0.73,77.238 0,78.9 8.65,84.1 22.9,85.65L26.4,73.8 29,86.1Q33.95,86.35 39.5,86.25L40.15,81.5 41.15,86.15Q42.25,86.1 43.3,86.05 44.35,86 45.45,85.95 43.2,87.15 40.7,88.45 36.35,90.8 34.25,91.95L32.35,91.95Q32.3,92.95 32.35,93.05 32.35,93.1 32.4,93.15L32.6,93.5 32.6,93.55 32.65,93.6Q32.7,93.65 32.75,93.7 32.75,93.8 32.8,93.85L32.9,94Q33.85,95.25 38.95,102.65 43.2,108.8 46,112.75L44.8,113.15Q46.3,114.25 49.1,116.7 48.2,121.1 47.4,124.6 64.45,122.8 74.9,120.25 73.25,111.6 73,110.15L105.2,92.75 91.65,97.5 100.5,87.75 89.6,93.95 88.45,92 77.7,96.3Q72.4,86.75 69.35,81.45 71.541,80.774 73.75,80 82.364,76.993 91.35,72.5 93.25,71.6 95,70.65L92,65.05Q92.65,64.45 93.3,63.75L98.15,68.95Q100.05,67.9 101.65,67L99.9,63.35Q100.15,63 101.95,64.65L103.35,65.95Q116.05,58.15 113.65,54 106.35,41.55 100.9,32.75 101.4,32.55 101.9,32.35 101.15,32.15 100.3,31.8 M30.4,56Q29.35,56.15 27.85,56.1 27.6,56.05 27.35,56.1 27.35,56.05 27.35,56L30.4,56 M37.75,95.5Q37.65,95.3 37.6,95.2 37.6,95.15 36.45,93.75 36.5,93.75 36.5,93.7 36.85,93.6 37,93.55L37.7,93.3Q43.35,91.2 46.7,90.25 50.05,89.25 53.8,87.5 55.45,86.8 56.2,86.45L54.55,92.35Q52.35,103 50.55,111.35L50.1,111.5Q49.7,111.1 49.2,110.35 47.65,108.45 46,106.2 44.95,104.8 44,103.45L42.9,101.95Q42.05,100.8 41.2,99.7 40.55,98.8 39.8,97.85 38.85,96.7 37.75,95.5 M70.1,90.4Q70.9,92.05 72.2,94.8 73.1,96.55 73.85,97.8L71.25,98.8Q70.7,95.1 70.15,90.85 70.1,90.6 70.1,90.4"/>
</symbol><symbol id="s6_copy" overflow="visible"><path fill="#000" fill-opacity="0.353" d="M100.3,31.8Q98.25,28.55 96.5,25.85 97.55,26.1 98.4,26.25 98.9,26.45 99.4,26.45 99.5,26.5 99.6,26.5L99.65,26.5Q99.65,26.45 98.9,26.25 98.1,26 84.7,12.95 72.55,1.1 62.35,0.25 52.1,-0.65 42.9,1.55 33.65,3.7 27.1,11.4 20.5,19.1 16.75,25.85 14.9,29.25 10.15,45.4 0.9,76.85 0,78.9 8.65,84.1 22.9,85.65L26.4,73.8 29,86.1Q33.95,86.35 39.5,86.25L40.15,81.5 41.15,86.15Q42.25,86.1 43.3,86.05 44.35,86 45.45,85.95 43.2,87.15 40.7,88.45 36.35,90.8 34.25,91.95L34.1,91.95Q34.944,92.808 35.6,93.3 36.271,93.733 36.875,94.25 36.681,94.032 36.45,93.75 36.5,93.75 36.5,93.7 36.85,93.6 37,93.55L37.7,93.3Q43.35,91.2 46.7,90.25 50.05,89.25 53.8,87.5 55.45,86.8 56.2,86.45L54.55,92.35Q52.35,103 49.1,116.7 48.2,121.1 47.4,124.6 64.45,122.8 74.9,120.25 73.25,111.6 73,110.15L73.325,109.975Q72.65,107.538 71.8,104.95 70.75,101.8 71.1,98.3L71.175,98.3Q70.663,94.814 70.15,90.85 70.1,90.6 70.1,90.4 70.9,92.05 72.2,94.8 72.702,95.776 73.15,96.6 73.739,96.214 74.5,96L75.3,96.1Q75.35,96.15 75.4,96.2 76.495,97.048 77.25,98.45 78.575,97.807 80.1,97.35 83.25,96.5 86.3,95.8 86.4,95.6 86.55,95.55 87.75,95.15 88.9,94.7 88.95,94.7 89,94.7 89.541,94.635 90.075,94.5 90.067,94.085 90.075,93.675L89.6,93.95 89.6,92.9 77.7,96.3Q72.4,86.75 69.35,81.45 80.05,78.15 91.35,72.5 93.25,71.6 95,70.65L92,65.05Q92.65,64.45 93.3,63.75L98.15,68.95Q100.05,67.9 101.65,67L99.9,63.35Q100.15,63 101.95,64.65L103.35,65.95Q116.05,58.15 113.65,54 106.35,41.55 100.9,32.75 101.4,32.55 101.9,32.35 101.15,32.15 100.3,31.8 M99.15,49.1Q99.35,51.9 98,56.75L94.95,56.75Q92.75,56.4 92.35,55.1 91.7,53.1 93.2,51.05 94.7,49.1 98.85,48.65 98.95,48.55 99.15,48.5 99.15,48.75 99.15,49.1 M82.45,59.1Q79.7,60.5 77.15,60.15 74.55,59.75 73.55,57.9 73.1,57 73.15,56L86,56Q84.75,58 82.45,59.1 M38.9,52.15Q39.85,50.2 42.45,49.9 45.05,49.5 47.6,50.85 50.35,52.15 51.6,54.5 52.2,55.7 52.2,56.75L39.35,56.75Q39.25,56.5 39.1,56.25 37.8,54 38.9,52.15 M30.4,56Q29.35,56.15 27.85,56.1 27.6,56.05 27.35,56.1 27.35,56.05 27.35,56L30.4,56"/>
</symbol><symbol id="s4" overflow="visible"><path fill="#FC6" d="M1.65,0.9L2.05,0 1.1,0.55 0.3,0.15 0.6,0.8 0,1.4 0.9,1.35 1.2,2.2 1.55,1.45 2.25,1.55 1.65,0.9"/>
</symbol></defs><g id="op_l1" overflow="visible" transform="matrix(3.944 0 0 3.944 388.65 263.65)"><g id="1" transform="matrix(1 0 0 1 -96.1 -62.65)"><path fill="none" stroke="#000" stroke-opacity="0.251" stroke-width="2" stroke-linecap="round" stroke-linejoin="round" d="M146.95,30.9Q146.5,27.45 147,22.2 147.5,16.95 147.35,15.05 146.25,3.2 134.25,1.75 122.2,0.25 119.05,0.2 96.7,-0.3 78.8,0.45 60.9,1.2 35.25,3.05 12.05,3.9 7.1,7.4 5,8.7 3.45,10.85 2.05,12.8 1,18.7 0.2,23.4 2.05,35.2 3.85,46.95 5.1,56 6.3,65.05 8.05,81.15 9.8,97.2 10.6,101.8 7.35,102.95 4.95,107.05 3.85,108.85 3.2,111.35 2.8,112.8 2.15,115.6 1.75,117.05 0.85,124.2 -0.05,131.2 0,136.65 0.05,142.1 0.05,142.75 0.05,143.4 0.1,143.7L0.15,143Q-0.4,162.1 26.95,160.55L129.95,159.45Q145.15,160.25 151.35,156.75 157.5,153.25 159.6,148.65 161.75,144.05 162,140.65 162.25,137.25 161.55,129.2 160.8,121.15 153.55,116.1 146.35,111.05 153.35,106.25 157.65,104.45 160.25,98.45 162.8,92.4 162.1,84.05 161.9,82.3 161.75,80.7L161.75,80.65Q161.1,75.55 160.5,72.75 160.4,72.2 160.25,71.65 160.2,71.5 160.2,71.4 160.1,71.15 160.05,70.95 156.8,54.45 152.1,44.45 147.4,34.35 146.95,30.9"/><path fill="#FFF" d="M147,22.2Q147.5,16.95 147.35,15.05 146.25,3.2 134.25,1.75 122.2,0.25 119.05,0.2 96.7,-0.3 78.8,0.45 60.9,1.2 35.25,3.05 12.05,3.9 7.1,7.4 5,8.7 3.45,10.85 2.05,12.8 1,18.7 0.2,23.4 2.05,35.2 3.85,46.95 5.1,56 6.3,65.05 8.05,81.15 9.8,97.2 10.6,101.8 7.35,102.95 4.95,107.05 3.85,108.85 3.2,111.35 2.8,112.8 2.15,115.6 1.75,117.05 0.85,124.2 -0.05,131.2 0,136.65 0.05,142.1 0.05,142.75 0.05,143.4 0.1,143.7L0.15,143Q-0.4,162.1 26.95,160.55L129.95,159.45Q145.15,160.25 151.35,156.75 157.5,153.25 159.6,148.65 161.75,144.05 162,140.65 162.25,137.25 161.55,129.2 160.8,121.15 153.55,116.1 146.35,111.05 153.35,106.25 157.65,104.45 160.25,98.45 162.8,92.4 162.1,84.05 161.9,82.3 161.75,80.7L161.75,80.65Q161.1,75.55 160.5,72.75 160.4,72.2 160.25,71.65 160.2,71.5 160.2,71.4 160.1,71.15 160.05,70.95 156.8,54.45 152.1,44.45 147.4,34.35 146.95,30.9 146.5,27.45 147,22.2"/></g><g id="p_l1" transform="matrix(1 0 0 1 -0.05 0)"><g id="window_l1" transform="matrix(1 0 0 1 -85.9 -55.2)"><g id="w1"><path fill="#B4BA75" d="M123.15,8.3Q124.9,1.45 118.5,0L5.45,5.2Q1.1,5.7 0.45,8.45 -0.25,11.1 0.15,11.75L15.85,103.95Q16.05,105.25 17.25,106.3 18.4,107.35 19.95,107.5L25.15,107.5 110.8,101 123.15,8.3"/><path fill="#3F4A5A" d="M107.15,94.6L114.85,10.15 64.25,12.35 64.25,97.4 107.15,94.6"/><path fill="#3F4A5A" d="M52.45,12.8L6.75,14.85 22.2,101.15 59.45,97.25 52.45,12.8"/></g><use xlink:href="#s4" transform="matrix(1 0 0 1 20.5 61.35)"><animateTransform attributeName="transform" additive="replace" type="translate" dur="2.083s" keyTimes="0;0.04;0.34;0.64;1" values="21.6,62.45;21.6,62.45;21.589,62.439;21.6,62.45;21.6,62.45"/><animateTransform attributeName="transform" additive="sum" type="scale" dur="2.083s" keyTimes="0;0.04;0.34;0.64;1" values="1,1;1,1;2.217,2.217;1,1;1,1"/><animateTransform attributeName="transform" additive="sum" type="translate" dur="2.083s" keyTimes="0;1" values="-1.1,-1.1;-1.1,-1.1"/></use><g id="s5" transform="matrix(1 0 0 1 27.45 90.2)"><animateTransform attributeName="transform" additive="replace" type="translate" dur="2.083s" keyTimes="0;0.14;0.44;0.74;1" values="30.55,93.25;30.55,93.25;30.602,93.25;30.55,93.25;30.55,93.25"/><animateTransform attributeName="transform" additive="sum" type="scale" dur="2.083s" keyTimes="0;0.14;0.44;0.74;1" values="1,1;1,1;1.525,1.525;1,1;1,1"/><animateTransform attributeName="transform" additive="sum" type="translate" dur="2.083s" keyTimes="0;0.14;0.44;0.74;1" values="-3.1,-3.05;-3.1,-3.05;-3.15,-3.05;-3.1,-3.05;-3.1,-3.05"/><path fill="#FC6" d="M4.2,2.3L4.6,0 3.15,1.25 1.25,0.1 1.95,2.4 0,3.75 2.2,4.15 2.4,6.1 3.6,4 6.25,4.4 4.2,2.3"/></g><use xlink:href="#s4" transform="matrix(1 0 0 1 33.1 24.1)"><animateTransform attributeName="transform" additive="replace" type="translate" dur="2.083s" keyTimes="0;0.32;0.6;0.86;1" values="34.2,25.2;34.2,25.2;34.191,25.191;34.2,25.2;34.2,25.2"/><animateTransform attributeName="transform" additive="sum" type="scale" dur="2.083s" keyTimes="0;0.32;0.6;0.86;1" values="1,1;1,1;2.174,2.174;1,1;1,1"/><animateTransform attributeName="transform" additive="sum" type="translate" dur="2.083s" keyTimes="0;1" values="-1.1,-1.1;-1.1,-1.1"/></use><g id="s3" transform="matrix(1 0 0 1 12.95 20.4)"><animateTransform attributeName="transform" additive="replace" type="translate" dur="2.083s" keyTimes="0;0.1;0.36;0.64;1" values="16,23.35;16,23.35;16,23.352;16,23.35;16,23.35"/><animateTransform attributeName="transform" additive="sum" type="scale" dur="2.083s" keyTimes="0;0.1;0.36;0.64;1" values="1,1;1,1;1.475,1.475;1,1;1,1"/><animateTransform attributeName="transform" additive="sum" type="translate" dur="2.083s" keyTimes="0;1" values="-3.05,-2.95;-3.05,-2.95"/><path fill="#FC6" d="M2.9,1.45L0.8,0.4 1.6,2.15 0,3.7 2.45,3.65 3.2,5.9 4.2,3.85 6.1,4.15 4.4,2.45 5.5,0 2.9,1.45"/></g><g id="s2" transform="matrix(1 0 0 1 13.7 40.8)"><animateTransform attributeName="transform" additive="replace" type="translate" dur="2.083s" keyTimes="0;0.18;0.44;0.68;1" values="16.05,43.05;16.05,43.05;16.05,43.045;16.05,43.05;16.05,43.05"/><animateTransform attributeName="transform" additive="sum" type="scale" dur="2.083s" keyTimes="0;0.18;0.44;0.68;1" values="1,1;1,1;1.553,1.553;1,1;1,1"/><animateTransform attributeName="transform" additive="sum" type="translate" dur="2.083s" keyTimes="0;1" values="-2.35,-2.25;-2.35,-2.25"/><path fill="#FC6" d="M3.4,1.9L4.25,0 2.25,1.1 0.65,0.3 1.25,1.65 0,2.85 1.9,2.8 2.5,4.55 3.25,2.95 4.7,3.2 3.4,1.9"/></g></g><g id="h1_l1" transform="matrix(1 0 0 1 -79.4 -69.3)"><g style="display:none;"><use xlink:href="#s6_copy" transform="matrix(1 0 0 1 16.05 13.5)"/><animate attributeName="display" repeatCount="1" dur="2.083s" keyTimes="0;0.06;0.24;0.42;0.56;1" values="none;inline;none;inline;none;none"/></g><g><use xlink:href="#s1" transform="matrix(1 0 0 1 16.05 13.5)"/><animate attributeName="display" repeatCount="1" dur="2.083s" keyTimes="0;0.06;0.24;0.42;0.56;1" values="inline;none;inline;none;inline;none"/></g><g id="hair1" transform="matrix(1 0 0 1 0 3.2)"><animateTransform attributeName="transform" additive="replace" type="translate" dur="2.083s" keyTimes="0;0.26;0.3;0.34;0.58;0.62;0.66;1" values="66.6,59.2;66.6,59.2;67.108,59.2;66.6,59.2;66.6,59.2;66.855,59.2;66.6,59.2;66.6,59.2"/><animateTransform attributeName="transform" additive="sum" type="rotate" dur="2.083s" keyTimes="0;0.26;0.3;0.34;0.58;0.62;0.66;1" values="0,0,0;0,0,0;0.145,0,0;0,0,0;0,0,0;-0.363,0,0;0,0,0;0,0,0"/><animateTransform attributeName="transform" additive="sum" type="skewY" dur="2.083s" keyTimes="0;0.26;0.3;0.34;0.58;0.62;0.66;1" values="0;0;-0.145;0;0;0.363;0;0"/><animateTransform attributeName="transform" additive="sum" type="translate" dur="2.083s" keyTimes="0;1" values="-66.6,-56;-66.6,-56"/><path fill="#A63F20" d="M102.7,25.45Q98.3,23.1 98.85,24.25 85.1,14.1 69.5,18.75 51.55,24 50.4,21.25 53.4,22.9 50.4,19.85 36.95,27 27.85,56.8 18.7,86.55 17.85,88.45 26.35,93.4 40.4,94.85L43.85,83.65 46.4,95.3Q51.3,95.5 56.75,95.4L57.4,90.95 58.35,95.35Q59.45,95.3 60.5,95.25 82.65,94.45 107.85,82.4 109.7,81.55 111.45,80.65L106.45,71.85Q106.1,70.85 106.35,70.7L114.55,79.05Q116.4,78.05 118,77.2L116.3,73.75Q116.5,73.45 118.3,75L119.7,76.25Q132.15,68.85 129.8,64.95 107.1,27.7 102.7,25.45"/></g><g id="lula_bodey" transform="matrix(0.489 0.045 -0.057 0.613 66.5 87.35)"><path fill="#FFCB99" d="M47.9,46.1Q46.5,35.2 46.15,33.25 45.9,31.8 43.9,24.2 41.699,16.003 38.925,9.675 36.154,3.34 30.95,2.5 27.337,1.917 28.15,2.35 26.231,1.908 24.95,2.55 22.05,3.95 19.65,7.2 17.25,10.35 17,12.6 16.75,14.75 16.15,17.75 15.5,20.75 15.4,23.05 15.35,24.85 13.65,45.1 12.2,65.1 13.1,68.5 13.9,71.5 17.1,72.6 23.25,74.65 38.1,70.7 43.8,69.15 45.15,68.6 47.75,67.45 48.6,65.45 50.05,62.25 47.9,46.1"/></g><g id="hjre" transform="matrix(1 0 0 1 63.95 91)"><path fill="#44C4B7" d="M23,11.95Q22.55,8.95 21.35,2.7 20.8,0 18.95,0 19.15,4.5 17.45,8.55 16.3,10.05 16.3,9.9 13.85,12.1 12.9,11.55 10.65,8.85 12.05,1.1 11.4,1.45 10.65,2.8L7.65,13.4Q3.25,33.75 0,46.3L29.6,42.05Q24.95,25.9 23,11.95"/></g><g id="hand_g" transform="matrix(-0.589 -0.158 -0.158 0.589 118.95 101.3)"><path fill="#44C4B7" d="M53.525,12.225Q56.197,5.496 58.575,2.375 60.956,-0.756 58,-0.3 50.251,6.901 33.65,23.5 33.261,23.889 32.875,24.275 33.149,27.463 35.475,28.4 37.789,29.34 45.075,21.225 52.364,13.117 53.35,12.5 53.375,12.504 53.4,12.5L53.425,12.45Q53.562,12.276 53.7,12.1 53.61,12.168 53.525,12.225"/></g><g id="s" transform="matrix(1 0 0 1 37.75 30.05)"><animateTransform attributeName="transform" additive="replace" type="translate" dur="2.083s" keyTimes="0;0.26;0.261;0.3;0.301;0.58;0.581;0.62;0.621;1" values="37.75,30.05;37.75,30.05;37.75,30.55;37.75,30.55;37.75,30.05;37.75,30.05;37.75,30.55;37.75,30.55;37.75,30.05;37.75,30.05" calcMode="discrete"/><path fill="#000" fill-opacity="0.361" d="M77.4,40.6Q78.45,33.95 68.45,12.95 56.6,-1.9 44.5,0.3 32.2,2.5 25,6.45 17.75,10.45 10.6,20.8 5.1,29.05 6.25,37.4 2.25,36.45 0.75,39.95 -0.25,42.3 0.05,44.75 0.3,46.5 1.4,47.75 3.5,50.2 8.35,49.7 9.75,49.55 11.05,48.55 12.9,50.95 15.4,52.9 15.55,52.95 15.55,53 15.65,53.05 15.75,53.15L15.6,53.05Q15.4,53 16.1,53.4 21.4,56.85 26.05,58.55 30.8,60.15 35,60.6 43.05,61.6 51.6,59.65 52.25,59.5 57.1,58.35 61.8,57.3 69,53.05 75.95,48.85 77.4,40.6"/></g><g id="ear" transform="matrix(0.886 -0.098 0.098 0.886 37.35 62.5)"><animateTransform attributeName="transform" additive="replace" type="translate" dur="2.083s" keyTimes="0;0.26;0.261;0.3;0.301;0.58;0.581;0.62;0.621;1" values="37.341,62.554;37.341,62.554;37.341,63.054;37.341,63.054;37.341,62.554;37.341,62.554;37.341,63.054;37.341,63.054;37.341,62.554;37.341,62.554" calcMode="discrete"/><animateTransform attributeName="transform" additive="sum" type="rotate" dur="2.083s" keyTimes="0;1" values="-6.315,0,0;-6.315,0,0" calcMode="discrete"/><animateTransform attributeName="transform" additive="sum" type="scale" dur="2.083s" keyTimes="0;1" values="0.891,0.891;0.891,0.891" calcMode="discrete"/><path fill="#FFCB99" d="M13.9,2.4Q12.35,1.25 10.4,0.3 5.85,-1.65 3.6,2.75 2.1,5.6 2.1,8.8 2.1,11.1 3.15,12.8 5.2,16.15 10.65,16.15 14.55,16.15 18.7,8.95 19,9.15 18.75,8.55 18.5,7.95 17.15,5.85 15.75,3.75 13.9,2.4"/><path fill="#E28C36" fill-opacity="0.8" d="M6.15,9.45Q6.75,8.25 8.8,9.45 10.75,10.6 11.75,12.2 11.95,10.8 9.5,8.4 7.7,6.65 6.5,6.65 6,6.65 5.65,6.95 4.25,7.95 4.2,8.9 4.2,9 4.2,9.1 4.2,9.85 4.75,10.15 5.5,10.55 6.15,9.45"/></g><g id="zavar" transform="matrix(0.61 0 -0.375 0.868 77.75 84)"><path fill="#FFCB99" d="M11.875,1.775Q12.055,2.391 12.7,2 12.282,1.861 11.875,1.775"/><path fill="#FFCB99" d="M12.475,7.925Q12.224,3.961 11.575,1.6 10.075,0.7 2.25,-1.05 -2.12,-2.028 -4.325,-2.35 -4.2,-2.197 1.15,3.2 6.491,8.602 6.85,14.2 8.573,13.863 12.05,14.55 12.729,11.89 12.475,7.925"/></g><g id="girle_angry" transform="matrix(0.833 -0.27 0.241 0.743 35.95 37.7)"><animateTransform attributeName="transform" additive="replace" type="translate" dur="2.083s" keyTimes="0;0.1;0.101;0.22;0.221;0.26;0.3;0.54;0.58;0.62;1" values="78.656,57.548;78.656,57.548;78.648,57.541;78.648,57.541;78.613,57.543;78.667,58.067;78.613,57.543;78.613,57.543;78.667,58.067;78.613,57.543;78.613,57.543"/><animateTransform attributeName="transform" additive="sum" type="rotate" dur="2.083s" keyTimes="0;0.22;0.221;1" values="-17.774,0,0;-17.774,0,0;-17.967,0,0;-17.967,0,0"/><animateTransform attributeName="transform" additive="sum" type="skewX" dur="2.083s" keyTimes="0;0.1;0.101;0.22;0.221;1" values="0;0;0.001;0.001;0.002;0.002"/><animateTransform attributeName="transform" additive="sum" type="scale" dur="2.083s" keyTimes="0;0.1;0.101;0.22;0.221;1" values="0.866,0.773;0.866,0.773;0.87,0.776;0.87,0.776;0.875,0.781;0.875,0.781"/><animateTransform attributeName="transform" additive="sum" type="translate" dur="2.083s" keyTimes="0;0.1;0.101;0.22;0.221;0.26;0.3;0.54;0.58;0.62;1" values="-39.4,-41.3;-39.4,-41.3;-39.3,-41.15;-39.3,-41.15;-39.35,-41;-39.4,-41.05;-39.35,-41;-39.35,-41;-39.4,-41.05;-39.35,-41;-39.35,-41"/><path fill="#FFCB99" d="M56.675,-3.7Q42.597,-5.42 33.2,-2.7 23.802,0.006 11.9,11.75 0,23.6 0,40.25 0,50.099 4.15,58.3 4.199,58.4 4.25,58.5 4.328,58.651 4.4,58.8L4.225,58.625Q4.03,58.459 4.675,59.25 8.933,66.224 13.3,70.275 17.814,74.449 22.15,76.7 30.43,81.27 40.45,81.9 41.207,81.95 46.825,82.25 52.441,82.545 61.775,79.475 71.108,76.404 75.95,65.35 79.762,56.59 77.55,23.4 70.749,-1.97 56.675,-3.7"/><path fill="#FEB367" d="M22.15,76.7Q25.326,78.346 28.9,79.6 20.948,76.596 14.65,70.125 8.357,63.661 6.125,61 5.163,59.857 4.675,59.25 8.933,66.224 13.3,70.275 17.814,74.449 22.15,76.7"/></g><g id="hair" transform="matrix(0.812 -0.325 0.325 0.812 15.6 32.4)"><animateTransform attributeName="transform" additive="replace" type="translate" dur="2.083s" keyTimes="0;0.26;0.261;0.3;0.301;0.58;0.581;0.62;0.621;1" values="15.589,32.356;15.589,32.356;15.589,32.856;15.589,32.856;15.589,32.356;15.589,32.356;15.589,32.856;15.589,32.856;15.589,32.356;15.589,32.356" calcMode="discrete"/><animateTransform attributeName="transform" additive="sum" type="rotate" dur="2.083s" keyTimes="0;1" values="-21.818,0,0;-21.818,0,0" calcMode="discrete"/><animateTransform attributeName="transform" additive="sum" type="scale" dur="2.083s" keyTimes="0;1" values="0.874,0.874;0.874,0.874" calcMode="discrete"/><path fill="#A63F20" d="M67,23.5L67.05,23.5Q73.75,24.15 93.25,31.7 80.719,7.531 68.35,3.775 55.981,0.018 43,2.8 50.85,-1.05 30.95,7.75L17.3,44.75Q10.602,51.303 37.925,38.075 60.184,27.292 57.45,26.5 57.744,26.408 58.05,26.35L57.75,24.65Q59.75,24.25 61.4,23.8L61.8,25.5Q61.85,25.45 61.9,25.45 65.15,24.55 67,23.5"/><path fill="#873721" d="M71.5,26.25L71.8,27.95Q73.85,27.55 75.55,27.1L75.15,25.4Q73.5,25.85 71.5,26.25"/></g><g id="pony" transform="matrix(0.748 -0.455 0.455 0.748 45.35 42.6)"><animateTransform attributeName="transform" additive="replace" type="translate" dur="2.083s" keyTimes="0;0.26;0.261;0.3;0.34;0.58;0.581;0.62;0.66;1" values="51.366,36.515;51.366,36.515;51.343,36.978;51.37,36.277;51.366,36.515;51.366,36.515;51.343,36.978;51.37,36.277;51.366,36.515;51.366,36.515"/><animateTransform attributeName="transform" additive="sum" type="rotate" dur="2.083s" keyTimes="0;0.26;0.3;0.34;0.58;0.62;0.66;1" values="-31.309,0,0;-31.309,0,0;-30.452,0,0;-31.309,0,0;-31.309,0,0;-30.452,0,0;-31.309,0,0;-31.309,0,0"/><animateTransform attributeName="transform" additive="sum" type="skewY" dur="2.083s" keyTimes="0;0.26;0.3;0.34;0.58;0.62;0.66;1" values="0;0;0.253;0;0;0.253;0;0"/><animateTransform attributeName="transform" additive="sum" type="scale" dur="2.083s" keyTimes="0;0.26;0.3;0.34;0.58;0.62;0.66;1" values="0.874,0.874;0.874,0.874;0.875,0.875;0.874,0.874;0.874,0.874;0.875,0.875;0.874,0.874;0.874,0.874"/><animateTransform attributeName="transform" additive="sum" type="translate" dur="2.083s" keyTimes="0;0.26;0.261;0.3;0.34;0.58;0.581;0.62;0.66;1" values="-9.45,2.4;-9.45,2.4;-9.45,2.45;-9.65,2.55;-9.45,2.4;-9.45,2.4;-9.45,2.45;-9.65,2.55;-9.45,2.4;-9.45,2.4"/><path fill="#A63F20" d="M24.9,-10.825Q25.006,-10.838 25.1,-10.85 24.551,-11.371 23.95,-11.95 24.446,-11.374 24.9,-10.825"/><path fill="#873721" d="M25.025,-10.675Q25.143,-10.685 25.25,-10.7 27.319,-11.001 27.3,-11.075 26.535,-11.056 25.1,-10.85 25.006,-10.838 24.9,-10.825 24.772,-10.808 24.65,-10.8 24.589,-10.791 24.525,-10.775 23.711,-10.662 22.725,-10.5 21.574,-10.302 20.2,-10.05 21.508,-10.213 22.575,-10.35 23.616,-10.487 24.425,-10.6 24.557,-10.615 24.675,-10.625 24.743,-10.641 24.8,-10.65 24.913,-10.66 25.025,-10.675"/><path fill="#A63F20" d="M29.275,-11.075Q27.999,-11.093 27.3,-11.075 27.319,-11.001 25.25,-10.7 25.143,-10.685 25.025,-10.675 24.913,-10.66 24.8,-10.65L24.825,-10.625Q24.662,-10.611 24.425,-10.6 23.616,-10.487 22.575,-10.35 21.508,-10.213 20.2,-10.05 21.711,-6.474 23.4,-7.05L22.15,-8.4Q24.855,-8.556 26.625,-8.725 32.825,-0.97 30.9,0.3 26.346,3.303 25.6,3.8 23.95,4 22.4,4.6 22.1,4.8 21.8,5 19.9,4.95 18.5,5.55 18.2,5.7 17.8,5.8 12.475,19.434 1.15,24.55 1.018,24.612 0.875,24.675 0.821,24.696 0.775,24.725 1.634,24.947 2.45,25.1 5.915,25.733 8.675,25.1 17.157,24.502 22.775,18.825L34.05,28.075Q45.604,38.34 59.875,44.2 64.531,46.11 69.525,47.225 70.574,47.451 71.65,47.65 70.95,46.956 70.275,45.975 67.413,41.934 65.35,32.85 69.159,37.691 71.625,40 72.068,40.434 72.475,40.775 72.58,40.863 72.675,40.95 72.718,40.975 72.75,41 72.751,40.929 73.8,42.05 74.85,43.163 67.25,17 63.467,8.368 59.975,4 55.867,-0.518 52.725,-2.625 49.572,-4.741 43.15,-7.85 37.444,-10.619 30.925,-11.025 30.102,-11.063 29.275,-11.075"/><path fill="#B13F23" d="M60.75,23.05L61.45,22.9Q61.55,22.55 61.55,21.35 61.55,18.25 59.05,14.15 56.35,9.8 52.7,7.95 56.55,12.2 58.5,15.55 60.441,18.958 60.7,22.075 60.75,22.563 60.75,23.05"/><path fill="#873721" d="M60.3,32.325Q60.297,32.003 60.325,31.925 60.278,31.374 60.225,30.85 60.26,31.633 60.3,32.325"/><path fill="#873721" d="M61.7,25.9Q61.688,26.004 61.675,26.125 61.716,26.013 61.75,25.9L61.7,25.9"/><path fill="#873721" d="M61.825,25.9L61.8,25.9Q61.795,25.925 61.8,25.95 61.817,25.925 61.825,25.9"/><path fill="#873721" d="M30.925,-11.025Q31.079,-10.971 31.25,-10.925 32.635,-10.552 34.1,-10.075 40.133,-8.081 47.525,-4.225L47.975,-4.1Q48.975,-3.512 50.55,-2.35 52.119,-1.192 53.925,0.275 55.727,1.741 59.35,6.9 62.982,12.069 66.25,21.875 68.378,28.282 68.7,27.775 70.286,34.042 70.875,36.8L62.225,25.9Q63.229,29.521 64.575,35.525 65.919,41.541 69.7,46.3 69.882,46.364 70,46.425 70.608,46.648 69.925,46.55 69.093,46.41 66.45,45.8 57.386,42.148 50,38.5 35.2,27.288 28.75,19.525 24.513,14.427 22.95,12.9 18.303,18.052 13.525,22.525 11.458,24.459 8.675,25.1 17.157,24.502 22.775,18.825L34.05,28.075Q45.604,38.34 59.875,44.2 64.531,46.11 69.525,47.225 70.574,47.451 71.65,47.65 70.95,46.956 70.275,45.975 67.413,41.934 65.35,32.85 69.159,37.691 71.625,40 72.068,40.434 72.475,40.775 72.58,40.863 72.675,40.95 72.718,40.975 72.75,41 72.751,40.929 73.8,42.05 74.85,43.163 67.25,17 63.467,8.368 59.975,4 55.867,-0.518 52.725,-2.625 49.572,-4.741 43.15,-7.85 37.444,-10.619 30.925,-11.025"/></g><g style="display:none;"><path fill="#FFCB99" d="M95.3,109.2Q96.113,111.471 93.725,112.3L123.5,102.925 120.55,101.525 95.3,109.2"/><path fill="none" stroke="#BE968B" stroke-width="0.3" stroke-linecap="round" stroke-linejoin="round" d="M120.55,101.525L123.5,102.925M120.55,101.525L121.65,101.2M95.3,109.2L120.55,101.525M93.725,112.3L93.45,112.4M123.5,102.925L93.725,112.3M124.55,102.6L123.5,102.925"/><animate attributeName="display" repeatCount="1" dur="2.083s" keyTimes="0;0.42;0.56;1" values="none;inline;none;none"/></g><g style="display:none;"><path fill="#FFCB99" d="M120.55,101.525L95.3,109.2Q96.113,111.471 93.725,112.3L123.5,102.925 120.55,101.525"/><path fill="none" stroke="#BE968B" stroke-width="0.3" stroke-linecap="round" stroke-linejoin="round" d="M120.55,101.525L123.5,102.925M120.55,101.525L121.65,101.2M95.3,109.2L120.55,101.525M93.725,112.3L93.45,112.4M123.5,102.925L93.725,112.3M124.55,102.6L123.5,102.925"/><animate attributeName="display" repeatCount="1" dur="2.083s" keyTimes="0;0.06;0.24;1" values="none;inline;none;none"/></g><g id="h4" transform="matrix(1 0 0 1 40.5 14.6)"><animateTransform attributeName="transform" additive="replace" type="translate" dur="2.083s" keyTimes="0;0.26;0.261;0.3;0.301;0.58;0.581;0.62;0.621;1" values="40.5,14.6;40.5,14.6;40.5,15.1;40.5,15.1;40.5,14.6;40.5,14.6;40.5,15.1;40.5,15.1;40.5,14.6;40.5,14.6" calcMode="discrete"/><path fill="#445F8E" d="M16.2,13.85Q22.75,7.85 34.5,5.4 46.25,2.9 53.35,5.1 51.55,-1 38.65,0.2 25.7,1.35 9.7,10 -8.2,39.5 6.85,48.05 7.7,29.35 16.2,13.85"/></g><g id="a2" transform="matrix(1 0 0 1 41.35 21.2)"><animateTransform attributeName="transform" additive="replace" type="translate" dur="2.083s" keyTimes="0;0.26;0.261;0.3;0.301;0.58;0.581;0.62;0.621;1" values="41.35,21.2;41.35,21.2;41.35,21.7;41.35,21.7;41.35,21.2;41.35,21.2;41.35,21.7;41.35,21.7;41.35,21.2;41.35,21.2" calcMode="discrete"/><path fill="#538DC6" d="M15.75,5.7Q16.15,4.9 16.05,3.9 15.65,1.5 12.75,2.25 12.2,2.4 11.35,2.95 11.3,2.5 11.15,1.95 10.85,0.65 10.25,0.25 9.8,-0.05 9.45,0.05 9.25,0.1 8.85,0.25 8.25,0.4 7.6,1.45 7.45,1.5 7.2,1.65 7.15,1.5 7.05,1.35 6.05,-0.05 5.65,0.05 5.05,0.2 4.6,0.9 4.45,1.2 4.4,1.55 4.15,1.5 3.95,1.55 3.75,1.65 3.6,1.65 2.6,1.45 2.05,1.6 0.3,2.05 1.1,4.95 1.25,5.6 1.7,6.15 1.65,6.15 1.6,6.15 -0.45,6.7 0.15,8.9 1,12.1 1.95,12.2L1.85,12.25Q0.75,13.5 1.2,15.15 1.7,16.95 3,17 4.1,16.7 4.15,16.7 5.8,16.25 6.5,15.1 6.6,14.9 6.75,14.35 6.7,15.75 6.95,16.7 7.4,18.35 8.35,18.55 8.6,18.65 9.35,18.45 10.85,18.05 11.2,16.55 11.3,16.4 11.35,16.05 12,17 12.45,17.1 12.65,17.2 13.4,17L14.2,16.55Q14.5,16.1 14.25,15.1 14.45,15.2 14.6,15.3 15.2,15.5 16.85,15.05 19.8,14.25 18.3,11.7 17.7,10.8 16.95,9.95 17.85,9.65 18.25,8.8 18.7,7.65 16.9,7.05 16.1,6.8 15.15,6.7 15.15,6.6 15.15,6.55 15.55,6.25 15.75,5.7 M14.05,2.7Q15.15,2.85 15.4,3.8 15.75,5 15.1,5.75 15.05,5.65 15,5.45 14.25,2.75 12.9,3.05 12.25,3.15 11.1,3.9 11.15,3.75 11.2,3.65 12.3,2.95 12.95,2.75 13.5,2.6 14.05,2.7 M10.9,4L10.9,3.95Q10.95,3.95 11,3.95 10.95,4 10.9,4 M15.1,7.1Q17.25,6.85 17.5,7.9 17.8,8.85 17.25,9.3 17.1,9.45 16.6,9.6 16.55,9.6 16.5,9.6 15.35,8.6 13.7,7.95L13.65,7.8Q14.25,7.85 14.7,7.6 14.95,7.35 15.1,7.1 M9.9,0.8Q9.95,0.9 10.15,1.45 9.7,1 8.95,1.1 8.75,1.1 8.45,1.15 8.7,0.85 8.95,0.75 9.7,0.55 9.9,0.8 M6.8,1.8Q6.55,1.85 5.5,1.7 5.2,1.65 4.9,1.65 5,1.4 5.05,1.2 5.35,0.6 5.75,0.5 5.95,0.6 6.3,1 6.55,1.4 6.8,1.8 M2.45,2.05L2.4,2.1Q2.05,2.5 2.55,4.4L2.9,5.95Q2.7,5.9 2.55,5.95 2.45,5.95 2.1,6.05 1.9,5.8 1.85,5.65 1.25,3.3 1.55,2.55 1.65,2.2 2.2,2.05 2.3,2 2.45,2.05 M0.55,8.2Q0.6,7.45 1.1,7 1.4,6.65 1.8,6.6 1.9,6.55 2.2,6.6 2.6,6.9 3,7.15 2.65,7.2 1.5,7.5 0.85,7.75 0.55,8.2 M7.5,13.55Q8.2,17 8.8,17.7 8.95,17.9 9.7,17.7 9.797,17.7 9.85,17.65 9.598,17.901 9.3,18 8.65,18.15 8.4,18.05 7.8,17.9 7.45,16.55 7.05,15.05 7.35,14 7.45,13.75 7.5,13.55 M12.05,13.1Q12.85,13.9 13.5,14.45L14,16.3Q13.8,16.4 13.4,16.5 12.75,16.7 12.35,16.45 11.9,16.05 11.5,15.15 11.65,14.35 11.9,13.2L12.05,13.1 M2.4,16.2L5.5,15.35Q4.85,16 4.05,16.2 3.95,16.25 3.1,16.5 2.65,16.5 2.4,16.2 M2.65,12.05Q2.4,12.3 2.25,12.65 1.6,13.75 1.95,15L2.4,16.2Q1.95,15.75 1.75,15 1.25,13.15 2.2,12.35 2.4,12.15 2.65,12.05"/><path fill="#445F8E" d="M10.4,10.55Q11,9.75 10.3,7.6 10.05,7.55 9.8,7.7 9.15,7.25 8.35,6.5 7.7,6.05 7.05,6.2 5.4,6.65 6,8.95 6.6,11.05 7.95,11.3L9.2,11.05Q10.2,10.75 10.4,10.55"/><path fill="#538DC6" d="M2.2,12.35Q1.25,13.15 1.75,15 1.95,15.75 2.4,16.2 2.65,16.5 3.1,16.5 3.95,16.25 4.05,16.2 4.85,16 5.5,15.35L2.4,16.2 1.95,15Q1.6,13.75 2.25,12.65 2.4,12.3 2.65,12.05 2.4,12.15 2.2,12.35"/></g><g><use xlink:href="#eye_g_a" transform="matrix(1.07 -0.347 0.343 1.058 58.75 58.25)"/><animate attributeName="display" repeatCount="1" dur="2.083s" keyTimes="0;0.7;1" values="none;inline;none"/></g><g style="display:none;"><use xlink:href="#eye_g_a" transform="matrix(1.07 -0.347 0.343 1.058 58.75 58.25)"><animateTransform attributeName="transform" additive="replace" type="translate" dur="2.083s" keyTimes="0;0.58;0.581;0.62;0.621;1" values="58.725,58.266;58.725,58.266;58.725,58.766;58.725,58.766;58.725,58.266;58.725,58.266" calcMode="discrete"/><animateTransform attributeName="transform" additive="sum" type="rotate" dur="2.083s" keyTimes="0;1" values="-17.967,0,0;-17.967,0,0" calcMode="discrete"/><animateTransform attributeName="transform" additive="sum" type="skewX" dur="2.083s" keyTimes="0;1" values="0.001;0.001" calcMode="discrete"/><animateTransform attributeName="transform" additive="sum" type="scale" dur="2.083s" keyTimes="0;1" values="1.124,1.112;1.124,1.112" calcMode="discrete"/></use><animate attributeName="display" repeatCount="1" dur="2.083s" keyTimes="0;0.38;0.66;1" values="none;inline;none;none"/></g><g style="display:none;"><path fill="#604339" d="M64,64.4Q63.2,66.55 64.6,68.4 65.85,70.05 67.8,70.45 70.45,71.05 72.45,69.2 74.25,67.55 74.05,65.15 73.8,65.8 73.45,66.4 72.45,68.45 70.35,69.2 67.8,69.95 66,68.45 64.2,66.9 64,64.4"/><animate attributeName="display" repeatCount="1" dur="2.083s" keyTimes="0;0.34;0.38;0.66;0.7;1" values="none;inline;none;inline;none;none"/></g><g style="display:none;"><use xlink:href="#eye_g_a" transform="matrix(1.07 -0.347 0.343 1.058 58.75 58.25)"><animateTransform attributeName="transform" additive="replace" type="translate" dur="2.083s" keyTimes="0;0.26;0.261;0.3;0.301;1" values="58.725,58.266;58.725,58.266;58.725,58.766;58.725,58.766;58.725,58.266;58.725,58.266" calcMode="discrete"/><animateTransform attributeName="transform" additive="sum" type="rotate" dur="2.083s" keyTimes="0;1" values="-17.967,0,0;-17.967,0,0" calcMode="discrete"/><animateTransform attributeName="transform" additive="sum" type="skewX" dur="2.083s" keyTimes="0;1" values="0.001;0.001" calcMode="discrete"/><animateTransform attributeName="transform" additive="sum" type="scale" dur="2.083s" keyTimes="0;1" values="1.124,1.112;1.124,1.112" calcMode="discrete"/></use><animate attributeName="display" repeatCount="1" dur="2.083s" keyTimes="0;0.34;1" values="inline;none;none"/></g><g><use xlink:href="#eye_g_ang" transform="matrix(1.07 -0.347 0.343 1.058 92.2 50.1)"/><animate attributeName="display" repeatCount="1" dur="2.083s" keyTimes="0;0.7;1" values="none;inline;none"/></g><g style="display:none;"><use xlink:href="#eye_g_ang" transform="matrix(1.07 -0.347 0.343 1.058 92.2 50.1)"><animateTransform attributeName="transform" additive="replace" type="translate" dur="2.083s" keyTimes="0;0.58;0.581;0.62;0.621;1" values="92.176,50.117;92.176,50.117;92.176,50.617;92.176,50.617;92.176,50.117;92.176,50.117" calcMode="discrete"/><animateTransform attributeName="transform" additive="sum" type="rotate" dur="2.083s" keyTimes="0;1" values="-17.967,0,0;-17.967,0,0" calcMode="discrete"/><animateTransform attributeName="transform" additive="sum" type="skewX" dur="2.083s" keyTimes="0;1" values="0.001;0.001" calcMode="discrete"/><animateTransform attributeName="transform" additive="sum" type="scale" dur="2.083s" keyTimes="0;1" values="1.124,1.112;1.124,1.112" calcMode="discrete"/></use><animate attributeName="display" repeatCount="1" dur="2.083s" keyTimes="0;0.38;0.66;1" values="none;inline;none;none"/></g><g style="display:none;"><path fill="#604339" d="M104.65,62.1Q106.25,61.25 107.1,59.8 108.3,57.8 107.2,55.8 107.7,58.95 104.95,60.55 102.55,62 100,60.85 98.15,60.1 96.75,58.65 97.6,60.55 99.55,61.8 102.05,63.25 104.65,62.1"/><animate attributeName="display" repeatCount="1" dur="2.083s" keyTimes="0;0.34;0.38;0.66;0.7;1" values="none;inline;none;inline;none;none"/></g><g style="display:none;"><use xlink:href="#eye_g_ang" transform="matrix(1.07 -0.347 0.343 1.058 92.2 50.1)"><animateTransform attributeName="transform" additive="replace" type="translate" dur="2.083s" keyTimes="0;0.26;0.261;0.3;0.301;1" values="92.176,50.117;92.176,50.117;92.176,50.617;92.176,50.617;92.176,50.117;92.176,50.117" calcMode="discrete"/><animateTransform attributeName="transform" additive="sum" type="rotate" dur="2.083s" keyTimes="0;1" values="-17.967,0,0;-17.967,0,0" calcMode="discrete"/><animateTransform attributeName="transform" additive="sum" type="skewX" dur="2.083s" keyTimes="0;1" values="0.001;0.001" calcMode="discrete"/><animateTransform attributeName="transform" additive="sum" type="scale" dur="2.083s" keyTimes="0;1" values="1.124,1.112;1.124,1.112" calcMode="discrete"/></use><animate attributeName="display" repeatCount="1" dur="2.083s" keyTimes="0;0.34;1" values="inline;none;none"/></g><g id="h3" transform="matrix(1 0 0 1 96 50.8)"><animateTransform attributeName="transform" additive="replace" type="translate" dur="2.083s" keyTimes="0;0.26;0.261;0.3;0.301;0.34;0.341;0.36;0.361;0.38;0.381;0.4;0.401;0.58;0.581;0.62;0.621;0.66;0.661;0.68;0.681;0.7;0.701;0.72;0.721;1" values="96,50.8;96,50.8;96,51.3;96,51.3;96,50.8;96,50.8;96,51.1;96,51.1;96,51.4;96,51.4;96,51.1;96,51.1;96,50.8;96,50.8;96,51.3;96,51.3;96,50.8;96,50.8;96,51.1;96,51.1;96,51.4;96,51.4;96,51.1;96,51.1;96,50.8;96,50.8" calcMode="discrete"/><path fill="#873721" d="M2.05,2.85Q0.3,5.45 0,5.7 0.25,6.1 1.2,5.85 2.05,5.5 3.4,4.4 4.75,3.2 5.45,1.85 6.15,0.65 5.4,0.3 4.6,-0.1 4.15,0.05 3.85,0.2 2.05,2.85"/></g><g id="h2" transform="matrix(1 0 0 1 63.7 58.95)"><animateTransform attributeName="transform" additive="replace" type="translate" dur="2.083s" keyTimes="0;0.26;0.261;0.3;0.301;0.34;0.341;0.36;0.361;0.38;0.381;0.4;0.401;0.58;0.581;0.62;0.621;0.66;0.661;0.68;0.681;0.7;0.701;0.72;0.721;1" values="63.7,58.95;63.7,58.95;63.7,59.45;63.7,59.45;63.7,58.95;63.7,58.95;63.7,59.25;63.7,59.25;63.7,59.55;63.7,59.55;63.7,59.25;63.7,59.25;63.7,58.95;63.7,58.95;63.7,59.45;63.7,59.45;63.7,58.95;63.7,58.95;63.7,59.25;63.7,59.25;63.7,59.55;63.7,59.55;63.7,59.25;63.7,59.25;63.7,58.95;63.7,58.95" calcMode="discrete"/><path fill="#873721" d="M10,3.5Q9.85,2.85 9.1,2.45 8.45,2.05 6.9,1.6 5.45,1.1 3.5,0.5 1.55,0 1.1,0 0.55,0.1 0.1,0.8 -0.4,1.5 1.45,2.2 3.3,3 5.5,3.45 7.7,3.9 8.9,4.05 10.1,4.2 10,3.5"/></g><g id="lula_nose" transform="matrix(0.735 -0.474 0.474 0.726 83.95 61.4)"><animateTransform attributeName="transform" additive="replace" type="translate" dur="2.083s" keyTimes="0;0.26;0.261;0.3;0.301;0.58;0.581;0.62;0.621;1" values="83.95,61.4;83.95,61.4;83.95,61.9;83.95,61.9;83.95,61.4;83.95,61.4;83.95,61.9;83.95,61.9;83.95,61.4;83.95,61.4" calcMode="discrete"/><animateTransform attributeName="transform" additive="sum" type="rotate" dur="2.083s" keyTimes="0;1" values="-33.124,0,0;-33.124,0,0" calcMode="discrete"/><animateTransform attributeName="transform" additive="sum" type="skewY" dur="2.083s" keyTimes="0;1" values="0.312;0.312" calcMode="discrete"/><animateTransform attributeName="transform" additive="sum" type="scale" dur="2.083s" keyTimes="0;1" values="0.875,0.867;0.875,0.867" calcMode="discrete"/><path fill="#7C4D42" d="M7.975,9.775Q6.491,7.546 5.975,6.7 5.685,6.222 5.65,6.05L4.95,6.85Q5.79,8.251 7.175,9.9 8.555,11.552 8.4,12.725 8.257,13.905 7.575,14.85 6.886,15.798 4.95,15.625 3.014,15.44 1.025,14.45 0.433,14.159 0.05,13.95 0.04,14.301 0,14.7 3.613,17.345 6,16.775 8.391,16.203 9.05,14.95 9.708,13.692 9.575,12.85 9.45,12.008 7.975,9.775"/></g><g id="g_mouth__1" transform="matrix(0.57 -0.144 -0.057 0.865 71.45 75.85)"><animateTransform attributeName="transform" additive="replace" type="translate" dur="2.083s" keyTimes="0;0.26;0.261;0.3;0.301;0.58;0.581;0.62;0.621;1" values="71.45,75.85;71.45,75.85;71.45,76.35;71.45,76.35;71.45,75.85;71.45,75.85;71.45,76.35;71.45,76.35;71.45,75.85;71.45,75.85" calcMode="discrete"/><animateTransform attributeName="transform" additive="sum" type="rotate" dur="2.083s" keyTimes="0;1" values="3.771,0,0;3.771,0,0" calcMode="discrete"/><animateTransform attributeName="transform" additive="sum" type="skewY" dur="2.083s" keyTimes="0;1" values="-17.99;-17.99" calcMode="discrete"/><animateTransform attributeName="transform" additive="sum" type="scale" dur="2.083s" keyTimes="0;1" values="0.588,0.867;0.588,0.867" calcMode="discrete"/><animateTransform attributeName="transform" additive="sum" type="scale" dur="2.083s" keyTimes="0;1" values="0.951,1;0.951,1" calcMode="discrete"/><path fill="#87301B" d="M23.5,6.5Q23.45,6.5 20.6,8.05 19.926,8.05 17.1,7.2 14.938,4.49 11.5,4.1 9.764,3.9 8.9,4.1 5.197,7.253 4.9,7.925 4.806,8.168 5.125,8.1 6.086,7.9 5.175,7.925L7.65,7.8Q10.765,5.399 10.975,5.325 11.204,5.23 11.45,5.125 12.797,4.554 14.975,6.7 17.154,8.835 21.65,9.05 22.45,9.05 23.2,8.3 23.95,7.5 24.2,7.5 25,7.5 26.1,8.5 27.2,9.45 27.75,9.45 28.9,9.45 30.2,8.8 30.814,8.48 34.05,11.2 30.811,7.567 30.2,7.05L30.175,7.025Q29.278,6.702 28.8,7.15 28.2,8.3 27.65,8.3 27.35,8.3 26.25,7.4 25.2,6.5 23.5,6.5"/><path fill="#CC3C3C" d="M2.25,8.75Q2.3,8.8 2.4,8.9L2.4,8.85 2.25,8.75"/></g><g id="fr" transform="matrix(1 0 0 1 81.75 58.85)"><animateTransform attributeName="transform" additive="replace" type="translate" dur="2.083s" keyTimes="0;0.26;0.261;0.3;0.301;0.58;0.581;0.62;0.621;1" values="81.75,58.85;81.75,58.85;81.75,59.35;81.75,59.35;81.75,58.85;81.75,58.85;81.75,59.35;81.75,59.35;81.75,58.85;81.75,58.85" calcMode="discrete"/><path fill="#A63F20" fill-opacity="0.659" d="M24.25,6.2L24.2,6.2Q24,6.2 23.95,6.4 23.85,6.55 24.05,6.8 24.2,7.05 24.3,7.05 24.4,7 24.6,6.9 24.95,6.7 24.8,6.35 24.6,6.15 24.25,6.2"/><path fill="#A63F20" fill-opacity="0.659" d="M21.35,8.75Q21.35,8.9 21.25,9.05 21.2,9.05 21.2,9.1 21.15,9.15 21.1,9.15 20.95,9.2 20.9,9.25 20.65,9.25 20.55,8.9 20.3,8.55 20.5,8.4 20.5,8.3 21,8.05 21.35,7.95 21.6,8.15 21.55,8.35 21.35,8.7L21.35,8.75"/><path fill="#A63F20" fill-opacity="0.659" d="M12.1,1L11.55,1.2Q11.3,1.2 11.1,0.9 11.25,0.5 12.2,0L12.55,0.25Q12.65,0.65 12.1,1"/><path fill="#A63F20" fill-opacity="0.659" d="M13.7,3.65Q13.75,3.4 13.95,3.2 14.1,3.2 14.2,3.1 14.35,3.1 14.45,3.45L14.65,3.7Q14.65,4.05 14.45,4.2 14.15,4.2 13.95,4.15 13.8,3.95 13.7,3.65"/><path fill="#A63F20" fill-opacity="0.659" d="M4.05,2.9Q4.05,3.05 3.95,3.2 3.8,3.3 3.75,3.35 3.65,3.4 3.45,3.3 3.35,3.1 3.5,2.9L3.75,2.75 4.05,2.9"/><path fill="#A63F20" fill-opacity="0.659" d="M0.4,4.05Q0.45,4.1 0.65,4.35 0.85,4.7 0.65,4.95 0.5,4.95 0.4,4.9 0.35,4.9 0.2,4.6 -0.1,4.15 0.1,3.95 0.35,4 0.4,4.05"/><path fill="#A63F20" fill-opacity="0.659" d="M4.35,7.1Q4.2,7.4 4.3,6.85 4.45,6.5 4.8,6.4L5.15,6.3Q5.25,6.3 5.4,6.3L5.65,6.45Q5.8,6.65 5.75,7 5.6,7.55 5.4,7.65 5.2,7.7 4.85,7.45 4.6,7.4 4.35,7.1"/><path fill="#A63F20" fill-opacity="0.659" d="M0.95,10.35Q0.9,10.35 1,10.25 1.4,10.3 1.75,11 1.8,11.15 1.5,11.35L1.45,11.4 1.1,11.55Q0.95,11.5 0.9,11.45 0.85,11.5 0.75,11.2 0.55,10.85 0.65,10.7 0.6,10.55 0.95,10.35"/><path fill="#A63F20" fill-opacity="0.659" d="M2.1,13.65L2.2,13.9Q2.15,14 1.85,14.05 1.8,14.2 1.7,14.2 1.55,14.2 1.4,14.1L1.3,14.15Q1.05,13.9 0.95,13.8 1.2,13.55 1.35,13.45 1.55,13.4 1.75,13.4 1.95,13.45 2.1,13.65"/></g><g id="ch" transform="matrix(1 0 0 1 54.1 62.05)"><animateTransform attributeName="transform" additive="replace" type="translate" dur="2.083s" keyTimes="0;0.26;0.261;0.3;0.301;0.58;0.581;0.62;0.621;1" values="54.1,62.05;54.1,62.05;54.1,62.55;54.1,62.55;54.1,62.05;54.1,62.05;54.1,62.55;54.1,62.55;54.1,62.05;54.1,62.05" calcMode="discrete"/><path fill="#F4A571" d="M52,8.85Q53.15,10 55.1,9.65 57.1,9.3 58.7,7.7 60.35,6.05 60.7,4.05 61.05,2.1 59.9,0.95 58.75,-0.25 56.8,0.1 54.75,0.45 53.1,2.1 51.5,3.7 51.15,5.75 50.8,7.7 52,8.85"/><path fill="#F4A571" d="M14.05,13.65Q13.55,11.7 11.15,10.05 8.8,8.45 5.85,8.15 3,7.8 1.3,8.95 -0.4,10.1 0.1,12 0.65,13.95 3,15.55 5.4,17.2 8.3,17.55 11.15,17.9 12.8,16.75 14.55,15.6 14.05,13.65"/></g><g id="a1" transform="matrix(1 0 0 1 49.7 91.6)"><path fill="#44C4B7" d="M26.1,2.8Q26.8,0.2 26.9,0 20.45,2.9 8.25,9.1 3.95,11.3 1.9,12.4 0.251,13.048 0.15,13.55L5.85,16.35 5.9,16.35Q6.7,16.1 7.3,15.8 23.55,9.55 24.45,7.45 25.35,5.3 26.1,2.8"/></g><g id="h1" transform="matrix(1 0 0 1 56.5 87.45)"><animateTransform attributeName="transform" additive="replace" type="translate" dur="2.083s" keyTimes="0;0.04;0.08;0.12;0.22;0.24;0.26;0.261;0.28;0.281;0.4;0.44;0.48;0.54;0.56;0.58;0.581;0.6;0.601;1" values="65.1,122.95;65.1,122.95;72.48,112.272;72.392,112.36;72.392,112.36;65.1,122.965;65.1,122.965;65.1,122.954;65.1,122.954;65.1,122.95;65.1,122.95;72.48,112.272;72.392,112.36;72.392,112.36;65.1,122.965;65.1,122.965;65.1,122.954;65.1,122.954;65.1,122.95;65.1,122.95"/><animateTransform attributeName="transform" additive="sum" type="rotate" dur="2.083s" keyTimes="0;0.04;0.08;0.12;0.22;0.24;0.4;0.44;0.48;0.54;0.56;1" values="0,0,0;0,0,0;-29.475,0,0;-32.702,0,0;-32.702,0,0;0,0,0;0,0,0;-29.475,0,0;-32.702,0,0;-32.702,0,0;0,0,0;0,0,0"/><animateTransform attributeName="transform" additive="sum" type="skewY" dur="2.083s" keyTimes="0;0.22;0.24;0.26;0.261;0.28;0.281;0.54;0.56;0.58;0.581;0.6;0.601;1" values="0;0;0.768;0.768;-0.308;-0.308;0;0;0.768;0.768;-0.308;-0.308;0;0"/><animateTransform attributeName="transform" additive="sum" type="scale" dur="2.083s" keyTimes="0;0.04;0.08;0.12;0.22;0.24;0.4;0.44;0.48;0.54;0.56;1" values="1,1;1,1;0.999,0.999;0.998,0.998;0.998,0.998;1,1;1,1;0.999,0.999;0.998,0.998;0.998,0.998;1,1;1,1"/><animateTransform attributeName="transform" additive="sum" type="translate" dur="2.083s" keyTimes="0;0.04;0.08;0.12;0.22;0.24;0.4;0.44;0.48;0.54;0.56;1" values="-8.6,-35.5;-8.6,-35.5;-8.65,-35.45;-8.55,-35.5;-8.55,-35.5;-8.6,-35.5;-8.6,-35.5;-8.65,-35.45;-8.55,-35.5;-8.55,-35.5;-8.6,-35.5;-8.6,-35.5"/><path fill="#C93" d="M20.1,29.55Q11.65,36 0.55,36.8L2.15,40.1 21.3,32.85 20.1,29.55"/><path fill="#D7A55B" d="M0.55,36.8Q11.65,36 20.1,29.55L0,35.65 0.55,36.8"/><path fill="#D7A55B" d="M59.35,9.45L58.7,8.45 19.3,23.45Q18.25,23.85 18.1,24.25L18.3,24.8Q18.8,25.2 20.4,25.55 42.4,29.35 59.35,9.45"/><path fill="#AC822B" d="M65.05,18.75L64.6,17.95 23.95,35.2Q24.75,29 20.4,25.55 18.8,25.2 18.3,24.8L20.1,29.55 21.3,32.85 2.15,40.1 2.65,41.5 21.6,33.4 23.45,38.5 65.05,18.75"/><path fill="#C93" d="M80.85,1.5Q71.95,9 61.1,12.55L60.3,11 59.35,9.45Q42.4,29.35 20.4,25.55 24.75,29 23.95,35.2L64.6,17.95 63,15.5 62.45,14.45 82.75,6.05 80.85,1.5"/><path fill="#D7A55B" d="M61.1,12.55Q71.95,9 80.85,1.5L80.2,0 60.3,11 61.1,12.55"/><path fill="#AC822B" d="M83.15,7L82.75,6.05 62.45,14.45 63,15.5 83.15,7"/></g><g id="ji" transform="matrix(1 0 0 1 49.65 104.9)"><animateTransform attributeName="transform" additive="replace" type="translate" dur="2.083s" keyTimes="0;0.04;0.08;0.22;0.24;0.4;0.44;0.54;0.56;1" values="49.65,104.9;49.65,104.9;49.65,105.5;49.65,105.5;49.65,104.9;49.65,104.9;49.65,105.5;49.65,105.5;49.65,104.9;49.65,104.9"/><animateTransform attributeName="transform" additive="sum" type="rotate" dur="2.083s" keyTimes="0;0.04;0.08;0.22;0.24;0.4;0.44;0.54;0.56;1" values="0,0,0;0,0,0;-32.702,0,0;-32.702,0,0;0,0,0;0,0,0;-32.702,0,0;-32.702,0,0;0,0,0;0,0,0"/><animateTransform attributeName="transform" additive="sum" type="scale" dur="2.083s" keyTimes="0;0.04;0.08;0.22;0.24;0.4;0.44;0.54;0.56;1" values="1,1;1,1;0.998,0.998;0.998,0.998;1,1;1,1;0.998,0.998;0.998,0.998;1,1;1,1"/><path fill="#FFCB99" d="M15.95,15.75L16,15.75Q15.952,15.702 15.95,15.65L15.95,15.75"/><path fill="#DAB383" d="M20.6,19L20.95,18.6Q20.5,18.8 20.4,18.8 20.1,18.5 19.95,18.25 19.7,18.55 20.1,18.95 20.5,19.35 21.2,19.45 20.75,19.1 20.6,19"/><path fill="#FEB367" d="M22.05,19.85Q22.05,19.7 21.85,19.5 21.5,20 20.8,20.25 20.45,20.4 20.05,20.55 19.7,20.6 19.25,21.1 18.85,21.55 18.25,21.55L17.8,21.45Q17.55,21.45 16.9,21.85 16.25,22.25 15.35,22.25L14.05,22.2Q14.55,22.85 15.25,23.4 15.75,23.55 16.35,23.5 16.95,23.45 17.15,23.1 17.95,23 18.4,22.85 18.9,22.65 19.05,22.25 19.7,22.15 20.1,21.95 20.55,21.7 20.7,21.2 21.75,20.8 22,20.4 22.2,20.15 22.05,19.85"/><path fill="#FFCB99" d="M21.85,19.5Q21.8,19.35 21.65,19.25 21.3,18.85 20.95,18.6L20.6,19Q20.75,19.1 21.2,19.45 20.5,19.35 20.1,18.95 19.7,18.55 19.95,18.25 20.1,18.5 20.4,18.8 20.5,18.8 20.95,18.6 21.2,18.2 21.35,17.8 19.9,16.1 16,15.75L15.95,15.75 15.9,15.7Q15.75,15.7 15.6,15.7 15.75,15.7 15.9,15.7L15.9,15.65Q14.8,14.15 13.55,12.6 12.5,11.25 11.55,10L10.45,8.55Q9.6,7.5 8.75,6.45L6.7,3.9Q6.35,3.45 5.95,3.05L5.9,3.05Q0.636,0.215 0.25,0.3 0.449,0.596 0.675,0.95 2.524,3.623 6.6,9.25 10,14 12.45,17.35 12.5,17.45 12.6,17.55 12.55,20.25 14.05,22.2L15.35,22.25Q16.25,22.25 16.9,21.85 17.55,21.45 17.8,21.45L18.25,21.55Q18.85,21.55 19.25,21.1 19.7,20.6 20.05,20.55 20.45,20.4 20.8,20.25 21.5,20 21.85,19.5"/><path fill="none" stroke="#BE968B" stroke-width="0.25" stroke-linecap="round" stroke-linejoin="round" d="M20.95,18.6Q21.3,18.85 21.65,19.25M21.35,17.8Q21.2,18.2 20.95,18.6M16,15.75Q19.9,16.1 21.35,17.8M15.95,15.65Q15.952,15.702 16,15.75M15.9,15.65L15.95,15.65M13.55,12.6Q14.8,14.15 15.9,15.65M11.55,10Q12.5,11.25 13.55,12.6M10.45,8.55L11.55,10M8.75,6.45Q9.6,7.5 10.45,8.55M6.7,3.9L8.75,6.45M5.95,3.05Q6.35,3.45 6.7,3.9M0.675,0.95Q0.449,0.596 0.25,0.3M6.6,9.25Q2.524,3.623 0.675,0.95M12.45,17.35Q10,14 6.6,9.25M12.6,17.55Q12.5,17.45 12.45,17.35M14.05,22.2Q12.55,20.25 12.6,17.55M15.25,23.4Q14.55,22.85 14.05,22.2M16.35,23.5Q15.75,23.55 15.25,23.4M17.15,23.1Q16.95,23.45 16.35,23.5M18.4,22.85Q17.95,23 17.15,23.1M19.05,22.25Q18.9,22.65 18.4,22.85M20.1,21.95Q19.7,22.15 19.05,22.25M20.7,21.2Q20.55,21.7 20.1,21.95M22,20.4Q21.75,20.8 20.7,21.2M22.05,19.85Q22.2,20.15 22,20.4M21.85,19.5Q22.05,19.7 22.05,19.85M21.65,19.25Q21.8,19.35 21.85,19.5"/><path fill="none" stroke="#BE968B" stroke-width="0.25" stroke-linecap="round" stroke-linejoin="round" d="M15.95,15.75L16,15.75M15.95,15.65L15.95,15.75"/><path fill="none" stroke="#BE968B" stroke-width="0.25" stroke-linecap="round" stroke-linejoin="round" d="M15.9,15.7L15.95,15.75"/><path fill="none" stroke="#BE968B" stroke-width="0.25" stroke-linecap="round" stroke-linejoin="round" d="M15.9,15.7Q15.75,15.7 15.6,15.7"/></g><g id="palm" transform="matrix(1 0 0 1 118.6 93.7)"><animateTransform attributeName="transform" additive="replace" type="translate" dur="2.083s" keyTimes="0;0.24;0.241;0.26;0.261;0.56;0.561;0.58;0.581;1" values="118.6,93.7;118.6,93.7;118.6,94.8;118.6,94.8;118.6,93.7;118.6,93.7;118.6,94.8;118.6,94.8;118.6,93.7;118.6,93.7" calcMode="discrete"/><path fill="#FEB367" d="M9.85,4.95Q9.8,5.2 9.65,5.45 9.1,6.65 8,6.95 6.45,7.35 6.15,7.6 5.05,8.45 4.05,8.45 3.65,8.45 2.8,8.15 2,7.8 1.7,7.7L1.85,7.85Q2.55,8.4 3.4,8.8 3.8,9 4.05,9.1 4.7,9.3 5.25,9.25 5.75,9.15 6.25,8.9 6.7,8.6 8.3,8 9.85,7.4 9.9,6.05 9.9,5.4 9.85,4.95"/><path fill="#FFCB99" d="M9.65,5.45Q9.8,5.2 9.85,4.95 9.8,4.4 9.6,4.15 9.2,3.6 8.8,2 8.35,0.4 7.15,0.05 5.85,-0.35 6.35,3.25 5.8,1.2 4.8,0.9 2.95,0.25 3.5,2.35L4.85,4.7 3.1,2.95Q1.8,2.2 1.7,3.4 1.6,4.4 2.35,5.1 1,4.1 0.6,4.35 -0.45,4.95 0.4,6.4L1.7,7.7Q2,7.8 2.8,8.15 3.65,8.45 4.05,8.45 5.05,8.45 6.15,7.6 6.45,7.35 8,6.95 9.1,6.65 9.65,5.45"/><path fill="none" stroke="#BE968B" stroke-width="0.25" stroke-linecap="round" stroke-linejoin="round" d="M9.85,4.95Q9.8,4.4 9.6,4.15 9.2,3.6 8.8,2 8.35,0.4 7.15,0.05 5.85,-0.35 6.35,3.25 5.8,1.2 4.8,0.9 2.95,0.25 3.5,2.35L4.85,4.7 3.1,2.95Q1.8,2.2 1.7,3.4 1.6,4.4 2.35,5.1 1,4.1 0.6,4.35 -0.45,4.95 0.4,6.4L1.7,7.7 1.85,7.85Q2.55,8.4 3.4,8.8 3.8,9 4.05,9.1 4.7,9.3 5.25,9.25 5.75,9.15 6.25,8.9 6.7,8.6 8.3,8 9.85,7.4 9.9,6.05 9.9,5.4 9.85,4.95"/></g></g><g mask="url(#mask_)"><g id="2_l1" transform="matrix(1 0 0 1 -89.05 54.3)"><g id=".__3F" transform="matrix(1 0 0 1 134.55 4.5)"><animateTransform attributeName="transform" additive="replace" type="translate" dur="2.083s" keyTimes="0;0.34;0.4;0.44;0.5;1" values="141.4,64.9;141.4,64.9;141.4,19.9;141.4,20.4;141.4,19.9;141.4,19.9"/><animateTransform attributeName="transform" additive="sum" type="scale" dur="2.083s" keyTimes="0;0.34;0.4;0.44;1" values="1,1;1,1;1,1.065;1,1;1,1"/><animateTransform attributeName="transform" additive="sum" type="translate" dur="2.083s" keyTimes="0;1" values="-6.85,-15.4;-6.85,-15.4"/><path fill="#404040" d="M6.3,28.55Q6.6,28.15 6.7,27.75 6.75,27.55 6.75,27.35 6.75,25.05 5.65,25 4.55,25 4.35,24.95 4.1,24.9 2.85,25.05 1.6,25.2 1.6,27.3 1.6,27.5 1.65,27.75 1.75,28.05 1.95,28.4 2.5,29.4 3.1,29.5 3.65,29.55 3.85,29.55 4,29.55 4.9,29.5 5.75,29.4 6.3,28.55"/><path fill="#000" fill-opacity="0.314" d="M6.7,27.75Q6.75,28.1 6.75,28.6 6.75,29.2 6.3,29.8 5.75,30.65 4.9,30.75 4,30.8 3.85,30.8 3.65,30.8 3.1,30.75 2.5,30.65 1.95,29.65 1.6,29.05 1.6,28.55 1.6,28.1 1.65,27.75 1.75,28.05 1.95,28.4 2.5,29.4 3.1,29.5 3.65,29.55 3.85,29.55 4,29.55 4.9,29.5 5.75,29.4 6.3,28.55 6.6,28.15 6.7,27.75"/><path fill="#000" fill-opacity="0.314" d="M2.45,8.95Q2.2,8.95 1.1,8.9 0.45,8.7 0.15,7.75 0,6.55 0,6.5 0,6.05 0.05,5.65 0.1,5.95 0.15,6.5 0.45,7.45 1.1,7.65 2.2,7.7 2.45,7.7 3.35,7.7 3.9,6.1 4.35,4.65 6.1,4.5 8.05,4.65 9.05,6.2 9.8,7.3 9.8,8.2 9.8,8.45 9.7,8.7 9.5,8.1 9.05,7.45 8.05,5.9 6.1,5.75 4.35,5.9 3.9,7.35 3.35,8.95 2.45,8.95"/><path fill="#404040" d="M13,11.65Q13.65,10.7 13.75,9.15 13.75,8.8 13.75,8.5 13.75,5.2 12.2,3.3 10.65,1.35 8.95,0.7 7.25,0.05 5.35,0 3.4,-0.05 2,0.95 0,2.25 0,5.25 0,5.3 0.05,5.65 0.1,5.95 0.15,6.5 0.45,7.45 1.1,7.65 2.2,7.7 2.45,7.7 3.35,7.7 3.9,6.1 4.35,4.65 6.1,4.5 8.05,4.65 9.05,6.2 9.8,7.3 9.8,8.2 9.8,8.45 9.7,8.7 9.45,9.15 8.7,9.65 7.15,10.6 6.25,11.15 2.65,13.6 2.65,17.15 2.65,17.2 2.7,17.7 2.7,18 2.75,18.55 3,19.6 3.7,19.85 4.85,19.95 5.15,19.95 6.3,19.95 7,17.8 7.7,15.3 9,14.65 11.95,13.2 13,11.65"/><path fill="#6A6A6A" d="M10.35,3.35Q10.6,3.35 10.6,3 10.6,2.9 10.55,2.7 10.35,2 9.9,1.8 9.45,1.55 9,1.6L9.9,2.85Q10.05,3.35 10.35,3.35"/><path fill="#000" fill-opacity="0.314" d="M13.75,9.75Q13.75,11.75 13,12.9 11.95,14.45 9,15.9 7.7,16.55 7,19.05 6.3,21.2 5.15,21.2 4.85,21.2 3.7,21.1 3,20.85 2.75,19.8 2.65,18.45 2.65,18.4 2.65,18.05 2.7,17.7 2.7,18 2.75,18.55 3,19.6 3.7,19.85 4.85,19.95 5.15,19.95 6.3,19.95 7,17.8 7.7,15.3 9,14.65 11.95,13.2 13,11.65 13.65,10.7 13.75,9.15 13.75,9.45 13.75,9.75"/></g><g id="u" transform="matrix(1 0 0 1 114.75 13.7)"><animateTransform attributeName="transform" additive="replace" type="translate" dur="2.083s" keyTimes="0;0.3;0.36;1" values="124.45,70.25;124.45,70.25;124.45,25.25;124.45,25.25"/><animateTransform attributeName="transform" additive="sum" type="scale" dur="2.083s" keyTimes="0;0.3;0.36;0.4;1" values="1,1;1,1;1,1.03;1,1;1,1"/><animateTransform attributeName="transform" additive="sum" type="translate" dur="2.083s" keyTimes="0;1" values="-9.7,-11.55;-9.7,-11.55"/><path fill="#000" fill-opacity="0.314" d="M6.95,8.75Q7.05,7.25 6.9,6.05 6.75,8.35 6.4,10.55 6.2,11.8 6.4,13.2 6.4,13 6.45,12.8 6.8,10.8 6.95,8.75"/><path fill="#000" fill-opacity="0.314" d="M19.4,8.05Q19.25,9.4 17.75,16.25 16.2,23.1 10.65,23.15 10,23.15 9.45,23.15 9.2,23.15 9,23.15 3.45,23.3 1.8,19.85 0.05,16.35 0.05,13.25 0.05,12.85 0.05,12.45 0.3,15.55 1.75,18.9 3.4,23 8.95,22.8 9.15,22.8 9.4,22.8 9.95,22.8 10.6,22.8 16.15,22.7 17.7,14.65 18.85,8.4 19.25,6.05 19.45,7.05 19.4,8.05"/><path fill="#404040" d="M19.25,6.05Q19.3,5.35 19.35,5 19.45,3.4 18.95,1.8 18.35,0.05 15.95,0.1 15.7,0.1 14.3,0.1 11.9,0.2 11.6,8.8 11.3,17.15 9,17.9 7.55,17.45 6.95,15.6 6.55,14.35 6.4,13.2 6.2,11.8 6.4,10.55 6.75,8.35 6.9,6.05 6.9,5.95 6.9,5.8 7.05,3.3 6.65,1.5 6.2,-0.2 4.35,0 3.65,0.1 3.5,0.2 3.35,0.2 3.2,0.25 0.95,0.7 0.4,4 0.35,4.15 0.35,4.35 0,7 0,11.15 0,11.6 0.05,12.05 0.05,12.25 0.05,12.45 0.3,15.55 1.75,18.9 3.4,23 8.95,22.8 9.15,22.8 9.4,22.8 9.95,22.8 10.6,22.8 16.15,22.7 17.7,14.65 18.85,8.4 19.25,6.05"/><path fill="#6A6A6A" d="M16.6,3.8Q16.65,3.9 16.65,4 17.25,5.55 17.75,4.95 17.75,4.6 17.75,4.3 17.75,4.25 17.8,4.2 17.9,3.5 17.8,2.95 17.65,1.65 16.7,1.8 16,1.95 16.6,3.8"/><path fill="#6A6A6A" d="M5.15,4.95Q5.25,4.85 5.3,4.9 5.8,4.9 5.85,4.1 5.85,3.85 5.85,3.6 5.65,1.35 5,0.8 4.25,0.45 4.25,1.75 4.2,2.9 4.55,3.85 4.55,3.95 4.6,4.05 5,5 5.15,4.95"/></g><g id="r1" transform="matrix(1 0 0 1 88.55 12.5)"><animateTransform attributeName="transform" additive="replace" type="translate" dur="2.083s" keyTimes="0;0.26;0.32;1" values="99.15,69.85;99.15,69.85;99.15,24.85;99.15,24.85"/><animateTransform attributeName="transform" additive="sum" type="scale" dur="2.083s" keyTimes="0;0.26;0.32;0.36;1" values="1,1;1,1;1,1.036;1,1;1,1"/><animateTransform attributeName="transform" additive="sum" type="translate" dur="2.083s" keyTimes="0;1" values="-10.6,-12.35;-10.6,-12.35"/><path fill="#000" fill-opacity="0.314" d="M3.15,22.65Q1.6,22.65 0.8,21.05 0.7,17.55 0.35,12.6 0.1,7.6 0,5.55 -0.05,6.6 0.35,13.85 0.7,18.8 0.8,22.3 1.6,23.9 3.15,23.9 3.2,23.9 3.3,23.9 3.4,23.9 3.5,23.9 5.45,23.9 5.3,18.75 5.2,22.65 3.5,22.65 3.4,22.65 3.3,22.65 3.2,22.65 3.15,22.65"/><path fill="#000" fill-opacity="0.314" d="M17.55,11.2Q16.65,12.15 13.65,13.25 11.8,13.95 9.15,14.7 8.35,14.3 7.55,13.85 10.45,13 12.55,12.25 16.75,10.7 17.8,9.5 18.6,8.6 18.95,7.2 18.65,9.8 17.55,11.2"/><path fill="#000" fill-opacity="0.314" d="M21.2,22.45Q21.2,24.7 16.9,24.7L16.8,24.7Q16.6,24.7 16.5,24.7 11.55,24.7 5.3,17.65 5.3,17 5.25,16.3 11.55,23.45 16.5,23.45 16.6,23.45 16.8,23.45L16.9,23.45Q20.65,23.45 21.15,21.75 21.2,22.05 21.2,22.45"/><path fill="#404040" d="M21.15,21.75Q21.2,21.5 21.2,21.2 21.2,19.05 18.9,18.45 14.35,17.35 9.15,14.7 8.35,14.3 7.55,13.85 10.45,13 12.55,12.25 16.75,10.7 17.8,9.5 18.6,8.6 18.95,7.2 19.3,5.75 19.15,3.75 18.9,-0.1 12.55,0 12.45,0 12.35,0 10.8,0 9.05,0.2 5.4,0.85 2.5,2.35 0.7,3.4 0,4.3 0,4.6 0,5.55 0.1,7.6 0.35,12.6 0.7,17.55 0.8,21.05 1.6,22.65 3.15,22.65 3.2,22.65 3.3,22.65 3.4,22.65 3.5,22.65 5.2,22.65 5.3,18.75 5.3,18.2 5.3,17.65 5.3,17 5.25,16.3 11.55,23.45 16.5,23.45 16.6,23.45 16.8,23.45L16.9,23.45Q20.65,23.45 21.15,21.75 M11.55,6.05Q10.95,5.65 9.9,5.6 8.1,5.65 5.1,6.6L5,11.6 4.95,11.6 5.1,5.35Q8.1,4.4 9.9,4.35 10.95,4.4 11.55,4.8 12.6,5.1 12.25,6.65 12.05,6.2 11.55,6.05"/><path fill="#404040" d="M12.25,6.65Q12.6,5.1 11.55,4.8 10.95,4.4 9.9,4.35 8.1,4.4 5.1,5.35L4.95,11.6 5,11.6Q11.65,8.7 12.15,6.9 12.2,6.75 12.25,6.65 M11.55,6.05Q10.95,5.65 9.9,5.6 8.1,5.65 5.1,6.6L5,11.6 4.95,11.6 5.1,5.35Q8.1,4.4 9.9,4.35 10.95,4.4 11.55,4.8 12.6,5.1 12.25,6.65 12.05,6.2 11.55,6.05"/><path fill="#000" fill-opacity="0.314" d="M11.55,6.05Q10.95,5.65 9.9,5.6 8.1,5.65 5.1,6.6L5,11.6 4.95,11.6 5.1,5.35Q8.1,4.4 9.9,4.35 10.95,4.4 11.55,4.8 12.6,5.1 12.25,6.65 12.05,6.2 11.55,6.05"/><path fill="#FFF" d="M12.15,6.9Q12.2,6.75 12.25,6.65 12.05,6.2 11.55,6.05 10.95,5.65 9.9,5.6 8.1,5.65 5.1,6.6L5,11.6Q11.65,8.7 12.15,6.9"/></g><g id="e1" transform="matrix(1 0 0 1 64.75 21.15)"><animateTransform attributeName="transform" additive="replace" type="translate" dur="2.083s" keyTimes="0;0.22;0.28;1" values="72.65,74.05;72.65,74.05;72.65,29.05;72.65,29.05"/><animateTransform attributeName="transform" additive="sum" type="scale" dur="2.083s" keyTimes="0;0.22;0.28;0.32;1" values="1,1;1,1;1,1.095;1,1;1,1"/><animateTransform attributeName="transform" additive="sum" type="translate" dur="2.083s" keyTimes="0;1" values="-7.9,-7.9;-7.9,-7.9"/><path fill="#000" fill-opacity="0.318" d="M14.9,11.1Q15.05,11.4 15.05,11.8 15.05,13.1 12.95,14.05 11.05,15 8.35,15 3.95,15 1.85,13.1 2,13.4 2.25,13.65 4.35,15.85 9.1,15.85 11.8,15.85 13.7,14.9 15.8,13.95 15.8,12.65 15.8,12.1 15.45,11.65 15.25,11.25 14.9,11.1"/><path fill="#404040" d="M12.9,3.55Q12.9,2.65 12.5,1.95 11.95,1.1 10.8,0.5 8.95,-0.45 4.9,0.35 2.7,0.75 1.5,2.55 0.55,3.85 0.2,5.95 -0.45,9.9 1,12.15 1.15,12.4 1.4,12.7 1.45,12.75 1.5,12.8 1.65,12.95 1.85,13.1 3.95,15 8.35,15 11.05,15 12.95,14.05 15.05,13.1 15.05,11.8 15.05,11.4 14.9,11.1 14.8,10.95 14.7,10.8 14.2,9.95 13,9.95 12.3,9.95 11.45,10.65 10.7,11.45 8.5,11.45 6.6,11.45 5.7,10.85 5.55,10.75 5.4,10.65 5,10.3 4.5,9.6 9.45,8 11.2,6.7 12.35,5.8 12.75,4.65 12.9,4.15 12.9,3.55"/><path fill="#FFF" d="M5.1,4.6L5.1,4.65Q4.95,5.05 4.8,5.8 5.4,5.6 5.9,5.4 6.2,4.95 7.45,4.7 7.5,4.65 7.55,4.65 8.7,4.05 8.7,3.7L8.65,3.6Q5.5,3.85 5.1,4.6"/><path fill="#737373" d="M8,0.5Q9.55,1.4 10.05,1.6 10.5,1.7 11.2,1.3 11.9,0.85 8,0.5"/><path fill="#000" fill-opacity="0.318" d="M12.5,1.95Q13.65,2.9 13.65,4.4 13.65,4.55 13.65,4.65 13.55,6.35 11.95,7.55 10.2,8.85 5.25,10.45 5.3,10.55 5.4,10.65 5,10.3 4.5,9.6 9.45,8 11.2,6.7 12.35,5.8 12.75,4.65 12.9,4.15 12.9,3.55 12.9,2.65 12.5,1.95"/></g><g id="r" transform="matrix(1 0 0 1 54.25 22.1)"><animateTransform attributeName="transform" additive="replace" type="translate" dur="2.083s" keyTimes="0;0.18;0.24;1" values="59.8,74.7;59.8,74.7;59.8,29.7;59.8,29.7"/><animateTransform attributeName="transform" additive="sum" type="scale" dur="2.083s" keyTimes="0;0.18;0.24;0.28;1" values="1,1;1,1;1,1.138;1,1;1,1"/><animateTransform attributeName="transform" additive="sum" type="translate" dur="2.083s" keyTimes="0;1" values="-5.55,-7.6;-5.55,-7.6"/><path fill="#000" fill-opacity="0.318" d="M10.5,4.85Q11.45,2.4 10.95,1.65 10.7,1.3 10.35,1.1 10.55,1.95 9.75,4 9.45,4.85 7.7,4.8 5.45,4.75 4.6,4.75 4.5,5.9 4.45,6.7 4.45,6.85 4.3,10.65 3.95,14.4 2.65,14.4 2.55,14.4 2.45,14.4 2.35,14.4 2.25,14.4 2,14.4 1.85,14.35 2.25,15.25 3,15.25 3.1,15.25 3.2,15.25 3.3,15.25 3.4,15.25 4.7,15.25 5.05,11.5 5.2,7.7 5.2,7.55 5.25,6.75 5.35,5.6 6.2,5.6 8.45,5.65 10.2,5.7 10.5,4.85"/><path fill="#404040" d="M10.35,1.1Q10.3,0.95 10.2,0.8 9.4,-0.4 6.8,0.2 4.25,0.8 3.7,0.55 3.15,0.3 2.4,0.3 2.3,0.3 2.2,0.3 0.4,0.3 0.1,1.75 -0.1,2.5 0.1,3.35 0.1,3.4 0.4,7.35L0.6,11.35Q0.85,13.9 1.85,14.35 2,14.4 2.25,14.4 2.35,14.4 2.45,14.4 2.55,14.4 2.65,14.4 3.95,14.4 4.3,10.65 4.45,6.85 4.45,6.7 4.5,5.9 4.6,4.75 5.45,4.75 7.7,4.8 9.45,4.85 9.75,4 10.55,1.95 10.35,1.1"/><path fill="#737373" d="M7.05,0.5Q6.4,0.65 5.95,0.75 6.7,0.8 7.3,0.9 8.3,1 9.15,1.2L9.15,1.15Q9.75,-0.2 7.05,0.5"/></g><g id="e" transform="matrix(1 0 0 1 41.85 21.05)"><animateTransform attributeName="transform" additive="replace" type="translate" dur="2.083s" keyTimes="0;0.14;0.2;1" values="47.8,74.35;47.8,74.35;47.8,29.35;47.8,29.35"/><animateTransform attributeName="transform" additive="sum" type="scale" dur="2.083s" keyTimes="0;0.14;0.2;0.24;1" values="1,1;1,1;1,1.06;1,1;1,1"/><animateTransform attributeName="transform" additive="sum" type="translate" dur="2.083s" keyTimes="0;1" values="-5.95,-8.3;-5.95,-8.3"/><path fill="#000" fill-opacity="0.318" d="M9.1,1.75Q9.6,2.6 9.6,3.8 9.6,5.7 8.4,7.05 7.05,8.45 3.35,10.2 3.9,11.1 4.2,11.4 4.3,11.5 4.45,11.6 4.3,11.35 4.1,11.05 7.8,9.3 9.15,7.9 10.35,6.55 10.35,4.65 10.35,2.75 9.1,1.75"/><path fill="#404040" d="M11.2,12.35Q11.2,11.9 11.05,11.45 11.05,11.35 11,11.3 10.65,10.5 9.75,10.5 9.25,10.5 8.65,11.2 8,12 6.4,12 5.1,12 4.45,11.6 4.3,11.5 4.2,11.4 3.9,11.1 3.35,10.2 7.05,8.45 8.4,7.05 9.6,5.7 9.6,3.8 9.6,2.6 9.1,1.75 8.7,1.15 8.1,0.7 6.7,-0.3 4.8,0.15 0,1.35 0,8.2 0,10.15 1,12.2 1.6,13.55 2.55,14.4 4,15.75 6.25,15.75 8.25,15.75 9.75,14.75 11.2,13.75 11.2,12.35"/><path fill="#FFF" d="M6.45,4L6.45,3.85Q4.1,4.1 3.8,4.85 3.65,5.3 3.6,6.15 4.15,5.85 4.65,5.6 4.85,5.25 5.45,5.05 6.45,4.35 6.45,4"/><path fill="#000" fill-opacity="0.318" d="M11.05,11.45Q11.5,11.6 11.75,12.15 11.95,12.7 11.95,13.2 11.95,14.6 10.5,15.6 9,16.6 7,16.6 4.15,16.6 2.55,14.4 4,15.75 6.25,15.75 8.25,15.75 9.75,14.75 11.2,13.75 11.2,12.35 11.2,11.9 11.05,11.45"/></g><g id="h" transform="matrix(1 0 0 1 27.5 12.05)"><animateTransform attributeName="transform" additive="replace" type="translate" dur="2.083s" keyTimes="0;0.1;0.16;1" values="33.95,69.7;33.95,69.7;33.95,24.7;33.95,24.7"/><animateTransform attributeName="transform" additive="sum" type="scale" dur="2.083s" keyTimes="0;0.1;0.16;0.2;1" values="1,1;1,1;1,1.032;1,1;1,1"/><animateTransform attributeName="transform" additive="sum" type="translate" dur="2.083s" keyTimes="0;1" values="-6.45,-12.65;-6.45,-12.65"/><path fill="#000" fill-opacity="0.318" d="M11.85,14.6Q11.7,14.5 11.55,14.4 11.95,15.2 12.1,16.65 12.15,17.35 12.15,19.75 12.15,20 12.15,22.45 11.85,25.1 8.55,24.35 8.65,24.8 8.8,25.05 12.6,26.15 12.9,23.3 12.9,20.85 12.9,20.6 12.9,18.2 12.85,17.5 12.6,15.35 11.85,14.6"/><path fill="#000" fill-opacity="0.318" d="M6.4,17.75Q6.2,18.2 5.9,21.35 5.55,24.5 4.2,24.8 2.85,25.05 2.25,24.9 1.65,24.7 1.2,24.45 0.85,24.2 0.8,23.8 1.1,23.9 1.5,24.05 2.1,24.2 3.45,23.95 4.8,23.65 5.15,20.5 5.45,17.35 5.65,16.9 7,16.6 7.45,17.8 7,17.6 6.4,17.75"/><path fill="#404040" d="M7.35,6.3Q8,2.7 7.35,1.2 7,0.55 6.45,0.3 4.55,-0.55 3.6,1.15 2.65,2.8 2.35,3.9 2.05,5 1.4,10.05 1.2,11.35 1.1,12.55 0.65,15.95 0.35,18.4 -0.05,21.65 0,21.8 0,21.95 0,22.65 0,23.3 0.45,23.6 0.6,23.7 0.8,23.8 1.1,23.9 1.5,24.05 2.1,24.2 3.45,23.95 4.8,23.65 5.15,20.5 5.45,17.35 5.65,16.9 7,16.6 7.45,17.8 7.75,18.55 7.65,19.85 7.45,23.3 8.05,24.2 8.3,24.25 8.55,24.35 11.85,25.1 12.15,22.45 12.15,20 12.15,19.75 12.15,17.35 12.1,16.65 11.95,15.2 11.55,14.4 11.35,14 11.1,13.75 9.45,12.45 7,12.5 6.5,12.5 6,12.55 6.4,11.45 7.35,6.3"/><path fill="#737373" d="M11.05,14.85Q10.8,13.8 10.2,13.55 7.9,12.6 8.95,13.6 9.95,14.55 11.05,14.85"/><path fill="#000" fill-opacity="0.318" d="M7.35,1.2Q9,2.15 8.1,7.15 7.4,10.9 7,12.5 6.5,12.5 6,12.55 6.4,11.45 7.35,6.3 8,2.7 7.35,1.2"/></g><g id="w" transform="matrix(1 0 0 1 0 0)"><animateTransform attributeName="transform" additive="replace" type="translate" dur="2.083s" keyTimes="0;0.06;0.12;1" values="13.25,62.85;13.25,62.85;13.25,17.85;13.25,17.85"/><animateTransform attributeName="transform" additive="sum" type="scale" dur="2.083s" keyTimes="0;0.06;0.12;0.16;1" values="1,1;1,1;1,1.034;1,1;1,1"/><animateTransform attributeName="transform" additive="sum" type="translate" dur="2.083s" keyTimes="0;1" values="-13.25,-17.85;-13.25,-17.85"/><path fill="#000" fill-opacity="0.318" d="M10.775,32.225Q10.579,31.45 10.45,30.85 10,31.5 8.35,33.2 6.7,34.85 5.35,34.85 4.05,34.85 4.2,34.8L4.4,34.8Q3.204,34.76 2.35,34.025 3.381,35.591 5.15,35.65L4.95,35.65Q4.8,35.7 6.1,35.7 7.45,35.7 9.1,34.05 10.214,32.903 10.775,32.225"/><path fill="#000" fill-opacity="0.318" d="M14.575,20.175Q15.541,20.5 15.9,23.55 16.1,25.254 16.275,26.475 16.038,27.054 15.8,27.6 15.55,26.1 15.15,22.7 14.954,21.036 14.575,20.175"/><path fill="#000" fill-opacity="0.318" d="M8.05,2Q8.45,2.65 8.45,3.4 8.45,3.45 7.35,13.3 6.3,23.4 6.3,24.95 6.3,25.763 6.325,26.45L5.7,27.4Q5.55,26.2 5.55,24.1 5.55,22.55 6.6,12.45 7.7,2.6 7.7,2.55 7.7,1.851 7.35,1.25 7.787,1.518 8.05,2"/><path fill="#000" fill-opacity="0.318" d="M26.45,10.65Q26.3,12.3 25.7,15.8 25.4,17.25 25.1,18.85 25.1,19.15 25,19.55 22,35.65 17.2,35.65 16.8,35.65 16.45,35.65 16.25,35.65 16.05,35.65 13.058,35.65 11.825,33.75 13.08,34.8 15.3,34.8 15.5,34.8 15.7,34.8 16.05,34.8 16.45,34.8 21.25,34.8 24.25,18.7 24.35,18.3 24.35,18 24.65,16.4 24.95,14.95 25.55,11.45 25.7,9.8 25.75,9.3 25.8,8.05L25.75,8.85Q25.8,7.65 25.8,6.65 25.8,4.237 25.125,3.025 26.55,3.987 26.55,7.5 26.55,8.5 26.5,9.7L26.55,8.9Q26.5,10.15 26.45,10.65"/><path fill="#404040" d="M24.05,2Q22.15,1.25 20.4,3.1 20.4,2.9 20.2,3.75 19.5,12.45 18.55,18.4 17.647,22.958 16.275,26.475 16.038,27.054 15.8,27.6 15.55,26.1 15.15,22.7 14.954,21.036 14.575,20.175 14.187,19.3 13.6,19.3 12.45,19.3 11.75,19.5 10.6,19.9 8.1,23.7L6.325,26.45 5.7,27.4Q5.55,26.2 5.55,24.1 5.55,22.55 6.6,12.45 7.7,2.6 7.7,2.55 7.7,1.851 7.35,1.25 7.327,1.194 7.3,1.15 6.7,0.05 5.2,0L5.1,0Q4.3,0 3.9,0 1.65,0 0.6,11.65 0,18.25 0,24.3 0,28.25 0.5,30.3 1.041,32.946 2.35,34.025 3.204,34.76 4.4,34.8L4.2,34.8Q4.05,34.85 5.35,34.85 6.7,34.85 8.35,33.2 10,31.5 10.45,30.85 10.579,31.45 10.775,32.225 10.814,32.364 10.85,32.5 11.227,33.253 11.825,33.75 13.08,34.8 15.3,34.8 15.5,34.8 15.7,34.8 16.05,34.8 16.45,34.8 21.25,34.8 24.25,18.7 24.35,18.3 24.35,18 24.65,16.4 24.95,14.95 25.55,11.45 25.7,9.8 25.75,9.3 25.8,8.05L25.75,8.85Q25.8,7.65 25.8,6.65 25.8,4.237 25.125,3.025 24.717,2.286 24.05,2"/><path fill="#737373" d="M24.05,2.95Q23.7,2.75 23.2,2.85 23.1,2.9 23,2.95 22.65,3.25 22.8,4.2 23,5.3 23.35,7.95 23.75,10.75 24.15,10.8 24.6,10.8 24.75,10.35 24.85,9.85 25.05,8.85 25.25,7.85 25.1,6 24.9,4.1 24.5,3.4 24.3,3.1 24.05,2.95"/><path fill="#737373" d="M6.65,2.15Q6.65,1.25 5.75,1.25 4.85,1.3 4.75,1.85L4.75,3.35Q4.4,9 4.75,9.5 5.1,9.85 5.3,9.95 5.5,10 6,8 6.4,5.95 6.5,3.85 6.5,3.35 6.55,2.95 6.6,2.45 6.65,2.15"/><path fill="#737373" d="M12.5,20.55L12.5,21Q12.6,21.6 13.25,21.6 14.1,21.6 14.1,20.6 14.1,19.7 13.3,19.6 12.5,19.5 12.5,20.55"/></g></g></g><mask id="mask_"><path fill="#FFF" d="M70.25,-70.8L-104.15,-67.2 -97.95,33.6 -84.15,40.4Q-94.489,42.284 -94.75,78 -93.731,92.769 -83.75,94.8 -80.481,96.038 -64.3,95.8L48.25,94.8Q61.628,92.595 64.4,77 67.165,61.407 55.65,54.2L70.25,45.2 70.25,-70.8" fill-opacity="1"/></mask></g></g></svg>