<?xml version="1.0" encoding="utf-8"?><svg id="Symbol_63_l1" image-rendering="auto" baseProfile="basic" version="1.1" x="0px" y="0px" width="1020" height="300" overflow="visible" xmlns="http://www.w3.org/2000/svg" xmlns:xlink="http://www.w3.org/1999/xlink"><g id="Symbol_15_l1" transform="matrix(3.865 0 0 3.865 23.7 4.75)"><g><path fill="none" stroke="#000" stroke-opacity="0.251" stroke-width="2" stroke-linecap="round" stroke-linejoin="round" d="M250.4,46.3Q250.2,45.7 249.85,45.15 248.6,43.15 244.95,41.4 249.8,39.1 251,32.85 252.15,26.55 249.4,22.25 246.6,18 243.65,16.75 241.15,15.7 238.25,15.8 238,12.95 236.9,10.65 231.8,0 208.95,0 197,0 187.55,4.7 184.8,6.1 182.5,7.75 177.9,10.15 176,13.45 175.05,15 174.65,15.9 174.5,16.2 174.45,16.45 162.8,12.5 156.15,14.9 154.75,15.35 151.85,16.75 148.9,18.15 146.15,14.45 143.4,10.75 136.75,6.65 130.1,2.55 124.65,2 119.15,1.45 115.05,1.7 110.95,1.9 108.5,2.05 106,2.2 102.8,3.2 99.6,4.2 95.5,6.4 93.8,7.3 93.2,7.85 91.85,4.95 88.5,3.1 84.7,0.95 76.35,1.05 68,1.15 56,3.9 44,6.6 41,9.3 40.9,9.4 40.8,9.45L40.75,9.45Q33.2,7.55 23.9,9.9 14.2,12.35 8,18.25 3.05,22.85 1.55,28.65 0.9,31.2 0.55,33.35 0.2,35.5 0.05,37.6 -0.1,39.65 0.3,43.8 0.65,47.95 1.95,55.1 3.25,62.2 8.85,66.2 14.4,70.2 22.25,71.15 30.05,72.05 36.75,70.65 38.5,70.3 39.5,69.9 42.35,75.05 54.2,75.2 68.6,75.45 74.95,74.9L111.95,74.9Q155.1,77.6 164.7,65.65 166.85,68 169.6,69.75 170.15,70.1 170.75,70.45 176.25,73.5 184.05,74.35 196.7,75.7 207.7,74.65 218.65,73.6 224.1,69.2 231.25,74.3 240.65,71 241.05,70.85 241.4,70.7 241.75,70.55 242.15,70.35 245.4,68.65 247.15,65.3 248.15,63.8 248.9,62.05 251.05,56.9 251.05,53 251.05,48.1 250.4,46.3"/><animate attributeName="display" repeatCount="1" dur="2.4s" keyTimes="0;0.3;1" values="none;inline;none"/></g><g style="display:none;"><path fill="none" stroke="#000" stroke-opacity="0.251" stroke-width="2" stroke-linecap="round" stroke-linejoin="round" d="M232.45,46.3Q232.25,45.7 231.9,45.15 230.65,43.15 226.95,41.4 231.85,39.1 233.05,32.85 234.2,26.55 231.45,22.25 228.6,18 225.65,16.75 223.15,15.7 220.2,15.8 219.95,12.95 218.85,10.65 213.75,0 190.75,0 178.75,0 169.25,4.7 166.45,6.1 164.15,7.75 159.5,10.15 157.6,13.45 157.243,14.033 156.975,14.525 153.709,14.395 151.25,15.4 150.05,15.85 147.55,17.2 144.95,18.6 142.6,14.95 140.2,11.35 134.45,7.3 128.7,3.25 124,2.75 119.2,2.2 115.65,2.45 112.1,2.65 110,2.8 107.85,2.95 105.05,3.9 102.3,4.9 98.75,7.05 97.25,7.95 96.75,8.5 95.6,5.65 92.7,3.8 89.4,1.7 82.15,1.8 74.95,1.9 64.55,4.6 54.15,7.25 51.55,9.9 51.45,10 51.4,10.05L51.35,10.05Q44.8,8.2 36.75,10.5 28.35,12.9 23,18.7 18.7,23.2 17.4,28.9 16.85,31.4 16.55,33.5 16.2,35.65 16.1,37.7 15.95,39.7 16.3,43.8 16.6,47.85 17.75,54.9 18.85,61.85 23.7,65.8 28.5,69.7 35.3,70.65 42.05,71.55 47.85,70.15 49.4,69.8 50.25,69.4 52.7,74.45 63,74.6 75.45,74.85 80.95,74.3L113,74.3Q140.554,76.292 152.3,70.425 152.324,70.435 152.35,70.45 157.85,73.5 165.7,74.35 178.45,75.7 189.5,74.65 200.5,73.6 206,69.2 213.2,74.3 222.65,71 223.05,70.85 223.4,70.7 223.75,70.55 224.15,70.35 227.4,68.65 229.2,65.3 230.2,63.8 230.95,62.05 233.1,56.9 233.1,53 233.1,48.1 232.45,46.3"/><animate attributeName="display" repeatCount="1" dur="2.4s" keyTimes="0;0.283;0.3;1" values="none;inline;none;none"/></g><g style="display:none;"><path fill="none" stroke="#000" stroke-opacity="0.251" stroke-width="2" stroke-linecap="round" stroke-linejoin="round" d="M214.5,46.3Q214.3,45.7 213.95,45.15 212.65,43.15 209,41.4 213.9,39.1 215.1,32.85 216.25,26.55 213.5,22.25 210.65,18 207.65,16.75 205.15,15.7 202.2,15.8 201.95,12.95 200.85,10.65 195.65,0 172.55,0 160.45,0 150.9,4.7 148.15,6.1 145.8,7.75 141.15,10.15 139.2,13.45 138.838,14.04 138.55,14.525 136.492,11.35 132.15,7.85 127.3,3.9 123.3,3.35 119.3,2.85 116.3,3.1 113.3,3.25 111.5,3.4 109.65,3.55 107.3,4.5 105,5.5 102,7.6 100.75,8.5 100.3,9 99.3,6.2 96.85,4.45 94.1,2.35 87.95,2.45 81.85,2.55 73.1,5.2 64.3,7.8 62.1,10.4 62.05,10.5 61.95,10.55L61.9,10.55Q56.4,8.7 49.6,11 42.5,13.35 37.95,19.05 34.35,23.45 33.25,29.05 32.75,31.5 32.5,33.6 32.25,35.65 32.15,37.7 32.05,39.65 32.3,43.65 32.6,47.65 33.55,54.55 34.5,61.4 38.6,65.25 42.65,69.1 48.4,70.05 54.1,70.9 59,69.55 60.25,69.2 61,68.85 63.1,73.8 71.75,73.95 82.3,74.2 86.95,73.65L114,73.65Q129.737,74.945 139.375,72.75 143.019,73.881 147.35,74.35 160.15,75.7 171.3,74.65 182.35,73.6 187.9,69.2 195.1,74.3 204.65,71 205.05,70.85 205.4,70.7 205.75,70.55 206.15,70.35 209.45,68.65 211.2,65.3 212.2,63.8 212.95,62.05 215.15,56.9 215.15,53 215.15,48.1 214.5,46.3"/><animate attributeName="display" repeatCount="1" dur="2.4s" keyTimes="0;0.267;0.283;1" values="none;inline;none;none"/></g><g style="display:none;"><path fill="none" stroke="#000" stroke-opacity="0.251" stroke-width="2" stroke-linecap="round" stroke-linejoin="round" d="M196.55,46.3Q196.35,45.7 196,45.15 194.7,43.15 191,41.4 195.9,39.1 197.15,32.85 198.3,26.55 195.5,22.25 192.65,18 189.65,16.75 187.1,15.7 184.15,15.8 183.9,12.95 182.8,10.65 177.6,0 154.35,0 142.2,0 132.6,4.7 130.374,5.813 128.425,7.075 125.279,4.362 122.6,3.95 119.3,3.45 116.85,3.65 114.4,3.85 112.95,4 111.45,4.15 109.55,5.1 107.6,6.05 105.15,8.1 104.15,8.95 103.8,9.5 103,6.75 101,5 98.7,2.95 93.7,3.05 88.75,3.15 81.55,5.75 74.4,8.3 72.6,10.85 72.55,10.95 72.5,11L72.45,11Q67.95,9.2 62.4,11.4 56.6,13.75 52.9,19.3 49.9,23.7 49.05,29.15 48.65,31.6 48.45,33.6 48.2,35.65 48.15,37.65 48.05,39.55 48.3,43.5 48.5,47.45 49.25,54.2 50.05,60.9 53.4,64.7 56.7,68.5 61.4,69.4 66.05,70.25 70.05,68.9 71.1,68.55 71.7,68.2 73.4,73.05 80.5,73.2 89.1,73.45 92.9,72.9L115,72.9Q119.465,73.35 123.325,73.375 126.019,74.026 129.05,74.35 141.9,75.7 153.1,74.65 164.25,73.6 169.8,69.2 177.05,74.3 186.6,71 187,70.85 187.4,70.7 187.75,70.55 188.15,70.35 191.45,68.65 193.25,65.3 194.25,63.8 195,62.05 197.2,56.9 197.2,53 197.2,48.1 196.55,46.3"/><animate attributeName="display" repeatCount="1" dur="2.4s" keyTimes="0;0.25;0.267;1" values="none;inline;none;none"/></g><g style="display:none;"><path fill="none" stroke="#000" stroke-opacity="0.251" stroke-width="2" stroke-linecap="round" stroke-linejoin="round" d="M178.6,46.3Q178.35,45.7 178,45.15 176.75,43.15 173,41.4 177.95,39.1 179.2,32.85 180.35,26.55 177.55,22.25 174.7,18 171.65,16.75 169.1,15.7 166.15,15.8 165.9,12.95 164.75,10.65 159.55,0 136.15,0 123.95,0 114.25,4.7L114.2,4.725Q113.084,4.876 111.75,5.75 110.811,6.313 109.725,7.325 109.404,7.537 109.1,7.75 107.964,8.33 107,8.975 106.325,6.994 105.1,5.65 103.35,3.65 99.5,3.75 95.6,3.85 90.05,6.4 84.5,8.9 83.1,11.4 83.05,11.5 83,11.55 79.5,9.8 75.2,11.95 70.7,14.25 67.8,19.7 65.5,24 64.8,29.35 64.5,31.75 64.35,33.75 64.2,35.75 64.1,37.7 64.05,39.6 64.25,43.45 64.4,47.3 65,53.9 65.6,60.5 68.2,64.2 70.75,67.95 74.4,68.8 78,69.65 81.15,68.35 81.95,68.05 82.4,67.65 83.7,72.45 89.2,72.6 95.9,72.8 98.85,72.3L101.275,72.3Q105.473,73.795 110.7,74.35 123.65,75.7 134.9,74.65 146.1,73.6 151.65,69.2 159,74.3 168.6,71 169,70.85 169.35,70.7 169.75,70.55 170.15,70.35 173.45,68.65 175.25,65.3 176.3,63.8 177.05,62.05 179.25,56.9 179.25,53 179.25,48.1 178.6,46.3"/><animate attributeName="display" repeatCount="1" dur="2.4s" keyTimes="0;0.233;0.25;1" values="none;inline;none;none"/></g><g style="display:none;"><path fill="none" stroke="#000" stroke-opacity="0.251" stroke-width="2" stroke-linecap="round" stroke-linejoin="round" d="M160.6,46.3Q160.4,45.7 160.05,45.15 158.75,43.15 155,41.4 160,39.1 161.25,32.85 162.4,26.55 159.6,22.25 156.7,18 153.7,16.75 151.1,15.7 148.1,15.8 147.85,12.95 146.75,10.65 141.5,0 117.95,0 105.65,0 95.95,4.7 93.1,6.1 90.75,7.75 86,10.15 84.05,13.45 83.1,15 82.65,15.9 82.5,16.2 82.45,16.45 75.55,32.45 73.1,57.4 72.45,66.35 77.5,69.75 78.05,70.1 78.65,70.45 84.3,73.5 92.35,74.35 105.35,75.7 116.7,74.65 127.95,73.6 133.55,69.2 140.9,74.3 150.6,71 151,70.85 151.35,70.7 151.7,70.55 152.15,70.35 155.5,68.65 157.3,65.3 158.3,63.8 159.1,62.05 161.3,56.9 161.3,53 161.3,48.1 160.6,46.3"/><animate attributeName="display" repeatCount="1" dur="2.4s" keyTimes="0;0.2;0.217;0.217;0.233;1" values="none;inline;none;inline;none;none"/></g><g style="display:none;"><path fill="none" stroke="#000" stroke-opacity="0.251" stroke-width="2" stroke-linecap="round" stroke-linejoin="round" d="M161.15,46.3Q160.95,45.7 160.55,45.15 159.25,43.15 155.45,41.4 160.5,39.1 161.75,32.85 162.95,26.55 160.1,22.25 157.2,18 154.1,16.75 151.5,15.7 148.5,15.8 148.25,12.95 147.1,10.65 141.8,0 118,0 105.55,0 95.7,4.7 92.85,6.1 90.45,7.75 85.65,10.15 83.7,13.45 82.7,15 82.3,15.9 82.15,16.2 82.1,16.45 75.1,32.45 72.6,57.4 71.95,66.35 77.05,69.75 77.6,70.1 78.25,70.45 83.95,73.5 92.05,74.35 105.25,75.7 116.7,74.65 128.1,73.6 133.75,69.2 141.2,74.3 151,71 151.4,70.85 151.8,70.7 152.15,70.55 152.55,70.35 155.95,68.65 157.75,65.3 158.8,63.8 159.6,62.05 161.8,56.9 161.8,53 161.8,48.1 161.15,46.3"/><animate attributeName="display" repeatCount="1" dur="2.4s" keyTimes="0;0.183;0.2;1" values="none;inline;none;none"/></g><g style="display:none;"><path fill="none" stroke="#000" stroke-opacity="0.251" stroke-width="2" stroke-linecap="round" stroke-linejoin="round" d="M161.6,46.3Q161.4,45.7 161.05,45.15 159.7,43.15 155.9,41.4 161,39.1 162.25,32.85 163.45,26.55 160.55,22.25 157.6,18 154.5,16.75 151.9,15.7 148.8,15.8 148.55,12.95 147.4,10.65 142.05,0 117.95,0 105.4,0 95.45,4.7 92.55,6.1 90.1,7.75 85.25,10.15 83.25,13.45 82.25,15 81.85,15.9 81.7,16.2 81.65,16.45 74.6,32.45 72.05,57.4 71.35,66.35 76.55,69.75 77.1,70.1 77.75,70.45 83.55,73.5 91.75,74.35 105.05,75.7 116.65,74.65 128.2,73.6 133.9,69.2 141.45,74.3 151.35,71 151.75,70.85 152.15,70.7 152.5,70.55 152.95,70.35 156.35,68.65 158.2,65.3 159.25,63.8 160.05,62.05 162.3,56.9 162.3,53 162.3,48.1 161.6,46.3"/><animate attributeName="display" repeatCount="1" dur="2.4s" keyTimes="0;0.167;0.183;1" values="none;inline;none;none"/></g><g style="display:none;"><path fill="none" stroke="#000" stroke-opacity="0.251" stroke-width="2" stroke-linecap="round" stroke-linejoin="round" d="M162.85,53Q162.85,48.1 162.15,46.3 161.95,45.7 161.55,45.15 160.2,43.15 156.35,41.4 161.5,39.1 162.8,32.85 164,26.55 161.05,22.25 158.1,18 154.95,16.75 152.3,15.7 149.2,15.8 148.95,12.95 147.75,10.65 142.35,0 118,0 105.25,0 95.2,4.7 92.25,6.1 89.8,7.75 84.9,10.15 82.9,13.45 81.9,15 81.45,15.9 81.3,16.2 81.25,16.45 74.1,32.45 71.55,57.4 70.85,66.35 76.1,69.75 76.65,70.1 77.3,70.45 83.15,73.5 91.45,74.35 104.95,75.7 116.65,74.65 128.3,73.6 134.15,69.2 141.75,74.3 151.75,71 152.2,70.85 152.55,70.7 152.95,70.55 153.35,70.35 156.8,68.65 158.7,65.3 159.75,63.8 160.55,62.05 162.85,56.9 162.85,53"/><animate attributeName="display" repeatCount="1" dur="2.4s" keyTimes="0;0.15;0.167;1" values="none;inline;none;none"/></g><g style="display:none;"><path fill="none" stroke="#000" stroke-opacity="0.251" stroke-width="2" stroke-linecap="round" stroke-linejoin="round" d="M160.75,46.3Q160.55,45.7 160.2,45.15 158.9,43.15 155.15,41.4 160.15,39.1 161.4,32.85 162.6,26.55 159.75,22.25 156.85,18 153.8,16.75 151.2,15.7 148.2,15.8 147.95,12.95 146.85,10.65 141.55,0 117.95,0 105.65,0 95.9,4.7 93.05,6.1 90.65,7.75 85.9,10.15 83.95,13.45 82.95,15 82.55,15.9 82.4,16.2 82.35,16.45 75.45,32.45 72.95,57.4 72.3,66.35 77.35,69.75 77.9,70.1 78.55,70.45 84.2,73.5 92.25,74.35 105.3,75.7 116.7,74.65 128,73.6 133.6,69.2 141,74.3 150.7,71 151.1,70.85 151.5,70.7 151.85,70.55 152.25,70.35 155.6,68.65 157.4,65.3 158.45,63.8 159.2,62.05 161.45,56.9 161.45,53 161.45,48.1 160.75,46.3"/><animate attributeName="display" repeatCount="1" dur="2.4s" keyTimes="0;0.133;0.15;1" values="none;inline;none;none"/></g><g style="display:none;"><path fill="none" stroke="#000" stroke-opacity="0.251" stroke-width="2" stroke-linecap="round" stroke-linejoin="round" d="M159.4,46.3Q159.2,45.7 158.85,45.15 157.6,43.15 153.95,41.4 158.8,39.1 160,32.85 161.15,26.55 158.4,22.25 155.6,18 152.65,16.75 150.15,15.7 147.25,15.8 147,12.95 145.9,10.65 140.8,0 117.95,0 106,0 96.55,4.7 93.8,6.1 91.5,7.75 86.9,10.15 85,13.45 84.05,15 83.65,15.9 83.5,16.2 83.45,16.45 76.75,32.45 74.35,57.4 73.7,66.35 78.6,69.75 79.15,70.1 79.75,70.45 85.25,73.5 93.05,74.35 105.7,75.7 116.7,74.65 127.65,73.6 133.1,69.2 140.25,74.3 149.65,71 150.05,70.85 150.4,70.7 150.75,70.55 151.15,70.35 154.4,68.65 156.15,65.3 157.15,63.8 157.9,62.05 160.05,56.9 160.05,53 160.05,48.1 159.4,46.3"/><animate attributeName="display" repeatCount="1" dur="2.4s" keyTimes="0;0.117;0.117;0.133;1" values="inline;none;inline;none;none"/></g><g><path fill="#FFF" d="M250.4,46.3Q250.2,45.7 249.85,45.15 248.6,43.15 244.95,41.4 249.8,39.1 251,32.85 252.15,26.55 249.4,22.25 246.6,18 243.65,16.75 241.15,15.7 238.25,15.8 238,12.95 236.9,10.65 231.8,0 208.95,0 197,0 187.55,4.7 184.8,6.1 182.5,7.75 177.9,10.15 176,13.45 175.05,15 174.65,15.9 174.5,16.2 174.45,16.45 162.8,12.5 156.15,14.9 154.75,15.35 151.85,16.75 148.9,18.15 146.15,14.45 143.4,10.75 136.75,6.65 130.1,2.55 124.65,2 119.15,1.45 115.05,1.7 110.95,1.9 108.5,2.05 106,2.2 102.8,3.2 99.6,4.2 95.5,6.4 93.8,7.3 93.2,7.85 91.85,4.95 88.5,3.1 84.7,0.95 76.35,1.05 68,1.15 56,3.9 44,6.6 41,9.3 40.9,9.4 40.8,9.45L40.75,9.45Q33.2,7.55 23.9,9.9 14.2,12.35 8,18.25 3.05,22.85 1.55,28.65 0.9,31.2 0.55,33.35 0.2,35.5 0.05,37.6 -0.1,39.65 0.3,43.8 0.65,47.95 1.95,55.1 3.25,62.2 8.85,66.2 14.4,70.2 22.25,71.15 30.05,72.05 36.75,70.65 38.5,70.3 39.5,69.9 42.35,75.05 54.2,75.2 68.6,75.45 74.95,74.9L111.95,74.9Q155.1,77.6 164.7,65.65 166.85,68 169.6,69.75 170.15,70.1 170.75,70.45 176.25,73.5 184.05,74.35 196.7,75.7 207.7,74.65 218.65,73.6 224.1,69.2 231.25,74.3 240.65,71 241.05,70.85 241.4,70.7 241.75,70.55 242.15,70.35 245.4,68.65 247.15,65.3 248.15,63.8 248.9,62.05 251.05,56.9 251.05,53 251.05,48.1 250.4,46.3"/><animate attributeName="display" repeatCount="1" dur="2.4s" keyTimes="0;0.3;1" values="none;inline;none"/></g><g style="display:none;"><path fill="#FFF" d="M232.45,46.3Q232.25,45.7 231.9,45.15 230.65,43.15 226.95,41.4 231.85,39.1 233.05,32.85 234.2,26.55 231.45,22.25 228.6,18 225.65,16.75 223.15,15.7 220.2,15.8 219.95,12.95 218.85,10.65 213.75,0 190.75,0 178.75,0 169.25,4.7 166.45,6.1 164.15,7.75 159.5,10.15 157.6,13.45 157.243,14.033 156.975,14.525 153.709,14.395 151.25,15.4 150.05,15.85 147.55,17.2 144.95,18.6 142.6,14.95 140.2,11.35 134.45,7.3 128.7,3.25 124,2.75 119.2,2.2 115.65,2.45 112.1,2.65 110,2.8 107.85,2.95 105.05,3.9 102.3,4.9 98.75,7.05 97.25,7.95 96.75,8.5 95.6,5.65 92.7,3.8 89.4,1.7 82.15,1.8 74.95,1.9 64.55,4.6 54.15,7.25 51.55,9.9 51.45,10 51.4,10.05L51.35,10.05Q44.8,8.2 36.75,10.5 28.35,12.9 23,18.7 18.7,23.2 17.4,28.9 16.85,31.4 16.55,33.5 16.2,35.65 16.1,37.7 15.95,39.7 16.3,43.8 16.6,47.85 17.75,54.9 18.85,61.85 23.7,65.8 28.5,69.7 35.3,70.65 42.05,71.55 47.85,70.15 49.4,69.8 50.25,69.4 52.7,74.45 63,74.6 75.45,74.85 80.95,74.3L113,74.3Q140.554,76.292 152.3,70.425 152.324,70.435 152.35,70.45 157.85,73.5 165.7,74.35 178.45,75.7 189.5,74.65 200.5,73.6 206,69.2 213.2,74.3 222.65,71 223.05,70.85 223.4,70.7 223.75,70.55 224.15,70.35 227.4,68.65 229.2,65.3 230.2,63.8 230.95,62.05 233.1,56.9 233.1,53 233.1,48.1 232.45,46.3"/><animate attributeName="display" repeatCount="1" dur="2.4s" keyTimes="0;0.283;0.3;1" values="none;inline;none;none"/></g><g style="display:none;"><path fill="#FFF" d="M214.5,46.3Q214.3,45.7 213.95,45.15 212.65,43.15 209,41.4 213.9,39.1 215.1,32.85 216.25,26.55 213.5,22.25 210.65,18 207.65,16.75 205.15,15.7 202.2,15.8 201.95,12.95 200.85,10.65 195.65,0 172.55,0 160.45,0 150.9,4.7 148.15,6.1 145.8,7.75 141.15,10.15 139.2,13.45 138.838,14.04 138.55,14.525 136.492,11.35 132.15,7.85 127.3,3.9 123.3,3.35 119.3,2.85 116.3,3.1 113.3,3.25 111.5,3.4 109.65,3.55 107.3,4.5 105,5.5 102,7.6 100.75,8.5 100.3,9 99.3,6.2 96.85,4.45 94.1,2.35 87.95,2.45 81.85,2.55 73.1,5.2 64.3,7.8 62.1,10.4 62.05,10.5 61.95,10.55L61.9,10.55Q56.4,8.7 49.6,11 42.5,13.35 37.95,19.05 34.35,23.45 33.25,29.05 32.75,31.5 32.5,33.6 32.25,35.65 32.15,37.7 32.05,39.65 32.3,43.65 32.6,47.65 33.55,54.55 34.5,61.4 38.6,65.25 42.65,69.1 48.4,70.05 54.1,70.9 59,69.55 60.25,69.2 61,68.85 63.1,73.8 71.75,73.95 82.3,74.2 86.95,73.65L114,73.65Q129.737,74.945 139.375,72.75 143.019,73.881 147.35,74.35 160.15,75.7 171.3,74.65 182.35,73.6 187.9,69.2 195.1,74.3 204.65,71 205.05,70.85 205.4,70.7 205.75,70.55 206.15,70.35 209.45,68.65 211.2,65.3 212.2,63.8 212.95,62.05 215.15,56.9 215.15,53 215.15,48.1 214.5,46.3"/><animate attributeName="display" repeatCount="1" dur="2.4s" keyTimes="0;0.267;0.283;1" values="none;inline;none;none"/></g><g style="display:none;"><path fill="#FFF" d="M196.55,46.3Q196.35,45.7 196,45.15 194.7,43.15 191,41.4 195.9,39.1 197.15,32.85 198.3,26.55 195.5,22.25 192.65,18 189.65,16.75 187.1,15.7 184.15,15.8 183.9,12.95 182.8,10.65 177.6,0 154.35,0 142.2,0 132.6,4.7 130.374,5.813 128.425,7.075 125.279,4.362 122.6,3.95 119.3,3.45 116.85,3.65 114.4,3.85 112.95,4 111.45,4.15 109.55,5.1 107.6,6.05 105.15,8.1 104.15,8.95 103.8,9.5 103,6.75 101,5 98.7,2.95 93.7,3.05 88.75,3.15 81.55,5.75 74.4,8.3 72.6,10.85 72.55,10.95 72.5,11L72.45,11Q67.95,9.2 62.4,11.4 56.6,13.75 52.9,19.3 49.9,23.7 49.05,29.15 48.65,31.6 48.45,33.6 48.2,35.65 48.15,37.65 48.05,39.55 48.3,43.5 48.5,47.45 49.25,54.2 50.05,60.9 53.4,64.7 56.7,68.5 61.4,69.4 66.05,70.25 70.05,68.9 71.1,68.55 71.7,68.2 73.4,73.05 80.5,73.2 89.1,73.45 92.9,72.9L115,72.9Q119.465,73.35 123.325,73.375 126.019,74.026 129.05,74.35 141.9,75.7 153.1,74.65 164.25,73.6 169.8,69.2 177.05,74.3 186.6,71 187,70.85 187.4,70.7 187.75,70.55 188.15,70.35 191.45,68.65 193.25,65.3 194.25,63.8 195,62.05 197.2,56.9 197.2,53 197.2,48.1 196.55,46.3"/><animate attributeName="display" repeatCount="1" dur="2.4s" keyTimes="0;0.25;0.267;1" values="none;inline;none;none"/></g><g style="display:none;"><path fill="#FFF" d="M178.6,46.3Q178.35,45.7 178,45.15 176.75,43.15 173,41.4 177.95,39.1 179.2,32.85 180.35,26.55 177.55,22.25 174.7,18 171.65,16.75 169.1,15.7 166.15,15.8 165.9,12.95 164.75,10.65 159.55,0 136.15,0 123.95,0 114.25,4.7L114.2,4.725Q113.084,4.876 111.75,5.75 110.811,6.313 109.725,7.325 109.404,7.537 109.1,7.75 107.964,8.33 107,8.975 106.325,6.994 105.1,5.65 103.35,3.65 99.5,3.75 95.6,3.85 90.05,6.4 84.5,8.9 83.1,11.4 83.05,11.5 83,11.55 79.5,9.8 75.2,11.95 70.7,14.25 67.8,19.7 65.5,24 64.8,29.35 64.5,31.75 64.35,33.75 64.2,35.75 64.1,37.7 64.05,39.6 64.25,43.45 64.4,47.3 65,53.9 65.6,60.5 68.2,64.2 70.75,67.95 74.4,68.8 78,69.65 81.15,68.35 81.95,68.05 82.4,67.65 83.7,72.45 89.2,72.6 95.9,72.8 98.85,72.3L101.275,72.3Q105.473,73.795 110.7,74.35 123.65,75.7 134.9,74.65 146.1,73.6 151.65,69.2 159,74.3 168.6,71 169,70.85 169.35,70.7 169.75,70.55 170.15,70.35 173.45,68.65 175.25,65.3 176.3,63.8 177.05,62.05 179.25,56.9 179.25,53 179.25,48.1 178.6,46.3"/><animate attributeName="display" repeatCount="1" dur="2.4s" keyTimes="0;0.233;0.25;1" values="none;inline;none;none"/></g><g style="display:none;"><path fill="#FFF" d="M160.6,46.3Q160.4,45.7 160.05,45.15 158.75,43.15 155,41.4 160,39.1 161.25,32.85 162.4,26.55 159.6,22.25 156.7,18 153.7,16.75 151.1,15.7 148.1,15.8 147.85,12.95 146.75,10.65 141.5,0 117.95,0 105.65,0 95.95,4.7 93.1,6.1 90.75,7.75 86,10.15 84.05,13.45 83.1,15 82.65,15.9 82.5,16.2 82.45,16.45 75.55,32.45 73.1,57.4 72.45,66.35 77.5,69.75 78.05,70.1 78.65,70.45 84.3,73.5 92.35,74.35 105.35,75.7 116.7,74.65 127.95,73.6 133.55,69.2 140.9,74.3 150.6,71 151,70.85 151.35,70.7 151.7,70.55 152.15,70.35 155.5,68.65 157.3,65.3 158.3,63.8 159.1,62.05 161.3,56.9 161.3,53 161.3,48.1 160.6,46.3"/><animate attributeName="display" repeatCount="1" dur="2.4s" keyTimes="0;0.2;0.217;0.217;0.233;1" values="none;inline;none;inline;none;none"/></g><g style="display:none;"><path fill="#FFF" d="M161.15,46.3Q160.95,45.7 160.55,45.15 159.25,43.15 155.45,41.4 160.5,39.1 161.75,32.85 162.95,26.55 160.1,22.25 157.2,18 154.1,16.75 151.5,15.7 148.5,15.8 148.25,12.95 147.1,10.65 141.8,0 118,0 105.55,0 95.7,4.7 92.85,6.1 90.45,7.75 85.65,10.15 83.7,13.45 82.7,15 82.3,15.9 82.15,16.2 82.1,16.45 75.1,32.45 72.6,57.4 71.95,66.35 77.05,69.75 77.6,70.1 78.25,70.45 83.95,73.5 92.05,74.35 105.25,75.7 116.7,74.65 128.1,73.6 133.75,69.2 141.2,74.3 151,71 151.4,70.85 151.8,70.7 152.15,70.55 152.55,70.35 155.95,68.65 157.75,65.3 158.8,63.8 159.6,62.05 161.8,56.9 161.8,53 161.8,48.1 161.15,46.3"/><animate attributeName="display" repeatCount="1" dur="2.4s" keyTimes="0;0.183;0.2;1" values="none;inline;none;none"/></g><g style="display:none;"><path fill="#FFF" d="M161.6,46.3Q161.4,45.7 161.05,45.15 159.7,43.15 155.9,41.4 161,39.1 162.25,32.85 163.45,26.55 160.55,22.25 157.6,18 154.5,16.75 151.9,15.7 148.8,15.8 148.55,12.95 147.4,10.65 142.05,0 117.95,0 105.4,0 95.45,4.7 92.55,6.1 90.1,7.75 85.25,10.15 83.25,13.45 82.25,15 81.85,15.9 81.7,16.2 81.65,16.45 74.6,32.45 72.05,57.4 71.35,66.35 76.55,69.75 77.1,70.1 77.75,70.45 83.55,73.5 91.75,74.35 105.05,75.7 116.65,74.65 128.2,73.6 133.9,69.2 141.45,74.3 151.35,71 151.75,70.85 152.15,70.7 152.5,70.55 152.95,70.35 156.35,68.65 158.2,65.3 159.25,63.8 160.05,62.05 162.3,56.9 162.3,53 162.3,48.1 161.6,46.3"/><animate attributeName="display" repeatCount="1" dur="2.4s" keyTimes="0;0.167;0.183;1" values="none;inline;none;none"/></g><g style="display:none;"><path fill="#FFF" d="M162.85,53Q162.85,48.1 162.15,46.3 161.95,45.7 161.55,45.15 160.2,43.15 156.35,41.4 161.5,39.1 162.8,32.85 164,26.55 161.05,22.25 158.1,18 154.95,16.75 152.3,15.7 149.2,15.8 148.95,12.95 147.75,10.65 142.35,0 118,0 105.25,0 95.2,4.7 92.25,6.1 89.8,7.75 84.9,10.15 82.9,13.45 81.9,15 81.45,15.9 81.3,16.2 81.25,16.45 74.1,32.45 71.55,57.4 70.85,66.35 76.1,69.75 76.65,70.1 77.3,70.45 83.15,73.5 91.45,74.35 104.95,75.7 116.65,74.65 128.3,73.6 134.15,69.2 141.75,74.3 151.75,71 152.2,70.85 152.55,70.7 152.95,70.55 153.35,70.35 156.8,68.65 158.7,65.3 159.75,63.8 160.55,62.05 162.85,56.9 162.85,53"/><animate attributeName="display" repeatCount="1" dur="2.4s" keyTimes="0;0.15;0.167;1" values="none;inline;none;none"/></g><g style="display:none;"><path fill="#FFF" d="M160.75,46.3Q160.55,45.7 160.2,45.15 158.9,43.15 155.15,41.4 160.15,39.1 161.4,32.85 162.6,26.55 159.75,22.25 156.85,18 153.8,16.75 151.2,15.7 148.2,15.8 147.95,12.95 146.85,10.65 141.55,0 117.95,0 105.65,0 95.9,4.7 93.05,6.1 90.65,7.75 85.9,10.15 83.95,13.45 82.95,15 82.55,15.9 82.4,16.2 82.35,16.45 75.45,32.45 72.95,57.4 72.3,66.35 77.35,69.75 77.9,70.1 78.55,70.45 84.2,73.5 92.25,74.35 105.3,75.7 116.7,74.65 128,73.6 133.6,69.2 141,74.3 150.7,71 151.1,70.85 151.5,70.7 151.85,70.55 152.25,70.35 155.6,68.65 157.4,65.3 158.45,63.8 159.2,62.05 161.45,56.9 161.45,53 161.45,48.1 160.75,46.3"/><animate attributeName="display" repeatCount="1" dur="2.4s" keyTimes="0;0.133;0.15;1" values="none;inline;none;none"/></g><g style="display:none;"><path fill="#FFF" d="M159.4,46.3Q159.2,45.7 158.85,45.15 157.6,43.15 153.95,41.4 158.8,39.1 160,32.85 161.15,26.55 158.4,22.25 155.6,18 152.65,16.75 150.15,15.7 147.25,15.8 147,12.95 145.9,10.65 140.8,0 117.95,0 106,0 96.55,4.7 93.8,6.1 91.5,7.75 86.9,10.15 85,13.45 84.05,15 83.65,15.9 83.5,16.2 83.45,16.45 76.75,32.45 74.35,57.4 73.7,66.35 78.6,69.75 79.15,70.1 79.75,70.45 85.25,73.5 93.05,74.35 105.7,75.7 116.7,74.65 127.65,73.6 133.1,69.2 140.25,74.3 149.65,71 150.05,70.85 150.4,70.7 150.75,70.55 151.15,70.35 154.4,68.65 156.15,65.3 157.15,63.8 157.9,62.05 160.05,56.9 160.05,53 160.05,48.1 159.4,46.3"/><animate attributeName="display" repeatCount="1" dur="2.4s" keyTimes="0;0.117;0.117;0.133;1" values="inline;none;inline;none;none"/></g><g><g id="Symbol_30" transform="matrix(1 0 0 1 4.8 7.4)"><animateTransform attributeName="transform" additive="replace" type="translate" dur="2.4s" keyTimes="0;0.35;0.417;0.467;1" values="84.55,38.799;84.55,38.799;84.549,38.783;84.55,38.8;84.55,38.8"/><animateTransform attributeName="transform" additive="sum" type="scale" dur="2.4s" keyTimes="0;0.35;0.417;0.467;1" values="0.111,0.111;0.111,0.111;1.014,1.014;1,1;1,1"/><animateTransform attributeName="transform" additive="sum" type="translate" dur="2.4s" keyTimes="0;0.35;0.417;1" values="-79.8,-31.55;-79.8,-31.55;-79.75,-31.4;-79.75,-31.4"/><path fill="#58CBBF" d="M157.8,45.9Q162,33.85 156.25,24.15 150.75,14.9 139.7,15.9 134.65,8.8 122.95,5.05 111.25,1.25 97.35,4.1 87.3,6.15 86.2,6.95 75.05,-2.7 57.6,1.05 39.8,4.8 37.65,10.55 37.35,10.4 37.05,10.3 32.7,8.3 26.3,7.95 19.9,7.6 13.45,10.7 6.95,13.8 3.35,19.25 -0.3,24.65 0.05,30.8 0.4,36.95 3.8,46.85 7.15,56.75 19.95,58.5 32.7,60.25 39.75,52.7 42.3,61.85 55.1,62.8 66.6,62.9 108.9,61.85 151.2,60.8 157.8,45.9"/></g><animate attributeName="display" repeatCount="1" dur="2.4s" keyTimes="0;0.35;1" values="none;inline;none"/></g><g><g id="Symbol_43_f12_d60_l1" transform="matrix(1 0 0 1 165.45 4.35)"><animateTransform attributeName="transform" additive="replace" type="translate" dur="2.4s" keyTimes="0;0.217;0.3;0.35;0.383;1" values="120.5,36.95;120.5,36.95;209.7,36.95;206.55,36.95;206.95,36.95;206.95,36.95"/><animateTransform attributeName="transform" additive="sum" type="rotate" dur="2.4s" keyTimes="0;0.217;0.3;0.35;0.383;1" values="0,0,0;0,0,0;1.318,0,0;-0.44,0,0;0,0,0;0,0,0"/><animateTransform attributeName="transform" additive="sum" type="skewY" dur="2.4s" keyTimes="0;0.217;0.3;0.35;0.383;1" values="0;0;-1.318;0.44;0;0"/><animateTransform attributeName="transform" additive="sum" type="translate" dur="2.4s" keyTimes="0;1" values="-41.5,-32.6;-41.5,-32.6"/><use xlink:href="#Symbol_63" transform="matrix(1 0 0 1 8.4 0.65)"/><use xlink:href="#Symbol_62" transform="matrix(1 0 0 1 54.55 38.45)"/><use xlink:href="#Symbol_61" transform="matrix(1 0 0 1 1 17.85)"/><use xlink:href="#Symbol_60" transform="matrix(1 0 0 1 15.85 4.45)"/><use xlink:href="#Symbol_59" transform="matrix(1 0 0 1 5.95 34.8)"/><use xlink:href="#Symbol_58" transform="matrix(1 0 0 1 7.4 2.45)"/><use xlink:href="#Symbol_57" transform="matrix(1 0 0 1 20.55 4.45)"/><use xlink:href="#Symbol_56" transform="matrix(1 0 0 1 50.5 37.8)"/><use xlink:href="#Symbol_55" transform="matrix(1 0 0 1 0 17.2)"/><use xlink:href="#Symbol_54" transform="matrix(1 0 0 1 39.15 23.65)"/><use xlink:href="#Symbol_53" transform="matrix(1 0 0 1 32.55 9.3)"/><use xlink:href="#Symbol_52" transform="matrix(1 0 0 1 44.65 0)"/><use xlink:href="#Symbol_51" transform="matrix(1 0 0 1 59.45 39.15)"/><use xlink:href="#Symbol_50" transform="matrix(1 0 0 1 14.15 35.9)"/><use xlink:href="#Symbol_49" transform="matrix(1 0 0 1 14.8 23.85)"/><use xlink:href="#Symbol_48" transform="matrix(1 0 0 1 46.2 48.35)"/><use xlink:href="#Symbol_47" transform="matrix(1 0 0 1 20.15 23.65)"/></g><animate attributeName="display" repeatCount="1" dur="2.4s" keyTimes="0;0.2;1" values="none;inline;none"/></g><g style="display:none;"><g id="Symbol_43_f11_d60_l1" transform="matrix(1 0 0 1 79 4.35)"><use xlink:href="#Symbol_63" transform="matrix(1 0.001 -0.001 1 8.6 0.65)"/><use xlink:href="#Symbol_62" transform="matrix(1.018 0.001 -0.001 1 54.8 38.5)"/><use xlink:href="#Symbol_61" transform="matrix(1.03 0.001 -0.004 1 0.5 17.7)"/><use xlink:href="#Symbol_60" transform="matrix(1 0.001 -0.001 1 16 4.45)"/><use xlink:href="#Symbol_59" transform="matrix(1.03 0.001 -0.004 1 5.45 34.6)"/><use xlink:href="#Symbol_58" transform="matrix(1 0.001 -0.001 1 7.55 2.45)"/><use xlink:href="#Symbol_57" transform="matrix(1 0.001 -0.001 1 20.75 4.45)"/><use xlink:href="#Symbol_56" transform="matrix(1.018 0.001 -0.001 1 50.65 37.9)"/><use xlink:href="#Symbol_55" transform="matrix(1.03 0.001 -0.004 1 -0.6 17.05)"/><use xlink:href="#Symbol_54" transform="matrix(1 0.001 -0.001 1 39.3 23.7)"/><use xlink:href="#Symbol_53" transform="matrix(1 0.001 -0.001 1 32.75 9.3)"/><use xlink:href="#Symbol_52" transform="matrix(1 0.001 -0.001 1 44.9 0.05)"/><use xlink:href="#Symbol_51" transform="matrix(1.018 0.001 -0.001 1 59.75 39.3)"/><use xlink:href="#Symbol_50" transform="matrix(1 0.001 -0.001 1 14.25 35.85)"/><use xlink:href="#Symbol_49" transform="matrix(1 0.001 -0.001 1 14.95 23.85)"/><use xlink:href="#Symbol_48" transform="matrix(1 0.001 -0.001 1 46.25 48.35)"/><use xlink:href="#Symbol_47" transform="matrix(1 0 0 1 20.15 23.65)"/></g><animate attributeName="display" repeatCount="1" dur="2.4s" keyTimes="0;0.183;0.2;1" values="none;inline;none;none"/></g><g style="display:none;"><g id="Symbol_43_f10_d60_l1" transform="matrix(1 0 0 1 79 4.35)"><use xlink:href="#Symbol_63" transform="matrix(1 0.005 -0.005 1 8.8 0.55)"/><use xlink:href="#Symbol_62" transform="matrix(1.036 0.005 -0.005 1 55.1 38.6)"/><use xlink:href="#Symbol_61" transform="matrix(1.06 0.005 -0.009 1 -0.15 17.45)"/><use xlink:href="#Symbol_60" transform="matrix(1 0.005 -0.005 1 16.3 4.4)"/><use xlink:href="#Symbol_59" transform="matrix(1.06 0.005 -0.009 1 5 34.35)"/><use xlink:href="#Symbol_58" transform="matrix(1 0.005 -0.005 1 7.75 2.35)"/><use xlink:href="#Symbol_57" transform="matrix(1 0.005 -0.005 1 21.05 4.4)"/><use xlink:href="#Symbol_56" transform="matrix(1.036 0.005 -0.005 1 50.85 37.9)"/><use xlink:href="#Symbol_55" transform="matrix(1.06 0.005 -0.009 1 -1.2 16.8)"/><use xlink:href="#Symbol_54" transform="matrix(1 0.005 -0.005 1 39.45 23.75)"/><use xlink:href="#Symbol_53" transform="matrix(1 0.005 -0.005 1 33 9.3)"/><use xlink:href="#Symbol_52" transform="matrix(1 0.005 -0.005 1 45.15 0.1)"/><use xlink:href="#Symbol_51" transform="matrix(1.036 0.005 -0.005 1 60.05 39.4)"/><use xlink:href="#Symbol_50" transform="matrix(1 0.005 -0.005 1 14.35 35.75)"/><use xlink:href="#Symbol_49" transform="matrix(1 0.005 -0.005 1 15.15 23.75)"/><use xlink:href="#Symbol_48" transform="matrix(1 0.005 -0.005 1 46.35 48.45)"/><use xlink:href="#Symbol_47" transform="matrix(1 0 0 1 20.15 23.65)"/></g><animate attributeName="display" repeatCount="1" dur="2.4s" keyTimes="0;0.167;0.183;1" values="none;inline;none;none"/></g><g style="display:none;"><g id="Symbol_43_f9_d60_l1" transform="matrix(1 0 0 1 79 4.35)"><use xlink:href="#Symbol_63" transform="matrix(1 0.012 -0.012 1 9.2 0.35)"/><use xlink:href="#Symbol_62" transform="matrix(1.054 0.012 -0.013 1 55.35 38.7)"/><use xlink:href="#Symbol_61" transform="matrix(1.09 0.012 -0.013 1 -0.65 17.25)"/><use xlink:href="#Symbol_60" transform="matrix(1 0.012 -0.012 1 16.6 4.25)"/><use xlink:href="#Symbol_59" transform="matrix(1.09 0.012 -0.013 1 4.5 34.25)"/><use xlink:href="#Symbol_58" transform="matrix(1 0.012 -0.012 1 8.15 2.15)"/><use xlink:href="#Symbol_57" transform="matrix(1 0.012 -0.012 1 21.3 4.3)"/><use xlink:href="#Symbol_56" transform="matrix(1.054 0.012 -0.013 1 51.05 38)"/><use xlink:href="#Symbol_55" transform="matrix(1.09 0.012 -0.013 1 -1.75 16.6)"/><use xlink:href="#Symbol_54" transform="matrix(1 0.012 -0.012 1 39.65 23.75)"/><use xlink:href="#Symbol_53" transform="matrix(1 0.012 -0.012 1 33.25 9.3)"/><use xlink:href="#Symbol_52" transform="matrix(1 0.012 -0.012 1 45.45 0.15)"/><use xlink:href="#Symbol_51" transform="matrix(1.054 0.012 -0.013 1 60.45 39.5)"/><use xlink:href="#Symbol_50" transform="matrix(1 0.012 -0.012 1 14.5 35.65)"/><use xlink:href="#Symbol_49" transform="matrix(1 0.012 -0.012 1 15.3 23.65)"/><use xlink:href="#Symbol_48" transform="matrix(1 0.012 -0.012 1 46.4 48.5)"/><use xlink:href="#Symbol_47" transform="matrix(1 0 0 1 20.15 23.65)"/></g><animate attributeName="display" repeatCount="1" dur="2.4s" keyTimes="0;0.15;0.167;1" values="none;inline;none;none"/></g><g style="display:none;"><g id="Symbol_43_f8_d60_l1" transform="matrix(1 0 0 1 79 4.35)"><use xlink:href="#Symbol_63" transform="matrix(0.999 -0.035 0.035 0.999 6.05 1.6)"/><use xlink:href="#Symbol_62" transform="matrix(1.035 -0.037 0.035 0.999 45.05 36.6)"/><use xlink:href="#Symbol_61" transform="matrix(1.059 -0.038 0.035 0.999 4.75 19.05)"/><use xlink:href="#Symbol_60" transform="matrix(0.999 -0.035 0.035 0.999 13.65 5.15)"/><use xlink:href="#Symbol_59" transform="matrix(1.059 -0.038 0.035 0.999 10.6 35.75)"/><use xlink:href="#Symbol_58" transform="matrix(0.999 -0.035 0.035 0.999 5.2 3.55)"/><use xlink:href="#Symbol_57" transform="matrix(0.999 -0.035 0.035 0.999 18.4 5)"/><use xlink:href="#Symbol_56" transform="matrix(1.035 -0.037 0.035 0.999 41.05 36.15)"/><use xlink:href="#Symbol_55" transform="matrix(1.059 -0.038 0.035 0.999 3.65 18.4)"/><use xlink:href="#Symbol_54" transform="matrix(0.999 -0.035 0.035 0.999 37.7 23.5)"/><use xlink:href="#Symbol_53" transform="matrix(0.999 -0.035 0.035 0.999 30.6 9.5)"/><use xlink:href="#Symbol_52" transform="matrix(0.999 -0.035 0.035 0.999 42.25 -0.25)"/><use xlink:href="#Symbol_51" transform="matrix(1.035 -0.037 0.035 0.999 50.15 37.2)"/><use xlink:href="#Symbol_50" transform="matrix(0.999 -0.035 0.035 0.999 13.1 36.7)"/><use xlink:href="#Symbol_49" transform="matrix(0.999 -0.035 0.035 0.999 13.35 24.65)"/><use xlink:href="#Symbol_48" transform="matrix(0.999 -0.035 0.035 0.999 45.65 47.9)"/><use xlink:href="#Symbol_47" transform="matrix(1 0 0 1 20.15 23.65)"/></g><animate attributeName="display" repeatCount="1" dur="2.4s" keyTimes="0;0.133;0.15;1" values="none;inline;none;none"/></g><g style="display:none;"><g id="Symbol_43_f7_d60_l1" transform="matrix(1 0 0 1 79 4.35)"><use xlink:href="#Symbol_63" transform="matrix(0.996 -0.083 0.083 0.996 3.05 3)"/><use xlink:href="#Symbol_62" transform="matrix(1.014 -0.085 0.083 0.996 35 34.55)"/><use xlink:href="#Symbol_61" transform="matrix(1.026 -0.086 0.083 0.996 10.25 20.7)"/><use xlink:href="#Symbol_60" transform="matrix(0.996 -0.083 0.083 0.996 10.85 6.1)"/><use xlink:href="#Symbol_59" transform="matrix(1.026 -0.086 0.083 0.996 16.75 37.2)"/><use xlink:href="#Symbol_58" transform="matrix(0.996 -0.083 0.083 0.996 2.2 4.9)"/><use xlink:href="#Symbol_57" transform="matrix(0.996 -0.083 0.083 0.996 15.5 5.8)"/><use xlink:href="#Symbol_56" transform="matrix(1.014 -0.085 0.083 0.996 30.85 34.2)"/><use xlink:href="#Symbol_55" transform="matrix(1.026 -0.086 0.083 0.996 9.15 20.2)"/><use xlink:href="#Symbol_54" transform="matrix(0.996 -0.083 0.083 0.996 35.55 23.35)"/><use xlink:href="#Symbol_53" transform="matrix(0.996 -0.083 0.083 0.996 27.8 9.65)"/><use xlink:href="#Symbol_52" transform="matrix(0.996 -0.083 0.083 0.996 39.05 -0.6)"/><use xlink:href="#Symbol_51" transform="matrix(1.014 -0.085 0.083 0.996 39.95 34.9)"/><use xlink:href="#Symbol_50" transform="matrix(0.996 -0.083 0.083 0.996 11.8 37.7)"/><use xlink:href="#Symbol_49" transform="matrix(0.996 -0.083 0.083 0.996 11.45 25.7)"/><use xlink:href="#Symbol_48" transform="matrix(0.996 -0.083 0.083 0.996 44.8 47.35)"/><use xlink:href="#Symbol_47" transform="matrix(1 0 0 1 20.15 23.65)"/></g><animate attributeName="display" repeatCount="1" dur="2.4s" keyTimes="0;0.117;0.133;1" values="none;inline;none;none"/></g><g style="display:none;"><use xlink:href="#Symbol_43_f0_d60_l1" transform="matrix(1 0 0 1 79 4.35)"/><animate attributeName="display" repeatCount="1" dur="2.4s" keyTimes="0;0.1;0.1;0.117;1" values="inline;none;inline;none;none"/></g><g><g id="Symbol_29" transform="matrix(1 0 0 1 134.7 34.2)"><animateTransform attributeName="transform" additive="replace" type="translate" dur="2.4s" keyTimes="0;0.85;0.9;0.95;0.983;1" values="146.7,48.358;146.7,48.358;146.713,48.35;146.7,48.36;146.7,48.35;146.7,48.35"/><animateTransform attributeName="transform" additive="sum" type="scale" dur="2.4s" keyTimes="0;0.85;0.9;0.95;0.983;1" values="0.608,0.608;0.608,0.608;1.064,1.064;0.958,0.958;1,1;1,1"/><animateTransform attributeName="transform" additive="sum" type="translate" dur="2.4s" keyTimes="0;1" values="-12,-14.15;-12,-14.15"/><g id="Symbol_46" transform="matrix(1 0 0 1 0 2.15)"><path fill="#000" fill-opacity="0.259" d="M23.05,10.45Q23.1,8.6 23.1,7.2 23.05,6.15 23,4.85 22.9,0.8 20.45,0.5 17.9,0.15 17.45,0.8 14.1,-0.25 10.6,0.05 0.85,0.75 0,8.5 -0.05,9.4 0.05,10.15 0.05,11.9 0.65,13.25 2.6,17.85 9,18.5 11.7,18.85 13.7,18.35 15.1,18 15.55,17.7L15.65,17.9Q14.4,21.8 7.75,21.9 4.8,23.5 8.35,25.25 11.85,26.95 17.6,25.55 23.3,24.15 23.05,15L23.05,10.45 M10.65,12.15Q7.75,11.85 7,10.4 6.65,9.95 6.8,8.6 7.15,5.35 11.15,5.65 15.2,6 14.85,9 14.75,10.1 14.3,10.85 14,11.55 13.1,11.9 12.15,12.35 10.65,12.15"/></g><g id="Symbol_45" transform="matrix(1 0 0 1 0.9 0)"><path fill="#FCCB35" d="M23,4.85Q22.9,0.8 20.45,0.5 17.9,0.15 17.45,0.8 14.1,-0.25 10.6,0.05 0.85,0.75 0,8.5 -0.05,9.4 0.05,10.15 0.05,11.9 0.65,13.25 2.6,17.85 9,18.5 11.7,18.85 13.7,18.35 15.1,18 15.55,17.7L15.65,17.9Q14.4,21.8 7.75,21.9 4.8,23.5 8.15,25.4 11.5,27.35 17,26.1 22.5,24.75 22.85,16.8L23.05,10.45Q23.1,8.6 23.1,7.2 23.05,6.15 23,4.85 M14.3,10.85Q14,11.55 13.1,11.9 12.15,12.35 10.65,12.15 7.75,11.85 7,10.4 6.65,9.95 6.8,8.6 7.15,5.35 11.15,5.65 15.2,6 14.85,9 14.75,10.1 14.3,10.85"/><path fill="#FFF" d="M5.95,1.7Q4.45,2.05 4.5,2.6 4.5,2.95 4.75,3 7.7,2.6 7.6,2 7.45,1.4 5.95,1.7"/></g></g><animate attributeName="display" repeatCount="1" dur="2.4s" keyTimes="0;0.85;1" values="none;inline;none"/></g><g><g id="Symbol_28" transform="matrix(1 0 0 1 109.05 37.75)"><animateTransform attributeName="transform" additive="replace" type="translate" dur="2.4s" keyTimes="0;0.8;0.85;0.9;0.933;1" values="121.1,50.957;121.1,50.957;121.1,50.946;121.124,50.95;121.1,50.95;121.1,50.95"/><animateTransform attributeName="transform" additive="sum" type="scale" dur="2.4s" keyTimes="0;0.8;0.85;0.9;0.933;1" values="0.631,0.631;0.631,0.631;1.083,1.083;0.936,0.936;1,1;1,1"/><animateTransform attributeName="transform" additive="sum" type="translate" dur="2.4s" keyTimes="0;0.8;0.85;1" values="-12.05,-13.25;-12.05,-13.25;-12.05,-13.2;-12.05,-13.2"/><g id="Symbol_44" transform="matrix(1 0 0 1 0 3.75)"><path fill="#000" fill-opacity="0.259" d="M22.85,3.4Q22.2,1.1 21,0.4 19.85,-0.15 17.05,0.25 14.3,0.7 13.85,2.7 13.7,3.7 14.1,6.9 14.95,13.8 12.7,15.3 9.2,16.85 9,13.2 8.7,9.6 8.8,6.35 8.85,3.15 8.7,2.4 8.25,0.8 6.65,0.25 5.35,-0.25 3.55,0.2 -0.75,1.3 0.15,5.15 0.25,5.35 0.35,5.6 1.45,16.5 2.85,18.85 5.6,23.65 13.4,22.4 22.45,20.85 23,13.35 23.5,5.75 22.85,3.4"/></g><g id="Symbol_43" transform="matrix(1 0 0 1 0.9 0)"><path fill="#FCCB35" d="M22.85,3.4Q22.2,1.1 21,0.4 19.85,-0.15 17.05,0.25 14.3,0.7 13.85,2.7 13.7,3.7 14.1,6.9 14.95,13.8 12.7,15.3 9.2,16.85 9,13.2 8.7,9.6 8.8,6.35 8.85,3.15 8.7,2.4 8.25,0.8 6.65,0.25 5.35,-0.25 3.55,0.2 -0.75,1.3 0.15,5.15 0.25,5.35 0.35,5.6 1.45,16.5 2.85,18.85 5.6,23.65 13.4,22.4 22.45,20.85 23,13.35 23.5,5.75 22.85,3.4"/><path fill="#FFF" d="M16.4,2.4Q16.55,2.15 16.5,1.85 16.25,0.75 15.1,1.75 13.9,2.6 14.15,3.75L14.4,4.15Q14.55,4.4 14.75,4.6 14.85,4.35 15.25,3.8 16.05,2.9 16.4,2.4"/><path fill="#FFF" d="M0.7,3.75L0.9,4.15Q1.15,4.4 1.8,4.3 2.55,4.2 3.75,1.7 3.4,0.45 2.05,1.7 0.55,2.9 0.7,3.75"/></g></g><animate attributeName="display" repeatCount="1" dur="2.4s" keyTimes="0;0.8;1" values="none;inline;none"/></g><g><g id="Symbol_27" transform="matrix(1 0 0 1 85.75 35.1)"><animateTransform attributeName="transform" additive="replace" type="translate" dur="2.4s" keyTimes="0;0.75;0.8;0.85;0.883;1" values="97.15,51.544;97.15,51.544;97.147,51.55;97.126,51.55;97.15,51.55;97.15,51.55"/><animateTransform attributeName="transform" additive="sum" type="scale" dur="2.4s" keyTimes="0;0.75;0.8;0.85;0.883;1" values="0.662,0.662;0.662,0.662;1.07,1.07;0.906,0.906;1,1;1,1"/><animateTransform attributeName="transform" additive="sum" type="translate" dur="2.4s" keyTimes="0;1" values="-11.4,-16.45;-11.4,-16.45"/><g id="Symbol_42" transform="matrix(1 0 0 1 0 3.75)"><path fill="#000" fill-opacity="0.259" d="M21.9,23.25Q21.3,19.65 21.25,19.35 20.55,15.15 19.95,13.1 19.25,11 17.2,9.7 12.45,7.1 8.85,8.75 8.6,5.5 8,2.75 7.25,0.1 5.35,0 3.45,-0.15 1.65,1.05 -0.15,2.3 0,3.95 0.1,5.6 0.1,5.75 0.25,6.5 0.4,8.1L3,23.7Q3.1,24.4 3.05,27.35 3.65,29.75 7.65,29 9.5,28.7 9.85,27.4 10,26.9 9.85,25.7 9.4,23.3 9.45,21.1 9.45,19.45 10.55,19.2 11.5,19 12.65,18.8 13.65,18.5 14.25,19.45 14.7,20.35 14.85,21.65 15.05,22.95 15.2,23.6 15.4,24.3 15.85,26.6 16.5,28 17.7,28.2 17.75,28.25 17.8,28.25 18.45,28.45 19.2,28.25L19.3,28.25Q21.05,27.9 21.55,26.2 22,25.15 21.9,23.25"/></g><g id="Symbol_41" transform="matrix(1 0 0 1 0.9 0)"><path fill="#FCCB35" d="M21.9,23.25Q21.3,19.65 21.25,19.35 20.55,15.15 19.95,13.1 19.25,11 17.2,9.7 12.45,7.1 8.85,8.75 8.6,5.5 8,2.75 7.25,0.1 5.35,0 3.45,-0.15 1.65,1.05 -0.15,2.3 0,3.95 0.1,5.6 0.1,5.75 0.25,6.5 0.4,8.1L3,23.7Q3.1,24.4 3.05,27.35 3.65,29.75 7.65,29 9.5,28.7 9.85,27.4 10,26.9 9.85,25.7 9.4,23.3 9.45,21.1 9.45,19.45 10.55,19.2 11.5,19 12.65,18.8 13.65,18.5 14.25,19.45 14.7,20.35 14.85,21.65 15.05,22.95 15.2,23.6 15.4,24.3 15.85,26.6 16.5,28 17.7,28.2 17.75,28.25 17.8,28.25 18.45,28.45 19.2,28.25L19.3,28.25Q21.05,27.9 21.55,26.2 22,25.15 21.9,23.25"/><path fill="#FFF" d="M2.9,1.35Q1.6,2.05 1.6,3.55 1.6,3.6 1.6,4.35 1.75,5.1 2.6,5.1 2.95,5.1 3.6,3.75 4.2,2.5 4.2,2.15 4.2,0.7 2.9,1.35"/></g></g><animate attributeName="display" repeatCount="1" dur="2.4s" keyTimes="0;0.75;1" values="none;inline;none"/></g><g><g id="Symbol_26" transform="matrix(1 0 0 1 58.9 47.2)"><animateTransform attributeName="transform" additive="replace" type="translate" dur="2.4s" keyTimes="0;0.7;0.75;0.8;0.833;1" values="68.916,57.775;68.916,57.775;68.903,57.75;68.902,57.829;68.9,57.75;68.9,57.75"/><animateTransform attributeName="transform" additive="sum" type="scale" dur="2.4s" keyTimes="0;0.7;0.75;0.8;0.833;1" values="0.682,0.682;0.682,0.682;1.085,1.085;0.965,0.965;1,1;1,1"/><animateTransform attributeName="transform" additive="sum" type="translate" dur="2.4s" keyTimes="0;0.7;0.75;0.8;0.833;1" values="-10,-10.6;-10,-10.6;-10,-10.55;-10,-10.65;-10,-10.55;-10,-10.55"/><g id="Symbol_40" transform="matrix(1 0 0 1 0.75 2.7)"><path fill="#000" fill-opacity="0.239" d="M18.85,10.8Q17.65,4.7 16.95,1.75 16.15,-1.25 12.25,0.9 9.3,0 7.25,0.5 5.2,0.75 3.2,2.65 0.95,4.95 0.35,8.2 -0.45,11.7 0.65,14.15 1.85,16.55 3.65,17.55 5.45,18.55 10,18.4 14.4,18.15 15.45,16.3 16.65,18 18.35,17.45 20,16.9 18.85,10.8 M10.8,12.2Q9.2,13 7.4,12.8 5.55,12.55 5.95,9.95 6.45,7.25 7.8,6.55 10.8,5.2 11.3,7.6 11.8,10.15 10.8,12.2"/></g><path fill="#FCCB35" d="M17,1.75Q16.2,-1.25 12.3,0.9 9.35,0 7.3,0.5 5.25,0.75 3.25,2.65 1,4.95 0.4,8.2 -0.4,11.7 0.5,14.35 1.35,17 3.1,18 4.8,18.95 9.3,18.75 13.75,18.5 15.5,16.3 16.7,18 18.4,17.45 20.05,16.9 18.9,10.8 17.7,4.7 17,1.75 M7.85,6.55Q10.85,5.2 11.35,7.6 11.85,10.15 9.9,12.25 9.25,13 7.45,12.8 5.6,12.55 6,9.95 6.5,7.25 7.85,6.55"/></g><animate attributeName="display" repeatCount="1" dur="2.4s" keyTimes="0;0.7;1" values="none;inline;none"/></g><g><g id="Symbol_25" transform="matrix(1 0 0 1 89.2 4.65)"><animateTransform attributeName="transform" additive="replace" type="translate" dur="2.4s" keyTimes="0;0.65;0.7;0.75;0.783;1" values="102.85,19.656;102.85,19.656;102.869,19.65;102.858,19.65;102.85,19.65;102.85,19.65"/><animateTransform attributeName="transform" additive="sum" type="scale" dur="2.4s" keyTimes="0;0.65;0.7;0.75;0.783;1" values="0.597,0.597;0.597,0.597;1.06,1.06;0.957,0.957;1,1;1,1"/><animateTransform attributeName="transform" additive="sum" type="translate" dur="2.4s" keyTimes="0;1" values="-13.65,-15;-13.65,-15"/><g id="Symbol_38" transform="matrix(1 0 0 1 2.1 2.6)"><path fill="#000" fill-opacity="0.318" d="M25.15,22.95Q25.3,21.9 24.9,19.15 24.85,18.75 24.75,18.25L24.6,17.5Q23.65,11.1 22.85,6.35 22,1.45 17.85,0.3 13.7,-0.85 13.4,2.65 13.15,6.15 13.1,9.1 7.4,9.35 3.8,11.95 0.2,14.4 0,17.55 -0.2,20.65 1.75,24.1 3.85,27.5 12.1,27.4 15.05,27.3 18.15,26.75 20.25,26.3 22.5,25.8 24.7,25.2 25.05,23.4 25.1,23.2 25.15,22.95 M12.3,22.75Q10.6,22.6 11.05,19.95 11.45,17.3 16.5,17.1 16.7,18.8 17.25,22.55 16.7,22.65 15.15,22.85 13.75,22.95 12.3,22.75"/></g><path fill="#FECC34" fill-opacity="0.988" d="M24.75,18.25L24.6,17.5Q23.65,11.1 22.85,6.35 22,1.45 17.85,0.3 13.7,-0.85 13.4,2.65 13.15,6.15 13.1,9.1 7.4,9.35 3.8,11.95 0.2,14.4 0,17.55 -0.2,20.65 1.75,24.1 3.85,27.5 12.1,27.4 15.05,27.3 18.15,26.75 20.25,26.3 22.5,25.8 24.7,25.2 25.05,23.4 25.1,23.2 25.15,22.95 25.3,21.9 24.9,19.15 24.85,18.75 24.75,18.25 M11.05,19.95Q11.45,17.3 16.5,17.1 16.7,18.8 17.25,22.55 16.7,22.65 15.15,22.85 13.75,22.95 12.3,22.75 10.6,22.6 11.05,19.95"/></g><animate attributeName="display" repeatCount="1" dur="2.4s" keyTimes="0;0.65;1" values="none;inline;none"/></g><g><g id="Symbol_24" transform="matrix(1 0 0 1 63.3 15.05)"><animateTransform attributeName="transform" additive="replace" type="translate" dur="2.4s" keyTimes="0;0.6;0.65;0.7;0.733;1" values="76.15,26.799;76.15,26.799;76.242,26.8;76.15,26.801;76.15,26.8;76.15,26.8"/><animateTransform attributeName="transform" additive="sum" type="scale" dur="2.4s" keyTimes="0;0.6;0.65;0.7;0.733;1" values="0.591,0.591;0.591,0.591;1.077,1.077;0.953,0.953;1,1;1,1"/><animateTransform attributeName="transform" additive="sum" type="translate" dur="2.4s" keyTimes="0;0.6;0.65;0.7;1" values="-12.85,-11.75;-12.85,-11.75;-12.95,-11.75;-12.85,-11.75;-12.85,-11.75"/><g id="Symbol_36" transform="matrix(1 0 0 1 2.1 2.6)"><path fill="#000" fill-opacity="0.318" d="M20.85,19.2Q23.25,17.5 23.6,15.5 23.85,13.5 21.6,13.35 19.35,13.1 15.3,12.95L16.4,12.55Q21.3,11.25 21.15,6.9 21,2.55 17.55,1 14.6,-0.45 10.6,0.25 6.4,1 4.1,2.95 1.75,4.85 0.4,8.65 -0.9,12.45 2.25,16.8 5.45,21.05 11.95,20.95 18.4,20.9 20.85,19.2 M11.4,9.3Q9.15,9.3 8.35,7.95L7.9,6.65Q7.7,3.55 11.8,3.3 15.9,3 16.15,5.7 16.25,6.85 15.1,8 13.75,9.3 11.4,9.3"/></g><path fill="#FDCC35" fill-opacity="0.988" d="M23.6,15.5Q23.85,13.5 21.6,13.35 19.35,13.1 15.3,12.95L16.4,12.55Q21.3,11.25 21.15,6.9 21,2.55 17.55,1 14.6,-0.45 10.6,0.25 6.4,1 4.1,2.95 1.75,4.85 0.4,8.65 -0.9,12.45 2.25,16.8 5.45,21.05 11.95,20.95 18.4,20.9 20.85,19.2 23.25,17.5 23.6,15.5 M16.15,5.7Q16.25,6.85 15.1,8 13.75,9.3 11.4,9.3 9.15,9.3 8.35,7.95L7.9,6.65Q7.7,3.55 11.8,3.3 15.9,3 16.15,5.7"/></g><animate attributeName="display" repeatCount="1" dur="2.4s" keyTimes="0;0.6;1" values="none;inline;none"/></g><g><g id="Symbol_23" transform="matrix(1 0 0 1 40.45 23)"><animateTransform attributeName="transform" additive="replace" type="translate" dur="2.4s" keyTimes="0;0.55;0.6;0.65;0.683;1" values="53.719,35.178;53.719,35.178;53.794,35.2;53.702,35.287;53.7,35.2;53.7,35.2"/><animateTransform attributeName="transform" additive="sum" type="scale" dur="2.4s" keyTimes="0;0.55;0.6;0.65;0.683;1" values="0.628,0.628;0.628,0.628;1.082,1.082;0.962,0.962;1,1;1,1"/><animateTransform attributeName="transform" additive="sum" type="translate" dur="2.4s" keyTimes="0;0.55;0.6;0.65;0.683;1" values="-13.25,-12.15;-13.25,-12.15;-13.35,-12.2;-13.25,-12.3;-13.25,-12.2;-13.25,-12.2"/><g id="Symbol_34" transform="matrix(1 0 0 1 2.1 2.6)"><path fill="#000" fill-opacity="0.318" d="M24.45,12.5Q24.25,10.35 21.95,11 19.55,11.5 15.3,12.7L16.35,12Q21.25,9.05 20.1,4.8 18.95,0.4 15.15,0.05 11.75,-0.35 7.75,1.7 3.6,3.8 1.55,7.35 -0.85,11.3 0.45,15.55 1.35,18.55 4,20.05 8.7,22.9 14.4,21.25 20.1,19.55 22.3,17.1 24.55,14.6 24.45,12.5 M14.05,7.85Q13,9.6 10.6,10.35 8.2,11.15 7.1,10.1L6.4,8.9Q5.5,5.95 9.65,4.35 13.85,2.55 14.7,5.3 15,6.4 14.05,7.85"/></g><path fill="#FCCC36" fill-opacity="0.988" d="M24.45,12.5Q24.25,10.35 21.95,11 19.55,11.5 15.3,12.7L16.35,12Q21.25,9.05 20.1,4.8 18.95,0.4 15.15,0.05 11.75,-0.35 7.75,1.7 3.6,3.8 1.55,7.35 -0.85,11.3 0.45,15.55 1.35,18.55 4,20.05 8.7,22.9 14.4,21.25 20.1,19.55 22.3,17.1 24.55,14.6 24.45,12.5 M14.05,7.85Q13,9.6 10.6,10.35 8.2,11.15 7.1,10.1L6.4,8.9Q5.5,5.95 9.65,4.35 13.85,2.55 14.7,5.3 15,6.4 14.05,7.85"/></g><animate attributeName="display" repeatCount="1" dur="2.4s" keyTimes="0;0.55;1" values="none;inline;none"/></g><g><g id="Symbol_22" transform="matrix(1 0 0 1 7.4 19.15)"><animateTransform attributeName="transform" additive="replace" type="translate" dur="2.4s" keyTimes="0;0.5;0.55;0.6;0.633;1" values="25.75,41.683;25.75,41.683;25.739,41.7;25.75,41.622;25.75,41.7;25.75,41.7"/><animateTransform attributeName="transform" additive="sum" type="scale" dur="2.4s" keyTimes="0;0.5;0.55;0.6;0.633;1" values="0.61,0.61;0.61,0.61;1.062,1.062;0.981,0.981;1,1;1,1"/><animateTransform attributeName="transform" additive="sum" type="translate" dur="2.4s" keyTimes="0;0.5;0.55;0.6;0.633;1" values="-18.35,-22.5;-18.35,-22.5;-18.35,-22.55;-18.35,-22.45;-18.35,-22.55;-18.35,-22.55"/><g id="Symbol_32" transform="matrix(1 0 0 1 2.1 2.6)"><path fill="#000" fill-opacity="0.318" d="M30.45,18.15Q27.3,12.05 26.45,10.15 26.2,9.25 22.9,2.05 21.4,-1.35 16.65,0.85 12,2.95 13.15,6.7 14.25,10.45 17.05,16.2 17.2,16.55 17.4,16.95 12.45,12.7 9.8,10.95 7.2,9.3 5.75,9.55 6,9.3 3.7,9.8 -0.75,10.85 0.15,14.7 0.9,18.5 1.85,20.1 2.6,21.7 6.65,32.4 6.95,33.4 7.35,34.55 9.5,40.25 9.25,39.45 11.25,43.5 16.3,42.25 21.3,41.05 19.6,35.7 16.65,29.9 16.3,28.5 19,30.9 23.15,32.95 28.05,35.55 30.2,34.85 34.2,33.6 34.55,30.35 34.8,29 33.85,26.05 32.95,23.1 30.45,18.15"/></g><path fill="#FCCD38" fill-opacity="0.988" d="M30.45,18.15Q27.3,12.05 26.45,10.15 26.2,9.25 22.9,2.05 21.4,-1.35 16.65,0.85 12,2.95 13.15,6.7 14.25,10.45 17.05,16.2 17.2,16.55 17.4,16.95 12.45,12.7 9.8,10.95 7.2,9.3 5.75,9.55 6,9.3 3.7,9.8 -0.75,10.85 0.15,14.7 0.9,18.5 1.85,20.1 2.6,21.7 6.65,32.4 6.95,33.4 7.35,34.55 9.5,40.25 11.45,42.05 12.65,43.75 16.3,42.6 21.4,40.95 19.6,35.7 16.65,29.9 16.3,28.5 19,30.9 23.15,32.95 28.05,35.55 30.2,34.85 34.2,33.6 34.55,30.35 34.8,29 33.85,26.05 32.95,23.1 30.45,18.15"/></g><animate attributeName="display" repeatCount="1" dur="2.4s" keyTimes="0;0.5;1" values="none;inline;none"/></g></g><defs><symbol id="Symbol_43_f0_d60_l1" overflow="visible"><use xlink:href="#Symbol_63" transform="matrix(0.991 -0.134 0.134 0.991 0 4.5)"/><use xlink:href="#Symbol_62" transform="matrix(0.991 -0.134 0.134 0.991 24.8 32.55)"/><use xlink:href="#Symbol_61" transform="matrix(0.991 -0.134 0.134 0.991 15.8 22.55)"/><use xlink:href="#Symbol_60" transform="matrix(0.991 -0.134 0.134 0.991 7.9 7.25)"/><use xlink:href="#Symbol_59" transform="matrix(0.991 -0.134 0.134 0.991 22.95 38.7)"/><use xlink:href="#Symbol_58" transform="matrix(0.991 -0.134 0.134 0.991 -0.7 6.45)"/><use xlink:href="#Symbol_57" transform="matrix(0.991 -0.134 0.134 0.991 12.55 6.65)"/><use xlink:href="#Symbol_56" transform="matrix(0.991 -0.134 0.134 0.991 20.7 32.45)"/><use xlink:href="#Symbol_55" transform="matrix(0.991 -0.134 0.134 0.991 14.7 22.05)"/><use xlink:href="#Symbol_54" transform="matrix(0.991 -0.134 0.134 0.991 33.55 23.2)"/><use xlink:href="#Symbol_53" transform="matrix(0.991 -0.134 0.134 0.991 25.1 9.85)"/><use xlink:href="#Symbol_52" transform="matrix(0.991 -0.134 0.134 0.991 35.85 -1)"/><use xlink:href="#Symbol_51" transform="matrix(0.991 -0.134 0.134 0.991 29.75 32.6)"/><use xlink:href="#Symbol_50" transform="matrix(0.991 -0.134 0.134 0.991 10.4 38.7)"/><use xlink:href="#Symbol_49" transform="matrix(0.991 -0.134 0.134 0.991 9.45 26.65)"/><use xlink:href="#Symbol_48" transform="matrix(0.991 -0.134 0.134 0.991 43.9 46.7)"/><use xlink:href="#Symbol_47" transform="matrix(1 0 0 1 20.15 23.65)"/>
</symbol><symbol id="Symbol_47" overflow="visible"><path fill="#879A45" d="M23.1,11.1Q22.65,12.6 22.35,12.05 22,11.55 21.65,11.65 21.6,11.35 21.3,11.2L21.3,11.25Q21.2,11.6 21.3,11.9 21.1,12.05 20.9,12.4 18.2,17.2 19.9,18.85L20,18.75Q20,19.5 20.55,21.05 21.35,20.2 22.1,21.3 22.2,21.2 22.35,21.1 22.6,20.8 22.9,20.45 23.45,20.1 23.85,19.7 24.3,20 25.15,20.1 27.65,18.45 26.45,16.25L26.35,16.35Q26.2,14.45 25.85,15.15 25.8,15.45 25.7,15.35 24.9,14.2 24.75,12.7L24.7,12.8Q24.2,12.35 23.25,10.9 23.15,10.95 23.1,11.1 M23.25,19.9L23.3,19.9Q23.25,19.95 23.2,20 23.2,19.95 23.25,19.9"/><path fill="#879A45" d="M6.25,3.6Q5.9,3.7 5.95,0.75 5.85,0.75 5.85,0.8 5.45,1.7 4.75,1.5 4.7,1.4 4.65,1.3 4.4,0.75 4.4,0 4.35,0 4.3,0.05 4.15,0.7 4.05,1.35 3.75,0.75 3.35,0.2 3.2,0.25 3.15,0.45 2.65,2.15 2.2,2.1 2.2,1.9 2.15,1.75 1.85,1 1.15,2.25L1.15,1.95 0.45,2.7 0.45,2.3Q-0.4,4.7 0.4,7.1 0.4,8.85 0.65,10.1 0.9,10.1 0.95,10 1.25,9.55 1.4,9.15L1.45,9.2Q1.45,9.25 1.4,9.3 1.4,9.85 1.15,10.3 1.15,11.05 1.95,11.15 2.35,10.75 3.15,10.7 3.15,11.45 3.15,12.15 4.05,10.45 4.95,11.35 7.7,8.1 6.45,5.25L6.4,5.2Q6.75,3.15 6.25,3.5L6.25,3.6 M0.8,8.5Q0.75,8.2 0.75,7.95 0.8,8.1 0.9,8.25 0.9,8.4 0.85,8.55L0.8,8.5"/>
</symbol><symbol id="Symbol_48" overflow="visible"><path fill="#535F29" d="M0.3,2.9L7.45,0 0,0.05 0.3,2.9"/>
</symbol><symbol id="Symbol_49" overflow="visible"><path fill="#4D5726" d="M0,0L6.9,2.6 7,0.3 0,0"/>
</symbol><symbol id="Symbol_50" overflow="visible"><path fill="#4D5726" d="M9.3,2.2L0,0 9.3,5.9 9.3,2.2"/>
</symbol><symbol id="Symbol_51" overflow="visible"><path fill="#4D5726" d="M3.45,15.35L1.4,14.7 4.6,21.05 3.45,15.35"/><path fill="#4D5726" d="M0,6.25L1.7,6.55 1.6,0 0,6.25"/>
</symbol><symbol id="Symbol_52" overflow="visible"><path fill="#4D5726" d="M0,6.35L1.65,6.35 0,0 0,6.35"/>
</symbol><symbol id="Symbol_53" overflow="visible"><path fill="#333" d="M20.55,11.55Q22.3,11.25 23.8,8.2 23.9,8 23.8,7.75 23.65,7.4 23.5,7.3 23.2,7.2 22.9,7.3 22.55,7.4 22.45,7.65 21.45,9.85 20.25,10.05L20.35,10.15Q19.05,10.4 17.85,9.7 16.85,8.9 16.8,7.15 16.8,6.8 16.55,6.6 16.4,6.35 16.1,6.45 15.7,6.45 15.55,6.6 15.25,6.8 15.35,7.05 15.35,9.8 17,10.85 18.6,11.9 20.55,11.55"/><path fill="#333" d="M6.65,3.9Q6.5,3.6 6.2,3.7 5.85,3.6 5.8,3.9 3.9,5.35 2.85,5.1 1.85,4.85 1.4,3.7 1.05,2.65 2,1.05 2.15,0.7 2.15,0.45 2.15,0.1 2,0.1 1.65,0 1.4,0 1.1,0.2 1.05,0.25 -0.35,2.8 0.1,4.4 0.8,6.1 2.3,6.5 3.75,7.05 6.4,4.85 6.55,4.85 6.65,4.5 6.7,4.05 6.65,3.9"/>
</symbol><symbol id="Symbol_54" overflow="visible"><path fill="#333" d="M6.35,3.7Q0.55,3.45 0.05,3.6 -0.5,3.75 3.75,5 7.95,6.25 11.95,4.8 15.9,3.35 16.05,2.75 16.15,2.15 15.6,0 12.1,3.95 6.35,3.7"/>
</symbol><symbol id="Symbol_55" overflow="visible"><path fill="#879A45" d="M25.25,15.05Q25.05,15 23.35,14.55 21.65,14 19.75,11.8 19.45,11.4 19.05,10.95 17.65,8.95 16.65,7.6 17.3,4.45 16.15,3.35 14.95,2.2 13.85,3.5 13,4.4 13.05,4.65 12,3.9 10.9,3.6 10.8,3.6 10.75,3.55 10.05,-0.5 8.2,0.05 7.55,0.25 7.35,1.05 7.05,1.85 7.05,2.95 6.5,2.95 6,3.1 5.7,3.2 5.45,3.3 5.05,2.7 4.2,2.1 3.2,1.65 2.75,1.85 0.85,2.2 3.05,6.05 2.7,6.7 2.75,7.6 0.85,7.4 0.5,7.4 0.25,7.6 0.1,7.9 -0.1,8.45 0.05,9.05 0.2,9.65 0.7,9.95L2.6,10.6Q2.65,11.2 3.2,12.6 3.9,14.35 6.4,17.1 8.85,19.8 12.3,21.75 15.65,23.5 17.7,23.9 19.7,24.25 21.75,23.85 23.8,18.45 24.55,16.8 25.3,15.05 25.25,15.05"/><path fill="#A5B861" d="M10.4,10.55Q10.85,8.55 10.4,6.45 10.1,5.55 9.3,5.2 8.5,4.8 7.55,4.85 7.05,4.95 6.9,4.95 5.45,5.55 4.85,7.1 4.6,8.65 4.9,10.55 5.2,11.75 5.7,12.3 6.45,13.55 8,13.25 9.8,12.7 10.4,10.55"/>
</symbol><symbol id="Symbol_56" overflow="visible"><path fill="#879A45" d="M21.85,4.15Q22.3,3.55 22.05,2.15 21.85,0.65 20.25,0.1 18.45,-0.3 17.55,0.9 16.7,2 16.3,2.2 16.15,2.25 15.9,2.35 15.45,2.4 14.85,2.6 13.9,2.9 12,3.35 10.25,3.6 3.15,5.35L0,10.5Q10,16.45 12.85,17.1 13.55,17.3 14.3,17.55 15.15,17.75 15.9,17.9 16.25,18 16.55,18.05 16.85,18.1 17,18.15 17.2,18.1 17.25,18.15 18.25,18.15 20.1,17.85 20.4,17.7 20.8,17.65 20.65,17.7 21.4,18.25 22.25,18.75 23.95,18.35 25.75,18.1 25.2,15.25L25.25,15.25Q26,15.5 27.1,14.85 28.15,14.25 28.45,13.05 28.65,11.95 28.3,11.15 27.85,10.3 26.95,10.35L26.9,10.3 26.95,10.25Q27.75,9.65 27.95,8.75 28.15,7.85 27.6,6.65 27.1,5.4 26.25,5.15 25.25,4.8 24.55,5.35 24.15,5.45 24.1,5.55L23.95,5.6Q22.85,4.6 21.85,4.15"/><path fill="#A5B861" d="M23,8.2Q21.85,6.6 21.2,6.25 20.9,6.05 20.65,6.05 19.85,6.2 18.55,7.8 17.2,9.15 17.75,11 18.1,12.1 18.7,12.8 19,13.2 19.3,13.55 19.75,14 20.15,14.15 22.9,13.65 23.8,12.45 24.7,11.4 23.7,9.5 23.3,8.75 23,8.2"/>
</symbol><symbol id="Symbol_57" overflow="visible"><path fill="#A5B861" d="M26.4,0.6Q27.7,0.6 23.4,0.15 19,-0.35 14.4,1.15 9.85,2.65 6.65,6 3.4,9.3 2.05,13 0.65,16.7 0,18.6 2.45,14 3.9,11.75 5.3,9.5 7.75,7.3 8.45,6.65 11,5.1 13.7,3.45 14.9,3.15 17.45,2.2 18.6,1.9 19.7,1.5 22.35,1 25,0.55 26.4,0.6"/>
</symbol><symbol id="Symbol_58" overflow="visible"><path fill="#4D5726" d="M50,0L45.55,5.5 48.1,7 48.25,6.7 50,0"/><path fill="#4D5726" d="M51.65,18.8L52.75,22.2 61.05,15.55 51.65,18.8"/><path fill="#657333" d="M58.85,37.9L53.55,31.8 52.05,34.05 58.85,37.9"/><path fill="#4D5726" d="M55.7,24.85L55.7,28.15 64.8,28.15 55.7,24.85"/><path fill="#4D5726" d="M15.65,14.4L17,12.35 8.2,7 15.65,14.4"/><path fill="#4D5726" d="M9.8,42.75L0,45.25 8.85,45.25 9.8,42.75"/><path fill="#4D5726" d="M20.4,56.25Q22.55,57.2 26.2,59.65L22.5,54.55 20.4,56.25"/><path fill="#657333" d="M10.25,54.15L10.05,50.55 0.05,54.95 10.25,54.15"/><path fill="#4D5726" d="M46.75,57.85L41,55.3 40.05,57.8Q42.4,57.6 46.75,57.85"/>
</symbol><symbol id="Symbol_59" overflow="visible"><path fill="#4D5726" d="M0,4.95L2.8,1.55 1.25,0 0,4.95"/>
</symbol><symbol id="Symbol_60" overflow="visible"><path fill="#879A45" d="M46.55,16.9Q46.55,12.5 46.05,9.65 44.75,7.9 42.85,6.4 35.9,0.65 27.65,0.05 20.7,-0.4 14.95,3.3 11.1,5.8 8.45,9.7 5.9,13.45 2.4,25.65 0.8,29.35 0,49.5 -0.25,56.1 8.85,58.8 14.1,60.4 19.7,60 25.95,59.55 32.65,56.8 32.65,56.35 32.65,55.95 32.55,48.2 37.2,42.1 44.4,32.35 45.5,27.25 46.55,22.15 46.55,16.9"/><path fill="#6C7B37" d="M46.05,9.65Q46.55,12.5 46.55,16.9 46.55,22.15 45.5,27.25 44.4,32.35 37.2,42.1 32.55,48.2 32.65,55.95 32.95,54.85 34.15,52.5 36.3,48.25 43.9,33.8 48,27.65 48.95,19.9 49.65,14.2 46.05,9.65"/>
</symbol><symbol id="Symbol_61" overflow="visible"><path fill="#B3B3B3" d="M16.7,7.4L16.8,6.8Q17.15,4.3 16.15,3.35 14.95,2.2 13.85,3.5 13,4.4 13.05,4.65 12,3.9 10.9,3.6 10.8,3.6 10.75,3.55 10.05,-0.5 8.2,0.05 7.55,0.25 7.35,1.05 7.05,1.85 7.05,2.95 6.5,2.95 6,3.1 5.7,3.2 5.45,3.3 5.05,2.7 4.2,2.1 3.2,1.65 2.75,1.85 0.85,2.2 3.05,6.05 2.7,6.7 2.75,7.6 0.85,7.4 0.5,7.4 0.25,7.6 0.1,7.9 -0.1,8.45 0.05,9.05 0.2,9.65 0.7,9.95L2.6,10.6Q2.65,11.2 3.2,12.6 3.9,14.35 6.4,17.1 6.75,17.5 7.15,17.9L5.95,22.55 8.65,19.25Q10.3,20.65 12.3,21.75 14.8,23.05 16.6,23.65L18.9,10.75Q17.6,8.85 16.65,7.6 16.65,7.5 16.7,7.4"/>
</symbol><symbol id="Symbol_62" overflow="visible"><path fill="#B3B3B3" d="M21.5,5.35Q21.1,5.45 21.05,5.55L20.9,5.6Q19.8,4.6 18.8,4.15 19.25,3.55 19,2.15 18.8,0.65 17.2,0.1 15.4,-0.3 14.5,0.9 14.2,1.25 14,1.55 13.5,2.05 13.25,2.2 13.1,2.25 12.85,2.35 12.7,2.35 12.6,2.4L12.45,2.45Q12.15,2.5 11.8,2.6 10.85,2.9 8.95,3.35 8.45,3.4 7.55,3.6L7.5,1.35 6.9,3.75Q5.75,4 4.15,4.4L0,12.3Q4.7,15 7.4,16.2L10.5,22.4 9.4,17Q9.6,17.05 9.8,17.1 10.5,17.3 11.25,17.55 12.1,17.75 12.85,17.9 13.2,18 13.5,18.05 13.8,18.1 13.95,18.15 14.15,18.1 14.2,18.15 15.2,18.15 17.05,17.85 17.35,17.7 17.75,17.65 17.6,17.7 18.35,18.25 19.2,18.75 20.9,18.35 22.7,18.1 22.15,15.25L22.2,15.25Q22.95,15.5 24.05,14.85 25.1,14.25 25.4,13.05 25.6,11.95 25.25,11.15 24.8,10.3 23.9,10.35L23.85,10.3 23.9,10.25Q24.7,9.65 24.9,8.75 25.1,7.85 24.55,6.65 24.05,5.4 23.2,5.15 22.2,4.8 21.5,5.35"/>
</symbol><symbol id="Symbol_63" overflow="visible"><path fill="#B3B3B3" d="M50,2.45L46.05,7.35Q43.05,5.75 39.8,5.05 40.05,5 39.1,4.9 38.8,4.85 38.5,4.8L37.25,0 37.25,4.6Q36.7,4.55 36.1,4.5 34.95,4.4 33.8,4.5L29.55,5.05Q28.55,5.25 27.55,5.6 23,7.1 19.8,10.45 17.85,12.45 16.6,14.55L8.2,9.45 15.5,16.7Q14.2,19.5 12.7,24.15L9.4,24 12.2,25.7Q11.85,26.75 11.5,27.95L9.2,40.85Q9,42.95 8.9,45.45L0,47.7 8.75,47.7Q8.6,50.5 8.45,53.7L0.05,57.4 8.8,56.75Q10.25,61.15 17.3,63.25 22.55,64.85 28.15,64.45 34.4,64 41.1,61.25 41.1,60.8 41.1,60.4 41.15,60.3 41.2,60.2 43.35,60.1 46.75,60.3L42,58.2Q42.25,57.6 42.6,56.95 43.7,54.8 46.15,50.1L50.3,42.2Q51.25,40.3 52.35,38.25 52.75,37.7 53.1,37.1L58.6,40.25 58.75,40.2 54.25,35.05Q55.3,32.9 56.05,30.6L64.8,30.6 56.85,27.7Q57.2,26.05 57.4,24.35 57.6,22.6 57.45,20.95L61.05,18 57.15,19.35Q56.45,16.55 54.5,14.1 53.2,12.35 51.3,10.85 49.85,9.65 48.4,8.7L50,2.45"/>
</symbol></defs></svg>