<?xml version="1.0" encoding="utf-8"?><svg id="1010" image-rendering="auto" baseProfile="basic" version="1.1" x="0px" y="0px" width="660" height="660" xmlns="http://www.w3.org/2000/svg" xmlns:xlink="http://www.w3.org/1999/xlink"><defs><symbol id="eyeg3" overflow="visible"><path fill="#604339" d="M21.45,9.15Q21.453,9.054 21.425,8.95 20.703,5.774 18.525,3.275 15.272,-0.506 10.65,-0.5 6.03,-0.505 2.725,3.275 -0.494,7.011 -0.5,12.25 -0.495,14.116 -0.075,15.85 -0.061,15.923 -0.05,16L-0.025,16.15Q0.032,16.496 0.1,16.85 0.182,17.343 0.3,17.825 0.764,17.609 1.2,17.4 1.168,17.241 1.125,17.075 1.189,16.917 1.15,16.8 1.03,16.348 0.95,15.875 0.85,15.072 0.85,14.25 0.85,9.4 3.85,5.95 6.8,2.5 11,2.5 15.2,2.5 18.15,5.95 19.837,7.89 20.6,10.25 21.114,9.943 21.575,9.675 21.518,9.407 21.45,9.15"/>
</symbol></defs><g id="Symbol_3_l1" overflow="visible" transform="matrix(1 0 0 1 4.55 11.55)"><g id="Symbol_6_l1" transform="matrix(3.96 0 0 3.96 0 0)"><path fill="none" stroke="#000" stroke-opacity="0.251" stroke-width="2" stroke-linecap="round" stroke-linejoin="round" d="M162.8,66Q164.2,59.75 164.2,52.75 164.2,48.1 163.3,41.9 161.85,31.3 158.4,23.25 158.1,22.55 157.75,21.85 152.3,10.7 137.65,4.85 137.6,4.85 137.55,4.8 136.55,4.45 135.55,4.05L136.2,4.35Q104.737,-2.222 76.275,7.175 71.888,6.262 67.2,4.95 47.9,-0.5 36.75,0.05 25.55,0.6 17.25,2.45 8.95,4.3 4.05,12.85 1.457,17.328 0.425,30.125 -0.226,35.545 0.1,42 0.35,47.45 1.3,53.6 2.55,61.55 3,66 3.5,70.65 3.15,71.5 2.9,72.15 2.5,73.1 2,74.6 0.8,80.45 -0.45,86.25 1.15,100.05 2.75,113.8 5.15,119.7 7.5,125.55 9.8,130.3 12.05,135 12.05,137.55 12.05,137.65 11.55,141.9 11.1,147 8.05,153.4 4.9,159.8 11.1,160.7 23.35,161.9 62.05,161.7 98.55,161.55 111.95,161.4 113.2,161.45 117.35,161.35 117.45,161.35 118.45,161.35 119.45,161.35 128.15,161.5 136.85,161.65 141.35,160.9 145.85,160.15 148.5,159.2 149.6,158.7 150.65,158.1 163.35,151 163.35,133.8 163.35,128.45 161.85,122.9 160.15,116.7 157.15,112.5 154.3,108.55 153.15,107.2 150.5,104.05 147.15,101.7 144.85,99.95 142.7,98.9 147.45,93.2 150.35,89.75 156.7,82.15 159.85,74.95 161.7,70.7 162.8,66"/><path fill="#FFF" d="M162.8,66Q164.2,59.75 164.2,52.75 164.2,48.1 163.3,41.9 161.85,31.3 158.4,23.25 158.1,22.55 157.75,21.85 152.3,10.7 137.65,4.85 137.6,4.85 137.55,4.8 136.55,4.45 135.55,4.05L136.2,4.35Q104.737,-2.222 76.275,7.175 71.888,6.262 67.2,4.95 47.9,-0.5 36.75,0.05 25.55,0.6 17.25,2.45 8.95,4.3 4.05,12.85 1.457,17.328 0.425,30.125 -0.226,35.545 0.1,42 0.35,47.45 1.3,53.6 2.55,61.55 3,66 3.5,70.65 3.15,71.5 2.9,72.15 2.5,73.1 2,74.6 0.8,80.45 -0.45,86.25 1.15,100.05 2.75,113.8 5.15,119.7 7.5,125.55 9.8,130.3 12.05,135 12.05,137.55 12.05,137.65 11.55,141.9 11.1,147 8.05,153.4 4.9,159.8 11.1,160.7 23.35,161.9 62.05,161.7 98.55,161.55 111.95,161.4 113.2,161.45 117.35,161.35 117.45,161.35 118.45,161.35 119.45,161.35 128.15,161.5 136.85,161.65 141.35,160.9 145.85,160.15 148.5,159.2 149.6,158.7 150.65,158.1 163.35,151 163.35,133.8 163.35,128.45 161.85,122.9 160.15,116.7 157.15,112.5 154.3,108.55 153.15,107.2 150.5,104.05 147.15,101.7 144.85,99.95 142.7,98.9 147.45,93.2 150.35,89.75 156.7,82.15 159.85,74.95 161.7,70.7 162.8,66"/><path fill="#C87373" d="M157.075,34.25Q152.107,20.574 141.55,13.9 131.008,7.226 114.15,7.45 102.15,7.6 90.1,11.45 83.785,13.567 75.95,12.15 73.114,11.657 70.225,11.2 69.794,11.136 62.35,9.65 54.903,8.163 35.6,7.45 16.306,6.733 11.325,12.625 6.352,18.524 5.975,34.2 5.595,49.871 9.175,59.25 12.749,68.629 13.1,69.5 6.8,77.9 8.2,90.45 9.55,103 15.8,116.85 15.95,117.15 16.1,117.5 17.6,120.8 20.15,125.65 22.05,129.75 22.05,132.15 22.05,132.25 21.65,136.15 21.2,140.9 18.45,146.85 15.6,152.8 21.9,153.1 27.4,153.15 34.35,153.25L34.35,153.3Q38.7,153.35 43.5,153.45 53.15,153.55 64.85,153.75 75.25,153.85 87.25,154.05 93.25,154.15 98.55,154.2 108.6,154.3 115.95,154.2 134.7,153.75 139.7,152.1 144.65,150.45 149.45,144.55 154.2,138.65 152.25,126.5 150.3,114.3 139.25,106.7L139.25,106.65Q139.15,106.6 139.1,106.55 135.45,104.7 134.3,103.9 132.35,102.55 132.35,100.35 132.35,96.5 144.5,82.3 150.071,72.096 153.3,63.35 162.031,47.923 157.075,34.25"/><path fill="#CC8080" d="M111.35,7.5L89.825,11.55Q83.612,13.536 75.95,12.15 73.114,11.657 70.225,11.2L43.5,153.45Q53.15,153.55 64.85,153.75L111.35,7.5"/><path fill="#CC8080" d="M144.5,82.3Q172,43.7 147.35,18.5L98.55,154.2Q108.6,154.3 115.95,154.2L139.25,106.7 139.25,106.65Q139.15,106.6 139.1,106.55 135.45,104.7 134.3,103.9 132.35,102.55 132.35,100.35 132.35,96.5 144.5,82.3"/><path fill="#CC8080" d="M31.05,7.4Q3.542,5.488 3.875,33.35 3.891,34.649 3.9,35.85 4.318,40.442 5.1,44.85 5.319,46.068 5.45,47.3L5.45,47.325Q6.653,56.939 13.1,69.5 6.8,77.9 8.2,90.45 9.55,103 15.8,116.85 15.95,117.15 16.1,117.5L31.05,7.4"/><g id="Symbol_24" transform="matrix(1 0 -0.081 1 23 18.4)"><animateTransform attributeName="transform" additive="replace" type="translate" fill="freeze" dur="4s" keyTimes="0;0.08;0.2;1" values="89.49,86.1;89.49,86.1;83.75,86.1;83.75,86.1"/><animateTransform attributeName="transform" additive="sum" type="rotate" fill="freeze" dur="4s" keyTimes="0;0.08;0.2;1" values="4.611,0,0;4.611,0,0;0,0,0;0,0,0"/><animateTransform attributeName="transform" additive="sum" type="skewY" fill="freeze" dur="4s" keyTimes="0;0.08;0.2;1" values="-4.611;-4.611;0;0"/><animateTransform attributeName="transform" additive="sum" type="scale" fill="freeze" dur="4s" keyTimes="0;0.08;0.2;1" values="1,1.003;1,1.003;1,1;1,1"/><animateTransform attributeName="transform" additive="sum" type="scale" fill="freeze" dur="4s" keyTimes="0;0.2;0.201;1" values="0.997,1;0.997,1;1,1;1,1"/><animateTransform attributeName="transform" additive="sum" type="translate" fill="freeze" dur="4s" keyTimes="0;1" values="-71.95,-67.7;-71.95,-67.7"/><path fill="#000" fill-opacity="0.29" d="M44.45,38.45Q55.65,36.25 62.05,36.8 64.4,37 66.1,37.6 66,37.6 65.9,37.65 65.85,37.75 65.7,37.8 63.1,39.55 59.55,42.05 62.25,40.45 68.75,39.2 68.95,39.15 69.05,39.15 68.97,38.558 68.875,37.95L69.8,39.65 69.3,60.25Q70.492,61.195 71.725,61.975 69.96,61.851 67.85,61.65 67.35,61.6 66.85,61.55 66.9,61.7 67.1,62L67.1,62.15Q67.55,63 67.65,63.05 67.7,63.25 67.7,63.3L67.75,63.8Q67.95,64 67.95,64.25 68.45,65.5 68.85,66.7 69.5,66.05 70.05,65.65 71,65 72.05,64.5 74.65,63.45 75.95,65.8 76.85,67.35 76.85,69.1 76.85,70.35 76.25,71.2 75.05,73.05 71.9,73.05 71.5,73.05 71.15,72.95 72,75.25 72.8,77.7 74.3,80.35 74.8,84.75 75.2,87.3 74.85,89.75 73.65,102.75 57.6,110.75 57,110.95 56.4,111.4 53.85,112.65 51.4,113.55 54.3,116.75 56.8,120.1 74.35,127.55 90.4,125.4 90.6,124.9 90.9,124.55 91.6,124.15 92.65,123.75 92.8,123.65 92.95,123.6 93.5,123.4 93.9,123.3 94.7,120.75 98.65,120.55 98.25,118.05 99.85,117.25 101.45,116.4 105.5,115.85 109.5,115.3 111.05,115.85 113.35,116.6 113.75,119.75 114.2,123.45 113.5,127.5 112.75,131.35 111.3,132.3L117.2,132.3Q116.55,134 116.1,135.4L12,135.4Q11.05,134.05 9.75,132.3L15.65,132.3Q13.9,130.95 13.65,129.5 13.3,127.75 15.05,123.65 16.4,120.25 19.95,111.55 19.4,111.4 19.05,111.15 18.85,111.05 18.75,110.95 18.5,110.95 18.25,110.85 16.6,110.45 15.25,109.05 13.3,107.15 12.45,104.6 11.95,102.9 12.25,101.65 11.2,101.25 10,100.8 9.95,100.8 9.85,100.75L9.75,100.75Q9.4,100.6 9.05,100.45 9,100.4 6.95,99.25 7.35,99.45 7.8,99.7 0.25,90.15 4.75,72.1 4.3,71.25 2.25,69.45L0.1,67.65 0,67.2Q1.05,66.45 3.3,66.8 4.9,67.05 6.2,67 6,66.3 5.85,65.5 5.75,64.25 5.8,63.15 5.8,62.8 5.85,62.45 7.05,62.55 8.1,63.55 8.65,64 9.65,65.2 10.9,63.65 12.3,61.35 12.5,61.05 12.65,60.8 13.7,58.85 17.95,54.7 19.75,52.9 22,50.8 28.75,44.6 40.5,40 42.45,39.2 44.45,38.45 M64.95,47.35Q66.5,46.1 69.5,43.85L69.55,46.6Q66.9,46.5 64.95,47.35 M36.3,71L36.9,71.2 36.3,71.05Q35.95,70.95 35.5,70.8 35.05,70.7 34.65,70.6 35,70.65 35.45,70.75 35.95,70.9 36.3,71 M16.85,82.95L16.85,83.15 16.8,83.2 16.85,82.95 M15.35,89L15.4,88.95Q15.35,89.05 15.3,89.2L15.35,89 M14.8,91.05Q15.15,91.35 16,92.1 15.1,91.35 14.75,91.15 14.75,91.1 14.8,91.05 M14.6,94.35Q14.694,94.397 14.8,94.4 14.697,94.4 14.65,94.4L14.6,94.35 M18.35,98.35Q17.95,97.95 17.55,97.5 17.95,97.9 18.4,98.35L18.35,98.35 M21.2,96.25L21.05,96.1 21.15,96.1 21.2,96.25 M46.15,62.1Q46.95,61.85 47.65,61.7 47,61.9 46.25,62.1 45.8,62.2 45.3,62.4 45.75,62.2 46.15,62.1 M41.25,132.3L34.75,132.3Q37.95,131.35 40.95,129.95 41.1,131.15 41.25,132.3 M63.2,129.7Q69.55,131.75 75.8,132.3L64.65,132.3Q63.9,131 63.2,129.7 M28.25,110.45L28.3,110.45Q28.4,110.3 28.45,110.15 30.3,111.4 33,113.1 35.6,114.65 38.35,115.2 39,118 39.5,120.75 38.75,121.75 37.4,122.75 33.75,125.25 32.75,125.5 24.1,127.8 21.7,127.95L21.65,127.85Q22.35,125.3 26.4,114.75 27.1,112.95 27.65,111.55 27.75,111.4 27.8,111.35 28.05,110.9 28.25,110.45 M97.6,123.4Q97.05,123.45 96.65,123.55 97,122.05 98.9,122.6 98.95,123.05 99.05,123.5 98.5,123.35 97.6,123.4 M99.7,127.9Q99.5,127.75 99.35,127.6 99.6,127.3 99.75,127.05 100.65,130.35 102.35,132.15 102.05,132.3 101.9,132.3L101.4,132.3Q100.25,132.15 99.05,130.75 99.1,130.6 99.15,130.5 99.25,130.25 98.85,129.75 99.85,128.75 99.85,128.35 99.85,128.15 99.7,127.9 M96.65,124.6Q96.6,124.6 96.45,124.6L96.45,124.55Q96.5,124.55 96.55,124.55L96.65,124.6 M98.15,132.3L85.4,132.3Q88.05,132.1 90.65,131.55 93.55,132.1 97.45,131.8 97.75,132.1 98.15,132.3"/><path fill="none" stroke="#803C3C" stroke-width="0.25" stroke-linecap="round" stroke-linejoin="round" d="M91.6,123.6Q91.1,123.8 90.55,124.05M92.65,123.75L91.6,123.6"/></g><g id="Symbol_23" transform="matrix(1 0 0 1 110.75 132.95)"><animateTransform attributeName="transform" additive="replace" type="translate" fill="freeze" dur="4s" keyTimes="0;0.08;0.2;1" values="110.75,132.95;110.75,132.95;110.1,132.95;110.1,132.95"/><path fill="#32191C" d="M0,2.15Q0.05,2.6 1.95,2.7 3.75,2.75 6.3,2.4 8.85,2.1 10.65,1.55 12.45,1 12.4,0.55 12.35,0.1 10.45,0.05 8.6,-0.05 6.05,0.25 3.5,0.6 1.7,1.15 -0.05,1.7 0,2.15"/></g><g id="Symbol_22" transform="matrix(1 0 0 1 105.1 132.3)"><animateTransform attributeName="transform" additive="replace" type="translate" fill="freeze" dur="4s" keyTimes="0;0.08;0.2;1" values="105.1,132.3;105.1,132.3;104.45,132.3;104.45,132.3"/><path fill="#75D4D0" d="M19.35,11.85Q20.05,7.8 19.6,4.1 19.2,0.95 17,0.25 15.45,-0.3 11.55,0.3 7.6,0.8 6.05,1.6 4.45,2.4 4.8,4.9 0.2,5.15 0,8.8 0.15,9.35 0.3,10.35 1,13.95 3.6,16.1 5.95,18.1 8.4,18.2 8.55,18.25 8.7,18.25 9,18.2 9.35,18.15 9.05,18.2 8.6,18.3 11.8,18.35 13.65,18.05 15.5,17.75 17.1,16.8 18.6,15.85 19.35,11.85 M11.95,3.05Q9.4,3.4 7.6,3.35 5.7,3.25 5.65,2.8 5.6,2.35 7.35,1.8 9.15,1.25 11.7,0.9 14.25,0.6 16.1,0.7 18,0.75 18.05,1.2 18.1,1.65 16.3,2.2 14.5,2.75 11.95,3.05 M5.1,7Q5.8,13.65 8.45,16.55 8.2,16.7 8.05,16.75 6.55,16.95 4.9,14.65 3.8,13.15 3.2,11.6 3.05,11.3 2.8,10.4 2.45,9.55 2.85,7.95 3.2,6.45 5.1,7"/></g><g id="Symbol_21" transform="matrix(1 0 0 1 110.8 135.15)"><animateTransform attributeName="transform" additive="replace" type="translate" fill="freeze" dur="4s" keyTimes="0;0.08;0.2;1" values="110.8,135.15;110.8,135.15;110.15,135.15;110.15,135.15"/><path fill="#6D574E" d="M11.65,1.05Q11.65,1.1 11.7,1.65 11.85,2.2 12.5,2.2 13.4,2.2 13.4,1.05 13.4,0.05 12.5,0 11.65,0 11.65,1.05"/><path fill="#6D574E" d="M10.5,8.65Q10.75,9.15 11.3,9.15 11.75,9.15 12,8.8 12.15,8.55 12.15,8.25 12.15,7.35 11.3,7.35 10.45,7.35 10.45,8.25L10.5,8.65"/><path fill="#6D574E" d="M8.35,3.7Q7.5,3.7 7.5,4.6L7.55,5Q7.8,5.5 8.35,5.5 8.8,5.5 9.05,5.15 9.2,4.85 9.2,4.6 9.2,3.7 8.35,3.7"/><path fill="#6D574E" d="M0.9,2Q0.65,2 0.55,2.1 0,2.25 0,2.95 0,3 0.1,3.45 0.25,3.8 0.55,3.9 0.7,3.95 0.9,3.95 1.3,3.95 1.6,3.55 1.75,3.25 1.75,2.95 1.75,1.95 0.9,2"/><path fill="#6D574E" d="M4.7,7.7Q4.9,7.45 4.9,7.2 4.9,6.3 4,6.3 3.15,6.3 3.15,7.2L3.25,7.6Q3.45,8.1 4,8.1 4.45,8.1 4.7,7.7"/><path fill="#6D574E" d="M4.35,14L4.45,14.4Q4.6,14.9 5.2,14.9 5.65,14.9 5.9,14.5 6.1,14.25 6.1,14 6.1,13.1 5.2,13.1 4.35,13.1 4.35,14"/><path fill="#6D574E" d="M9.2,13.1L9.3,13.5Q9.5,14 10.1,14 10.5,14 10.75,13.65 10.95,13.35 10.95,13.1 10.95,12.2 10.1,12.2 9.2,12.2 9.2,13.1"/></g><g id="Symbol_20" transform="matrix(1 0 0 1 108.95 107.35)" opacity="1"><animateTransform attributeName="transform" additive="replace" type="translate" fill="freeze" dur="4s" keyTimes="0;0.51;0.52;0.521;0.99;1" values="115.45,121.05;114.8,113.569;114.8,113.569;114.8,126.061;115.45,121.05;115.45,121.05"/><animateTransform attributeName="transform" additive="sum" type="scale" fill="freeze" dur="4s" keyTimes="0;0.51;0.52;0.521;0.99;1" values="1,1;1,1.301;1,1.301;1,0.565;1,1;1,1"/><animateTransform attributeName="transform" additive="sum" type="translate" fill="freeze" dur="4s" keyTimes="0;0.52;0.521;0.99;1" values="-6.5,-13.7;-6.5,-13.7;-6.5,-13.65;-6.5,-13.7;-6.5,-13.7"/><animate attributeName="opacity" fill="freeze" dur="4s" keyTimes="0;0.51;0.52;0.99;1" values="1;0;0;1;1"/><path fill="#FFF" fill-opacity="0.682" d="M8.6,0Q6.45,1.8 8.2,5.6 9.95,9.35 6.75,11.05 3.55,12.7 3.45,15.65 3.35,18.55 5.8,19.35 8.2,20.15 8.2,21.65 8.2,22.45 7.75,23.4L6.6,26.75Q8.65,24.3 9.2,21.6 9.2,19.5 6.55,17.7 3.85,15.85 9.35,12.65 14.8,9.4 12.25,7.95 9.7,6.5 9.05,3.7 8.4,0.85 8.6,0"/><path fill="#FFF" fill-opacity="0.682" d="M1.8,15.6Q1.9,16.45 2.15,18.6 2.6,22.4 4.2,22.25 5.8,22.05 6.15,22.45 6.45,22.85 6.5,23.4 6.55,23.85 5.9,25.4 5.2,26.9 5.05,27.4 4.8,26.95 4.85,26.85 4.5,25.85 4.2,25.65 3.8,25.4 2.6,24.95 1.5,24.5 1.2,24.2 0.35,23.35 0.05,22.25 -0.1,21.6 0.3,20.35 0.65,19.05 1.15,17.95 1.6,16.8 1.8,15.6"/></g><g id="ear" transform="matrix(0.562 -0.58 0.582 0.6 24.8 120.25)"><animateTransform attributeName="transform" additive="replace" type="translate" fill="freeze" dur="4s" keyTimes="0;0.08;0.2;1" values="24.8,120.25;24.8,120.25;22.4,120.25;22.4,120.25"/><animateTransform attributeName="transform" additive="sum" type="rotate" fill="freeze" dur="4s" keyTimes="0;1" values="-44.116,0,0;-44.116,0,0"/><animateTransform attributeName="transform" additive="sum" type="skewY" fill="freeze" dur="4s" keyTimes="0;1" values="-1.768;-1.768"/><animateTransform attributeName="transform" additive="sum" type="scale" fill="freeze" dur="4s" keyTimes="0;1" values="0.808,0.836;0.808,0.836"/><path fill="#FFCB99" d="M13.9,2.4Q12.35,1.25 10.4,0.3 5.85,-1.65 3.6,2.75 2.1,5.6 2.1,8.8 2.1,11.1 3.15,12.8 5.2,16.15 10.65,16.15 14.55,16.15 18.7,8.95 19,9.15 18.75,8.55 18.5,7.95 17.15,5.85 15.75,3.75 13.9,2.4"/><path fill="#E28C36" fill-opacity="0.8" d="M6.15,9.45Q6.75,8.25 8.8,9.45 10.75,10.6 11.75,12.2 11.95,10.8 9.5,8.4 7.7,6.65 6.5,6.65 6,6.65 5.65,6.95 4.25,7.95 4.2,8.9 4.2,9 4.2,9.1 4.2,9.85 4.75,10.15 5.5,10.55 6.15,9.45"/></g><g id="Symbol_19" transform="matrix(1 0 -0.069 1 29.1 121.7)"><animateTransform attributeName="transform" additive="replace" type="translate" fill="freeze" dur="4s" keyTimes="0;0.08;0.2;1" values="42.45,136.25;42.45,136.25;40.45,136.25;40.45,136.25"/><animateTransform attributeName="transform" additive="sum" type="rotate" fill="freeze" dur="4s" keyTimes="0;0.08;0.2;1" values="3.932,0,0;3.932,0,0;0,0,0;0,0,0"/><animateTransform attributeName="transform" additive="sum" type="skewY" fill="freeze" dur="4s" keyTimes="0;0.08;0.2;1" values="-3.932;-3.932;0;0"/><animateTransform attributeName="transform" additive="sum" type="scale" fill="freeze" dur="4s" keyTimes="0;0.08;0.2;1" values="1,1.002;1,1.002;1,1;1,1"/><animateTransform attributeName="transform" additive="sum" type="scale" fill="freeze" dur="4s" keyTimes="0;0.2;0.201;1" values="0.998,1;0.998,1;1,1;1,1"/><animateTransform attributeName="transform" additive="sum" type="translate" fill="freeze" dur="4s" keyTimes="0;1" values="-14.35,-14.55;-14.35,-14.55"/><path fill="#F60" d="M27.5,24.55Q28.1,24.2 28.75,23.9 28.3,22.35 28,21.25 27.75,21.15 27.55,21.1 27.6,20.6 27.65,20.2 27.45,19.5 27.35,19.15 26.45,16.85 25.85,15 25.1,16.35 23.3,17.7 19.75,20.2 18.75,20.45 10.35,22.75 7.95,22.9L7.9,22.8Q8.6,20.25 12.55,9.7 14.35,4.9 15.25,2.85 15.2,2.7 15.05,2.65 15,2.45 14.95,2.35 14.75,2.1 14.45,2.1 13.7,1.55 12.35,0.95 9.85,-0.15 8.8,0.05 8.4,1 7.9,2.25 3.1,14.4 1.45,18.6 -0.25,22.7 0.05,24.45 0.45,26.4 3.3,28.1 6.15,29.8 14.55,28.6 21.55,27.6 27.5,24.55"/></g><g id="Symbol_18" transform="matrix(1 0 0 1 60.55 132.55)"><animateTransform attributeName="transform" additive="replace" type="translate" fill="freeze" dur="4s" keyTimes="0;0.08;0.2;1" values="60.55,132.55;60.55,132.55;59.9,132.55;59.9,132.55"/><path fill="#FFCB99" stroke-width="0.25" stroke-linecap="round" stroke-linejoin="round" d="M48.9,12.9Q48.75,12.85 48.6,12.9L48.25,12.9Q48.1,12.95 47.95,12.95L47.9,13Q48.25,12.95 48.9,12.9"/><path fill="#F4A571" d="M46.05,8.85L45.95,8.85 46,8.9 46.05,8.9 46.05,8.85"/><path fill="#FFCB99" d="M46.25,8.45Q46.25,8.4 46.25,8.3 46.05,8.4 46,8.5 45.8,8.8 46.05,8.7 46.1,8.6 46.45,8.4 46.25,8.5 46.25,8.45"/><path fill="#FFCB99" d="M46.75,8.1Q46.55,8.15 46.4,8.25 46.4,8.3 46.45,8.35 46.6,8.25 46.75,8.1"/><path fill="#FFCB99" d="M41.35,9.5Q41.05,10.5 41.05,12.25 41.1,14.45 41.55,15.65 44.6,16.2 48.7,15.85 49.55,15.4 49.8,14.55 49.95,14.3 49.55,13.8 50.55,12.8 50.55,12.45 50.55,12.25 50.35,12 50.2,11.85 50.1,11.75 50.85,10.35 50.8,10 50.7,9.85 50.5,9.6 50.2,9.45 50.15,9.4 50.3,8.95 50.4,8.5 50.45,8 50.35,7.9 50,7.45 48.4,7.5L49.3,7.55Q47.35,7.85 46.75,8.1 46.6,8.25 46.45,8.35L46.45,8.4Q46.1,8.6 46.05,8.7 45.95,8.75 45.95,8.85L46.05,8.85 46.05,8.9 46,8.9Q45.95,9 45.8,9.15 45.75,9.6 45.95,9.8 46.2,10 47.2,10.15 47.55,10.2 47.95,10.2 48.5,10.2 49,10.05 48.5,10.2 47.95,10.2 47.55,10.25 47.2,10.5 46.05,11.05 45.95,12.05 45.85,12.8 47.25,13 47.35,13.05 47.55,13.05 47.7,13.05 47.9,13L47.95,12.95Q48.1,12.95 48.25,12.9L48.6,12.9Q48.75,12.85 48.9,12.9 48.25,12.95 47.9,13 47.7,13.05 47.55,13.05 47.3,13.15 46.95,13.4 46.4,13.7 46.35,14.1 46.25,14.85 47.85,15.1 48.6,15.25 49.2,15.05 48.6,15.25 47.85,15.1 46.25,14.85 46.35,14.1 46.4,13.7 46.95,13.4 47.3,13.15 47.55,13.05 47.35,13.05 47.25,13 45.85,12.8 45.95,12.05 46.05,11.05 47.2,10.5 47.55,10.25 47.95,10.2 47.55,10.2 47.2,10.15 46.2,10 45.95,9.8 45.75,9.6 45.8,9.15 45.75,9.15 45.7,9.1L45.65,9.1 45.8,8.85 45.85,8.85Q45.9,8.85 45.95,8.85 45.95,8.75 46.05,8.7 45.8,8.8 46,8.5 46.05,8.4 46.25,8.3 46.2,8.1 46.15,7.9 45.7,7.3 45.4,7.2 45,7.3 43.8,7.7 42.6,8.2 41.8,8.65 41.5,8.95 41.35,9.5 M44.85,8.8Q44.938,8.8 45.025,8.85 44.944,8.806 44.9,8.85L44.85,8.8"/><path fill="#F4A571" d="M46.2,8.95L46.2,8.85Q46.15,8.85 46.1,8.9 46.15,8.9 46.2,8.95"/><path fill="#F4A571" d="M47.5,8.8Q47.454,8.751 47.5,8.75L47.45,8.75 47.5,8.8"/><path fill="#F60" d="M41.05,12.25Q41.05,10.5 41.35,9.5 21.8,12.15 0,0 3.2,11.45 4.6,9.5 23.55,19.25 41.55,15.65 41.1,14.45 41.05,12.25"/><path fill="none" stroke="#803C3C" stroke-width="0.25" stroke-linecap="round" stroke-linejoin="round" d="M46.75,8.1Q47.35,7.85 49.3,7.55M46.4,8.25Q46.55,8.15 46.75,8.1M46.45,8.4L46.45,8.35"/><path fill="none" stroke="#803C3C" stroke-width="0.25" stroke-linecap="round" stroke-linejoin="round" d="M48.9,12.9Q48.75,12.85 48.6,12.9L48.25,12.9Q48.1,12.95 47.95,12.95L47.9,13Q48.25,12.95 48.9,12.9"/><path fill="none" stroke="#803C3C" stroke-width="0.25" stroke-linecap="round" stroke-linejoin="round" d="M45.95,8.85Q45.85,8.95 45.8,9.1L45.8,9.15"/><path fill="none" stroke="#803C3C" stroke-width="0.25" stroke-linecap="round" stroke-linejoin="round" d="M46.25,8.3Q46.05,8.4 46,8.5 45.8,8.8 46.05,8.7 46.1,8.6 46.45,8.4"/><path fill="none" stroke="#803C3C" stroke-width="0.25" stroke-linecap="round" stroke-linejoin="round" d="M46.45,8.35Q46.6,8.25 46.75,8.1"/><path fill="none" stroke="#803C3C" stroke-width="0.25" stroke-linecap="round" stroke-linejoin="round" d="M46.05,8.7Q45.95,8.75 45.95,8.85M45.8,9.15Q45.75,9.6 45.95,9.8 46.2,10 47.2,10.15 47.55,10.2 47.95,10.2 48.5,10.2 49,10.05M47.95,10.2Q47.55,10.25 47.2,10.5 46.05,11.05 45.95,12.05 45.85,12.8 47.25,13 47.35,13.05 47.55,13.05 47.7,13.05 47.9,13M47.55,13.05Q47.3,13.15 46.95,13.4 46.4,13.7 46.35,14.1 46.25,14.85 47.85,15.1 48.6,15.25 49.2,15.05"/></g><g id="Symbol_17" transform="matrix(1 0 -0.193 1 53.3 129.2)"><animateTransform attributeName="transform" additive="replace" type="translate" fill="freeze" dur="4s" keyTimes="0;0.08;0.2;1" values="65.05,140.85;65.05,140.85;63.75,140.85;63.75,140.85"/><animateTransform attributeName="transform" additive="sum" type="rotate" fill="freeze" dur="4s" keyTimes="0;0.08;0.2;1" values="10.931,0,0;10.931,0,0;0,0,0;0,0,0"/><animateTransform attributeName="transform" additive="sum" type="skewY" fill="freeze" dur="4s" keyTimes="0;0.08;0.2;1" values="-10.931;-10.931;0;0"/><animateTransform attributeName="transform" additive="sum" type="scale" fill="freeze" dur="4s" keyTimes="0;0.08;0.2;1" values="1,1.018;1,1.018;1,1;1,1"/><animateTransform attributeName="transform" additive="sum" type="scale" fill="freeze" dur="4s" keyTimes="0;0.2;0.201;1" values="0.982,1;0.982,1;1,1;1,1"/><animateTransform attributeName="transform" additive="sum" type="translate" fill="freeze" dur="4s" keyTimes="0;1" values="-14,-11.65;-14,-11.65"/><path fill="#F96" d="M12.65,0.2L0,0Q2.8,11.8 3.75,23.35L28,23.35Q22.4,11.1 12.65,0.2"/><path fill="#F96" d="M10.7,3.5Q10.65,2.8 10.15,2.3 9.7,1.85 9.05,1.85 8.45,1.9 8,2.45 7.6,2.95 7.65,3.65 7.65,4.35 8.15,4.85 8.4,5.1 8.8,5.25L8.65,11.75 11.5,11.65 9.75,5.15Q10.05,5 10.3,4.7 10.7,4.2 10.7,3.5"/><path fill="#333" d="M9.2,5.25Q8.95,5.3 8.8,5.25L8.65,11.75 11.5,11.65 9.75,5.15Q9.5,5.25 9.2,5.25"/><path fill="#666" d="M10.3,4.7Q10.7,4.2 10.7,3.5 10.65,2.8 10.15,2.3 9.7,1.85 9.05,1.85 8.45,1.9 8,2.45 7.6,2.95 7.65,3.65 7.65,4.35 8.15,4.85 8.4,5.1 8.8,5.25 8.95,5.3 9.2,5.25 9.5,5.25 9.75,5.15 10.05,5 10.3,4.7"/></g><g style="display:none;"><g id="Symbol_16" transform="matrix(1 0 0 0.745 3.95 6.8)" opacity="0"><animateTransform attributeName="transform" additive="replace" type="translate" fill="freeze" dur="4s" keyTimes="0;0.07;0.29;0.99;1" values="82.75,38.65;82.75,38.65;82.75,40.306;82.75,45.85;82.75,45.85"/><animateTransform attributeName="transform" additive="sum" type="scale" fill="freeze" dur="4s" keyTimes="0;0.07;0.29;0.99;1" values="1,0.745;1,0.745;1,0.806;1,1;1,1"/><animateTransform attributeName="transform" additive="sum" type="translate" fill="freeze" dur="4s" keyTimes="0;1" values="-78.8,-42.75;-78.8,-42.75"/><animate attributeName="opacity" fill="freeze" dur="4s" keyTimes="0;0.07;0.29;1" values="0;0;1;1"/><path fill="#FFF" d="M157.6,46.05Q157.6,44.55 157.2,42.45 156.45,38.9 154.65,33.8 151.6,25.65 150.15,22.1 149.5,20.25 142.6,11.2 135.65,2.1 119.15,1.5 102.6,0.85 99.7,2.8 99.7,1.5 93.55,2.8 87.35,4.1 75.6,4.65 63.85,5.2 53.15,2.6 42.4,-0.05 33.5,0 15.646,0.158 8.775,4.875 1.903,9.58 -0.825,20.775 -3.554,31.976 0,38.1 10.9,46.9 38,50.8L38.3,50.85Q38.45,50.85 38.6,50.9 38.85,50.95 39.2,51L40.45,51.15Q41.55,51.25 42.7,51.4 42.55,51.8 42.45,52.2 38.1,66.35 69.75,65.2 73,66.35 77.75,71.85 83.95,79.15 90.55,82.4 98.85,85.5 109.05,85.5 127.05,85.5 140.6,77.15 155.9,67.65 157.45,50.55 157.6,48.35 157.6,46.05 M38.8,50.9Q39.45,50.95 40.7,50.95 39.9,51 39.4,51L38.8,50.9 M41.4,51.1L41.85,51.15Q41.95,51.15 42.05,51.2 41.7,51.15 41.4,51.1"/></g><animate attributeName="display" fill="freeze" repeatCount="1" dur="4s" keyTimes="0;0.07;1" values="none;inline;inline"/></g><g id="Symbol_17_l1" transform="matrix(0.996 0.087 -0.087 0.996 21.15 49.8)"><animateTransform attributeName="transform" additive="replace" type="translate" fill="freeze" dur="4s" keyTimes="0;0.08;0.2;0.29;0.4;0.56;0.71;1" values="57.371,132.18;57.371,132.18;56.137,132.187;56.1,132.2;56.1,132.2;56.1,131.75;56.1,132.2;56.1,132.2"/><animateTransform attributeName="transform" additive="sum" type="rotate" fill="freeze" dur="4s" keyTimes="0;0.08;0.2;0.29;1" values="4.996,0,0;4.996,0,0;-1.484,0,0;0,0,0;0,0,0"/><animateTransform attributeName="transform" additive="sum" type="translate" fill="freeze" dur="4s" keyTimes="0;0.2;0.29;1" values="-43.25,-78.85;-43.25,-78.85;-43.25,-78.9;-43.25,-78.9"/><path fill="#FFB366" d="M15.6,46.7L15.65,46.65 15.6,46.65 15.6,46.7"/><path fill="#3C3A3D" d="M20.6,35.45Q21.05,35.55 21.1,35.55 21.45,35.25 21.9,35.2 21.3,35.25 20.6,35.45"/><path fill="#FFB366" d="M14.2,57.7Q14.447,57.96 14.75,58.275 15.67,59.257 17.1,60.8 17.75,61.5 18.3,62.1 19.2,63.25 19.75,63.85L19.75,63.95 19.9,64.05Q20.05,64.05 20.1,64.05 20.25,63.7 20.4,63.6 19.9,62.8 18.7,61.3 18.2,60.7 17.6,59.95 16.9,59.1 16.45,58.45 15.485,58.093 14.75,57.875 14.457,57.771 14.2,57.7"/><path fill="#FFCB99" d="M61.35,24.5L61.05,24.4Q57.75,23.85 54.4,23.75 50.9,23.75 45.25,25.45 40.25,26.85 22.15,34.8 24.25,34.1 26.25,33.85 26.7,33.75 27.25,33.7 28.35,33.5 29.3,33.5 32.1,33.5 34.65,34.1 35.1,34.25 35.5,34.35L36.1,34.55Q36,34.55 35.9,34.65 34.65,35.05 33.1,35.75 28.7,37.7 21.75,41.15L19.4,42.45Q18.2,43.3 16.7,47.75 15.1,52.25 15,52.3 15.1,52.25 15.1,52.3 14.957,52.642 14.75,53.25 14.594,53.698 14.4,54.3L14.75,54.625Q16.02,55.682 20.55,59.4 20.7,59.4 20.7,59.45L20.75,59.7Q21.1,60.15 21.6,60.7L21.55,60.7Q18.6,59.35 17.7,58.95 16.6,58.55 16.45,58.45 16.9,59.1 17.6,59.95 18.2,60.7 18.7,61.3 19.9,62.8 20.4,63.6 20.25,63.7 20.1,64.05 20.05,64.05 19.9,64.05L19.75,63.95Q19.8,64.1 20,64.25 19.8,64.3 20.6,66.2 21.3,67.55 21.1,67.45 21.15,67.5 21.15,67.6L21.25,67.65Q21.15,67.65 21.1,67.6 21.05,67.5 21,67.6L21.05,67.6Q22,68.35 23.05,69.4 23.65,70.1 23.95,70.4L24.05,70.6 25.5,71.75Q27.35,73.3 32.3,76.45 39.55,80.9 48.95,77.3 52,76.4 55.1,74.7 55.75,74.3 56.35,74.1 59.436,72.522 61.95,70.75 72.237,63.536 73.2,53.1 73.75,48.8 72.2,44.15 70.905,40.122 69.7,36.6 69.651,36.45 69.6,36.3 69.9,36.4 70.3,36.4 73.4,36.4 74.55,34.55 75.1,33.7 75.1,32.45 75.1,30.7 74.3,29.15 73,26.8 70.45,27.85 69.4,28.35 68.5,29 67.9,29.4 67.3,30.05 66.9,28.85 66.45,27.6 66.4,27.35 66.2,27.15L66.2,26.65Q66.2,26.6 66.15,26.4 66.05,26.3 65.6,25.5L65.6,25.35Q65.4,25 65.3,24.85 65.2,24.9 65.15,24.85 64.95,24.85 64.85,24.9 64.15,24.75 63.35,24.65 62.25,24.6 61.35,24.5 M71.9,31.25Q72.7,31.8 72.75,32.25 72.75,32.35 72.75,32.45 72.75,32.8 72.4,32.95 72,33.15 71.65,32.6 71.4,32 70.15,32.6 69.1,33.2 68.5,34 68.4,33.3 69.8,32.05 70.75,31.1 71.5,31.1 71.75,31.1 71.9,31.25"/><path fill="#FFB366" d="M41,40.1Q40.55,40.7 40.75,40.6 41,40.6 41,40.35L41,40.1"/><path fill="#E28C36" fill-opacity="0.8" d="M71.9,31.25Q72.7,31.8 72.75,32.25 72.75,32.35 72.75,32.45 72.75,32.8 72.4,32.95 72,33.15 71.65,32.6 71.4,32 70.15,32.6 69.1,33.2 68.5,34 68.4,33.3 69.8,32.05 70.75,31.1 71.5,31.1 71.75,31.1 71.9,31.25"/><path fill="#4A2B0B" d="M39.05,60.15Q37.8,59.85 37.55,60.05 37.45,60.15 37.45,60.25L37.4,60.25Q37.35,60.25 37.3,60.25 37.4,60.35 37.6,60.5 37.8,60.7 38.2,60.95 38.9,61.4 41.8,61.2 42.35,61.2 42.95,61.2 48.4,61.1 54.1,58.45 56,57.5 57.45,56.15 58.35,55.2 59,54.35 58.9,53.85 58.45,54.1 58.15,54.65 56.7,55.9 55.2,57.15 54.3,57.6 52.1,58.6 50.2,59.25 50,59.25 49.85,59.35 46.05,60.6 42.6,60.5 40.75,60.45 39.05,60.15"/><path fill="#FFCB99" d="M49.85,59.8L49.95,59.75Q48.8,60.1 47.7,60.35 48.75,60.15 49.85,59.8"/><g id="n" transform="matrix(0.431 -0.191 0.186 0.445 46.8 45.9)"><path fill="#D96635" d="M15,8.55Q15,3.75 12.25,2.3L12.3,2.3Q11,1.45 7.85,1.4 7.25,1.4 6.55,1.4 3.3,1.5 2.9,0.4 2.85,0.2 2.65,0.1 2.45,-0.05 2.3,0.05 2.1,0.05 2,0.25 1.85,0.45 1.95,0.65 2.3,2.5 6.55,2.4 7.3,2.4 7.85,2.4 10.6,2.45 11.75,3.15 14,4.45 14,8.55 14,8.75 14,8.9 13.8,10.65 12,11.8 10.3,12.8 7.8,13.05 7.2,13.1 6.55,13.1 3.75,13.1 0.75,11.45 0.55,11.35 0.35,11.45 0.15,11.5 0.05,11.7 -0.05,11.85 0.05,12.05 0.1,12.25 0.3,12.35 3.55,14.1 6.55,14.1 7.3,14.1 7.9,14.05 10.6,13.8 12.5,12.65L12.55,12.65Q14.85,11.2 15,8.9 15,8.75 15,8.55"/></g><g style="display:none;"><g id="Symbol_44" transform="matrix(1 0 0 1 26.1 31.8)"><animateTransform attributeName="transform" additive="replace" type="translate" fill="freeze" dur="4s" keyTimes="0;0.14;0.17;1" values="26.1,31.8;26.1,31.8;26.15,31.95;26.15,31.95"/><use xlink:href="#eyeg3" transform="matrix(0.368 -0.283 -0.226 -0.313 4.25 27.85)"/><use xlink:href="#eyeg3" transform="matrix(0.328 -0.252 -0.205 -0.284 31.2 10.5)"/></g><animate attributeName="display" fill="freeze" repeatCount="1" dur="4s" keyTimes="0;0.14;1" values="none;inline;inline"/></g><g><g id="Symbol_43" transform="matrix(1 0 0 1 24.5 29.9)"><animateTransform attributeName="transform" additive="replace" type="translate" fill="freeze" dur="4s" keyTimes="0;0.1;0.13;1" values="44.4,44.7;44.4,44.7;44.45,45.318;44.45,45.318"/><animateTransform attributeName="transform" additive="sum" type="skewY" fill="freeze" dur="4s" keyTimes="0;0.1;0.13;1" values="0;0;-2.223;-2.223"/><animateTransform attributeName="transform" additive="sum" type="scale" fill="freeze" dur="4s" keyTimes="0;0.1;0.13;1" values="1,1;1,1;1.001,0.909;1.001,0.909"/><animateTransform attributeName="transform" additive="sum" type="scale" fill="freeze" dur="4s" keyTimes="0;0.13;0.131;1" values="1,1;1,1;0.999,1;0.999,1"/><animateTransform attributeName="transform" additive="sum" type="translate" fill="freeze" dur="4s" keyTimes="0;0.1;0.13;1" values="-19.9,-14.8;-19.9,-14.8;-19.9,-14.9;-19.9,-14.9"/><g id="eyeg2" transform="matrix(0.422 -0.188 0.155 0.348 0.4 20.5)"><path fill="#744236" d="M19,21.9Q22.4,18 22.4,12.5 22.4,7.05 19,3.15 15.6,-0.75 10.85,-0.75 6.05,-0.75 2.6,3.15 -0.75,7.05 -0.75,12.5 -0.75,18 2.6,21.9 6.05,25.8 10.85,25.8 15.6,25.8 19,21.9"/><path fill="#FFF" d="M17.95,3.775Q14.933,0.259 10.65,0.25 6.366,0.259 3.3,3.775 0.253,7.301 0.25,12.25 0.253,17.199 3.3,20.725 6.366,24.241 10.65,24.25 14.933,24.241 17.95,20.725 21.046,17.199 21.05,12.25 21.046,7.301 17.95,3.775"/><path fill="#604339" d="M16.95,4.2Q16.7,3.8 16.45,3.4 15.5,2.05 14.15,2.05 12.75,2.05 11.8,3.4 10.9,4.75 10.9,6.6 10.9,8.5 11.8,9.85 12.643,11.003 13.85,11.125 13.992,11.15 14.15,11.15 15.5,11.15 16.45,9.85 16.644,9.57 16.8,9.275 17.361,8.163 17.4,6.75 17.4,6.65 17.4,6.6 17.4,5.3 16.95,4.2"/><path fill="#3C3A3D" d="M16.65,5.2Q16.2,4.65 15.55,4.65 14.85,4.65 14.4,5.2 13.95,5.8 13.95,6.65 13.95,7.5 14.4,8.05 14.85,8.65 15.55,8.65 16.2,8.65 16.65,8.05 17.1,7.5 17.1,6.65 17.1,5.8 16.65,5.2"/><path fill="#FFF" d="M10.95,6.85Q11.7,6.85 12.15,6.25 12.65,5.7 12.65,4.8 12.65,3.95 12.15,3.35 11.7,2.75 10.95,2.75 10.25,2.75 9.75,3.35 9.3,3.95 9.3,4.8 9.3,5.7 9.75,6.25 10.25,6.85 10.95,6.85"/></g><g id="eyeg_1" transform="matrix(0.376 -0.167 0.14 0.316 27.8 4)"><path fill="#744236" d="M19,21.9Q22.4,18 22.4,12.5 22.4,7.05 19,3.15 15.6,-0.75 10.85,-0.75 6.05,-0.75 2.6,3.15 -0.75,7.05 -0.75,12.5 -0.75,18 2.6,21.9 6.05,25.8 10.85,25.8 15.6,25.8 19,21.9"/><path fill="#FFF" d="M17.95,3.775Q14.933,0.259 10.65,0.25 6.366,0.259 3.3,3.775 0.253,7.301 0.25,12.25 0.253,17.199 3.3,20.725 6.366,24.241 10.65,24.25 14.933,24.241 17.95,20.725 21.046,17.199 21.05,12.25 21.046,7.301 17.95,3.775"/><path fill="#604339" d="M17.2,4.6Q16.95,4.2 16.7,3.8 15.75,2.45 14.4,2.45 13,2.45 12.05,3.8 11.15,5.15 11.15,7 11.15,8.9 12.05,10.25 12.748,11.205 13.7,11.45 14.029,11.55 14.4,11.55 15.75,11.55 16.7,10.25 16.994,9.826 17.2,9.35 17.616,8.362 17.65,7.15 17.65,7.05 17.65,7 17.65,5.7 17.2,4.6"/><path fill="#3C3A3D" d="M16.9,5.6Q16.45,5.05 15.8,5.05 15.1,5.05 14.65,5.6 14.2,6.2 14.2,7.05 14.2,7.9 14.65,8.45 15.1,9.05 15.8,9.05 16.45,9.05 16.9,8.45 17.35,7.9 17.35,7.05 17.35,6.2 16.9,5.6"/><path fill="#FFF" d="M9.55,5.2Q9.55,6.1 10,6.65 10.5,7.25 11.2,7.25 11.95,7.25 12.4,6.65 12.9,6.1 12.9,5.2 12.9,4.35 12.4,3.75 11.95,3.15 11.2,3.15 10.5,3.15 10,3.75 9.55,4.35 9.55,5.2"/></g></g><animate attributeName="display" fill="freeze" repeatCount="1" dur="4s" keyTimes="0;0.14;1" values="inline;none;none"/></g><path fill="#FFB366" d="M19.4,42.45Q19.2,42.65 19.05,42.9 19,43.05 18.9,43.25 19,43.25 19.1,43.15 20.05,42.15 21.45,41.6L21.55,41.9Q22.5,41.7 35.3,35.55 36.1,35.05 36.85,34.75L35.9,34.65Q34.65,35.05 33.1,35.75 28.7,37.7 21.75,41.15L19.4,42.45"/><path fill="#FFB366" d="M63.35,24.65Q62.25,24.6 61.35,24.5L61.05,24.4Q57.75,23.85 54.4,23.75 50.9,23.75 45.25,25.45 40.25,26.85 22.15,34.8 24.25,34.1 26.25,33.85 26.7,33.75 27.25,33.7 28.35,33.5 29.3,33.5L28.7,33.4Q45.55,26.1 55.75,26.15 65.95,26.3 65.75,26.35 65.6,26.5 65.75,26.6 65.9,26.6 66.15,26.65L66.2,26.65Q66.2,26.6 66.15,26.4L66.05,26.4 66.05,26.35 66.15,26.4Q66.05,26.3 65.6,25.5L65.6,25.35Q65.4,25 65.3,24.85 65.2,24.9 65.15,24.85 64.95,24.85 64.85,24.9 64.15,24.75 63.35,24.65"/><g id="Symbol_42" transform="matrix(1 0 0 1 23.1 28.05)"><path fill="#3C3A3D" d="M29.9,0.8Q28.05,1.9 28.8,3.05 32.1,1.55 34.25,1.3 34,0.3 33.95,0 31.35,-0.05 29.9,0.8"/><path fill="#3C3A3D" d="M0.4,18.65Q3.25,16.4 5.15,15.6 4.75,14.6 4.5,14.35 2.15,14.9 0.9,16.1 -0.65,17.8 0.4,18.65"/></g><path fill="#604339" d="M81.95,18.65Q84.2,18.45 85.15,18.25 85.35,18.15 86.5,19 84.898,17.45 83.45,16.25 80.662,13.966 78.4,12.95 77.35,12.45 76.35,12.05 76.2,11.95 76.05,11.9 68.15,8.7 63.55,10.7 65.1,9.4 68,7.15 64.05,6.55 57.6,7.1 61.65,2.9 64.25,1.15 64.35,1.1 64.45,1 64.55,0.95 64.6,0.95 62.95,0.35 60.65,0.15 54.4,-0.45 43.5,1.8 41.5,2.55 39.6,3.35 28.1,7.95 21.55,14.15 20.382,15.24 19.35,16.25 18.391,17.185 17.55,18.05 14.34,21.299 13,23.2 12.628,23.727 12.4,24.15 12.2,24.4 12.05,24.7 10.65,27 9.45,28.55 8.45,27.35 7.95,26.9 6.9,25.9 5.75,25.8 5.7,26.15 5.65,26.5 5.6,27.55 5.75,28.85 5.9,29.65 6.05,30.35 4.8,30.4 3.25,30.1 1.05,29.8 0,30.55L0.1,30.95Q0.1,31 2.2,32.8 4.25,34.6 4.65,35.45 0.25,53.5 0.35,58.9 0.6,59.05 0.9,59.3 8.75,63.7 8.9,63.8 9.2,63.95 9.55,64.1L9.6,64.1Q9.7,64.15 9.75,64.15 11.523,64.81 13,65.35 16.562,66.649 18.4,67.25L20.45,67.5Q20.7,67.55 20.95,67.6 21.05,67.6 21.25,67.65 21.2,67.55 21.1,67.5 21.35,67.6 21.05,67.1 20.7,66.6 20.7,66.5 20.7,66.35 20,64.8 19.25,63.25 18.25,62.1 17.75,61.55 17.15,60.85 15.25,58.75 14.25,57.7 15.1,58 16.4,58.5 16.55,58.55 17.7,59 18.6,59.4 21.6,60.8 21.6,60.7 21.55,60.65 21.4,60.45 21.3,60.3L21.3,60.25Q21.05,59.95 20.8,59.7L20.6,59.4Q15.25,55.1 14.45,54.5 15.1,52.3 15.05,52.35 15.15,52.25 16.7,47.75 18.25,43.35 19.4,42.5L21.75,41.15Q28.7,37.75 33.1,35.8 34.65,35.15 35.95,34.6 36,34.6 36.1,34.55L35.5,34.4Q35.1,34.3 34.7,34.15 32.15,33.5 29.35,33.5 28.35,33.55 27.3,33.65 26.75,33.75 26.25,33.85 24.3,34.1 22.2,34.8 40.35,26.9 45.15,25.45 50.9,23.75 54.35,23.8 57.7,23.9 61.1,24.45L61.35,24.5Q62.25,24.6 63.35,24.7 64.2,24.8 64.9,24.9 65,24.9 65.15,24.9L65.35,24.9Q65.85,24.95 66.3,25 72.8,25.65 75.85,25.45 76.15,25.45 76.4,25.35 75.8,25.05 73.75,22.9 72.6,21.7 71.05,20.05 73,19.75 78.45,19.1 78.75,19.1 79.05,19.1 79.15,19.1 79.3,19.05 80.85,18.9 81.95,18.65"/><path fill="#3C3A3D" d="M61.1,24.45L61.35,24.5Q62.25,24.6 63.35,24.7 64.2,24.8 64.9,24.9 65,24.9 65.15,24.9L65.35,24.9Q65.85,24.95 66.3,25 72.8,25.65 75.85,25.45 75.05,25.3 74.65,25.2 73.65,25.1 72.1,25 69.1,24.65 60.65,23.5 52.15,22.4 43.3,24.45 34.4,26.55 27.5,30.3 21.05,33.85 20.3,35.15 20.25,35.2 20.2,35.25 20.4,35.4 20.65,35.4 21.65,35.2 22.5,35 25.55,34.35 27.25,34.2 29.55,33.95 30.75,34.35 31.65,34.6 33.6,34.7 20.65,40.35 18.85,41.95 18.1,42.6 16.45,46.5L16.45,46.55Q15.65,48.4 14.65,50.95 14.2,52 14,52.7 13.8,53.65 13.55,54.3 14.05,54.5 18.4,58.15 20.35,59.75 21,60.2L20.95,60.2Q19.2,59.2 15.8,57.85 15.7,57.75 15.6,57.7 14.8,57.4 14.15,57.25 13.75,57.8 13.45,58.25 15.6,60.6 16.75,61.95L16.8,61.95Q16.85,62.05 16.9,62.05 17.1,62.35 17.25,62.5 17.5,62.85 18.05,63.4 18.1,63.5 18.2,63.65L18.25,63.65Q18.55,64 18.95,64.35 19.05,64.45 19.1,64.5 19.15,64.55 19.9,65.65 20.1,65.9 20.4,66.35 20.7,66.8 21.1,67.5 21.35,67.6 21.05,67.1 20.7,66.6 20.7,66.5 20.7,66.35 20,64.8 19.25,63.25 18.25,62.1 17.75,61.55 17.15,60.85 15.25,58.75 14.25,57.7 15.1,58 16.4,58.5 16.55,58.55 17.7,59 18.6,59.4 21.6,60.8 21.6,60.7 21.55,60.65 21.4,60.45 21.3,60.3L21.3,60.25Q21.05,59.95 20.8,59.7L20.6,59.4Q15.25,55.1 14.45,54.5 15.1,52.3 15.05,52.35 15.15,52.25 16.7,47.75 18.25,43.35 19.4,42.5L21.75,41.15Q28.7,37.75 33.1,35.8 34.65,35.15 35.95,34.6 36,34.6 36.1,34.55L35.5,34.4Q35.1,34.3 34.7,34.15 32.15,33.5 29.35,33.5 28.35,33.55 27.3,33.65 26.75,33.75 26.25,33.85 24.3,34.1 22.2,34.8 40.35,26.9 45.15,25.45 50.9,23.75 54.35,23.8 57.7,23.9 61.1,24.45 M34.95,34.8L34.95,34.85 35,34.9Q34.85,34.85 34.75,34.85L34.95,34.8"/><path fill="#3C3A3D" d="M81.95,18.65Q84.2,18.45 85.15,18.25 85.35,18.15 86.5,19 84.898,17.45 83.45,16.25 80.662,13.966 78.4,12.95 77.35,12.45 76.35,12.05 76.2,11.95 76.05,11.9 68.15,8.7 63.55,10.7 65.1,9.4 68,7.15 64.05,6.55 57.6,7.1 61.65,2.9 64.25,1.15 64.35,1.1 64.45,1 64.55,0.95 64.6,0.95 62.95,0.35 60.65,0.15 54.4,-0.45 43.5,1.8 41.5,2.55 39.6,3.35 28.1,7.95 21.55,14.15 20.382,15.24 19.35,16.25 18.391,17.185 17.55,18.05 14.34,21.299 13,23.2 12.628,23.727 12.4,24.15 12.2,24.4 12.05,24.7 10.65,27 9.45,28.55 8.45,27.35 7.95,26.9 6.9,25.9 5.75,25.8 5.7,26.15 5.65,26.5 5.6,27.55 5.75,28.85 5.9,29.65 6.05,30.35 4.8,30.4 3.25,30.1 1.05,29.8 0,30.55L0.1,30.95Q0.1,31 2.2,32.8 4.25,34.6 4.65,35.45 0.25,53.5 0.35,58.9 0.6,59.05 0.9,59.3 8.75,63.7 8.9,63.8 9.2,63.95 9.55,64.1L9.6,64.1Q9.7,64.15 9.75,64.15 11.523,64.81 13,65.35 16.562,66.649 18.4,67.25L19.75,67.45Q18.249,66.667 13,64.45 10.206,63.281 6.35,61.7L1.4,58.3 1.35,58.25Q1.1,56.85 2,52.6 3.3,45.95 4.3,40.65 5.35,35.25 5.85,35.25 6.15,35.3 6.05,35.15 5.85,34.55 4,32.95 2.3,31.5 1.8,31.3 2.1,31.2 2.25,31.15 3.25,31.3 6.45,31.5 6.95,31.7 7.6,31.8L7.65,31.8 7.75,31.85Q7.6,31.7 7.55,31.5 7.5,31.4 7.5,31.3 7.45,31.2 7.45,31.15 7.2,30.25 7.2,30.2 7.1,30.1 7.1,29.95 6.9,28.95 6.75,27.65 7.25,28.4 7.95,29.15 9.05,30.05 9.7,29.8L12.35,26Q12.656,25.563 13,25.125 13.05,25.063 13.1,25 15.35,21.85 17.95,18.95 18.05,18.8 18.1,18.65 19.215,17.432 20.45,16.25 22.842,13.985 25.7,11.85 26.2,10.9 37.35,5 38.5,4.4 39.8,3.85 47.1,1 59.25,0.9 60.85,0.9 62.5,0.95 60.3,2.8 57.9,4.9 54.4,7.9 54.45,8.1 54.75,8.65 54.75,8.4 62.3,7.75 66.25,7.2 63.568,9.685 61.575,11.55 63.237,11.602 65.05,11.825 71.266,11.531 76.75,13.6 76.95,13.65 77.05,13.7 79.721,14.702 82.25,16.25 82.378,16.324 82.5,16.4 83.25,16.9 84.1,17.4 80.9,17.65 78.8,17.8 78.6,17.8 78.55,17.85 78.05,17.85 77.6,17.9 72.3,18.35 70.1,19.5 69,18.8 68.15,18.45 63.25,16 58.65,17.7 64.05,17.8 68.4,19.9 69.15,20.3 70.1,20.8 69.5,20.7 69,20.75 70.65,21.9 72.75,23.45 72.8,23.65 73.05,23.75 73.55,24.2 74.1,24.65 74.35,24.8 74.6,25.05L74.65,25.05Q74.75,25.1 74.95,25.15L76,25.25Q75.7,25.25 75.1,25.25 75.35,25.3 75.85,25.45 76.15,25.45 76.4,25.35 75.8,25.05 73.75,22.9 72.6,21.7 71.05,20.05 73,19.75 78.45,19.1 78.75,19.1 79.05,19.1 79.15,19.1 79.3,19.05 80.85,18.9 81.95,18.65"/><path fill="#7C5649" d="M56.7,11.8Q44.3,13.7 43.55,14.5 38.4,16.2 34.3,18.5 34.15,18.55 34,18.65 30.65,20.55 27.55,22.8 27.05,23.15 26.55,23.55L22.85,26.25Q23,26.2 23.15,26.2 54.85,11 78.7,15.15 71.067,12.561 65.05,11.825 63.237,11.602 61.575,11.55 60.426,11.509 59.35,11.55 57.95,11.65 56.7,11.8"/><path fill="#7C5649" d="M39.8,3.85Q38.5,4.4 37.35,5 26.2,10.9 25.7,11.85 21.35,15.1 18.1,18.65 18.05,18.8 17.95,18.95 15.35,21.85 13.1,25 12.7,25.5 12.35,26L9.7,29.8 9.75,29.8Q9.853,29.697 9.95,29.6 35.35,4.8 59.25,0.9 47.1,1 39.8,3.85"/><g id="Symbol_41" transform="matrix(1 0 0 1 25 39.5)"><path fill="#EB857A" fill-opacity="0.753" d="M48.25,9.9Q47.65,3.05 45.1,0 41.25,1.25 38.6,2.85 35.9,4.45 36.25,6.85 36.65,9.2 39.05,11.1 41.45,13.05 48.25,9.9"/><path fill="#F09681" d="M7.35,21.7Q4.95,21.7 2.9,23.4 0.8,25.1 0.2,27.55 -0.4,29.85 0.85,31.55 2.15,33.15 4.5,33.1 6.9,33.1 8.95,31.35 11.05,29.7 11.65,27.25 12.25,24.9 11,23.25 9.7,21.65 7.35,21.7"/></g></g><g id="Symbol_15" transform="matrix(1 0 0 1 31.9 114.9)"><animateTransform attributeName="transform" additive="replace" type="translate" fill="freeze" dur="4s" keyTimes="0;0.08;0.2;1" values="31.9,114.9;31.9,114.9;27.3,114.9;27.3,114.9"/><path fill="#FEAE5F" d="M8.75,6.85Q8.6,6.85 8.55,6.9L8.6,6.9Q8.75,6.9 8.95,6.9L8.75,6.85"/><path fill="#FEAE5F" d="M8.95,6.9Q9,6.9 9.05,6.9 9.1,6.9 9.15,6.9L9.2,6.9Q8.95,6.85 8.85,6.8L8.8,6.8Q8.9,6.85 8.95,6.9"/><path fill="#FFCB99" d="M2.75,11.8Q3.1,12.1 3.4,12.35 3.7,12.65 4.2,12.9 4.75,13.3 5.75,13.5L5.65,13.45Q4.3,13 2.85,11.8 2.412,11.45 2.175,11.175 2.4,11.45 2.75,11.8"/><path fill="#FFCB99" d="M1.55,8.6Q1.6,8.55 1.65,8.6L1.95,8.6Q1.8,8.45 1.75,8.35 1.3,8 1,7.65 1.15,8 1.4,8.4 1.45,8.5 1.55,8.6"/><path fill="#FFCB99" d="M1.45,4.65Q1.5,4.65 1.55,4.7L1.6,4.7Q1.406,4.457 1.35,4.3 1.402,4.456 1.45,4.65"/><path fill="#FFCB99" d="M1.05,4.6Q0.85,4.45 0.7,4.55L0.75,4.55Q0.8,4.5 1.05,4.6"/><path fill="#FFCB99" d="M12.95,12.35Q13.2,11.4 13.25,10.2 13.2,9.65 12.95,9.1 11.5,8 11.2,7.9 8.95,7 7.25,6.85 5.55,6.65 4.95,5.65 4.35,4.65 2.6,0.85 2.3,0.5 2,0.35 1.9,0.3 1.8,0.25 2.05,0.25 2.2,0.25L1.3,0.2Q1.25,0.2 1.2,0.25L1.15,0.25Q0.9,0.3 0.9,0.35 0.85,0.4 0.6,0.95 0.35,1.5 0.4,1.8 0.4,2.4 1.05,3.5 1.1,3.65 1.25,3.85 1.55,4.25 2,4.8L2.05,4.85Q3,6.05 4.5,7.6 4.55,7.65 4.55,7.7 4.55,7.75 4.5,7.75 4.45,7.8 4.4,7.8 4.35,7.8 4.35,7.75 2.8,6.15 1.85,5 1.65,4.9 1.5,4.9 0.9,4.8 0.75,4.8 0.5,4.8 0.4,4.9 0.2,5.15 0.2,5.75 0.2,6.35 0.8,7.15 1.2,7.6 1.85,8.2 2.05,8.4 2.3,8.6L2.4,8.6Q3.25,9.3 3.85,9.55 3.9,9.55 3.95,9.6 3.95,9.65 3.95,9.7 3.9,9.75 3.85,9.8 3.8,9.8 3.75,9.8 3.15,9.45 2.2,8.8L1.75,8.8Q1.7,8.95 1.55,9.15 1.4,9.3 1.4,9.5 1.4,10.35 3,11.6 4.35,12.85 5.65,13.25 6.35,13.4 7.2,13.6 8.55,13.75 10.3,13.9 11,13.9 11.8,13.95 12.2,13.45 12.55,12.95 12.75,12.7 12.9,12.45 12.9,12.4 12.95,12.35"/><path fill="#803C3C" d="M12.85,8.6Q13,8.75 13.15,9.05 13.2,9.2 13.25,9.4 13.45,10 13.45,10.75 13.4,11.3 13.05,12.1 13,12.2 12.95,12.35 12.9,12.4 12.9,12.45 12.75,12.7 12.55,12.95 12.2,13.45 11.8,13.95 11,13.9 10.3,13.9 8.55,13.75 7.2,13.6 6.35,13.4 5.65,13.25 4.35,12.85 3,11.6 1.4,10.35 1.4,9.5 1.4,9.3 1.55,9.15 1.7,8.95 1.75,8.8L2.2,8.8Q3.15,9.45 3.75,9.8 3.8,9.8 3.85,9.8 3.9,9.75 3.95,9.7 3.95,9.65 3.95,9.6 3.9,9.55 3.85,9.55 3.25,9.3 2.4,8.6L2.3,8.6Q2.05,8.4 1.85,8.2 1.2,7.6 0.8,7.15 0.2,6.35 0.2,5.75 0.2,5.15 0.4,4.9 0.5,4.8 0.75,4.8 0.9,4.8 1.5,4.9 1.65,4.9 1.85,5 2.8,6.15 4.35,7.75 4.35,7.8 4.4,7.8 4.45,7.8 4.5,7.75 4.55,7.75 4.55,7.7 4.55,7.65 4.5,7.6 3,6.05 2.05,4.85L2,4.8Q1.55,4.25 1.25,3.85 1.1,3.65 1.05,3.5 0.4,2.4 0.4,1.8 0.35,1.5 0.6,0.95 0.85,0.4 0.9,0.35 0.9,0.3 1.15,0.25L1.2,0.25Q1.25,0.2 1.3,0.2L2.2,0.25Q1.7,0 1.3,0 0.8,-0.05 0.4,0.75 0.15,1.35 0.15,1.8 0.1,2.6 1.05,3.95 1.2,4.1 1.35,4.3 1.406,4.457 1.6,4.7L1.55,4.7Q1.5,4.65 1.45,4.65 1.25,4.6 1.05,4.6 0.8,4.5 0.75,4.55L0.7,4.55 0.65,4.55Q0.4,4.55 0.2,4.75L0.2,4.8Q-0.05,5.05 0,5.75 -0.05,6.45 0.65,7.3 0.75,7.45 1,7.65 1.3,8 1.75,8.35 1.8,8.45 1.95,8.6L1.65,8.6Q1.6,8.55 1.55,8.6L1.4,9Q1.15,9.2 1.2,9.5 1.15,9.8 1.3,10.05 1.4,10.25 1.55,10.5 1.6,10.55 1.65,10.65 1.75,10.75 1.9,10.9L2.175,11.175Q2.412,11.45 2.85,11.8 4.3,13 5.65,13.45L5.75,13.5Q6.4,13.7 7.15,13.8 8.55,14.05 10.3,14.1 11.05,14.1 11.85,14.15L11.9,14.15Q11.95,14.15 12,14.1 12.05,14.1 12.05,14.05L12.05,14Q12.05,13.95 12.1,13.95 12.45,13.5 12.75,13.1 13,12.65 13.2,12.2L13.25,12.2Q13.6,11.45 13.65,10.9 13.65,10.8 13.65,10.75 13.6,8.2 11.7,7.25L11.75,7.25Q11.5,7.1 11.25,7.05 11.2,7 11.1,6.95 10.85,6.9 10.55,6.9L10.45,6.9Q10.4,6.9 10.35,6.9L10.3,6.9Q9.65,6.75 9.25,6.65 8.35,6.45 7.7,6.25 7.05,6.05 6.65,5.9 5.85,5.5 5.2,4.35 5,4.05 4.95,3.8 4.5,3 4.35,2.7 3.9,1.95 3.45,1.45 3.05,0.9 2.65,0.55L2.6,0.5Q2.45,0.45 2.4,0.35 2.3,0.3 2.2,0.25 2.05,0.25 1.8,0.25 1.9,0.3 2,0.35 2.3,0.5 2.6,0.85 2.95,1.1 3.3,1.6 3.6,1.95 3.95,2.45 3.95,2.5 4,2.6 4,2.65 4.05,2.7 4.1,2.75 4.15,2.85 4.3,3.05 4.5,3.45 4.7,3.85 5,4.45L5,4.5Q5.65,5.65 6.55,6.1 6.95,6.25 8.15,6.65 8.5,6.75 8.75,6.85L8.95,6.9Q8.9,6.85 8.8,6.8L8.85,6.8Q8.95,6.85 9.2,6.9L9.3,6.9Q9.7,6.95 10.25,7.1L10.35,7.1Q10.4,7.1 10.45,7.1L10.55,7.1Q10.8,7.15 11.05,7.2L11,7.15Q11.1,7.2 11.2,7.25L11.2,7.3Q11.4,7.3 11.6,7.4 11.8,7.5 11.95,7.65 12.05,7.7 12.1,7.75 12.6,8.1 12.85,8.6 M13.15,9.05Q13.2,9.2 13.25,9.4 13.45,10 13.45,10.75 13.4,11.3 13.05,12.1 13,12.2 12.95,12.35 13.2,11.4 13.25,10.2 13.2,9.65 12.95,9.1L12.95,9.05 13,9.05Q13.1,9.05 13.15,9.05"/><path fill="#E8A05B" d="M13,9.05Q13.1,9.05 13.15,9.05 13,8.75 12.85,8.6 12.6,8.1 12.1,7.75 12.05,7.7 11.95,7.65 11.8,7.5 11.6,7.4 11.4,7.3 11.2,7.3L11.2,7.25Q11.1,7.2 11,7.15L11.05,7.2Q10.8,7.15 10.55,7.1L10.45,7.1Q10.4,7.1 10.35,7.1L10.25,7.1Q9.7,6.95 9.3,6.9L9.2,6.9 9.15,6.9Q9.1,6.9 9.05,6.9 9,6.9 8.95,6.9 8.75,6.9 8.6,6.9 8.7,6.95 8.75,7.05 8.75,7.1 8.45,6.9L8.55,6.9Q8.6,6.85 8.75,6.85 8.5,6.75 8.15,6.65 6.95,6.25 6.55,6.1 5.65,5.65 5,4.5L5,4.45Q4.7,3.85 4.5,3.45 4.45,3.4 4.4,3.35L4.35,3.35Q4.15,2.95 4.05,2.7 4,2.65 4,2.6 3.95,2.5 3.95,2.45 3.6,1.95 3.3,1.6 2.95,1.1 2.6,0.85 4.35,4.65 4.95,5.65 5.55,6.65 7.25,6.85 8.95,7 11.2,7.9 11.5,8 12.95,9.1L12.95,9.05 13,9.05"/></g><g style="display:none;"><g id="Symbol_14" transform="matrix(1 0 0 1 31.55 62.95)" opacity="0"><animateTransform attributeName="transform" additive="replace" type="translate" fill="freeze" dur="4s" keyTimes="0;0.17;0.31;1" values="31.55,62.95;31.55,62.95;32.8,60.45;32.8,60.45"/><animate attributeName="opacity" fill="freeze" dur="4s" keyTimes="0;0.17;0.31;1" values="0;0;1;1"/><path fill="#FFF" d="M4.55,12Q3.3,9.75 1.35,11.5 -0.65,13.25 0.3,14.95 0.35,15.05 1,15.75 2.05,16.45 3.6,15.5 5.8,14.2 4.55,12"/><path fill="#FFF" d="M4.2,1.2Q2.9,2.35 2.75,3.65 2.7,5.45 4.4,7.65 4.5,7.65 4.5,7.75 4.55,7.9 5.1,8.8 5.65,9.75 9.15,7.8 12.6,5.9 11.2,2.4 9,-1.7 4.2,1.2"/></g><animate attributeName="display" fill="freeze" repeatCount="1" dur="4s" keyTimes="0;0.17;1" values="none;inline;inline"/></g><g id="Symbol_7_l1" transform="matrix(1 0 0 1 6.7 8.8)"><g style="display:none;"><g id="Symbol_40" transform="matrix(1 0 0 1 130.95 49.9)" opacity="0"><animate attributeName="opacity" fill="freeze" dur="4s" keyTimes="0;0.79;0.84;1" values="0;0;1;1"/><path fill="#000" fill-opacity="0.259" d="M0.8,11.8Q0.05,10 0,6.5 -0.1,11.15 0.8,13.35 2.5,17.8 7.5,17.4 9.8,17.25 10.95,15.5L11.05,16.05Q11.55,16.85 12.95,16.7 14.85,16.5 14.8,14.25 14.75,13.95 14.7,13.75 14.35,15 12.95,15.15 11.55,15.3 11.05,14.5L10.95,13.95Q9.8,15.7 7.5,15.85 2.5,16.25 0.8,11.8"/><path fill="#000" fill-opacity="0.259" d="M4.8,4.7Q4.9,5.6 4.7,6.85 4.55,7.8 4.55,8.55 4.4,7.4 4.7,5.3 4.75,5 4.8,4.7"/><path fill="#000" fill-opacity="0.259" d="M9.1,5.2Q9.4,7.2 9.3,8.2 9.2,7.55 9.1,6.75 8.8,4.55 8.95,3.6 8.95,4.3 9.1,5.2"/><path fill="#6D574E" d="M14.25,9.5L13.9,3.85Q13.85,3.3 13.7,2.15 13.5,1 13.15,0.65 12.8,0.25 11.75,0.05 10.75,-0.15 9.7,0.4 9.25,0.55 8.95,1.8 8.85,2.4 8.95,3.6 8.95,4.3 9.1,5.2 9.4,7.2 9.3,8.2 9.25,8.4 9.2,8.55 8.8,10.2 6.8,10.4 6,10.5 5.05,9.9 4.6,9.6 4.55,8.55 4.4,7.4 4.7,5.3 4.75,5 4.8,4.7 5.05,1.3 3.05,0.75 0.8,0.2 0.4,2.1 0,4.1 0,4.95 0,5.75 0,6.5 0.05,10 0.8,11.8 2.5,16.25 7.5,15.85 9.8,15.7 10.95,13.95L11.05,14.5Q11.55,15.3 12.95,15.15 14.35,15 14.7,13.75 14.8,13.3 14.8,12.7 14.3,10.1 14.25,9.5"/></g><animate attributeName="display" fill="freeze" repeatCount="1" dur="4s" keyTimes="0;0.79;1" values="none;inline;inline"/></g><g style="display:none;"><g id="Symbol_39" transform="matrix(1 0 0 1 115.15 50.55)" opacity="0"><animate attributeName="opacity" fill="freeze" dur="4s" keyTimes="0;0.74;0.79;1" values="0;0;1;1"/><path fill="#000" fill-opacity="0.259" d="M0.05,9.75L0.05,10.2Q0,9.45 0,8.8 -0.05,10.15 0.05,11.75L0.05,11.3Q0.15,13.75 1.25,16.05 2.3,18.3 7.65,18.05 12.95,17.8 13.45,14.9 13.75,13.05 13.7,10.9 13.65,12.15 13.45,13.35 12.95,16.25 7.65,16.5 2.3,16.75 1.25,14.5 0.15,12.2 0.05,9.75"/><path fill="#6D574E" d="M13.7,10.9Q13.75,9 13.5,6.9 13.2,4.15 10.8,2.15 8.5,0.25 5.85,0 3,-0.2 1.4,1.85 0.5,3.05 0.15,5.2 -0.05,6.75 0,8.8 0,9.45 0.05,10.2L0.05,9.75Q0.15,12.2 1.25,14.5 2.3,16.75 7.65,16.5 12.95,16.25 13.45,13.35 13.65,12.15 13.7,10.9 M8.65,6.1Q9.6,6.75 9.7,7.6 9.85,8.25 9.7,9.1 9.55,8.3 8.65,7.65 7.65,7.05 6.55,7 4.35,6.8 4.05,8.45 4,8.4 4,8.3 3.6,5.2 6.55,5.45 7.65,5.5 8.65,6.1"/><path fill="#6D574E" d="M6.55,5.45Q3.6,5.2 4,8.3 4,8.4 4.05,8.45 4.2,9.35 5.1,10.1 6.1,10.9 7.65,10.85 9.2,10.75 9.55,9.65 9.65,9.35 9.7,9.1 9.85,8.25 9.7,7.6 9.6,6.75 8.65,6.1 7.65,5.5 6.55,5.45"/><path fill="#FFF" d="M9.55,9.65Q9.65,9.35 9.7,9.1 9.55,8.3 8.65,7.65 7.65,7.05 6.55,7 4.35,6.8 4.05,8.45 4.2,9.35 5.1,10.1 6.1,10.9 7.65,10.85 9.2,10.75 9.55,9.65"/><path fill="#000" fill-opacity="0.259" d="M8.65,6.1Q9.6,6.75 9.7,7.6 9.85,8.25 9.7,9.1 9.55,8.3 8.65,7.65 7.65,7.05 6.55,7 4.35,6.8 4.05,8.45 4,8.4 4,8.3 3.6,5.2 6.55,5.45 7.65,5.5 8.65,6.1"/></g><animate attributeName="display" fill="freeze" repeatCount="1" dur="4s" keyTimes="0;0.74;1" values="none;inline;inline"/></g><g style="display:none;"><g id="Symbol_38" transform="matrix(1 0 0 1 93.6 46.6)" opacity="0"><animate attributeName="opacity" fill="freeze" dur="4s" keyTimes="0;0.69;0.74;1" values="0;0;1;1"/><path fill="#000" fill-opacity="0.259" d="M3.55,11.4Q2.7,10.45 2.1,9.65 0.55,7.7 0.15,6.55 0.05,6.85 0,7.2 -0.2,8.35 2.1,11.2 2.7,12 3.55,12.95 7.25,17.25 10.3,18.1 10.35,20.45 10.7,21.75 10.75,22 10.85,22.25 11.65,24.7 13.65,24.45 15.75,24.2 15.9,21.6 15.9,21.5 15.9,21.3 15.9,20.85 15.9,20.35 15.65,22.65 13.65,22.9 11.65,23.15 10.85,20.7 10.75,20.45 10.7,20.2 10.35,18.9 10.3,16.55 7.25,15.7 3.55,11.4"/><path fill="#6D574E" d="M21.45,2.75Q21.55,2.05 21.5,1.5 21.15,-0.35 19.25,0.1 19,0.2 18.65,0.4 17.2,1.1 15.35,3.3 13.25,5.75 11.8,8.8 11.5,9.35 11.3,9.75 9.4,7.25 7.8,5.55 3.15,0.65 1.2,2.65 0.35,3.5 0,5.65 -0.05,6 0.15,6.55 0.55,7.7 2.1,9.65 2.7,10.45 3.55,11.4 7.25,15.7 10.3,16.55 10.35,18.9 10.7,20.2 10.75,20.45 10.85,20.7 11.65,23.15 13.65,22.9 15.65,22.65 15.9,20.35 15.9,20.2 15.9,20.05 15.9,19.95 15.9,19.75 15.95,18.6 15.65,17.2 15.55,16.75 15.4,16.3 15.4,16 16.6,13.6 17.75,11.4 19.6,7.8 19.7,7.55 19.75,7.25 21.1,4.45 21.45,2.75"/><path fill="#000" fill-opacity="0.259" d="M21.5,3.05Q21.7,4.85 19.75,8.8 19.7,9.1 19.6,9.35 17.75,12.95 16.6,15.15 15.9,16.5 15.65,17.2 15.55,16.75 15.4,16.3 15.4,16 16.6,13.6 17.75,11.4 19.6,7.8 19.7,7.55 19.75,7.25 21.1,4.45 21.45,2.75 21.45,2.9 21.5,3.05"/></g><animate attributeName="display" fill="freeze" repeatCount="1" dur="4s" keyTimes="0;0.69;1" values="none;inline;inline"/></g><g style="display:none;"><g id="Symbol_37" transform="matrix(1 0 0 1 135.35 17.05)" opacity="0"><animate attributeName="opacity" fill="freeze" dur="4s" keyTimes="0;0.64;0.69;1" values="0;0;1;1"/><path fill="#BDBDBD" d="M0.15,10.65Q0.1,10.75 0.05,10.9 -0.15,11.9 0.3,12.45 0.7,13.05 1.55,13.35 2.3,13.6 5.1,13.3 5.4,16.05 6.7,22.4 7,23.65 7.7,24.15 11.7,25.35 11.35,20.15 11.05,23.6 7.7,22.6 7,22.1 6.7,20.85 5.4,14.5 5.1,11.75 2.3,12.05 1.55,11.8 0.7,11.5 0.3,10.9 0.2,10.8 0.15,10.65"/><path fill="#BDBDBD" d="M3.85,3.65Q3.8,3.45 3.8,3.3 3.7,4.2 3.85,5.2 3.9,6.05 4.2,7.25L4.55,7.2Q3.95,5 3.85,3.65"/><path fill="#FC3" d="M12.8,9.1Q12.9,9 12.95,8.9 13.15,8.5 13,7.65 12.85,6.55 11.85,6.45 10.85,6.35 9.1,6.4L8.8,6.4Q8.6,4.35 8.3,2.2 8.1,0.05 6.15,0 4.1,-0.05 3.9,1.15 3.7,2.15 3.8,3.3 3.8,3.45 3.85,3.65 3.95,5 4.55,7.2L4.2,7.25 3.6,7.35Q2.55,7.5 1.4,8 0.3,8.4 0.05,9.35 -0.1,10.15 0.15,10.65 0.2,10.8 0.3,10.9 0.7,11.5 1.55,11.8 2.3,12.05 5.1,11.75 5.4,14.5 6.7,20.85 7,22.1 7.7,22.6 11.05,23.6 11.35,20.15 11.5,18.5 10.95,15.9L10.3,11.85 10.05,10.35Q12.1,9.85 12.8,9.1"/><path fill="#BDBDBD" d="M12.95,8.9Q12.9,9 12.8,9.1 12.1,9.85 10.05,10.35L10.3,11.85Q12.15,11.35 12.8,10.65 13.2,10.25 13,9.2 13,9.05 12.95,8.9"/></g><animate attributeName="display" fill="freeze" repeatCount="1" dur="4s" keyTimes="0;0.64;1" values="none;inline;inline"/></g><g style="display:none;"><g id="Symbol_36" transform="matrix(1 0 0 1 120.65 26.3)" opacity="0"><animate attributeName="opacity" fill="freeze" dur="4s" keyTimes="0;0.59;0.64;1" values="0;0;1;1"/><path fill="#BDBDBD" d="M0.8,11.8Q0.05,10 0,6.5 -0.1,11.15 0.8,13.35 2.5,17.8 7.5,17.4 9.8,17.25 10.95,15.5L11.05,16.05Q11.55,16.85 12.95,16.7 14.85,16.5 14.8,14.25 14.75,13.95 14.7,13.75 14.35,15 12.95,15.15 11.55,15.3 11.05,14.5L10.95,13.95Q9.8,15.7 7.5,15.85 2.5,16.25 0.8,11.8"/><path fill="#000" fill-opacity="0.259" d="M4.8,4.7Q4.9,5.6 4.7,6.85 4.55,7.8 4.55,8.55 4.4,7.4 4.7,5.3 4.75,5 4.8,4.7"/><path fill="#BDBDBD" d="M9.1,5.2Q8.95,4.3 8.95,3.6 8.8,4.55 9.1,6.75 9.2,7.55 9.3,8.2 9.4,7.2 9.1,5.2"/><path fill="#FC3" d="M14.25,9.5L13.9,3.85Q13.85,3.3 13.7,2.15 13.5,1 13.15,0.65 12.8,0.25 11.75,0.05 10.75,-0.15 9.7,0.4 9.25,0.55 8.95,1.8 8.85,2.4 8.95,3.6 8.95,4.3 9.1,5.2 9.4,7.2 9.3,8.2 9.25,8.4 9.2,8.55 8.8,10.2 6.8,10.4 6,10.5 5.05,9.9 4.6,9.6 4.55,8.55 4.4,7.4 4.7,5.3 4.75,5 4.8,4.7 5.05,1.3 3.05,0.75 0.8,0.2 0.4,2.1 0,4.1 0,4.95 0,5.75 0,6.5 0.05,10 0.8,11.8 2.5,16.25 7.5,15.85 9.8,15.7 10.95,13.95L11.05,14.5Q11.55,15.3 12.95,15.15 14.35,15 14.7,13.75 14.8,13.3 14.8,12.7 14.3,10.1 14.25,9.5"/></g><animate attributeName="display" fill="freeze" repeatCount="1" dur="4s" keyTimes="0;0.59;1" values="none;inline;inline"/></g><g style="display:none;"><g id="Symbol_35" transform="matrix(1 0 0 1 104.85 26.95)" opacity="0"><animate attributeName="opacity" fill="freeze" dur="4s" keyTimes="0;0.54;0.59;1" values="0;0;1;1"/><path fill="#BDBDBD" d="M0.05,9.75L0.05,10.2Q0,9.45 0,8.8 -0.05,10.15 0.05,11.75L0.05,11.3Q0.15,13.75 1.25,16.05 2.3,18.3 7.65,18.05 12.95,17.8 13.45,14.9 13.75,13.05 13.7,10.9 13.65,12.15 13.45,13.35 12.95,16.25 7.65,16.5 2.3,16.75 1.25,14.5 0.15,12.2 0.05,9.75"/><path fill="#FC3" d="M13.7,10.9Q13.75,9 13.5,6.9 13.2,4.15 10.8,2.15 8.5,0.25 5.85,0 3,-0.2 1.4,1.85 0.5,3.05 0.15,5.2 -0.05,6.75 0,8.8 0,9.45 0.05,10.2L0.05,9.75Q0.15,12.2 1.25,14.5 2.3,16.75 7.65,16.5 12.95,16.25 13.45,13.35 13.65,12.15 13.7,10.9"/><path fill="#FC3" d="M6.55,5.45Q3.6,5.2 4,8.3 4,8.4 4.05,8.45 4.2,9.35 5.1,10.1 6.1,10.9 7.65,10.85 9.2,10.75 9.55,9.65 9.65,9.35 9.7,9.1 9.85,8.25 9.7,7.6 9.6,6.75 8.65,6.1 7.65,5.5 6.55,5.45"/><path fill="#FFF" d="M8.65,7.65Q7.65,7.05 6.55,7 4.35,6.8 4.05,8.45 4.2,9.35 5.1,10.1 6.1,10.9 7.65,10.85 9.2,10.75 9.55,9.65 9.65,9.35 9.7,9.1 9.55,8.3 8.65,7.65"/><path fill="#BDBDBD" d="M8.65,6.1Q7.65,5.5 6.55,5.45 3.6,5.2 4,8.3 4,8.4 4.05,8.45 4.35,6.8 6.55,7 7.65,7.05 8.65,7.65 9.55,8.3 9.7,9.1 9.85,8.25 9.7,7.6 9.6,6.75 8.65,6.1"/></g><animate attributeName="display" fill="freeze" repeatCount="1" dur="4s" keyTimes="0;0.54;1" values="none;inline;inline"/></g><g style="display:none;"><g id="Symbol_34" transform="matrix(1 0 0 1 88 27.1)" opacity="0"><animate attributeName="opacity" fill="freeze" dur="4s" keyTimes="0;0.49;0.54;1" values="0;0;1;1"/><path fill="#FC3" d="M0.05,3.5Q0.15,4.85 0.65,6.9 1.75,11.3 2.55,14 3.3,16.6 3.65,18.7 3.55,19.2 5.45,19.5 7.35,19.8 10.3,19.35 13.2,18.9 14.75,16.8 15.35,15.9 15.5,14.7 15.55,14.45 15.6,14.2 15.9,11.2 13.75,8.45 10.05,3.8 5.55,6.8 5,3.75 4.75,2.05 4.3,0.8 3.7,0.25 3.55,0.1 3.45,0.05 0.95,-0.15 0.25,1.15 -0.15,1.85 0.05,3.5"/><path fill="#FC3" d="M8.85,14.95Q10.1,14.7 10.55,14.3 10.6,14.2 10.65,14.1 10.9,13.5 10.2,11.95 9.45,10.35 6.2,11.7 6.3,12.45 6.5,13.15 6.7,14.25 7.05,15.25 7.3,15.25 8.85,14.95"/><path fill="#BDBDBD" d="M10.2,13.5Q10.4,13.95 10.55,14.3 10.6,14.2 10.65,14.1 10.9,13.5 10.2,11.95 9.45,10.35 6.2,11.7 6.3,12.45 6.5,13.15 9.5,11.95 10.2,13.5"/><path fill="#FFF" d="M7.05,15.25Q7.3,15.25 8.85,14.95 10.1,14.7 10.55,14.3 10.4,13.95 10.2,13.5 9.5,11.95 6.5,13.15 6.7,14.25 7.05,15.25"/><path fill="#BDBDBD" d="M0.65,6.9Q0.15,4.85 0.05,3.5 -0.2,5.05 0.65,8.45 1.75,12.85 2.55,15.55 3.3,18.15 3.65,20.25 3.55,20.75 5.45,21.05 7.35,21.35 10.3,20.9 13.2,20.45 14.75,18.35 15.35,17.45 15.5,16.25 15.7,15.2 15.6,14.2 15.55,14.45 15.5,14.7 15.35,15.9 14.75,16.8 13.2,18.9 10.3,19.35 7.35,19.8 5.45,19.5 3.55,19.2 3.65,18.7 3.3,16.6 2.55,14 1.75,11.3 0.65,6.9"/></g><animate attributeName="display" fill="freeze" repeatCount="1" dur="4s" keyTimes="0;0.49;1" values="none;inline;inline"/></g><g style="display:none;"><g id="Symbol_33" transform="matrix(1 0 0 1 73 27.65)" opacity="0"><animate attributeName="opacity" fill="freeze" dur="4s" keyTimes="0;0.44;0.49;1" values="0;0;1;1"/><path fill="#BDBDBD" d="M10.1,17.65Q7.9,17.95 5.75,17.55 4.85,21.2 3.05,21.4 1.25,21.6 0.5,20.8 0.2,20.05 0.1,19.85 -0.05,20.9 0.05,21.35 0.1,21.4 0.5,22.35 1.25,23.15 3.05,22.95 4.85,22.75 5.75,19.1 7.9,19.5 10.1,19.2 10.15,19.45 10.2,19.7 10.2,19.75 10.65,21.6 11.55,23.45 13.6,23.15 15.15,22.9 14.95,18.75 14.8,21.4 13.6,21.6 11.55,21.9 10.65,20.05 10.2,18.2 10.2,18.15 10.15,17.9 10.1,17.65"/><path fill="#FC3" d="M13.25,7Q13.1,6.3 12.6,4.95 12,3.2 11.45,2.2 10.7,0.05 9.5,0.05 8.95,-0.1 8.2,0.25 6.2,0.95 4.7,3.35 3.65,4.95 2.4,8.85 2.15,9.2 1.05,13.7 -0.2,18.6 0.05,19.8L0.1,19.85Q0.2,20.05 0.5,20.8 1.25,21.6 3.05,21.4 4.85,21.2 5.75,17.55 7.9,17.95 10.1,17.65 10.15,17.9 10.2,18.15 10.2,18.2 10.65,20.05 11.55,21.9 13.6,21.6 14.8,21.4 14.95,18.75 15.05,17.05 14.7,14.35 13.35,7.3 13.25,7"/><path fill="#FC3" d="M6.75,11.6Q6.6,12.7 6.45,13.55 6.55,13.55 6.6,13.55 6.65,13.55 6.7,13.55 8,13.65 9.2,13.8 9.3,13.8 9.45,13.8 8.45,8.3 8.4,7.9 8.35,7.75 8.15,7.35 6.95,10.15 6.75,11.6"/><path fill="#BDBDBD" d="M8.15,8.9Q8.35,9.3 8.4,9.45 8.45,9.8 9.2,13.8 9.3,13.8 9.45,13.8 8.45,8.3 8.4,7.9 8.35,7.75 8.15,7.35 6.95,10.15 6.75,11.6 6.6,12.7 6.45,13.55 6.55,13.55 6.6,13.55 6.65,13.55 6.7,13.55 6.7,13.35 6.75,13.15 6.95,11.7 8.15,8.9"/><path fill="#FFF" d="M8.4,9.45Q8.35,9.3 8.15,8.9 6.95,11.7 6.75,13.15 6.7,13.35 6.7,13.55 8,13.65 9.2,13.8 8.45,9.8 8.4,9.45"/></g><animate attributeName="display" fill="freeze" repeatCount="1" dur="4s" keyTimes="0;0.44;1" values="none;inline;inline"/></g><g style="display:none;"><g id="Symbol_32" transform="matrix(1 0 0 1 108.25 3.9)" opacity="0"><animate attributeName="opacity" fill="freeze" dur="4s" keyTimes="0;0.39;0.44;1" values="0;0;1;1"/><path fill="#BDBDBD" d="M0,7.7Q0,8.35 0.05,8.9 0.05,9.5 0.15,10.05 0.25,10.6 0.5,11.15 0.55,11.2 0.55,11.3L0.6,11.35Q2.05,14.45 6.5,14.95 8.45,15.2 9.9,14.8 10.95,14.1 11.3,12.95L11.25,12.8Q10.9,13 9.9,13.25 8.45,13.65 6.5,13.4 1.9,12.9 0.5,9.6 0.05,8.6 0.05,7.35 0,7.5 0,7.7"/><path fill="#BDBDBD" d="M16.65,7.55L16.5,12.15Q16.25,17.9 12.3,18.85 8.3,19.75 5.9,18.35 5.35,18.05 5.05,17.75 3.85,18.75 5.9,19.9 8.3,21.3 12.3,20.4 16.25,19.45 16.5,13.7L16.65,9.1Q16.7,7.8 16.7,6.75 16.7,6.6 16.7,6.5 16.65,7 16.65,7.55"/><path fill="#75D4D0" d="M16.7,5.2Q16.65,4.45 16.6,3.55 16.55,0.6 14.75,0.4 12.95,0.15 12.6,0.6 10.2,-0.15 7.65,0.05 0.6,0.55 0,6.15 0,6.8 0.05,7.35 0.05,8.6 0.5,9.6 1.9,12.9 6.5,13.4 8.45,13.65 9.9,13.25 10.9,13 11.25,12.8L11.3,12.95Q10.95,14.1 9.9,14.8 8.4,15.8 5.6,15.85 3.95,16.75 5.05,17.75 5.35,18.05 5.9,18.35 8.3,19.75 12.3,18.85 16.25,17.9 16.5,12.15L16.65,7.55Q16.65,7 16.7,6.5 16.7,5.8 16.7,5.2"/><path fill="#75D4D0" d="M10.65,7.05Q10.7,6.8 10.75,6.5 11,4.35 8.05,4.1 5.15,3.9 4.9,6.25 4.8,7 5,7.4 5,7.5 5.05,7.55 5.6,8.6 7.7,8.8 8.8,8.95 9.45,8.6 10.1,8.35 10.35,7.85 10.55,7.5 10.65,7.05"/><path fill="#BDBDBD" d="M10.65,7.05Q10.7,6.8 10.75,6.5 11,4.35 8.05,4.1 5.15,3.9 4.9,6.25 4.8,7 5,7.4 5.4,5.45 8.05,5.65 10.2,5.85 10.65,7.05"/><path fill="#FFF" d="M10.35,7.85Q10.55,7.5 10.65,7.05 10.2,5.85 8.05,5.65 5.4,5.45 5,7.4 5,7.5 5.05,7.55 5.6,8.6 7.7,8.8 8.8,8.95 9.45,8.6 10.1,8.35 10.35,7.85"/></g><animate attributeName="display" fill="freeze" repeatCount="1" dur="4s" keyTimes="0;0.39;1" values="none;inline;inline"/></g><g style="display:none;"><g id="Symbol_31" transform="matrix(1 0 0 1 91.3 6.3)" opacity="0"><animate attributeName="opacity" fill="freeze" dur="4s" keyTimes="0;0.34;0.39;1" values="0;0;1;1"/><path fill="#BDBDBD" d="M7.1,15.45Q7.1,15.4 7.1,15.35 6.75,16.3 5.3,16.5 2.1,17 1.55,15.05 1.55,15.65 1.55,16.55 2.05,18.55 5.3,18.05 6.8,17.85 7.1,16.8 7.25,16.4 7.1,15.45"/><path fill="#BDBDBD" d="M0.2,4.15Q0.15,4 0.15,3.85 0,4.1 0,4.4 0,4.95 0.2,5.7L0.25,5.9 0.25,5.85Q0.3,6.05 0.75,9L1.5,13.6Q1.55,13.85 1.55,14.5 1.6,12.6 1.5,12.05L0.75,7.45Q0.3,4.5 0.25,4.3L0.25,4.35 0.2,4.15"/><path fill="#75D4D0" d="M10.75,8.95Q10.85,9.15 10.9,9.35 11.55,14.65 12.9,14.95 14.3,15.25 15.65,14.6 16.75,14.05 16.95,12.35 16.95,12 16.95,11.6 16.9,9.2 16.05,5.75 15.15,2.25 12.85,0.8 10.5,-0.7 6.15,0.7 5.55,0.85 5.05,1.05 5,0.6 3.9,0.5 2.75,0.4 1.4,1.15 0,1.85 0,2.85 0,3.3 0.15,3.85 0.15,4 0.2,4.15L0.25,4.35 0.25,4.3Q0.3,4.5 0.75,7.45L1.5,12.05Q1.6,12.6 1.55,14.5 1.55,14.75 1.55,15L1.55,15.05Q2.1,17 5.3,16.5 6.75,16.3 7.1,15.35 7.1,15.3 7.1,15.25 7.25,14.85 7.1,13.9 6.9,12.6 6.85,11.45 6.8,10.9 6.8,10.35 6.85,8.75 7.75,8.15 8.65,7.55 9.45,7.85 10.3,8.15 10.75,8.95"/><path fill="#BDBDBD" d="M10.9,9.35Q10.85,9.15 10.75,8.95 10.3,8.15 9.45,7.85 8.65,7.55 7.75,8.15 6.85,8.75 6.8,10.35 6.8,10.9 6.85,11.45 7,10.2 7.75,9.7 8.65,9.1 9.45,9.4 10.3,9.7 10.75,10.5 10.85,10.7 10.9,10.9 11.55,16.2 12.9,16.5 14.3,16.8 15.65,16.15 16.95,15.5 16.95,13.15 16.95,12.75 16.95,12.35 16.75,14.05 15.65,14.6 14.3,15.25 12.9,14.95 11.55,14.65 10.9,9.35"/></g><animate attributeName="display" fill="freeze" repeatCount="1" dur="4s" keyTimes="0;0.34;1" values="none;inline;inline"/></g><g style="display:none;"><g id="Symbol_30" transform="matrix(1 0 0 1 82.4 0)" opacity="0"><animate attributeName="opacity" fill="freeze" dur="4s" keyTimes="0;0.29;0.34;1" values="0;0;1;1"/><path fill="#BDBDBD" d="M4.45,24.3Q2.65,24.5 1.9,23.85 1.6,23.6 1.55,22.85 1.05,19.2 1,14.95 0.95,20.1 1.55,24.4 1.6,25.15 1.9,25.4 2.65,26.05 4.45,25.85 6.25,25.65 6.45,22.65 6.65,19.9 6.6,17.1 6.6,19.1 6.45,21.1 6.25,24.1 4.45,24.3"/><path fill="#75D4D0" d="M2.3,9Q0.65,8.85 0.9,10.5L0.95,11.2 1,12.7Q1,13.35 1,14.05L1,14.25Q1,14.6 1,14.95 1.05,19.2 1.55,22.85 1.6,23.6 1.9,23.85 2.65,24.5 4.45,24.3 6.25,24.1 6.45,21.1 6.6,19.1 6.6,17.1 6.6,16.85 6.6,16.65 6.6,15.9 6.6,15.1 6.55,12 6.45,10.65 6.3,9.2 5.15,9.2 3.95,9.15 2.3,9"/><path fill="#000" fill-opacity="0.259" d="M0.95,11.2L1,12.7Q1,13.35 1,14.05L0.9,12.05Q0.8,11.55 0.95,11.2"/><path fill="#BDBDBD" d="M4.25,5.75Q4.2,5.75 3.6,5.8 3,5.8 2.1,5.65L1.55,5.55 1.65,5.5Q0.25,5.25 0.05,3.3 -0.05,3.7 0,4.15 0.1,6.55 1.65,6.85L1.55,6.9 2.1,7Q3,7.15 3.6,7.15 4.2,7.1 4.25,7.1 6.8,6.8 6.45,3.8 6.15,5.55 4.25,5.75"/><path fill="#75D4D0" d="M6.45,3.8Q6.55,3.2 6.45,2.45 6.1,-0.25 2.9,0 -0.2,0.25 0,2.8 0,3.05 0.05,3.3 0.25,5.25 1.65,5.5L1.55,5.55 2.1,5.65Q3,5.8 3.6,5.8 4.2,5.75 4.25,5.75 6.15,5.55 6.45,3.8"/></g><animate attributeName="display" fill="freeze" repeatCount="1" dur="4s" keyTimes="0;0.29;1" values="none;inline;inline"/></g><g style="display:none;"><g id="Symbol_29" transform="matrix(1 0 0 1 66.05 2.2)" opacity="0"><animate attributeName="opacity" fill="freeze" dur="4s" keyTimes="0;0.24;0.29;1" values="0;0;1;1"/><path fill="#BDBDBD" d="M11.05,16.2Q14,15.1 13.8,12.6 13.8,12.35 13.75,12.1 13.2,14.55 8.6,15.25 9.75,15.65 11.05,16.2"/><path fill="#BDBDBD" d="M6.95,19.9Q7.8,20.4 9.5,22.1 11.45,24.05 13.8,24.35 16.15,24.65 16.25,22.15 16.25,21.65 16.2,21.25 15.8,23.05 13.8,22.8 11.45,22.5 9.5,20.55 7.55,18.6 6.75,18.25L6.8,18.8 6.75,18.6Q6.85,19.3 6.95,19.9"/><path fill="#BDBDBD" d="M0.05,5.15Q-0.05,6.35 0.2,7.95 0.9,12.75 0.95,13.2 2,25.85 3.4,26.55 4,26.85 4.5,26.75 4.65,26.75 6.4,26.55 7.7,26.35 7.5,24.75L7.575,25.05Q7.494,24.688 7.45,24.25 7.2,24.9 6.4,25 4.65,25.2 4.5,25.2 4,25.3 3.4,25 2,24.3 0.95,11.65 0.9,11.2 0.2,6.4 0.1,5.75 0.05,5.15"/><path fill="#75D4D0" d="M13.75,12.1Q13.85,11.6 13.8,11.05 13.5,7.7 10.8,9.35 8.1,10.95 6.2,12.4 6.05,8.75 5.8,5.2 5.5,1.65 5.05,0.95 4.6,0.25 4.15,0.1 2.9,-0.35 1,1 -0.15,2.3 0.05,5.15 0.1,5.75 0.2,6.4 0.9,11.2 0.95,11.65 2,24.3 3.4,25 4,25.3 4.5,25.2 4.65,25.2 6.4,25 7.2,24.9 7.45,24.25 7.6,23.8 7.5,23.2L7.6,23.6Q7.35,22.2 6.95,19.9 6.85,19.3 6.75,18.6L6.8,18.8 6.75,18.25Q7.55,18.6 9.5,20.55 11.45,22.5 13.8,22.8 15.8,23.05 16.2,21.25 16.25,20.95 16.25,20.6 16.3,18.1 13.8,17.45 12.35,16.75 11.05,16.2 9.75,15.65 8.6,15.25 13.2,14.55 13.75,12.1"/></g><animate attributeName="display" fill="freeze" repeatCount="1" dur="4s" keyTimes="0;0.24;1" values="none;inline;inline"/></g><g style="display:none;"><g id="Symbol_28" transform="matrix(1 0 0 1 48.6 12.7)" opacity="0"><animate attributeName="opacity" fill="freeze" dur="4s" keyTimes="0;0.19;0.24;1" values="0;0;1;1"/><path fill="#BDBDBD" d="M7.1,15.45Q7.1,15.4 7.1,15.35 6.75,16.3 5.3,16.5 2.1,17 1.55,15.05 1.55,15.65 1.55,16.55 2.05,18.55 5.3,18.05 6.8,17.85 7.1,16.8 7.25,16.4 7.1,15.45"/><path fill="#BDBDBD" d="M0.15,3.85Q0,4.1 0,4.4 0,4.95 0.2,5.7L0.25,5.9 0.25,5.85Q0.3,6.05 0.75,9L1.5,13.6Q1.55,13.85 1.55,14.5 1.6,12.6 1.5,12.05L0.75,7.45Q0.3,4.5 0.25,4.3L0.25,4.35 0.2,4.15Q0.15,4 0.15,3.85"/><path fill="#75D4D0" d="M16.95,12.35Q16.95,12 16.95,11.6 16.9,9.2 16.05,5.75 15.15,2.25 12.85,0.8 10.5,-0.7 6.15,0.7 5.55,0.85 5.05,1.05 5,0.6 3.9,0.5 2.75,0.4 1.4,1.15 0,1.85 0,2.85 0,3.3 0.15,3.85 0.15,4 0.2,4.15L0.25,4.35 0.25,4.3Q0.3,4.5 0.75,7.45L1.5,12.05Q1.6,12.6 1.55,14.5 1.55,14.75 1.55,15L1.55,15.05Q2.1,17 5.3,16.5 6.75,16.3 7.1,15.35 7.1,15.3 7.1,15.25 7.25,14.85 7.1,13.9 6.9,12.6 6.85,11.45 6.8,10.9 6.8,10.35 6.85,8.75 7.75,8.15 8.65,7.55 9.45,7.85 10.3,8.15 10.75,8.95 10.85,9.15 10.9,9.35 11.55,14.65 12.9,14.95 14.3,15.25 15.65,14.6 16.75,14.05 16.95,12.35"/><path fill="#BDBDBD" d="M10.75,10.5Q10.85,10.7 10.9,10.9 11.55,16.2 12.9,16.5 14.3,16.8 15.65,16.15 16.95,15.5 16.95,13.15 16.95,12.75 16.95,12.35 16.75,14.05 15.65,14.6 14.3,15.25 12.9,14.95 11.55,14.65 10.9,9.35 10.85,9.15 10.75,8.95 10.3,8.15 9.45,7.85 8.65,7.55 7.75,8.15 6.85,8.75 6.8,10.35 6.8,10.9 6.85,11.45 7,10.2 7.75,9.7 8.65,9.1 9.45,9.4 10.3,9.7 10.75,10.5"/></g><animate attributeName="display" fill="freeze" repeatCount="1" dur="4s" keyTimes="0;0.19;1" values="none;inline;inline"/></g><g style="display:none;"><g id="Symbol_27" transform="matrix(1 0 0 1 40.45 6.3)" opacity="0"><animate attributeName="opacity" fill="freeze" dur="4s" keyTimes="0;0.14;0.19;1" values="0;0;1;1"/><path fill="#BDBDBD" d="M1.9,22.25Q2.2,24.45 3.55,24.45 6.65,24.45 7.3,21.3 7.3,20.4 7.3,19.75 6.65,22.9 3.55,22.9 2.2,22.9 1.9,20.7 1.35,16.35 1.3,13.55 1.15,16.55 1.9,22.25"/><path fill="#75D4D0" d="M3.95,7.8Q1.55,7.15 1.35,10.8 1.2,11.9 1.3,13.55 1.35,16.35 1.9,20.7 2.2,22.9 3.55,22.9 6.65,22.9 7.3,19.75 7.3,18.05 7.3,17.85L7.3,17.55Q7.3,16.45 7.3,16.3 7.3,15.45 7.15,13.25 6.95,11 6.85,10.55 6.55,9.05 5.1,8.25 4.6,8 3.95,7.8"/><path fill="#BDBDBD" d="M6,4.45Q6.1,3.7 5.95,3.15 5.45,5.75 3.8,5.75L3.55,5.75Q4.9,5.65 2.65,5.65 0.55,5.6 0.1,3.15 -0.05,3.65 0.05,4.35 0.4,7.15 2.65,7.2 4.9,7.2 3.55,7.3L3.8,7.3Q5.55,7.3 6,4.45"/><path fill="#75D4D0" d="M5.95,3.15Q6,3.05 6,2.9 6.4,0 3.05,0 -0.3,0 0.05,2.8 0.05,3 0.1,3.15 0.55,5.6 2.65,5.65 4.9,5.65 3.55,5.75L3.8,5.75Q5.45,5.75 5.95,3.15"/></g><animate attributeName="display" fill="freeze" repeatCount="1" dur="4s" keyTimes="0;0.14;1" values="none;inline;inline"/></g><g style="display:none;"><g id="Symbol_26" transform="matrix(1 0 0 1 22.2 3.75)" opacity="0"><animate attributeName="opacity" fill="freeze" dur="4s" keyTimes="0;0.09;0.14;1" values="0;0;1;1"/><path fill="#BDBDBD" d="M6.6,29.85Q8.1,29.65 8.4,28.6 8.55,28.2 8.4,27.25 8.4,27.2 8.4,27.15 8.05,28.1 6.6,28.3 3.4,28.8 2.9,26.9 2.85,27.5 2.85,28.35 3.35,30.35 6.6,29.85"/><path fill="#BDBDBD" d="M8.15,23.25Q8.3,22 9.05,21.5 9.95,20.9 10.75,21.2 11.6,21.5 12.05,22.3 12.15,22.5 12.2,22.7 12.85,28 14.2,28.3 15.6,28.6 16.95,27.95 18.25,27.3 18.25,24.95 18.25,24.55 18.25,24.15 18.05,25.85 16.95,26.4 15.6,27.05 14.2,26.75 12.85,26.45 12.2,21.15 12.15,20.95 12.05,20.75 11.6,19.95 10.75,19.65 9.95,19.35 9.05,19.95 8.15,20.55 8.1,22.15 8.1,22.7 8.15,23.25"/><path fill="#000" fill-opacity="0.259" d="M7.25,9.85Q7.2,9.25 7.25,8.4 7.25,8.25 7.3,8.1 7.3,8.9 7.25,9.85"/><path fill="#000" fill-opacity="0.259" d="M0.9,11.25L2.8,23.85Q2.9,24.35 2.85,26.2 2.85,25.65 2.8,25.4L0.9,12.8Q0.85,11.85 0.55,10.2 -0.15,5.7 0.05,4.1 0.1,5.8 0.55,8.65 0.85,10.3 0.9,11.25"/><path fill="#75D4D0" d="M0.1,2.05Q-0.05,2.65 0.05,4.1 0.1,5.8 0.55,8.65 0.85,10.3 0.9,11.25L2.8,23.85Q2.9,24.35 2.85,26.2 2.85,26.5 2.85,26.8 2.85,26.85 2.9,26.9 3.4,28.8 6.6,28.3 8.05,28.1 8.4,27.15 8.4,27.1 8.4,27.05 8.55,26.65 8.4,25.7 8.2,24.4 8.15,23.25 8.1,22.7 8.1,22.15 8.15,20.55 9.05,19.95 9.95,19.35 10.75,19.65 11.6,19.95 12.05,20.75 12.15,20.95 12.2,21.15 12.85,26.45 14.2,26.75 15.6,27.05 16.95,26.4 18.05,25.85 18.25,24.15 18.25,23.8 18.25,23.4 18.2,21 17.35,17.55 16.45,14.05 14.35,12.45 12.25,10.75 9.55,11.5 7.5,12.05 7.25,9.85 7.2,9.25 7.25,8.4 7.25,8.25 7.3,8.1 7.5,4.4 5.8,2 4.05,-0.5 2.3,0.15 0.45,0.65 0.1,2.05"/></g><animate attributeName="display" fill="freeze" repeatCount="1" dur="4s" keyTimes="0;0.09;1" values="none;inline;inline"/></g><g style="display:none;"><g id="Symbol_25" transform="matrix(1 0 0 1 0 1.95)" opacity="0"><animate attributeName="opacity" fill="freeze" dur="4s" keyTimes="0;0.04;0.09;1" values="0;0;1;1"/><path fill="#BDBDBD" d="M1.5,8.05Q3.4,8.2 5.6,7.85 5.9,7.75 6.15,7.75 6.3,8.45 6.65,9.65 7.2,11.95 7.3,12.9 7.8,16.6 8.2,23.65 8.35,26.65 8.5,28.8L8.65,29.3Q9.1,33 10.25,33.65 11.4,34.45 13.4,34.2 16.3,33.8 17.2,31.8 17.25,31.7 17.25,31.65 17.25,31.6 17.25,31.55 17.45,31 17.5,30.25 17.45,29.9 17.4,29.55 17.35,29.8 17.25,30 17.25,30.05 17.25,30.1 17.25,30.15 17.2,30.25 16.3,32.25 13.4,32.65 11.4,32.9 10.25,32.1 9.1,31.45 8.65,27.75L8.5,27.25Q8.35,25.1 8.2,22.1 7.8,15.05 7.3,11.35 7.2,10.4 6.65,8.1 6.3,6.9 6.15,6.2 5.9,6.2 5.6,6.3 3.4,6.65 1.5,6.5 0.4,5.75 0.1,4.75 -0.4,6.75 1.5,8.05"/><path fill="#BDBDBD" d="M21.25,3.3Q21.2,3.7 21.15,4.1L14.75,5.35Q14.7,5.55 14.7,5.75 14.75,6.3 14.8,6.9L21.15,5.65Q21.35,4.25 21.25,3.3"/><path fill="#75D4D0" d="M21.25,1.55Q21.15,1.2 21.05,0.95 20.7,0.1 19.95,0 17.3,-0.05 12.75,0.35 4.1,1.3 0.35,2.5 -0.2,3.75 0.1,4.75 0.4,5.75 1.5,6.5 3.4,6.65 5.6,6.3 5.9,6.2 6.15,6.2 6.3,6.9 6.65,8.1 7.2,10.4 7.3,11.35 7.8,15.05 8.2,22.1 8.35,25.1 8.5,27.25L8.65,27.75Q9.1,31.45 10.25,32.1 11.4,32.9 13.4,32.65 16.3,32.25 17.2,30.25 17.25,30.15 17.25,30.1 17.25,30.05 17.25,30 17.35,29.8 17.4,29.55 17.45,29.15 17.5,28.7 17.4,28.15 17.35,27.65 17.15,26.15 17.05,25.45L15.5,13.9Q15.45,13.55 15.4,13.3 15.3,12.3 15.2,11.15 14.95,8.75 14.8,6.9 14.75,6.3 14.7,5.75 14.7,5.55 14.75,5.35L21.15,4.1Q21.2,3.7 21.25,3.3 21.35,2.25 21.25,1.55"/></g><animate attributeName="display" fill="freeze" repeatCount="1" dur="4s" keyTimes="0;0.04;1" values="none;inline;inline"/></g></g><g id="Symbol_13" transform="matrix(1 0 0 1 18.1 148.9)"><path fill="#604339" d="M111.75,4.7L111.85,4.6 112.2,4.6Q113.5,4.45 113.9,3.25 114.35,1.8 114,1.05 113.45,0 112.05,0L0.9,0Q-1.55,2.4 2.55,4.7L111.75,4.7"/></g></g></g></svg>