<?xml version="1.0" encoding="utf-8"?>
<!-- Generator: Adobe Illustrator 19.2.0, SVG Export Plug-In . SVG Version: 6.00 Build 0)  -->
<svg version="1.1" id="_x31_020" image-rendering="auto"
	 xmlns="http://www.w3.org/2000/svg" xmlns:xlink="http://www.w3.org/1999/xlink" x="0px" y="0px" width="1020px" height="660px"
	 viewBox="0 0 1020 660" enable-background="new 0 0 1020 660" xml:space="preserve">
<path opacity="0.25" fill="#332C2A" d="M959.7,162.2c-0.8-1.6-1.7-3.1-2.6-4.6C936.9,122,904.7,92.5,860.8,69
	c-2.1-1.2-4.2-2.3-6.4-3.4c-23-11.8-48.5-21.9-76.7-30.2C725,19.8,663.1,10.3,592,6.8c-6.5-0.3-13.1-0.6-19.8-0.8
	c-27.9-0.9-57.1-0.9-87.7,0c-79.8,2.3-168.8,10.7-267,25.2c-13.1,1.7-25.6,4.9-37.3,9.5C133.5,59,98.2,98.1,74.1,158
	c-4.4,11-8.5,22.7-12.1,35.2c-6.4,22-11.5,46-15.3,72.1c-3.7,25-6.1,51.9-7.2,80.7C43.9,456,50.8,526.7,60.2,558.1
	c2.7,8.8,7.3,18,13.9,27.6c0.3,0.4,0.5,0.8,0.8,1.2c7,9.9,22.1,21.7,45.3,35.2c23,13.4,75.3,21.8,156.7,25.2
	c162.4,12.2,350,9.1,563-9.1c31.7-3.8,57.3-12.3,77.1-25.2c19.7-13,33.2-33.1,40.3-60.4c6-23.2,9.2-44.8,9.7-65c0,1.5,0,3,0,4.8
	c3.8-54.7,6.7-96.1,8.5-124.2c0.3-3.7,0.5-7.4,0.8-11.1c2.8-45.4,4.2-83.4,4.2-114C980.6,215,973.6,188,959.7,162.2z"/>
</svg>
