<?xml version="1.0" encoding="utf-8"?><svg id="1016" image-rendering="auto" baseProfile="basic" version="1.1" x="0px" y="0px" width="660" height="660" xmlns="http://www.w3.org/2000/svg" xmlns:xlink="http://www.w3.org/1999/xlink"><defs><symbol id="Symbol_14_copy" overflow="visible"><path fill="#FFCB99" d="M14,7.25L13.95,4.05Q13.7,4 13.4,4 9.8,3.55 6.4,2.4 5.85,2.2 5.35,2 5.05,1.85 4.7,1.75 4.7,-0.05 4.15,0.15 4,0.2 3.75,0.4 3.7,0.4 3.55,1.25 2.15,0.1 1.9,0 1.6,-0.05 1.4,0.1 1.2,0.35 1.8,1.4 1.55,1.15 0.95,0.85 0.35,0.45 0.3,1.05 0.25,1.75 2.15,2.7 0.65,2.05 0.35,2 0,1.9 0,2.3 0,2.65 0.75,3.1 1.5,3.5 1.65,3.7 -0.05,2.8 0.15,3.5 0.4,4.2 1.25,4.45 2.25,4.6 3.65,5.05L4.05,5.15Q4.15,5.15 4.2,5.2 4.8,5.45 5.4,5.65 5.9,5.8 6.45,5.95 9.7,6.85 13.45,7.2 13.75,7.25 14,7.25"/>
</symbol><symbol id="Symbol_14" overflow="visible"><path fill="#FFCB99" d="M13.95,4.05Q13.7,4 13.4,4 9.8,3.55 6.4,2.4 5.85,2.2 5.35,2 5.05,1.85 4.7,1.75 4.7,-0.05 4.15,0.15 4,0.2 3.75,0.4 3.7,0.4 3.55,1.25 2.15,0.1 1.9,0 1.6,-0.05 1.4,0.1 1.2,0.35 1.8,1.4 1.55,1.15 0.95,0.85 0.35,0.45 0.3,1.05 0.25,1.75 2.15,2.7 0.65,2.05 0.35,2 0,1.9 0,2.3 0,2.65 0.75,3.1 1.5,3.5 1.65,3.7 -0.05,2.8 0.15,3.5 0.4,4.2 1.25,4.45 2.25,4.6 3.65,5.05L4.05,5.15Q4.15,5.15 4.2,5.2 4.8,5.45 5.4,5.65 5.9,5.8 6.45,5.95 9.7,6.85 13.45,7.2 13.75,7.25 14,7.25L13.95,4.05"/><path fill="#538DC6" d="M27.45,7Q27.85,5.75 27.5,1.75 18.85,4.6 13.95,4.05L14,7.25Q20.05,7.8 27.45,7"/>
</symbol></defs><g id="Symbol_41_l1" overflow="visible" transform="matrix(1 0 0 1 295.25 129.05)"><g id="Symbol_10_l1" transform="matrix(3.967 0 0 3.967 -289.8 -124.35)"><g><path fill="none" stroke="#000" stroke-opacity="0.251" stroke-width="2" stroke-linecap="round" stroke-linejoin="round" d="M156.4,15.55Q150.65,9.65 141.8,8.05 133.55,6.5 127.25,9.4 126.8,9.6 126.35,9.85 125.7,10.2 125.15,10.6 124.95,9.05 122.45,7.15 121.25,6.2 119.45,5.15 118.75,4.75 118,4.35 113.45,2 108.85,1.55 104.45,1.3 101.8,2.6 99.85,1.35 96.35,0.6 94.95,0.3 93.65,0.15 91.55,-0.1 89.55,0.05 88.05,0.1 87,0.2 85.75,0.3 85.15,0.45 84,0.65 82.05,1.25 79.4,2.05 77.15,3.25 73.95,2.2 71.05,1.9L70.675,1.875Q67.077,1.608 63.9,2.55 62.35,2.95 60.85,3.8 60.15,4.2 59.65,4.55 58.95,3.95 57.3,2.7 55.6,1.45 51.7,1.05L48.55,1.05Q44.85,1 40,3.3 37.7,4.35 36.45,5.35 35.25,3.25 32.5,1.9 27.85,-0.35 21.55,0.7 14.95,1.75 10.6,5.9 5.65,10.6 5.65,17.8 5.65,18.15 5.65,18.5 5.75,22.1 6.55,25 7.45,28.25 7.45,29.65 7.45,30.65 5.15,37.85 3.3,44.9 2.95,51.85 2.85,53.5 2.85,55.15 2.85,55.25 3.25,65.35 3.55,68.05 4,70.05 3.9,70.45 3.8,70.85 1.1,77.7 0.5,83.55 -0.1,89.4 0.05,93.3 0.2,97.2 2.4,103.3 4.55,109.35 8.55,111.95 3.7,119.95 2,126.15 0.2,132.85 1.5,139.9 2.8,146.9 7.25,151.05 8.45,152.15 9.15,152.75 9.05,153.7 9.2,156.6 9.35,159.5 12.3,161.15 15.2,162.8 22.25,162.5 29.25,162.15 32.25,160.25 35.35,161.85 44.3,162.15 53.2,162.4 57.65,159.05 62.7,162.5 70.4,162.1 74.85,161.55 77.4,159.6 79.6,157.95 79.95,157.75L79.925,157.75 80,157.7Q80.55,157.8 81.1,158 81.814,158.298 82.475,158.575 84.898,159.571 86.55,160.2 94.95,163.5 114.5,163.5 120.95,163.5 126.35,163.15 144.95,161.95 152.2,156.95 155.5,154.65 156.5,151.6 156.9,150.15 156.9,147.25 156.9,143.15 152.45,139.45 148.75,136.45 143.05,134.5 147.65,132.05 150.35,126.65 153.3,120.85 153.3,114.75 153.3,111.9 151.85,109.1 152.3,109.6 156.45,107.15 160.8,104.55 161.85,96.3 162.9,88.05 162,82.3 161.05,76.55 160.3,69.35L160.125,67.8Q160.053,67.198 159.975,66.65 160.068,67.198 160.15,67.8 159.55,61.85 159.75,59.55L161.35,48.75Q163,37.25 163,32.9 163,22.35 156.4,15.55"/><animate attributeName="display" repeatCount="1" dur="2.24s" keyTimes="0;0.893;1" values="none;inline;none"/></g><g style="display:none;"><path fill="none" stroke="#000" stroke-opacity="0.251" stroke-width="2" stroke-linecap="round" stroke-linejoin="round" d="M156.4,15.55Q150.65,9.65 141.8,8.05 133.55,6.5 127.25,9.4 126.8,9.6 126.35,9.85 125.7,10.2 125.15,10.6 124.95,9.05 122.45,7.15 121.25,6.2 119.45,5.15 118.75,4.75 118,4.35 113.45,2 108.85,1.55 104.45,1.3 101.8,2.6 99.85,1.35 96.35,0.6 94.95,0.3 93.65,0.15 91.55,-0.1 89.55,0.05 88.05,0.1 87,0.2 85.75,0.3 85.15,0.45 84,0.65 82.05,1.25 79.4,2.05 77.15,3.25 73.95,2.2 71.05,1.9L70.675,1.875Q67.077,1.608 63.9,2.55 62.35,2.95 60.85,3.8 60.15,4.2 59.65,4.55 58.95,3.95 57.3,2.7 55.6,1.45 51.7,1.05L48.55,1.05Q44.85,1 40,3.3 37.7,4.35 36.45,5.35 35.25,3.25 32.5,1.9 27.85,-0.35 21.55,0.7 14.95,1.75 10.6,5.9 5.65,10.6 5.65,17.8 5.65,18.15 5.65,18.5 5.75,22.1 6.55,25 7.45,28.25 7.45,29.65 7.45,30.65 5.15,37.85 3.3,44.9 2.95,51.85 2.85,53.5 2.85,55.15 2.85,55.25 3.25,65.35 3.55,68.05 4,70.05 3.9,70.45 3.8,70.85 1.1,77.7 0.5,83.55 -0.1,89.4 0.05,93.3 0.2,97.2 2.4,103.3 4.55,109.35 8.55,111.95 9.2,113.138 9.925,114.3 8.581,120.361 9.75,126.7 11.05,133.7 15.5,137.85 16.7,138.95 17.4,139.55 17.3,140.5 17.45,143.4 17.6,146.3 20.55,147.95 23.45,149.6 30.5,149.3 37.5,148.95 40.5,147.05 43.6,148.65 52.55,148.95 54.144,148.995 55.6,148.925 66.619,153.672 79.925,157.75L80,157.7Q80.55,157.8 81.1,158 81.814,158.298 82.475,158.575 84.898,159.571 86.55,160.2 94.95,163.5 114.5,163.5 120.95,163.5 126.35,163.15 144.95,161.95 152.2,156.95 155.5,154.65 156.5,151.6 156.9,150.15 156.9,147.25 156.9,143.15 152.45,139.45 148.75,136.45 143.05,134.5 147.65,132.05 150.35,126.65 153.3,120.85 153.3,114.75 153.3,111.9 151.85,109.1 152.3,109.6 156.45,107.15 160.8,104.55 161.85,96.3 162.9,88.05 162,82.3 161.05,76.55 160.3,69.35L160.125,67.8Q160.053,67.198 159.975,66.65 160.068,67.198 160.15,67.8 159.55,61.85 159.75,59.55L161.35,48.75Q163,37.25 163,32.9 163,22.35 156.4,15.55"/><animate attributeName="display" repeatCount="1" dur="2.24s" keyTimes="0;0.875;0.893;1" values="none;inline;none;none"/></g><g style="display:none;"><path fill="none" stroke="#000" stroke-opacity="0.251" stroke-width="2" stroke-linecap="round" stroke-linejoin="round" d="M156.4,15.55Q150.65,9.65 141.8,8.05 133.55,6.5 127.25,9.4 126.8,9.6 126.35,9.85 125.7,10.2 125.15,10.6 124.95,9.05 122.45,7.15 121.25,6.2 119.45,5.15 118.75,4.75 118,4.35 113.45,2 108.85,1.55 104.45,1.3 101.8,2.6 99.85,1.35 96.35,0.6 94.95,0.3 93.65,0.15 91.55,-0.1 89.55,0.05 88.05,0.1 87,0.2 85.75,0.3 85.15,0.45 84,0.65 82.05,1.25 79.4,2.05 77.15,3.25 73.95,2.2 71.05,1.9L70.675,1.875Q67.077,1.608 63.9,2.55 62.35,2.95 60.85,3.8 60.15,4.2 59.65,4.55 58.95,3.95 57.3,2.7 55.6,1.45 51.7,1.05L48.55,1.05Q44.85,1 40,3.3 37.7,4.35 36.45,5.35 35.25,3.25 32.5,1.9 27.85,-0.35 21.55,0.7 14.95,1.75 10.6,5.9 5.65,10.6 5.65,17.8 5.65,18.15 5.65,18.5 5.75,22.1 6.55,25 7.45,28.25 7.45,29.65 7.45,30.65 5.15,37.85 3.3,44.9 2.95,51.85 2.85,53.5 2.85,55.15 2.85,55.25 3.25,65.35 3.55,68.05 4,70.05 3.9,70.45 3.8,70.85 1.1,77.7 0.5,83.55 -0.1,89.4 0.05,93.3 0.2,97.2 2.4,103.3 4.55,109.35 8.55,111.95 24.296,140.701 79.925,157.75L80,157.7Q80.55,157.8 81.1,158 81.814,158.298 82.475,158.575 84.898,159.571 86.55,160.2 94.95,163.5 114.5,163.5 120.95,163.5 126.35,163.15 144.95,161.95 152.2,156.95 155.5,154.65 156.5,151.6 156.9,150.15 156.9,147.25 156.9,143.15 152.45,139.45 148.75,136.45 143.05,134.5 147.65,132.05 150.35,126.65 153.3,120.85 153.3,114.75 153.3,111.9 151.85,109.1 152.3,109.6 156.45,107.15 160.8,104.55 161.85,96.3 162.9,88.05 162,82.3 161.05,76.55 160.3,69.35L160.125,67.8Q160.053,67.198 159.975,66.65 160.068,67.198 160.15,67.8 159.55,61.85 159.75,59.55L161.35,48.75Q163,37.25 163,32.9 163,22.35 156.4,15.55"/><animate attributeName="display" repeatCount="1" dur="2.24s" keyTimes="0;0.75;0.875;1" values="none;inline;none;none"/></g><g style="display:none;"><path fill="none" stroke="#000" stroke-opacity="0.251" stroke-width="2" stroke-linecap="round" stroke-linejoin="round" d="M153,45.4Q151.958,37.519 146.65,32.05 140.9,26.15 132.05,24.55 123.8,23 117.5,25.9 117.05,26.1 116.6,26.35 115.95,26.7 115.4,27.1 115.2,25.55 112.7,23.65 111.5,22.7 109.7,21.65 109,21.25 108.25,20.85 103.7,18.5 99.1,18.05 94.7,17.8 92.05,19.1 90.1,17.85 86.6,17.1 85.2,16.8 83.9,16.65 81.8,16.4 79.8,16.55 79.15,16.572 78.575,16.6 78.078,14.176 77.75,11.625 77.995,8.575 77.275,6.475 75.899,2.5 71.05,1.9L70.675,1.875Q67.077,1.608 63.9,2.55 62.35,2.95 60.85,3.8 60.15,4.2 59.65,4.55 58.95,3.95 57.3,2.7 55.6,1.45 51.7,1.05L48.55,1.05Q44.85,1 40,3.3 37.7,4.35 36.45,5.35 35.25,3.25 32.5,1.9 27.85,-0.35 21.55,0.7 14.95,1.75 10.6,5.9 5.65,10.6 5.65,17.8 5.65,18.15 5.65,18.5 5.75,22.1 6.55,25 7.45,28.25 7.45,29.65 7.45,30.65 5.15,37.85 3.3,44.9 2.95,51.85 2.85,53.5 2.85,55.15 2.85,55.25 3.25,65.35 3.55,68.05 4,70.05 3.9,70.45 3.8,70.85 1.1,77.7 0.5,83.55 -0.1,89.4 0.05,93.3 0.2,97.2 2.4,103.3 4.55,109.35 8.55,111.95 24.296,140.701 79.925,157.75L80,157.7Q80.55,157.8 81.1,158 81.814,158.298 82.475,158.575 84.898,159.571 86.55,160.2 94.95,163.5 114.5,163.5 120.95,163.5 126.35,163.15 144.95,161.95 152.2,156.95 155.5,154.65 156.5,151.6 156.9,150.15 156.9,147.25 156.9,143.15 152.45,139.45 148.75,136.45 143.05,134.5 147.65,132.05 150.35,126.65 153.3,120.85 153.3,114.75 153.3,111.9 151.85,109.1 152.3,109.6 156.45,107.15 160.8,104.55 161.85,96.3 162.9,88.05 162,82.3 161.05,76.55 160.3,69.35L160.125,67.8Q159.858,65.582 159.55,64.05 157.305,52.356 153,45.4"/><animate attributeName="display" repeatCount="1" dur="2.24s" keyTimes="0;0.732;0.75;1" values="none;inline;none;none"/></g><g style="display:none;"><path fill="none" stroke="#000" stroke-opacity="0.251" stroke-width="2" stroke-linecap="round" stroke-linejoin="round" d="M103.7,32.55Q99.737,33.3 96.125,35.3 91.181,32.702 86.025,34.825 79.457,24.916 77.75,11.625 77.995,8.575 77.275,6.475 75.899,2.5 71.05,1.9L70.675,1.875Q67.077,1.608 63.9,2.55 62.35,2.95 60.85,3.8 60.15,4.2 59.65,4.55 58.95,3.95 57.3,2.7 55.6,1.45 51.7,1.05L48.55,1.05Q44.85,1 40,3.3 37.7,4.35 36.45,5.35 35.25,3.25 32.5,1.9 27.85,-0.35 21.55,0.7 14.95,1.75 10.6,5.9 5.65,10.6 5.65,17.8 5.65,18.15 5.65,18.5 5.75,22.1 6.55,25 7.45,28.25 7.45,29.65 7.45,30.65 5.15,37.85 3.3,44.9 2.95,51.85 2.85,53.5 2.85,55.15 2.85,55.25 3.25,65.35 3.55,68.05 4,70.05 3.9,70.45 3.8,70.85 1.1,77.7 0.5,83.55 -0.1,89.4 0.05,93.3 0.2,97.2 2.4,103.3 4.55,109.35 8.55,111.95 24.296,140.701 79.925,157.75L80,157.7Q80.55,157.8 81.1,158 81.814,158.298 82.475,158.575 84.898,159.571 86.55,160.2 94.95,163.5 114.5,163.5 120.95,163.5 126.35,163.15 144.95,161.95 152.2,156.95 155.5,154.65 156.5,151.6 156.9,150.15 156.9,147.25 156.9,143.15 152.45,139.45 148.75,136.45 143.05,134.5 147.65,132.05 150.35,126.65 153.3,120.85 153.3,114.75 153.3,111.9 151.85,109.1 152.3,109.6 156.45,107.15 160.8,104.55 161.85,96.3 162.9,88.05 162,82.3 161.05,76.55 160.3,69.35L160.125,67.8Q159.858,65.582 159.55,64.05 155.279,41.81 143.55,36.75 124.961,28.774 103.7,32.55"/><animate attributeName="display" repeatCount="1" dur="2.24s" keyTimes="0;0.554;0.732;1" values="none;inline;none;none"/></g><g style="display:none;"><path fill="none" stroke="#000" stroke-opacity="0.251" stroke-width="2" stroke-linecap="round" stroke-linejoin="round" d="M103.7,32.55Q96.154,33.978 89.925,39.925 79.918,28.508 77.75,11.625 77.995,8.575 77.275,6.475 75.899,2.5 71.05,1.9L70.675,1.875Q67.077,1.608 63.9,2.55 62.35,2.95 60.85,3.8 60.15,4.2 59.65,4.55 58.95,3.95 57.3,2.7 55.6,1.45 51.7,1.05L48.55,1.05Q44.85,1 40,3.3 37.7,4.35 36.45,5.35 35.25,3.25 32.5,1.9 27.85,-0.35 21.55,0.7 14.95,1.75 10.6,5.9 5.65,10.6 5.65,17.8 5.65,18.15 5.65,18.5 5.75,22.1 6.55,25 7.45,28.25 7.45,29.65 7.45,30.65 5.15,37.85 3.3,44.9 2.95,51.85 2.85,53.5 2.85,55.15 2.85,55.25 3.25,65.35 3.55,68.05 4,70.05 3.9,70.45 3.8,70.85 1.1,77.7 0.5,83.55 -0.1,89.4 0.05,93.3 0.2,97.2 2.4,103.3 4.55,109.35 8.55,111.95 24.296,140.701 79.925,157.75L80,157.7Q80.55,157.8 81.1,158 81.814,158.298 82.475,158.575 84.898,159.571 86.55,160.2 94.95,163.5 114.5,163.5 120.95,163.5 126.35,163.15 144.95,161.95 152.2,156.95 155.5,154.65 156.5,151.6 156.9,150.15 156.9,147.25 156.9,143.15 152.45,139.45 148.75,136.45 143.05,134.5 147.65,132.05 150.35,126.65 153.3,120.85 153.3,114.75 153.3,111.9 151.85,109.1 152.3,109.6 156.45,107.15 160.8,104.55 161.85,96.3 162.9,88.05 162,82.3 161.05,76.55 160.3,69.35L160.125,67.8Q159.858,65.582 159.55,64.05 155.279,41.81 143.55,36.75 124.961,28.774 103.7,32.55"/><animate attributeName="display" repeatCount="1" dur="2.24s" keyTimes="0;0.536;0.554;1" values="none;inline;none;none"/></g><g style="display:none;"><path fill="none" stroke="#000" stroke-opacity="0.251" stroke-width="2" stroke-linecap="round" stroke-linejoin="round" d="M160.3,69.35Q159.961,66.093 159.55,64.05 155.279,41.81 143.55,36.75 124.961,28.774 103.7,32.55 83.858,36.304 73.125,71.325L73.125,71.35Q54.71,75.405 39.65,64.7 22.99,63.244 13.1,80.3 2.751,98.325 9.4,117.75 9.405,117.76 9.4,117.775 24.614,148.652 68.85,155.7 73.562,158.026 81.05,157.975 81.075,157.983 81.1,158 84.45,159.4 86.55,160.2 94.95,163.5 114.5,163.5 120.95,163.5 126.35,163.15 144.95,161.95 152.2,156.95 155.5,154.65 156.5,151.6 156.9,150.15 156.9,147.25 156.9,143.15 152.45,139.45 148.75,136.45 143.05,134.5 147.65,132.05 150.35,126.65 153.3,120.85 153.3,114.75 153.3,111.9 151.85,109.1 152.3,109.6 156.45,107.15 160.8,104.55 161.85,96.3 162.9,88.05 162,82.3 161.05,76.55 160.3,69.35"/><animate attributeName="display" repeatCount="1" dur="2.24s" keyTimes="0;0.518;0.536;1" values="none;inline;none;none"/></g><g style="display:none;"><path fill="none" stroke="#000" stroke-opacity="0.251" stroke-width="2" stroke-linecap="round" stroke-linejoin="round" d="M160.3,69.35Q159.961,66.093 159.55,64.05 155.279,41.81 143.55,36.75 124.961,28.774 103.7,32.55 83.858,36.304 73.125,71.325 72.069,80.352 86,86.75L83.65,107.1Q51.838,122.368 62.15,148.5 65.961,158.077 81.05,157.975 81.075,157.983 81.1,158 84.45,159.4 86.55,160.2 94.95,163.5 114.5,163.5 120.95,163.5 126.35,163.15 144.95,161.95 152.2,156.95 155.5,154.65 156.5,151.6 156.9,150.15 156.9,147.25 156.9,143.15 152.45,139.45 148.75,136.45 143.05,134.5 147.65,132.05 150.35,126.65 153.3,120.85 153.3,114.75 153.3,111.9 151.85,109.1 152.3,109.6 156.45,107.15 160.8,104.55 161.85,96.3 162.9,88.05 162,82.3 161.05,76.55 160.3,69.35"/><animate attributeName="display" repeatCount="1" dur="2.24s" keyTimes="0;0.5;0.518;1" values="none;inline;none;none"/></g><g style="display:none;"><path fill="none" stroke="#000" stroke-opacity="0.251" stroke-width="2" stroke-linecap="round" stroke-linejoin="round" d="M160.3,69.35Q159.961,66.093 159.55,64.05 155.279,41.81 143.55,36.75 124.961,28.774 103.7,32.55 83.858,36.304 73.125,71.325 72.069,80.352 86,86.75L83.65,107.1 75.2,123.025Q72.173,128.858 78.15,131.6 80.359,132.638 82.95,133.45 66.674,148.334 81.1,158 84.45,159.4 86.55,160.2 94.95,163.5 114.5,163.5 120.95,163.5 126.35,163.15 144.95,161.95 152.2,156.95 155.5,154.65 156.5,151.6 156.9,150.15 156.9,147.25 156.9,143.15 152.45,139.45 148.75,136.45 143.05,134.5 147.65,132.05 150.35,126.65 153.3,120.85 153.3,114.75 153.3,111.9 151.85,109.1 152.3,109.6 156.45,107.15 160.8,104.55 161.85,96.3 162.9,88.05 162,82.3 161.05,76.55 160.3,69.35"/><animate attributeName="display" repeatCount="1" dur="2.24s" keyTimes="0;0.5;1" values="inline;none;none"/></g><g><path fill="#FFF" d="M156.4,15.55Q150.65,9.65 141.8,8.05 133.55,6.5 127.25,9.4 126.8,9.6 126.35,9.85 125.7,10.2 125.15,10.6 124.95,9.05 122.45,7.15 121.25,6.2 119.45,5.15 118.75,4.75 118,4.35 113.45,2 108.85,1.55 104.45,1.3 101.8,2.6 99.85,1.35 96.35,0.6 94.95,0.3 93.65,0.15 91.55,-0.1 89.55,0.05 88.05,0.1 87,0.2 85.75,0.3 85.15,0.45 84,0.65 82.05,1.25 79.4,2.05 77.15,3.25 73.95,2.2 71.05,1.9L70.675,1.875Q67.077,1.608 63.9,2.55 62.35,2.95 60.85,3.8 60.15,4.2 59.65,4.55 58.95,3.95 57.3,2.7 55.6,1.45 51.7,1.05L48.55,1.05Q44.85,1 40,3.3 37.7,4.35 36.45,5.35 35.25,3.25 32.5,1.9 27.85,-0.35 21.55,0.7 14.95,1.75 10.6,5.9 5.65,10.6 5.65,17.8 5.65,18.15 5.65,18.5 5.75,22.1 6.55,25 7.45,28.25 7.45,29.65 7.45,30.65 5.15,37.85 3.3,44.9 2.95,51.85 2.85,53.5 2.85,55.15 2.85,55.25 3.25,65.35 3.55,68.05 4,70.05 3.9,70.45 3.8,70.85 1.1,77.7 0.5,83.55 -0.1,89.4 0.05,93.3 0.2,97.2 2.4,103.3 4.55,109.35 8.55,111.95 3.7,119.95 2,126.15 0.2,132.85 1.5,139.9 2.8,146.9 7.25,151.05 8.45,152.15 9.15,152.75 9.05,153.7 9.2,156.6 9.35,159.5 12.3,161.15 15.2,162.8 22.25,162.5 29.25,162.15 32.25,160.25 35.35,161.85 44.3,162.15 53.2,162.4 57.65,159.05 62.7,162.5 70.4,162.1 74.85,161.55 77.4,159.6 79.6,157.95 79.95,157.75L79.925,157.75 80,157.7Q80.55,157.8 81.1,158 81.814,158.298 82.475,158.575 84.898,159.571 86.55,160.2 94.95,163.5 114.5,163.5 120.95,163.5 126.35,163.15 144.95,161.95 152.2,156.95 155.5,154.65 156.5,151.6 156.9,150.15 156.9,147.25 156.9,143.15 152.45,139.45 148.75,136.45 143.05,134.5 147.65,132.05 150.35,126.65 153.3,120.85 153.3,114.75 153.3,111.9 151.85,109.1 152.3,109.6 156.45,107.15 160.8,104.55 161.85,96.3 162.9,88.05 162,82.3 161.05,76.55 160.3,69.35L160.125,67.8Q160.053,67.198 159.975,66.65 160.068,67.198 160.15,67.8 159.55,61.85 159.75,59.55L161.35,48.75Q163,37.25 163,32.9 163,22.35 156.4,15.55 M77.575,7.575Q77.455,7 77.275,6.475 77.136,6.072 76.975,5.7 77.154,6.081 77.3,6.5 77.471,7.013 77.575,7.575"/><animate attributeName="display" repeatCount="1" dur="2.24s" keyTimes="0;0.893;1" values="none;inline;none"/></g><g style="display:none;"><path fill="#FFF" d="M156.4,15.55Q150.65,9.65 141.8,8.05 133.55,6.5 127.25,9.4 126.8,9.6 126.35,9.85 125.7,10.2 125.15,10.6 124.95,9.05 122.45,7.15 121.25,6.2 119.45,5.15 118.75,4.75 118,4.35 113.45,2 108.85,1.55 104.45,1.3 101.8,2.6 99.85,1.35 96.35,0.6 94.95,0.3 93.65,0.15 91.55,-0.1 89.55,0.05 88.05,0.1 87,0.2 85.75,0.3 85.15,0.45 84,0.65 82.05,1.25 79.4,2.05 77.15,3.25 73.95,2.2 71.05,1.9L70.675,1.875Q67.077,1.608 63.9,2.55 62.35,2.95 60.85,3.8 60.15,4.2 59.65,4.55 58.95,3.95 57.3,2.7 55.6,1.45 51.7,1.05L48.55,1.05Q44.85,1 40,3.3 37.7,4.35 36.45,5.35 35.25,3.25 32.5,1.9 27.85,-0.35 21.55,0.7 14.95,1.75 10.6,5.9 5.65,10.6 5.65,17.8 5.65,18.15 5.65,18.5 5.75,22.1 6.55,25 7.45,28.25 7.45,29.65 7.45,30.65 5.15,37.85 3.3,44.9 2.95,51.85 2.85,53.5 2.85,55.15 2.85,55.25 3.25,65.35 3.55,68.05 4,70.05 3.9,70.45 3.8,70.85 1.1,77.7 0.5,83.55 -0.1,89.4 0.05,93.3 0.2,97.2 2.4,103.3 4.55,109.35 8.55,111.95 9.2,113.138 9.925,114.3 8.581,120.361 9.75,126.7 11.05,133.7 15.5,137.85 16.7,138.95 17.4,139.55 17.3,140.5 17.45,143.4 17.6,146.3 20.55,147.95 23.45,149.6 30.5,149.3 37.5,148.95 40.5,147.05 43.6,148.65 52.55,148.95 54.144,148.995 55.6,148.925 66.619,153.672 79.925,157.75L80,157.7Q80.55,157.8 81.1,158 81.814,158.298 82.475,158.575 84.898,159.571 86.55,160.2 94.95,163.5 114.5,163.5 120.95,163.5 126.35,163.15 144.95,161.95 152.2,156.95 155.5,154.65 156.5,151.6 156.9,150.15 156.9,147.25 156.9,143.15 152.45,139.45 148.75,136.45 143.05,134.5 147.65,132.05 150.35,126.65 153.3,120.85 153.3,114.75 153.3,111.9 151.85,109.1 152.3,109.6 156.45,107.15 160.8,104.55 161.85,96.3 162.9,88.05 162,82.3 161.05,76.55 160.3,69.35L160.125,67.8Q160.053,67.198 159.975,66.65 160.068,67.198 160.15,67.8 159.55,61.85 159.75,59.55L161.35,48.75Q163,37.25 163,32.9 163,22.35 156.4,15.55 M77.575,7.575Q77.455,7 77.275,6.475 77.136,6.072 76.975,5.7 77.154,6.081 77.3,6.5 77.471,7.013 77.575,7.575"/><animate attributeName="display" repeatCount="1" dur="2.24s" keyTimes="0;0.875;0.893;1" values="none;inline;none;none"/></g><g style="display:none;"><path fill="#FFF" d="M156.4,15.55Q150.65,9.65 141.8,8.05 133.55,6.5 127.25,9.4 126.8,9.6 126.35,9.85 125.7,10.2 125.15,10.6 124.95,9.05 122.45,7.15 121.25,6.2 119.45,5.15 118.75,4.75 118,4.35 113.45,2 108.85,1.55 104.45,1.3 101.8,2.6 99.85,1.35 96.35,0.6 94.95,0.3 93.65,0.15 91.55,-0.1 89.55,0.05 88.05,0.1 87,0.2 85.75,0.3 85.15,0.45 84,0.65 82.05,1.25 79.4,2.05 77.15,3.25 73.95,2.2 71.05,1.9L70.675,1.875Q67.077,1.608 63.9,2.55 62.35,2.95 60.85,3.8 60.15,4.2 59.65,4.55 58.95,3.95 57.3,2.7 55.6,1.45 51.7,1.05L48.55,1.05Q44.85,1 40,3.3 37.7,4.35 36.45,5.35 35.25,3.25 32.5,1.9 27.85,-0.35 21.55,0.7 14.95,1.75 10.6,5.9 5.65,10.6 5.65,17.8 5.65,18.15 5.65,18.5 5.75,22.1 6.55,25 7.45,28.25 7.45,29.65 7.45,30.65 5.15,37.85 3.3,44.9 2.95,51.85 2.85,53.5 2.85,55.15 2.85,55.25 3.25,65.35 3.55,68.05 4,70.05 3.9,70.45 3.8,70.85 1.1,77.7 0.5,83.55 -0.1,89.4 0.05,93.3 0.2,97.2 2.4,103.3 4.55,109.35 8.55,111.95 24.296,140.701 79.925,157.75L80,157.7Q80.55,157.8 81.1,158 81.814,158.298 82.475,158.575 84.898,159.571 86.55,160.2 94.95,163.5 114.5,163.5 120.95,163.5 126.35,163.15 144.95,161.95 152.2,156.95 155.5,154.65 156.5,151.6 156.9,150.15 156.9,147.25 156.9,143.15 152.45,139.45 148.75,136.45 143.05,134.5 147.65,132.05 150.35,126.65 153.3,120.85 153.3,114.75 153.3,111.9 151.85,109.1 152.3,109.6 156.45,107.15 160.8,104.55 161.85,96.3 162.9,88.05 162,82.3 161.05,76.55 160.3,69.35L160.125,67.8Q160.053,67.198 159.975,66.65 160.068,67.198 160.15,67.8 159.55,61.85 159.75,59.55L161.35,48.75Q163,37.25 163,32.9 163,22.35 156.4,15.55 M77.575,7.575Q77.455,7 77.275,6.475 77.136,6.072 76.975,5.7 77.154,6.081 77.3,6.5 77.471,7.013 77.575,7.575"/><animate attributeName="display" repeatCount="1" dur="2.24s" keyTimes="0;0.75;0.875;1" values="none;inline;none;none"/></g><g style="display:none;"><path fill="#FFF" d="M153,45.4Q151.958,37.519 146.65,32.05 140.9,26.15 132.05,24.55 123.8,23 117.5,25.9 117.05,26.1 116.6,26.35 115.95,26.7 115.4,27.1 115.2,25.55 112.7,23.65 111.5,22.7 109.7,21.65 109,21.25 108.25,20.85 103.7,18.5 99.1,18.05 94.7,17.8 92.05,19.1 90.1,17.85 86.6,17.1 85.2,16.8 83.9,16.65 81.8,16.4 79.8,16.55 79.15,16.572 78.575,16.6 78.078,14.176 77.75,11.625 77.995,8.575 77.275,6.475 75.899,2.5 71.05,1.9L70.675,1.875Q67.077,1.608 63.9,2.55 62.35,2.95 60.85,3.8 60.15,4.2 59.65,4.55 58.95,3.95 57.3,2.7 55.6,1.45 51.7,1.05L48.55,1.05Q44.85,1 40,3.3 37.7,4.35 36.45,5.35 35.25,3.25 32.5,1.9 27.85,-0.35 21.55,0.7 14.95,1.75 10.6,5.9 5.65,10.6 5.65,17.8 5.65,18.15 5.65,18.5 5.75,22.1 6.55,25 7.45,28.25 7.45,29.65 7.45,30.65 5.15,37.85 3.3,44.9 2.95,51.85 2.85,53.5 2.85,55.15 2.85,55.25 3.25,65.35 3.55,68.05 4,70.05 3.9,70.45 3.8,70.85 1.1,77.7 0.5,83.55 -0.1,89.4 0.05,93.3 0.2,97.2 2.4,103.3 4.55,109.35 8.55,111.95 24.296,140.701 79.925,157.75L80,157.7Q80.55,157.8 81.1,158 81.814,158.298 82.475,158.575 84.898,159.571 86.55,160.2 94.95,163.5 114.5,163.5 120.95,163.5 126.35,163.15 144.95,161.95 152.2,156.95 155.5,154.65 156.5,151.6 156.9,150.15 156.9,147.25 156.9,143.15 152.45,139.45 148.75,136.45 143.05,134.5 147.65,132.05 150.35,126.65 153.3,120.85 153.3,114.75 153.3,111.9 151.85,109.1 152.3,109.6 156.45,107.15 160.8,104.55 161.85,96.3 162.9,88.05 162,82.3 161.05,76.55 160.3,69.35L160.125,67.8Q159.858,65.582 159.55,64.05 157.305,52.356 153,45.4"/><animate attributeName="display" repeatCount="1" dur="2.24s" keyTimes="0;0.732;0.75;1" values="none;inline;none;none"/></g><g style="display:none;"><path fill="#FFF" d="M103.7,32.55Q99.737,33.3 96.125,35.3 91.181,32.702 86.025,34.825 79.457,24.916 77.75,11.625 77.995,8.575 77.275,6.475 75.899,2.5 71.05,1.9L70.675,1.875Q67.077,1.608 63.9,2.55 62.35,2.95 60.85,3.8 60.15,4.2 59.65,4.55 58.95,3.95 57.3,2.7 55.6,1.45 51.7,1.05L48.55,1.05Q44.85,1 40,3.3 37.7,4.35 36.45,5.35 35.25,3.25 32.5,1.9 27.85,-0.35 21.55,0.7 14.95,1.75 10.6,5.9 5.65,10.6 5.65,17.8 5.65,18.15 5.65,18.5 5.75,22.1 6.55,25 7.45,28.25 7.45,29.65 7.45,30.65 5.15,37.85 3.3,44.9 2.95,51.85 2.85,53.5 2.85,55.15 2.85,55.25 3.25,65.35 3.55,68.05 4,70.05 3.9,70.45 3.8,70.85 1.1,77.7 0.5,83.55 -0.1,89.4 0.05,93.3 0.2,97.2 2.4,103.3 4.55,109.35 8.55,111.95 24.296,140.701 79.925,157.75L80,157.7Q80.55,157.8 81.1,158 81.814,158.298 82.475,158.575 84.898,159.571 86.55,160.2 94.95,163.5 114.5,163.5 120.95,163.5 126.35,163.15 144.95,161.95 152.2,156.95 155.5,154.65 156.5,151.6 156.9,150.15 156.9,147.25 156.9,143.15 152.45,139.45 148.75,136.45 143.05,134.5 147.65,132.05 150.35,126.65 153.3,120.85 153.3,114.75 153.3,111.9 151.85,109.1 152.3,109.6 156.45,107.15 160.8,104.55 161.85,96.3 162.9,88.05 162,82.3 161.05,76.55 160.3,69.35L160.125,67.8Q159.858,65.582 159.55,64.05 155.279,41.81 143.55,36.75 124.961,28.774 103.7,32.55"/><animate attributeName="display" repeatCount="1" dur="2.24s" keyTimes="0;0.554;0.732;1" values="none;inline;none;none"/></g><g style="display:none;"><path fill="#FFF" d="M103.7,32.55Q96.154,33.978 89.925,39.925 79.918,28.508 77.75,11.625 77.995,8.575 77.275,6.475 75.899,2.5 71.05,1.9L70.675,1.875Q67.077,1.608 63.9,2.55 62.35,2.95 60.85,3.8 60.15,4.2 59.65,4.55 58.95,3.95 57.3,2.7 55.6,1.45 51.7,1.05L48.55,1.05Q44.85,1 40,3.3 37.7,4.35 36.45,5.35 35.25,3.25 32.5,1.9 27.85,-0.35 21.55,0.7 14.95,1.75 10.6,5.9 5.65,10.6 5.65,17.8 5.65,18.15 5.65,18.5 5.75,22.1 6.55,25 7.45,28.25 7.45,29.65 7.45,30.65 5.15,37.85 3.3,44.9 2.95,51.85 2.85,53.5 2.85,55.15 2.85,55.25 3.25,65.35 3.55,68.05 4,70.05 3.9,70.45 3.8,70.85 1.1,77.7 0.5,83.55 -0.1,89.4 0.05,93.3 0.2,97.2 2.4,103.3 4.55,109.35 8.55,111.95 24.296,140.701 79.925,157.75L80,157.7Q80.55,157.8 81.1,158 81.814,158.298 82.475,158.575 84.898,159.571 86.55,160.2 94.95,163.5 114.5,163.5 120.95,163.5 126.35,163.15 144.95,161.95 152.2,156.95 155.5,154.65 156.5,151.6 156.9,150.15 156.9,147.25 156.9,143.15 152.45,139.45 148.75,136.45 143.05,134.5 147.65,132.05 150.35,126.65 153.3,120.85 153.3,114.75 153.3,111.9 151.85,109.1 152.3,109.6 156.45,107.15 160.8,104.55 161.85,96.3 162.9,88.05 162,82.3 161.05,76.55 160.3,69.35L160.125,67.8Q159.858,65.582 159.55,64.05 155.279,41.81 143.55,36.75 124.961,28.774 103.7,32.55"/><animate attributeName="display" repeatCount="1" dur="2.24s" keyTimes="0;0.536;0.554;1" values="none;inline;none;none"/></g><g style="display:none;"><path fill="#FFF" d="M160.3,69.35Q159.961,66.093 159.55,64.05 155.279,41.81 143.55,36.75 124.961,28.774 103.7,32.55 83.858,36.304 73.125,71.325L73.125,71.35Q54.71,75.405 39.65,64.7 22.99,63.244 13.1,80.3 2.751,98.325 9.4,117.75L9.4,117.775Q24.614,148.652 68.85,155.7 73.562,158.026 81.05,157.975 81.075,157.983 81.1,158 84.45,159.4 86.55,160.2 94.95,163.5 114.5,163.5 120.95,163.5 126.35,163.15 144.95,161.95 152.2,156.95 155.5,154.65 156.5,151.6 156.9,150.15 156.9,147.25 156.9,143.15 152.45,139.45 148.75,136.45 143.05,134.5 147.65,132.05 150.35,126.65 153.3,120.85 153.3,114.75 153.3,111.9 151.85,109.1 152.3,109.6 156.45,107.15 160.8,104.55 161.85,96.3 162.9,88.05 162,82.3 161.05,76.55 160.3,69.35"/><animate attributeName="display" repeatCount="1" dur="2.24s" keyTimes="0;0.518;0.536;1" values="none;inline;none;none"/></g><g style="display:none;"><path fill="#FFF" d="M160.3,69.35Q159.961,66.093 159.55,64.05 155.279,41.81 143.55,36.75 124.961,28.774 103.7,32.55 83.858,36.304 73.125,71.325 72.069,80.352 86,86.75L83.65,107.1Q51.838,122.368 62.15,148.5 65.961,158.077 81.05,157.975 81.075,157.983 81.1,158 84.45,159.4 86.55,160.2 94.95,163.5 114.5,163.5 120.95,163.5 126.35,163.15 144.95,161.95 152.2,156.95 155.5,154.65 156.5,151.6 156.9,150.15 156.9,147.25 156.9,143.15 152.45,139.45 148.75,136.45 143.05,134.5 147.65,132.05 150.35,126.65 153.3,120.85 153.3,114.75 153.3,111.9 151.85,109.1 152.3,109.6 156.45,107.15 160.8,104.55 161.85,96.3 162.9,88.05 162,82.3 161.05,76.55 160.3,69.35"/><animate attributeName="display" repeatCount="1" dur="2.24s" keyTimes="0;0.5;0.518;1" values="none;inline;none;none"/></g><g style="display:none;"><path fill="#FFF" d="M160.3,69.35Q159.961,66.093 159.55,64.05 155.279,41.81 143.55,36.75 124.961,28.774 103.7,32.55 83.858,36.304 73.125,71.325 72.069,80.352 86,86.75L83.65,107.1 75.2,123.025Q72.173,128.858 78.15,131.6 80.359,132.638 82.95,133.45 66.674,148.334 81.1,158 84.45,159.4 86.55,160.2 94.95,163.5 114.5,163.5 120.95,163.5 126.35,163.15 144.95,161.95 152.2,156.95 155.5,154.65 156.5,151.6 156.9,150.15 156.9,147.25 156.9,143.15 152.45,139.45 148.75,136.45 143.05,134.5 147.65,132.05 150.35,126.65 153.3,120.85 153.3,114.75 153.3,111.9 151.85,109.1 152.3,109.6 156.45,107.15 160.8,104.55 161.85,96.3 162.9,88.05 162,82.3 161.05,76.55 160.3,69.35"/><animate attributeName="display" repeatCount="1" dur="2.24s" keyTimes="0;0.5;1" values="inline;none;none"/></g><g><g id="Symbol_27" transform="matrix(1 0 0 1 7.75 119.6)"><animateTransform attributeName="transform" additive="replace" type="translate" dur="2.24s" keyTimes="0;0.839;0.893;0.946;1" values="62.507,96.588;62.507,96.588;44.65,138.95;45.4,138.2;45.4,138.2"/><animateTransform attributeName="transform" additive="sum" type="scale" dur="2.24s" keyTimes="0;0.839;0.893;1" values="0.849,0.849;0.849,0.849;1,1;1,1"/><animateTransform attributeName="transform" additive="sum" type="translate" dur="2.24s" keyTimes="0;1" values="-37.65,-18.6;-37.65,-18.6"/><path fill="#6AD0C6" d="M19.7,27.4Q19.6,27.7 19.6,28 19.05,32.7 15.95,32.7 12.9,32.7 12.3,27.65 12.3,27.55 12.3,27.5 12.1,29.8 12.3,31.3 12.9,36.35 15.95,36.35 19.05,36.35 19.6,31.7 19.8,29.85 19.7,27.4"/><path fill="#6AD0C6" d="M3.95,11.75Q1.25,6.95 0.4,4.3 0.2,4.8 0.05,5.35 0,5.65 0,5.95 0,8.55 3.95,15.4 8.3,23 12.25,25.05 12.25,23.5 12.5,21.55 8.4,19.55 3.95,11.75"/><path fill="#9CE0DD" d="M27.2,8.4Q29.45,4.2 30.2,1.45 29.55,0.1 27.65,0.3 25.4,0.6 21.7,4.65 18.4,8.25 15.75,12.85 15.3,13.6 14.95,14.35 12.75,9.95 10.9,6.8 6.7,0 3.95,0 1.7,0 0.4,4.3 1.25,6.95 3.95,11.75 8.4,19.55 12.5,21.55 12.25,23.5 12.25,25.05 12.35,25.1 12.5,25.2 12.35,26.4 12.3,27.5 12.3,27.55 12.3,27.65 12.9,32.7 15.95,32.7 19.05,32.7 19.6,28 19.6,27.7 19.7,27.4 19.6,26.65 19.55,25.9 19.55,25.75 19.75,25.35 19.75,23.9 19.55,22.2 19.55,21.75 21.7,18.1 23.75,14.5 27.2,8.4"/><path fill="#6AD0C6" d="M27.45,11.6Q27.8,11 28.05,10.55 30.5,5.6 30.5,3 30.45,2.05 30.2,1.45 29.45,4.2 27.2,8.4 23.75,14.5 21.7,18.1 19.55,21.75 19.55,22.2 19.75,23.9 19.75,25.35 20.2,24.35 21.7,21.75 23.75,18.15 27.2,12.05 27.35,11.85 27.45,11.6"/><path fill="#9CE0DD" d="M51.2,21.9Q50.85,17.95 47.35,14.45 43.5,10.7 38.6,9.75 33.3,8.7 29.9,11.75 26.35,14.9 25.6,23.3 25.9,24.65 26.7,26.7 29.4,33.5 39.3,33.5 48.2,33.5 50.5,27.2 51,25.65 51.2,21.9 M44.1,23.7Q44.1,23.75 44.1,23.8 44.1,24.9 43.5,25.9 42.1,28.5 38.55,28.3 35,28.05 34.15,26.55 33.95,26.15 33.85,25.95L33.95,26.05Q32.9,17.2 36.65,17.35 40.35,17.5 41.75,19.05 43.1,20.6 44.1,23.7"/><path fill="#9CE0DD" d="M42.35,16.8Q40.75,15.6 38.6,15.2 33.15,14.2 32.95,19.45 32.75,24.35 33.85,25.95 33.95,26.15 34.15,26.55 35,28.05 38.55,28.3 42.1,28.5 43.5,25.9 44.1,24.9 44.1,23.8 44.2,24.25 44.25,21.85 44.3,19.4 44.05,19.45 44.05,18 42.35,16.8 M44.1,23.7Q44.1,23.75 44.1,23.8 44.1,24.9 43.5,25.9 42.1,28.5 38.55,28.3 35,28.05 34.15,26.55 33.95,26.15 33.85,25.95L33.95,26.05Q32.9,17.2 36.65,17.35 40.35,17.5 41.75,19.05 43.1,20.6 44.1,23.7"/><path fill="#6AD0C6" d="M44.05,19.45Q44.05,18 42.35,16.8 40.75,15.6 38.6,15.2 33.15,14.2 32.95,19.45 32.75,24.35 33.85,25.95L33.95,26.05Q32.9,17.2 36.65,17.35 40.35,17.5 41.75,19.05 43.1,20.6 44.1,23.7 44.1,23.75 44.1,23.8 44.2,24.25 44.25,21.85 44.3,19.4 44.05,19.45"/><path fill="#6AD0C6" d="M51.2,22.85Q51.2,22.35 51.2,21.9 51,25.65 50.5,27.2 48.2,33.5 39.3,33.5 29.4,33.5 26.7,26.7 25.9,24.65 25.6,23.3 25.5,24.2 25.45,25.25 25.3,26.95 26.7,30.4 29.4,37.2 39.3,37.2 48.2,37.2 50.5,30.85 51.2,28.85 51.2,22.85"/><path fill="#6AD0C6" d="M53.1,24.35Q52.75,23 52.7,21 52.5,25.4 53.1,28 54.8,35.5 63.25,35.5 66.9,35.5 68.6,32.25 68.75,32.85 69.15,33.45 70.3,35.15 72.85,35.15 74.2,35.15 74.9,34.1 75.6,33.05 75.2,28.8 75.1,28.2 75,25.7 75,25.15 74.95,24.55 74.8,26.75 74.7,28.15 74.5,29.55 74.35,30.05 73.75,31.95 73.25,32.15 72.3,32.45 71.45,31.8 70.55,31.15 70.3,29.85 69.4,26 69.3,25.1 68.4,32.4 61.7,32.15 54.8,31.85 53.1,24.35"/><path fill="#9CE0DD" d="M70,11.2Q67.35,11.5 67,13.25 66.65,14.95 66.7,17.3 66.7,19.65 66.2,22 65.65,24.3 65,25.55 64.3,26.8 62.75,26.7 62,26.6 61.35,26.35 59.25,24.55 59.25,21.8 59.25,19.05 59.85,15.4 60.4,11.7 58.3,10.85 54.8,9.4 54,12.35 53.1,15.6 52.95,16.8 52.75,19.1 52.7,21 52.75,23 53.1,24.35 54.8,31.85 61.7,32.15 68.4,32.4 69.3,25.1 69.4,26 70.3,29.85 70.55,31.15 71.45,31.8 72.3,32.45 73.25,32.15 73.75,31.95 74.35,30.05 74.5,29.55 74.7,28.15 74.8,26.75 74.95,24.55 75,25.15 75,25.7 75.15,20.85 74.1,15.9 73,10.9 70,11.2"/></g><animate attributeName="display" repeatCount="1" dur="2.24s" keyTimes="0;0.839;1" values="none;inline;none"/></g><g><g id="Symbol_26" transform="matrix(0.999 0.043 -0.043 0.999 81.45 2)"><animateTransform attributeName="transform" additive="replace" type="translate" dur="2.24s" keyTimes="0;0.696;0.75;0.804;1" values="84.015,74.21;84.015,74.21;121.217,26.286;120.317,27.186;120.317,27.186"/><animateTransform attributeName="transform" additive="sum" type="rotate" dur="2.24s" keyTimes="0;1" values="2.472,0,0;2.472,0,0"/><animateTransform attributeName="transform" additive="sum" type="scale" dur="2.24s" keyTimes="0;0.696;0.75;1" values="0.811,0.811;0.811,0.811;1,1;1,1"/><animateTransform attributeName="transform" additive="sum" type="translate" dur="2.24s" keyTimes="0;0.696;0.75;1" values="-39.95,-23.45;-39.95,-23.45;-39.95,-23.5;-39.95,-23.5"/><path fill="#6AD0C6" d="M12.25,11.45L12.25,9.25Q11.45,13.3 10.8,16.35 10.7,16.9 10.6,17.45 9.75,21.4 9.35,23.25 9.05,24.5 8.4,25.3 7.2,26.7 4.85,26.55 3.6,26.55 2.75,26.35 1.95,26.35 0.85,25.2 0.4,24.75 0.2,24.25 0.1,24.7 0.05,24.95 -0.25,26.3 0.85,27.4 1.95,28.55 2.75,28.55 3.6,28.75 4.85,28.75 7.2,28.9 8.4,27.5 9.05,26.7 9.35,25.45 9.75,23.6 10.6,19.65 10.7,19.1 10.8,18.55 11.45,15.5 12.25,11.45"/><path fill="#9CE0DD" d="M20.65,22.35Q21.1,21.4 22.65,17.2 22.65,21.6 23,23.3 23.3,25 23.35,27.5 23.55,28.55 24.2,29.15 25.1,30 26.95,30 28.75,30 29.7,29.15 30.05,28.8 30.3,28.3L30.25,14.6Q30.2,14 30.2,13.95 28.95,3.9 24.8,3.9 21,3.9 20,6 19.4,7.2 19,9.25 18.85,5.6 18.3,3.75 17.3,0.5 13.85,0 10.25,0.15 8.4,2.05 8,2.4 7.7,2.9 3.7,9.85 1.85,17.65 1.75,18.1 1.65,18.55L1.55,18.55Q0.55,22.65 0.2,24.25 0.4,24.75 0.85,25.2 1.95,26.35 2.75,26.35 3.6,26.55 4.85,26.55 7.2,26.7 8.4,25.3 9.05,24.5 9.35,23.25 9.75,21.4 10.6,17.45 10.7,16.9 10.8,16.35 11.45,13.3 12.25,9.25L12.25,11.45 12.25,23.4Q13.25,26.15 16.65,26.15 18.7,26.15 20.65,22.35 M13.2,4.85L13.15,4.8Q13.198,4.8 13.2,4.75L13.2,4.85"/><path fill="#6AD0C6" d="M20.65,24.55Q21.1,23.6 22.65,19.4 22.65,23.8 23,25.5 23.25,27 23.35,29.15 23.35,29.4 23.35,29.7 23.8,32.2 26.95,32.2 29.5,32.2 30.3,30.45 30.3,29.75 30.3,29.15 30.3,28.7 30.3,28.3 30.05,28.8 29.7,29.15 28.75,30 26.95,30 25.1,30 24.2,29.15 23.55,28.55 23.35,27.5 23.3,25 23,23.3 22.65,21.6 22.65,17.2 21.1,21.4 20.65,22.35 18.7,26.15 16.65,26.15 13.25,26.15 12.25,23.4L12.25,25.6Q13.25,28.35 16.65,28.35 18.7,28.35 20.65,24.55"/><path fill="#6AD0C6" d="M42.55,29.7Q42.4,32.1 41.45,32.55L40.3,32.95Q36.6,34.15 36.2,29.15 36.156,28.844 36.15,28.5 36.15,28.844 36.15,29.15 36.2,35.65 40.3,34.3L41.45,33.9Q42.65,33.35 42.55,29.7"/><path fill="#9CE0DD" d="M42.5,29.15Q42.5,28.85 42.45,28.5 42.1,23.75 41.25,18.6 41.1,15.9 38.8,15.6 36.5,15.25 36.4,18.15 36.25,21 36.15,28.4L36.15,28.5Q36.156,28.844 36.2,29.15 36.6,34.15 40.3,32.95L41.45,32.55Q42.4,32.1 42.55,29.7 42.55,29.45 42.5,29.15"/><path fill="#9CE0DD" d="M36.4,10.75Q36.85,12.25 38.4,12.25L38.45,12.25Q40.35,12.25 40.6,10.15 40.35,7.9 38.45,7.9L38.4,7.9Q36.6,7.95 36.35,10.05L36.4,10.75"/><path fill="#6AD0C6" d="M40.6,10.8Q40.6,10.45 40.6,10.15 40.35,12.25 38.45,12.25L38.4,12.25Q36.85,12.25 36.4,10.75L36.35,10.05Q36.3,10.4 36.3,10.8L36.4,12.1Q36.85,13.6 38.45,13.6 39.8,13.6 40.3,12.5 40.6,11.85 40.6,10.8"/><path fill="#6AD0C6" d="M62.9,41Q62.9,40.55 62.95,40.25L62.9,40.25Q62.7,40.45 62.7,42.15 62.7,44.2 63.2,44.9 64.65,47 69.7,47 74.2,47 75.65,44 76.05,43.2 76.2,41.95 76.05,42.45 75.85,42.85 74.4,45.85 69.9,45.85 64.85,45.85 63.4,43.75 62.9,43.05 62.9,41"/><path fill="#6AD0C6" d="M66.35,34Q63.6,31.75 63.05,29.15 62.9,28.5 62.9,27.8 62.9,27.05 63,26.4 62.7,27.55 62.7,28.95 62.7,29.05 62.7,29.15 62.8,32.4 66.15,35.15 68.55,37.15 69.3,38.15 69.6,38.55 69.6,38.75 69.65,38.8 69.65,38.9 69.9,39.2 69.8,37.6 69.8,36.9 66.35,34"/><path fill="#6AD0C6" d="M72.9,27Q72.5,27.2 72.35,27.75 72.25,28.1 72.35,28.5 72.45,28.25 72.7,28.15 73.1,28.6 73.6,28.7 73.65,28.9 73.65,29.15 73.6,29.3 73.6,29.5 73.65,29.3 73.7,29.15 73.9,28.15 73.8,27.55 73.75,27.1 72.9,27"/><path fill="#6AD0C6" d="M79.7,30.65Q79.8,30.3 79.9,29.6 79.2,31.25 76.9,31.25 73.75,31.25 73.55,29.8 73.5,30.25 73.35,30.85 73.45,32.4 76.7,32.4 79.05,32.4 79.7,30.65"/><path fill="#9CE0DD" d="M77.2,23Q74.75,20.95 71.3,20.7 67.75,20.5 65.4,22.35 63.55,23.9 63,26.4 62.9,27.05 62.9,27.8 62.9,28.5 63.05,29.15 63.6,31.75 66.35,34 69.8,36.9 69.8,37.6 69.9,39.2 69.65,38.9 69.6,39.45 66.65,39.45 63.6,39.45 62.95,40.25 62.9,40.55 62.9,41 62.9,43.05 63.4,43.75 64.85,45.85 69.9,45.85 74.4,45.85 75.85,42.85 76.05,42.45 76.2,41.95 76.25,41.25 76.25,40.45 76.25,39.65 76.05,38.8 75.75,36.3 73.8,34.3 72.15,31.55 72.15,29.8 72.1,29.5 72.1,29.15 72.1,29.05 72.15,28.9 72.2,28.65 72.35,28.5 72.25,28.1 72.35,27.75 72.5,27.2 72.9,27 73.75,27.1 73.8,27.55 73.9,28.15 73.7,29.15 73.65,29.3 73.6,29.5 73.6,29.65 73.55,29.8 73.75,31.25 76.9,31.25 79.2,31.25 79.9,29.6 79.9,29.4 79.9,29.15 79.9,28.8 79.9,28.35 79.9,25.25 77.2,23"/><path fill="#6AD0C6" d="M59,34.45Q58.85,34.95 58.65,35.35 57.2,38.35 52.7,38.35 47.65,38.35 46.2,36.25 45.7,35.55 45.7,33.5 45.7,33.05 45.75,32.75L45.7,32.75Q45.5,32.95 45.5,34.65 45.5,36.7 46,37.4 47.45,39.5 52.5,39.5 57,39.5 58.45,36.5 58.85,35.7 59,34.45"/><path fill="#6AD0C6" d="M55.15,20.25Q55.05,20.6 55.15,21 55.25,20.75 55.5,20.65 55.9,21.1 56.4,21.2 56.45,21.55 56.4,22 56.7,20.75 56.6,20.05 56.55,19.6 55.7,19.5 55.3,19.7 55.15,20.25"/><path fill="#6AD0C6" d="M45.8,18.9Q45.5,20.05 45.5,21.45 45.5,24.8 48.95,27.65 49.95,28.5 50.7,29.15 51.65,30.05 52.1,30.65 52.4,31.05 52.4,31.25 52.45,31.3 52.45,31.4 52.7,31.7 52.6,30.1 52.6,29.8 52.05,29.15 51.2,28.2 49.15,26.5 45.7,23.65 45.7,20.3 45.7,19.55 45.8,18.9"/><path fill="#9CE0DD" d="M62.7,22.1Q62.7,21.55 62.7,20.85 62.7,17.75 60,15.5 57.55,13.45 54.1,13.2 50.55,13 48.2,14.85 46.35,16.4 45.8,18.9 45.7,19.55 45.7,20.3 45.7,23.65 49.15,26.5 51.2,28.2 52.05,29.15 52.6,29.8 52.6,30.1 52.7,31.7 52.45,31.4 52.4,31.95 49.45,31.95 46.4,31.95 45.75,32.75 45.7,33.05 45.7,33.5 45.7,35.55 46.2,36.25 47.65,38.35 52.7,38.35 57.2,38.35 58.65,35.35 58.85,34.95 59,34.45 59.05,33.75 59.05,32.95 59.05,32.15 58.85,31.3 58.7,30.15 58.25,29.15 57.65,27.9 56.6,26.8 54.95,24.05 54.95,22.3 54.85,21.85 54.95,21.4 55,21.15 55.15,21 55.05,20.6 55.15,20.25 55.3,19.7 55.7,19.5 56.55,19.6 56.6,20.05 56.7,20.75 56.4,22 56.4,22.15 56.35,22.3 56.55,23.75 59.7,23.75 62,23.75 62.7,22.1"/><path fill="#6AD0C6" d="M62.5,23.15Q62.6,22.8 62.7,22.1 62,23.75 59.7,23.75 56.55,23.75 56.35,22.3 56.3,22.75 56.15,23.35 56.25,24.9 59.5,24.9 61.85,24.9 62.5,23.15"/></g><animate attributeName="display" repeatCount="1" dur="2.24s" keyTimes="0;0.696;1" values="none;inline;none"/></g><g id="Symbol_25" transform="matrix(1 0 0 1 83.25 141.55)"><path fill="#666" fill-opacity="0.392" d="M57.35,4.7Q58.95,-0.45 41.65,0.05 24.5,0.5 4.1,2.1 -4.95,4.25 5.9,7.75 16,9.45 35.9,9.65 55.75,9.8 57.35,4.7"/></g><g style="display:none;"><use xlink:href="#Symbol_14" transform="matrix(-0.5 -0.866 0.866 -0.5 128.3 114.55)"/><animate attributeName="display" repeatCount="1" dur="2.24s" keyTimes="0;0.464;0.5;1" values="none;inline;none;none"/></g><g style="display:none;"><use xlink:href="#Symbol_14" transform="matrix(-0.704 -0.71 0.71 -0.704 133.75 111.85)"><animateTransform attributeName="transform" additive="replace" type="translate" dur="2.24s" keyTimes="0;0.071;0.125;0.196;0.25;1" values="119.014,87.959;119.014,87.959;117.744,91.153;117.744,91.153;117.013,89.652;117.013,89.652"/><animateTransform attributeName="transform" additive="sum" type="rotate" dur="2.24s" keyTimes="0;0.071;0.125;0.196;0.25;1" values="-105.001,0,0;-105.001,0,0;-149.999,0,0;-149.999,0,0;-134.736,0,0;-134.736,0,0"/><animateTransform attributeName="transform" additive="sum" type="scale" dur="2.24s" keyTimes="0;0.196;0.25;1" values="0.999,0.999;0.999,0.999;0.998,0.998;0.998,0.998"/><animateTransform attributeName="transform" additive="sum" type="translate" dur="2.24s" keyTimes="0;0.071;0.125;1" values="-27.65,-3.7;-27.65,-3.7;-27.6,-3.7;-27.6,-3.7"/></use><animate attributeName="display" repeatCount="1" dur="2.24s" keyTimes="0;0.268;1" values="inline;none;none"/></g><g style="display:none;"><g id="Symbol_36_copy" transform="matrix(-1 0 0 1 128.9 88.1)"><path fill="#FFCB99" d="M4.45,11.475Q3.632,11.104 2.7,10.75 1.16,10.161 -0.35,11.6 -0.374,11.625 -0.4,11.65 0.7,12.6 1.1,12.8 2.3,13.5 4.8,15 8.45,17.15 10.6,18.4L10.65,18.35Q10.7,18.3 10.75,18.25L10.8,18.2Q11.077,17.83 11.75,15.55 11.73,15.574 10.825,15.2 9.938,14.819 8.5,13.85 7.065,12.886 4.45,11.475"/><path fill="#538DC6" d="M9.65,3.875Q9.65,3.839 9.65,3.8L9.7,3.75 9.65,3.75Q9.9,1.45 9.6,0.6 9.45,0.25 9.5,0 7.654,1.954 4.875,5.2 2.087,8.436 0.9,10 -0.121,11.354 -0.35,11.6 1.16,10.161 2.7,10.75 3.632,11.104 4.45,11.475 5.46,10.236 7.25,8.225 9.136,6.105 10.025,4.725 10.915,3.351 9.65,3.875"/></g><animate attributeName="display" repeatCount="1" dur="2.24s" keyTimes="0;0.268;0.464;1" values="none;inline;none;none"/></g><g id="leg_lula" transform="matrix(0.35 0 0.004 0.364 87.75 124.75)"><animateTransform attributeName="transform" additive="replace" type="translate" dur="2.24s" keyTimes="0;0.464;0.536;0.571;1" values="109.543,133.011;109.543,133.011;92.611,135.797;93.411,135.797;93.411,135.797"/><animateTransform attributeName="transform" additive="sum" type="rotate" dur="2.24s" keyTimes="0;0.464;0.536;1" values="-9.102,0,0;-9.102,0,0;-0.629,0,0;-0.629,0,0"/><animateTransform attributeName="transform" additive="sum" type="skewY" dur="2.24s" keyTimes="0;0.464;0.536;1" values="0.634;0.634;0.632;0.632"/><animateTransform attributeName="transform" additive="sum" type="scale" dur="2.24s" keyTimes="0;0.464;0.536;1" values="0.434,0.455;0.434,0.455;0.35,0.364;0.35,0.364"/><animateTransform attributeName="transform" additive="sum" type="translate" dur="2.24s" keyTimes="0;0.464;0.536;1" values="-15.9,-30.2;-15.9,-30.2;-15.85,-30.35;-15.85,-30.35"/><path fill="#E69E34" d="M27.325,6.9Q26.218,5.895 23.15,8.05 21.7,9.05 20.35,10 19.9,12.9 19.3,17.45 18.7,21.65 17.95,27.2 16,41.95 12.95,52.15 13.621,52.2 12.825,52.85L21.1,52.85Q21.745,48.337 23.6,40.4 25.75,31.15 28,21.35L29.05,16.7Q28.55,18.6 29.9,11.85 31.176,5.247 27.325,6.9"/><path fill="#FFCB99" d="M28.05,-33.45Q28.195,-33.494 28.325,-33.525 28.249,-33.576 28.15,-33.6 27.45,-33.8 28.05,-33.45"/><path fill="#FFCB99" d="M27.15,-30.575L27.1,-30.55 27.1,-30.525Q27.129,-30.55 27.15,-30.575"/><path fill="#E69E34" d="M50.975,-13.325Q51.24,-14.412 51.55,-15.6 48,-12.75 41.2,-7.35 34.482,-1.976 20.25,8.1 19.656,13.193 18.975,18.325 16.142,39.68 17.1,41.9 14.788,65.213 24.95,16.65L27.25,15.25Q29.15,13.65 38.45,6.45 48.15,-1.15 51.65,-3.55 51.15,-5.45 53.8,-15.6 52.579,-14.62 50.975,-13.325"/><path fill="#E69E34" d="M12.9,60.2Q18.956,60.8 18.925,58.25 18.883,55.729 19.025,52.85L14.75,52.3Q14.5,52.55 14.3,52.7 13.95,53.05 13.65,52.5 13.3,51.95 10.15,52.75 7,53.5 4.85,53.65 2.7,53.75 2.65,54.1 2.55,54.4 1.2,54.75 -0.2,55.1 -0.05,55.5 0.25,56.35 1.35,57.2 2.6,58.15 5,59 5.85,59.3 6.75,59.5 6.85,59.55 12.9,60.2"/><path fill="#88222D" d="M19.6,60.7L19.75,60Q8.6,59.45 -0.9,57.4 -0.75,57.85 -0.4,58.15 9,60.85 19.6,60.7"/><path fill="#AA2B37" d="M9.3,55.95L8.8,52.7Q2.05,51.1 -0.5,54.6 -1.3,56.3 -0.9,57.4 8.6,59.45 19.75,60L21.4,51.1 13.6,50.35 12.5,52 15.75,54.15Q13.95,58.1 9.3,55.95"/></g><g id="Symbol_24" transform="matrix(1 0 0 1 115.1 122.95)"><animateTransform attributeName="transform" additive="replace" type="translate" dur="2.24s" keyTimes="0;0.464;0.536;0.571;1" values="122.721,133.676;122.721,133.676;120.15,134.95;120.9,134.95;120.9,134.95"/><animateTransform attributeName="transform" additive="sum" type="rotate" dur="2.24s" keyTimes="0;0.464;0.536;0.571;1" values="8.297,0,0;8.297,0,0;-1.91,0,0;0,0,0;0,0,0"/><animateTransform attributeName="transform" additive="sum" type="skewY" dur="2.24s" keyTimes="0;0.464;0.536;0.571;1" values="-8.297;-8.297;1.91;0;0"/><animateTransform attributeName="transform" additive="sum" type="scale" dur="2.24s" keyTimes="0;0.464;0.536;0.571;1" values="1,1.114;1,1.114;1,1.001;1,1;1,1"/><animateTransform attributeName="transform" additive="sum" type="scale" dur="2.24s" keyTimes="0;0.477;0.478;0.536;0.571;1" values="0.99,1;0.99,1;1,1;0.999,1;1,1;1,1" keySplines=".1 .1 .9 .9;.1 .1 .9 .9;.5 0 .75 .5;0 0 1 1;0 0 1 1" calcMode="spline"/><animateTransform attributeName="transform" additive="sum" type="translate" dur="2.24s" keyTimes="0;0.464;0.536;1" values="-5.9,-12;-5.9,-12;-5.8,-12;-5.8,-12"/><path fill="#E69E34" d="M7.15,20.8Q6.7,21.05 5.75,21.6 5.9,21.65 6.1,21.7L6.7,22.45Q8.35,23.05 8.75,21.55L7.25,20.75Q7.2,20.8 7.15,20.8"/><path fill="#AA2B37" d="M3.2,22.45Q3,23.1 3.2,23.45 6.3,23.75 11.4,23.25L11.4,22.95 11.45,23.25Q11.547,23.202 11.55,23.1 11.7,22.85 11.4,22.25 11,21.4 10.7,21 10.4,20.55 10.3,20.35 10.25,20.3 10.25,20.25 10.2,20.2 10.2,20.15L10.2,20.1 10.15,20.1 10.15,20.15Q10.2,20.45 10.05,20.15L10.05,20.1 9.75,20.1Q7.8,20.25 7.25,20.3L7.25,20.35 7.15,20.35Q7.15,20.75 7.15,20.8 7.2,20.8 7.25,20.75L8.75,21.55Q8.35,23.05 6.7,22.45L6.1,21.7Q5.9,21.65 5.75,21.6 3.85,21.2 3.2,22.45"/><path fill="#741D26" d="M3.2,23.45Q3.25,23.6 3.4,23.75 7.05,24.25 9.45,23.95 11.35,23.7 11.55,23.55L11.55,23.1Q11.547,23.202 11.45,23.25L11.4,22.95 11.4,23.25Q6.3,23.75 3.2,23.45"/><path fill="#E69E34" d="M6.35,0.45Q6.15,1.7 3.7,0.35 2.8,0.8 1.2,0L1.45,0.85Q0.8,0.75 0,0.35L0.5,2.1Q0.75,2.55 1.55,4.3 3.6,9 7.15,20.1L7.15,20.15 7.25,20.3Q7.8,20.25 9.75,20.1L10.05,20.1 10.05,20.15Q10.2,20.45 10.15,20.15L10.15,20.1 10.2,20.1Q10.2,20.05 10.15,20.05L10.15,20 10.1,19.95Q9.95,19.45 9.7,18.4 8.9,15.7 6.35,0.45"/></g><g id="Symbol_23" transform="matrix(1 0 0 1 98.2 107.35)"><animateTransform attributeName="transform" additive="replace" type="translate" dur="2.24s" keyTimes="0;0.464;0.536;0.571;1" values="116.121,125.143;116.121,125.143;107.477,124.582;109.4,125.1;109.4,125.1"/><animateTransform attributeName="transform" additive="sum" type="rotate" dur="2.24s" keyTimes="0;0.464;0.536;0.571;1" values="-14.999,0,0;-14.999,0,0;2.472,0,0;0,0,0;0,0,0"/><animateTransform attributeName="transform" additive="sum" type="scale" dur="2.24s" keyTimes="0;0.464;0.536;1" values="0.999,0.999;0.999,0.999;1,1;1,1"/><animateTransform attributeName="transform" additive="sum" type="translate" dur="2.24s" keyTimes="0;0.464;0.536;0.571;1" values="-11.15,-17.8;-11.15,-17.8;-11.15,-17.7;-11.2,-17.75;-11.2,-17.75"/><path fill="#AA2B37" d="M9.05,0.1L8.95,0Q8.4,0.7 8.1,1.15 7.8,1.45 7.75,1.55 7.8,1.6 7.4,2.3 7.8,1.75 8.25,1.2 8.35,1 8.5,0.85 8.8,0.45 9.05,0.1"/><path fill="#B92D30" d="M24.95,16.35L25,16.35Q25.15,16.3 25.25,16.2L25.4,16Q25.35,15.9 25.3,15.8 24.7,14.4 22.35,9 20.15,3.8 19.8,2.7 16.45,2 9.5,0.55L9.45,0.55 1.45,11.95Q12.45,18.6 24.95,16.35"/><path fill="#AA2B37" d="M24.1,17L24.95,16.35Q12.45,18.6 1.45,11.95L9.45,0.55 9.15,0.15Q8.8,0.65 8.35,1.2 8.15,1.45 8,1.7 7.25,2.65 6.6,3.55 6.5,3.65 6.4,3.75 6.25,4.05 6,4.35 5.8,4.65 5.55,4.95 5.2,5.4 4.85,5.85L5.7,4.8Q5.55,5.05 5.35,5.25L5.2,5.55Q5.1,5.7 4.75,6.05 1.35,10.55 0.05,12.7 0,12.7 0,12.75 0.05,12.8 0.1,12.85 1.85,14.6 9.25,17.3 10,17.55 10.6,17.75L12,18.05 11.6,18Q13.05,18.3 14.2,18.45 14.35,18.45 14.6,18.5 14.8,18.5 15.05,18.55 15.1,18.55 15.15,18.55 16.6,18.65 17.55,18.65 18.8,18.55 20.1,18.4 20.55,18.25 21.55,18.05 22.15,17.9 22.9,17.6L22.95,17.6Q23.45,17.35 24.1,17"/></g><g id="Symbol_22" transform="matrix(1 0 0 1 107.55 89.8)"><animateTransform attributeName="transform" additive="replace" type="translate" dur="2.24s" keyTimes="0;0.464;0.536;0.571;1" values="112.647,100.605;112.647,100.605;111.561,100.283;112.35,100.6;112.35,100.6"/><animateTransform attributeName="transform" additive="sum" type="rotate" dur="2.24s" keyTimes="0;0.464;0.536;0.571;1" values="-14.999,0,0;-14.999,0,0;2.472,0,0;0,0,0;0,0,0"/><animateTransform attributeName="transform" additive="sum" type="scale" dur="2.24s" keyTimes="0;0.464;0.536;1" values="0.999,0.999;0.999,0.999;1,1;1,1"/><animateTransform attributeName="transform" additive="sum" type="translate" dur="2.24s" keyTimes="0;1" values="-4.8,-10.8;-4.8,-10.8"/><path fill="#FFCB99" d="M2.2,17Q2.25,16.95 2.35,16.95 2.5,16.8 2.55,16.65 2.25,15.85 1.15,15.4L0.7,15.55Q0.2,15.7 0.15,15.75 -0.2,17.1 0.4,18.25 0.55,18.35 0.7,18.4 0.85,18.4 0.95,18.3 1.2,18.35 1.3,18.3 1.5,18.3 1.55,18.15 1.75,18.15 1.85,18.1 2,18.05 2.1,17.9 2.4,17.8 2.55,17.7 2.6,17.6 2.6,17.5 2.6,17.4 2.5,17.2 2.45,17.05 2.35,16.95L2.25,17.05Q2.25,17.15 2.4,17.25 2.2,17.2 2.1,16.95 2,16.8 2.15,16.7 2.15,16.85 2.2,17"/><path fill="#DAB383" d="M2.35,16.95Q2.25,16.95 2.2,17 2.15,16.85 2.15,16.7 2,16.8 2.1,16.95 2.2,17.2 2.4,17.25 2.25,17.15 2.25,17.05L2.35,16.95"/><path fill="#FFCB99" d="M2.9,9.65L2.8,9.65 2.75,9.7Q2.7,9.75 2.55,9.9L0.85,10.2Q1.15,11.25 2.15,15.05 3.2,19.15 3.85,21.55L3.8,21.6Q3.853,21.55 3.9,21.55 3.95,21.55 4,21.6 4.05,21.55 4.1,21.55 4.6,21.5 5.65,21.15 5.6,21 5.35,20.2 4.95,19 4.6,17.7 4.2,16.35 3.9,15.1 3.65,14.45 3.45,13.75 3.3,13.25 3.1,12.7 2.85,11.95 2.6,11.25 2.55,11.1 2.55,11.05 2.55,11 2.3,10.2 2.3,10.15 2.9,9.65"/><path fill="#538DC6" d="M8.8,4.75Q9.35,4.15 9.6,3.9L9.65,3.9Q9.65,3.85 9.65,3.8L9.7,3.75 9.65,3.75Q9.9,1.45 9.6,0.6 9.45,0.25 9.5,0 7.65,1.95 3.55,6.65 2.1,8.4 1,9.35 0.8,9.6 0.8,9.9L0.75,10 0.8,10.05 0.8,10Q0.801,10.05 0.85,10.05L0.85,10.1Q0.9,10.15 0.85,10.2L2.55,9.9Q2.7,9.75 2.75,9.7L2.8,9.65Q3.15,9.4 3,9.55 5,7.8 6.25,6.95 7.5,6.05 8.8,4.75"/><path fill="none" stroke="#BE968B" stroke-width="0.25" stroke-linecap="round" stroke-linejoin="round" d="M0.4,18.25Q-0.2,17.1 0.15,15.75M0.7,18.4Q0.55,18.35 0.4,18.25M0.95,18.3Q0.85,18.4 0.7,18.4M1.3,18.3Q1.2,18.35 0.95,18.3M1.55,18.15Q1.5,18.3 1.3,18.3M1.85,18.1Q1.75,18.15 1.55,18.15M2.1,17.9Q2,18.05 1.85,18.1M2.55,17.7Q2.4,17.8 2.1,17.9M2.6,17.5Q2.6,17.6 2.55,17.7M2.5,17.2Q2.6,17.4 2.6,17.5M2.35,16.95Q2.45,17.05 2.5,17.2M2.55,16.65Q2.5,16.8 2.35,16.95M1.15,15.4Q2.25,15.85 2.55,16.65"/></g><g id="Symbol_21" transform="matrix(1 0 0 1 108.95 88.55)"><animateTransform attributeName="transform" additive="replace" type="translate" dur="2.24s" keyTimes="0;0.464;0.536;0.571;1" values="115.111,98.783;115.111,98.783;114.508,99.243;115.25,99.45;115.25,99.45"/><animateTransform attributeName="transform" additive="sum" type="rotate" dur="2.24s" keyTimes="0;0.464;0.536;0.571;1" values="-14.999,0,0;-14.999,0,0;2.472,0,0;0,0,0;0,0,0"/><animateTransform attributeName="transform" additive="sum" type="scale" dur="2.24s" keyTimes="0;0.464;0.536;1" values="0.999,0.999;0.999,0.999;1,1;1,1"/><animateTransform attributeName="transform" additive="sum" type="translate" dur="2.24s" keyTimes="0;0.464;0.536;0.571;1" values="-6.25,-10.85;-6.25,-10.85;-6.3,-10.85;-6.3,-10.9;-6.3,-10.9"/><path fill="#FFCB99" d="M11.85,11.2Q11.95,10.75 12.3,8.25 12.6,5.6 12.65,3.45 12.65,1.25 11.5,0.55 10.7,0.05 10.8,0.25 10.4,-0.05 10,0 9.15,0.2 8.2,0.95 7.35,1.75 7,2.35 6.7,3 6.25,3.85 5.75,4.7 5.5,5.35 5.25,5.9 2.65,11.85 0.15,17.8 0.05,18.9 -0.15,19.9 0.55,20.5 1.85,21.65 5.85,21.8 7.35,21.85 7.8,21.8 8.55,21.7 8.95,21.15 9.65,20.3 10.85,15.25 11.7,11.85 11.85,11.2"/></g><g id="Symbol_20" transform="matrix(1 0 0 1 101.95 89.15)"><animateTransform attributeName="transform" additive="replace" type="translate" dur="2.24s" keyTimes="0;0.464;0.536;0.571;1" values="118.075,119.843;118.075,119.843;110.975,120.251;112.65,120.55;112.65,120.55"/><animateTransform attributeName="transform" additive="sum" type="rotate" dur="2.24s" keyTimes="0;0.464;0.536;0.571;1" values="-14.999,0,0;-14.999,0,0;2.472,0,0;0,0,0;0,0,0"/><animateTransform attributeName="transform" additive="sum" type="scale" dur="2.24s" keyTimes="0;0.464;0.536;1" values="0.999,0.999;0.999,0.999;1,1;1,1"/><animateTransform attributeName="transform" additive="sum" type="translate" dur="2.24s" keyTimes="0;0.536;0.571;1" values="-10.7,-31.45;-10.7,-31.45;-10.7,-31.4;-10.7,-31.4"/><path fill="#538DC6" d="M19.25,0.35Q18.75,2.65 17.35,4.5 16.6,5.05 16.6,5 15.1,5.8 14.65,5.4 13.9,3.7 15.6,0 15.25,0.1 14.65,0.6L11.75,5.6Q3.8,21.55 0,27.2 8.35,32.6 21.4,32.35 18.3,24.25 18.7,18.25 18.9,14.65 19.75,6.95 19.9,5.4 20.15,2.05 20.2,0.6 19.25,0.35"/></g><g id="Symbol_19" transform="matrix(1 0 0 1 95.95 34.45)"><animateTransform attributeName="transform" additive="replace" type="translate" dur="2.24s" keyTimes="0;0.214;0.268;0.321;0.464;0.536;0.571;1" values="116.34,88.947;116.34,88.947;116.375,88.968;116.34,88.947;116.34,88.947;118.829,90.333;119.2,90.35;119.2,90.35"/><animateTransform attributeName="transform" additive="sum" type="rotate" dur="2.24s" keyTimes="0;0.214;0.268;0.321;0.464;0.536;0.571;1" values="-22.7,0,0;-22.7,0,0;-21.474,0,0;-22.7,0,0;-22.7,0,0;2.472,0,0;0,0,0;0,0,0"/><animateTransform attributeName="transform" additive="sum" type="scale" dur="2.24s" keyTimes="0;0.464;0.536;1" values="0.999,0.999;0.999,0.999;1,1;1,1"/><animateTransform attributeName="transform" additive="sum" type="translate" dur="2.24s" keyTimes="0;0.214;0.268;0.321;0.464;0.536;1" values="-23.25,-55.8;-23.25,-55.8;-23.25,-55.85;-23.25,-55.8;-23.25,-55.8;-23.25,-55.9;-23.25,-55.9"/><g id="Symbol_32" transform="matrix(1 0 0 1 5.95 15)"><path fill="#8D331D" d="M3,16.35Q2.85,15 3.7,14.45 18.4,4.25 25.4,1 18.7,3 1.25,14.65 0.95,14.8 0.65,15 -1.4,16.4 2.8,22.75L3.75,22.45Q5,22.05 5.05,22.3L3.35,23.6Q3.95,24.4 4.6,25.25L10.55,23Q10.6,23.1 10.2,23.55L5.75,26.75Q6.35,27.55 7,28.4 16.25,39.85 26.65,45.1 27.2,45.4 27.7,45.65L29.25,43.75 28.45,46.05Q31.05,47.3 33.45,48.3L36.85,43.95 37.75,39.7 33.65,44.85Q31.4,44 28.95,42.9L29.8,40.65 28.3,42.6Q27.8,42.35 27.35,42.15 17.55,37.55 9.25,26.95 8.95,26.6 8.75,26.35 8.4,25.9 8.05,25.45L12.5,22.15Q12.9,21.75 12.8,21.6L7.05,24.1Q6.45,23.25 5.95,22.5L7.6,21.2Q7.6,21 6.4,21.4L5.4,21.7Q3.25,18.25 3,16.35"/><path fill="#A63F20" d="M47.25,49Q47.35,47.1 51.85,32.25 53,28.5 53.5,25.2 53.45,17.3 49.4,11.95 44.35,5.25 43.9,6.15 43.25,6.9 38.6,3.05 33.9,-0.9 29,0.3 28.35,0.35 26.65,0.65 26.1,0.75 25.4,1 18.4,4.25 3.7,14.45 2.85,15 3,16.35 3.25,18.25 5.4,21.7L6.4,21.4Q7.6,21 7.6,21.2L5.95,22.5Q6.45,23.25 7.05,24.1L12.8,21.6Q12.9,21.75 12.5,22.15L8.05,25.45Q8.4,25.9 8.75,26.35 8.95,26.6 9.25,26.95 17.55,37.55 27.35,42.15 27.8,42.35 28.3,42.6L29.8,40.65 28.95,42.9Q31.4,44 33.65,44.85L37.75,39.7 36.85,43.95 37.45,43.1 37.05,45.95Q42.4,47.55 46.5,48.8 46.9,48.85 47.25,49"/><path fill="#8D331D" d="M51.85,32.25Q47.35,47.1 47.25,49 46.9,48.85 46.5,48.8 42.4,47.55 37.05,45.95L36.45,49.4Q43.05,51.6 47.95,53.25 47.9,52.65 48.3,50.65 49.25,46.4 51.95,35.95 53.5,30.1 53.5,25.2 53,28.5 51.85,32.25"/></g><g id="Symbol_31" transform="matrix(1 0 0 1 11.2 20.25)"><path fill="#000" fill-opacity="0.361" d="M36,20.5Q35.6,13.75 33.45,10 31.25,6.25 26.35,2.1 21.55,-2 12.15,2 2.05,9.45 0.7,12.9 -0.9,17.2 1.1,20.95 3.15,24.8 4.95,26.5 6.85,28.3 7.05,28.55 10.4,31.65 14.25,33.25 16.3,34.1 18.85,34.5 21.4,34.9 24.7,34.6 25.1,34.65 25,34.6L24.95,34.6Q24.95,34.55 25.05,34.6 25.1,34.55 25.15,34.55 26.8,34.25 28.25,33.6 28.6,34.45 29.15,34.85 31.2,36.3 32.8,35.65 33.65,35.35 34.25,34.6 35,33.5 35.2,32.1 35.45,30.1 33.45,29.5 36.2,25.8 36,20.5"/></g><g id="Symbol_40" transform="matrix(1 0 0 1 11.5 16.65)"><path fill="#FFCB99" d="M36.9,21.55Q36.75,14.3 34.65,10.35 32.5,6.4 27.65,2.1 22.75,-2.25 13,2.4 2.3,10.75 0.9,14.45 -0.95,19.15 1.05,23.15 3,27.15 4.85,29 6.7,30.8 8.6,32.65 10.45,34.4 14.05,35.85 17.7,37.35 19.6,37.45 21.45,37.5 24.15,37.2 25.2,37.05 26.4,36.7 26.7,36.6 26.85,36.5L27,36.5 27,36.45Q27.1,36.45 27.25,36.4 29.85,35.4 32.05,33.45 37.05,28.85 36.9,21.55"/></g><g id="Symbol_39" transform="matrix(1 0 0 1 13.3 12.45)"><path fill="#A63F20" d="M34.05,6.9Q34.1,6.902 34.1,7 34.4,6.95 34.8,6.9 34.401,6.9 34.05,6.9"/><path fill="#873721" d="M34.1,7.1Q34.15,7.15 34.15,7.2 34.45,7.55 34.7,7.85 35,8.25 35.4,8.75 35.05,8.25 34.7,7.8 34.45,7.45 34.2,7.1 34.15,7.05 34.1,7 34.1,6.902 34.05,6.9 33.65,6.35 33.4,6.1L33.95,6.9Q34,6.9 34.05,7 34.05,7.047 34.1,7.1"/><path fill="#873721" d="M30.95,4.15Q31.55,4.5 32.1,4.85 32.2,4.9 32.25,4.9 30,2.9 27.3,1.85 24.25,0.75 22.5,0.35 20.8,0 18.05,0 15.45,0.25 11.45,1.75 0.4,7.5 1.1,7.5 1.85,7.5 1.8,7.55L1.85,7.5Q1.9,7.55 1.95,7.5 2.2,7.55 2.5,7.55 4.05,7.7 6.85,7.4 3.2,9.6 0.95,9.9 0.4,10 0,10 0.4,10.25 0.75,10.55 2.75,11.85 4.85,12.8 11.4,15.7 18.45,16.25L25.05,17.05Q25,20.7 27.5,23.7 26.9,22.6 26.8,21.3 26.8,19.7 26.85,18.05 26.65,16.5 26.9,16.35 26.9,15.75 26.95,15.15 25.95,15.1 22.95,15.3 18.3,15.65 9.95,14.3 6.35,13 2.25,11.15 1.2,10.45 0.9,10.2L0.85,10.15Q0.95,10.15 1,10.2 3.85,9.95 6.2,8.5 8.65,7.05 10.1,6.2L3.8,6.8Q4.9,6.15 7.45,4.7 7.35,4.95 10.15,3.65 14.4,1.55 17.3,1.2 20.15,0.7 21.15,0.85 22.25,1 23.1,1.15 24,1.3 24.5,1.45L24.7,1.55Q28.35,2.8 30.95,4.15"/><path fill="#A63F20" d="M33.4,6.1Q33.25,5.85 32.75,5.45 32.5,5.15 32.25,4.9 32.2,4.9 32.1,4.85 31.55,4.5 30.95,4.15 28.35,2.8 24.7,1.55L24.5,1.45Q24,1.3 23.1,1.15 22.25,1 21.15,0.85 20.15,0.7 17.3,1.2 14.4,1.55 10.15,3.65 7.35,4.95 7.45,4.7 4.9,6.15 3.8,6.8L10.1,6.2Q8.65,7.05 6.2,8.5 3.85,9.95 1,10.2 0.95,10.15 0.85,10.15L0.9,10.2Q1.2,10.45 2.25,11.15 6.35,13 9.95,14.3 18.3,15.65 22.95,15.3 25.95,15.1 26.95,15.15 26.9,15.75 26.9,16.35 26.65,16.5 26.85,18.05 26.8,19.7 26.8,21.3 26.9,22.6 27.5,23.7 27.75,24.1 28.05,24.45 28.3,25.5 28.55,26.7 31.7,40.3 32.15,35.95L41.4,20.6Q38.8,10.95 39.7,14.85 37.95,11.4 35.35,8.8L35.4,8.75Q35,8.25 34.7,7.85 34.45,7.55 34.15,7.2 34.1,7.15 34.05,7.05L34.1,7.1Q34.05,7.047 34.05,7 34,6.9 33.95,6.9L33.4,6.1"/><path fill="#B13F23" d="M11.85,5.55Q13,4.6 14.7,4.15 16.45,3.75 19.05,3.7 17.3,3.1 15,3.6 12.85,4.05 11.85,5 11.45,5.4 11.35,5.55L11.55,5.8Q11.7,5.65 11.85,5.55"/><path fill="#873721" d="M10.3,6.4L10.25,6.4Q10.297,6.447 10.25,6.5 10.3,6.447 10.3,6.4"/><path fill="#873721" d="M9.15,8.45Q8.95,8.6 8.75,8.75 8.75,8.797 8.65,8.9 8.859,8.693 9.15,8.45"/></g><g id="Symbol_38" transform="matrix(1 0 0 1 18.5 26.2)"><path fill="#873721" d="M18.15,8.4Q17.9,8.65 17.9,8.85 17.9,9.05 18.2,9.5 18.55,9.9 18.7,10.25 18.95,10.7 19.05,10.9 19.2,11.1 19.6,10.8 20.05,10.55 19.95,10.25 19.85,9.85 19.6,9.35 19.3,8.75 18.9,8.45 18.45,8.1 18.15,8.4"/><path fill="#873721" d="M2.5,1.05Q2.3,0.8 1.75,0.5 1.25,0.1 0.7,0 0.15,-0.05 0.1,0.35 -0.05,0.7 0.05,0.9 0.1,1.05 0.65,1.25 1.1,1.45 1.5,1.7 1.9,1.95 2.1,2.1 2.25,2.2 2.5,1.75 2.75,1.3 2.5,1.05"/></g><g id="Symbol_37" transform="matrix(1 0 0 1 13 29.75)"><path fill="#604339" d="M22.1,12.25Q21.95,10.7 20.8,9.85 19.6,9 18.1,9.35 16.55,9.7 15.6,11 15.25,11.5 15.1,12.05 15.05,12.1 15.1,12.2 15.15,12.3 15.25,12.3 15.3,12.35 15.4,12.35 15.5,12.25 15.5,12.2 15.7,11.7 16,11.25 16.85,10.1 18.2,9.8 19.5,9.45 20.5,10.25 21.55,10.95 21.65,12.3L21.6,12.3Q21.7,13.2 21.45,14.05 21.35,14.1 21.45,14.2 21.45,14.3 21.6,14.35 21.65,14.35 21.75,14.35 21.85,14.3 21.85,14.2 22.2,13.25 22.1,12.25"/><path fill="#A63F20" fill-opacity="0.659" d="M10.45,5.05Q10.3,4.75 10.4,4.6L10.65,4.6Q11,5.05 10.9,5.25 10.75,5.35 10.65,5.3L10.45,5.05"/><path fill="#A63F20" fill-opacity="0.659" d="M13.8,8.05L13.85,8.15Q13.9,8.3 13.8,8.35 13.7,8.35 13.65,8.3 13.6,8.3 13.6,8.2 13.6,8.1 13.65,8.05L13.8,8.05"/><path fill="#A63F20" fill-opacity="0.659" d="M12.1,9.2Q12.2,9.25 12.25,9.3L12.4,9.45Q12.55,9.55 12.45,9.75L12.4,9.85Q12.2,9.95 12.1,9.85 11.85,9.9 11.8,9.85 11.7,9.75 11.85,9.45 11.85,9.3 12,9.25L12.1,9.2"/><path fill="#A63F20" fill-opacity="0.659" d="M14.75,9.9Q14.7,9.9 14.6,9.85 14.65,9.7 14.8,9.55 14.95,9.5 15,9.5L15.15,9.55Q15.2,9.7 14.95,9.8 14.8,9.85 14.75,9.9"/><path fill="#A63F20" fill-opacity="0.659" d="M13.15,12.2Q13.2,12.4 13.2,12.5 13.2,12.55 12.95,12.65 12.9,12.75 12.85,12.7L12.75,12.7 12.65,12.55 12.6,12.55Q12.55,12.4 12.6,12.3 12.95,12.1 13.15,12.15L13.15,12.2"/><path fill="#604339" d="M6.35,2.7Q6.35,1.25 5.3,0.5 4.25,-0.3 2.85,0.15 1.45,0.55 0.5,1.85 0.15,2.35 0,2.85 0.15,2.9 0.4,3 0.6,2.55 0.85,2.15 1.7,1 2.95,0.6 4.15,0.25 5.05,0.9 5.9,1.5 5.85,2.75L5.9,2.75Q5.95,3.65 5.6,4.45 5.55,4.5 5.6,4.6 5.65,4.7 5.7,4.75 5.8,4.8 5.95,4.75 6,4.7 6,4.6 6.45,3.75 6.35,2.75L6.35,2.7"/><path fill="#A63F20" fill-opacity="0.659" d="M8.95,5.5L9.05,5.6Q9.05,5.7 9.05,5.85 8.9,5.95 8.75,6 8.7,6 8.55,5.9 8.5,5.8 8.6,5.6L8.7,5.55Q8.85,5.45 8.95,5.5"/><path fill="#A63F20" fill-opacity="0.659" d="M3.5,4.6Q3.35,4.65 3.3,4.6 3.25,4.55 3.25,4.45 3.15,4.3 3.3,4.2 3.4,4.15 3.55,4.25 3.65,4.35 3.65,4.4 3.65,4.5 3.5,4.6"/><path fill="#A63F20" fill-opacity="0.659" d="M4.25,5.85Q4.4,5.8 4.55,5.9 4.7,6.15 4.7,6.2 4.8,6.35 4.55,6.4 4.4,6.55 4.3,6.5 4.25,6.45 4.2,6.4L4.25,6.35 4.2,6.3Q4.2,6.25 4.2,6.15L4.25,6.1Q4.25,5.9 4.25,5.85"/><path fill="#8A4F13" d="M3.4,7.85Q3,8.05 2.95,8.05 3.1,9.35 3.65,10.65 4.45,12.6 5.8,13.85 9.85,17.8 14.55,18.05 17.8,18.15 19.75,16.85 19.75,16.7 19.75,16.65 19.85,16.65 19.9,16.55 19.9,16.4 19.9,16.35 19.4,16.45 18.3,16.8 16.7,17.3 15.15,17.25 10.35,17.25 5.95,13.05 5.25,12.35 4.4,10.6 3.5,8.8 3.5,8 3.45,7.9 3.4,7.85"/><path fill="#7C4D42" d="M9.25,7.5L9.4,7.05Q9.35,7.05 9.05,7 8.6,7 7.4,6.85 6.2,6.7 5.85,6.85 5.45,6.95 5.1,7.45 4.75,8 5,9.1 5.3,10.2 7.15,11.1 7.3,11.05 7.45,10.95 7.25,10.8 7.05,10.6 6.2,10.05 5.7,9.3 5.2,8.55 5.4,8.05 5.7,7.6 6.1,7.3 6.55,6.95 7.5,7.2 8.5,7.45 9.25,7.5"/><path fill="#A63F20" fill-opacity="0.659" d="M11.95,13.8Q11.9,13.8 11.8,13.75L11.75,13.65Q11.65,13.55 11.65,13.5L11.75,13.4Q11.85,13.35 12,13.4 12.1,13.45 12.1,13.55 12.2,13.6 12.3,13.8 12.15,13.8 12,13.85L11.95,13.8"/></g><g id="Symbol_35" transform="matrix(-0.379 -0.277 -0.272 0.376 49 50.5)"><path fill="#FFCB99" d="M16.6,9.25Q16.9,9.45 16.65,8.85 16.4,8.25 15.05,6.15 13.65,4.05 11.8,2.7 10.25,1.55 8.3,0.6 3.75,-1.35 1.5,3.05 0,5.9 0,9.1 0,11.4 1.05,13.1 3.1,16.45 8.55,16.45 12.45,16.45 16.6,9.25"/></g><g id="Symbol_36" transform="matrix(-0.379 -0.277 -0.272 0.376 46.3 52.55)"><path fill="#E28C36" fill-opacity="0.8" d="M7.55,5.55Q7.75,4.15 5.3,1.75 3.5,0 2.3,0 1.8,0 1.45,0.3 0.05,1.3 0,2.25 0,2.35 0,2.45 0,3.2 0.55,3.5 1.3,3.9 1.95,2.8 2.55,1.6 4.6,2.8 6.55,3.95 7.55,5.55"/></g><g id="Symbol_34" transform="matrix(1 0 0 1 31.3 45.8)"><path fill="#F17474" fill-opacity="0.651" d="M9.45,2.35Q8.7,0.8 6.95,0.3 5.1,-0.35 3.15,0.35 1.35,1.1 0.4,2.65 -0.35,4.15 0.3,5.65 1,7.15 2.8,7.7 4.7,8.25 6.55,7.6 8.45,6.95 9.3,5.45 10.15,3.85 9.45,2.35"/></g><g id="Symbol_33" transform="matrix(1 0 0 1 11.25 32.55)"><path fill="#F17474" fill-opacity="0.651" d="M4.65,4.75Q5.1,3.35 4.65,2.15 4.25,0.95 2.9,0.45 2.5,0.3 2.15,0.2 1.9,0.1 1.75,0.05 1.25,-0.05 0.9,0 0.25,0.2 0,2.35 -0.15,4.45 1.75,8.25 2,8.2 3.1,7.2 4.25,6.2 4.65,4.75"/></g><g id="Symbol_29" transform="matrix(1 0 0 1 21.4 49.45)"><path fill="#FFCB99" d="M1.55,0Q1.55,0.05 1.6,2.6 1.6,5.15 0,7.3 0.65,7.35 1.55,7.9 2.55,6.9 3.65,5.4 4.8,3.8 5.3,2.8 5.15,2.35 3.2,1.05 2.15,0.3 1.55,0"/></g><g id="Symbol_28" transform="matrix(1 0 0 1 41.95 15.3)"><path fill="#445F8E" d="M5.85,33.4Q5.65,34.1 5.25,34.75 5.9,34.15 6.4,33.6 12.15,26.9 12.3,17.5 12.5,7.35 7.3,3.55 2.1,-0.3 0,0 4,2.7 5.1,3.95 9.45,8.45 9.9,16.8 9.75,25.4 5.85,33.4"/></g></g><g><g id="Symbol_18" transform="matrix(1 0 0 1 79.15 38.35)"><animateTransform attributeName="transform" additive="replace" type="translate" dur="2.24s" keyTimes="0;0.464;0.482;0.5;0.518;0.536;0.571;0.607;0.661;1" values="123.111,113.95;123.111,113.95;121.901,113.942;101.053,121.661;78.956,97.821;79.409,58.011;81.905,53.541;83.3,53.897;85.05,53.9;85.05,53.9"/><animateTransform attributeName="transform" additive="sum" type="rotate" dur="2.24s" keyTimes="0;0.482;0.5;0.518;0.536;0.571;0.607;1" values="-141.757,0,0;-141.757,0,0;-94.515,0,0;-47.351,0,0;26.281,0,0;-14.293,0,0;0,0,0;0,0,0"/><animateTransform attributeName="transform" additive="sum" type="skewY" dur="2.24s" keyTimes="0;0.571;0.607;0.661;1" values="0;0;-3.422;0;0"/><animateTransform attributeName="transform" additive="sum" type="scale" dur="2.24s" keyTimes="0;0.482;0.5;0.518;0.536;0.571;0.607;0.661;1" values="0.244,0.244;0.244,0.244;0.495,0.495;0.746,0.746;0.999,0.999;0.999,0.999;1.002,1;1,1;1,1"/><animateTransform attributeName="transform" additive="sum" type="scale" dur="2.24s" keyTimes="0;0.571;0.607;0.661;1" values="1,1;1,1;0.998,1;1,1;1,1"/><animateTransform attributeName="transform" additive="sum" type="translate" dur="2.24s" keyTimes="0;0.464;0.482;0.5;0.518;0.536;0.571;0.607;1" values="-5.85,-15.5;-5.85,-15.5;-5.9,-15.5;-5.75,-15.45;-5.75,-15.5;-5.85,-15.55;-5.95,-15.6;-5.9,-15.55;-5.9,-15.55"/><path fill="#6D574E" d="M7.9,1.95Q3.5,6.45 1.5,9.3 0.35,11.25 0,10.7 0.45,11.95 3.15,14.7 6.45,18.45 10.05,21.05 15.3,19.4 19.35,16.2 22,14.35 20.2,8.4 15.65,-4.1 7.9,1.95 M14.7,15.55Q14.652,15.453 14.6,15.45 14.653,15.452 14.75,15.5L14.7,15.55"/><path fill="#9CE0DD" d="M18.5,11.9Q18.55,10 16.65,5.4 15.65,2.9 14.5,2.35 13.35,1.7 14,7 14.65,12.3 15.85,13.45 17,14.6 17.95,13.8 18.45,12.85 18.5,11.9"/></g><animate attributeName="display" repeatCount="1" dur="2.24s" keyTimes="0;0.464;1" values="none;inline;none"/></g><g><g id="Symbol_17" transform="matrix(1 0 0 1 9.75 9.45)"><animateTransform attributeName="transform" additive="replace" type="translate" dur="2.24s" keyTimes="0;0.464;0.482;0.5;0.518;0.536;0.571;0.607;0.661;1" values="129.7,114.403;129.7,114.403;128.507,114.393;97.75,128.582;65.896,108.186;60.535,72.422;62.572,68.451;61.83,69.699;62.2,69.1;62.2,69.1"/><animateTransform attributeName="transform" additive="sum" type="rotate" dur="2.24s" keyTimes="0;0.482;0.5;0.518;0.536;0.571;0.607;0.661;1" values="-141.757,0,0;-141.757,0,0;-94.515,0,0;-47.351,0,0;-3.718,0,0;0.707,0,0;-0.775,0,0;0,0,0;0,0,0"/><animateTransform attributeName="transform" additive="sum" type="scale" dur="2.24s" keyTimes="0;0.482;0.5;0.518;0.536;1" values="0.244,0.244;0.244,0.244;0.495,0.495;0.746,0.746;1,1;1,1"/><animateTransform attributeName="transform" additive="sum" type="translate" dur="2.24s" keyTimes="0;0.464;0.482;0.5;0.518;0.536;0.571;0.607;0.661;1" values="-52.75,-59.55;-52.75,-59.55;-52.75,-59.6;-52.6,-59.25;-52.55,-59.45;-52.45,-59.65;-52.45,-59.7;-52.5,-59.65;-52.45,-59.65;-52.45,-59.65"/><path fill="#7C6358" d="M98,98.55Q114.8,75.15 90.95,58.2 67.1,41.2 63.5,30.35 59.9,19.45 59.3,16.6 58.7,13.7 58.65,13.65 60.95,10.6 60.2,7.3 59.4,3.35 54.65,1.2 50.85,-0.5 46.95,0.25 43.85,1 42.4,2.15 31.5,0.55 24.85,3.05 20.9,4.7 20.15,5.4 19.5,4.75 16.5,3.3 12.8,1.55 8.9,3.1 5.9,4.35 4.25,8 3.3,10.1 3.8,12.55 4.65,15.65 7.85,18.1L8.35,18.35Q7.05,20.6 6,22.9 4.4,26.05 3.25,29.2 -1.5,42.1 0.7,55.1 4.45,87.7 22.95,104.55 37.45,117.8 52.5,119 81.2,121.9 98,98.55"/><path fill="#9CE0DD" d="M54.25,8.5Q54.45,7.7 53.75,6.6 52.9,5.35 51.95,4.85 50.85,4.3 49.65,4.3 48.55,4.4 48.9,5.1 49,5.15 49.15,5.25 51.7,6.55 54.05,8.65L54.25,8.5"/><path fill="#9CE0DD" d="M54.15,17.25Q53.65,16.75 53.1,16.3 51.65,15.2 45.8,13.7 41.45,12.55 37.75,13.8 32.65,15.4 29.8,21.7 28.15,25.55 29.2,27.6 30.1,29.4 34.55,31.4 40.8,34.3 47,31.35 52.6,28.75 54.95,23.6 56.2,20.65 55.35,18.95 54.9,18 54.15,17.25"/><path fill="#9CE0DD" d="M13.8,9.35Q12.05,8.35 10.5,9.45 8.95,10.35 9,11.95 9.05,13.45 9.4,14.3 9.7,14.9 10.05,15.15L10.4,15.45Q13.35,14.05 15.1,10L13.8,9.35"/><path fill="#9CE0DD" d="M47.7,16.7Q47,17.15 46.6,18 46.35,18.55 46.45,18.9 46.6,19.35 47.5,20.1 48.15,20.65 48.95,20.95 49.7,21.15 50.6,21L50.55,21.1Q50.831,20.959 51.025,20.9L51.05,20.9 51.15,20.85Q52.6,20.4 53.15,19.2L53.25,19.1Q53.35,18.6 53.25,18.15 53.25,17.75 52.65,17.15 52.1,16.65 51.25,16.3 50.4,15.9 48.85,16.2 48.15,16.35 47.7,16.7"/><path fill="#9CE0DD" d="M44.7,26.2Q43.8,26.95 41.75,26.85 39.75,26.9 38.85,25.05 37.85,23.35 38.3,22.05 37.85,23.35 38.85,25.05 39.75,26.9 41.75,26.85 43.8,26.95 44.7,26.2 45.65,25.55 45.75,25.05 45.65,25.55 44.7,26.2"/><path fill="#7C6358" d="M50.6,21L50.55,21.1Q50.831,20.959 51.025,20.9 50.834,20.953 50.6,21"/><path fill="#3F2B0E" d="M48.85,16.2Q48.15,16.35 47.7,16.7 47,17.15 46.6,18 46.35,18.55 46.45,18.9 46.6,19.35 47.5,20.1 48.15,20.65 48.95,20.95 49.7,21.15 50.6,21 50.834,20.953 51.025,20.9L51.05,20.9 51.15,20.85Q52.6,20.4 53.15,19.2L53.25,19.1Q53.35,18.6 53.25,18.15 53.25,17.75 52.65,17.15 52.1,16.65 51.25,16.3 50.4,15.9 48.85,16.2"/><path fill="none" stroke="#3F2B0E" stroke-width="1.4" stroke-linecap="round" stroke-linejoin="round" d="M44.7,26.2Q43.8,26.95 41.75,26.85 39.75,26.9 38.85,25.05 37.85,23.35 38.3,22.05M44.7,26.2Q45.65,25.55 45.75,25.05"/><path fill="#3F2B0E" d="M28.05,12.75Q27.45,13 27.2,13.5 26.9,14.05 27.15,14.7 27.35,15.25 27.95,15.55 28.5,15.85 29.1,15.55 29.65,15.4 29.95,14.85 30.2,14.25 29.95,13.65 29.8,13.05 29.2,12.75 28.65,12.5 28.05,12.75"/><path fill="#3F2B0E" d="M53,13.2Q53.6,12.95 53.9,12.45 54.15,11.9 53.9,11.3 53.7,10.7 53.15,10.4 52.55,10.1 52,10.4 51.4,10.6 51.15,11.15 50.85,11.7 51.1,12.3 51.3,12.9 51.9,13.15 52.45,13.45 53,13.2"/></g><animate attributeName="display" repeatCount="1" dur="2.24s" keyTimes="0;0.464;1" values="none;inline;none"/></g><g><g id="Symbol_16" transform="matrix(1 0 0 1 66.35 107.15)"><animateTransform attributeName="transform" additive="replace" type="translate" dur="2.24s" keyTimes="0;0.464;0.482;0.5;0.518;0.536;0.571;0.607;0.661;1" values="134.906,105.898;134.906,105.898;133.689,105.9;116.089,128.731;71.127,132.454;68.315,112.732;67.224,109.259;67.485,110.336;67.35,109.8;67.35,109.8"/><animateTransform attributeName="transform" additive="sum" type="rotate" dur="2.24s" keyTimes="0;0.482;0.5;0.518;0.536;0.571;0.607;0.661;1" values="-141.757,0,0;-141.757,0,0;-94.515,0,0;-47.351,0,0;-3.718,0,0;0.707,0,0;-0.775,0,0;0,0,0;0,0,0"/><animateTransform attributeName="transform" additive="sum" type="scale" dur="2.24s" keyTimes="0;0.482;0.5;0.518;0.536;1" values="0.244,0.244;0.244,0.244;0.495,0.495;0.746,0.746;1,1;1,1"/><animateTransform attributeName="transform" additive="sum" type="translate" dur="2.24s" keyTimes="0;0.464;0.482;0.5;0.518;0.536;0.571;0.607;1" values="-1.15,-2.5;-1.15,-2.5;-1.2,-2.45;-1.15,-2.6;-1.2,-2.5;-1,-2.7;-0.95,-2.7;-1,-2.65;-1,-2.65"/><path fill="#6D574E" d="M30.95,3.15Q26.9,0.6 22.55,2.1 18.2,3.55 16.65,3.55 15,3.55 11.8,1.25 9.75,0 6.9,0L5.45,0.15Q-1.6,2.55 0.45,11.45 0.5,11.75 1.05,13 1.45,14 2.65,14.75L3.2,15.1Q16.55,22.6 24.2,23.9 28.55,24.75 31.75,17.9 36.35,7.2 30.95,3.15"/><path fill="#9CE0DD" d="M28.2,4.85Q24.9,3.6 21.05,8.95 18.9,11.95 18.2,13.65 17.2,15.9 18.1,17.5 18.9,18.95 21.65,20 25.1,21.35 27.1,19.5 28.95,17.75 30.95,12 32,9 31.15,7.2 30.4,5.7 28.2,4.85"/></g><animate attributeName="display" repeatCount="1" dur="2.24s" keyTimes="0;0.464;1" values="none;inline;none"/></g><g><g id="Symbol_15" transform="matrix(1 0 0 1 8.2 72.35)"><animateTransform attributeName="transform" additive="replace" type="translate" dur="2.24s" keyTimes="0;0.464;0.482;0.5;0.518;0.536;0.571;0.607;0.661;1" values="136.445,118.441;136.445,118.441;135.244,118.447;91.668,131.201;46.858,112.316;28.881,78.602;30.6,72.143;29.906,74.211;30.25,73.2;30.25,73.2"/><animateTransform attributeName="transform" additive="sum" type="rotate" dur="2.24s" keyTimes="0;0.482;0.5;0.518;0.536;0.571;0.607;0.661;1" values="-141.757,0,0;-141.757,0,0;-94.515,0,0;-47.351,0,0;-33.718,0,0;-14.293,0,0;3.702,0,0;0,0,0;0,0,0"/><animateTransform attributeName="transform" additive="sum" type="scale" dur="2.24s" keyTimes="0;0.482;0.5;0.518;0.536;0.571;0.607;1" values="0.244,0.244;0.244,0.244;0.495,0.495;0.746,0.746;0.998,0.998;0.999,0.999;1,1;1,1"/><animateTransform attributeName="transform" additive="sum" type="translate" dur="2.24s" keyTimes="0;0.464;0.482;0.5;0.518;0.536;0.571;0.607;0.661;1" values="-22.4,-1.25;-22.4,-1.25;-22.55,-1.1;-22.5,-1.1;-22.4,-1;-21.9,-0.85;-22.05,-0.8;-22,-0.75;-22.05,-0.85;-22.05,-0.85"/><path fill="#6D574E" d="M21.6,23.25Q25.65,18.05 25.85,11.8 26.05,5.55 24.7,3.9 22.15,0.75 19.75,0.15 19.15,0 18.6,0 17.8,0 17.1,0.2 16.7,0.3 16.35,0.45L16.45,0.35Q16.35,0.4 16.25,0.5 16.15,0.5 16.1,0.55 16,0.65 15.45,0.7 14.9,0.75 2.65,9.75 -5.05,19.45 9.8,25.3 17.5,28.4 21.6,23.25"/><path fill="#9CE0DD" d="M9.6,12.1L8.75,11.9 6.35,11.8Q3.85,11.7 2.45,14.55 1.65,16.4 2.3,17.8 3,19.55 6.05,20.95 11.6,23.5 14.1,23.5 16.8,23.55 18.2,20.6 19.2,18.25 18.7,16.8 18,14.95 14.45,13.35 13.3,12.8 10.7,12.3 10.6,12.2 9.6,12.1"/></g><animate attributeName="display" repeatCount="1" dur="2.24s" keyTimes="0;0.464;1" values="none;inline;none"/></g><g><use xlink:href="#Symbol_14" transform="matrix(1 0 0 1 94 89.25)"><animateTransform attributeName="transform" additive="replace" type="translate" dur="2.24s" keyTimes="0;0.536;0.571;1" values="121.177,93.009;121.177,93.009;121.65,92.95;121.65,92.95"/><animateTransform attributeName="transform" additive="sum" type="rotate" dur="2.24s" keyTimes="0;0.536;0.571;1" values="2.472,0,0;2.472,0,0;0,0,0;0,0,0"/><animateTransform attributeName="transform" additive="sum" type="translate" dur="2.24s" keyTimes="0;0.536;0.571;1" values="-27.65,-3.65;-27.65,-3.65;-27.65,-3.7;-27.65,-3.7"/></use><animate attributeName="display" repeatCount="1" dur="2.24s" keyTimes="0;0.536;1" values="none;inline;none"/></g><g style="display:none;"><use xlink:href="#Symbol_14_copy" transform="matrix(0.783 -0.619 0.619 0.783 96.15 105.85)"><animateTransform attributeName="transform" additive="replace" type="translate" dur="2.24s" keyTimes="0;0.464;0.482;0.518;1" values="117.633,88.809;117.633,88.809;121.014,87.109;120.043,91.564;120.043,91.564"/><animateTransform attributeName="transform" additive="sum" type="rotate" dur="2.24s" keyTimes="0;0.464;0.482;0.518;1" values="-120,0,0;-120,0,0;-105.001,0,0;-38.349,0,0;-38.349,0,0"/><animateTransform attributeName="transform" additive="sum" type="scale" dur="2.24s" keyTimes="0;0.482;0.518;1" values="0.999,0.999;0.999,0.999;0.997,0.997;0.997,0.997"/><animateTransform attributeName="transform" additive="sum" type="translate" dur="2.24s" keyTimes="0;0.464;0.482;0.518;1" values="-27.6,-3.7;-27.6,-3.7;-27.65,-3.7;-27.65,-3.6;-27.65,-3.6"/></use><animate attributeName="display" repeatCount="1" dur="2.24s" keyTimes="0;0.464;0.536;1" values="none;inline;none;none"/></g><g style="display:none;"><use xlink:href="#Symbol_14_copy" transform="matrix(-0.704 -0.71 0.71 -0.704 133.75 111.85)"><animateTransform attributeName="transform" additive="replace" type="translate" dur="2.24s" keyTimes="0;0.071;0.125;0.196;0.25;1" values="119.014,87.959;119.014,87.959;117.744,91.153;117.744,91.153;117.013,89.652;117.013,89.652"/><animateTransform attributeName="transform" additive="sum" type="rotate" dur="2.24s" keyTimes="0;0.071;0.125;0.196;0.25;1" values="-105.001,0,0;-105.001,0,0;-149.999,0,0;-149.999,0,0;-134.736,0,0;-134.736,0,0"/><animateTransform attributeName="transform" additive="sum" type="scale" dur="2.24s" keyTimes="0;0.196;0.25;1" values="0.999,0.999;0.999,0.999;0.998,0.998;0.998,0.998"/><animateTransform attributeName="transform" additive="sum" type="translate" dur="2.24s" keyTimes="0;0.071;0.125;1" values="-27.65,-3.7;-27.65,-3.7;-27.6,-3.7;-27.6,-3.7"/></use><animate attributeName="display" repeatCount="1" dur="2.24s" keyTimes="0;0.268;1" values="inline;none;none"/></g></g></g></svg>