<?xml version="1.0" encoding="utf-8"?><svg id="1020" image-rendering="auto" baseProfile="basic" version="1.1" x="0px" y="0px" width="1020" height="660" xmlns="http://www.w3.org/2000/svg" xmlns:xlink="http://www.w3.org/1999/xlink"><defs><symbol id="Tween_1" overflow="visible"><g id="Symbol_36" transform="matrix(1 0 0 1 1.15 -16.3)"><path fill="#000" fill-opacity="0.431" d="M9.4,14.45Q12.152,18.852 13.85,24.45L13.25,26.4 21.95,26.6Q21.8,26.25 21.65,25.9 21.35,25.2 19.05,24.7 18,24.4 16.6,24.3L17.85,23.3Q14.554,15.224 9.8,8.25 8.313,6.085 6.7,4.025L1.775,6Q1.961,6.149 2.15,6.3 6.401,9.664 9.4,14.45"/><path fill="#4E4E4E" d="M15.55,25.4L15.65,27.35 21.15,27.5 21.1,25.05Q19.85,24.8 18.1,24.65L15.55,25.4"/><path fill="#3C3A3D" d="M15.85,28.15Q15.95,28.15 16,28.1 23.75,28.1 23.8,28 23.85,27.95 23.9,27.9 24.1,27.5 23.9,26.8 23.7,25.65 21.1,25.05L21.15,27.5 15.65,27.35 15.85,28.15"/><path fill="#336" d="M16.05,26.65L20.5,25Q15,11.75 6.8,2.1L1,4.55Q13.25,12.25 16.05,26.65"/></g>
</symbol></defs><g id="Symbol_35_l1" overflow="visible" transform="matrix(1 0 0 1 39.55 5.45)"><g id="Symbol_13_l1" transform="matrix(3.973 0 0 3.973 0 0)"><path fill="none" stroke="#000" stroke-opacity="0.251" stroke-width="2" stroke-linecap="round" stroke-linejoin="round" d="M206.7,16Q205.9,15.55 205.1,15.15 196.435,10.698 185.8,7.55 165.881,1.659 139.05,0.35 99.452,-1.567 44.8,6.5 39.85,7.15 35.4,8.9 14.55,17.05 5.65,47.25 3.25,55.55 1.8,65.4 0.4,74.85 0,85.7 1.65,127.25 5.2,139.1 6.25,142.55 8.9,146.35 11.55,150.1 20.3,155.2 29,160.25 59.75,161.55 121.05,166.15 201.45,159.25 213.4,157.8 220.85,152.9 228.3,148 231,137.7 233.25,128.95 233.45,121.35 233.45,121.9 233.45,122.55 234.9,101.9 235.6,91.3 235.7,89.9 235.8,88.5 236.85,71.35 236.85,59.8 236.85,49.2 231.6,39.45 231.3,38.85 230.95,38.3 223.3,24.85 206.7,16"/><g mask="url(#mask_)"><path fill="#FFF" d="M206.7,16Q205.9,15.55 205.1,15.15 196.435,10.698 185.8,7.55 165.881,1.659 139.05,0.35 136.589,0.231 134.075,0.15 123.544,-0.186 112,0.15 81.864,1.029 44.8,6.5 39.85,7.15 35.4,8.9 17.786,15.785 8.7,38.4 7.031,42.563 5.65,47.25 3.25,55.55 1.8,65.4 0.4,74.85 0,85.7 1.65,127.25 5.2,139.1 6.21,142.418 8.7,146.05 8.799,146.205 8.9,146.35 11.55,150.1 20.3,155.2 29,160.25 59.75,161.55 121.05,166.15 201.45,159.25 213.4,157.8 220.85,152.9 228.3,148 231,137.7 233.25,128.95 233.45,121.35 233.45,121.9 233.45,122.55 234.9,101.9 235.6,91.3 235.7,89.9 235.8,88.5 236.85,71.35 236.85,59.8 236.85,49.2 231.6,39.45 231.3,38.85 230.95,38.3 223.3,24.85 206.7,16"/><path fill="#FFF" d="M223.7,41.65Q216.55,29.6 201.1,21.6 200.35,21.2 199.6,20.9 193.264,17.76 185.8,15.35 166.283,9.017 139.05,7.625 101.904,5.749 50.4,13.05 45.75,13.7 41.6,15.25 22.2,22.55 13.9,49.75 11.65,57.15 10.3,66.05 9.133,73.683 8.7,82.425 8.483,86.8 8.45,91.45 8.45,91.7 8.45,92.05 8.4,92.65 8.3,93.9 8.088,97.326 8.7,106.65 8.812,108.356 8.95,110.25 9.8,122.55 13.1,130.75 16.35,138.95 26.15,145.45 40.8,153.65 61.6,153.95 82.4,154.2 123.7,155.1L134.5,155.1Q138.5,154.8 152.45,153.9 207.55,151.75 215.1,145.85 222.65,139.95 224.55,132.45 224.75,131.75 224.9,131.05 225.3,129.15 226,117.3 227.35,98.8 228,89.3 228.1,87.95 228.2,86.75 229.2,71.35 229.2,60.95 229.2,51.45 224.3,42.65 224,42.15 223.7,41.65"/><path fill="#979E50" d="M110.45,155.25Q112.1,155.25 113.8,155.2L105.35,155.2Q107.75,155.25 110.45,155.25"/><path fill="#979E50" d="M215.1,145.85Q222.65,139.95 224.55,132.45 223,133.35 221.1,134.15 212.35,137.5 195,137.5 185.05,137.5 177.15,134.95 174,133.9 164.05,129.25 155.7,125.4 148.15,123.65 137.1,121.05 121.8,121.05 109.5,121.05 93.45,125.15 83.6,127.7 64.55,134.15 45.05,140.8 36.05,143.15 30.9,144.5 26.15,145.45 40.8,153.65 61.6,153.95 82.4,154.2 123.7,155.1L134.5,155.1Q138.5,154.8 152.45,153.9 207.55,151.75 215.1,145.85"/><path fill="#B4BA75" d="M228,89.3Q228.1,87.95 228.2,86.75 210.75,84.45 206.6,84.45 196.918,84.45 185.8,86.325 168.783,89.172 148.4,96.4 143.242,98.312 139.05,99.85 130.197,103.073 125.65,104.6 114.5,108.35 108.6,108.35 94.75,108.35 83.2,105.6 76.3,103.9 64.65,99.4 53,94.9 45.95,93.25 34.25,90.45 20.2,90.45 14.474,90.45 8.7,91.4 8.575,91.429 8.45,91.45 8.45,91.7 8.45,92.05 8.4,92.65 8.3,93.9 8.088,97.326 8.7,106.65 8.812,108.356 8.95,110.25 9.8,122.55 13.1,130.75 16.35,138.95 26.15,145.45 30.9,144.5 36.05,143.15 45.05,140.8 64.55,134.15 83.6,127.7 93.45,125.15 109.5,121.05 121.8,121.05 137.1,121.05 148.15,123.65 155.7,125.4 164.05,129.25 174,133.9 177.15,134.95 185.05,137.5 195,137.5 212.35,137.5 221.1,134.15 223,133.35 224.55,132.45 224.75,131.75 224.9,131.05 225.3,129.15 226,117.3 227.35,98.8 228,89.3"/><path fill="#979E50" d="M199.6,20.9Q193.264,17.76 185.8,15.35 166.283,9.017 139.05,7.625 101.904,5.749 50.4,13.05 45.75,13.7 41.6,15.25 45.2,14.95 51.4,14.95 62,14.95 74.15,17.95 80.6,19.45 95.95,24.35 110.15,28.85 118.95,30.8 129.157,32.955 139.05,33.475 142.241,33.65 145.4,33.65 154.25,33.65 171.1,29.6 172.06,29.326 185.8,25.675 192.104,23.99 201.1,21.6 200.35,21.2 199.6,20.9"/><path fill="#979E50" d="M224.3,42.65Q215.5,41.85 207.8,41.85 194.673,41.85 185.8,43.625 183.249,44.141 181.05,44.8 174.6,46.7 168.2,51.2 161.25,56.15 157.2,57.65 150.276,60.192 139.05,60.5 137.468,60.55 135.8,60.55 126.35,60.55 105.65,58.3 84.95,56.1 71,56.1 46.25,56.1 33.4,58.25 21.45,60.25 10.3,66.05 9.133,73.683 8.7,82.425 8.483,86.8 8.45,91.45 8.575,91.429 8.7,91.4 14.474,90.45 20.2,90.45 34.25,90.45 45.95,93.25 53,94.9 64.65,99.4 76.3,103.9 83.2,105.6 94.75,108.35 108.6,108.35 114.5,108.35 125.65,104.6 130.197,103.073 139.05,99.85 143.242,98.312 148.4,96.4 168.783,89.172 185.8,86.325 196.918,84.45 206.6,84.45 210.75,84.45 228.2,86.75 229.2,71.35 229.2,60.95 229.2,51.45 224.3,42.65"/><path fill="#B4BA75" d="M224.3,42.65Q224,42.15 223.7,41.65 216.55,29.6 201.1,21.6 192.104,23.99 185.8,25.675 172.06,29.326 171.1,29.6 154.25,33.65 145.4,33.65 142.241,33.65 139.05,33.475 129.157,32.955 118.95,30.8 110.15,28.85 95.95,24.35 80.6,19.45 74.15,17.95 62,14.95 51.4,14.95 45.2,14.95 41.6,15.25 22.2,22.55 13.9,49.75 11.65,57.15 10.3,66.05 21.45,60.25 33.4,58.25 46.25,56.1 71,56.1 84.95,56.1 105.65,58.3 126.35,60.55 135.8,60.55 137.468,60.55 139.05,60.5 150.276,60.192 157.2,57.65 161.25,56.15 168.2,51.2 174.6,46.7 181.05,44.8 183.249,44.141 185.8,43.625 194.673,41.85 207.8,41.85 215.5,41.85 224.3,42.65"/></g><g mask="url(#mask_)"><g id="Symbol_31" transform="matrix(1 0 0 1 -37.15 93.45)"><animateTransform attributeName="transform" additive="replace" type="translate" fill="freeze" dur="2.4s" keyTimes="0;0.067;0.15;0.233;0.317;0.4;0.483;0.567;0.65;0.733;0.817;0.9;0.983;1" values="-1.75,98.75;3.375,97.254;9.85,98.75;16.328,97.227;22.75,98.75;29.234,97.266;35.65,98.75;42.127,97.249;48.55,98.75;55.003,97.283;61.4,98.75;67.848,97.229;74.25,98.75;74.25,98.75"/><animateTransform attributeName="transform" additive="sum" type="rotate" fill="freeze" dur="2.4s" keyTimes="0;0.067;0.15;0.233;0.317;0.4;0.483;0.567;0.65;0.733;0.817;0.9;0.983;1" values="0,0,0;-7.72,0,0;0,0,0;-8.483,0,0;0,0,0;-8.711,0,0;0,0,0;-5.466,0,0;0,0,0;-6.197,0,0;0,0,0;-6.229,0,0;0,0,0;0,0,0"/><animateTransform attributeName="transform" additive="sum" type="translate" fill="freeze" dur="2.4s" keyTimes="0;0.067;0.15;0.317;0.4;0.483;0.567;0.65;0.733;0.817;0.9;0.983;1" values="-35.4,-5.3;-35.35,-5.3;-35.4,-5.3;-35.4,-5.3;-35.45,-5.35;-35.4,-5.3;-35.45,-5.3;-35.4,-5.3;-35.45,-5.35;-35.4,-5.3;-35.45,-5.3;-35.4,-5.3;-35.4,-5.3"/><path fill="#000" fill-opacity="0.353" d="M17.75,5.55Q18.35,4.9 18.9,4.35 18.35,4.85 17.8,5.45 15.15,8.25 11.35,9.4 11.25,9.4 11.15,9.45 7.55,10.5 3.2,8.2 4.85,10.2 6.55,10.45 9.35,10.85 11.35,10.45 12.7,10.15 13.7,9.45 15.05,8.45 17.75,5.55"/><path fill="#000" fill-opacity="0.353" d="M32.55,7.7Q31.922,8.119 31.45,8.7 30.45,9.85 29.45,12.7 30.4,9.8 31.4,8.65 31.909,8.105 32.55,7.7"/><path fill="#7C6358" d="M31.2,0.35Q31.15,0.35 31.05,0.35 29.65,0.05 28,0 27.95,0 27.9,0 27.7,0 27.55,0L27.45,0 23.35,0.9Q22.65,1.2 22,1.65 21.4,2.05 20.7,2.65L19.2,4 18.9,4.35Q18.35,4.9 17.75,5.55 15.05,8.45 13.7,9.45 12.7,10.15 11.35,10.45 9.35,10.85 6.55,10.45 4.85,10.2 3.2,8.2 1.6,6.3 0.05,2.85 0,4.05 0,5.9 0,6.6 0.2,7.55 0.25,7.65 0.35,7.75 0.65,8.3 1.05,8.9 1.1,9.1 1.25,9.2 5.1,15.2 11.35,16.6 13.1,16.95 15,17 20.8,17.15 23.55,14.25 24.2,13.55 24.75,12.45 25.6,10.75 26.3,7.95 27.55,3.4 28.9,1.85 29.8,0.8 31.2,0.35"/><path fill="#5F4A43" d="M34.85,1.7Q34.05,1.25 33.15,0.9L31.2,0.35Q29.8,0.8 28.9,1.85 27.55,3.4 26.3,7.95 25.6,10.75 24.75,12.45 24.2,13.55 23.55,14.25 20.8,17.15 15,17 13.1,16.95 11.35,16.6 5.1,15.2 1.25,9.2 1.1,9.1 1.05,8.9 0.65,8.3 0.35,7.75 0.25,7.65 0.2,7.55 0.25,7.9 0.35,8.35 0.45,8.6 0.6,8.9 1.05,9.9 1.75,10.8 1.85,11.05 2,11.15 5.65,16.7 11.35,18.3 13.4,18.9 15.7,18.95 21.55,19.1 24.35,16.15 24.95,15.45 25.5,14.4 26.35,12.65 27,9.9 28.25,5.35 29.65,3.8 31.4,1.8 34.85,1.7"/><path fill="#54433D" d="M37.4,3.8Q37.3,3.6 37.15,3.4 36.6,2.7 35.15,1.85 35,1.8 34.85,1.7 31.4,1.8 29.65,3.8 28.25,5.35 27,9.9 26.35,12.65 25.5,14.4 24.95,15.45 24.35,16.15 21.55,19.1 15.7,18.95 13.4,18.9 11.35,18.3 5.65,16.7 2,11.15 1.85,11.05 1.75,10.8 1.05,9.9 0.6,8.9 0.45,8.6 0.35,8.35 0.5,8.95 0.7,9.7 1.7,12.95 3.5,15.7 3.65,15.9 3.75,16.05 5.8,19.15 8.45,21 12.3,23.7 17.45,23.85 23.3,23.95 26.05,21.05 26.65,20.35 27.2,19.25 27.55,18.6 27.85,17.8L29.45,12.7Q30.4,9.8 31.4,8.65 31.909,8.105 32.55,7.7L33,7.425 33.05,7.4 33.75,7.15Q34.55,6.05 35.65,5 36.5,4.35 37.4,3.8"/></g></g><g mask="url(#mask_)"><g id="Symbol_30" transform="matrix(1 0 0 1 -36.2 120.65)"><animateTransform attributeName="transform" additive="replace" type="translate" fill="freeze" dur="2.4s" keyTimes="0;0.067;0.15;0.233;0.317;0.4;0.483;0.567;0.65;0.733;0.817;0.9;0.983;1" values="10.85,121.05;16.042,119.039;22.45,121.05;29.381,118.029;35.35,121.05;41.841,118.035;48.25,121.05;54.713,118.087;61.15,121.05;67.604,118.042;74,121.05;80.427,118.013;86.85,121.05;86.85,121.05"/><animateTransform attributeName="transform" additive="sum" type="rotate" fill="freeze" dur="2.4s" keyTimes="0;0.067;0.15;0.233;0.317;0.4;0.483;0.567;0.65;0.733;0.817;0.9;0.983;1" values="0,0,0;-8.489,0,0;0,0,0;-8.995,0,0;0,0,0;-8.465,0,0;0,0,0;-9.982,0,0;0,0,0;-8.745,0,0;0,0,0;-8.951,0,0;0,0,0;0,0,0"/><animateTransform attributeName="transform" additive="sum" type="scale" fill="freeze" dur="2.4s" keyTimes="0;0.15;0.233;0.317;0.483;0.567;0.65;0.733;0.817;0.9;0.983;1" values="1,1;1,1;0.999,0.999;1,1;1,1;0.999,0.999;1,1;0.999,0.999;1,1;0.999,0.999;1,1;1,1"/><animateTransform attributeName="transform" additive="sum" type="translate" fill="freeze" dur="2.4s" keyTimes="0;0.067;0.15;0.233;0.317;0.4;0.483;0.567;0.65;0.733;0.817;0.9;0.983;1" values="-47.05,-0.4;-47.1,-0.4;-47.05,-0.4;-47.1,-0.4;-47.05,-0.4;-47.15,-0.4;-47.05,-0.4;-47,-0.45;-47.05,-0.4;-47.05,-0.35;-47.05,-0.4;-46.95,-0.35;-47.05,-0.4;-47.05,-0.4"/><path fill="#7C6358" d="M5,10.3Q3.8,10.25 3.2,10.15 0.7,9.65 0.6,9.65 0.25,9.75 0.25,10.2 0.25,10.45 2.65,13.55 2.5,13.85 2,14.8 1.35,15.85 1.35,16 1.35,16.15 1.4,16.2 1.4,16.3 1.45,16.3 1.5,16.35 1.75,16.5L4.75,16.55 4.75,15.85 4.8,15.85 5,10.3"/><path fill="#000" fill-opacity="0.353" d="M20.4,9.15Q9.1,10.35 5,10.3 3.8,10.25 3.2,10.15 0.7,9.65 0.6,9.65 0.25,9.75 0.25,10.2 0.25,10.45 2.65,13.55 2.5,13.85 2,14.8 1.35,15.85 1.35,16 1.35,16.15 1.4,16.2 1.3,16.15 1.25,16.1 1.15,16 1.15,15.7 1.15,15.55 1.8,14.6 2.25,13.65 2.4,13.35 0,10.2 0,9.9 0,9.45 0.4,9.4 0.5,9.4 3,9.9 5.55,10.5 20.25,9.1 34.9,7.65 38.6,3.65 38.65,3.6 38.7,3.55 35.15,7.6 20.4,9.15"/><path fill="#000" fill-opacity="0.353" d="M41.1,0.5Q41.25,0.25 41.4,0.05L41.35,0Q41.4,0 41.45,0 41.3,0.25 41.1,0.5"/><path fill="#000" fill-opacity="0.353" d="M51.75,3.75Q52.7,2.75 53.55,1.75 53.55,1.8 53.55,1.85 52.7,2.9 51.6,4 51.35,4.25 51.2,4.4 50.65,4.925 50.05,5.45 50.731,4.819 51.35,4.2 51.5,4 51.75,3.75"/><path fill="#FFF" d="M53.55,1.75Q53.45,1.5 53.35,1.2 52.55,1.2 52.3,1 47.1,0.3 41.45,0 41.3,0.25 41.1,0.5L40.65,1.15Q40.5,1.3 40.4,1.45 40.1,1.8 39.85,2.1 39.3,2.8 38.7,3.55 35.15,7.6 20.4,9.15 9.1,10.35 5,10.3L4.8,15.85 4.75,15.85 4.75,16.55 4.8,16.55Q6.4,16.8 11.4,16.4 16.35,16 28.45,14.45 29.4,14.35 30.3,14.2L32,13.9Q41.2,12.3 45.9,8.8 46,8.75 46.1,8.65L50.05,5.45Q50.731,4.819 51.35,4.2 51.5,4 51.75,3.75 52.7,2.75 53.55,1.75"/></g></g><g mask="url(#mask_)"><g id="Symbol_29" transform="matrix(1 0 0 1 81.65 74.4)"><animateTransform attributeName="transform" additive="replace" type="translate" fill="freeze" dur="2.4s" keyTimes="0;0.067;0.15;0.233;0.317;0.4;0.483;0.567;0.65;0.733;0.817;0.9;0.983;1" values="84.75,87.8;88.669,85.786;96.35,87.8;101.859,85.773;109.25,87.8;114.901,85.817;122.15,87.8;127.429,85.851;135.05,87.8;140.471,85.775;147.9,87.8;153.365,85.793;160.75,87.8;160.75,87.8"/><animateTransform attributeName="transform" additive="sum" type="rotate" fill="freeze" dur="2.4s" keyTimes="0;0.067;0.15;0.233;0.317;0.4;0.483;0.567;0.65;0.733;0.817;0.9;0.983;1" values="0,0,0;14.999,0,0;0,0,0;9.194,0,0;0,0,0;8.995,0,0;0,0,0;11.974,0,0;0,0,0;9.966,0,0;0,0,0;7.733,0,0;0,0,0;0,0,0"/><animateTransform attributeName="transform" additive="sum" type="scale" fill="freeze" dur="2.4s" keyTimes="0;0.067;0.15;0.317;0.4;0.483;0.567;0.65;0.733;0.817;1" values="1,1;0.999,0.999;1,1;1,1;0.999,0.999;1,1;0.999,0.999;1,1;0.999,0.999;1,1;1,1"/><animateTransform attributeName="transform" additive="sum" type="translate" fill="freeze" dur="2.4s" keyTimes="0;0.15;0.233;0.317;0.4;0.483;0.567;0.65;0.817;0.9;0.983;1" values="-3.1,-13.4;-3.1,-13.4;-3.15,-13.35;-3.1,-13.4;-3.15,-13.45;-3.1,-13.4;-3.15,-13.45;-3.1,-13.4;-3.1,-13.4;-3.15,-13.35;-3.1,-13.4;-3.1,-13.4"/><path fill="#FFF" d="M31.2,52.55Q31.2,52.7 31.2,52.85 31.25,52 31.25,51.65L31.2,52.55"/><path fill="#7C6358" d="M31.15,51.55Q31.05,51.55 31,51.55 30,51.4 29.6,51.4 29.3,51.4 27.4,51.1 25.9,50.9 24.5,50.75 24.5,50.95 24.55,51.3 24.6,51.8 24.7,52.45 24.7,52.5 24.75,53.25 24.75,53.9 25.05,55.35L25.9,55.5Q26.15,55.55 26.95,55.1 27.7,54.65 28.35,54.65 29.25,54.7 29.8,55.2 30.3,55.9 30.7,55.9 30.85,55.9 31,55.9 31.2,55.85 31.2,55.8 31.2,55.7 31.2,55.6 31.2,55.2 31.2,54.75 31.1,53.35 31.15,51.55"/><path fill="#000" fill-opacity="0.353" d="M3.45,22.05Q8.05,21.3 12.4,21.4 14.1,21.45 15.7,23.2 18.75,26.5 21.3,36.15 21.95,38.45 23.75,46.1 23.95,46.55 24,47.1L24.05,47.15Q24.2,48.4 24.35,50.05 24.4,50.6 24.55,51.3 24.6,51.8 24.7,52.45 24.7,52.5 24.75,53.25 24.75,53.9 25.05,55.35L25.9,55.5Q26.15,55.55 26.95,55.1 27.7,54.65 28.35,54.65 29.25,54.7 29.8,55.2 30.3,55.9 30.7,55.9 30.85,55.9 31,55.9 30.95,56.5 30.95,56.95 30.95,57.05 30.45,57 30.05,56.95 29.6,56.35 29.05,55.85 28.1,55.8 27.5,55.7 26.75,56.2 26,56.65 25.75,56.6L24.9,56.4Q24.65,55.05 24.65,54.4 24.6,53.55 24.6,53.5 24.35,52.2 24.2,51.1 24,49.5 23.9,48.2L23.85,48.15Q23.75,47.65 23.6,47.2 21.9,39.55 21.3,37.2 20.8,35.2 20.25,33.5 18.7,28.55 16.95,25.8 16.35,24.8 15.7,24.1 14.2,22.4 12.55,22.35 8.15,22.2 3.55,23 3.6,23.75 3.65,24.35 3.6,24.25 3.55,24.15 3.55,23.25 3.45,22.05"/><path fill="#000" fill-opacity="0.353" d="M1.8,7.4Q1.75,7.4 1.7,7.45 1.6,6.7 1.5,6.05 1.5,5.85 1.55,5.7 1.65,6.5 1.8,7.4"/><path fill="#000" fill-opacity="0.353" d="M49,24.6Q48.9,25.35 48.8,25.6 48.15,26.9 45.85,26.05 45.5,26.35 45.45,27.1 45.35,27.55 44.25,27.5 42.8,27.4 41.6,26.3 41.25,25.95 41.15,25.7 40.8,25.5 38.6,23.2 36.9,21.4 34.15,18.35 27.4,10.95 25.3,10.85 20.85,10.75 16.95,11.8 16.3,12 15.7,12.2 13.75,12.85 11.9,13.8 11.75,13.9 11.65,13.95 10.4,14.1 9.2,14.25 10.2,13.65 11.7,12.8 13.6,11.75 15.7,11.1 20.05,9.65 25.05,9.75 27.15,9.8 34,17.15 40.4,24.1 41.1,24.4 41.15,24.65 41.4,24.9 41.45,25.05 41.5,25.05 42.75,26.15 44.2,26.3 45.3,26.3 45.4,25.85 45.45,25 45.75,24.75 48.05,25.6 48.65,24.3 48.7,24.2 48.75,24.1L49,24.6 M42.1,25.6L42.15,25.75Q42.101,25.652 42,25.55 42.052,25.6 42.1,25.6"/><path fill="#7C6358" d="M44.05,23.25Q43.15,23.8 42.1,24.45 41.7,24.65 41.4,24.9 41.45,25.05 41.5,25.05 42.75,26.15 44.2,26.3 45.3,26.3 45.4,25.85 45.45,25 45.75,24.75 48.05,25.6 48.65,24.3 48.7,24.2 48.75,24.1 48.85,23.65 48.85,22.6 48.55,21.45 48.3,20.75L47.65,21.15Q47.45,21.2 47.4,21.3 47.35,21.35 47.25,21.4 46.5,21.9 45.3,22.5 44.65,22.9 44.05,23.25"/><path fill="#FFF" d="M42.1,24.45Q43.15,23.8 44.05,23.25 44.65,22.9 45.3,22.5 46.5,21.9 47.25,21.4 47.35,21.35 47.4,21.3 47.45,21.2 47.65,21.15L48.3,20.75Q48.2,20.45 48.15,20.25 41,12.7 31.5,3.3 31.1,2.9 30.65,2.45 25.3,-1.65 16.35,1.1 7.4,3.8 3.55,6.2 2.35,6.8 1.8,7.4 1.75,7.4 1.7,7.45 1.6,6.7 1.5,6.05 0.45,12 0.25,18.3 0.25,18.7 0,19.5 0.45,20.9 1.8,21.6 2.05,21.75 2.75,21.75 3.15,22.9 3.55,24.15 3.55,23.25 3.45,22.05 8.05,21.3 12.4,21.4 14.1,21.45 15.7,23.2 18.75,26.5 21.3,36.15 21.95,38.45 23.75,46.1 23.95,46.55 24,47.1L24.05,47.15Q24.2,48.4 24.35,50.05 24.4,50.6 24.55,51.3 24.5,50.95 24.5,50.75 25.9,50.9 27.4,51.1 29.3,51.4 29.6,51.4 30,51.4 31,51.55 31.05,51.55 31.15,51.55 31.15,51.25 31.2,50.9 31.25,46.7 30.5,40.9 29.4,33.25 27.45,27.3 22.95,13.35 15.7,13.2 14,13.15 12.1,13.9 11.85,13.9 11.65,13.95 10.4,14.1 9.2,14.25 10.2,13.65 11.7,12.8 13.6,11.75 15.7,11.1 20.05,9.65 25.05,9.75 27.15,9.8 34,17.15 40.4,24.1 41.1,24.4 41.15,24.65 41.4,24.9 41.7,24.65 42.1,24.45"/></g></g><g mask="url(#mask_)"><g id="Symbol_28" transform="matrix(1 0 0 1 25.35 120.5)"><animateTransform attributeName="transform" additive="replace" type="translate" fill="freeze" dur="2.4s" keyTimes="0;0.067;0.15;0.233;0.317;0.4;0.483;0.567;0.65;0.733;0.817;0.9;0.983;1" values="25.35,120.5;30.5,118.5;36.95,120.5;43.4,118.5;49.85,120.5;56.3,118.5;62.75,120.5;69.2,118.5;75.65,120.5;82.1,118.5;88.5,120.5;94.95,118.5;101.35,120.5;101.35,120.5"/><path fill="#000" fill-opacity="0.431" d="M10.55,0.25Q8.4,0.7 6.2,1.2 3.15,1.8 -1.4,2.5 -1.614,3.407 -0.1,6 0.704,7.369 0.875,7.75 1.669,8.085 3.95,7.35L15.5,3.15Q14.874,0.652 14.45,-0.5 11.2,0.1 10.55,0.25"/></g></g><g mask="url(#mask_)"><g id="Symbol_27" transform="matrix(1 0 0 1 7.65 145.25)"><animateTransform attributeName="transform" additive="replace" type="translate" fill="freeze" dur="2.4s" keyTimes="0;0.017;0.033;0.067;0.15;0.167;0.183;0.2;0.233;0.317;0.333;0.35;0.367;0.4;0.483;0.5;0.517;0.567;0.65;0.667;0.683;0.7;0.733;0.817;0.833;0.85;0.867;0.9;0.983;1" values="32.35,147.85;35.003,147.85;40.7,147.85;43,147.85;45.457,147.85;48.165,147.85;52.948,147.85;55.449,147.85;51.4,147.85;56.85,147.85;60.53,147.85;65.862,147.85;69.503,147.85;67.8,147.85;71.75,147.85;75.343,147.85;83.797,147.85;77.182,147.85;82.65,147.85;88.139,147.85;92.337,147.85;94.749,147.85;95.082,147.85;95.5,147.85;101.062,147.85;104.288,147.85;107.556,147.85;107.95,147.85;108.35,147.85;108.35,147.85"/><animateTransform attributeName="transform" additive="sum" type="scale" fill="freeze" dur="2.4s" keyTimes="0;0.017;0.033;0.067;0.15;0.167;0.183;0.2;0.233;0.317;0.333;0.35;0.367;0.4;0.483;0.5;0.517;0.567;0.65;0.667;0.683;0.7;0.733;0.817;0.833;0.85;0.867;0.9;0.983;1" values="1,1;0.557,1;0.243,1;0.496,1;0.83,1;0.464,1;0.226,1;0.313,1;0.488,1;1,1;0.593,1;0.337,1;0.284,1;0.518,1;0.927,1;0.535,1;0.178,1;0.529,1;1,1;0.719,1;0.366,1;0.242,1;0.609,1;1,1;0.658,1;0.306,1;0.306,1;0.715,1;1,1;1,1"/><animateTransform attributeName="transform" additive="sum" type="translate" fill="freeze" dur="2.4s" keyTimes="0;0.017;0.033;0.067;0.167;0.183;0.2;0.233;0.317;0.333;0.35;0.483;0.5;0.517;0.567;0.65;0.667;0.683;0.7;0.733;0.817;0.833;0.85;0.867;0.9;1" values="-24.7,-2.6;-24.7,-2.6;-24.65,-2.6;-24.7,-2.6;-24.7,-2.6;-24.6,-2.6;-24.6,-2.6;-24.7,-2.6;-24.7,-2.6;-24.6,-2.6;-24.7,-2.6;-24.7,-2.6;-24.75,-2.6;-24.65,-2.6;-24.65,-2.6;-24.7,-2.6;-24.75,-2.6;-24.7,-2.6;-24.75,-2.6;-24.7,-2.6;-24.7,-2.6;-24.8,-2.6;-24.8,-2.6;-24.85,-2.6;-24.7,-2.6;-24.7,-2.6"/><path fill="#000" fill-opacity="0.431" d="M46.375,0.975Q45.332,0.847 45.2,0.825 45.054,0.809 42.725,0.725 40.392,0.634 35.925,0.325 31.457,0.009 22.7,0 13.9,0 7.45,0.85 7.3,0.85 7.15,0.9 0.538,1.321 0,4.4 3.15,5.2 18.9,5.25 37.6,5.3 44.8,3.8 51.605,2.351 49.525,1.725 47.432,1.098 46.375,0.975"/></g></g><g mask="url(#mask_)"><g id="Symbol_26" transform="matrix(1 0 0 1 5.8 122.8)"><animateTransform attributeName="transform" additive="replace" type="translate" fill="freeze" dur="2.4s" keyTimes="0;0.067;0.15;0.233;0.317;0.4;0.483;0.567;0.65;0.733;0.817;0.9;0.983;1" values="26.9,123.65;32.045,121.672;40.462,123.673;44.97,118.639;51.4,123.65;65.833,121.621;71.784,123.748;69.802,119.621;77.2,123.65;88.668,121.684;99.544,123.659;95.509,118.646;102.9,123.65;102.9,123.65"/><animateTransform attributeName="transform" additive="sum" type="rotate" fill="freeze" dur="2.4s" keyTimes="0;0.067;0.15;0.233;0.317;0.4;0.483;0.567;0.65;0.733;0.817;0.9;0.983;1" values="0,0,0;-111.275,0,0;-85.748,0,0;-29.999,0,0;0,0,0;-105.001,0,0;-76.222,0,0;-29.999,0,0;0,0,0;-106.513,0,0;-74.999,0,0;-29.999,0,0;0,0,0;0,0,0"/><animateTransform attributeName="transform" additive="sum" type="scale" fill="freeze" dur="2.4s" keyTimes="0;0.067;0.15;0.233;0.317;0.4;0.567;0.65;0.733;0.9;0.983;1" values="1,1;0.999,0.999;1,1;0.999,0.999;1,1;0.999,0.999;0.999,0.999;1,1;0.999,0.999;0.999,0.999;1,1;1,1"/><animateTransform attributeName="transform" additive="sum" type="translate" fill="freeze" dur="2.4s" keyTimes="0;0.067;0.15;0.233;0.317;0.4;0.483;0.567;0.65;0.733;0.817;0.9;0.983;1" values="-21.1,-0.85;-21.1,-0.8;-21.1,-0.8;-21.1,-0.9;-21.1,-0.85;-21.2,-0.85;-21.05,-0.75;-21.05,-0.85;-21.1,-0.85;-21.1,-0.9;-21.15,-0.85;-21,-0.85;-21.1,-0.85;-21.1,-0.85"/><path fill="#3C3A3D" d="M7.55,26.55L2.4,26.3 2.6,27.1Q2.65,27.1 2.75,27.05 10,27.15 10.05,27.1 10.1,27.05 10.15,26.95 10.3,26.6 10.1,25.9 9.9,24.7 7.45,24.1L7.55,26.55"/><path fill="#4E4E4E" d="M7.45,24.1Q6.3,23.85 4.65,23.7L2.25,24.35 2.4,26.3 7.55,26.55 7.45,24.1"/><path fill="#000" fill-opacity="0.431" d="M21.35,5.75L22.1,5.5 17.8,1.075 17.775,1.125 17.8,1.1Q9.45,15.1 0,22.8L0.4,23.25Q2.45,25.4 1.7,26.8L8.85,23.3Q8.25,23.35 7.7,23.45 7.45,23.5 7.25,23.55 7.4,23.4 7.55,23.25 15.05,15.5 21.35,5.75"/><path fill="#336" d="M0.95,22.6Q2.5,24.6 7.2,26.15 16.25,17.5 23.45,6.1L18.85,1.4Q11.75,16.1 0.95,22.6"/></g></g><g mask="url(#mask_)"><g style="display:none;"><use xlink:href="#Tween_1" transform="matrix(1 0 0 1 108.6 136.2)"/><animate attributeName="display" fill="freeze" repeatCount="1" dur="2.4s" keyTimes="0;0.983;1" values="none;inline;inline"/></g><g><use xlink:href="#Tween_1" transform="matrix(1 0 0 1 32.6 136.2)"><animateTransform attributeName="transform" additive="replace" type="translate" fill="freeze" dur="2.4s" keyTimes="0;0.067;0.15;0.233;0.317;0.4;0.483;0.567;0.65;0.733;0.817;0.9;0.983;1" values="32.6,136.2;20.15,128.65;27.55,122.1;50.65,134.2;57.1,136.2;45.15,128.4;50.75,123.6;82.45,135.2;82.9,136.2;71.6,128.25;76.85,123.1;102.2,134.2;108.6,136.2;108.6,136.2"/><animateTransform attributeName="transform" additive="sum" type="rotate" fill="freeze" dur="2.4s" keyTimes="0;0.067;0.15;0.233;0.317;0.4;0.483;0.567;0.65;0.733;0.817;0.9;0.983;1" values="0,0,0;29.999,0,0;59.999,0,0;-29.999,0,0;0,0,0;30.001,0,0;59.999,0,0;-45,0,0;0,0,0;29.999,0,0;68.733,0,0;-29.999,0,0;0,0,0;0,0,0"/><animateTransform attributeName="transform" additive="sum" type="scale" fill="freeze" dur="2.4s" keyTimes="0;0.067;0.233;0.317;0.4;0.483;0.567;0.65;0.733;0.9;0.983;1" values="1,1;0.999,0.999;0.999,0.999;1,1;0.999,0.999;0.999,0.999;0.998,0.998;1,1;0.999,0.999;0.999,0.999;1,1;1,1"/></use><animate attributeName="display" fill="freeze" repeatCount="1" dur="2.4s" keyTimes="0;0.983;1" values="inline;none;none"/></g></g><g mask="url(#mask_)"><g id="Symbol_25" transform="matrix(1 0 0 1 18.2 93.75)"><animateTransform attributeName="transform" additive="replace" type="translate" fill="freeze" dur="2.4s" keyTimes="0;0.067;0.15;0.233;0.317;0.4;0.483;0.567;0.65;0.733;0.817;0.9;0.983;1" values="18.2,93.75;23.35,91.75;29.8,93.75;36.25,91.75;42.7,93.75;49.15,91.75;55.6,93.75;62.05,91.75;68.5,93.75;74.95,91.75;81.35,93.75;87.8,91.75;94.2,93.75;94.2,93.75"/><path fill="#336" d="M9.7,5.7Q8.65,4.25 6.3,1 5.25,-0.3 4.2,0.1 5.55,2.7 5.5,5.65 5.15,8.2 3.65,8.05 1.6,7.2 0.45,2.55 0.15,2.85 0,3.8L1.05,10.4Q3.3,20.5 5.3,26.9 7.25,33.4 8.85,36L23.2,31.1Q24.8,25.85 21.8,22.25 18.8,18.6 17.4,16.75 14.85,13.35 9.7,5.7"/></g></g><g mask="url(#mask_)"><g id="Symbol_24" transform="matrix(1 0 0 1 31.35 119.85)"><animateTransform attributeName="transform" additive="replace" type="translate" fill="freeze" dur="2.4s" keyTimes="0;0.067;0.15;0.233;0.317;0.4;0.483;0.567;0.65;0.733;0.817;0.9;0.983;1" values="40.05,120.9;45.185,114.838;51.65,120.9;58.09,116.929;64.55,120.9;70.973,116.872;77.45,120.9;83.885,114.788;90.35,120.9;96.813,116.909;103.2,120.9;109.658,116.905;116.05,120.9;116.05,120.9"/><animateTransform attributeName="transform" additive="sum" type="rotate" fill="freeze" dur="2.4s" keyTimes="0;0.067;0.15;0.233;0.317;0.4;0.483;0.567;0.65;0.733;0.817;0.9;0.983;1" values="0,0,0;14.999,0,0;0,0,0;8.453,0,0;0,0,0;7.988,0,0;0,0,0;14.999,0,0;0,0,0;8.23,0,0;0,0,0;7.242,0,0;0,0,0;0,0,0"/><animateTransform attributeName="transform" additive="sum" type="scale" fill="freeze" dur="2.4s" keyTimes="0;0.067;0.15;0.483;0.567;0.65;1" values="1,1;0.999,0.999;1,1;1,1;0.999,0.999;1,1;1,1"/><animateTransform attributeName="transform" additive="sum" type="translate" fill="freeze" dur="2.4s" keyTimes="0;0.15;0.233;0.317;0.817;0.9;0.983;1" values="-8.7,-1.05;-8.7,-1.05;-8.6,-1.15;-8.7,-1.05;-8.7,-1.05;-8.65,-1;-8.7,-1.05;-8.7,-1.05"/><path fill="#000" fill-opacity="0.353" d="M26.45,19.85Q29.4,22.15 31.5,23.95 35.5,27.35 36.4,28.7 36.55,28.9 36.7,29.1 37.7,30.55 38.15,31.15 38.45,31.5 38.5,31.55 38.85,31.85 39.3,31.5 39.35,31.4 39.45,31.15 39.5,31 39.55,30.8 39.2,31 38.85,30.75 38.65,30.65 36.75,27.95 36.35,27.35 35.4,26.45 31.65,22.8 19.15,13.4 7.75,4.9 0.6,2.8L0.05,2.75Q0.05,2.95 0,3.2L0.45,3.2Q7.6,5.3 18.9,13.95 23.2,17.25 26.45,19.85"/><path fill="#FFF" d="M35.15,14.7Q30.7,11.2 20.4,3.8 13.85,2.05 6,0.5 3.45,0 0.65,0 0.2,1.25 0.05,2.75L0.6,2.8Q7.75,4.9 19.15,13.4 31.65,22.8 35.4,26.45L35.55,26.35 35.45,26.25 41.75,20.45Q40.3,18.85 35.15,14.7"/><path fill="#000" fill-opacity="0.353" d="M44.45,24.55Q44.4,24.65 44.15,24.95 43.95,25.1 42.25,25.5 41.15,25.8 40.7,26 40.75,25.65 40.8,25.3 41.2,25.05 42.6,24.7 43.95,24.4 44.35,24.25 44.4,24.45 44.45,24.55"/><path fill="#7C6358" d="M44.65,23.25L41.75,20.45 35.45,26.25 35.55,26.35 35.4,26.45Q36.35,27.35 36.75,27.95 38.65,30.65 38.85,30.75 39.2,31 39.55,30.8 39.6,30.75 39.65,30.7 39.95,30.4 40.7,26 40.75,25.65 40.8,25.3 41.2,25.05 42.6,24.7 43.95,24.4 44.35,24.25 44.45,24.2 44.5,24.15 44.75,23.85 44.75,23.7 44.7,23.65 44.65,23.25"/></g></g><g mask="url(#mask_)"><g id="Symbol_23" transform="matrix(1 0 0 1 5.95 83.9)"><animateTransform attributeName="transform" additive="replace" type="translate" fill="freeze" dur="2.4s" keyTimes="0;0.067;0.15;0.233;0.317;0.4;0.483;0.567;0.65;0.733;0.817;0.9;0.983;1" values="5.95,83.9;11.1,81.9;17.55,83.9;24,81.9;30.45,83.9;36.9,81.9;43.35,83.9;49.8,81.9;56.25,83.9;62.7,81.9;69.1,83.9;75.55,81.9;81.95,83.9;81.95,83.9"/><path fill="#000" fill-opacity="0.431" d="M10.075,2.225L9.3,2.6Q9.05,2.95 8.85,3.4 6.95,7.05 8.4,11.075 12.544,30.711 12.5,38.45L12.75,40.55 16.65,39.75Q16.65,39.8 16.65,39.85 16.15,40.85 15.7,41.8 16.3,41.35 16.9,40.75 17.3,40.45 17.55,40.15 17.85,39.75 17.7,39.15 21.7,38.55 25.6,37.8 30,36.8 34.3,36L34.5,35.95Q34.35,34.65 34.25,33.7L34.6,33.85Q34.4,33.35 34.25,32.85 26.85,16.85 17.9,6.9 17.5,7 16.7,7 15.4,5.5 14.15,4.25 14,4.1 13.9,4 15.35,3.55 16.75,2.9 16.6,2.9 18.65,1.85 19.75,1.3 21.4,0 15.057,-0.086 10.075,2.225"/><path fill="#366" d="M14.05,40.8L14.1,40.8Q14.45,40.05 14.05,40.8"/><path fill="#000" fill-opacity="0.431" d="M12.1,40.2L12.05,40.2Q12.45,39.45 12.1,40.2"/><path fill="#000" d="M35.6,32.65Q35.65,32.65 35.7,32.65L35.4,32.2Q35.4,32.3 35.4,32.35 35.45,32.45 35.6,32.65"/><g id="Symbol_35" transform="matrix(1 0 0 1 10.1 3.45)"><path fill="#FFCB99" d="M9.9,5.65Q7.85,3.2 6,1.4 4.1,-0.35 2.5,0.05 1.35,0.3 1.7,0.35 1.05,0.45 0.8,0.8 0.2,1.7 0.05,3.1 -0.1,4.45 0.25,5.25 0.5,6 0.85,7.1 1.15,8.2 1.5,8.95 1.8,9.6 4.7,16.65 7.7,23.55 8.5,24.6 9.3,25.5 10.35,25.5 12.45,25.35 16.1,22.1 17.45,20.85 17.75,20.5 18.3,19.75 18.2,18.95 18.05,17.7 14.75,12.55 12.5,9.05 12.05,8.45 11.7,7.95 9.9,5.65"/></g><g id="Symbol_34" transform="matrix(1 0 0 1 9.25 6.4)"><path fill="#F60" d="M5.2,32.65L5.5,34.7 27.25,30Q27.1,28.65 27,27.75L23.35,28.4Q23.85,28.7 24.45,29.05L5.2,32.65"/><path fill="#DE765C" d="M10.65,1Q9.1,1.45 0,0 5.3,23.85 5.2,32.65L24.45,29.05Q23.85,28.7 23.35,28.4L27,27.75 27.35,27.85Q27.15,27.35 26.95,26.9 19.6,11 10.65,1"/><path fill="#DE765C" d="M10.75,3.65L12.05,6.95 13.6,6.3 11.25,3.4Q11.4,3.25 11.45,3.1 11.55,2.75 11.4,2.4 11.25,2.05 10.85,1.9 10.5,1.75 10.15,1.9 9.85,2.05 9.7,2.4 9.6,2.75 9.75,3.1 9.9,3.45 10.3,3.6 10.5,3.7 10.75,3.65"/><path fill="#F60" d="M14.65,27.75L14.7,26.9 6.6,28.05 6.6,28.75 14.65,27.75"/><path fill="#333" d="M11.25,3.4Q11.15,3.55 10.95,3.6 10.85,3.65 10.75,3.65L12.05,6.95 13.6,6.3 11.25,3.4"/><path fill="#666" d="M10.3,3.6Q10.5,3.7 10.75,3.65 10.85,3.65 10.95,3.6 11.15,3.55 11.25,3.4 11.4,3.25 11.45,3.1 11.55,2.75 11.4,2.4 11.25,2.05 10.85,1.9 10.5,1.75 10.15,1.9 9.85,2.05 9.7,2.4 9.6,2.75 9.75,3.1 9.9,3.45 10.3,3.6"/></g></g></g><g mask="url(#mask_)"><g id="Symbol_23_l1" transform="matrix(1 0 0 1 -36.8 14.85)"><animateTransform attributeName="transform" additive="replace" type="translate" fill="freeze" dur="2.4s" keyTimes="0;0.067;0.15;0.233;0.317;0.4;0.483;0.567;0.65;0.733;0.817;0.9;0.983;1" values="13.5,60.85;18.641,58.842;25.1,60.85;31.543,58.842;38,60.85;44.398,58.834;50.9,60.85;57.368,58.809;63.8,60.85;70.202,58.827;76.65,60.85;83.118,58.813;89.5,60.85;89.5,60.85"/><animateTransform attributeName="transform" additive="sum" type="rotate" fill="freeze" dur="2.4s" keyTimes="0;0.067;0.15;0.233;0.317;0.4;0.483;0.567;0.65;0.733;0.817;0.9;0.983;1" values="0,0,0;2.935,0,0;0,0,0;2.935,0,0;0,0,0;2.493,0,0;0,0,0;3.228,0,0;0,0,0;2.472,0,0;0,0,0;3.244,0,0;0,0,0;0,0,0"/><animateTransform attributeName="transform" additive="sum" type="translate" fill="freeze" dur="2.4s" keyTimes="0;0.067;0.15;0.233;0.317;0.4;0.483;0.65;0.733;0.817;0.9;0.983;1" values="-50.3,-46;-50.3,-45.95;-50.3,-46;-50.3,-45.9;-50.3,-46;-50.25,-46;-50.3,-46;-50.3,-46;-50.2,-46;-50.3,-46;-50.3,-45.95;-50.3,-46;-50.3,-46"/><g id="Symbol_33" transform="matrix(1 0 0 1 12.25 9.25)"><path fill="#000" fill-opacity="0.431" d="M60.95,11.35Q61.05,11.3 61.1,11.3 61.9,10.95 65.35,8.95 64.7,8.65 64.05,8.4 61.2,7.25 59.05,7 58.1,6.85 57.2,6.75 57.05,6.7 56.95,6.7 50.15,6.1 46.85,8.4 46.7,8.5 46.55,8.6 46.6,8.5 46.7,8.4 47.9,6.75 50.35,3.7 51.6,2.05 52.15,1.15 52.2,1.1 52.25,1.05 52.75,0.2 52.6,0.05 52.45,-0.15 51.5,0.2 51.45,0.2 51.35,0.25 50.05,0.65 47.7,1.8 42.85,4 41.05,5.8 43.3,3.2 45,1.4 45.05,1.3 45.1,1.2 45.15,1.15 45.25,1.1 43.75,1.05 41.85,1.4 40.877,1.581 39.775,1.875 30.6,4.5 23.3,10.6 16.2,16.45 11.45,24.4 9.683,27.753 8.2,31.7 6.363,30.351 3.9,29.65 3.808,29.627 3.725,29.625 4.417,31.914 4.6,34.8L4.525,34.725Q4.586,35.102 4.65,35.5 3.6,35.85 0,37.3 0.25,37.4 2.05,38.2 4.15,39.05 4.6,39.6 1.7,42.8 2.45,46.75 3.15,50.55 3.35,51.45 3.5,52.3 3.85,54.05 3.95,54.4 4.05,54.9 4.15,55.25 4.25,55.75 4.6,57.15 5.05,58.65 5.6,60.75 6.1,62.45 6.45,62.3 7,62.05 8.65,61.5 9.15,61.3 9.35,61.85 9.85,63.25 9.9,63.3 10,63.3 10.35,63.45 11.6,62.8L13.55,62.1Q15.2,61.6 16.4,61.15 16.6,61.05 16.85,61 17.25,60.9 17.65,60.8 17.75,60.75 17.85,60.75 20.3,70.4 29,61.7 30.2,62.45 32.35,63.45 34.15,64.35 36.85,64.7 37.5,64.3 38.2,63.75 38.7,63.45 38.95,62.85 44.5,59.7 51.9,59.8 53.35,58.65 55.2,56.95 59.1,53.3 60.9,50.6 62.7,47.95 63.35,44.65 63.65,43 63.55,41.35 63.55,40.25 63.3,39.25 63.2,38.6 63,38 62.7,36.95 62.25,35.85 62.15,35.75 62.1,35.55 62.05,35.4 62.05,35.35L61.9,35.2Q61.5,34.3 61,33.3 60.95,33.25 59.5,30.95 58.7,29.7 57.5,27.8 54.95,23.65 53.7,21.8 53.25,21.15 53,20.75L52.65,20.25Q52.4,19.95 52.15,19.55 52.55,19.4 52.85,19.35L53.55,19.05Q53.85,18.95 54.2,18.75 55.6,18.3 56.95,17.85 57.35,17.75 58.05,17.45 58.75,17.15 59.75,16.75 59.85,16.9 60,17.05 59.9,16.9 59.8,16.75 59.9,16.75 60.05,16.65 60.1,16.6 60.2,16.55 59.7,16.45 57.5,15.35 56.35,14.75 54.7,13.85 56.15,13.25 60.45,11.55 60.7,11.45 60.95,11.35 M49.7,46.8L49.65,47 49.65,46.95Q49.6,46.85 49.7,46.8 M16.6,44.45Q16.5,44.5 16.45,44.6 16.15,45.1 16,45.45 16.15,45.05 16.4,44.55 16.5,44.5 16.55,44.4L16.6,44.45 M22.25,58.3Q22.35,58.15 22.45,58.1 22.55,58 22.7,57.9 22.8,57.95 22.25,58.3 M28.3,61.25L28.4,61.25Q28.4,61.3 28.45,61.3 28.65,61.45 28.85,61.6L28.9,61.65Q28.55,61.4 28.3,61.3L28.3,61.25"/></g><path fill="#000" fill-opacity="0.431" d="M73.4,37.6L73.4,37.55Q73.35,37.5 73.25,37.5 73.3,37.6 73.4,37.6"/><g id="head_boy_smeetsa_l1" transform="matrix(0.305 -0.237 0.249 0.286 3.15 49.7)"><g id="Symbol_44" transform="matrix(1 0 0 1 -5.4 -6)"><path fill="#FFCB99" d="M166.5,98.85Q166.35,98.75 166.2,98.65 166.3,98.85 166.4,99.1L166.5,98.85"/><path fill="#FFBC79" d="M45.7,114.9L45.8,115.1Q45.1,113.15 45,112.85L45.45,114.3Q45.55,114.65 45.7,115 45.7,114.95 45.7,114.9"/><path fill="#FFB366" d="M41.8,103.3L41.8,103.1 41.45,101.95 41.8,103.3"/><path fill="#FFBC79" d="M40.4,98.9L40.35,98.9Q40.6,99.6 40.8,100.25L40.6,99.5Q40.45,99.2 40.4,98.9"/><path fill="#FFBC79" d="M39.8,97.2Q39.818,97.255 39.825,97.325L39.85,97.35 39.85,97.425Q39.882,97.478 39.9,97.55L39.95,97.6Q39.95,97.65 39.95,97.7L40,97.8Q40,97.75 40,97.7 39.9,97.45 39.8,97.2"/><path fill="#604339" d="M26.4,97Q24.8,96.4 23.5,95.95 27.2,97.35 31.7,99.1 31.9,99.15 32.15,99.25 32.2,99.25 32.3,99.25 29.4,98.1 26.4,97"/><path fill="#3C3A3D" d="M50.5,25.25Q50.65,25.25 50.8,25.25L51.15,25.05Q50.8,25.15 50.5,25.25"/><path fill="#FFCB99" d="M163.55,66.25L163.6,66.25Q159.9,65.2 155.95,64.2 151.15,62.95 146.4,61.9 138.45,60.15 130.55,58.85 115.65,56.35 100.95,55.65L99.35,55.85Q100.7,57.3 104.3,60.9 104.7,61.35 105.1,61.75 107.65,64.45 108.45,65.85 108.35,66.35 108.2,66.5 107.95,66.85 107.05,66.9 105.4,67.05 99.5,65.75 94.7,64.65 87.1,62.55 80.3,60.7 75.5,59.45 72.05,58.55 69.65,57.95L69.6,57.95Q60.7,56.6 57.7,58.05 54.85,59.3 51.2,60.8L51.2,60.9Q50.9,61 50.65,61.1 49.35,61.55 48.4,62.2L48.25,62.1Q47,62.85 46.1,63.75 45.65,64.15 45.3,64.6 45.1,64.85 44.9,65.15 43.3,67.6 40.45,78.55 39.05,78.75 35.6,79.75 36.8,81.9 38.7,88.3 40.25,93.6 40.4,98.5 40.4,98.65 40.4,98.8 40.45,98.85 40.5,98.9 40.45,98.9 40.4,98.9 40.45,99.2 40.6,99.5L41.8,103.3 41.45,101.95 41.8,103.1 41.8,103.3 44.75,112.25Q44.85,112.55 45,112.85 45.1,113.15 45.8,115.1 45.8,115.15 45.8,115.25 46,115.9 46.25,116.55 46.3,116.8 46.4,117 47.55,120.4 49.95,125.95 52.1,130.95 57.35,136.55 66.35,144.25 76.7,147.3 78.55,147.85 80.5,148.25 80.3,148.15 86.05,149.25 91.8,150.3 105.8,149.05 109.1,148.75 112.1,148.4 121.7,147.15 127.95,145.1 136.05,142.4 142.85,136.55 146.3,133.6 149,130 150.7,127.7 152.1,125.15 152.9,123.7 153.6,122.15 154.8,119.5 155.7,116.55 155.85,116 156.05,115.45 156.1,115.25 156.15,115.1L156.25,114.6Q156.9,112.1 157.65,109.05 157.65,108.85 160.2,92 160.45,90.4 160.7,88.9 162.2,78.5 162.9,73.2 163.1,71.25 163.25,70 163.45,67.2 163.5,68.45 163.5,67.35 163.55,66.25 M112.1,119.4L112.1,119.35Q112.2,119.15 112.4,119.1 112.5,119.05 112.1,119.4"/><path fill="#3C3A3D" d="M165.4,66.8L167.15,67.3Q168.1,67.6 169.1,67.9 172.65,69.1 175.85,70.35L175.9,70.35Q177,70.75 178.85,71.3 180.75,71.85 183.4,72.55 181.7,71.4 180.35,70.55 178.4,69.35 177.2,68.7 176.7,68.45 176.35,68.3 175.4,67.85 174.4,67.4 173.65,67.1 172.85,66.75 164.7,63.4 155.45,61.3 152.25,60.55 148.15,59.8 140.8,58.4 130.55,56.95 126.85,56.4 122.75,55.85 101.65,53 97.15,53.45 96.25,53.5 95.75,53.7L95.25,53.85Q95.1,54.45 95.1,55.15 95.1,55.4 98.75,59 99.8,60.05 100.7,60.9 103,63.1 104.05,63.9 101.8,63.55 96.5,62.05 91.55,60.7 83.95,58.35 82.1,57.8 80.35,57.35 77.85,56.75 75.5,56.35 73.6,56 71.8,55.85L76.05,56.6Q74.05,56.3 72.3,56L72,55.95Q71.8,55.95 71.65,55.9L71.15,55.85Q70.85,55.75 70.55,55.75 70.4,55.7 70.25,55.7 70.1,55.7 69.95,55.7L70,55.65 64.5,55.05Q59.5,54.6 52.95,56.55 46.35,58.5 44.45,61.75 42.55,64.95 42.15,68.55 41.75,72.15 38.5,77.8 35.45,78.05 33.3,78.2 33.25,78.55 33.25,79 36.7,87.6 38.1,92.1 38.1,92.15 38.15,92.2 38.15,92.3 38.25,92.45L38.25,92.5Q38.35,92.85 38.45,93.25 38.5,93.4 38.55,93.55 38.75,94.25 39.1,95.35 39.2,95.65 39.35,96.1 39.546,96.589 39.825,97.325 39.818,97.255 39.8,97.2 39.9,97.45 40,97.7 40,97.75 40,97.8 40.2,98.25 40.4,98.8 40.4,98.65 40.4,98.5 40.25,93.6 38.7,88.3 36.8,81.9 35.6,79.75 39.05,78.75 40.45,78.55 43.3,67.6 44.9,65.15 45.1,64.85 45.3,64.6 45.65,64.15 46.1,63.75 47,62.85 48.25,62.1L48.3,62.1Q49.35,61.5 50.65,61 50.9,60.9 51.2,60.8 54.85,59.3 57.7,58.05 60.7,56.6 69.6,57.95L69.65,57.95Q72.05,58.55 75.5,59.45 80.3,60.7 87.1,62.55 94.7,64.65 99.5,65.75 105.4,67.05 107.05,66.9 107.95,66.85 108.2,66.5 108.35,66.35 108.45,65.85 107.65,64.45 105.1,61.75 104.7,61.35 104.3,60.9 100.7,57.3 99.35,55.85L100.95,55.65Q115.65,56.35 130.55,58.85 138.45,60.15 146.4,61.9 151.15,62.95 155.95,64.2 159.9,65.2 163.6,66.25L163.55,66.25Q164.65,66.55 165.4,66.8"/><path fill="#604339" d="M177.35,14.95Q174.05,13.45 170.95,12.1 147.2,2.05 130.55,1.4 127.55,1.25 124.85,1.4 98.15,3.15 96.5,4.55 85.2,7.15 76.1,11.2 75.8,11.3 75.5,11.5 68,14.8 61.05,18.9 59.9,19.55 58.8,20.25L50.5,25.25Q50.8,25.15 51.15,25.05L50.8,25.25Q50.65,25.25 50.5,25.25 49.05,25.1 47.75,22.45 47.5,21.95 47.35,21.45 46.75,20 46.55,18.65 45.4,21.5 43.7,25.15 40.2,23.35 33.9,21.4 34.65,22.2 36.75,26.35 38.65,30.15 39,31.7 39.05,32 39.05,32.25 39.05,32.6 38.5,32.35L38.45,32.35Q37.45,31.85 36.5,31.8 32.2,31.75 25.45,38.4 24.3,39.6 22.95,41.5 21.65,43.35 18.6,49.5 17.2,52.3 15,56.45 14.65,57.1 14.25,57.85 11.85,62.3 8.7,68.15 8.2,69.05 7.75,69.95 1.8,80.65 1.4,80.55L5.8,81.9Q6.45,82.05 7.05,82.35 7.55,82.4 8.2,82.6 9.3,82.9 9.3,83.4 9.3,83.55 9.05,84.2 8.8,84.9 8.25,86.2 7.9,87.05 7.7,89.25 7.65,89.3 7.7,89.35 7.95,89.45 8.25,89.65 9.2,90.15 9.4,90.15 19.55,93.75 19.9,93.75 20.25,93.75 22.55,94.6 24.9,95.45 25.35,95.45 25.55,95.45 25.75,95.6 26,95.7 26.15,95.7 26.75,95.7 30.2,97.35 31.9,98.2 33.6,99 33.7,99 33.8,99.05 34.05,99 34.3,99 36.6,98.75 38.7,98.85 39.15,98.85 39.6,98.9 39.95,98.9 40.35,98.9L40.4,98.9Q40.45,98.9 40.5,98.9 40.45,98.85 40.4,98.8 40.2,98.25 40,97.8L39.95,97.7Q39.95,97.65 39.95,97.6L39.9,97.55Q39.882,97.478 39.85,97.425L39.85,97.35 39.825,97.325Q39.546,96.589 39.35,96.1 39.2,95.65 39.1,95.35 38.75,94.25 38.55,93.55 38.5,93.4 38.45,93.25 38.35,92.85 38.25,92.5L38.25,92.45Q38.15,92.3 38.15,92.2 38.1,92.15 38.1,92.1 36.7,87.6 33.25,79 33.25,78.55 33.3,78.2 35.45,78.05 38.5,77.8 41.75,72.15 42.15,68.55 42.55,64.95 44.45,61.75 46.35,58.5 52.95,56.55 59.5,54.6 64.5,55.05L70,55.65 69.95,55.7Q70.1,55.7 70.25,55.7 70.4,55.7 70.55,55.75 70.85,55.75 71.15,55.85L71.65,55.9Q71.8,55.95 72,55.95L72.3,56Q74.05,56.3 76.05,56.6L71.8,55.85Q73.6,56 75.5,56.35 77.85,56.75 80.35,57.35 82.1,57.8 83.95,58.35 91.55,60.7 96.5,62.05 101.8,63.55 104.05,63.9 103,63.1 100.7,60.9 99.8,60.05 98.75,59 95.1,55.4 95.1,55.15 95.1,54.45 95.25,53.85L95.75,53.7Q96.25,53.5 97.15,53.45 101.65,53 122.75,55.85 126.85,56.4 130.55,56.95 140.8,58.4 148.15,59.8 152.25,60.55 155.45,61.3 164.7,63.4 172.85,66.75 173.65,67.1 174.4,67.4 175.4,67.85 176.35,68.3 176.7,68.45 177.2,68.7 178.4,69.35 180.35,70.55 181.7,71.4 183.4,72.55 182.8,72.1 182.4,71.75 180.9,70.55 181.3,70.75 181.05,70.1 180.75,69.65 180,68.25 179.3,66.95 179.15,66.7 179,66.45 178.95,66.35 178.9,66.2 176.25,61.45 173.9,57.9 174.95,58.25 175.95,58.95 174.5,57.15 173.4,55.8 167.9,49.55 160,45.3 158.2,44.3 156.25,43.45 158.65,43.6 160.9,44.2 168.3,46.15 174.15,52.8 175.45,54.3 177,56.45 180.4,56.25 186.15,57.75 189.25,58.5 193,59.75 193.9,60.1 194.95,60.45 195.15,60.5 195.4,60.6 199.75,62.05 206.05,64.3 204.95,62.6 203.85,61 200,55.65 195.4,51.35 195.2,51.15 194.95,50.95 194,50.05 193.1,49.25 184.2,41.55 172.5,37.25 171.2,37.3 170.1,37.4 168.7,36.85 167.3,36.4 165.7,35.8 164.05,35.35L164.05,35.15Q166.7,34.25 169.9,33.2 178.75,30.15 191.75,25.85 186.85,24.15 182.4,23.4 180.6,23.1 178.3,22.9 170.25,22.15 156.15,22.45 155.8,22.95 155.8,21.75 155.8,21.3 165.1,18.5 171.5,16.55 177.35,14.95 M29.25,94.3Q29.15,94.3 29.05,94.35 29.05,94.3 29.15,94.3 29.2,94.25 29.25,94.3"/><path fill="#3C3A3D" d="M44.7,26.7Q44.95,26.5 45,26.45L44.75,26.65 44.7,26.7"/><path fill="#FFCB99" d="M39.05,97.05L39.05,97.1Q39.1,97.1 39.2,97.15L39.15,97.1Q39.1,97.05 39.05,97.05"/><path fill="#3C3A3D" d="M194.95,24.6Q191.8,23.45 185.25,21.9 182.45,21.25 179.95,20.85 170.45,19.05 165.2,19.7 174.1,17.9 180.55,16.8 180.8,16.75 181.05,16.7 181.25,16.65 181.45,16.65 178.7,14.1 174.35,11.8 162.65,5.5 139.45,0.6 134.9,0.3 130.55,0.15 104.3,-0.85 86.45,5.45 80.3,7.65 74.05,10.35 67.75,13.05 64.75,14.85 61.75,16.65 58.25,18.7 54.7,20.7 51.05,22.55 50.2,19.95 49.65,18.65 49.5,18.4 49.4,18.2 48.65,16.45 47.55,15.35 45.75,18.65 43,23.15 40.5,22.2 30.8,19.4 31.1,20.05 33.4,24.55 35.95,29.7 35.95,31.6 24.65,33.7 19.55,42.95 14.5,52.15 13.3,54.25 12.1,56.35 9.9,60.55 9.4,61.5 8.9,62.5 8.85,62.6 8.85,62.65 8.35,63.6 7.85,64.65 6.1,68.2 4.3,72.15 3.25,74.45 2.25,76.65 1.05,79.25 0,81.6 0.95,81.9 2.4,82.35 6.7,83.8 8.05,84.2 7.45,85.7 6.05,89.35 6.05,89.55 6.25,89.7 6.65,90.5 10.25,91.35L15.25,93Q15.196,92.964 15.125,92.925 19.428,94.478 22.3,95.5 22.85,95.7 23.5,95.95 24.8,96.4 26.4,97 29.4,98.1 32.3,99.25 33.2,99.55 34.05,99.9 34.4,99.9 34.4,99.8 34.4,99.6 34.5,99.45 34.15,99.1 33.8,99.05 33.7,99 33.6,99 31.9,98.2 30.2,97.35 26.75,95.7 26.15,95.7 26,95.7 25.75,95.6 25.55,95.45 25.35,95.45 24.9,95.45 22.55,94.6 20.25,93.75 19.9,93.75 19.55,93.75 9.4,90.15 9.2,90.15 8.25,89.65 7.95,89.45 7.7,89.35 7.65,89.3 7.7,89.25 7.9,87.05 8.25,86.2 8.8,84.9 9.05,84.2 9.3,83.55 9.3,83.4 9.3,82.9 8.2,82.6 7.55,82.4 7.05,82.35 6.45,82.05 5.8,81.9L1.4,80.55Q1.8,80.65 7.75,69.95 8.2,69.05 8.7,68.15 11.85,62.3 14.25,57.85 14.65,57.1 15,56.45 17.2,52.3 18.6,49.5 21.65,43.35 22.95,41.5 24.3,39.6 25.45,38.4 32.2,31.75 36.5,31.8 37.45,31.85 38.45,32.35L38.5,32.35Q39.05,32.6 39.05,32.25 39.05,32 39,31.7 38.65,30.15 36.75,26.35 34.65,22.2 33.9,21.4 40.2,23.35 43.7,25.15 45.4,21.5 46.55,18.65 46.75,20 47.35,21.45 47.5,21.95 47.75,22.45 49.05,25.1 50.5,25.25L58.8,20.25Q59.9,19.55 61.05,18.9 68,14.8 75.5,11.5 75.8,11.3 76.1,11.2 85.2,7.15 96.5,4.55 98.15,3.15 124.85,1.4 127.55,1.25 130.55,1.4 147.2,2.05 170.95,12.1 174.05,13.45 177.35,14.95 171.5,16.55 165.1,18.5 155.8,21.3 155.8,21.75 155.8,22.95 156.15,22.45 170.25,22.15 178.3,22.9 180.6,23.1 182.4,23.4 186.85,24.15 191.75,25.85 178.75,30.15 169.9,33.2 166.7,34.25 164.05,35.15L164.05,35.35Q165.7,35.8 167.3,36.4 168.7,36.85 170.1,37.4 171.2,37.3 172.5,37.25 184.2,41.55 193.1,49.25 194,50.05 194.95,50.95 195.2,51.15 195.4,51.35 200,55.65 203.85,61 204.95,62.6 206.05,64.3 199.75,62.05 195.4,60.6 195.15,60.5 194.95,60.45 193.9,60.1 193,59.75 189.25,58.5 186.15,57.75 180.4,56.25 177,56.45 175.45,54.3 174.15,52.8 168.3,46.15 160.9,44.2 158.65,43.6 156.25,43.45 158.2,44.3 160,45.3 167.9,49.55 173.4,55.8 174.5,57.15 175.95,58.95 174.95,58.25 173.9,57.9 176.25,61.45 178.9,66.2 178.95,66.35 179,66.45 179.15,66.7 179.3,66.95 180,68.25 180.75,69.65 181.05,70.1 181.3,70.75 180.9,70.55 182.4,71.75 182.8,72.1 183.4,72.55 183.3,73.65 183.2,75 183.35,73.7 183.45,72.6 183.8,72.7 184.2,72.75 184.4,72.8 184.7,72.85 183.75,71.75 181.4,65.95 181.1,65.2 180.75,64.35 179.7,61.7 178.4,58.3 180.4,58.85 184.3,60 188.1,61.15 193.75,62.85 194.35,63.05 194.95,63.25 195.15,63.3 195.4,63.35 197.55,64 207.75,65.3 203.15,55.9 198.6,51 197,49.2 195.4,47.6 195.15,47.35 194.95,47.15 194.9,47.1 194.85,47.05 182.05,34.35 171.35,34.3 176.55,32.85 187.1,30.2 192.3,28.75 194.95,27.8 195.2,27.75 195.4,27.65 197.8,26.65 197.8,26.15 197.8,25.6 195.4,24.75 195.2,24.65 194.95,24.6"/></g><g id="Symbol_43" transform="matrix(1 0 0 1 30.2 49.65)"><path fill="#FFB366" d="M127.9,12.8Q127.9,11.7 127.95,10.6L128,10.6Q124.3,9.55 120.35,8.55 107.55,5.25 94.95,3.2 80.05,0.7 65.35,0L63.75,0.2Q65.1,1.65 68.7,5.25 69.1,5.7 69.5,6.1 78.5,7.9 98.1,10.5 117.65,13.1 125,16.4 126.35,17 127.3,17.55 127.5,15.6 127.65,14.35 127.85,11.55 127.9,12.8"/><path fill="#FFB366" d="M63.95,10.15L63.9,10.1Q59.1,9 51.5,6.9 44.7,5.05 39.9,3.8 36.45,2.9 34.05,2.3L34,2.3Q25.1,0.95 22.1,2.4 19.25,3.65 15.6,5.15L15.6,5.25Q19.2,4.05 21.95,2.95 24.65,1.8 28.35,2L28.35,2.4Q30.25,2.95 38,6 42.3,7.7 48.45,10.2 63.75,16.4 66.4,16.4 67.25,16.4 67.45,16.1 67.6,15.95 67.7,15.45 66.85,13.8 63.95,10.15"/><path fill="#FFB366" d="M12.8,6.55L12.65,6.45Q11.4,7.2 10.5,8.1 10.05,8.5 9.7,8.95 9.5,9.2 9.3,9.5 7.7,11.95 4.85,22.9 3.45,23.1 0,24.1 1.2,26.25 3.1,32.65 4.65,37.95 4.8,42.85 4.8,43 4.8,43.15 4.85,43.2 4.9,43.25L4.95,43.25 5,43.35Q5.1,43.6 5.25,43.8 5.25,43.9 5.35,44L5.4,43.95 5.4,44 5.45,44 6.05,46.35 5.7,44.1 5.75,44.1Q5.85,44.85 6,45.6 6,45.7 6,45.8 6.15,46.6 6.25,47.2 6.35,47.8 6.45,48.25 6.45,48.3 6.45,48.35 6.45,48.4 6.5,48.5L6.8,49.45Q6.9,49.25 6.85,47.4L6.7,42.75Q6.7,42.7 6.7,42.65 6.75,42.7 6.8,42.8 6.8,42.9 6.9,43 7.05,43.05 7.2,43.15 7.35,43.2 7.5,43.3 7.95,42.85 8.25,42.6 7.9,40.85 6.8,37 6.35,35.45 5.8,33.55 4.25,28.55 3.3,25.7 4.35,25.05 6.1,24 8.9,11.3 10.45,8.9 10.6,8.6 10.8,8.35 11.6,7.35 12.8,6.55 M2.95,24.85Q2.95,24.8 2.95,24.75 3.8,24.4 4.5,24.2 4.4,24.35 3.15,24.75 3,24.8 2.95,24.85"/></g><g id="Symbol_42" transform="matrix(1 0 0 1 45.1 -4.7)"><path fill="#7C5649" d="M112,31.15Q109.2,30.05 106.6,29.3 80.75,22.5 78.75,23.3 67.2,22.2 57.3,23.15 56.95,23.1 56.65,23.2 48.5,23.95 40.6,25.6 39.3,25.9 38,26.2L28.55,28.3Q28.9,28.3 29.25,28.3 78.35,26.9 113.9,38.6 128.4,43.4 140.65,50.35 143.8,52.15 146.85,54.1 144.05,51.65 141.4,49.4 128.8,39 117.9,33.7 114.9,32.25 112,31.15"/><path fill="#7C5649" d="M74.35,0.1Q47.65,1.85 46,3.25 34.7,5.85 25.6,9.9 25.3,10 25,10.2 17.5,13.5 10.55,17.6 9.4,18.25 8.3,18.95L0,23.95Q0.3,23.85 0.65,23.75 70.5,-1.9 120.45,10.8 96.7,0.75 80.05,0.1 77.05,-0.05 74.35,0.1"/></g><g id="Symbol_41" transform="matrix(1 0 0 1 109.3 100.2)"><path fill="#FBA46A" d="M14.5,3.5Q14.5,2.05 12.35,1 10.25,0 7.25,0 4.25,0 2.15,1 0,2.05 0,3.5 0,4.95 2.15,5.95 4.25,7 7.25,7 10.25,7 12.35,5.95 14.5,4.95 14.5,3.5"/></g><g id="Symbol_40" transform="matrix(1 0 0 1 110.6 93.1)"><path fill="#D96635" d="M15,8.9Q15,8.75 15,8.55 15,3.75 12.25,2.3L12.3,2.3Q11,1.45 7.85,1.4 7.25,1.4 6.55,1.4 3.3,1.5 2.9,0.4 2.85,0.2 2.65,0.1 2.45,-0.05 2.3,0.05 2.1,0.05 2,0.25 1.85,0.45 1.95,0.65 2.3,2.5 6.55,2.4 7.3,2.4 7.85,2.4 10.6,2.45 11.75,3.15 14,4.45 14,8.55 14,8.75 14,8.9 13.8,10.65 12,11.8 10.3,12.8 7.8,13.05 7.2,13.1 6.55,13.1 3.75,13.1 0.75,11.45 0.55,11.35 0.35,11.45 0.15,11.5 0.05,11.7 -0.05,11.85 0.05,12.05 0.1,12.25 0.3,12.35 3.55,14.1 6.55,14.1 7.3,14.1 7.9,14.05 10.6,13.8 12.5,12.65L12.55,12.65Q14.85,11.2 15,8.9"/></g><g id="Symbol_39" transform="matrix(1 0 0 1 45.1 101.05)"><path fill="#FBA46A" d="M95.75,16.65Q98.75,16.65 100.85,14.35 103,12.05 103,8.85 103,5.65 100.85,3.3 98.75,1.05 95.75,1.05 95.05,1.05 94.4,1.2 92.25,1.6 90.65,3.3 88.65,5.45 88.55,8.35 88.5,8.6 88.5,8.85 88.5,12.05 90.65,14.35 92.75,16.65 95.75,16.65"/><path fill="#FBA46A" d="M3.4,3.05Q0,6.05 0,10.1 0,14.1 3.4,16.85 6.75,19.7 11.55,19.55 16.3,19.45 19.65,16.5 23.1,13.55 23.1,9.55 23.1,5.5 19.65,2.7 16.3,-0.1 11.55,0 6.75,0.15 3.4,3.05"/></g><g id="Symbol_38" transform="matrix(1 0 0 1 56.2 84.95)"><path fill="#604339" d="M94,9.6Q94.05,9.55 94.05,9.45 94,7.3 93,5.35 92.85,5.1 92.7,4.85 90.65,1.4 86.75,0.35 82.9,-0.7 79.4,1.25 76,3.15 75,6.85 74.65,8.15 74.65,9.5 74.65,9.55 74.6,9.6L74.65,9.7Q74.65,9.95 74.6,10.2 74.55,10.6 74.55,10.95 75,10.9 75.4,10.85 75.4,10.75 75.4,10.65 75.5,10.5 75.45,10.4 75.5,10.1 75.5,9.75 75.55,9.15 75.7,8.55 76.6,5.15 79.8,3.35 82.95,1.6 86.5,2.55 90.05,3.5 91.8,6.6 91.85,6.65 91.9,6.75 92.9,8.4 93.1,10.2 93.55,10.1 94,10 94,9.8 94,9.6"/><path fill="#604339" d="M21.5,8.75Q21.5,8.7 21.5,8.6 20.75,6.05 18.65,4.05 15.4,1 10.9,1 6.4,1 3.2,4.05 0,7.05 0,11.25 0,12.75 0.45,14.15 0.45,14.2 0.45,14.3L0.5,14.4Q0.55,14.7 0.6,15 0.7,15.4 0.8,15.8 1.25,15.6 1.65,15.4 1.65,15.3 1.65,15.2 1.65,15 1.65,14.95 1.55,14.6 1.45,14.2 1.35,13.55 1.35,12.9 1.35,9 4.25,6.2 7.15,3.4 11.25,3.4 15.35,3.4 18.25,6.2 19.9,7.75 20.65,9.65 21.15,9.4 21.65,9.2 21.55,9 21.5,8.75"/></g><g id="Symbol_37" transform="matrix(1 0 0 1 52.35 62.25)"><animateTransform attributeName="transform" additive="replace" type="translate" fill="freeze" dur="2.4s" keyTimes="0;0.15;0.317;0.483;0.65;0.817;0.983;1" values="52.35,62.25;54.2,58.95;52.35,62.25;54.2,58.95;52.35,62.25;54.2,58.95;52.35,62.25;52.35,62.25"/><path fill="#3C3A3D" d="M85.5,2.3Q89.8,5.45 92.7,8.3 97.05,12.45 97.25,12.75 98.1,5.45 97.85,4.8 94.6,2.4 89.75,0.4 86.35,-1 85.5,2.3"/><path fill="#3C3A3D" d="M0,15.25Q1.25,17.35 2.1,18.5 3.05,19.75 4.55,18.05 6,16.35 14.5,7.55 15.15,6.8 15.75,6.3 15.65,6.05 15.55,5.85 14.65,3.5 8.1,8.25 1.65,12.9 0,15.25"/></g></g><g id="Symbol_32" transform="matrix(1 0 0 1 50.4 47.45)"><path fill="#4A2B0B" d="M23.7,0.25Q23.55,0.95 22,3 20.4,5.15 19.35,6.1 17,8.15 14.7,9.9 14.45,10.05 14.2,10.2 9.7,13.35 5.3,15.15 3,16.05 0.7,16.6 0.3,16.7 0,16.7L0,17.35Q2.1,17.15 6.25,15.6 12.05,13.35 16.1,10.15 20.15,7 21.9,4.65 23.7,2.35 24.4,0.05 24.2,-0.15 23.7,0.25"/></g><g id="ear" transform="matrix(-0.156 -0.55 0.55 -0.139 32.6 76.35)"><path fill="#FFCB99" d="M13.9,2.4Q12.35,1.25 10.4,0.3 5.85,-1.65 3.6,2.75 2.1,5.6 2.1,8.8 2.1,11.1 3.15,12.8 5.2,16.15 10.65,16.15 14.55,16.15 18.7,8.95 19,9.15 18.75,8.55 18.5,7.95 17.15,5.85 15.75,3.75 13.9,2.4"/><path fill="#E28C36" fill-opacity="0.8" d="M6.15,9.45Q6.75,8.25 8.8,9.45 10.75,10.6 11.75,12.2 11.95,10.8 9.5,8.4 7.7,6.65 6.5,6.65 6,6.65 5.65,6.95 4.25,7.95 4.2,8.9 4.2,9 4.2,9.1 4.2,9.85 4.75,10.15 5.5,10.55 6.15,9.45"/></g></g></g><g mask="url(#mask_)"><g id="Symbol_22" transform="matrix(1 0 0 1 -41.95 30.25)"><animateTransform attributeName="transform" additive="replace" type="translate" fill="freeze" dur="2.4s" keyTimes="0;0.067;0.15;0.233;0.317;0.4;0.483;0.567;0.65;0.733;0.817;0.9;0.983;1" values="-24.4,45.1;-19.25,43.1;-13.277,46.123;-6.35,43.1;0.147,46.113;6.55,43.1;13.006,46.049;19.45,43.1;25.918,46.093;32.35,43.1;38.742,46.07;45.987,42.377;51.6,45.1;51.6,45.1"/><animateTransform attributeName="transform" additive="sum" type="rotate" fill="freeze" dur="2.4s" keyTimes="0;0.067;0.15;0.233;0.317;0.4;0.483;0.567;0.65;0.733;0.817;0.9;0.983;1" values="0,0,0;0,0,0;-6.459,0,0;0,0,0;-7.994,0,0;0,0,0;-10.235,0,0;0,0,0;-9.232,0,0;0,0,0;-10.688,0,0;4.443,0,0;0,0,0;0,0,0"/><animateTransform attributeName="transform" additive="sum" type="scale" fill="freeze" dur="2.4s" keyTimes="0;0.4;0.483;0.567;0.65;0.733;0.817;0.9;1" values="1,1;1,1;0.999,0.999;1,1;0.999,0.999;1,1;0.999,0.999;1,1;1,1"/><animateTransform attributeName="transform" additive="sum" type="translate" fill="freeze" dur="2.4s" keyTimes="0;0.067;0.15;0.233;0.317;0.4;0.483;0.567;0.65;0.733;0.817;0.9;0.983;1" values="-17.55,-14.85;-17.55,-14.85;-17.6,-14.9;-17.55,-14.85;-17.6,-14.85;-17.55,-14.85;-17.55,-14.8;-17.55,-14.85;-17.55,-14.9;-17.55,-14.85;-17.6,-14.75;-17.65,-14.8;-17.55,-14.85;-17.55,-14.85"/><path fill="#000" fill-opacity="0.431" d="M29.5,1.4Q29,0.95 28.25,0.95 27.5,0.95 26.95,1.4 26.45,1.9 26.45,2.65 26.45,3.35 26.95,3.8 27.3,4.15 27.7,4.3L26.25,10.4 12.9,3.4 12.95,3.35Q13.6,2.8 13.6,1.95 13.6,1.15 12.95,0.55 12.35,0 11.5,0 10.65,0 10,0.55 9.4,1.15 9.4,1.95 9.4,2.8 10,3.35 10.65,3.95 11.5,3.95 11.8,3.95 12.1,3.85L16.25,17.55 4,17.55Q3.85,17 3.4,16.6 2.85,16.05 2,16.05 1.15,16.05 0.55,16.6 0,17.15 0,17.95 0,18.75 0.55,19.25 1.15,19.85 2,19.85 2.85,19.85 3.4,19.25 3.95,18.8 4,18.05L21.1,25.95Q21.1,25.25 20.7,25.1 20.45,25.1 20.3,24.7L20.7,23.5Q20.9,23.4 21.3,23.5 23.896,24.238 25.8,25.7L30.6,23.55Q30.8,23.15 31.2,22.75 32.983,21.086 34.225,19.025 34.216,18.957 34.2,18.9 33.95,18.8 33.7,18.35 33.458,17.843 33.25,17.35 32.115,14.584 32.2,12.25 31.8,12.7 31.45,13.2L28.15,4.35Q28.2,4.35 28.25,4.35 29,4.35 29.5,3.8 30.05,3.35 30.05,2.65 30.05,1.9 29.5,1.4"/><path fill="#E69E34" d="M5.975,18.35Q5.904,17.712 5.4,17.25 4.85,16.7 4,16.7 3.15,16.7 2.55,17.25 2,17.8 2,18.6 2,19.4 2.55,19.9 3.15,20.5 4,20.5 4.85,20.5 5.4,19.9 6,19.4 6,18.6L6,18.575Q5.998,18.464 5.975,18.35"/><path fill="#FFF" d="M3.25,18.9Q3.25,19.4 3.65,19.55L4.05,19.35Q4.05,18.5 3.65,18.25 3.25,18.4 3.25,18.9"/><path fill="#E69E34" d="M14.95,1.2Q14.35,0.65 13.5,0.65 12.65,0.65 12,1.2 11.4,1.8 11.4,2.6 11.4,3.4 12,4 12.65,4.6 13.5,4.6 13.894,4.6 14.225,4.475 14.544,4.354 14.825,4.125 14.883,4.067 14.95,4 15.6,3.4 15.6,2.6 15.6,1.8 14.95,1.2"/><path fill="#FFF" d="M13.45,1.65L13.1,1.6Q12.65,1.6 12.65,2.4 12.65,2.7 12.85,2.9L13.45,2.05 13.45,1.65"/><path fill="#FC3" d="M30,4.975Q29.926,4.971 29.85,4.95L28.4,11.1Q28.35,11.1 28.35,11.15 28.3,11.15 28.3,11.2 28.25,11.15 28.2,11.15L14.825,4.125Q14.544,4.354 14.225,4.475L18.4,18.2 18.4,18.25 18.35,18.3Q18.3,18.3 18.25,18.35L5.975,18.35Q5.998,18.464 6,18.575L25.25,27.55Q26.45,27.2 27.15,26.9 27.45,26.8 29,25.85 31.9,24.3 33.85,21.8 34.05,21.55 34.25,21.25 35.15,19.85 35.1,18.35L35,18.15 30,4.975"/><path fill="#FFF" d="M23.6,10.2L23.3,10.2 30.05,18.45 31.15,18.25 23.95,10.4 23.6,10.2"/><path fill="#FFF" d="M29.55,19L25.4,19.6 28.5,23.15 28.85,23.05Q29.25,22.6 31.1,20.5L29.55,19"/><path fill="#FFF" d="M25.15,19.3L29.15,18.6 21.4,10.9Q17.95,9.75 16.65,9.55L25.15,19.3"/><path fill="#E69E34" d="M31.5,4.45Q32.05,4 32.05,3.3 32.05,2.55 31.5,2.05 31,1.6 30.25,1.6 29.5,1.6 28.95,2.05 28.45,2.55 28.45,3.3 28.45,4 28.95,4.45 29.344,4.844 29.85,4.95 29.926,4.971 30,4.975 30.124,5 30.25,5 31,5 31.5,4.45"/><path fill="#FFF" d="M29.6,2.45L30.25,2.55Q31.25,2.55 30.9,2.3 30.6,1.95 30.15,2 29.7,2.05 29.6,2.45"/></g></g><g mask="url(#mask_)"><g id="Symbol_21" transform="matrix(1 0 0 1 -38.7 5.2)"><animateTransform attributeName="transform" additive="replace" type="translate" fill="freeze" dur="2.4s" keyTimes="0;0.067;0.15;0.233;0.317;0.4;0.483;0.567;0.65;0.733;0.817;0.9;0.983;1" values="-38.7,5.2;-33.55,3.2;-27.1,5.2;-20.65,3.2;-14.2,5.2;-7.75,3.2;-1.3,5.2;5.15,3.2;11.6,5.2;18.05,3.2;24.45,5.2;30.9,3.2;37.3,5.2;37.3,5.2"/><path fill="#000" d="M0.2,93.35L0.15,93.3Q0.102,93.397 0,93.45L0.2,93.35"/><path fill="#000" fill-opacity="0.353" d="M36.4,89.95Q36,89.725 35.575,89.525 36.155,89.785 36.7,90.1 36.55,90.05 36.4,89.95"/><path fill="#000" fill-opacity="0.541" d="M4.5,107.75L4.3,107.9Q4.4,107.8 4.45,107.7L4.5,107.75"/><path fill="#000" fill-opacity="0.353" d="M43.85,115.45Q36.55,110.4 34.25,105.7 36.7,110.3 44.05,115.35 44,115.4 43.95,115.45 43.9,115.45 43.85,115.45"/><path fill="#000" fill-opacity="0.353" d="M70.05,117.85L62.15,117.55Q62,117.5 61.9,117.5L56.05,117.3Q56.05,117.25 56.05,117.2 56.1,117.15 56.15,117.05L70.1,117.4 70.1,117.45Q70.05,117.65 70.05,117.85"/><path fill="#000" fill-opacity="0.353" d="M38.725,91.7Q38.869,91.875 39,92.05L38.95,92.05Q38.863,91.875 38.725,91.7"/><path fill="#000" fill-opacity="0.353" d="M123.9,93.35Q123.95,93.45 124,93.55 123.95,94.05 123.95,94.45 123.9,96.95 122.6,100.3 120.8,104.9 117.3,108.45 108.05,118.45 90.45,118.45 89.75,117.9 89.3,117.6 107.95,118 117.4,107.6 120.85,104.05 122.6,99.45 123.85,96.05 123.9,93.55 123.9,93.45 123.9,93.35"/><path fill="#7C6358" d="M85.8,27.8Q83.9,30.6 82.9,36.3 82.35,39.6 82.35,49.15 82.4,58.7 80.45,65.55 79.3,69.7 75,73.4 76.05,72.7 77.3,71.95 78.25,71.35 79.3,70.7 84.1,67.7 85.6,63.9 87.2,60.05 86.8,54.65 86.55,49.15 86.35,43.05 86.2,36.95 86.6,33.9 87.15,29.9 88.55,26.8 88.7,26.4 88.9,26.05 89.3,25.3 89.75,24.7 87.4,25.55 85.8,27.8"/><path fill="#6D574E" d="M94.5,24.15Q92.95,24.05 92.95,24.1 91.2,24.2 89.75,24.7 89.3,25.3 88.9,26.05 88.7,26.4 88.55,26.8 87.15,29.9 86.6,33.9 86.2,36.95 86.35,43.05 86.55,49.15 86.8,54.65 87.2,60.05 85.6,63.9 84.1,67.7 79.3,70.7 78.25,71.35 77.3,71.95 76.05,72.7 75,73.4 72.25,75.7 68.2,77.85 57.7,83.3 56.95,84.95L56.9,85Q57.2,84.85 57.55,84.65 59.35,83.65 62.7,81.9 68,79.1 70,78.4 72.7,77.4 76.25,75.2 79,73.5 83.8,70.5 88.6,67.6 90.1,63.75 91.65,59.95 91.35,54.5 91.05,49 90.85,42.95 90.7,36.8 91.1,33.75 91.65,29.75 93.05,26.65 93.55,25.55 94.1,24.7 94.3,24.4 94.5,24.15"/><path fill="#594740" d="M96.25,24.3Q95.6,24.25 94.8,24.15 94.6,24.15 94.5,24.15 94.3,24.4 94.1,24.7 93.55,25.55 93.05,26.65 91.65,29.75 91.1,33.75 90.7,36.8 90.85,42.95 91.05,49 91.35,54.5 91.65,59.95 90.1,63.75 88.6,67.6 83.8,70.5 79,73.5 76.25,75.2 72.7,77.4 70,78.4 68,79.1 62.7,81.9 59.35,83.65 57.55,84.65 57.2,84.85 56.9,85 56.3,86.1 56.05,86.75 55.8,86.85 55.5,87.15 55.776,86.966 55.975,86.9L56,86.9Q56.15,86.8 56.3,86.75 63.15,83 71.3,80 82.65,75.6 84.65,74.25 91.35,69.5 93.1,66.05 94.25,63.75 94.3,57.65 94.35,55.55 93.9,49.4 93.45,43.3 93.5,41.1 93.35,38.1 93.35,35.45 93.6,30.55 94.9,27.1 95.25,26.15 95.95,24.85 96.1,24.55 96.25,24.3"/><path fill="#000" fill-opacity="0.353" d="M104.85,18Q104.15,16.4 101.2,11.1 99.6,8.5 98.75,7.25 97.85,5.7 96.95,4.85 96.95,4.75 96.95,4.7 98.3,5.6 99.65,7.9 100.5,9.15 102.05,11.8 104.45,16.25 105.35,18.1 105,17.95 104.85,18"/><path fill="#FFF" d="M117.75,2.75Q117.35,1.65 116.8,0.95 116.25,0.3 115.55,0 115.45,1.25 115.05,3.15 114.8,4.4 114.65,5.2 114.5,5.65 114.45,5.95 114.25,6.6 114.35,6.7L114.4,6.7 115.6,6.55Q116.05,6.6 116.6,6.65 117.05,6.65 117.6,6.7L119.2,6.85Q118.75,5.65 117.75,2.75"/><path fill="#000" fill-opacity="0.353" d="M118.7,3.6Q119.4,5.7 119.85,6.9 119.55,6.9 119.25,6.9 119.25,6.85 119.2,6.85 118.75,5.65 117.75,2.75 117.35,1.65 116.8,0.95 118.05,1.6 118.7,3.6"/><path fill="#000" fill-opacity="0.353" d="M148.9,39.9Q148.95,32.95 148.4,29.7 147.85,26.15 146.4,23.8 148.45,26.4 149.1,30.8 149.6,34.15 149.45,41.05 149.4,43.4 148.9,44.35 148.25,45.6 145.8,46.35 142.3,47.5 122.65,49.65 122,51.25 121.4,54.8 120.85,57.8 120.65,59.1 120.65,60.6 120.6,62.35 120.65,63.4 120.75,64.7 121.05,68.7 121.9,74.9 121.85,75.05 121.85,75.25 120.85,68.95 120.45,64.7 120.25,62.9 120.2,61.45 120.2,59.7 120.2,58.25 120.35,57 120.9,53.9 121.55,49.9 121.55,49.85 121.55,49.1 122.05,48.8 141.8,46.45 145.25,45.25 147.7,44.45 148.4,43.2 148.9,42.3 148.9,39.9"/><path fill="#000" fill-opacity="0.353" d="M125.075,13.925Q124.9,14.451 124.9,15.1L124.95,15.25Q124.85,15.25 124.8,15.25L124.5,15.15Q124.4,15.05 124.4,14.65 124.689,14.361 125.075,13.925"/><path fill="#000" fill-opacity="0.353" d="M131.5,14.3Q132.55,15.35 132.5,16.75 132.5,17.1 132.5,17.4 131.95,17.35 131.45,17.3 131.7,16.7 131.7,15.7 131.7,14.85 131.3,14.1 131.4,14.2 131.5,14.3"/><path fill="#000" fill-opacity="0.353" d="M129,9.95Q129.35,10.05 129.5,10.15 129.9,10.4 129.9,11.3 129.85,11.95 129.5,12.55 128.95,12.3 128.35,12.2 128.25,12.2 128.2,12.2 128.95,11.35 129,10.3 129,10.1 129,9.95"/><path fill="#000" d="M125.75,8.6Q125.75,10.4 124.7,12.2 124.1,13.2 123.55,13.75 123.55,14.1 123.65,14.2L123.95,14.3Q124.539,14.104 125.075,13.9L125.1,13.9 125.075,13.925Q124.9,14.451 124.9,15.1L124.95,15.25 125.15,16.85Q125.15,16.9 125.2,16.9 125.25,17.15 125.3,17.35L136.25,17.85Q135.25,17.7 134.2,17.6 133.35,17.45 132.5,17.4 131.95,17.35 131.45,17.3 131.7,16.7 131.7,15.7 131.7,14.85 131.3,14.1 131.05,13.7 130.7,13.35 130.15,12.85 129.5,12.55 128.95,12.3 128.35,12.2 128.25,12.2 128.2,12.2 128.95,11.35 129,10.3 129,10.1 129,9.95 128.9,9.4 128.65,9.2 128.1,8.8 125.75,8.6 M125.55,12.8L125.5,12.8 125.5,12.75 125.55,12.8"/><path fill="#000" d="M126.2,11.1Q126,12.15 125.5,12.75L125.5,12.8 125.55,12.8Q125.75,12.7 125.9,12.55 126.45,12.15 126.95,11.7 128.2,10.75 128.25,9.95 127.5,9.7 127.05,9.6 126.85,9.55 126.65,9.55 126.6,9.55 126.55,9.55L126.2,11.1"/><path fill="#FFF" d="M127.15,17.3L127.55,17.3Q127.85,17.3 128.2,17.3 129.25,17.25 130.25,17.3 130.4,17.2 130.55,16.95 131,16.35 130.75,15.65 130.8,15.05 130.05,14.3 129.3,13.6 128.3,13.3 126.15,12.45 125.85,14.9 125.8,15.15 125.8,15.45 125.8,15.5 125.8,15.6 125.8,15.65 126.05,16.8 126.1,16.95 126.15,17.1 126.15,17.2 126.2,17.3 126.65,17.3 127.15,17.3"/><path fill="#7C6358" d="M126.55,9.55L126.2,11.1Q126,12.15 125.5,12.75L125.55,12.8Q125.75,12.7 125.9,12.55 126.45,12.15 126.95,11.7 128.2,10.75 128.25,9.95 127.5,9.7 127.05,9.6 126.85,9.55 126.65,9.55 126.6,9.55 126.55,9.55"/><path fill="#FFF" d="M121.5,11.2L121.5,11.15Q121.456,11.238 121.4,11.325 121.456,11.244 121.5,11.2"/><path fill="#7C6358" d="M123.3,9Q123.65,8.4 123.95,7.9 124.45,6.95 124.55,6.3 122.5,9.75 117.55,12.75 116.2,13.6 115.4,14.9 114.6,16.25 114.6,17.8 114.75,17.8 114.9,17.8 116.6,17.7 117.4,17.7 118.4,17.75 120,14.5 121.15,12.05 121.5,11.2 121.456,11.244 121.4,11.325 121.456,11.238 121.5,11.15L121.5,11.2Q122.45,10.15 123.3,9"/><path fill="#000" fill-opacity="0.353" d="M125.1,5.7Q125.2,5.75 125.3,5.85 125.45,6.05 125.5,6.35 125.5,6.45 125.5,6.95 125.5,7.7 124.85,8.75 124.6,9.35 124.15,9.95 123.3,11.05 122.35,12.05 122.45,13.3 123.05,14.8 123.45,15.75 123.75,16.5 123.95,17 124.1,17.45 123.8,17.45 123.5,17.45 123.35,16.75 122.9,15.6 122.65,14.85 122.25,13.85 121.65,12.45 121.5,11.2 122.45,10.15 123.3,9 123.65,8.4 123.95,7.9 124.45,6.95 124.55,6.3 124.55,6.2 124.55,6.15 124.8,5.95 125.1,5.7"/><path fill="#5F4A43" d="M124.55,6.15Q124.55,6.1 124.55,6.05 124.55,5.55 124.55,5.4 124.5,5.1 124.35,4.95L124.3,4.9Q123.55,6.5 122.6,7.55 121.4,8.85 119.9,9.3 117.95,9.95 114.45,10.15 112.9,10.9 112.1,11.6 111.55,12 110.65,13.05 110.25,13.45 109.75,15.35 109.35,16.7 108.8,17.7 111.45,17.55 114.6,17.8 114.6,16.25 115.4,14.9 116.2,13.6 117.55,12.75 122.5,9.75 124.55,6.3 124.55,6.2 124.55,6.15"/><path fill="#634F47" d="M124.15,4.75Q123.1,5.75 122.8,6.05 122,6.8 120.35,6.9 120.1,6.9 119.85,6.9 119.55,6.9 119.25,6.9 119.25,6.85 119.2,6.85L117.6,6.7Q117.05,6.65 116.6,6.65 116.05,6.6 115.6,6.55L114.4,6.7 114.35,6.7Q114.1,6.75 113.9,6.8 112.65,7 111.55,7.55 110.15,8.25 109.2,8.8 108.15,9.4 106.95,11.45 105.65,13.5 105.55,16.05 105.55,16.95 105.55,17.8 105.55,17.85 105.6,17.95 105.55,17.95 105.55,18 105.503,18.047 105.45,18.1 105.503,18.05 105.55,18.05L105.6,18.05Q105.65,18 105.75,17.95 106.05,17.9 106.35,17.9 106.6,17.85 106.85,17.8 107.75,17.75 108.8,17.7 109.35,16.7 109.75,15.35 110.25,13.45 110.65,13.05 111.55,12 112.1,11.6 112.9,10.9 114.45,10.15 117.95,9.95 119.9,9.3 121.4,8.85 122.6,7.55 123.55,6.5 124.3,4.9 124.25,4.85 124.15,4.75"/><path fill="#FFF" d="M146.35,23.7Q146.1,23.1 145.55,22.55 144.5,19.95 136.25,17.85L125.3,17.35Q124.7,17.4 124.1,17.45 123.8,17.45 123.5,17.45 123.35,16.75 122.9,15.6 122.65,14.85 122.25,13.85 121.65,12.45 121.5,11.2 121.15,12.05 120,14.5 118.4,17.75 117.4,17.7 116.6,17.7 114.9,17.8 114.75,17.8 114.6,17.8 111.45,17.55 108.8,17.7 107.75,17.75 106.85,17.8 106.6,17.85 106.35,17.9 106.05,17.9 105.75,17.95 105.65,18 105.6,18.05L105.55,18.05Q105.503,18.05 105.45,18.1 105.4,18.1 105.35,18.1 105,17.95 104.85,18 104.15,16.4 101.2,11.1 99.6,8.5 98.75,7.25 97.85,5.7 96.95,4.85 96.5,4.4 96.05,4.1 95.8,6.4 95.75,11.35 95.75,17 95.8,19.05 95.95,20.85 96.1,22.5 96.2,23.35 96.35,24.1 96.3,24.15 96.25,24.3 96.1,24.55 95.95,24.85 95.25,26.15 94.9,27.1 93.6,30.55 93.35,35.45 93.35,38.1 93.5,41.1 93.45,43.3 93.9,49.4 94.35,55.55 94.3,57.65 94.25,63.75 93.1,66.05 91.35,69.5 84.65,74.25 82.65,75.6 71.3,80 63.15,83 56.3,86.75 56.15,86.8 56,86.9L55.975,86.9Q55.95,86.921 55.95,86.95 55.95,87 55.85,87.1 55.7,87.1 55.5,87.15 45.3,88.05 39,92.05L38.95,92.05Q38.05,92.6 37.2,93.25 36.1,94.3 35.3,95.4 33.95,97.1 33.45,98.95L33.25,102.6 34.25,105.7Q36.7,110.3 44.05,115.35 44,115.4 43.95,115.45 49.85,117.3 56,117.05 56,117.15 56.05,117.2 56.1,117.15 56.15,117.05L70.1,117.4 70.1,117.45Q74.25,118.35 90.45,118.45 89.75,117.9 89.3,117.6 107.95,118 117.4,107.6 120.85,104.05 122.6,99.45 123.85,96.05 123.9,93.55 123.9,93.45 123.9,93.35 123.9,93.25 123.85,93.2 124.35,86.75 123.5,82.65 122.6,78.35 121.85,75.25 120.85,68.95 120.45,64.7 120.25,62.9 120.2,61.45 120.2,59.7 120.2,58.25 120.35,57 120.9,53.9 121.55,49.9 121.55,49.85 121.55,49.1 122.05,48.8 141.8,46.45 145.25,45.25 147.7,44.45 148.4,43.2 148.9,42.3 148.9,39.9 148.95,32.95 148.4,29.7 147.85,26.15 146.4,23.8 146.4,23.75 146.35,23.7 M122.15,90.8Q120.8,90.1 123.1,90.95 122.4,90.95 122.15,90.8 M56.4,87.15L56.4,87.1 56.5,87.05Q56.55,87.05 56.4,87.15 M52.7,88.85L52.65,88.85Q52.698,88.849 52.75,88.8L52.7,88.85"/><path fill="#C87373" d="M136.4,28.75Q136,31.8 136.4,34.9 136.35,39.1 136.5,40.05 136.85,43.15 138.25,44.35 147.1,42.45 147.1,39.9 147.2,31.15 145.5,27 144.55,24.45 142.5,22.9 142,22.9 141.55,22.9 137.35,22.75 136.4,28.75"/><path fill="#FFF" d="M102.55,21.45Q102.472,21.95 102.7,22.375 101.588,22.877 100.65,23.75 98.55,25.75 98.55,28.6 98.55,31.45 100.65,33.45 102.8,35.45 105.8,35.45 108.8,35.45 110.95,33.45 113.1,31.45 113.1,28.6 113.1,25.75 110.95,23.75L110.925,23.725Q110.965,23.571 111,23.35L111.15,22.1Q110.95,22.1 110.65,22.1 108.05,22.05 105.5,20.4 102.9,18.7 102.55,21.45"/><path fill="#7C6358" d="M102.6,18.85Q102.25,18.45 101.85,17.85 100.7,15.85 100.4,15.55 100.4,18.2 100.35,20.15 101.4,19.4 102.6,18.85"/><path fill="#000" d="M119.95,39.5L119.85,39.45Q117.75,38.55 116.15,39.75 114.6,40.85 114.25,42.65 113.85,44.4 114.5,44.5 115.8,40.75 117.85,40.4L119.85,40.3Q119.9,40.2 120,40.2 120.05,40.15 120.05,39.9 120.05,39.55 119.95,39.5"/><path fill="#000" fill-opacity="0.353" d="M56.4,87.15L56.4,87.1 56.5,87.05Q56.55,87.05 56.4,87.15"/><path fill="#000" fill-opacity="0.353" d="M52.7,88.85L52.65,88.85Q52.698,88.849 52.75,88.8L52.7,88.85"/><path fill="#000" d="M102.7,22.375Q103.175,23.331 105.1,23.95 102.6,23.9 101.35,25.4 100.4,26.5 100.15,28.55L100,29.3Q99.9,30.15 100.15,30.85 100.8,33.25 104.25,33.7 108.35,34.3 109.8,32.8 110.45,32.15 110.7,30.4 110.9,28.75 110.1,27.3 109.25,25.8 104.55,24.7L107.3,24.45Q107.7,24.5 108.15,24.55 110.3,24.85 110.8,24.25 110.838,24.288 110.925,23.725 110.965,23.571 111,23.35L111.15,22.1Q110.95,22.1 110.65,22.1 108.05,22.05 105.5,20.4 102.9,18.7 102.55,21.45 102.472,21.95 102.7,22.375"/><path fill="#7C6358" d="M103.425,22.1Q103.554,22.652 103.95,22.85 104.55,23.2 108.15,23.7 109.45,23.85 110.15,23.6L110.25,22.75Q109.724,22.64 109.225,22.525 107.077,22.079 105.7,21.75 103.321,21.176 103.35,21L103.35,21.45Q103.35,21.824 103.425,22.1"/><path fill="#FFF" d="M109.8,30.2Q110,28.65 108.95,27.6 107.75,26.5 104,24.9 102.45,25.6 101.75,26.65 101.2,27.45 101.05,28.7 100.9,29.65 101.25,30.5 101.6,31.5 103,32.2 103.8,32.75 104.6,32.85 107.9,33.3 109.15,31.85 109.8,31.15 109.8,30.2"/><path fill="#7C6358" d="M105.1,23.95Q103.175,23.331 102.7,22.375 101.588,22.877 100.65,23.75 98.55,25.75 98.55,28.6 98.55,31.45 100.65,33.45 102.8,35.45 105.8,35.45 108.8,35.45 110.95,33.45 113.1,31.45 113.1,28.6 113.1,25.75 110.95,23.75L110.925,23.725Q110.838,24.288 110.8,24.25 110.3,24.85 108.15,24.55 107.7,24.5 107.3,24.45L104.55,24.7Q109.25,25.8 110.1,27.3 110.9,28.75 110.7,30.4 110.45,32.15 109.8,32.8 108.35,34.3 104.25,33.7 100.8,33.25 100.15,30.85 99.9,30.15 100,29.3L100.15,28.55Q100.4,26.5 101.35,25.4 102.6,23.9 105.1,23.95"/><path fill="#000" d="M140,32.35Q139.25,32.8 139.05,34.25 139.05,34.3 139.05,36.2 139.05,37.75 139.1,38.15 139.25,39.3 139.95,40 140.15,39.9 140.4,39.75 140.7,39.6 140.85,39.6L140.9,33.25Q140.7,32.65 140,32.35"/><path fill="#000" d="M145.4,36.9Q145.35,35.65 145.3,35.3 145.15,34.7 144.05,33.25 143.65,33.35 143.45,33.6 143.15,33.9 143.15,34.55 143.15,35.85 143.4,37.05 143.85,38.45 144.5,39.25 144.9,39.15 145.25,38.9 145.35,37.9 145.4,36.9"/></g></g><g mask="url(#mask_)"><g id="Symbol_20" transform="matrix(1 0 0 1 15.4 90.65)"><animateTransform attributeName="transform" additive="replace" type="translate" fill="freeze" dur="2.4s" keyTimes="0;0.067;0.15;0.233;0.317;0.4;0.483;0.567;0.65;0.733;0.817;0.9;0.983;1" values="15.4,90.65;20.55,88.65;27,90.65;33.45,88.65;39.9,90.65;46.35,88.65;52.8,90.65;59.25,88.65;65.7,90.65;72.15,88.65;78.55,90.65;85,88.65;91.4,90.65;91.4,90.65"/><animateTransform attributeName="transform" additive="sum" type="rotate" fill="freeze" dur="2.4s" keyTimes="0;0.067;0.15;0.233;0.317;0.4;0.483;0.567;0.65;0.733;0.817;0.9;0.983;1" values="0,0,0;-0.25,0,0;0,0,0;-0.49,0,0;0,0,0;-0.25,0,0;0,0,0;0.716,0,0;0,0,0;0.237,0,0;0,0,0;-0.286,0,0;0,0,0;0,0,0"/><path fill="#F60" d="M28.85,15.3L29.05,14.15Q29.2,13.05 29.25,12.55 16.95,10.9 5.95,2.85 1.05,-2.45 0,2.05 9.25,15.1 28.6,16.75L28.6,16.7Q28.6,16.65 28.65,16.55L28.65,16.5 28.7,16.2Q28.7,15.9 28.85,15.3"/><path fill="#FFCB99" d="M29.05,14.15L28.85,15.3Q28.7,15.9 28.7,16.2L28.65,16.5 28.65,16.55Q28.6,16.65 28.6,16.7L28.6,16.75 28.6,16.85Q28.7,16.75 30.1,17.1 30.25,17.15 30.45,17.25 31.8,17.7 32.05,17.6 32.85,16.6 31.5,16.55 31.75,16.45 32.45,16.45 33.4,16.4 33.65,16 33.85,15.7 33.75,15.55 33.6,15.4 31.5,15.2 34.3,15.3 34.45,14.4 34.35,14.25 33.55,14 33.2,13.85 32.8,14.05 34.1,13.25 34,12.9 33.95,12.55 33.55,12.5 33.2,12.4 30.9,12.75 31.3,11.85 31.2,11.7 30.7,10.15 29.25,12.55 29.2,13.05 29.05,14.15"/><path fill="none" stroke="#C69C8C" stroke-width="0.25" stroke-linecap="round" stroke-linejoin="round" d="M30.1,17.1Q28.7,16.75 28.6,16.85M30.45,17.25Q30.25,17.15 30.1,17.1M32.05,17.6Q31.8,17.7 30.45,17.25M31.5,16.55Q32.85,16.6 32.05,17.6M32.45,16.45Q31.75,16.45 31.5,16.55M33.65,16Q33.4,16.4 32.45,16.45M33.75,15.55Q33.85,15.7 33.65,16M31.5,15.2Q33.6,15.4 33.75,15.55M34.45,14.4Q34.3,15.3 31.5,15.2M33.55,14Q34.35,14.25 34.45,14.4M32.8,14.05Q33.2,13.85 33.55,14M34,12.9Q34.1,13.25 32.8,14.05M33.55,12.5Q33.95,12.55 34,12.9M30.9,12.75Q33.2,12.4 33.55,12.5M31.2,11.7Q31.3,11.85 30.9,12.75M29.25,12.55Q30.7,10.15 31.2,11.7M28.6,16.85L28.6,16.75"/></g></g><g mask="url(#mask_)"><g id="Symbol_19" transform="matrix(1 0 0 1 64.65 19.9)"><animateTransform attributeName="transform" additive="replace" type="translate" fill="freeze" dur="2.4s" keyTimes="0;0.067;0.15;0.233;0.317;0.4;0.483;0.517;0.567;0.65;0.733;0.817;0.9;0.983;1" values="64.65,19.9;69.65,17.2;76.15,19;82.6,17;89.05,19;95.5,17;101.95,19.5;102.25,19.8;106.4,19;112.85,21;119.3,19;125.7,21;132.15,19;138.55,21;138.55,21"/><path fill="#000" d="M27.3,0.45Q27.3,0.2 27.2,0.1L27.1,0.05Q25.85,-0.05 25.55,0.1 25.45,0.1 25.45,0.5 25.45,0.85 25.5,1.05 25.65,1.4 26.15,1.45 26,1.45 25.9,1.5L26.3,1.5Q27.3,0.85 27.3,0.45"/><path fill="#000" d="M1.55,13.45Q0.1,13.25 0,14.7 0.35,16.35 1.75,16.4L2.2,16.1Q3.05,15.5 3.05,14.75 3.05,13.65 1.55,13.45"/><path fill="#7C6358" d="M1.55,13.75Q0.7,13.7 0.45,14.3 0.3,14.55 0.3,14.95 0.3,15.1 0.35,15.25 0.35,14.05 1.2,14.25 2,14.45 1.95,15.1 1.85,15.6 1,15.85 1.15,15.9 1.3,15.9 1.35,15.9 1.45,15.9L1.55,15.9Q1.7,15.85 1.85,15.85 2.2,15.7 2.45,15.45 2.75,15.1 2.75,14.75 2.75,13.9 1.55,13.75"/></g></g><mask id="mask_"><path fill="#FFF" d="M206.7,16Q205.9,15.55 205.1,15.15 196.435,10.698 185.8,7.55 165.881,1.659 139.05,0.35 99.452,-1.567 44.8,6.5 39.85,7.15 35.4,8.9 14.55,17.05 5.65,47.25 3.25,55.55 1.8,65.4 0.4,74.85 0,85.7 1.65,127.25 5.2,139.1 6.25,142.55 8.9,146.35 11.55,150.1 20.3,155.2 29,160.25 59.75,161.55 121.05,166.15 201.45,159.25 213.4,157.8 220.85,152.9 228.3,148 231,137.7 233.25,128.95 233.45,121.35 233.45,121.9 233.45,122.55 234.9,101.9 235.6,91.3 235.7,89.9 235.8,88.5 236.85,71.35 236.85,59.8 236.85,49.2 231.6,39.45 231.3,38.85 230.95,38.3 223.3,24.85 206.7,16 M110.45,155.25Q107.75,155.25 105.35,155.2L113.8,155.2Q112.1,155.25 110.45,155.25" fill-opacity="1"/></mask></g></g></svg>