<?xml version="1.0" encoding="utf-8"?><svg id="200504" image-rendering="auto" baseProfile="basic" version="1.1" x="0px" y="0px" width="1020" height="660" xmlns="http://www.w3.org/2000/svg" xmlns:xlink="http://www.w3.org/1999/xlink"><defs><linearGradient gradientUnits="userSpaceOnUse" color-interpolation="sRGB" x1="500.75" y1="124.013" x2="500.75" y2="614.188" id="linearGradient"><stop stop-color="#6F7FED" stop-opacity="1" offset="0"/><stop stop-color="#6376D6" stop-opacity="0" offset="1"/></linearGradient><symbol id="flash0.ai_Layer_7_.__3CPath.__3E_7" overflow="visible"><path fill="#D34646" stroke="#721C1C" stroke-width="4" stroke-linecap="round" stroke-linejoin="round" d="M200.6,16.2Q188.2,7.6 175.15,7.25 158.75,6.8 143.55,14.35 135.3,18.4 129.4,22.85 120.65,29.5 119.7,35.45 112.9,23.8 105.75,16.55 96.55,7.15 86,4.15 77.65,1.75 68.25,2.05 59.2,2.35 50.65,5.05 33.9,10.45 21.65,24.3 9.9,37.6 5.3,55.2 1.15,71.3 2.25,93.15 3.7,122.55 13.2,144.15 19.1,157.5 29.95,171.75 37.3,181.45 51.1,196.5 58.5,204.6 63.2,209.15 70.15,215.8 76.65,220.25 83.9,225.2 91.1,227.9 99.75,231.2 107.05,230.75 124.8,229.65 144.7,217.95 159.8,209.05 176.75,193.55 182.4,188.4 187.1,183.25 210.6,157.95 220.55,127.35 230.2,97.85 229,73.15 227.95,51.9 219.05,36.3 212.15,24.2 200.6,16.2"/>
</symbol><symbol id="flash0.ai_Layer_7_.__3CPath.__3E_10" overflow="visible"><path fill="#721C1C" d="M219.4,8.2Q213.95,19.25 211.1,24.75 206.05,34.45 201.4,40.5 191.15,53.8 175.8,67.65 159.95,81.85 145.3,89.35 127.15,98.65 110,98.35 93.05,98.05 75.25,88.25 61.2,80.5 45.4,65.95 34.15,55.65 26.5,46.45 9.1,25.65 0,0 0.15,14.7 5.75,30 10.8,43.8 19.95,57.35 27.65,68.7 39.2,81.35 46.25,89.05 60.75,103.4 67.75,110.4 71.95,113.6 98.35,133.45 134.55,116.15 161.85,103.15 187.05,74.15 209.7,48.15 219.4,8.2"/>
</symbol><symbol id="flash0.ai_Layer_7_.__3CPath.__3E_11" overflow="visible"><path fill="#721C1C" d="M17.85,4.9Q17.2,4.25 15.4,3.65 5.1,0.25 4.7,0.2 -2,-0.95 0.9,5.5 2.95,10.1 8.05,13.1 13.1,16.1 18.2,15.85 19,15.85 19.35,15.5 19.75,15.15 19.65,14L19.1,8.65Q18.9,5.95 17.85,4.9"/>
</symbol><linearGradient gradientUnits="userSpaceOnUse" color-interpolation="sRGB" x1="161.688" y1="-39.775" x2="96.313" y2="121.275" id="linearGradient1"><stop stop-color="#FFF" stop-opacity="1" offset="0"/><stop stop-color="#FFF" stop-opacity="0" offset="1"/></linearGradient><linearGradient gradientUnits="userSpaceOnUse" color-interpolation="sRGB" x1="166.7" y1="-29.425" x2="90.6" y2="126.825" id="linearGradient2"><stop stop-color="#FFF" stop-opacity="1" offset="0"/><stop stop-color="#FFF" stop-opacity="0" offset="1"/></linearGradient><linearGradient gradientUnits="userSpaceOnUse" color-interpolation="sRGB" x1="163.013" y1="-39.863" x2="96.887" y2="120.863" id="linearGradient3"><stop stop-color="#FFF" stop-opacity="1" offset="0"/><stop stop-color="#FFF" stop-opacity="0" offset="1"/></linearGradient><linearGradient gradientUnits="userSpaceOnUse" color-interpolation="sRGB" x1="156.538" y1="-43.475" x2="95.563" y2="119.275" id="linearGradient4"><stop stop-color="#FFF" stop-opacity="1" offset="0"/><stop stop-color="#FFF" stop-opacity="0" offset="1"/></linearGradient><linearGradient gradientUnits="userSpaceOnUse" color-interpolation="sRGB" x1="161.363" y1="-37.513" x2="95.238" y2="123.213" id="linearGradient5"><stop stop-color="#FFF" stop-opacity="1" offset="0"/><stop stop-color="#FFF" stop-opacity="0" offset="1"/></linearGradient></defs><g id="Symbol_19_l1" overflow="visible" transform="matrix(1 0 0 1 0 2.75)"><g id="Symbol_1_l1" transform="matrix(0.991 0 0 0.991 2.95 3.05)"><path fill="#FFF" stroke="#BABABA" stroke-width="3" stroke-linecap="round" stroke-linejoin="round" d="M1003.8,48.8Q994.5,36.25 980.9,27.8 967.3,19.3 951.9,16.5 934.35,13.35 916.85,17.7 914.2,18.35 909.95,20.4 905.15,22.85 902.65,24 893.65,28.15 888.4,26.15 885.4,24.95 882,22.3 878.1,19 876.15,17.35 859.4,3.4 835.9,0.65 813.2,-2.05 792.1,6.4 758.7,19.8 726.7,66.5 708.55,40.4 677.75,26.7 647.35,13.15 615.15,16.25 582.2,19.4 554.6,36 525.75,53.4 510.4,81.2 497.05,73.95 479.5,66.05 468.55,61.15 447.75,52.45 414.25,38.5 378.5,30.8 333.85,21.2 286.6,22.7 239.5,24.15 195.25,36.45 133.55,53.65 85.95,101.05 40.45,146.4 18.1,208.7 0.2,258.75 0,310.8 -0.2,364.8 18.85,412.4 26.6,431.6 36.85,449.15 37.65,450.5 49.3,467.1 60.3,482.75 60.15,482.95 34.85,517.15 29.1,550.65 25.8,569.8 29.15,588.1 32.7,607.55 43.1,622.55 55,639.65 74.7,647.65 91.25,654.35 114.75,655.05 137,655.75 170.3,655.5 188.8,655.4 225.85,655.1L813.5,655.1Q840.2,655.1 867.55,644.4 893.95,634.1 915,616.2 960.25,577.75 980.6,514.95 999.4,457 992.65,393.9 989.8,366.95 980.25,337.35 973.3,315.75 959.3,283.25 974.55,267.85 986.45,249.55 998.35,231.25 1006.25,211.05 1017.9,181.3 1021.95,144.35 1028.7,82.45 1003.8,48.8"/><g mask="url(#mask_)"><g id="Symbol_19" transform="matrix(1 0 0 1 11.65 9.25)"><path fill="url(#linearGradient)" d="M996.85,74.2Q991.55,57 981,43.9 963.25,21.8 935.1,15.6 906.1,9.2 882.45,23.8 868.6,13.45 853,7.4 836.7,1.1 820.25,0.15 803.1,-0.8 786.9,4.2 770.1,9.35 757.4,20 751.8,24.75 745.7,31.65 742.15,35.75 735.2,44.5L717.3,67.25Q694.25,44.55 666.05,31.65 636.2,18 605.8,17.9 577.7,17.8 548.95,35.65 538.75,41.95 524.4,53.1 508.4,65.85 500.15,72 497,74.35 495.05,74.9 492.55,75.55 489.4,74.65 487.3,74 483.95,72.25 380.25,18.75 287.45,16.65 234.15,15.45 185.75,31.65 134.4,48.85 97.65,82.8 53.5,123.65 28.6,176.55 3.75,229.4 0.5,289.45 -2.3,340.85 10.35,382.25 16,400.8 30.65,424.5 34.7,431.05 43.05,444.1 50.45,455.8 55.05,464.4 57.05,468.1 57.05,470.35 57.05,472.05 56.2,474 55.65,475.15 54.3,477.3 42.15,497 35.5,513.95 27.4,534.65 26.3,553.65 25.05,575.05 33.1,594.1 41.75,614.4 58.35,625.25 75.5,636.4 102.8,638.1 118.5,639.05 149.75,637.85L788.55,637.85Q804.35,637.85 818.15,638.55 834.6,639.45 854.25,629.7 863.2,625.3 886.55,610.05 901.85,600.05 914.75,586.2 927.35,572.8 936.9,556.65 962.75,512.95 968.2,449.7 971.75,407.85 965.4,369.55 958.5,328.1 940.45,293.95 938.4,290.05 937.65,288.1 936.4,284.7 936.6,281.85 936.8,279.3 938.25,276.45 939.15,274.75 941.3,271.5 960.75,242.4 974.65,210.2 988.6,177.9 996.4,143.9 1001.2,123.05 1001.5,108.25 1001.9,90.6 996.85,74.2"/></g></g><g mask="url(#mask_)"><g id="Symbol_28_l1"><g id="Symbol_17_l1" transform="matrix(1 0 0 1 142.4 678.3)"><animateTransform attributeName="transform" additive="replace" type="translate" dur="2.8s" keyTimes="0;1" values="0,0;0,0" fill="freeze"/><animateTransform attributeName="transform" additive="sum" type="translate" dur="1.28s" keyTimes="0;0.562;0.563;0.593;0.594;0.624;0.625;0.655;0.656;0.687;0.688;0.718;0.719;0.749;0.75;0.78;0.781;0.812;0.813;0.843;0.844;0.874;0.875;0.905;0.906;0.937;0.938;0.968;0.969;0.999;1" values="142.4,678.3;142.4,678.3;160.65,669.5;160.65,669.5;178.65,660.1;178.65,660.1;196.35,650.25;196.35,650.25;213.8,639.95;213.8,639.95;231.05,629.2;231.05,629.2;248.05,618;248.05,618;264.75,606.4;264.75,606.4;281.2,594.45;281.2,594.45;297.35,582.1;297.35,582.1;313.25,569.4;313.25,569.4;328.85,556.4;328.85,556.4;344.1,543;344.1,543;359.15,529.35;359.15,529.35;373.85,515.35;373.85,515.35;388.25,501.1" calcMode="discrete"/><animateTransform attributeName="transform" additive="sum" type="translate" begin="1.28s" dur="0.6s" keyTimes="0;0.065;0.067;0.132;0.133;0.198;0.2;0.265;0.267;0.332;0.333;0.398;0.4;0.465;0.467;0.532;0.533;0.598;0.6;0.665;0.667;0.732;0.733;0.798;0.8;0.865;0.867;0.932;0.933;0.998;1" values="388.25,501.1;388.25,501.1;402.4,486.55;402.4,486.55;416.25,471.8;416.25,471.8;429.8,456.75;429.8,456.75;443.1,441.5;443.1,441.5;456.05,426;456.05,426;468.8,410.25;468.8,410.25;481.2,394.3;481.2,394.3;493.35,378.1;493.35,378.1;505.15,361.65;505.15,361.65;516.65,345;516.65,345;527.85,328.15;527.85,328.15;538.75,311.05;538.75,311.05;549.35,293.8;549.35,293.8;559.6,276.3;559.6,276.3;569.5,258.65" calcMode="discrete"/><animateTransform attributeName="transform" additive="sum" type="translate" begin="1.88s" dur="0.6s" keyTimes="0;0.065;0.067;0.132;0.133;0.198;0.2;0.265;0.267;0.332;0.333;0.398;0.4;0.465;0.467;0.532;0.533;0.598;0.6;0.665;0.667;0.732;0.733;0.798;0.8;0.865;0.867;0.932;0.933;0.998;1" values="569.5,258.65;569.5,258.65;579.1,240.8;579.1,240.8;588.35,222.8;588.35,222.8;597.3,204.65;597.3,204.65;605.9,186.35;605.9,186.35;614.2,167.85;614.2,167.85;622.1,149.25;622.1,149.25;629.7,130.5;629.7,130.5;636.95,111.65;636.95,111.65;643.85,92.6;643.85,92.6;650.4,73.45;650.4,73.45;656.6,54.2;656.6,54.2;654.7,60.25;654.7,60.25;652.75,66.3;652.75,66.3;650.8,72.35;650.8,72.35;651.8,66" calcMode="discrete"/><animateTransform attributeName="transform" additive="sum" type="translate" begin="2.48s" dur="0.32s" keyTimes="0;0.122;0.125;0.247;0.25;1" values="651.8,66;651.8,66;652.85,59.7;652.85,59.7;653.85,53.35;653.85,53.35" calcMode="discrete" fill="freeze"/><g style="display:none;"><path fill="none" stroke="#633B28" stroke-width="3.95" stroke-linecap="round" stroke-linejoin="round" d="M199.75,227.3L197.05,241.7Q194.05,258.95 192.4,272.75 187.05,317.15 197.3,311.6 207.2,306.25 201.95,352.95 199.35,376.35 194.75,400.75"/><animate attributeName="display" fill="freeze" repeatCount="1" dur="2.8s" keyTimes="0;0.857;0.871;1" values="none;inline;none;none"/></g><g style="display:none;"><path fill="none" stroke="#633B28" stroke-width="3.95" stroke-linecap="round" stroke-linejoin="round" d="M197.8,241.5L199.75,227.3M197.8,241.5Q195.65,257.9 194.4,272 190.65,308.15 197.3,311 203.7,315 200,353.7 198.05,376.9 194.75,400.75"/><animate attributeName="display" fill="freeze" repeatCount="1" dur="2.8s" keyTimes="0;0.843;0.857;0.871;0.886;1" values="none;inline;none;inline;none;none"/></g><g style="display:none;"><path fill="none" stroke="#633B28" stroke-width="3.95" stroke-linecap="round" stroke-linejoin="round" d="M198.6,241.35L199.75,227.3M198.6,241.35Q197.3,256.9 196.45,271.3 194.3,299.2 197.35,310.45 200.2,323.75 198,354.4 196.7,377.4 194.75,400.75"/><animate attributeName="display" fill="freeze" repeatCount="1" dur="2.8s" keyTimes="0;0.829;0.843;0.886;0.9;1" values="none;inline;none;inline;none;none"/></g><g><path fill="none" stroke="#633B28" stroke-width="3.95" stroke-linecap="round" stroke-linejoin="round" d="M199.75,227.3L194.75,400.75"/><animate attributeName="display" fill="freeze" repeatCount="1" dur="2.8s" keyTimes="0;0.829;0.9;1" values="inline;none;inline;inline"/></g><g id="Symbol_24" transform="matrix(1 0 0 1 105.6 0)"><animateTransform attributeName="transform" additive="replace" type="translate" dur="2.8s" keyTimes="0;0.129;0.343;0.571;0.786;0.986;1" values="199.35,227.7;199.35,227.7;199.4,227.841;199.467,227.666;199.45,227.753;199.35,227.7;199.35,227.7" keySplines=".1 .1 .9 .9;0.398 0 0.614 1;0.398 0 0.614 1;0.398 0 0.614 1;0.398 0 0.614 1;.1 .1 .9 .9" calcMode="spline" fill="freeze"/><animateTransform attributeName="transform" additive="sum" type="rotate" dur="2.8s" keyTimes="0;0.129;0.343;0.571;0.786;0.986;1" values="0,0,0;0,0,0;-4.937,0,0;3.927,0,0;-3.698,0,0;0,0,0;0,0,0" keySplines=".1 .1 .9 .9;0.398 0 0.614 1;0.398 0 0.614 1;0.398 0 0.614 1;0.398 0 0.614 1;.1 .1 .9 .9" calcMode="spline" fill="freeze"/><animateTransform attributeName="transform" additive="sum" type="translate" dur="2.8s" keyTimes="0;0.129;0.343;0.571;0.786;0.986;1" values="-93.75,-227.7;-93.75,-227.7;-93.8,-227.9;-93.85,-227.55;-93.8,-227.8;-93.75,-227.7;-93.75,-227.7" keySplines=".1 .1 .9 .9;0.398 0 0.614 1;0.398 0 0.614 1;0.398 0 0.614 1;0.398 0 0.614 1;.1 .1 .9 .9" calcMode="spline" fill="freeze"/><path fill="#D34646" stroke="#721C1C" stroke-width="4" stroke-linecap="round" stroke-linejoin="round" d="M89.4,224.75Q87.25,223.9 85.65,224.1 84.55,224.25 82.35,225.5 80.05,226.85 78.9,227.05 76.5,227.45 75.75,227.7 74.05,228.25 73.3,229.4 72.1,231.2 73.2,234.45 74.85,239.35 78.4,242.9 81.4,245.95 86.05,248.2 89.45,249.9 94.85,251.6 98.05,252.65 99.85,252.5 101.2,252.4 102.35,251.8 103.55,251.1 104.05,249.95 104.55,248.9 104.35,247.4 104.25,246.5 103.7,244.8 101.75,237.25 100.4,234.1 98.05,228.8 93.05,226.5 90.6,225.25 89.4,224.75"/><use xlink:href="#flash0.ai_Layer_7_.__3CPath.__3E_7" transform="matrix(1 0 0 1 -2 -2)" opacity="0.86"/><path fill="none" stroke="#721C1C" stroke-width="4" stroke-linecap="round" stroke-linejoin="round" d="M217.05,34.3Q210.15,22.2 198.6,14.2 186.2,5.6 173.15,5.25 156.75,4.8 141.55,12.35 133.3,16.4 127.4,20.85 118.65,27.5 117.7,33.45 110.9,21.8 103.75,14.55 94.55,5.15 84,2.15 75.65,-0.25 66.25,0.05 57.2,0.35 48.65,3.05 31.9,8.45 19.65,22.3 7.9,35.6 3.3,53.2 -0.85,69.3 0.25,91.15 1.7,120.55 11.2,142.15 17.1,155.5 27.95,169.75 35.3,179.45 49.1,194.5 56.5,202.6 61.2,207.15 68.15,213.8 74.65,218.25 81.9,223.2 89.1,225.9 97.75,229.2 105.05,228.75 122.8,227.65 142.7,215.95 157.8,207.05 174.75,191.55 180.4,186.4 185.1,181.25 208.6,155.95 218.55,125.35 228.2,95.85 227,71.15 225.95,49.9 217.05,34.3"/><g id="flash0.ai_Layer_7_.__3CPath.__3E_28" transform="matrix(1 0 0 1 27.1 10.3)" opacity="0.51"><path fill="#FFF" d="M26.75,16.55Q30.15,14.35 31.6,13.05 34.15,10.9 35.25,8.5 38.7,1.2 32.85,0.15 28.5,-0.6 22.1,1.8 10.4,6.25 3,16.1 0.4,19.5 0.05,22.3 -0.2,24.1 0.5,25.75 1.2,27.45 2.7,28.25 4.55,29.25 7.1,28.45 8.9,27.9 11.4,26.3L26.75,16.55"/></g><g id="flash0.ai_Layer_7_.__3CPath.__3E_29" transform="matrix(1 0 0 1 12.6 41.05)" opacity="0.51"><path fill="#FFF" d="M0.75,15.6L1,16.05Q3.3,19.55 6.95,17.35 9.7,15.65 11.75,12.05 14.05,7.9 13.1,4.35 11.95,0.1 9.2,0 6.85,-0.1 4.2,2.8 1.65,5.6 0.55,9.2 -0.65,13.15 0.75,15.6"/></g><use xlink:href="#flash0.ai_Layer_7_.__3CPath.__3E_10" transform="matrix(1 0 0 1 2.2 104.05)" opacity="0.38"/><use xlink:href="#flash0.ai_Layer_7_.__3CPath.__3E_11" transform="matrix(1 0 0 1 80.65 224.45)" opacity="0.38"/><path fill="#E8E8E8" d="M142.55,56.1Q136.45,55.45 132.4,58.25 128.55,60.85 128.1,65.2 127.65,69.5 129.55,75.65 135.7,97.9 133.8,115.5 132.7,126.15 129,132.6 123.15,142.75 111.55,141.5 99.8,140.25 96.05,128.65 93.65,121.1 94.8,110.4 96.05,98.55 101.4,84.65 104.4,77.2 104.55,76.7 106.2,72.15 106.55,68.65 107.3,61.95 104.2,56.15 100.3,48.8 91.9,47.9 75.65,46.15 65.2,68.6 59.25,81.4 55.85,100.7 55.5,101.85 55.25,104.3 52.85,126.35 66.55,144.35 82.15,164.9 111.65,168.1 140.75,171.25 155.65,154.1 166.75,141.25 169.25,118.1 169.7,114.05 169.7,112.05 170.35,96.8 164.55,79.85 156.85,57.65 142.55,56.1"/><path fill="url(#linearGradient5)" d="M204.95,31.5Q197.3,21.15 183.8,16.9 170.85,12.8 157.55,15.75 145.2,18.5 133.9,26.75 123.6,34.3 115.35,45.55 111.8,34.2 103.45,25.3 95.1,16.35 84.05,12.1 73,7.85 60.8,8.9 48.6,10 38.45,16.05 28.7,21.85 21.55,31.8 14.75,41.15 11.35,52.75 5.35,73.05 9.75,99 14.15,124.6 27.2,147.65 40.25,170.7 59.95,187.6 69.15,195.55 77.5,199.7 90.05,205.9 105.25,206.25 119.6,206.6 133.75,201.7 155,194.45 172.6,178.2 189.35,162.7 200.45,141.4 211.35,120.4 214.9,97.4 218.55,73.7 213.7,52 210.85,39.35 204.95,31.5"/></g><g id="Symbol_8_l1" transform="matrix(1 0 0 1 0 362.05)"><g id="Symbol_27" transform="matrix(0.969 -0.246 0.246 0.969 -21.4 139.2)"><animateTransform attributeName="transform" additive="replace" type="translate" dur="2.8s" keyTimes="0;0.743;0.814;0.871;0.929;0.986;1" values="56.061,216.803;56.061,216.803;56.133,236.723;66.111,208.307;56.097,230.858;56.1,226.7;56.1,226.7" keySplines=".1 .1 .9 .9;0 0 1 1;.25 .5 .5 1;0.398 0 0.614 1;0.398 0 0.614 1;.1 .1 .9 .9" calcMode="spline" fill="freeze"/><animateTransform attributeName="transform" additive="sum" type="rotate" dur="2.8s" keyTimes="0;0.743;0.814;0.871;0.929;0.986;1" values="-14.262,0,0;-14.262,0,0;-43.708,0,0;9.735,0,0;-11.406,0,0;0,0,0;0,0,0" keySplines=".1 .1 .9 .9;0 0 1 1;.25 .5 .5 1;0.398 0 0.614 1;0.398 0 0.614 1;.1 .1 .9 .9" calcMode="spline" fill="freeze"/><animateTransform attributeName="transform" additive="sum" type="scale" dur="2.8s" keyTimes="0;0.743;0.814;0.871;0.929;0.986;1" values="0.999,0.999;0.999,0.999;0.998,0.998;0.999,0.999;0.999,0.999;1,1;1,1" keySplines=".1 .1 .9 .9;0 0 1 1;.25 .5 .5 1;0.398 0 0.614 1;0.398 0 0.614 1;.1 .1 .9 .9" calcMode="spline" fill="freeze"/><animateTransform attributeName="transform" additive="sum" type="translate" dur="2.8s" keyTimes="0;0.743;0.814;0.871;0.929;0.986;1" values="-55.9,-94.35;-55.9,-94.35;-56.05,-94.25;-56.15,-94.4;-55.95,-94.35;-56.1,-94.25;-56.1,-94.25" keySplines=".1 .1 .9 .9;0 0 1 1;.25 .5 .5 1;0.398 0 0.614 1;0.398 0 0.614 1;.1 .1 .9 .9" calcMode="spline" fill="freeze"/><path fill="#EFA043" d="M9.15,22.6Q8.25,28.1 10.5,37.15 13.1,47.35 19.05,67 24.1,84.65 28.95,114.55L58.7,110.55Q56.65,68.6 51.55,52.45 48.2,41.15 46.3,35.5 42.95,25.75 39.15,19.3 36.05,14.1 32.4,11.65 29.2,9.5 24.95,9.45 21.05,9.4 17.25,11.05 14,12.4 11.8,15.7 9.8,18.75 9.15,22.6"/><path fill="none" stroke="#4A1A12" stroke-width="4" stroke-linecap="round" stroke-linejoin="round" d="M9.15,22.6Q8.25,28.1 10.5,37.15 13.1,47.35 19.05,67 24.1,84.65 28.95,114.55M58.7,110.55Q56.65,68.6 51.55,52.45 48.2,41.15 46.3,35.5 42.95,25.75 39.15,19.3 36.05,14.1 32.4,11.65 29.2,9.5 24.95,9.45 21.05,9.4 17.25,11.05 14,12.4 11.8,15.7 9.8,18.75 9.15,22.6"/><path fill="#E16637" d="M32.35,30.55Q34.9,28.25 34.1,25.5 33.35,22.8 30.05,22.3 27.05,21.85 23.65,23.7 20.55,25.4 18.75,28.05 17.85,29.45 17.6,30.85 17.35,32.5 18.2,33.6 19.25,34.95 21.4,34.95 22.5,34.95 24.95,34.2 30.15,32.55 32.35,30.55"/><g id="Symbol_32" transform="matrix(1 0 0 1 26.8 0)"><path fill="#EFA043" d="M8.8,1.95Q6.15,1.9 4.25,3.45 2.8,4.6 1.75,6.75 0.25,10.05 0.45,13.25L8.8,18.35Q11.25,17.95 13.25,16.35 15.25,14.7 16,12.35 16.8,10 16.05,7.5 15.35,5 13.4,3.5 11.45,1.95 8.8,1.95"/><path fill="#4A1A12" d="M14.05,1.5Q11.4,-0.25 8,0.05 6.45,0.2 5,0.95 3.5,1.7 2.55,2.85 0.8,4.85 0.2,8 -0.3,11 0.45,13.25 1.05,10.5 2.05,8.6 3.3,6.3 4.75,5.1 6.2,3.9 8.3,3.85 10.3,3.8 11.85,4.85 13.35,5.85 14.15,7.75 14.9,9.75 14.55,11.7 14.2,13.75 12.7,15.5 11.1,17.35 8.8,18.35 11.5,18.6 13.95,17 16.55,15.35 17.6,12.55 18.65,9.7 17.75,6.55 16.8,3.35 14.05,1.5"/></g><g id="Symbol_31" transform="matrix(1 0 0 1 3.95 1.2)"><path fill="#EFA043" d="M10.8,1.9Q8.25,1.8 6.3,3.15 4.05,4.7 2.7,7.95 0.85,12.5 2.3,15.65 3.1,17.5 5.05,18.4 7.1,19.3 8.8,18.4L17.3,12.05Q18.2,9.85 17.6,7.45 17,5 15.15,3.5 13.3,2 10.8,1.9"/><path fill="#4A1A12" d="M15.4,1.75Q12.85,-0.2 9.45,0.05 7.85,0.15 6.35,0.8 4.95,1.5 3.75,2.7 1.9,4.6 0.75,7.7 -0.3,10.85 0.15,13.55 0.4,15.15 1.2,16.4 1.95,17.7 3.4,18.55 4.9,19.35 6.25,19.3 7.75,19.4 8.8,18.4 6.35,18.95 4.6,16.95 3.25,15.55 3.25,13.25 3.3,11.3 4.3,9.1 5.35,6.7 6.6,5.5 7.25,4.8 8.1,4.4 8.85,3.95 9.85,3.8 11.85,3.5 13.7,4.35 15.55,5.25 16.55,7.35 17.65,9.55 17.3,12.05 18.95,9.85 18.45,6.8 17.9,3.6 15.4,1.75"/></g><g id="Symbol_30" transform="matrix(1 0 0 1 0 23.45)"><path fill="#EFA043" d="M12,13.9L11.55,1.85Q10.35,0.3 7.7,1.1 5.95,1.6 4.55,2.9 3.2,4.15 2.5,5.9 1.85,7.6 2.05,9.5 2.25,11.35 3.2,12.9 4.8,15.5 7.4,15.95 8.8,16.15 10.05,15.6 11.4,15.05 12,13.9"/><path fill="#4A1A12" d="M11.55,1.85Q11.25,0.95 10.1,0.4 9.25,0 7.95,0 5.8,0.15 3.9,1.4 2.05,2.6 0.95,4.75 -0.1,6.75 0,9.2 0.1,11.5 1.35,13.5 2.65,15.6 4.75,16.6 7.05,17.7 9.25,16.85 10.3,16.45 11.1,15.7 11.85,14.85 12,13.9 10.65,15.05 8.9,14.95 7.5,14.8 6.3,13.85 4.15,12.1 4,9 3.85,6.1 5.9,3.8 6.9,2.65 8.35,1.95 10.2,1.1 11.55,1.85"/></g><g id="flash0.ai_Layer_7_.__3CPath.__3E_33" transform="matrix(1 0 0 1 7.3 8.4)" opacity="0.3"><path fill="#7A2C1E" d="M27.4,11.8Q31.05,8.9 31.25,5.45 31.35,3.45 30.15,1.85 28.9,0.1 27.05,0 24.65,-0.15 22.85,2.35 21.5,4.3 20.65,7.45 17.05,6.75 13.8,8.6 13.55,6.4 12.15,4.65 10.75,2.85 8.7,2.25 6.6,1.65 4.5,2.65 2.35,3.65 1.7,5.65 1,7.75 2.3,9.75 3.65,11.8 5.75,11.85 4.35,15.6 4.5,19.75 4.15,19.15 3.35,19.1 2.65,19 2,19.4 1,19.95 0.45,21.65 -0.05,23.15 0.05,24.65 0.15,26.3 0.95,27.5 1.9,28.75 3.5,29.05 5.2,29.4 6.3,28.35 19.35,58.45 24.7,106.55L48.75,103.25Q44.8,77.6 44,70.85 42.55,58.95 40.6,50.55 35.45,28.8 27.4,11.8"/></g></g><g id="Symbol_26" transform="matrix(1 0 0 1 96.55 0)"><path fill="#EFA043" stroke="#4A1A12" stroke-width="4" stroke-linecap="round" stroke-linejoin="round" d="M116.4,24.5Q115.8,23.75 113.3,21.1 111.35,19 110.3,17.6 108.5,15.2 107.3,14.1 105.55,12.5 103.4,11.75 101.55,11.05 99.65,11.2 96.1,11.6 94.1,16.65 93.2,18.9 92.05,24.85 90.1,34.4 93.3,40.4 94.35,42.35 96.5,44.7 97.75,46.05 100.3,48.65 108.1,57.3 111.9,72.05 113.038,76.646 114.025,82.7 117.35,94.7 115.25,106.6 114.95,108.25 114.4,109.85 111.5,117.9 117.75,121.8 119.7,122.95 122.25,122.25 134.8,118.55 139.2,107.3 141.35,101.8 141.65,95.9 141.95,89.35 141.25,82.7 140.888,79.797 140.35,76.6 136.9,56.6 127.65,40.35 122.7,31.6 116.4,24.5"/><path fill="#EFA043" d="M88.9,49.3Q94.95,43.7 97.8,35.55 100.65,27.45 99.4,19.25 98.75,15.1 98.25,13.8 97.25,11.15 94.85,10.1 90.45,8.25 84.75,9.6 80.4,10.55 74.8,13.55 45.85,28.95 25.85,56.3 5.9,83.65 0,115.95 3.591,160.619 34.55,106.95 35.5,96.4 41.55,87.7 45.5,82.15 54,75.05 65.75,65.25 78.4,56.95 82.85,54.05 83.85,53.35 86.85,51.2 88.9,49.3"/><path fill="none" stroke="#4A1A12" stroke-width="4" stroke-linecap="round" stroke-linejoin="round" d="M97.8,35.55Q94.95,43.7 88.9,49.3 86.85,51.2 83.85,53.35 82.85,54.05 78.4,56.95 65.75,65.25 54,75.05 45.5,82.15 41.55,87.7 35.5,96.4 34.55,106.95M97.8,35.55Q100.65,27.45 99.4,19.25 98.75,15.1 98.25,13.8 97.25,11.15 94.85,10.1 90.45,8.25 84.75,9.6 80.4,10.55 74.8,13.55 45.85,28.95 25.85,56.3 11.6,75.9 4.85,95.1 -4.7,122.45 6,138.7"/><path fill="#EFA043" d="M86,13.2L95.6,14.6Q97.6,14.4 99.15,12.8 100.6,11.2 100.85,9.15 101.3,4.7 97.45,2.8 93.7,0.95 89.95,3.05 87.35,4.5 86.2,7.45 85.05,10.4 86,13.2"/><path fill="#4A1A12" d="M100.15,13.15Q101.1,12.25 101.7,11.1 102.25,10.1 102.45,8.45 102.7,5.35 100.9,3.15 99.1,0.9 96.1,0.25 93.35,-0.35 90.7,0.65L89.5,1.2Q89.15,1.35 88.35,1.95 87.25,2.85 86.5,3.85 84.95,6.1 84.8,8.6 84.7,9.95 85,11.05 85.4,12.35 86,13.2 85.8,8.75 88.9,5.9 90.2,4.7 91.95,4.25 93.6,3.8 95.25,4.15 98.95,5 99.3,8.45 99.6,10.1 98.65,11.9 97.65,13.7 95.6,14.6 97.9,15.05 100.15,13.15"/><path fill="#EFA043" d="M91.85,33.2Q90.95,35.6 91.55,37.65 92.15,39.55 94.45,40.45 96.2,41.15 98.6,41.2 99.85,41.2 100.45,41.05 101.5,40.7 101.85,39.9L101.95,28.8Q100.2,27.9 98.15,28.15 96.1,28.35 94.5,29.55 92.75,30.9 91.85,33.2"/><path fill="#4A1A12" d="M101.95,28.8Q100.55,27.4 98.35,27.15 96.15,26.9 94.15,27.9 92.25,28.8 90.9,30.85 89.65,32.7 89.35,35.05 89.15,38 90.55,39.8 91.95,41.65 94.65,42.15 96.55,42.55 98.7,42.15 100.05,41.95 100.65,41.55 101.85,40.9 101.85,39.9 101.25,40.5 100.35,40.5 99.9,40.5 98.7,40.2 96.9,39.8 95.55,39.15 94,38.4 93.65,37.6 93.2,36.8 93.35,35.45 93.7,32.4 95.85,30.55 98.4,28.35 101.95,28.8"/><path fill="#EFA043" d="M102.85,26.55Q104.15,25.6 104.7,24.75 105.65,23.45 105.15,21.8 104.75,20.45 103.5,19.2 101.75,17.55 99.3,17.1 96.85,16.6 94.65,17.5L95.2,25.05Q95.7,26.4 96.6,26.9 97.1,27.2 98.85,27.6 99.95,27.8 100.55,27.75 101.45,27.6 102.85,26.55"/><path fill="#4A1A12" d="M102.55,21Q103.35,22.1 103.35,22.9 103.35,23.2 103.2,23.5 103,23.9 102.5,24.4 101.5,25.5 100.45,26.15 100.3,26.35 99.5,26.35L97.85,26.35Q97,26.35 96.45,26.1 96,25.9 95.2,25.05 95.2,26.15 95.7,26.9 96.1,27.6 97.35,28.25L99,28.95Q100.3,29.4 101.45,29.15 102.4,28.9 103.45,28.3 104.15,27.9 105.05,27.2 106.15,26.2 106.6,25.5 107.35,24.15 107.35,22.85 107.2,20.5 105.45,18.55 104,17 101.95,16.3 100,15.65 98.05,15.95 96,16.3 94.65,17.5 98.1,17.45 100.65,19.15 101.8,19.95 102.55,21"/><g id="flash0.ai_Layer_7_.__3CPath.__3E_32" transform="matrix(1 0 0 1 18.65 7.05)" opacity="0.3"><path fill="#7A2C1E" d="M112.9,47.6Q108.25,35.7 99.75,25.9 91.25,16.1 80.15,9.75 78.9,9.05 78.55,8.4 78.15,7.65 78.35,6.35 78.75,4.25 78.75,4.15 78.85,2.55 77.5,1.25 76.2,0.05 74.5,0 72.9,0 71.45,1.05 70.05,2.1 69.4,3.65 69.15,4.25 68.6,7.05 68.15,9.1 67.3,10.1 66.5,11 64.95,11.6 64.25,11.85 62.15,12.35 49.8,15.3 36.3,25.5 25.3,33.8 15.1,45.65 1.15,61.9 0,75.75 -5.358,135.223 59,118.25 123.367,101.286 124.325,100.925 124.533,102.274 124.7,103.65 128.35,96.35 126.6,87.8 125.75,83.65 121.15,72.35 119.45,68.2 117,60 114.45,51.5 112.9,47.6"/></g></g><g id="Symbol_25" transform="matrix(1 0 0 1 217.6 68.65)"><animateTransform attributeName="transform" additive="replace" type="translate" dur="2.8s" keyTimes="0;0.814;0.871;0.914;0.957;0.986;1" values="227.8,76.55;227.8,76.55;228.802,67.503;227.79,76.593;227.845,76.574;227.8,76.55;227.8,76.55" keySplines=".1 .1 .9 .9;0.398 0 0.614 1;0.398 0 0.614 1;0.398 0 0.614 1;0.398 0 0.614 1;.1 .1 .9 .9" calcMode="spline" fill="freeze"/><animateTransform attributeName="transform" additive="sum" type="rotate" dur="2.8s" keyTimes="0;0.814;0.871;0.914;0.957;0.986;1" values="0,0,0;0,0,0;-32.491,0,0;8.459,0,0;-9.495,0,0;0,0,0;0,0,0" keySplines=".1 .1 .9 .9;0.398 0 0.614 1;0.398 0 0.614 1;0.398 0 0.614 1;0.398 0 0.614 1;.1 .1 .9 .9" calcMode="spline" fill="freeze"/><animateTransform attributeName="transform" additive="sum" type="scale" dur="2.8s" keyTimes="0;0.814;0.871;0.914;0.957;0.986;1" values="1,1;1,1;0.998,0.998;1,1;0.999,0.999;1,1;1,1" keySplines=".1 .1 .9 .9;0.398 0 0.614 1;0.398 0 0.614 1;0.398 0 0.614 1;0.398 0 0.614 1;.1 .1 .9 .9" calcMode="spline" fill="freeze"/><animateTransform attributeName="transform" additive="sum" type="translate" dur="2.8s" keyTimes="0;0.814;0.871;0.914;0.957;0.986;1" values="-10.2,-7.9;-10.2,-7.9;-10.2,-7.95;-10.25,-7.95;-10.3,-7.95;-10.2,-7.9;-10.2,-7.9" keySplines=".1 .1 .9 .9;0.398 0 0.614 1;0.398 0 0.614 1;0.398 0 0.614 1;0.398 0 0.614 1;.1 .1 .9 .9" calcMode="spline" fill="freeze"/><path fill="#EFA043" stroke="#4A1A12" stroke-width="4" stroke-linecap="round" stroke-linejoin="round" d="M15.25,47.8Q19.6,46.85 22.5,42.6 25.2,38.7 25.45,33.8 25.65,29.6 24.15,24.7 23.1,21.35 20.65,16 18.85,12.05 17.4,9.65 15.4,6.3 13.05,4.15 10.35,1.6 6.9,0.55 3.25,-0.55 0,0.55 -15.226,54.631 15.25,47.8"/></g><g id="Symbol_16_l1" transform="matrix(1 0 0 1 43 42.7)"><animateTransform attributeName="transform" additive="replace" type="translate" dur="2.8s" keyTimes="0;0.814;0.857;0.9;0.943;0.986;1" values="181.1,52.85;181.1,52.85;181.236,42.964;181.194,52.936;181.267,53.006;181.1,52.85;181.1,52.85" keySplines=".1 .1 .9 .9;.25 .5 .5 1;0.398 0 0.614 1;0.398 0 0.614 1;0.398 0 0.614 1;.1 .1 .9 .9" calcMode="spline" fill="freeze"/><animateTransform attributeName="transform" additive="sum" type="rotate" dur="2.8s" keyTimes="0;0.814;0.857;0.9;0.943;0.986;1" values="0,0,0;0,0,0;8.217,0,0;-4.482,0,0;1.484,0,0;0,0,0;0,0,0" keySplines=".1 .1 .9 .9;.25 .5 .5 1;0.398 0 0.614 1;0.398 0 0.614 1;0.398 0 0.614 1;.1 .1 .9 .9" calcMode="spline" fill="freeze"/><animateTransform attributeName="transform" additive="sum" type="translate" dur="2.8s" keyTimes="0;0.814;0.857;0.9;0.943;0.986;1" values="-138.1,-10.15;-138.1,-10.15;-138.25,-10.25;-138.2,-10.3;-138.3,-10.35;-138.1,-10.15;-138.1,-10.15" keySplines=".1 .1 .9 .9;.25 .5 .5 1;0.398 0 0.614 1;0.398 0 0.614 1;0.398 0 0.614 1;.1 .1 .9 .9" calcMode="spline" fill="freeze"/><g id="Symbol_29" transform="matrix(1 0 0 1 0 2.1)"><path fill="#EFA043" d="M2.4,181.9L2.75,181.9Q1.609,177.469 0.95,172.925 1.481,177.394 2.4,181.9"/><path fill="#EFEFEF" d="M0.45,150.85Q0.321,152.068 0.25,153.3 0.05,155.9 0,158.5 -0.1,165.2 0.8,171.65L0.95,172.925Q1.609,177.469 2.75,181.9 2.8,182.2 2.9,182.5 3.8,185.45 4.85,188.35 2.9,182.3 1.75,176.1 -0.537,163.714 0.45,150.85"/><path fill="#EFEFEF" d="M124.25,96.05Q119,88.55 112.2,83.5 93.6,69.7 66.5,74.15 41.25,78.3 23.7,94.8 16.5,101.6 10.9,113.25 6.35,122.7 3.25,134.55 1.7,140.4 0.9,146.3L0.85,146.75Q0.769,147.447 0.7,148.15 0.688,148.288 0.675,148.425L0.45,150.85Q-0.537,163.714 1.75,176.1 2.9,182.3 4.85,188.35 12.4,209.4 27.05,223.45 43.35,239.1 62.95,241 83.55,243 101.4,228.95 104.75,226.3 107.9,223.2 104.25,225.45 100.4,227.7 104.25,225.45 107.9,223.2 123.2,207.9 133.35,181 133.9,179.5 134.4,177.9 136.3,171.65 137.05,163.8 137.6,157.75 137.65,146 137.65,126.25 132.3,111.55 129.2,103.05 124.25,96.05"/><path fill="#EFA043" d="M166.6,168.05Q168.45,165.8 170.2,163.2 172.1,160.35 174.05,156.85 172.7,159 171.25,161 171.15,161.15 171.05,161.3 169,164.55 166.6,168.05"/><path fill="#AB4925" d="M184.85,133.075Q180.755,146.221 174.05,156.85 172.7,159 171.25,161 171.15,161.15 171.05,161.3 176.4,152.75 179.45,146.05 182.388,139.539 184.85,133.075"/><path fill="#EFA043" d="M184.925,132.825Q184.9,132.866 184.9,132.9 184.873,132.988 184.85,133.075 184.898,132.938 184.95,132.8L184.925,132.825"/><path fill="#AB4925" d="M177.05,133.6Q173.2,134.05 169.55,135.75 162.65,139 159.95,145.6 158.4,149.4 158.75,152.1 159,153.85 160.2,155.8 161.6,158.15 163.95,159.8 166.25,161.4 168.95,161.95 169.8,162.15 170.3,161.9 170.6,161.8 171.05,161.3 176.4,152.75 179.45,146.05 182.388,139.539 184.85,133.075 184.873,132.988 184.9,132.9 184.9,132.866 184.925,132.825L184.95,132.8Q184.963,132.742 184.975,132.675 185.116,132.106 185.3,131.575 184.921,132.604 181.5,133.15 180.2,133.35 177.05,133.6"/><path fill="#AB4925" d="M191.25,112.4Q192.4,108.45 193.1,105.6 195.35,96.4 195.1,89.4 194.05,100.8 191.25,112.4"/><path fill="#AB4925" d="M195.1,89.4Q195.1,89.3 195.1,89.25 195.1,88.6 195.05,88 182.55,97.85 180.3,106 179,110.8 181.2,115.65 183.45,120.5 187.9,122.6 189.869,116.889 191.2,112.525 191.229,112.468 191.25,112.4 194.05,100.8 195.1,89.4"/><path fill="#EFA043" d="M173.75,14.95Q168.55,9.45 163.5,6.5 158.15,3.35 151,1.75 136.25,-1.6 122.55,1.5 111.25,4.05 100.65,10.85 90.85,17.15 82.5,26.5 78.2,31.35 71.4,40.7 63.9,50.95 60.55,55 55.25,61.45 38,78.4 23.5,92.7 16.7,102.7 5.35,119.55 1.7,140.75 1.2,143.5 0.9,146.3 1.7,140.4 3.25,134.55 6.35,122.7 10.9,113.25 16.5,101.6 23.7,94.8 41.25,78.3 66.5,74.15 93.6,69.7 112.2,83.5 119,88.55 124.25,96.05 129.2,103.05 132.3,111.55 137.65,126.25 137.65,146 137.6,157.75 137.05,163.8 136.3,171.65 134.4,177.9 133.9,179.5 133.35,181 123.2,207.9 107.9,223.2 141.8,202.1 158.55,179.4 162.95,173.4 166.6,168.05 169,164.55 171.05,161.3 170.6,161.8 170.3,161.9 169.8,162.15 168.95,161.95 166.25,161.4 163.95,159.8 161.6,158.15 160.2,155.8 159,153.85 158.75,152.1 158.4,149.4 159.95,145.6 162.65,139 169.55,135.75 173.2,134.05 177.05,133.6 180.2,133.35 181.5,133.15 184.921,132.604 185.3,131.575 185.116,132.106 184.975,132.675 184.963,132.742 184.95,132.8 185.012,132.598 185.075,132.4L185.1,132.325Q185.24,131.933 185.4,131.55L191.1,113.05Q191.139,112.778 191.2,112.525 189.869,116.889 187.9,122.6 183.45,120.5 181.2,115.65 179,110.8 180.3,106 182.55,97.85 195.05,88 195.1,88.6 195.1,89.25 195.125,88.925 195.175,88.6L195.7,79.05Q195.7,78.85 195.7,78.65 196.45,38.7 173.75,14.95"/><path fill="none" stroke="#4A1A12" stroke-width="4" stroke-linecap="round" stroke-linejoin="round" d="M151,1.75Q158.15,3.35 163.5,6.5M122.55,1.5Q136.25,-1.6 151,1.75M100.65,10.85Q111.25,4.05 122.55,1.5M82.5,26.5Q90.85,17.15 100.65,10.85M71.4,40.7Q78.2,31.35 82.5,26.5M60.55,55Q63.9,50.95 71.4,40.7M38,78.4Q55.25,61.45 60.55,55M16.7,102.7Q23.5,92.7 38,78.4M1.7,140.75Q5.35,119.55 16.7,102.7M0.9,146.3Q1.2,143.5 1.7,140.75M0.85,146.75L0.9,146.3M0.7,148.15Q0.769,147.447 0.85,146.75M0.675,148.425Q0.688,148.288 0.7,148.15M0.45,150.85L0.675,148.425M4.85,188.35Q11.95,210.6 29.65,230.55M158.55,179.4Q141.8,202.1 107.9,223.2M166.6,168.05Q162.95,173.4 158.55,179.4M184.95,132.8Q184.898,132.938 184.85,133.075M185.075,132.4Q185.012,132.598 184.95,132.8M185.1,132.325L185.075,132.4M185.4,131.55Q185.24,131.933 185.1,132.325M191.1,113.05L185.4,131.55M191.2,112.525Q191.139,112.778 191.1,113.05M191.25,112.4Q191.229,112.468 191.2,112.525M195.175,88.6Q195.127,88.993 195.1,89.4M195.7,79.05L195.175,88.6M195.7,78.65Q195.7,78.85 195.7,79.05M173.75,14.95Q196.45,38.7 195.7,78.65M163.5,6.5Q168.55,9.45 173.75,14.95"/><path fill="none" stroke="#4A1A12" stroke-width="4" stroke-linecap="round" stroke-linejoin="round" d="M4.85,188.35Q2.9,182.3 1.75,176.1 -0.537,163.714 0.45,150.85"/><path fill="none" stroke="#4A1A12" stroke-width="4" stroke-linecap="round" stroke-linejoin="round" d="M107.9,223.2Q104.25,225.45 100.4,227.7"/><path fill="none" stroke="#4A1A12" stroke-width="4" stroke-linecap="round" stroke-linejoin="round" d="M171.05,161.3Q169,164.55 166.6,168.05"/><path fill="none" stroke="#4A1A12" stroke-width="4" stroke-linecap="round" stroke-linejoin="round" d="M179.45,146.05Q176.4,152.75 171.05,161.3M184.85,133.075Q182.388,139.539 179.45,146.05"/><path fill="none" stroke="#4A1A12" stroke-width="4" stroke-linecap="round" stroke-linejoin="round" d="M195.1,89.4Q194.05,100.8 191.25,112.4"/></g><path fill="#F7F7D5" stroke="#4A1A12" stroke-width="4" stroke-linecap="round" stroke-linejoin="round" d="M141.15,35.3Q144.55,24.65 139.85,15.15 135.1,5.6 124.6,1.95 116.65,-0.75 108.35,0.25 99.75,1.3 93.3,6.1 86.6,11.15 83.85,19.3 81,27.7 83.75,35.35 85.9,41.35 91.15,45.8 96.2,50.05 102.65,51.7 114.2,54.65 125.35,50.6 137.75,46.1 141.15,35.3"/><path fill="#4A1A12" d="M134.05,57L133.25,54.05 130.9,55.95Q129.4,57.15 128.3,59.25 127.6,60.7 127,62.7 126.65,63.8 126.25,66.2 126,68.05 125.95,69.8 126.7,69 128.1,66.85L130.95,62.125Q131.088,63.274 131.2,64.6L131.5,68.15Q131.7,70.55 131.9,71.8 132.7,70.55 133.45,68.4 134.15,66.3 134.4,64.75 135.05,60.7 134.05,57"/><path fill="#F7F7D5" stroke="#4A1A12" stroke-width="4" stroke-linecap="round" stroke-linejoin="round" d="M155.2,6.95Q145.4,9.85 139.35,18 135.25,23.5 134.4,30.65 133.45,37.95 136.35,44 140.55,52.85 150.5,57.1 160.4,61.3 169.85,58.45 178.2,55.9 183.65,48.7 189,41.55 189.3,32.85 189.55,24.8 185.75,18.05 181.75,10.95 174.55,7.95 165.2,4 155.2,6.95"/><path fill="#E16637" stroke="#4A1A12" stroke-width="4" stroke-linecap="round" stroke-linejoin="round" d="M133.15,59.15Q137.05,59.4 139.7,58.3 140.85,57.85 141.8,57.1 144.05,55.4 144.45,52.5 144.95,49.45 142.9,47.55 140.9,45.65 135.95,44.55 128.3,42.85 124.15,44.8 121.15,46.25 120.6,49.15 120.1,52.05 122.4,54.45 124.35,56.5 127.35,57.8 130.15,58.95 133.15,59.15"/><path fill="#AB4925" d="M147.2,64.65Q147.2,64 146.7,63.5 146.25,63 145.55,63 144.9,63 144.4,63.5 143.95,63.95 143.95,64.65 143.95,65.35 144.4,65.8 144.9,66.25 145.55,66.25 146.25,66.25 146.7,65.8 147.2,65.3 147.2,64.65"/><path fill="#AB4925" d="M114,60.65Q114,59.95 113.55,59.5 113.05,59 112.4,59 111.75,59 111.25,59.5 110.75,60 110.75,60.65 110.75,61.3 111.25,61.8 111.7,62.25 112.4,62.25 113.1,62.25 113.55,61.8 114,61.35 114,60.65"/><path fill="#AB4925" d="M110.35,69Q110.35,68.35 109.85,67.85 109.4,67.35 108.7,67.35 108.05,67.35 107.55,67.85 107.1,68.3 107.1,69 107.1,69.7 107.55,70.15 108.05,70.6 108.7,70.6 109.4,70.6 109.85,70.15 110.35,69.65 110.35,69"/><path fill="#AB4925" d="M103.85,62.5Q103.85,61.85 103.35,61.35 102.9,60.85 102.2,60.85 101.55,60.85 101.05,61.35 100.6,61.8 100.6,62.5 100.6,63.2 101.05,63.65 101.55,64.1 102.2,64.1 102.9,64.1 103.35,63.65 103.85,63.15 103.85,62.5"/><path fill="#AB4925" d="M157.55,68.9Q157.55,68.25 157.05,67.75 156.6,67.25 155.95,67.25 155.3,67.25 154.8,67.75 154.3,68.25 154.3,68.9 154.3,69.55 154.8,70.05 155.25,70.5 155.95,70.5 156.6,70.5 157.05,70.05 157.55,69.55 157.55,68.9"/><path fill="#AB4925" d="M149.55,74.9Q149.55,74.25 149.05,73.75 148.6,73.25 147.95,73.25 147.3,73.25 146.8,73.75 146.3,74.25 146.3,74.9 146.3,75.55 146.8,76.05 147.25,76.5 147.95,76.5 148.6,76.5 149.05,76.05 149.55,75.55 149.55,74.9"/><g id="Symbol_28" transform="matrix(1 0 0 1 117.7 16.75)"><animateTransform attributeName="transform" additive="replace" type="translate" dur="2.8s" keyTimes="0;0.786;0.857;0.9;0.943;1" values="117.7,16.75;117.7,16.75;117.7,31.75;117.7,16.75;117.7,21.75;117.7,21.75" fill="freeze"/><path fill="#000" d="M41.25,7.25Q41.25,6.45 40.65,5.85 40.1,5.25 39.25,5.25 38.4,5.25 37.8,5.85 37.25,6.4 37.25,7.25 37.25,8.1 37.8,8.7 38.4,9.25 39.25,9.25 40.1,9.25 40.65,8.7 41.25,8.1 41.25,7.25"/><path fill="#000" d="M2,4Q2.85,4 3.4,3.45 4,2.85 4,2 4,1.2 3.4,0.6 2.85,0 2,0 1.15,0 0.55,0.6 0,1.15 0,2 0,2.85 0.55,3.45 1.15,4 2,4"/></g></g></g></g></g></g><g mask="url(#mask_)"><g id="Symbol_4_l1" transform="matrix(1 0 0 1 232.7 671.8)"><animateTransform attributeName="transform" additive="replace" type="translate" dur="2.8s" keyTimes="0;0.2;0.4;0.443;0.486;1" values="232.7,671.8;232.7,671.8;182.7,291.8;182.7,301.8;182.7,291.8;182.7,291.8" fill="freeze"/><g style="display:none;"><path fill="none" stroke="#633B28" stroke-width="4" stroke-linecap="round" stroke-linejoin="round" d="M115.6,210.2L113.7,226.1Q111.6,245.15 110.5,261.1 107.15,312.05 115.6,312 124.05,311.95 120.7,363.55 119,389.3 115.6,415.1"/><animate attributeName="display" fill="freeze" repeatCount="1" dur="2.8s" keyTimes="0;0.443;0.457;1" values="none;inline;none;none"/></g><g style="display:none;"><path fill="none" stroke="#633B28" stroke-width="4" stroke-linecap="round" stroke-linejoin="round" d="M114.75,226L115.6,210.2M114.75,226Q113.8,243.95 113.35,260.55 111.85,296.9 115.6,310.55 119.35,325.85 117.85,364.15 117.1,389.6 115.6,415.1"/><animate attributeName="display" fill="freeze" repeatCount="1" dur="2.8s" keyTimes="0;0.429;0.443;0.457;0.471;1" values="none;inline;none;inline;none;none"/></g><g style="display:none;"><path fill="none" stroke="#633B28" stroke-width="4" stroke-linecap="round" stroke-linejoin="round" d="M115.4,225.9L115.6,210.2M115.4,225.9Q115.15,243.25 115.05,260.2 114.65,287.8 115.6,309.7 116.55,334.2 116.15,364.5 116,389.8 115.6,415.1"/><animate attributeName="display" fill="freeze" repeatCount="1" dur="2.8s" keyTimes="0;0.414;0.429;0.471;0.486;1" values="none;inline;none;inline;none;none"/></g><g><path fill="none" stroke="#633B28" stroke-width="4" stroke-linecap="round" stroke-linejoin="round" d="M115.6,210.2L115.6,415.1"/><animate attributeName="display" fill="freeze" repeatCount="1" dur="2.8s" keyTimes="0;0.414;0.486;1" values="inline;none;inline;inline"/></g><g id="Symbol_23" transform="matrix(1 0 0 1 0 0)"><animateTransform attributeName="transform" additive="replace" type="translate" dur="2.8s" keyTimes="0;0.2;0.443;0.686;0.943;1" values="110.1,210.65;110.1,210.65;110.163,210.634;110.146,210.653;110.1,210.65;110.1,210.65" keySplines=".1 .1 .9 .9;0.398 0 0.614 1;0.398 0 0.614 1;0.398 0 0.614 1;.1 .1 .9 .9" calcMode="spline" fill="freeze"/><animateTransform attributeName="transform" additive="sum" type="rotate" dur="2.8s" keyTimes="0;0.2;0.443;0.686;0.943;1" values="0,0,0;0,0,0;3.212,0,0;-3.481,0,0;0,0,0;0,0,0" keySplines=".1 .1 .9 .9;0.398 0 0.614 1;0.398 0 0.614 1;0.398 0 0.614 1;.1 .1 .9 .9" calcMode="spline" fill="freeze"/><animateTransform attributeName="transform" additive="sum" type="translate" dur="2.8s" keyTimes="0;0.2;0.443;0.686;1" values="-110.1,-210.65;-110.1,-210.65;-110.2,-210.55;-110.1,-210.65;-110.1,-210.65" keySplines=".1 .1 .9 .9;0.398 0 0.614 1;0.398 0 0.614 1;0.398 0 0.614 1" calcMode="spline" fill="freeze"/><path fill="#8250BC" stroke="#4D2B63" stroke-width="3.8" stroke-linecap="round" stroke-linejoin="round" d="M119.8,211.65Q117.55,210.35 116.15,210.1 109.3,208.55 103.5,212 102.35,212.65 92.95,220.35 89.8,223 88.95,224.8 88.3,226.25 88.55,227.8 88.8,229.45 90,230.25 90.95,230.95 93.35,231.15 102.05,231.85 106.45,231.95 113.7,232.1 119.45,231.15 123.9,230.45 125.9,228.55 127.75,226.8 128.05,224 128.3,221.3 127.15,218.85 125.25,214.9 119.8,211.65"/><g id="flash0.ai_Layer_7_.__3CPath.__3E_22" transform="matrix(1 0 0 1 -1.95 -1.95)" opacity="0.86"><path fill="#8250BC" stroke="#721C1C" stroke-width="3.8" stroke-linecap="round" stroke-linejoin="round" d="M196.65,8.95Q183.8,1.65 170.8,1.95 154.3,2.4 139.6,10.15 131.5,14.35 126,18.75 117.6,25.35 117,30.9 109.5,20.45 102,14.1 92.25,5.85 81.6,3.65 73.15,1.9 63.75,2.65 54.7,3.35 46.35,6.3 29.9,12.15 18.45,25.55 7.45,38.5 3.85,55 0.6,70.1 2.9,90.25 5.95,117.4 16.65,136.8 23.25,148.85 34.9,161.45 42.75,170 57.35,183.25 65.4,190.55 70.15,194.35 77.5,200.2 84.15,203.9 91.65,208.1 99,210.3 107.8,212.9 115.1,212.1 132.75,210.15 151.95,198.35 166.65,189.3 182.65,174.15 186.75,170.3 192.4,164.1 214.5,139.3 222.7,110.7 230.7,83.1 228.15,60.15 225.9,40.6 216.2,26.6 208.6,15.75 196.65,8.95"/></g><path fill="none" stroke="#4D2B63" stroke-width="3.8" stroke-linecap="round" stroke-linejoin="round" d="M194.7,7Q181.85,-0.3 168.85,0 152.35,0.45 137.65,8.2 129.55,12.4 124.05,16.8 115.65,23.4 115.05,28.95 107.55,18.5 100.05,12.15 90.3,3.9 79.65,1.7 71.2,-0.05 61.8,0.7 52.75,1.4 44.4,4.35 27.95,10.2 16.5,23.6 5.5,36.55 1.9,53.05 -1.35,68.15 0.95,88.3 4,115.45 14.7,134.85 21.3,146.9 32.95,159.5 40.8,168.05 55.4,181.3 63.45,188.6 68.2,192.4 75.55,198.25 82.2,201.95 89.7,206.15 97.05,208.35 105.85,210.95 113.15,210.15 130.8,208.2 150,196.4 164.7,187.35 180.7,172.2 184.8,168.35 190.45,162.15 212.55,137.35 220.75,108.75 228.75,81.15 226.2,58.2 223.95,38.65 214.25,24.65 206.65,13.8 194.7,7"/><path fill="#4D2B63" d="M122.6,48.35Q121.45,36.5 115.2,25.8L112.05,28Q119.65,37.05 122.6,48.35"/><g id="flash0.ai_Layer_7_.__3CPath.__3E_23" transform="matrix(1 0 0 1 3.6 96.45)" opacity="0.38"><path fill="#5B2F6B" d="M212.1,15.75Q207.6,24.95 203.3,30.8 193.45,43.95 179.25,57.2 164.25,71.15 150,78.85 132.4,88.35 115.25,88.95 98.3,89.55 80,81.4 65.55,74.95 48.95,62.3 37.6,53.7 29,45.25 10.4,26.75 0,3.65 0.95,17.2 7.4,31.1 13.2,43.6 23.1,55.65 31.35,65.75 43.6,76.85 50.95,83.5 66.35,96.15 73.95,102.45 78.1,105 105.55,122 140.75,104.2 167.35,90.7 190.8,62.65 211.9,37.45 219.5,0 214.65,10.5 212.1,15.75"/></g><path fill="url(#linearGradient4)" d="M180.65,10.2Q167.6,6.55 154.4,9.9 142.15,13.05 131.1,21.65 121.05,29.5 113.15,41 109.3,29.8 100.65,21.15 92,12.5 80.85,8.6 69.65,4.7 57.5,6.15 45.35,7.6 35.35,14 25.8,20.1 18.95,30.3 12.5,39.9 9.45,51.55 4.15,72.1 9.35,97.8 14.55,123.25 28.3,145.9 42.1,168.55 62.35,184.8 72.05,192.6 80.25,196.3 92.95,202.1 108.2,202 122.55,201.85 136.55,196.55 157.55,188.6 174.6,171.75 190.85,155.8 201.25,134.15 211.5,112.8 214.25,89.65 217.15,65.9 211.6,44.35 208.45,31.95 202.25,24.1 194.25,14 180.65,10.2"/><g id="flash0.ai_Layer_7_.__3CPath.__3E_24" transform="matrix(1 0 0 1 95.5 209.7)" opacity="0.38"><path fill="#5B2F6B" d="M5.9,11.7Q11.8,12.5 13.15,12.4 16.75,12.1 20.05,11.1 24.6,9.75 26,7.65 29.95,1.9 21.15,0.4 13.4,-0.95 8.7,1 7.05,1.7 5.25,3.5 2.2,6.45 0,10.2 -0.35,10.8 5.9,11.7"/></g><g id="flash0.ai_Layer_7_.__3CPath.__3E_25" transform="matrix(1 0 0 1 145.15 7.85)" opacity="0.51"><path fill="#FFF" d="M30.05,3.8Q27,1.1 22.85,0.35 17.75,-0.45 12.75,0.6 7.65,1.7 3.5,4.6 1.35,6.1 0.55,7.65 0,8.65 0.05,9.75 0.05,10.9 0.7,11.75 1.9,13.35 4.45,13.15 5.3,13.05 6.5,12.7 7.15,12.5 8.5,12.05 11.65,11.1 16.05,10.85L23.75,10.7Q27.25,10.7 29.05,9.7 33.8,7.1 30.05,3.8"/></g><g id="flash0.ai_Layer_7_.__3CPath.__3E_26" transform="matrix(1 0 0 1 128.45 21)" opacity="0.51"><path fill="#FFF" d="M2.1,2Q0.1,4.1 0,6.8 -0.1,8.65 0.95,9.55 2.05,10.5 4.1,9.8 7.2,8.75 9.45,6.65 12.45,3.75 10.3,1.25 9.45,0.3 7.75,0.05 4.45,-0.45 2.1,2"/></g><path fill="#E8E8E8" d="M125.9,53.15Q99.25,52.2 83.15,71.6 69.15,88.35 68.3,112.2 67.45,136.45 79.3,152.25 92.4,169.7 117.05,170.6 143.05,171.55 158.2,154.7 172,139.3 172.9,114.35 173.75,89.8 163.8,73.7 151.6,54.05 125.9,53.15 M110.6,94.25Q115.05,86.15 122.6,86.45 130.1,86.7 133.75,95.8 136.65,103.05 136.35,112.9 136,123.1 133.1,130.85 128.95,142 120.85,141.7 113.4,141.45 109.45,131.9 106,123.5 106.4,111.7 106.8,101.2 110.6,94.25"/></g></g></g><g mask="url(#mask_)"><g id="Symbol_6_l1" transform="matrix(1 0 0 1 507.8 676.7)"><animateTransform attributeName="transform" additive="replace" type="translate" dur="2.8s" keyTimes="0;0.343;0.543;0.586;0.629;1" values="507.8,676.7;507.8,676.7;537.8,256.7;537.8,266.7;537.8,256.7;537.8,256.7" fill="freeze"/><g style="display:none;"><path fill="none" stroke="#633B28" stroke-width="3.95" stroke-linecap="round" stroke-linejoin="round" d="M107.85,234.2L108.3,217.8M107.85,234.2Q107.35,252.6 107.1,269.8 106.3,303.45 109.05,321.6 110.35,340.3 109.65,370.15 109.2,395.05 108.3,420.1"/><animate attributeName="display" fill="freeze" repeatCount="1" dur="2.8s" keyTimes="0;0.6;0.614;1" values="none;inline;none;none"/></g><g style="display:none;"><path fill="none" stroke="#633B28" stroke-width="3.95" stroke-linecap="round" stroke-linejoin="round" d="M107.4,234.2L108.3,217.8M107.4,234.2Q106.45,253.3 105.95,270.05 104.35,313 109.8,322.05 112.45,334.85 111,369.9 110.1,394.9 108.3,420.1"/><animate attributeName="display" fill="freeze" repeatCount="1" dur="2.8s" keyTimes="0;0.586;0.6;1" values="none;inline;none;none"/></g><g style="display:none;"><path fill="none" stroke="#633B28" stroke-width="3.95" stroke-linecap="round" stroke-linejoin="round" d="M108.3,217.75L106.95,234.25Q105.5,254.05 104.75,270.3 102.35,322.6 108.3,321.15 115,319.55 112.35,369.65 111,394.7 108.3,420.1"/><animate attributeName="display" fill="freeze" repeatCount="1" dur="2.8s" keyTimes="0;0.571;0.586;1" values="none;inline;none;none"/></g><g style="display:none;"><path fill="none" stroke="#633B28" stroke-width="3.95" stroke-linecap="round" stroke-linejoin="round" d="M107.4,234.2L108.3,217.75M107.4,234.2Q106.45,253.3 105.95,270.05 104.35,313 109.8,322.05 112.45,334.85 111,369.9 110.1,394.9 108.3,420.1"/><animate attributeName="display" fill="freeze" repeatCount="1" dur="2.8s" keyTimes="0;0.557;0.571;1" values="none;inline;none;none"/></g><g style="display:none;"><path fill="none" stroke="#633B28" stroke-width="3.95" stroke-linecap="round" stroke-linejoin="round" d="M107.85,234.2L108.3,217.75M107.85,234.2Q107.35,252.6 107.1,269.8 106.3,303.45 109.05,321.6 110.35,340.3 109.65,370.15 109.2,395.05 108.3,420.1"/><animate attributeName="display" fill="freeze" repeatCount="1" dur="2.8s" keyTimes="0;0.543;0.557;1" values="none;inline;none;none"/></g><g><path fill="none" stroke="#633B28" stroke-width="3.95" stroke-linecap="round" stroke-linejoin="round" d="M108.3,217.75L108.3,321.15 108.3,420.1"/><animate attributeName="display" fill="freeze" repeatCount="1" dur="2.8s" keyTimes="0;0.543;0.614;1" values="inline;none;inline;inline"/></g><g id="Symbol_22" transform="matrix(0.998 -0.061 0.061 0.998 -13.15 7.2)"><animateTransform attributeName="transform" additive="replace" type="translate" dur="2.8s" keyTimes="0;0.214;0.4;0.586;0.771;0.943;1" values="111.486,220.054;111.486,220.054;111.515,219.892;111.511,219.982;111.568,219.929;111.5,219.95;111.5,219.95" keySplines=".1 .1 .9 .9;0.398 0 0.614 1;0.398 0 0.614 1;0.398 0 0.614 1;0.398 0 0.614 1;.1 .1 .9 .9" calcMode="spline" fill="freeze"/><animateTransform attributeName="transform" additive="sum" type="rotate" dur="2.8s" keyTimes="0;0.214;0.4;0.586;0.771;0.943;1" values="-3.481,0,0;-3.481,0,0;3.212,0,0;-2.704,0,0;1.733,0,0;0,0,0;0,0,0" keySplines=".1 .1 .9 .9;0.398 0 0.614 1;0.398 0 0.614 1;0.398 0 0.614 1;0.398 0 0.614 1;.1 .1 .9 .9" calcMode="spline" fill="freeze"/><animateTransform attributeName="transform" additive="sum" type="translate" dur="2.8s" keyTimes="0;0.214;0.4;0.586;0.771;0.943;1" values="-111.5,-220.05;-111.5,-220.05;-111.55,-219.85;-111.5,-219.95;-111.55,-219.9;-111.5,-219.95;-111.5,-219.95" keySplines=".1 .1 .9 .9;0.398 0 0.614 1;0.398 0 0.614 1;0.398 0 0.614 1;0.398 0 0.614 1;.1 .1 .9 .9" calcMode="spline" fill="freeze"/><path fill="#DB2C8C" stroke="#7C244C" stroke-width="3.85" stroke-linecap="round" stroke-linejoin="round" d="M129.6,225.3Q129,224.7 127.5,223.6 121.35,218.85 118.3,217.2 113.25,214.4 107.9,215.7 105.2,216.2 103.95,216.55 101.7,217.15 100.55,218.35 99.75,219.1 98.8,221.45 97.8,223.9 97,224.8 95.4,226.6 94.95,227.25 93.95,228.75 94.05,230.1 94.15,232.15 97.05,234.15 101.25,236.95 106.3,237.65 110.55,238.2 115.65,237.15 119.4,236.4 124.65,234.45 127.85,233.25 129.2,232.1 131.55,229.95 130.95,227.5 130.7,226.35 129.6,225.3"/><g id="flash0.ai_Layer_7_.__3CPath.__3E_17" transform="matrix(1 0 0 1 -1.95 -1.95)" opacity="0.86"><path fill="#DB2C8C" stroke="#721C1C" stroke-width="3.85" stroke-linecap="round" stroke-linejoin="round" d="M200.5,15.4Q188.15,7.25 175.05,6.9 158.65,6.55 143.45,13.65 135.1,17.55 129.3,21.75 120.55,28.05 119.65,33.7 112.8,22.6 105.65,15.75 96.45,6.8 85.95,3.95 77.6,1.7 68.2,2 59.1,2.25 50.6,4.85 33.8,9.95 21.55,23.1 9.85,35.75 5.25,52.45 1.1,67.7 2.2,88.45 3.65,116.35 13.15,136.8 19.05,149.5 29.9,163 37.3,172.3 51.05,186.5 58.55,194.3 63.15,198.5 70.1,204.85 76.6,209 83.8,213.7 91,216.3 99.65,219.4 107,219 138.2,217.1 176.65,183.7 181.9,179.2 187.05,173.95 210.65,149.6 220.5,120.9 225.15,107.4 227.2,95.55 229.6,82.05 228.9,69.45 227.9,49.4 219,34.5 212.1,23 200.5,15.4"/></g><path fill="none" stroke="#7C244C" stroke-width="4" stroke-linecap="round" stroke-linejoin="round" d="M141.5,11.7Q133.15,15.6 127.35,19.8 118.6,26.1 117.7,31.75 110.85,20.65 103.7,13.8 94.5,4.85 84,2 75.65,-0.25 66.25,0.05 57.15,0.3 48.65,2.9 31.85,8 19.6,21.15 7.9,33.8 3.3,50.5 -0.85,65.75 0.25,86.5 1.7,114.4 11.2,134.85 17.1,147.55 27.95,161.05 35.35,170.35 49.1,184.55 56.6,192.35 61.2,196.55 68.15,202.9 74.65,207.05 81.85,211.75 89.05,214.35 97.7,217.45 105.05,217.05 122.8,215.95 142.65,204.9 157.85,196.4 174.7,181.75 179.95,177.25 185.1,172 208.7,147.7 218.55,118.95 223.2,105.45 225.25,93.6 227.65,80.1 226.95,67.5 225.95,47.45 217.05,32.55 210.15,21.05 198.55,13.45 186.2,5.3 173.1,4.95 156.7,4.6 141.5,11.7"/><g id="flash0.ai_Layer_7_.__3CPath.__3E_18" transform="matrix(1 0 0 1 40.8 7.95)" opacity="0.51"><path fill="#FFF" d="M21.7,12.05Q24.75,11.45 26.25,10.95 28.7,10.1 30.2,8.65 34.8,4.35 30.85,1.95 27.95,0.1 22.6,0 12.75,-0.15 4.65,4.85 1.75,6.65 0.7,8.5 0,9.7 0,11.1 0.05,12.6 0.9,13.6 2.65,15.65 7.75,14.7L21.7,12.05"/></g><g id="flash0.ai_Layer_7_.__3CPath.__3E_19" transform="matrix(1 0 0 1 80.85 11.6)" opacity="0.51"><path fill="#FFF" d="M14,11.15L14.4,10.9Q17.5,8.8 15.5,5.6 13.95,3.15 10.7,1.4 7,-0.65 3.85,0.25 0.05,1.35 0,3.75 -0.05,5.9 2.55,8.2 5.1,10.45 8.3,11.4 11.85,12.45 14,11.15"/></g><g id="flash0.ai_Layer_7_.__3CPath.__3E_20" transform="matrix(1 0 0 1 2.2 98.7)" opacity="0.38"><path fill="#872570" d="M219.4,7.8Q213.95,18.3 211.1,23.5 206.05,32.7 201.4,38.4 190.8,51.4 175.75,64.2 159.95,77.65 145.25,84.8 127.15,93.65 110,93.35 93,93.05 75.25,83.75 61.15,76.4 45.35,62.6 34.25,52.9 26.5,44.1 9.1,24.35 0,0 0.15,13.95 5.75,28.5 10.8,41.55 19.95,54.45 27.6,65.2 39.2,77.2 45.85,84.15 60.7,98.15 68.15,105.05 71.95,107.8 98.3,126.65 134.55,110.25 161.9,97.85 187.05,70.35 209.6,45.75 219.4,7.8"/></g><g id="flash0.ai_Layer_7_.__3CPath.__3E_21" transform="matrix(1 0 0 1 97.7 214.6)" opacity="0.38"><path fill="#872570" d="M13.5,12.5Q19.3,11.75 23.2,8.45 23.8,7.95 23.9,7.5 24,6.9 23.2,6.1L19.55,2.2Q17.65,0.2 16.2,0 15.3,-0.1 13.5,0.5 3.3,4.15 2.95,4.3 -3.05,7.5 3.15,10.85 7.65,13.25 13.5,12.5"/></g><path fill="#7C244C" d="M119.45,30.8L115.85,32.6Q122.45,43.2 124.15,55.65 124.45,42.85 119.45,30.8"/><path fill="#E8E8E8" d="M170.35,73.4Q171.95,71.5 172.55,70.35 173.3,68.85 173.3,67.05 173.25,62.5 168.85,59.05 164.25,55.45 157.9,55.5 147.45,55.6 124.55,59.7 99.2,64.3 95.05,68.2 86.55,76.45 83.05,93.75 80.65,105.65 80.75,121.2 80.8,129.4 82.1,142.75 83.8,160.5 86.15,163.3 89.2,166.95 98.3,170.45 107.3,173.9 113.45,173.85 122.35,173.75 145,166.1 168.3,158.25 172.4,153.35 174.5,150.75 174.5,147.75 174.45,143.3 170.2,139.9 165.75,136.3 159.55,136.35 152.2,136.4 119.2,144.65 117.9,138.85 117.85,136.2 117.85,133.9 119.1,130.75 130.75,127.8 133.95,126.95 142.2,124.65 148.15,122.35 156.05,119.3 158.8,117.45 163.85,114.1 163.8,109.4 163.75,98.9 148.65,98.95 136.5,99 118.05,105.8 118.45,102.95 119.45,98.65 121,92.25 121.15,91.6 142.2,85.05 146.65,83.55 166.75,76.8 170.35,73.4"/><path fill="url(#linearGradient3)" d="M159.2,13.4Q146.85,16.15 135.55,24.4 125.25,31.95 117,43.2 113.45,31.85 105.1,22.95 96.75,14 85.7,9.75 74.65,5.5 62.45,6.55 50.25,7.65 40.1,13.7 30.35,19.5 23.2,29.45 16.4,38.8 13,50.4 7,70.7 11.4,96.65 15.8,122.25 28.85,145.3 41.9,168.35 61.6,185.25 70.8,193.2 79.15,197.35 91.7,203.55 106.9,203.9 121.25,204.25 135.4,199.35 156.65,192.1 174.25,175.85 191,160.35 202.1,139.05 213,118.05 216.55,95.05 220.2,71.35 215.35,49.65 212.5,37 206.6,29.15 198.95,18.8 185.45,14.55 172.5,10.45 159.2,13.4"/></g></g></g><g mask="url(#mask_)"><g id="Symbol_5_l1" transform="matrix(1 0 0 1 322.15 668.6)"><animateTransform attributeName="transform" additive="replace" type="translate" dur="2.8s" keyTimes="0;0.271;0.471;0.514;0.557;1" values="322.15,668.6;322.15,668.6;382.15,268.6;382.15,288.6;382.15,268.6;382.15,268.6" fill="freeze"/><g style="display:none;"><path fill="none" stroke="#633B28" stroke-width="3.7" stroke-linecap="round" stroke-linejoin="round" d="M93.65,229.05L95.3,244.8Q97.2,263.6 98.1,279.05 101.1,328.25 93.65,324.4 86.2,320.55 89.2,370.9 90.7,396.1 93.65,422.05"/><animate attributeName="display" fill="freeze" repeatCount="1" dur="2.8s" keyTimes="0;0.5;0.514;1" values="none;inline;none;none"/></g><g style="display:none;"><path fill="none" stroke="#633B28" stroke-width="3.7" stroke-linecap="round" stroke-linejoin="round" d="M94.75,244.65L93.65,229.05M94.75,244.65Q96,262.7 96.6,278.5 98.6,318.7 93.65,323.55 88.7,329.4 90.7,371.35 91.7,396.45 93.65,422.05"/><animate attributeName="display" fill="freeze" repeatCount="1" dur="2.8s" keyTimes="0;0.486;0.5;0.514;0.529;1" values="none;inline;none;inline;none;none"/></g><g style="display:none;"><path fill="none" stroke="#633B28" stroke-width="3.7" stroke-linecap="round" stroke-linejoin="round" d="M94.2,244.5L93.65,229.05M94.2,244.5Q94.85,261.75 95.15,277.9 96.15,309.15 93.65,322.7 91.15,338.2 92.15,371.8 92.65,396.8 93.65,422.05"/><animate attributeName="display" fill="freeze" repeatCount="1" dur="2.8s" keyTimes="0;0.471;0.486;0.529;0.543;1" values="none;inline;none;inline;none;none"/></g><g><path fill="none" stroke="#633B28" stroke-width="3.7" stroke-linecap="round" stroke-linejoin="round" d="M93.65,229.05L93.65,422.05"/><animate attributeName="display" fill="freeze" repeatCount="1" dur="2.8s" keyTimes="0;0.471;0.543;1" values="inline;none;inline;inline"/></g><g id="Symbol_21" transform="matrix(1 0 0 1 0 0)"><animateTransform attributeName="transform" additive="replace" type="translate" dur="2.8s" keyTimes="0;0.129;0.271;0.414;0.557;0.7;0.843;0.986;1" values="93.75,234.5;93.75,234.5;93.727,234.52;93.808,234.426;93.767,234.549;93.835,234.536;93.827,234.562;93.75,234.5;93.75,234.5" keySplines=".1 .1 .9 .9;0.398 0 0.614 1;0.398 0 0.614 1;0.398 0 0.614 1;0.398 0 0.614 1;0.398 0 0.614 1;0.398 0 0.614 1;.1 .1 .9 .9" calcMode="spline" fill="freeze"/><animateTransform attributeName="transform" additive="sum" type="rotate" dur="2.8s" keyTimes="0;0.129;0.271;0.414;0.557;0.7;0.843;0.986;1" values="0,0,0;0,0,0;-3.453,0,0;1.226,0,0;-2.493,0,0;0.707,0,0;-2.452,0,0;0,0,0;0,0,0" keySplines=".1 .1 .9 .9;0.398 0 0.614 1;0.398 0 0.614 1;0.398 0 0.614 1;0.398 0 0.614 1;0.398 0 0.614 1;0.398 0 0.614 1;.1 .1 .9 .9" calcMode="spline" fill="freeze"/><animateTransform attributeName="transform" additive="sum" type="translate" dur="2.8s" keyTimes="0;0.271;0.414;0.557;0.7;0.843;0.986;1" values="-93.75,-234.5;-93.75,-234.5;-93.85,-234.4;-93.75,-234.55;-93.85,-234.5;-93.8,-234.55;-93.75,-234.5;-93.75,-234.5" keySplines=".1 .1 .9 .9;0.398 0 0.614 1;0.398 0 0.614 1;0.398 0 0.614 1;0.398 0 0.614 1;0.398 0 0.614 1;.1 .1 .9 .9" calcMode="spline" fill="freeze"/><path fill="#4949AD" stroke="#23294C" stroke-width="3.95" stroke-linecap="round" stroke-linejoin="round" d="M86.55,231.45Q85.7,232.1 84.45,234.25 83.15,236.5 82.25,237.25 80.45,238.7 79.9,239.35 78.7,240.65 78.65,242.05 78.5,244.2 81.05,246.45 84.8,249.85 89.65,251.3 93.75,252.45 98.85,252.2 102.55,252 108.05,250.9 111.3,250.2 112.8,249.25 113.9,248.5 114.55,247.4 115.2,246.25 115.1,245 115,243.85 114.1,242.65 113.55,241.9 112.25,240.65 106.85,235.05 104.1,233 99.5,229.5 94.1,229.95 91.4,230.05 90.1,230.2 87.85,230.45 86.55,231.45"/><g id="flash0.ai_Layer_7_.__3CPath.__3E_12" transform="matrix(1 0 0 1 -2 -2)" opacity="0.86"><path fill="#4949AD" stroke="#721C1C" stroke-width="3.95" stroke-linecap="round" stroke-linejoin="round" d="M225.55,87.2Q226.4,66 219.05,49.65 213.35,36.95 202.75,27.95 191.4,18.3 178.65,16.8 162.75,14.85 147.15,21.05 138.65,24.4 132.6,28.25 123.45,34.1 122,39.95 116.35,27.7 110,19.85 101.8,9.7 91.8,5.75 83.85,2.6 74.65,2.1 65.7,1.55 57.15,3.5 40.3,7.35 27.1,20.1 14.5,32.3 8.45,49.4 2.9,65.2 2.15,86.95 0.95,116.55 8.4,138.7 13,152.5 22.35,167.7 28.7,178 40.85,194.2 47.45,203.05 51.6,207.9 57.8,215.15 63.75,220.15 70.4,225.75 77.2,229.1 85.35,233.15 92.55,233.35 123.3,234.15 163.9,202.5 169.9,197.85 174.95,193.15 200.25,169.9 212.55,140.5 224.55,112.1 225.55,87.2"/></g><path fill="none" stroke="#23294C" stroke-width="3.95" stroke-linecap="round" stroke-linejoin="round" d="M72.65,0.1Q63.7,-0.45 55.15,1.5 38.3,5.35 25.1,18.1 12.5,30.3 6.45,47.4 0.9,63.2 0.15,84.95 -1.05,114.55 6.4,136.7 11,150.5 20.35,165.7 26.7,176 38.85,192.2 45.45,201.05 49.6,205.9 55.8,213.15 61.75,218.15 68.4,223.75 75.2,227.1 83.35,231.15 90.55,231.35 108,231.8 128.45,221.95 144.1,214.4 161.9,200.5 167.9,195.85 172.95,191.15 198.25,167.9 210.55,138.5 222.55,110.1 223.55,85.2 224.4,64 217.05,47.65 211.35,34.95 200.75,25.95 189.4,16.3 176.65,14.8 160.75,12.85 145.15,19.05 136.65,22.4 130.6,26.25 121.45,32.1 120,37.95 114.35,25.7 108,17.85 99.8,7.7 89.8,3.75 81.85,0.6 72.65,0.1"/><path fill="#23294C" d="M120.75,34.8L117.1,36.4Q123.1,47.2 124.4,59.8 125.15,47.1 120.75,34.8"/><g id="flash0.ai_Layer_7_.__3CPath.__3E_13" transform="matrix(1 0 0 1 37.2 8)" opacity="0.51"><path fill="#FFF" d="M27.8,15.55Q31.5,14.45 33.45,13.5 36.4,12.1 38.15,10.05 43.35,3.95 38.05,1.4 34.05,-0.55 27.25,0.1 14.85,1.25 5.05,8.75 1.6,11.45 0.55,13.95 -0.15,15.65 0.05,17.4 0.3,19.3 1.5,20.4 3,21.85 5.65,21.8 7.6,21.75 10.4,20.85L27.8,15.55"/></g><g id="flash0.ai_Layer_7_.__3CPath.__3E_14" transform="matrix(1 0 0 1 18.35 28.25)" opacity="0.51"><path fill="#FFF" d="M0.15,12.95L0.3,13.45Q1.6,17.45 5.65,16.3 8.75,15.4 11.7,12.45 15.05,9 15.05,5.4 15.05,1 12.45,0.2 10.15,-0.5 6.85,1.55 3.65,3.6 1.65,6.75 -0.55,10.2 0.15,12.95"/></g><g id="flash0.ai_Layer_7_.__3CPath.__3E_15" transform="matrix(1 0 0 1 0.65 97.95)" opacity="0.38"><path fill="#2E2866" d="M214.05,27.75Q207.75,38.25 204.45,43.5 198.7,52.7 193.6,58.3 181.95,71.1 166.2,83.05 149.45,95.8 134.45,101.95 115.95,109.6 99.2,107.75 82.65,105.95 66.1,94.6 53.05,85.6 38.85,69.75 28.7,58.3 22.1,48.65 6.95,26.4 0.25,0 -0.9,14.65 3.25,30.4 6.95,44.6 14.75,58.9 21.25,70.9 31.45,84.5 37.55,92.6 50.6,108.4 56.85,116 60.7,119.55 84.7,141.7 121.65,127.7 149.45,117.15 176.65,90.55 201.05,66.6 214.05,27.75"/></g><g id="flash0.ai_Layer_7_.__3CPath.__3E_16" transform="matrix(1 0 0 1 83.25 229.65)" opacity="0.38"><path fill="#2E2866" d="M22.6,9.45Q23.3,9.05 23.4,8.65 23.6,8.15 22.95,7.15L19.85,2.8Q18.2,0.5 16.9,0.15 15.95,-0.1 14.2,0.2 3.75,2.2 3.35,2.35 -3,4.65 2.7,8.85 6.75,11.85 12.6,12 18.35,12.1 22.6,9.45"/></g><path fill="#E8E8E8" d="M63.7,66.55Q60.8,70.55 60.15,78.5 59.25,89.15 61.95,102.85 63.35,110.25 68.05,127.2 71.75,141.85 78.75,155.75 89.35,176.9 100.5,177.85 114,178.95 127.3,160.5 134.55,150.5 144,132.35 155.45,112.9 157.95,108.05 166.1,92.25 166.85,82.85 167.3,77.65 165.25,74.1 162.55,69.45 156.1,68.9 144.1,67.9 127,93.4 120.25,103.4 107.45,127.75 105.35,123.4 102.35,111.3 97.95,93.5 96.85,89.55 88.95,62.4 77.55,61.45 67.95,60.65 63.7,66.55"/><path fill="url(#linearGradient2)" d="M63.4,10.65Q51.15,10.9 40.65,16.35 30.55,21.5 22.8,31 15.45,39.9 11.3,51.25 4.05,71.35 6.8,97.3 9.6,123.15 21.15,146.95 32.75,170.8 51.35,188.95 59.95,197.35 68.05,202.05 80.2,209.05 95.35,210.4 109.65,211.6 124.1,207.65 145.75,201.7 164.35,186.6 182,172.2 194.45,151.65 206.65,131.35 211.65,108.6 216.8,85.2 213.3,63.25 211.25,50.45 205.85,42.2 198.85,31.4 185.65,26.3 172.95,21.45 159.55,23.55 147.05,25.5 135.25,33.05 124.45,39.9 115.55,50.6 112.75,39.1 104.95,29.65 97.15,20.2 86.4,15.3 75.65,10.35 63.4,10.65"/></g></g></g><g mask="url(#mask_)"><g id="Symbol_3_l1" transform="matrix(1 0 0 1 98.5 667.35)"><animateTransform attributeName="transform" additive="replace" type="translate" dur="2.8s" keyTimes="0;0.129;0.329;0.371;0.414;1" values="98.5,667.35;98.5,667.35;38.5,237.35;38.5,247.35;38.5,237.35;38.5,237.35" fill="freeze"/><g style="display:none;"><path fill="none" stroke="#633B28" stroke-width="4" stroke-linecap="round" stroke-linejoin="round" d="M93.3,226.45L91,245.6Q88.5,268.55 87.2,287.7 83.15,348.9 93.3,348.6 103.45,348.3 99.4,405.45 97.35,434.05 93.3,462.65"/><animate attributeName="display" fill="freeze" repeatCount="1" dur="2.8s" keyTimes="0;0.357;0.371;1" values="none;inline;none;none"/></g><g style="display:none;"><path fill="none" stroke="#633B28" stroke-width="4" stroke-linecap="round" stroke-linejoin="round" d="M91.75,245.5L93.3,226.45M91.75,245.5Q90.1,267.6 89.25,287.2 86.55,337.85 93.3,347.5 100.05,357.5 97.35,405.75 96,434.2 93.3,462.65"/><animate attributeName="display" fill="freeze" repeatCount="1" dur="2.8s" keyTimes="0;0.343;0.357;0.371;0.386;1" values="none;inline;none;inline;none;none"/></g><g style="display:none;"><path fill="none" stroke="#633B28" stroke-width="4" stroke-linecap="round" stroke-linejoin="round" d="M92.55,245.45L93.3,226.45M92.55,245.45Q91.7,266.7 91.25,286.65 89.9,326.8 93.3,346.45 96.7,366.65 95.35,406.05 94.65,434.35 93.3,462.65"/><animate attributeName="display" fill="freeze" repeatCount="1" dur="2.8s" keyTimes="0;0.329;0.343;0.386;0.4;1" values="none;inline;none;inline;none;none"/></g><g><path fill="none" stroke="#633B28" stroke-width="4" stroke-linecap="round" stroke-linejoin="round" d="M93.3,226.45L93.3,462.65"/><animate attributeName="display" fill="freeze" repeatCount="1" dur="2.8s" keyTimes="0;0.329;0.4;1" values="inline;none;inline;inline"/></g><g id="Symbol_20" transform="matrix(1 0 0 1 0 0)"><animateTransform attributeName="transform" additive="replace" type="translate" dur="2.8s" keyTimes="0;0.129;0.357;0.571;0.771;0.971;1" values="92.75,224.75;92.75,224.75;92.757,224.801;92.81,224.688;92.72,224.823;92.75,224.75;92.75,224.75" keySplines=".1 .1 .9 .9;0.398 0 0.614 1;0.398 0 0.614 1;0.398 0 0.614 1;0.398 0 0.614 1;.1 .1 .9 .9" calcMode="spline" fill="freeze"/><animateTransform attributeName="transform" additive="sum" type="rotate" dur="2.8s" keyTimes="0;0.129;0.357;0.571;0.771;0.971;1" values="0,0,0;0,0,0;-3.438,0,0;1.976,0,0;-1.733,0,0;0,0,0;0,0,0" keySplines=".1 .1 .9 .9;0.398 0 0.614 1;0.398 0 0.614 1;0.398 0 0.614 1;0.398 0 0.614 1;.1 .1 .9 .9" calcMode="spline" fill="freeze"/><animateTransform attributeName="transform" additive="sum" type="translate" dur="2.8s" keyTimes="0;0.129;0.357;0.571;0.771;0.971;1" values="-92.75,-224.75;-92.75,-224.75;-92.75,-224.8;-92.8,-224.7;-92.7,-224.85;-92.75,-224.75;-92.75,-224.75" keySplines=".1 .1 .9 .9;0.398 0 0.614 1;0.398 0 0.614 1;0.398 0 0.614 1;0.398 0 0.614 1;.1 .1 .9 .9" calcMode="spline" fill="freeze"/><path fill="#D34646" stroke="#721C1C" stroke-width="4" stroke-linecap="round" stroke-linejoin="round" d="M78.9,227.05Q76.5,227.45 75.75,227.7 74.05,228.25 73.3,229.4 72.1,231.2 73.2,234.45 74.85,239.35 78.4,242.9 81.4,245.95 86.05,248.2 89.45,249.9 94.85,251.6 98.05,252.65 99.85,252.5 101.2,252.4 102.35,251.8 103.55,251.1 104.05,249.95 104.55,248.9 104.35,247.4 104.25,246.5 103.7,244.8 101.75,237.25 100.4,234.1 98.05,228.8 93.05,226.5 90.6,225.25 89.4,224.75 87.25,223.9 85.65,224.1 84.55,224.25 82.35,225.5 80.05,226.85 78.9,227.05"/><use xlink:href="#flash0.ai_Layer_7_.__3CPath.__3E_7" transform="matrix(1 0 0 1 -2 -2)" opacity="0.86"/><path fill="none" stroke="#721C1C" stroke-width="4" stroke-linecap="round" stroke-linejoin="round" d="M84,2.15Q75.65,-0.25 66.25,0.05 57.2,0.35 48.65,3.05 31.9,8.45 19.65,22.3 7.9,35.6 3.3,53.2 -0.85,69.3 0.25,91.15 1.7,120.55 11.2,142.15 17.1,155.5 27.95,169.75 35.3,179.45 49.1,194.5 56.5,202.6 61.2,207.15 68.15,213.8 74.65,218.25 81.9,223.2 89.1,225.9 97.75,229.2 105.05,228.75 122.8,227.65 142.7,215.95 157.8,207.05 174.75,191.55 180.4,186.4 185.1,181.25 208.6,155.95 218.55,125.35 228.2,95.85 227,71.15 225.95,49.9 217.05,34.3 210.15,22.2 198.6,14.2 186.2,5.6 173.15,5.25 156.75,4.8 141.55,12.35 133.3,16.4 127.4,20.85 118.65,27.5 117.7,33.45 110.9,21.8 103.75,14.55 94.55,5.15 84,2.15"/><path fill="#721C1C" d="M118.15,30.2L114.65,32.2Q121.8,42.5 124.1,54.8 123.7,41.95 118.15,30.2"/><g id="flash0.ai_Layer_7_.__3CPath.__3E_8" transform="matrix(1 0 0 1 12.7 26.5)" opacity="0.51"><path fill="#FFF" d="M23.9,17.5Q26.5,14.4 27.55,12.7 29.35,9.9 29.7,7.3 30.8,-0.7 24.9,0.05 20.55,0.55 15.15,4.75 5.3,12.4 1.1,24.05 -0.35,28.25 0.1,30.85 0.4,32.65 1.55,34 2.75,35.45 4.4,35.75 6.45,36.15 8.65,34.7 10.2,33.65 12.15,31.35L23.9,17.5"/></g><g id="flash0.ai_Layer_7_.__3CPath.__3E_9" transform="matrix(1 0 0 1 5.5 72.35)" opacity="0.51"><path fill="#FFF" d="M2.1,17.5L2.5,17.85Q5.75,20.55 8.55,17.35 10.7,14.9 11.55,10.85 12.55,6.2 10.6,3.1 8.2,-0.6 5.6,0.1 3.3,0.7 1.65,4.3 0,7.7 0.05,11.45 0.05,15.6 2.1,17.5"/></g><use xlink:href="#flash0.ai_Layer_7_.__3CPath.__3E_10" transform="matrix(1 0 0 1 2.2 104.05)" opacity="0.38"/><use xlink:href="#flash0.ai_Layer_7_.__3CPath.__3E_11" transform="matrix(1 0 0 1 80.65 224.45)" opacity="0.38"/><path fill="#E8E8E8" d="M114.75,63.2Q114.9,47.35 104.05,44.65 98.15,43.2 93.1,46.35 85.25,52 75.8,74.05 68.2,91.75 64.35,107.15 61.75,117.5 60.3,133.65 58.55,153.6 62.15,157 66,161.1 77.1,163.9 84.05,165.65 96.05,166.8 109.4,168.15 121.5,167.95 153.55,167.5 156.15,157.15 157.6,151.3 151.85,147.4 147.75,144.65 138.8,142.4 123.25,138.5 96.25,138.2L97.75,132.15Q99.75,124.25 104.45,108.4 109.1,92.85 111.15,84.65 114.65,70.85 114.75,63.2"/><path fill="url(#linearGradient1)" d="M84.6,10.25Q73.5,6.05 61.3,7.15 49.15,8.3 39,14.4 29.3,20.25 22.2,30.25 15.5,39.65 12.1,51.25 6.2,71.65 10.75,97.5 15.2,123.05 28.4,146.05 41.55,169.05 61.35,185.85 70.6,193.75 78.9,197.85 91.45,204.05 106.7,204.3 121.05,204.55 135.2,199.6 156.4,192.2 173.95,175.9 190.6,160.35 201.6,139 212.45,117.9 215.85,94.9 219.35,71.2 214.4,49.5 211.6,37 205.6,29.05 197.9,18.75 184.35,14.55 171.4,10.55 158.15,13.55 145.8,16.35 134.55,24.65 124.25,32.25 116.05,43.55 112.5,32.25 104.1,23.35 95.7,14.45 84.6,10.25"/></g></g></g><g mask="url(#mask_)"><g id="Symbol_2_l1" transform="matrix(1 0 0 1 101.1 91.1)"><g id="flash0.ai_Layer_7_.__3CPath.__3E_6" transform="matrix(1 0 0 1 -140 10.25)"><animateTransform attributeName="transform" additive="replace" type="translate" dur="2.8s" keyTimes="0;0.129;0.986;1" values="-140,10.25;-140,10.25;0,10.25;0,10.25" keySplines=".1 .1 .9 .9;.25 .5 .5 1;.1 .1 .9 .9" calcMode="spline" fill="freeze"/><path fill="#FFF" d="M328.7,48.65Q327.9,42.9 324.7,37.8 319.6,29.8 307.7,22.45 279.1,4.8 240.75,0.95 206.5,-2.45 172.5,6.05 138.55,14.5 109.95,33.6 106.65,26.55 99.15,22 92.15,17.85 83.7,17 76.3,16.3 67.6,17.95 61.05,19.25 51.85,22.3 29.75,29.65 16.6,38.55 -5.25,53.4 1.65,69.8 5.3,78.5 18.45,84.55 27.8,88.85 39.85,91.65 48.8,93.7 62.1,95.5 125.3,103.85 188.7,97.15 232.95,92.5 248.85,89.95 282.8,84.5 307.25,74.8 314.55,71.95 318.8,69.05 324.7,65.05 327.15,59.8 329.5,54.8 328.7,48.65" fill-opacity="0.71"/></g><g id="flash0.ai_Layer_7_.__3CPath.__3E_5" transform="matrix(1 0 0 1 339.45 77.55)"><animateTransform attributeName="transform" additive="replace" type="translate" dur="2.8s" keyTimes="0;0.129;0.986;1" values="339.45,77.55;339.45,77.55;353.45,77.55;353.45,77.55" keySplines=".1 .1 .9 .9;.25 .5 .5 1;.1 .1 .9 .9" calcMode="spline" fill="freeze"/><path fill="#FFF" d="M67.45,7.35Q65.6,5.25 60.95,3.6 49.3,-0.6 36.2,0.1 24.7,0.7 11.6,5.05 5.1,7.2 2.4,10.15 0.55,12.2 0.1,14.9 -0.4,17.75 1.05,19.85 2.25,21.55 5.35,23.1 15.75,28.35 28.9,29 40.6,29.6 53.45,26.55 57.95,25.45 61.45,23.8 66.2,21.5 67.75,18.6 68.55,17.2 69.05,14.3 69.7,9.9 67.45,7.35" fill-opacity="0.36"/></g><g id="flash0.ai_Layer_7_.__3CPath.__3E_4" transform="matrix(1 0 0 1 420.5 0)"><animateTransform attributeName="transform" additive="replace" type="translate" dur="2.8s" keyTimes="0;0.129;0.986;1" values="420.5,0;420.5,0;460.5,0;460.5,0" keySplines=".1 .1 .9 .9;.25 .5 .5 1;.1 .1 .9 .9" calcMode="spline" fill="freeze"/><path fill="#FFF" d="M124.8,38.25Q128.1,37.8 133.1,35.95 138.65,33.9 142.1,31.55 151.55,25.15 138.65,21.55 124,17.5 109.7,16.55 96.4,15.65 80.2,17.3 85.2,11.9 79.65,6.8 75.5,3.05 68.6,1.25 61.25,-0.65 52.15,0.35 44.35,1.2 36,4.05 25,7.9 20.4,9.9 11.5,13.8 6.25,18.4 2.65,21.55 1.1,24.75 -0.4,27.85 0.15,30.6 0.85,34.05 4.45,36.35 8.15,38.7 14.25,39.35 69.45,45.35 124.8,38.25" fill-opacity="0.53"/></g></g></g><mask id="mask_"><g id="Symbol_18" transform="matrix(1 0 0 1 19.45 17.7)"><path fill="#FFF" d="M986.1,80Q984.45,68.45 980.8,59.4 974.9,44.8 962.7,33.75 950.65,22.85 935.45,18.15 920.4,13.55 904.15,15.55 888.1,17.5 874.3,25.5 872.55,26.55 869.95,27.55 867.8,28.35 865.75,29.8 855.95,16.45 841.25,8.5 826.3,0.35 810.1,0 794.3,-0.3 778.55,6.7 763.85,13.25 751.55,25.05 738.25,37.8 728.6,48.9 717.3,61.85 708.45,75.4 693.4,46.4 662.9,29.6 632.75,13 599.7,15.05 565.75,17.15 536.85,38.35 510.65,57.55 492.45,89.2 486,80.55 474.9,73.5 467.05,68.5 453.55,62.45 370.9,25.4 296.45,20.4 223.45,15.5 159.65,41.85 91.45,69.95 51.95,127.05 18.2,175.85 5.95,236.8 -6.55,299.05 7.2,355.6 14.45,385.4 29.55,413.4 44.8,441.7 65.7,463.75 33.4,499.35 28.5,534.85 26.35,550.7 28.65,565.15 31.15,581.05 38.85,593.55 49,610.05 70.75,618.45 91.35,626.45 111.35,623.4L766.4,623.4Q799.75,623.4 820.9,619.3 849.8,613.7 871.05,598.8 894.6,582.3 915.95,553 926.2,539 932.95,525.95 940.55,511.25 944.55,496.3 953.45,462.85 956.85,428.05 958.1,414.85 958.25,404.65 958.8,368.25 947.15,333.1 935.6,298.35 913.55,268.95 937.85,243.05 955.05,211.55 972.3,180 980.95,145.6 990.2,108.95 986.1,80" fill-opacity="1"/></g></mask></g></g></svg>